<svg width="180" height="24" viewBox="0 0 180 24" fill="none" xmlns="http://www.w3.org/2000/svg">
<path d="M11.9998 1.99951C6.47676 1.99951 1.99976 6.47651 1.99976 11.9995C1.99976 17.0125 5.69276 21.1525 10.5048 21.8755V14.6495H8.03076V12.0205H10.5048V10.2715C10.5048 7.37551 11.9158 6.10451 14.3228 6.10451C15.4758 6.10451 16.0848 6.18951 16.3738 6.22851V8.52251H14.7318C13.7098 8.52251 13.3528 9.49151 13.3528 10.5835V12.0205H16.3478L15.9418 14.6495H13.3538V21.8965C18.2348 21.2355 21.9998 17.0615 21.9998 11.9995C21.9998 6.47651 17.5228 1.99951 11.9998 1.99951Z" fill="white"/>
<path d="M50.9111 2.16016C41.8672 2.16016 41.1595 2.8683 41.1595 11.9117V12.0886C41.1595 21.132 41.8672 21.8402 50.9111 21.8402H51.088C60.1319 21.8402 60.8395 21.132 60.8395 12.0886V12.0002C60.8395 2.87454 60.1252 2.16016 50.9995 2.16016H50.9111ZM56.9007 5.11216C57.4443 5.11068 57.8861 5.54961 57.8875 6.09327C57.889 6.63693 57.4501 7.07868 56.9064 7.08016C56.3628 7.08163 55.921 6.6427 55.9195 6.09904C55.9181 5.55538 56.357 5.11363 56.9007 5.11216ZM50.988 7.08016C53.7048 7.07376 55.9131 9.2718 55.9195 11.9886C55.9259 14.7054 53.7279 16.9138 51.0111 16.9202C48.2943 16.9266 46.0859 14.7285 46.0795 12.0117C46.0731 9.29486 48.2712 7.08655 50.988 7.08016ZM50.9928 9.04816C49.3623 9.05209 48.0436 10.3774 48.0475 12.0078C48.0515 13.6378 49.3763 14.9561 51.0063 14.9522C52.6368 14.9482 53.9555 13.6234 53.9515 11.9934C53.9476 10.3629 52.6228 9.04422 50.9928 9.04816Z" fill="white"/>
<path d="M89.9995 2.16016C95.4254 2.16016 99.8395 6.57429 99.8395 12.0002C99.8395 17.426 95.4254 21.8402 89.9995 21.8402C84.5737 21.8402 80.1595 17.426 80.1595 12.0002C80.1595 6.57429 84.5737 2.16016 89.9995 2.16016ZM87.5395 16.2117C89.8824 16.2117 91.7886 14.3224 91.7886 12.0002C91.7886 11.5064 91.3879 11.1056 90.8941 11.1056H87.833C87.3392 11.1056 86.9384 11.5064 86.9384 12.0002C86.9384 12.4939 87.3392 12.8947 87.833 12.8947H89.8256C89.4633 13.7888 88.575 14.4226 87.5395 14.4226C86.1834 14.4226 85.0795 13.3362 85.0795 12.0002C85.0795 10.6642 86.1834 9.57773 87.5395 9.57773C88.0646 9.57773 88.5651 9.7383 88.9878 10.0424C89.3895 10.3318 89.9481 10.2392 90.2362 9.83849C90.5251 9.43773 90.4334 8.87864 90.0326 8.5897C89.3036 8.0655 88.4417 7.78819 87.5395 7.78819C85.1967 7.78819 83.2905 9.67747 83.2905 11.9997C83.2905 14.3219 85.1967 16.2117 87.5395 16.2117ZM96.0377 12.8947C96.5315 12.8947 96.9323 12.4939 96.9323 12.0002C96.9323 11.5064 96.5315 11.1056 96.0377 11.1056H95.6133V10.4571C95.6133 9.96328 95.2125 9.56252 94.7187 9.56252C94.2249 9.56252 93.8242 9.96328 93.8242 10.4571V11.1056H93.3541C92.8603 11.1056 92.4595 11.5064 92.4595 12.0002C92.4595 12.4939 92.8603 12.8947 93.3541 12.8947H93.8242V13.5432C93.8242 14.037 94.2249 14.4378 94.7187 14.4378C95.2125 14.4378 95.6133 14.037 95.6133 13.5432V12.8947H96.0377Z" fill="white"/>
<path d="M122.2 1.92041C120.389 1.92041 118.92 3.38891 118.92 5.20041V18.3204C118.92 20.1319 120.389 21.6004 122.2 21.6004H135.32C137.132 21.6004 138.6 20.1319 138.6 18.3204V5.20041C138.6 3.38891 137.132 1.92041 135.32 1.92041H122.2ZM123.178 6.13755H126.897L129.538 9.8907L132.743 6.13755H133.914L130.067 10.6421L134.811 17.3833H131.093L128.028 13.0288L124.309 17.3833H123.137L127.499 12.2775L123.178 6.13755ZM124.971 7.0747L131.582 16.4461H133.018L126.407 7.0747H124.971Z" fill="white"/>
<path d="M175.497 2.16016H160.503C159.209 2.16016 158.16 3.20976 158.16 4.50301V19.4973C158.16 20.7906 159.209 21.8402 160.503 21.8402H175.497C176.79 21.8402 177.84 20.7906 177.84 19.4973V4.50301C177.84 3.20976 176.79 2.16016 175.497 2.16016ZM164.251 9.6573V18.5602H161.44V9.6573H164.251ZM161.44 7.0661C161.44 6.4101 162.002 5.90873 162.845 5.90873C163.689 5.90873 164.218 6.4101 164.251 7.0661C164.251 7.7221 163.726 8.25158 162.845 8.25158C162.002 8.25158 161.44 7.7221 161.44 7.0661ZM174.56 18.5602H171.748C171.748 18.5602 171.748 14.2212 171.748 13.8744C171.748 12.9373 171.28 12.0002 170.108 11.9814H170.071C168.937 11.9814 168.468 12.9467 168.468 13.8744C168.468 14.3008 168.468 18.5602 168.468 18.5602H165.657V9.6573H168.468V10.8568C168.468 10.8568 169.373 9.6573 171.191 9.6573C173.051 9.6573 174.56 10.9365 174.56 13.5277V18.5602Z" fill="white"/>
</svg>
