<svg width="23" height="24" viewBox="0 0 23 24" fill="none" xmlns="http://www.w3.org/2000/svg">
<path d="M21.0185 3.04933L1.11139 10.2524C0.791181 10.3682 0.720149 10.6518 1.10012 10.8069L5.38011 12.5678L7.91699 13.6108L20.3014 4.27299C20.4683 4.14796 20.66 4.38297 20.5393 4.51727L11.6648 14.3726V14.3749L11.1552 14.9572L11.8305 15.3299L17.4477 18.4348C17.7758 18.6154 18.2009 18.4661 18.2956 18.0482L21.5721 3.54829C21.6612 3.1512 21.4053 2.90925 21.0185 3.04933ZM7.89444 19.8681C7.89444 20.1528 8.05116 20.2327 8.26764 20.0313C8.55064 19.7662 11.481 17.0665 11.481 17.0665L7.89444 15.1632V19.8681Z" fill="white"/>
</svg>
