<svg width="21" height="21" viewBox="0 0 21 21" fill="none" xmlns="http://www.w3.org/2000/svg">
<path d="M18.6603 2.70712L0.986716 9.10205C0.702432 9.20483 0.63937 9.45664 0.976706 9.59436L4.7765 11.1576L7.02874 12.0837L18.0237 3.7935C18.1719 3.6825 18.342 3.89114 18.2349 4.01037L10.3561 12.76V12.762L9.90361 13.2789L10.5032 13.6099L15.4902 16.3664C15.7815 16.5268 16.1588 16.3942 16.2429 16.0232L19.1518 3.1501C19.2309 2.79757 19.0037 2.58276 18.6603 2.70712ZM7.00872 17.6388C7.00872 17.8917 7.14786 17.9626 7.34005 17.7838C7.59131 17.5484 10.1929 15.1516 10.1929 15.1516L7.00872 13.4619V17.6388Z" fill="white"/>
</svg>
