<svg width="20" height="20" viewBox="0 0 20 20" fill="none" xmlns="http://www.w3.org/2000/svg">
<path d="M9.55498 0C4.28433 0 0 4.39901 0 9.81075C0 15.2225 4.28433 19.6215 9.55498 19.6215C14.8256 19.6215 19.11 15.2225 19.11 9.81075C19.11 4.39901 14.8256 0 9.55498 0ZM8.63031 14.6655V7.65871C8.63031 7.13336 9.04333 6.70928 9.55498 6.70928C10.0666 6.70928 10.4797 7.13336 10.4797 7.65871V14.6655C10.4797 15.1908 10.0666 15.6149 9.55498 15.6149C9.04333 15.6149 8.63031 15.1908 8.63031 14.6655ZM9.55498 5.90544C9.04333 5.90544 8.63031 5.48136 8.63031 4.95601C8.63031 4.43066 9.04333 4.00658 9.55498 4.00658C10.0666 4.00658 10.4797 4.43066 10.4797 4.95601C10.4797 5.47503 10.0666 5.90544 9.55498 5.90544Z" fill="white"/>
</svg>
