<svg width="20" height="20" viewBox="0 0 20 20" fill="none" xmlns="http://www.w3.org/2000/svg">
<path d="M9.55498 0C4.28433 0 0 4.34323 0 9.68634C0 15.0294 4.28433 19.3727 9.55498 19.3727C14.8256 19.3727 19.11 15.0294 19.11 9.68634C19.11 4.34323 14.8256 0 9.55498 0ZM8.63031 14.4795V7.56159C8.63031 7.04291 9.04333 6.62421 9.55498 6.62421C10.0666 6.62421 10.4797 7.04291 10.4797 7.56159V14.4795C10.4797 14.9982 10.0666 15.4169 9.55498 15.4169C9.04333 15.4169 8.63031 14.9982 8.63031 14.4795ZM9.55498 5.83055C9.04333 5.83055 8.63031 5.41185 8.63031 4.89316C8.63031 4.37448 9.04333 3.95578 9.55498 3.95578C10.0666 3.95578 10.4797 4.37448 10.4797 4.89316C10.4797 5.4056 10.0666 5.83055 9.55498 5.83055Z" fill="white"/>
</svg>
