<svg width="301" height="275" viewBox="0 0 301 275" fill="none" xmlns="http://www.w3.org/2000/svg">
<path d="M162.761 10.3529C122.271 -8.69808 96.023 19.4041 88.3544 38.0966L87.0666 42.3515C89.8273 79.2244 52.3333 92.6769 32.395 94.0853C1.72065 100.538 1.46503 131.982 6.32179 145.554C14.1568 167.447 21.9146 182.811 23.5761 189.724C21.7356 224.446 25.3654 238.76 27.4104 241.577C49.4959 281.523 88.759 272.305 105.63 262.702C135.077 240.271 158.799 242.089 166.978 245.802C196.426 266.697 222.959 268.079 232.545 266.159C282.237 249.566 273.444 209.569 262.836 191.645C249.646 156.616 268.331 121.996 279.323 109.065C309.997 62.0518 293.893 33.6546 282.007 25.3325C269.737 10.5834 233.695 24.6924 213.757 34.1667C199.57 38.3918 170.685 18.2909 162.761 10.3529Z" stroke="#C0181C" stroke-width="8"/>
</svg>
