<svg width="44" height="46" viewBox="0 0 44 46" fill="none" xmlns="http://www.w3.org/2000/svg">
<path d="M5 41.0707V43.1242C3.67392 43.1242 2.40215 42.5834 1.46447 41.6206C0.526784 40.6578 0 39.352 0 37.9904V9.24091C0 7.87933 0.526784 6.57352 1.46447 5.61074C2.40215 4.64796 3.67392 4.10707 5 4.10707H16V6.16061H5C4.20435 6.16061 3.44129 6.48514 2.87868 7.06281C2.31607 7.64048 2 8.42396 2 9.24091V12.3212H16V14.3747H2V37.9904C2 38.8074 2.31607 39.5908 2.87868 40.1685C3.44129 40.7462 4.20435 41.0707 5 41.0707ZM39 4.10707V6.16061C39.7956 6.16061 40.5587 6.48514 41.1213 7.06281C41.6839 7.64048 42 8.42396 42 9.24091V12.3212H39V14.3747H42V37.9904C42 38.8074 41.6839 39.5908 41.1213 40.1685C40.5587 40.7462 39.7956 41.0707 39 41.0707H23V43.1242H39C40.3261 43.1242 41.5979 42.5834 42.5355 41.6206C43.4732 40.6578 44 39.352 44 37.9904V9.24091C44 7.87933 43.4732 6.57352 42.5355 5.61074C41.5979 4.64796 40.3261 4.10707 39 4.10707ZM10 10.2677V8.21414H6V10.2677H10ZM16 10.2677V8.21414H12V10.2677H16ZM28 8.21414C27.2679 8.21317 26.5446 8.37727 25.881 8.69485C25.2175 9.01243 24.63 9.47574 24.16 10.0521L25.7 11.3663C25.9816 11.0211 26.3334 10.7434 26.7308 10.5529C27.1282 10.3624 27.5614 10.2637 28 10.2637C28.4386 10.2637 28.8718 10.3624 29.2692 10.5529C29.6666 10.7434 30.0184 11.0211 30.3 11.3663L31.84 10.0521C31.37 9.47574 30.7825 9.01243 30.119 8.69485C29.4554 8.37727 28.7321 8.21317 28 8.21414ZM28 6.16061C28.9705 6.16063 29.9303 6.36784 30.8186 6.76908C31.7069 7.17032 32.5042 7.75684 33.16 8.49137L34.64 7.1155C33.7968 6.16924 32.7709 5.41358 31.6278 4.89659C30.4846 4.3796 29.2491 4.11261 28 4.11261C26.7509 4.11261 25.5154 4.3796 24.3722 4.89659C23.2291 5.41358 22.2032 6.16924 21.36 7.1155L22.84 8.49137C23.4958 7.75684 24.2931 7.17032 25.1814 6.76908C26.0697 6.36784 27.0295 6.16063 28 6.16061ZM27 14.3747H29V12.3212H27V14.3747ZM18 15.4015V3.0803C18 2.26336 18.3161 1.47987 18.8787 0.9022C19.4413 0.324531 20.2044 0 21 0H35C35.7956 0 36.5587 0.324531 37.1213 0.9022C37.6839 1.47987 38 2.26336 38 3.0803V15.4015C38 16.2185 37.6839 17.002 37.1213 17.5796C36.5587 18.1573 35.7956 18.4818 35 18.4818H21C20.2044 18.4818 19.4413 18.1573 18.8787 17.5796C18.3161 17.002 18 16.2185 18 15.4015ZM20 15.4015C20 15.6738 20.1054 15.935 20.2929 16.1276C20.4804 16.3201 20.7348 16.4283 21 16.4283H35C35.2652 16.4283 35.5196 16.3201 35.7071 16.1276C35.8946 15.935 36 15.6738 36 15.4015V3.0803C36 2.80799 35.8946 2.54683 35.7071 2.35427C35.5196 2.16171 35.2652 2.05354 35 2.05354H21C20.7348 2.05354 20.4804 2.16171 20.2929 2.35427C20.1054 2.54683 20 2.80799 20 3.0803V15.4015ZM22 23.6157V42.0975C22 42.9144 21.6839 43.6979 21.1213 44.2756C20.5587 44.8533 19.7956 45.1778 19 45.1778H9C8.20435 45.1778 7.44129 44.8533 6.87868 44.2756C6.31607 43.6979 6 42.9144 6 42.0975V23.6157C6 22.7987 6.31607 22.0152 6.87868 21.4376C7.44129 20.8599 8.20435 20.5354 9 20.5354H19C19.7956 20.5354 20.5587 20.8599 21.1213 21.4376C21.6839 22.0152 22 22.7987 22 23.6157ZM20 23.6157C20 23.3433 19.8946 23.0822 19.7071 22.8896C19.5196 22.6971 19.2652 22.5889 19 22.5889H9C8.73478 22.5889 8.48043 22.6971 8.29289 22.8896C8.10536 23.0822 8 23.3433 8 23.6157V42.0975C8 42.3698 8.10536 42.631 8.29289 42.8235C8.48043 43.0161 8.73478 43.1242 9 43.1242H19C19.2652 43.1242 19.5196 43.0161 19.7071 42.8235C19.8946 42.631 20 42.3698 20 42.0975V23.6157ZM12 41.0707H16V39.0172H12V41.0707ZM38 20.5354H24V22.5889H38V20.5354ZM38 24.6424H24V26.696H38V24.6424ZM24 39.0172H38V36.9636H24V39.0172ZM38 33.8833C38 34.1557 37.8946 34.4168 37.7071 34.6094C37.5196 34.8019 37.2652 34.9101 37 34.9101H25C24.7348 34.9101 24.4804 34.8019 24.2929 34.6094C24.1054 34.4168 24 34.1557 24 33.8833V29.7763C24 29.504 24.1054 29.2428 24.2929 29.0502C24.4804 28.8577 24.7348 28.7495 25 28.7495H37C37.2652 28.7495 37.5196 28.8577 37.7071 29.0502C37.8946 29.2428 38 29.504 38 29.7763V33.8833ZM36 30.803H26V32.8566H36V30.803Z" fill="white"/>
</svg>
