<svg width="61" height="59" viewBox="0 0 61 59" fill="none" xmlns="http://www.w3.org/2000/svg">
<path d="M30.3564 48.6714C31.0101 48.6714 31.5399 48.1273 31.5399 47.4562C31.5399 46.785 31.0101 46.241 30.3564 46.241C29.7028 46.241 29.1729 46.785 29.1729 47.4562C29.1729 48.1273 29.7028 48.6714 30.3564 48.6714Z" fill="white"/>
<path d="M57.3778 46.9513C55.532 45.1497 53.11 44.0303 50.6134 43.7983C54.106 43.3141 56.8078 40.2346 56.8078 36.5176C56.8078 32.4655 53.5971 29.1688 49.6506 29.1688C45.7041 29.1688 42.4934 32.4655 42.4934 36.5176C42.4934 40.2324 45.1921 43.3099 48.6816 43.7972C46.0409 44.0367 43.4883 45.2349 41.6736 47.0566C41.2933 46.548 40.8818 46.0649 40.4403 45.6105C38.0152 43.1194 34.8678 41.6371 31.483 41.3668C36.2068 40.7932 39.8828 36.657 39.8828 31.6557C39.8828 26.2627 35.6098 21.8765 30.3585 21.8765C25.1072 21.8765 20.8342 26.2638 20.8342 31.6557C20.8342 36.6613 24.5154 40.7996 29.2444 41.3679C27.1146 41.5392 25.045 42.1957 23.2003 43.2982C21.5887 44.2601 20.1751 45.5434 19.0423 47.0566C17.2276 45.2349 14.6751 44.0356 12.0344 43.7972C15.5238 43.3099 18.2226 40.2324 18.2226 36.5176C18.2226 32.4655 15.0119 29.1688 11.0654 29.1688C7.11885 29.1688 3.90817 32.4655 3.90817 36.5176C3.90817 40.2346 6.60999 43.3141 10.1026 43.7983C7.60595 44.0292 5.18394 45.1497 3.33816 46.9513C1.18457 49.0518 0 51.8207 0 54.748V57.1785C0 57.8808 0.55446 58.4512 1.2395 58.4512H59.4744C60.1584 58.4512 60.7139 57.8819 60.7139 57.1785V54.748C60.7139 51.8207 59.5293 49.0518 57.3778 46.9513V46.9513ZM44.9714 36.5176C44.9714 33.868 47.07 31.7131 49.6506 31.7131C52.2312 31.7131 54.3298 33.868 54.3298 36.5176C54.3298 39.1673 52.2312 41.3221 49.6506 41.3221C47.07 41.3221 44.9714 39.1673 44.9714 36.5176V36.5176ZM23.3101 31.6567C23.3101 27.6674 26.4711 24.4218 30.3564 24.4218C34.2418 24.4218 37.4027 27.6674 37.4027 31.6567C37.4027 35.6461 34.2418 38.8917 30.3564 38.8917C26.4711 38.8917 23.3101 35.6461 23.3101 31.6567ZM6.38406 36.5176C6.38406 33.868 8.48272 31.7131 11.0633 31.7131C13.6439 31.7131 15.7425 33.868 15.7425 36.5176C15.7425 39.1673 13.6439 41.3221 11.0633 41.3221C8.48272 41.3221 6.38406 39.1673 6.38406 36.5176V36.5176ZM2.47797 54.748C2.47797 50.167 6.40997 46.2979 11.0633 46.2979C13.5972 46.2979 16.1094 47.444 17.6743 49.2678C16.6493 51.3131 16.1073 53.5892 16.098 55.9058H2.47797V54.747V54.748ZM18.576 55.9069C18.5863 53.7499 19.1543 51.6376 20.2207 49.7935C22.337 46.1383 26.2213 43.8675 30.3564 43.8675C33.5039 43.8675 36.4627 45.1252 38.6868 47.411C39.3832 48.126 39.9906 48.9273 40.4922 49.7935C41.5596 51.6376 42.1276 53.751 42.1379 55.9069H18.576V55.9069ZM58.2359 55.9069H44.6159C44.6076 53.5903 44.0645 51.3141 43.0396 49.2689C44.6045 47.445 47.1167 46.299 49.6506 46.299C54.3039 46.299 58.2359 50.1691 58.2359 54.7491V55.9079V55.9069Z" fill="white"/>
<path d="M24.8408 12.0915L23.9734 17.2865C23.8936 17.7643 24.0853 18.2464 24.4667 18.5305C24.8481 18.8157 25.3538 18.8529 25.7715 18.6273L30.3139 16.1745L34.8574 18.6273C35.0387 18.7252 35.2367 18.7731 35.4336 18.7731C35.6906 18.7731 35.9466 18.6912 36.1622 18.5305C36.5435 18.2453 36.7342 17.7633 36.6544 17.2855L35.7859 12.0905L39.462 8.41183C39.7998 8.07344 39.9211 7.56799 39.776 7.10722C39.6299 6.64646 39.2423 6.31127 38.7759 6.24103L33.6997 5.48445L31.427 0.712957C31.2186 0.27667 30.7875 0 30.3139 0C29.8403 0 29.4091 0.27667 29.2008 0.712957L26.9281 5.48445L21.8519 6.24103C21.3855 6.3102 20.9969 6.64646 20.8518 7.10722C20.7057 7.56799 20.828 8.07344 21.1658 8.41183L24.8418 12.0905L24.8408 12.0915ZM27.9313 7.90744C28.3365 7.84678 28.6868 7.58501 28.8661 7.20725L30.3129 4.1692L31.7596 7.20725C31.94 7.58501 32.2892 7.84678 32.6944 7.90744L35.9331 8.39055L33.5888 10.7359C33.2966 11.0285 33.1629 11.4499 33.2323 11.8628L33.7868 15.1764L30.8891 13.6122C30.5284 13.4174 30.0973 13.4174 29.7356 13.6122L26.8389 15.1764L27.3924 11.8628C27.4618 11.4499 27.3281 11.0285 27.0358 10.7369L24.6916 8.39161L27.9302 7.9085L27.9313 7.90744Z" fill="white"/>
<path d="M46.1124 20.0071L45.5269 23.5144C45.4471 23.9912 45.6378 24.4743 46.0202 24.7584C46.4016 25.0436 46.9073 25.0808 47.325 24.8552L50.3937 23.1995L53.4624 24.8552C53.6437 24.9531 53.8417 25.001 54.0386 25.001C54.2956 25.001 54.5516 24.9191 54.7672 24.7584C55.1486 24.4732 55.3393 23.9912 55.2605 23.5144L54.6749 20.0071L57.157 17.5224C57.4949 17.184 57.6162 16.6786 57.47 16.2178C57.3239 15.757 56.9363 15.4218 56.4699 15.3516L53.0395 14.8398L51.5057 11.6485C51.2974 11.2143 50.8663 10.9387 50.3947 10.9387C49.9232 10.9387 49.492 11.2133 49.2837 11.6474L47.7488 14.8398L44.3185 15.3516C43.8521 15.4208 43.4645 15.757 43.3184 16.2178C43.1722 16.6786 43.2945 17.184 43.6313 17.5224L46.1135 20.0071H46.1124ZM48.7489 17.2628C49.1521 17.2021 49.5014 16.9425 49.6817 16.5668L50.3926 15.0866L51.1036 16.5658C51.2839 16.9414 51.6332 17.2021 52.0363 17.2617L53.6272 17.499L52.4757 18.6514C52.1835 18.9441 52.0508 19.3644 52.1192 19.7773L52.3908 21.4032L50.9678 20.636C50.6072 20.4413 50.176 20.4413 49.8154 20.636L48.3914 21.4043L48.6629 19.7783C48.7324 19.3654 48.5987 18.9451 48.3064 18.6525L47.155 17.5001L48.7458 17.2628H48.7489Z" fill="white"/>
<path d="M5.86898 20.0071L5.28343 23.5144C5.20363 23.9912 5.39432 24.4743 5.77675 24.7584C5.99231 24.9191 6.2483 25.001 6.50532 25.001C6.70223 25.001 6.90018 24.9531 7.08154 24.8552L10.1502 23.1995L13.2189 24.8552C13.6366 25.0808 14.1424 25.0425 14.5237 24.7584C14.9051 24.4732 15.0958 23.9912 15.0171 23.5144L14.4315 20.0071L16.9136 17.5224C17.2515 17.184 17.3727 16.6786 17.2266 16.2178C17.0805 15.757 16.6929 15.4218 16.2265 15.3516L12.7961 14.8398L11.2623 11.6485C11.054 11.2143 10.6228 10.9387 10.1513 10.9387C9.67973 10.9387 9.2486 11.2133 9.04029 11.6474L7.50542 14.8398L4.07502 15.3516C3.60865 15.4208 3.22105 15.757 3.07492 16.2178C2.92879 16.6786 3.05108 17.184 3.38791 17.5224L5.87002 20.0071H5.86898ZM8.50552 17.2628C8.90867 17.2021 9.25793 16.9425 9.43825 16.5668L10.1492 15.0866L10.8602 16.5658C11.0405 16.9414 11.3897 17.2021 11.7929 17.2617L13.3837 17.499L12.2323 18.6514C11.9401 18.9441 11.8074 19.3644 11.8758 19.7773L12.1473 21.4032L10.7244 20.636C10.3637 20.4413 9.9326 20.4413 9.57195 20.636L8.14797 21.4043L8.4195 19.7783C8.48894 19.3654 8.35524 18.9451 8.06299 18.6525L6.91158 17.5001L8.50241 17.2628H8.50552Z" fill="white"/>
<path d="M35.5746 47.7837C35.0025 47.3974 34.2345 47.5613 33.8583 48.1487C33.4821 48.7361 33.6417 49.5246 34.2138 49.9109C35.2999 50.6441 36.1684 51.6645 36.7239 52.8638C36.9364 53.3214 37.3799 53.5895 37.8432 53.5895C38.0214 53.5895 38.2028 53.5502 38.3749 53.4661C38.9925 53.1639 39.2558 52.4052 38.9614 51.771C38.2111 50.1514 37.04 48.7733 35.5746 47.7848V47.7837Z" fill="white"/>
</svg>
