<svg width="6" height="7" viewBox="0 0 6 7" fill="none" xmlns="http://www.w3.org/2000/svg">
<path d="M2.85156 0.149597C4.23685 0.149597 5.25662 1.47721 4.96289 2.86639L4.69238 4.14471C4.47921 5.16197 3.59438 5.90643 2.58105 5.90643C1.55436 5.90623 0.688913 5.17767 0.470703 4.14569L0.200195 2.86639V2.86542C-0.0909283 1.47658 0.925825 0.149597 2.31348 0.149597H2.85156ZM2.31348 0.862488C1.3835 0.862488 0.680834 1.75758 0.881836 2.716L1.15234 3.99432C1.30236 4.70456 1.89182 5.19334 2.58105 5.19354C3.25974 5.19354 3.86446 4.69283 4.01074 3.9953L4.28125 2.71503C4.48371 1.75679 3.7792 0.862488 2.85156 0.862488H2.31348Z" fill="#FF0000" stroke="#FF0000" stroke-width="0.3"/>
</svg>
