<svg width="7" height="10" viewBox="0 0 7 10" fill="none" xmlns="http://www.w3.org/2000/svg">
<path d="M0.358864 3.97992H5.86741C6.06556 3.97992 6.22627 3.8192 6.22627 3.62105V0.358864C6.22627 0.160714 6.06556 0 5.86741 0H0.358864C0.160714 0 0 0.160714 0 0.358864V3.62105C0 3.81927 0.160714 3.97992 0.358864 3.97992ZM0.717729 0.717799H5.50854V3.26226H0.717729V0.717799ZM0.358864 9.34968H5.86741C6.06556 9.34968 6.22627 9.18897 6.22627 8.99082V5.72863C6.22627 5.53048 6.06556 5.36976 5.86741 5.36976H0.358864C0.160714 5.36976 0 5.53048 0 5.72863V8.99082C0 9.18904 0.160714 9.34968 0.358864 9.34968ZM0.717729 6.08756H5.50854V8.63202H0.717729V6.08756Z" fill="#FF0000"/>
</svg>
