<svg width="489" height="118" viewBox="0 0 489 118" fill="none" xmlns="http://www.w3.org/2000/svg">
<g filter="url(#filter0_d_160_719)">
<rect x="14.813" width="459" height="82.2581" rx="4.03989" fill="white"/>
</g>
<path opacity="0.88" d="M75.7223 47.9031L72.6832 37.1347H74.7812L76.7214 45.048H76.8213L78.8929 37.1347H80.8015L82.8784 45.0533H82.9731L84.9133 37.1347H87.0112L83.9721 47.9031H82.0477L79.8919 40.3474H79.8078L77.6468 47.9031H75.7223ZM90.1831 43.1709V47.9031H88.2797V37.1347H90.141V41.1992H90.2357C90.4249 40.7435 90.7176 40.3842 91.1137 40.1213C91.5133 39.8549 92.0216 39.7217 92.6386 39.7217C93.1994 39.7217 93.6884 39.8391 94.1055 40.074C94.5227 40.3088 94.8451 40.6523 95.073 41.1045C95.3043 41.5567 95.42 42.1088 95.42 42.7608V47.9031H93.5166V43.0552C93.5166 42.5119 93.3764 42.0895 93.096 41.7881C92.8191 41.4831 92.43 41.3306 91.9287 41.3306C91.5922 41.3306 91.2908 41.4042 91.0244 41.5514C90.7615 41.6952 90.5546 41.9037 90.4039 42.1771C90.2567 42.4506 90.1831 42.7818 90.1831 43.1709ZM99.6842 48.0661C99.1725 48.0661 98.7115 47.9749 98.3014 47.7927C97.8948 47.6069 97.5723 47.3335 97.3339 46.9724C97.0991 46.6114 96.9816 46.1662 96.9816 45.6369C96.9816 45.1812 97.0658 44.8044 97.234 44.5064C97.4023 44.2085 97.6319 43.9701 97.9228 43.7913C98.2138 43.6126 98.5415 43.4776 98.9061 43.3865C99.2741 43.2918 99.6544 43.2235 100.047 43.1814C100.52 43.1323 100.904 43.0885 101.199 43.05C101.493 43.0079 101.707 42.9448 101.84 42.8607C101.977 42.773 102.045 42.6381 102.045 42.4558V42.4243C102.045 42.0282 101.928 41.7215 101.693 41.5041C101.458 41.2868 101.12 41.1781 100.678 41.1781C100.212 41.1781 99.842 41.2798 99.5686 41.4831C99.2987 41.6864 99.1164 41.9265 99.0217 42.2034L97.2445 41.9511C97.3848 41.4603 97.6161 41.0502 97.9386 40.7207C98.2611 40.3877 98.6554 40.1388 99.1216 39.9741C99.5878 39.8058 100.103 39.7217 100.667 39.7217C101.057 39.7217 101.444 39.7672 101.829 39.8584C102.215 39.9495 102.567 40.1002 102.886 40.3106C103.205 40.5174 103.461 40.7996 103.654 41.1571C103.85 41.5146 103.948 41.9616 103.948 42.4979V47.9031H102.119V46.7936H102.056C101.94 47.018 101.777 47.2283 101.567 47.4246C101.36 47.6174 101.099 47.7734 100.783 47.8926C100.471 48.0082 100.105 48.0661 99.6842 48.0661ZM100.178 46.6675C100.561 46.6675 100.892 46.5921 101.172 46.4414C101.453 46.2871 101.668 46.0838 101.819 45.8314C101.973 45.5791 102.05 45.3039 102.05 45.0059V44.0542C101.991 44.1033 101.889 44.1489 101.745 44.1909C101.605 44.233 101.447 44.2698 101.272 44.3014C101.097 44.3329 100.923 44.361 100.752 44.3855C100.58 44.41 100.431 44.4311 100.305 44.4486C100.021 44.4871 99.7666 44.5502 99.5423 44.6379C99.3179 44.7255 99.1409 44.8482 99.0112 45.0059C98.8815 45.1602 98.8167 45.36 98.8167 45.6053C98.8167 45.9559 98.9446 46.2205 99.2005 46.3993C99.4564 46.5781 99.7824 46.6675 100.178 46.6675ZM109.895 39.8268V41.2991H105.252V39.8268H109.895ZM106.399 37.8919H108.302V45.4739C108.302 45.7298 108.341 45.9261 108.418 46.0628C108.498 46.196 108.604 46.2871 108.733 46.3362C108.863 46.3853 109.007 46.4098 109.164 46.4098C109.284 46.4098 109.392 46.401 109.49 46.3835C109.592 46.366 109.669 46.3502 109.722 46.3362L110.042 47.8242C109.941 47.8593 109.795 47.8978 109.606 47.9399C109.42 47.9819 109.192 48.0065 108.922 48.0135C108.446 48.0275 108.016 47.9557 107.634 47.7979C107.252 47.6367 106.949 47.3878 106.725 47.0513C106.504 46.7148 106.395 46.2941 106.399 45.7894V37.8919ZM115.16 47.9031V39.8268H117.063V47.9031H115.16ZM116.117 38.6806C115.815 38.6806 115.556 38.5807 115.339 38.3809C115.121 38.1776 115.013 37.934 115.013 37.65C115.013 37.3626 115.121 37.119 115.339 36.9192C115.556 36.7159 115.815 36.6142 116.117 36.6142C116.422 36.6142 116.681 36.7159 116.895 36.9192C117.112 37.119 117.221 37.3626 117.221 37.65C117.221 37.934 117.112 38.1776 116.895 38.3809C116.681 38.5807 116.422 38.6806 116.117 38.6806ZM119.02 47.9031V39.8268H120.84V41.1992H120.934C121.103 40.7365 121.381 40.3754 121.77 40.116C122.159 39.8531 122.624 39.7217 123.164 39.7217C123.711 39.7217 124.171 39.8549 124.547 40.1213C124.925 40.3842 125.192 40.7435 125.346 41.1992H125.43C125.609 40.7505 125.91 40.3929 126.334 40.1265C126.762 39.8566 127.268 39.7217 127.854 39.7217C128.597 39.7217 129.203 39.9565 129.673 40.4262C130.143 40.896 130.378 41.5812 130.378 42.4821V47.9031H128.469V42.7766C128.469 42.2753 128.336 41.909 128.069 41.6776C127.803 41.4428 127.477 41.3254 127.091 41.3254C126.632 41.3254 126.273 41.4691 126.014 41.7565C125.758 42.0404 125.63 42.4102 125.63 42.8659V47.9031H123.763V42.6977C123.763 42.2806 123.637 41.9475 123.385 41.6987C123.136 41.4498 122.81 41.3254 122.407 41.3254C122.133 41.3254 121.884 41.3955 121.66 41.5357C121.436 41.6724 121.257 41.8669 121.124 42.1193C120.99 42.3682 120.924 42.6591 120.924 42.9921V47.9031H119.02ZM132.309 47.9031V39.8268H134.128V41.1992H134.223C134.391 40.7365 134.669 40.3754 135.059 40.116C135.448 39.8531 135.912 39.7217 136.452 39.7217C136.999 39.7217 137.46 39.8549 137.835 40.1213C138.213 40.3842 138.48 40.7435 138.634 41.1992H138.718C138.897 40.7505 139.198 40.3929 139.622 40.1265C140.05 39.8566 140.557 39.7217 141.142 39.7217C141.885 39.7217 142.492 39.9565 142.961 40.4262C143.431 40.896 143.666 41.5812 143.666 42.4821V47.9031H141.757V42.7766C141.757 42.2753 141.624 41.909 141.358 41.6776C141.091 41.4428 140.765 41.3254 140.38 41.3254C139.92 41.3254 139.561 41.4691 139.302 41.7565C139.046 42.0404 138.918 42.4102 138.918 42.8659V47.9031H137.051V42.6977C137.051 42.2806 136.925 41.9475 136.673 41.6987C136.424 41.4498 136.098 41.3254 135.695 41.3254C135.421 41.3254 135.172 41.3955 134.948 41.5357C134.724 41.6724 134.545 41.8669 134.412 42.1193C134.279 42.3682 134.212 42.6591 134.212 42.9921V47.9031H132.309ZM145.597 47.9031V39.8268H147.5V47.9031H145.597ZM146.554 38.6806C146.252 38.6806 145.993 38.5807 145.776 38.3809C145.558 38.1776 145.45 37.934 145.45 37.65C145.45 37.3626 145.558 37.119 145.776 36.9192C145.993 36.7159 146.252 36.6142 146.554 36.6142C146.859 36.6142 147.118 36.7159 147.332 36.9192C147.549 37.119 147.658 37.3626 147.658 37.65C147.658 37.934 147.549 38.1776 147.332 38.3809C147.118 38.5807 146.859 38.6806 146.554 38.6806ZM152.97 51.0999C152.286 51.0999 151.699 51.007 151.208 50.8213C150.718 50.639 150.323 50.3936 150.025 50.0851C149.727 49.7767 149.521 49.4349 149.405 49.0598L151.119 48.6445C151.196 48.8022 151.308 48.9582 151.456 49.1124C151.603 49.2701 151.801 49.3998 152.05 49.5015C152.302 49.6067 152.619 49.6592 153.001 49.6592C153.541 49.6592 153.988 49.5278 154.342 49.2649C154.696 49.0055 154.873 48.5778 154.873 47.9819V46.4519H154.779C154.68 46.6482 154.537 46.8497 154.347 47.0565C154.162 47.2634 153.915 47.4369 153.606 47.5771C153.301 47.7173 152.917 47.7874 152.455 47.7874C151.834 47.7874 151.272 47.6419 150.767 47.351C150.265 47.0565 149.866 46.6184 149.568 46.0365C149.273 45.4511 149.126 44.7185 149.126 43.8387C149.126 42.9518 149.273 42.2034 149.568 41.5935C149.866 40.9801 150.267 40.5156 150.772 40.2001C151.277 39.8812 151.839 39.7217 152.46 39.7217C152.933 39.7217 153.322 39.8023 153.627 39.9635C153.936 40.1213 154.181 40.3123 154.363 40.5367C154.545 40.7575 154.684 40.9661 154.779 41.1624H154.884V39.8268H156.761V48.0345C156.761 48.7251 156.596 49.2964 156.267 49.7486C155.937 50.2008 155.487 50.5391 154.915 50.7634C154.344 50.9878 153.695 51.0999 152.97 51.0999ZM152.986 46.2941C153.389 46.2941 153.732 46.196 154.016 45.9997C154.3 45.8034 154.516 45.5212 154.663 45.1532C154.81 44.7851 154.884 44.3434 154.884 43.8281C154.884 43.3199 154.81 42.8747 154.663 42.4926C154.519 42.1105 154.305 41.8143 154.021 41.604C153.741 41.3902 153.396 41.2833 152.986 41.2833C152.561 41.2833 152.207 41.3937 151.924 41.6145C151.64 41.8354 151.426 42.1386 151.282 42.5242C151.138 42.9062 151.066 43.3409 151.066 43.8281C151.066 44.3224 151.138 44.7553 151.282 45.1269C151.429 45.4949 151.645 45.7824 151.929 45.9892C152.216 46.1925 152.568 46.2941 152.986 46.2941ZM158.712 47.9031V39.8268H160.557V41.1729H160.641C160.788 40.7067 161.041 40.3474 161.398 40.095C161.759 39.8391 162.171 39.7112 162.634 39.7112C162.739 39.7112 162.857 39.7164 162.986 39.7269C163.119 39.7339 163.23 39.7462 163.318 39.7637V41.5146C163.237 41.4866 163.109 41.4621 162.934 41.441C162.762 41.4165 162.595 41.4042 162.434 41.4042C162.087 41.4042 161.775 41.4796 161.498 41.6303C161.225 41.7775 161.009 41.9826 160.852 42.2455C160.694 42.5084 160.615 42.8116 160.615 43.1551V47.9031H158.712ZM166.762 48.0661C166.25 48.0661 165.789 47.9749 165.379 47.7927C164.972 47.6069 164.65 47.3335 164.411 46.9724C164.176 46.6114 164.059 46.1662 164.059 45.6369C164.059 45.1812 164.143 44.8044 164.311 44.5064C164.48 44.2085 164.709 43.9701 165 43.7913C165.291 43.6126 165.619 43.4776 165.983 43.3865C166.351 43.2918 166.732 43.2235 167.124 43.1814C167.598 43.1323 167.981 43.0885 168.276 43.05C168.57 43.0079 168.784 42.9448 168.917 42.8607C169.054 42.773 169.122 42.6381 169.122 42.4558V42.4243C169.122 42.0282 169.005 41.7215 168.77 41.5041C168.535 41.2868 168.197 41.1781 167.755 41.1781C167.289 41.1781 166.919 41.2798 166.646 41.4831C166.376 41.6864 166.194 41.9265 166.099 42.2034L164.322 41.9511C164.462 41.4603 164.693 41.0502 165.016 40.7207C165.338 40.3877 165.733 40.1388 166.199 39.9741C166.665 39.8058 167.18 39.7217 167.745 39.7217C168.134 39.7217 168.521 39.7672 168.907 39.8584C169.292 39.9495 169.645 40.1002 169.964 40.3106C170.283 40.5174 170.538 40.7996 170.731 41.1571C170.928 41.5146 171.026 41.9616 171.026 42.4979V47.9031H169.196V46.7936H169.133C169.017 47.018 168.854 47.2283 168.644 47.4246C168.437 47.6174 168.176 47.7734 167.86 47.8926C167.548 48.0082 167.182 48.0661 166.762 48.0661ZM167.256 46.6675C167.638 46.6675 167.969 46.5921 168.25 46.4414C168.53 46.2871 168.746 46.0838 168.896 45.8314C169.05 45.5791 169.128 45.3039 169.128 45.0059V44.0542C169.068 44.1033 168.966 44.1489 168.823 44.1909C168.682 44.233 168.525 44.2698 168.349 44.3014C168.174 44.3329 168.001 44.361 167.829 44.3855C167.657 44.41 167.508 44.4311 167.382 44.4486C167.098 44.4871 166.844 44.5502 166.62 44.6379C166.395 44.7255 166.218 44.8482 166.088 45.0059C165.959 45.1602 165.894 45.36 165.894 45.6053C165.894 45.9559 166.022 46.2205 166.278 46.3993C166.534 46.5781 166.86 46.6675 167.256 46.6675ZM176.972 39.8268V41.2991H172.33V39.8268H176.972ZM173.476 37.8919H175.379V45.4739C175.379 45.7298 175.418 45.9261 175.495 46.0628C175.576 46.196 175.681 46.2871 175.81 46.3362C175.94 46.3853 176.084 46.4098 176.242 46.4098C176.361 46.4098 176.469 46.401 176.568 46.3835C176.669 46.366 176.746 46.3502 176.799 46.3362L177.12 47.8242C177.018 47.8593 176.873 47.8978 176.683 47.9399C176.498 47.9819 176.27 48.0065 176 48.0135C175.523 48.0275 175.094 47.9557 174.712 47.7979C174.329 47.6367 174.026 47.3878 173.802 47.0513C173.581 46.7148 173.472 46.2941 173.476 45.7894V37.8919ZM178.564 47.9031V39.8268H180.468V47.9031H178.564ZM179.521 38.6806C179.22 38.6806 178.96 38.5807 178.743 38.3809C178.526 38.1776 178.417 37.934 178.417 37.65C178.417 37.3626 178.526 37.119 178.743 36.9192C178.96 36.7159 179.22 36.6142 179.521 36.6142C179.826 36.6142 180.086 36.7159 180.299 36.9192C180.517 37.119 180.625 37.3626 180.625 37.65C180.625 37.934 180.517 38.1776 180.299 38.3809C180.086 38.5807 179.826 38.6806 179.521 38.6806ZM185.948 48.0608C185.159 48.0608 184.476 47.8873 183.897 47.5403C183.319 47.1932 182.87 46.7078 182.551 46.0838C182.236 45.4599 182.078 44.7308 182.078 43.8965C182.078 43.0622 182.236 42.3314 182.551 41.7039C182.87 41.0765 183.319 40.5892 183.897 40.2422C184.476 39.8952 185.159 39.7217 185.948 39.7217C186.737 39.7217 187.42 39.8952 187.998 40.2422C188.577 40.5892 189.024 41.0765 189.339 41.7039C189.658 42.3314 189.818 43.0622 189.818 43.8965C189.818 44.7308 189.658 45.4599 189.339 46.0838C189.024 46.7078 188.577 47.1932 187.998 47.5403C187.42 47.8873 186.737 48.0608 185.948 48.0608ZM185.958 46.536C186.386 46.536 186.744 46.4186 187.031 46.1837C187.318 45.9454 187.532 45.6264 187.672 45.2268C187.816 44.8272 187.888 44.382 187.888 43.8912C187.888 43.397 187.816 42.9501 187.672 42.5505C187.532 42.1473 187.318 41.8266 187.031 41.5883C186.744 41.3499 186.386 41.2307 185.958 41.2307C185.52 41.2307 185.156 41.3499 184.865 41.5883C184.577 41.8266 184.362 42.1473 184.218 42.5505C184.078 42.9501 184.008 43.397 184.008 43.8912C184.008 44.382 184.078 44.8272 184.218 45.2268C184.362 45.6264 184.577 45.9454 184.865 46.1837C185.156 46.4186 185.52 46.536 185.958 46.536ZM193.337 43.1709V47.9031H191.433V39.8268H193.252V41.1992H193.347C193.533 40.747 193.829 40.3877 194.236 40.1213C194.646 39.8549 195.152 39.7217 195.755 39.7217C196.313 39.7217 196.798 39.8409 197.212 40.0792C197.629 40.3176 197.951 40.6628 198.179 41.115C198.411 41.5672 198.524 42.1158 198.521 42.7608V47.9031H196.618V43.0552C196.618 42.5154 196.477 42.093 196.197 41.7881C195.92 41.4831 195.536 41.3306 195.045 41.3306C194.712 41.3306 194.416 41.4042 194.157 41.5514C193.901 41.6952 193.699 41.9037 193.552 42.1771C193.408 42.4506 193.337 42.7818 193.337 43.1709ZM210.512 41.9616L208.777 42.1509C208.728 41.9756 208.642 41.8108 208.519 41.6566C208.4 41.5024 208.239 41.3779 208.035 41.2833C207.832 41.1886 207.583 41.1413 207.289 41.1413C206.893 41.1413 206.56 41.2272 206.29 41.399C206.023 41.5707 205.892 41.7933 205.895 42.0667C205.892 42.3016 205.978 42.4926 206.153 42.6398C206.332 42.7871 206.626 42.908 207.036 43.0026L208.414 43.2971C209.178 43.4618 209.746 43.723 210.117 44.0805C210.493 44.4381 210.682 44.906 210.685 45.4844C210.682 45.9927 210.533 46.4414 210.238 46.8304C209.947 47.216 209.543 47.5175 209.024 47.7348C208.505 47.9522 207.909 48.0608 207.236 48.0608C206.248 48.0608 205.452 47.854 204.849 47.4404C204.246 47.0232 203.887 46.4431 203.771 45.7L205.627 45.5212C205.711 45.8858 205.89 46.1609 206.163 46.3467C206.437 46.5325 206.793 46.6254 207.231 46.6254C207.683 46.6254 208.046 46.5325 208.319 46.3467C208.596 46.1609 208.735 45.9313 208.735 45.6579C208.735 45.4266 208.645 45.2355 208.466 45.0848C208.291 44.9341 208.018 44.8184 207.646 44.7378L206.269 44.4486C205.494 44.2873 204.921 44.0157 204.549 43.6336C204.178 43.248 203.994 42.7608 203.997 42.1719C203.994 41.6741 204.129 41.243 204.402 40.8784C204.679 40.5104 205.063 40.2264 205.554 40.0266C206.048 39.8233 206.617 39.7217 207.262 39.7217C208.209 39.7217 208.954 39.9232 209.497 40.3263C210.044 40.7294 210.382 41.2745 210.512 41.9616ZM215.83 48.0608C215.021 48.0608 214.321 47.8926 213.732 47.556C213.147 47.216 212.696 46.7358 212.381 46.1154C212.066 45.4914 211.908 44.7571 211.908 43.9123C211.908 43.0815 212.066 42.3524 212.381 41.725C212.7 41.094 213.145 40.6033 213.717 40.2527C214.288 39.8987 214.959 39.7217 215.73 39.7217C216.228 39.7217 216.698 39.8023 217.139 39.9635C217.585 40.1213 217.977 40.3666 218.317 40.6997C218.661 41.0327 218.931 41.4568 219.127 41.9721C219.323 42.4839 219.421 43.0938 219.421 43.8019V44.3855H212.802V43.1025H217.597C217.593 42.738 217.515 42.4138 217.36 42.1298C217.206 41.8424 216.99 41.6163 216.714 41.4515C216.44 41.2868 216.121 41.2044 215.757 41.2044C215.368 41.2044 215.026 41.2991 214.731 41.4883C214.437 41.6741 214.207 41.9195 214.043 42.2245C213.881 42.5259 213.799 42.8572 213.795 43.2182V44.3382C213.795 44.8079 213.881 45.211 214.053 45.5475C214.225 45.8805 214.465 46.1364 214.773 46.3152C215.082 46.4904 215.443 46.5781 215.857 46.5781C216.133 46.5781 216.384 46.5395 216.608 46.4624C216.833 46.3818 217.027 46.2643 217.192 46.1101C217.357 45.9559 217.481 45.7648 217.565 45.537L219.343 45.7368C219.23 46.2065 219.017 46.6166 218.701 46.9672C218.389 47.3142 217.99 47.5841 217.502 47.7769C217.015 47.9662 216.458 48.0608 215.83 48.0608ZM221.032 47.9031V39.8268H222.877V41.1729H222.961C223.109 40.7067 223.361 40.3474 223.719 40.095C224.08 39.8391 224.491 39.7112 224.954 39.7112C225.059 39.7112 225.177 39.7164 225.306 39.7269C225.44 39.7339 225.55 39.7462 225.638 39.7637V41.5146C225.557 41.4866 225.429 41.4621 225.254 41.441C225.082 41.4165 224.916 41.4042 224.754 41.4042C224.407 41.4042 224.095 41.4796 223.818 41.6303C223.545 41.7775 223.329 41.9826 223.172 42.2455C223.014 42.5084 222.935 42.8116 222.935 43.1551V47.9031H221.032ZM234.362 39.8268L231.486 47.9031H229.383L226.507 39.8268H228.536L230.392 45.8262H230.476L232.338 39.8268H234.362ZM235.679 47.9031V39.8268H237.582V47.9031H235.679ZM236.636 38.6806C236.335 38.6806 236.075 38.5807 235.858 38.3809C235.641 38.1776 235.532 37.934 235.532 37.65C235.532 37.3626 235.641 37.119 235.858 36.9192C236.075 36.7159 236.335 36.6142 236.636 36.6142C236.941 36.6142 237.2 36.7159 237.414 36.9192C237.632 37.119 237.74 37.3626 237.74 37.65C237.74 37.934 237.632 38.1776 237.414 38.3809C237.2 38.5807 236.941 38.6806 236.636 38.6806ZM243.063 48.0608C242.256 48.0608 241.564 47.8838 240.986 47.5298C240.411 47.1757 239.967 46.6867 239.655 46.0628C239.347 45.4353 239.193 44.7132 239.193 43.8965C239.193 43.0763 239.35 42.3524 239.666 41.725C239.981 41.094 240.427 40.6033 241.001 40.2527C241.58 39.8987 242.263 39.7217 243.052 39.7217C243.708 39.7217 244.288 39.8426 244.792 40.0845C245.301 40.3228 245.706 40.6611 246.007 41.0993C246.309 41.5339 246.48 42.0422 246.522 42.6241H244.703C244.629 42.235 244.454 41.9107 244.177 41.6513C243.904 41.3884 243.538 41.257 243.078 41.257C242.689 41.257 242.348 41.3622 242.053 41.5725C241.759 41.7793 241.529 42.0772 241.364 42.4663C241.203 42.8554 241.122 43.3216 241.122 43.865C241.122 44.4153 241.203 44.8885 241.364 45.2846C241.526 45.6772 241.752 45.9804 242.043 46.1942C242.337 46.4046 242.682 46.5097 243.078 46.5097C243.359 46.5097 243.609 46.4571 243.83 46.352C244.055 46.2433 244.242 46.0873 244.393 45.884C244.544 45.6807 244.647 45.4336 244.703 45.1426H246.522C246.477 45.714 246.309 46.2205 246.018 46.6622C245.727 47.1004 245.331 47.4439 244.829 47.6928C244.328 47.9381 243.739 48.0608 243.063 48.0608ZM251.661 48.0608C250.851 48.0608 250.152 47.8926 249.563 47.556C248.977 47.216 248.527 46.7358 248.211 46.1154C247.896 45.4914 247.738 44.7571 247.738 43.9123C247.738 43.0815 247.896 42.3524 248.211 41.725C248.53 41.094 248.976 40.6033 249.547 40.2527C250.118 39.8987 250.79 39.7217 251.561 39.7217C252.059 39.7217 252.528 39.8023 252.97 39.9635C253.415 40.1213 253.808 40.3666 254.148 40.6997C254.491 41.0327 254.761 41.4568 254.957 41.9721C255.154 42.4839 255.252 43.0938 255.252 43.8019V44.3855H248.632V43.1025H253.427C253.424 42.738 253.345 42.4138 253.191 42.1298C253.037 41.8424 252.821 41.6163 252.544 41.4515C252.271 41.2868 251.952 41.2044 251.587 41.2044C251.198 41.2044 250.856 41.2991 250.562 41.4883C250.267 41.6741 250.038 41.9195 249.873 42.2245C249.712 42.5259 249.629 42.8572 249.626 43.2182V44.3382C249.626 44.8079 249.712 45.211 249.883 45.5475C250.055 45.8805 250.295 46.1364 250.604 46.3152C250.912 46.4904 251.273 46.5781 251.687 46.5781C251.964 46.5781 252.215 46.5395 252.439 46.4624C252.663 46.3818 252.858 46.2643 253.023 46.1101C253.187 45.9559 253.312 45.7648 253.396 45.537L255.173 45.7368C255.061 46.2065 254.847 46.6166 254.532 46.9672C254.22 47.3142 253.82 47.5841 253.333 47.7769C252.845 47.9662 252.288 48.0608 251.661 48.0608ZM263.245 41.9616L261.51 42.1509C261.461 41.9756 261.375 41.8108 261.253 41.6566C261.133 41.5024 260.972 41.3779 260.769 41.2833C260.566 41.1886 260.317 41.1413 260.022 41.1413C259.626 41.1413 259.293 41.2272 259.023 41.399C258.757 41.5707 258.625 41.7933 258.629 42.0667C258.625 42.3016 258.711 42.4926 258.886 42.6398C259.065 42.7871 259.36 42.908 259.77 43.0026L261.147 43.2971C261.912 43.4618 262.479 43.723 262.851 44.0805C263.226 44.4381 263.415 44.906 263.419 45.4844C263.415 45.9927 263.266 46.4414 262.972 46.8304C262.681 47.216 262.276 47.5175 261.757 47.7348C261.239 47.9522 260.643 48.0608 259.97 48.0608C258.981 48.0608 258.185 47.854 257.582 47.4404C256.98 47.0232 256.62 46.4431 256.505 45.7L258.361 45.5212C258.445 45.8858 258.624 46.1609 258.897 46.3467C259.17 46.5325 259.526 46.6254 259.964 46.6254C260.417 46.6254 260.779 46.5325 261.053 46.3467C261.33 46.1609 261.468 45.9313 261.468 45.6579C261.468 45.4266 261.379 45.2355 261.2 45.0848C261.025 44.9341 260.751 44.8184 260.38 44.7378L259.002 44.4486C258.227 44.2873 257.654 44.0157 257.283 43.6336C256.911 43.248 256.727 42.7608 256.731 42.1719C256.727 41.6741 256.862 41.243 257.136 40.8784C257.412 40.5104 257.796 40.2264 258.287 40.0266C258.781 39.8233 259.351 39.7217 259.996 39.7217C260.942 39.7217 261.687 39.9232 262.231 40.3263C262.777 40.7294 263.116 41.2745 263.245 41.9616ZM271.658 48.045C271.024 48.045 270.456 47.882 269.954 47.556C269.453 47.2301 269.057 46.7568 268.766 46.1364C268.475 45.516 268.33 44.7623 268.33 43.8755C268.33 42.9781 268.477 42.221 268.771 41.604C269.069 40.9836 269.471 40.5156 269.976 40.2001C270.48 39.8812 271.043 39.7217 271.663 39.7217C272.137 39.7217 272.526 39.8023 272.831 39.9635C273.136 40.1213 273.377 40.3123 273.556 40.5367C273.735 40.7575 273.873 40.9661 273.972 41.1624H274.05V37.1347H275.959V47.9031H274.087V46.6306H273.972C273.873 46.8269 273.731 47.0355 273.546 47.2563C273.36 47.4737 273.115 47.6595 272.81 47.8137C272.505 47.9679 272.121 48.045 271.658 48.045ZM272.189 46.4834C272.592 46.4834 272.936 46.3748 273.22 46.1574C273.504 45.9366 273.719 45.6299 273.866 45.2373C274.014 44.8447 274.087 44.3872 274.087 43.865C274.087 43.3427 274.014 42.8887 273.866 42.5031C273.723 42.1176 273.509 41.8178 273.225 41.604C272.945 41.3902 272.599 41.2833 272.189 41.2833C271.765 41.2833 271.411 41.3937 271.127 41.6145C270.843 41.8354 270.629 42.1403 270.486 42.5294C270.342 42.9185 270.27 43.3637 270.27 43.865C270.27 44.3697 270.342 44.8202 270.486 45.2163C270.633 45.6088 270.848 45.9191 271.132 46.1469C271.42 46.3713 271.772 46.4834 272.189 46.4834ZM281.51 48.0608C280.721 48.0608 280.038 47.8873 279.46 47.5403C278.881 47.1932 278.433 46.7078 278.114 46.0838C277.798 45.4599 277.64 44.7308 277.64 43.8965C277.64 43.0622 277.798 42.3314 278.114 41.7039C278.433 41.0765 278.881 40.5892 279.46 40.2422C280.038 39.8952 280.721 39.7217 281.51 39.7217C282.299 39.7217 282.982 39.8952 283.561 40.2422C284.139 40.5892 284.586 41.0765 284.902 41.7039C285.221 42.3314 285.38 43.0622 285.38 43.8965C285.38 44.7308 285.221 45.4599 284.902 46.0838C284.586 46.7078 284.139 47.1932 283.561 47.5403C282.982 47.8873 282.299 48.0608 281.51 48.0608ZM281.521 46.536C281.948 46.536 282.306 46.4186 282.593 46.1837C282.881 45.9454 283.095 45.6264 283.235 45.2268C283.379 44.8272 283.45 44.382 283.45 43.8912C283.45 43.397 283.379 42.9501 283.235 42.5505C283.095 42.1473 282.881 41.8266 282.593 41.5883C282.306 41.3499 281.948 41.2307 281.521 41.2307C281.083 41.2307 280.718 41.3499 280.427 41.5883C280.14 41.8266 279.924 42.1473 279.78 42.5505C279.64 42.9501 279.57 43.397 279.57 43.8912C279.57 44.382 279.64 44.8272 279.78 45.2268C279.924 45.6264 280.14 45.9454 280.427 46.1837C280.718 46.4186 281.083 46.536 281.521 46.536ZM290.571 48.0608C289.761 48.0608 289.062 47.8926 288.473 47.556C287.888 47.216 287.437 46.7358 287.122 46.1154C286.806 45.4914 286.649 44.7571 286.649 43.9123C286.649 43.0815 286.806 42.3524 287.122 41.725C287.441 41.094 287.886 40.6033 288.457 40.2527C289.029 39.8987 289.7 39.7217 290.471 39.7217C290.969 39.7217 291.439 39.8023 291.88 39.9635C292.325 40.1213 292.718 40.3666 293.058 40.6997C293.402 41.0327 293.671 41.4568 293.868 41.9721C294.064 42.4839 294.162 43.0938 294.162 43.8019V44.3855H287.542V43.1025H292.338C292.334 42.738 292.255 42.4138 292.101 42.1298C291.947 41.8424 291.731 41.6163 291.454 41.4515C291.181 41.2868 290.862 41.2044 290.497 41.2044C290.108 41.2044 289.767 41.2991 289.472 41.4883C289.178 41.6741 288.948 41.9195 288.783 42.2245C288.622 42.5259 288.54 42.8572 288.536 43.2182V44.3382C288.536 44.8079 288.622 45.211 288.794 45.5475C288.966 45.8805 289.206 46.1364 289.514 46.3152C289.823 46.4904 290.184 46.5781 290.597 46.5781C290.874 46.5781 291.125 46.5395 291.349 46.4624C291.574 46.3818 291.768 46.2643 291.933 46.1101C292.098 45.9559 292.222 45.7648 292.306 45.537L294.083 45.7368C293.971 46.2065 293.757 46.6166 293.442 46.9672C293.13 47.3142 292.73 47.5841 292.243 47.7769C291.756 47.9662 291.198 48.0608 290.571 48.0608ZM302.156 41.9616L300.42 42.1509C300.371 41.9756 300.286 41.8108 300.163 41.6566C300.044 41.5024 299.882 41.3779 299.679 41.2833C299.476 41.1886 299.227 41.1413 298.932 41.1413C298.536 41.1413 298.203 41.2272 297.933 41.399C297.667 41.5707 297.536 41.7933 297.539 42.0667C297.536 42.3016 297.622 42.4926 297.797 42.6398C297.976 42.7871 298.27 42.908 298.68 43.0026L300.058 43.2971C300.822 43.4618 301.39 43.723 301.761 44.0805C302.136 44.4381 302.326 44.906 302.329 45.4844C302.326 45.9927 302.177 46.4414 301.882 46.8304C301.591 47.216 301.186 47.5175 300.668 47.7348C300.149 47.9522 299.553 48.0608 298.88 48.0608C297.891 48.0608 297.096 47.854 296.493 47.4404C295.89 47.0232 295.531 46.4431 295.415 45.7L297.271 45.5212C297.355 45.8858 297.534 46.1609 297.807 46.3467C298.081 46.5325 298.436 46.6254 298.875 46.6254C299.327 46.6254 299.69 46.5325 299.963 46.3467C300.24 46.1609 300.378 45.9313 300.378 45.6579C300.378 45.4266 300.289 45.2355 300.11 45.0848C299.935 44.9341 299.662 44.8184 299.29 44.7378L297.912 44.4486C297.138 44.2873 296.565 44.0157 296.193 43.6336C295.822 43.248 295.637 42.7608 295.641 42.1719C295.637 41.6741 295.772 41.243 296.046 40.8784C296.323 40.5104 296.707 40.2264 297.197 40.0266C297.692 39.8233 298.261 39.7217 298.906 39.7217C299.853 39.7217 300.598 39.9232 301.141 40.3263C301.688 40.7294 302.026 41.2745 302.156 41.9616ZM307.456 47.9031V46.6885L312.977 38.77H307.424V37.1347H315.395V38.3493L309.88 46.2678H315.427V47.9031H307.456ZM317.314 47.9031V37.1347H324.213V38.77H319.265V41.6934H323.74V43.3286H319.265V47.9031H317.314ZM338.88 40.768H336.913C336.857 40.4455 336.754 40.1598 336.603 39.911C336.453 39.6586 336.265 39.4447 336.041 39.2695C335.816 39.0942 335.56 38.9628 335.273 38.8751C334.989 38.784 334.682 38.7384 334.353 38.7384C333.767 38.7384 333.249 38.8857 332.796 39.1801C332.344 39.471 331.99 39.8987 331.734 40.463C331.478 41.0239 331.351 41.7092 331.351 42.5189C331.351 43.3427 331.478 44.0367 331.734 44.6011C331.994 45.1619 332.348 45.5861 332.796 45.8735C333.249 46.1574 333.766 46.2994 334.348 46.2994C334.67 46.2994 334.972 46.2573 335.252 46.1732C335.536 46.0856 335.79 45.9576 336.014 45.7894C336.242 45.6211 336.433 45.4143 336.587 45.1689C336.745 44.9236 336.854 44.6431 336.913 44.3277L338.88 44.3382C338.806 44.8499 338.647 45.3302 338.401 45.7789C338.16 46.2275 337.842 46.6236 337.45 46.9672C337.057 47.3072 336.598 47.5736 336.072 47.7664C335.546 47.9557 334.963 48.0503 334.321 48.0503C333.375 48.0503 332.53 47.8312 331.787 47.3931C331.044 46.9549 330.458 46.3222 330.031 45.4949C329.603 44.6677 329.389 43.6757 329.389 42.5189C329.389 41.3587 329.605 40.3666 330.036 39.5429C330.467 38.7156 331.054 38.0829 331.797 37.6448C332.541 37.2066 333.382 36.9875 334.321 36.9875C334.921 36.9875 335.478 37.0717 335.993 37.2399C336.509 37.4082 336.968 37.6553 337.371 37.9813C337.774 38.3038 338.105 38.6999 338.365 39.1696C338.628 39.6358 338.799 40.1686 338.88 40.768ZM342.906 48.0661C342.394 48.0661 341.933 47.9749 341.523 47.7927C341.117 47.6069 340.794 47.3335 340.556 46.9724C340.321 46.6114 340.204 46.1662 340.204 45.6369C340.204 45.1812 340.288 44.8044 340.456 44.5064C340.624 44.2085 340.854 43.9701 341.145 43.7913C341.436 43.6126 341.763 43.4776 342.128 43.3865C342.496 43.2918 342.876 43.2235 343.269 43.1814C343.742 43.1323 344.126 43.0885 344.421 43.05C344.715 43.0079 344.929 42.9448 345.062 42.8607C345.199 42.773 345.267 42.6381 345.267 42.4558V42.4243C345.267 42.0282 345.15 41.7215 344.915 41.5041C344.68 41.2868 344.342 41.1781 343.9 41.1781C343.434 41.1781 343.064 41.2798 342.791 41.4831C342.521 41.6864 342.338 41.9265 342.244 42.2034L340.467 41.9511C340.607 41.4603 340.838 41.0502 341.161 40.7207C341.483 40.3877 341.877 40.1388 342.344 39.9741C342.81 39.8058 343.325 39.7217 343.889 39.7217C344.279 39.7217 344.666 39.7672 345.051 39.8584C345.437 39.9495 345.789 40.1002 346.108 40.3106C346.427 40.5174 346.683 40.7996 346.876 41.1571C347.072 41.5146 347.17 41.9616 347.17 42.4979V47.9031H345.341V46.7936H345.278C345.162 47.018 344.999 47.2283 344.789 47.4246C344.582 47.6174 344.321 47.7734 344.005 47.8926C343.693 48.0082 343.327 48.0661 342.906 48.0661ZM343.4 46.6675C343.783 46.6675 344.114 46.5921 344.394 46.4414C344.675 46.2871 344.89 46.0838 345.041 45.8314C345.195 45.5791 345.272 45.3039 345.272 45.0059V44.0542C345.213 44.1033 345.111 44.1489 344.967 44.1909C344.827 44.233 344.669 44.2698 344.494 44.3014C344.319 44.3329 344.145 44.361 343.974 44.3855C343.802 44.41 343.653 44.4311 343.527 44.4486C343.243 44.4871 342.989 44.5502 342.764 44.6379C342.54 44.7255 342.363 44.8482 342.233 45.0059C342.104 45.1602 342.039 45.36 342.039 45.6053C342.039 45.9559 342.167 46.2205 342.422 46.3993C342.678 46.5781 343.004 46.6675 343.4 46.6675ZM350.988 43.1709V47.9031H349.084V39.8268H350.904V41.1992H350.998C351.184 40.747 351.48 40.3877 351.887 40.1213C352.297 39.8549 352.804 39.7217 353.406 39.7217C353.964 39.7217 354.449 39.8409 354.863 40.0792C355.28 40.3176 355.603 40.6628 355.83 41.115C356.062 41.5672 356.176 42.1158 356.172 42.7608V47.9031H354.269V43.0552C354.269 42.5154 354.129 42.093 353.848 41.7881C353.571 41.4831 353.187 41.3306 352.697 41.3306C352.364 41.3306 352.067 41.4042 351.808 41.5514C351.552 41.6952 351.351 41.9037 351.203 42.1771C351.06 42.4506 350.988 42.7818 350.988 43.1709ZM360.431 48.0661C359.919 48.0661 359.458 47.9749 359.048 47.7927C358.642 47.6069 358.319 47.3335 358.081 46.9724C357.846 46.6114 357.728 46.1662 357.728 45.6369C357.728 45.1812 357.813 44.8044 357.981 44.5064C358.149 44.2085 358.379 43.9701 358.67 43.7913C358.961 43.6126 359.288 43.4776 359.653 43.3865C360.021 43.2918 360.401 43.2235 360.794 43.1814C361.267 43.1323 361.651 43.0885 361.945 43.05C362.24 43.0079 362.454 42.9448 362.587 42.8607C362.724 42.773 362.792 42.6381 362.792 42.4558V42.4243C362.792 42.0282 362.674 41.7215 362.44 41.5041C362.205 41.2868 361.866 41.1781 361.425 41.1781C360.959 41.1781 360.589 41.2798 360.315 41.4831C360.045 41.6864 359.863 41.9265 359.769 42.2034L357.991 41.9511C358.132 41.4603 358.363 41.0502 358.685 40.7207C359.008 40.3877 359.402 40.1388 359.868 39.9741C360.335 39.8058 360.85 39.7217 361.414 39.7217C361.803 39.7217 362.191 39.7672 362.576 39.8584C362.962 39.9495 363.314 40.1002 363.633 40.3106C363.952 40.5174 364.208 40.7996 364.401 41.1571C364.597 41.5146 364.695 41.9616 364.695 42.4979V47.9031H362.866V46.7936H362.802C362.687 47.018 362.524 47.2283 362.313 47.4246C362.107 47.6174 361.845 47.7734 361.53 47.8926C361.218 48.0082 360.852 48.0661 360.431 48.0661ZM360.925 46.6675C361.307 46.6675 361.639 46.5921 361.919 46.4414C362.199 46.2871 362.415 46.0838 362.566 45.8314C362.72 45.5791 362.797 45.3039 362.797 45.0059V44.0542C362.738 44.1033 362.636 44.1489 362.492 44.1909C362.352 44.233 362.194 44.2698 362.019 44.3014C361.844 44.3329 361.67 44.361 361.498 44.3855C361.327 44.41 361.178 44.4311 361.052 44.4486C360.768 44.4871 360.513 44.5502 360.289 44.6379C360.065 44.7255 359.888 44.8482 359.758 45.0059C359.628 45.1602 359.564 45.36 359.564 45.6053C359.564 45.9559 359.691 46.2205 359.947 46.3993C360.203 46.5781 360.529 46.6675 360.925 46.6675ZM369.606 48.045C368.972 48.045 368.404 47.882 367.903 47.556C367.401 47.2301 367.005 46.7568 366.714 46.1364C366.423 45.516 366.278 44.7623 366.278 43.8755C366.278 42.9781 366.425 42.221 366.72 41.604C367.018 40.9836 367.419 40.5156 367.924 40.2001C368.428 39.8812 368.991 39.7217 369.611 39.7217C370.085 39.7217 370.474 39.8023 370.779 39.9635C371.084 40.1213 371.326 40.3123 371.504 40.5367C371.683 40.7575 371.822 40.9661 371.92 41.1624H371.999V37.1347H373.907V47.9031H372.035V46.6306H371.92C371.822 46.8269 371.68 47.0355 371.494 47.2563C371.308 47.4737 371.063 47.6595 370.758 47.8137C370.453 47.9679 370.069 48.045 369.606 48.045ZM370.137 46.4834C370.54 46.4834 370.884 46.3748 371.168 46.1574C371.452 45.9366 371.667 45.6299 371.815 45.2373C371.962 44.8447 372.035 44.3872 372.035 43.865C372.035 43.3427 371.962 42.8887 371.815 42.5031C371.671 42.1176 371.457 41.8178 371.173 41.604C370.893 41.3902 370.547 41.2833 370.137 41.2833C369.713 41.2833 369.359 41.3937 369.075 41.6145C368.791 41.8354 368.577 42.1403 368.434 42.5294C368.29 42.9185 368.218 43.3637 368.218 43.865C368.218 44.3697 368.29 44.8202 368.434 45.2163C368.581 45.6088 368.796 45.9191 369.08 46.1469C369.368 46.3713 369.72 46.4834 370.137 46.4834ZM378.26 48.0661C377.748 48.0661 377.287 47.9749 376.877 47.7927C376.47 47.6069 376.148 47.3335 375.909 46.9724C375.674 46.6114 375.557 46.1662 375.557 45.6369C375.557 45.1812 375.641 44.8044 375.809 44.5064C375.978 44.2085 376.207 43.9701 376.498 43.7913C376.789 43.6126 377.117 43.4776 377.481 43.3865C377.849 43.2918 378.23 43.2235 378.622 43.1814C379.096 43.1323 379.479 43.0885 379.774 43.05C380.068 43.0079 380.282 42.9448 380.415 42.8607C380.552 42.773 380.62 42.6381 380.62 42.4558V42.4243C380.62 42.0282 380.503 41.7215 380.268 41.5041C380.033 41.2868 379.695 41.1781 379.253 41.1781C378.787 41.1781 378.417 41.2798 378.144 41.4831C377.874 41.6864 377.692 41.9265 377.597 42.2034L375.82 41.9511C375.96 41.4603 376.191 41.0502 376.514 40.7207C376.836 40.3877 377.231 40.1388 377.697 39.9741C378.163 39.8058 378.678 39.7217 379.243 39.7217C379.632 39.7217 380.019 39.7672 380.405 39.8584C380.79 39.9495 381.143 40.1002 381.462 40.3106C381.781 40.5174 382.037 40.7996 382.229 41.1571C382.426 41.5146 382.524 41.9616 382.524 42.4979V47.9031H380.694V46.7936H380.631C380.515 47.018 380.352 47.2283 380.142 47.4246C379.935 47.6174 379.674 47.7734 379.358 47.8926C379.046 48.0082 378.68 48.0661 378.26 48.0661ZM378.754 46.6675C379.136 46.6675 379.467 46.5921 379.748 46.4414C380.028 46.2871 380.244 46.0838 380.394 45.8314C380.548 45.5791 380.626 45.3039 380.626 45.0059V44.0542C380.566 44.1033 380.464 44.1489 380.321 44.1909C380.18 44.233 380.023 44.2698 379.847 44.3014C379.672 44.3329 379.499 44.361 379.327 44.3855C379.155 44.41 379.006 44.4311 378.88 44.4486C378.596 44.4871 378.342 44.5502 378.118 44.6379C377.893 44.7255 377.716 44.8482 377.587 45.0059C377.457 45.1602 377.392 45.36 377.392 45.6053C377.392 45.9559 377.52 46.2205 377.776 46.3993C378.032 46.5781 378.358 46.6675 378.754 46.6675ZM391.633 48.0608C390.844 48.0608 390.161 47.8873 389.583 47.5403C389.004 47.1932 388.556 46.7078 388.237 46.0838C387.921 45.4599 387.763 44.7308 387.763 43.8965C387.763 43.0622 387.921 42.3314 388.237 41.7039C388.556 41.0765 389.004 40.5892 389.583 40.2422C390.161 39.8952 390.844 39.7217 391.633 39.7217C392.422 39.7217 393.105 39.8952 393.684 40.2422C394.262 40.5892 394.709 41.0765 395.025 41.7039C395.344 42.3314 395.503 43.0622 395.503 43.8965C395.503 44.7308 395.344 45.4599 395.025 46.0838C394.709 46.7078 394.262 47.1932 393.684 47.5403C393.105 47.8873 392.422 48.0608 391.633 48.0608ZM391.644 46.536C392.071 46.536 392.429 46.4186 392.716 46.1837C393.004 45.9454 393.218 45.6264 393.358 45.2268C393.502 44.8272 393.573 44.382 393.573 43.8912C393.573 43.397 393.502 42.9501 393.358 42.5505C393.218 42.1473 393.004 41.8266 392.716 41.5883C392.429 41.3499 392.071 41.2307 391.644 41.2307C391.206 41.2307 390.841 41.3499 390.55 41.5883C390.263 41.8266 390.047 42.1473 389.903 42.5505C389.763 42.9501 389.693 43.397 389.693 43.8912C389.693 44.382 389.763 44.8272 389.903 45.2268C390.047 45.6264 390.263 45.9454 390.55 46.1837C390.841 46.4186 391.206 46.536 391.644 46.536ZM401.209 39.8268V41.2991H396.435V39.8268H401.209ZM397.629 47.9031V39.0644C397.629 38.5211 397.741 38.0689 397.965 37.7079C398.193 37.3468 398.498 37.0769 398.88 36.8981C399.262 36.7194 399.686 36.63 400.152 36.63C400.482 36.63 400.775 36.6563 401.031 36.7089C401.286 36.7614 401.476 36.8088 401.598 36.8508L401.22 38.323C401.139 38.2985 401.038 38.274 400.915 38.2494C400.792 38.2214 400.655 38.2074 400.505 38.2074C400.151 38.2074 399.9 38.2933 399.753 38.465C399.609 38.6333 399.537 38.8751 399.537 39.1906V47.9031H397.629ZM406.791 39.8268V41.2991H402.016V39.8268H406.791ZM403.21 47.9031V39.0644C403.21 38.5211 403.322 38.0689 403.546 37.7079C403.774 37.3468 404.079 37.0769 404.461 36.8981C404.843 36.7194 405.268 36.63 405.734 36.63C406.063 36.63 406.356 36.6563 406.612 36.7089C406.868 36.7614 407.057 36.8088 407.18 36.8508L406.801 38.323C406.721 38.2985 406.619 38.274 406.496 38.2494C406.373 38.2214 406.237 38.2074 406.086 38.2074C405.732 38.2074 405.481 38.2933 405.334 38.465C405.19 38.6333 405.119 38.8751 405.119 39.1906V47.9031H403.21ZM411.553 48.0608C410.743 48.0608 410.044 47.8926 409.455 47.556C408.87 47.216 408.419 46.7358 408.104 46.1154C407.788 45.4914 407.631 44.7571 407.631 43.9123C407.631 43.0815 407.788 42.3524 408.104 41.725C408.423 41.094 408.868 40.6033 409.439 40.2527C410.011 39.8987 410.682 39.7217 411.453 39.7217C411.951 39.7217 412.421 39.8023 412.862 39.9635C413.307 40.1213 413.7 40.3666 414.04 40.6997C414.384 41.0327 414.653 41.4568 414.85 41.9721C415.046 42.4839 415.144 43.0938 415.144 43.8019V44.3855H408.524V43.1025H413.32C413.316 42.738 413.237 42.4138 413.083 42.1298C412.929 41.8424 412.713 41.6163 412.436 41.4515C412.163 41.2868 411.844 41.2044 411.479 41.2044C411.09 41.2044 410.749 41.2991 410.454 41.4883C410.16 41.6741 409.93 41.9195 409.765 42.2245C409.604 42.5259 409.522 42.8572 409.518 43.2182V44.3382C409.518 44.8079 409.604 45.211 409.776 45.5475C409.948 45.8805 410.188 46.1364 410.496 46.3152C410.805 46.4904 411.166 46.5781 411.579 46.5781C411.856 46.5781 412.107 46.5395 412.331 46.4624C412.556 46.3818 412.75 46.2643 412.915 46.1101C413.08 45.9559 413.204 45.7648 413.288 45.537L415.065 45.7368C414.953 46.2065 414.739 46.6166 414.424 46.9672C414.112 47.3142 413.712 47.5841 413.225 47.7769C412.738 47.9662 412.18 48.0608 411.553 48.0608ZM416.754 47.9031V39.8268H418.6V41.1729H418.684C418.831 40.7067 419.084 40.3474 419.441 40.095C419.802 39.8391 420.214 39.7112 420.677 39.7112C420.782 39.7112 420.9 39.7164 421.029 39.7269C421.162 39.7339 421.273 39.7462 421.36 39.7637V41.5146C421.28 41.4866 421.152 41.4621 420.977 41.441C420.805 41.4165 420.638 41.4042 420.477 41.4042C420.13 41.4042 419.818 41.4796 419.541 41.6303C419.268 41.7775 419.052 41.9826 418.894 42.2455C418.737 42.5084 418.658 42.8116 418.658 43.1551V47.9031H416.754ZM424.444 44.7378V44.6011C424.448 43.9666 424.507 43.4618 424.623 43.0868C424.742 42.7117 424.91 42.4102 425.128 42.1824C425.345 41.9511 425.61 41.739 425.922 41.5462C426.136 41.413 426.327 41.2675 426.495 41.1098C426.667 40.9485 426.802 40.7698 426.9 40.5735C426.998 40.3737 427.047 40.1511 427.047 39.9057C427.047 39.6288 426.982 39.3887 426.852 39.1854C426.723 38.982 426.547 38.8243 426.327 38.7121C426.109 38.6 425.866 38.5439 425.596 38.5439C425.347 38.5439 425.11 38.5982 424.886 38.7069C424.665 38.812 424.481 38.9733 424.334 39.1906C424.19 39.4044 424.109 39.6761 424.092 40.0056H422.22C422.238 39.3396 422.399 38.7822 422.704 38.3336C423.012 37.8849 423.419 37.5484 423.924 37.324C424.432 37.0997 424.993 36.9875 425.606 36.9875C426.276 36.9875 426.865 37.105 427.373 37.3398C427.885 37.5747 428.283 37.9094 428.566 38.3441C428.854 38.7752 428.998 39.287 428.998 39.8794C428.998 40.279 428.933 40.6366 428.803 40.952C428.677 41.2675 428.496 41.5479 428.262 41.7933C428.027 42.0387 427.748 42.2578 427.426 42.4506C427.142 42.6258 426.908 42.8081 426.726 42.9974C426.547 43.1867 426.414 43.4093 426.327 43.6651C426.242 43.9175 426.199 44.2295 426.195 44.6011V44.7378H424.444ZM425.359 48.0188C425.044 48.0188 424.772 47.9066 424.544 47.6822C424.316 47.4579 424.202 47.1845 424.202 46.862C424.202 46.5465 424.316 46.2766 424.544 46.0523C424.772 45.8279 425.044 45.7158 425.359 45.7158C425.671 45.7158 425.941 45.8279 426.169 46.0523C426.4 46.2766 426.516 46.5465 426.516 46.862C426.516 47.0758 426.462 47.2704 426.353 47.4456C426.248 47.6209 426.108 47.7611 425.932 47.8663C425.76 47.9679 425.569 48.0188 425.359 48.0188Z" fill="#1B1139"/>
<rect opacity="0.8" x="46.0708" y="39.0725" width="14.8065" height="2.46774" rx="1.23387" fill="#1B1139"/>
<rect opacity="0.8" x="54.7085" y="32.9031" width="14.8065" height="2.46774" rx="1.23387" transform="rotate(90 54.7085 32.9031)" fill="#1B1139"/>
<defs>
<filter id="filter0_d_160_719" x="4.673e-05" y="0" width="488.626" height="117.27" filterUnits="userSpaceOnUse" color-interpolation-filters="sRGB">
<feFlood flood-opacity="0" result="BackgroundImageFix"/>
<feColorMatrix in="SourceAlpha" type="matrix" values="0 0 0 0 0 0 0 0 0 0 0 0 0 0 0 0 0 0 127 0" result="hardAlpha"/>
<feMorphology radius="12.1197" operator="erode" in="SourceAlpha" result="effect1_dropShadow_160_719"/>
<feOffset dy="20.1995"/>
<feGaussianBlur stdDeviation="13.4663"/>
<feColorMatrix type="matrix" values="0 0 0 0 0.583333 0 0 0 0 0.583333 0 0 0 0 0.583333 0 0 0 0.25 0"/>
<feBlend mode="normal" in2="BackgroundImageFix" result="effect1_dropShadow_160_719"/>
<feBlend mode="normal" in="SourceGraphic" in2="effect1_dropShadow_160_719" result="shape"/>
</filter>
</defs>
</svg>
