<svg width="135" height="24" viewBox="0 0 135 24" fill="none" xmlns="http://www.w3.org/2000/svg">
<path fill-rule="evenodd" clip-rule="evenodd" d="M11.5 6C8.189 6 5.5 8.689 5.5 12C5.5 15.311 8.189 18 11.5 18C14.811 18 17.5 15.311 17.5 12C17.5 8.689 14.811 6 11.5 6ZM11.5 8C13.708 8 15.5 9.792 15.5 12C15.5 14.208 13.708 16 11.5 16C9.292 16 7.5 14.208 7.5 12C7.5 9.792 9.292 8 11.5 8Z" fill="white"/>
<path fill-rule="evenodd" clip-rule="evenodd" d="M19.25 17L19.343 16.999C20.304 16.975 21.22 16.583 21.902 15.902C22.605 15.198 23 14.245 23 13.25V11C23 5.52 18.592 1.07 13.129 1.001L13 1H12C5.929 1 1 5.929 1 12C1 18.071 5.929 23 12 23C12.552 23 13 22.552 13 22C13 21.448 12.552 21 12 21C7.033 21 3 16.967 3 12C3 7.033 7.033 3 12 3H13C17.418 3 21 6.582 21 11V13.25C21 13.714 20.816 14.159 20.487 14.487C20.159 14.816 19.714 15 19.25 15M19.25 15C18.786 15 18.341 14.816 18.013 14.487C17.684 14.159 17.5 13.714 17.5 13.25V8C17.5 7.465 17.08 7.028 16.551 7.001L16.5 7C15.948 7 15.5 7.448 15.5 8C15.5 8 15.5 10.935 15.5 13.25C15.5 14.245 15.895 15.198 16.598 15.902C17.302 16.605 18.255 17 19.25 17" fill="white"/>
<path d="M29.162 18V7.57H35.952V8.83H30.534V12.134H35.672V13.394H30.534V16.74H35.952V18H29.162ZM37.4982 18V10.454H38.7722V11.924L38.5622 11.798C38.7489 11.322 39.0476 10.9533 39.4582 10.692C39.8782 10.4213 40.3682 10.286 40.9282 10.286C41.4696 10.286 41.9502 10.4073 42.3702 10.65C42.7996 10.8927 43.1356 11.2287 43.3782 11.658C43.6302 12.0873 43.7562 12.5727 43.7562 13.114V18H42.4402V13.534C42.4402 13.114 42.3656 12.7593 42.2162 12.47C42.0669 12.1807 41.8522 11.9567 41.5722 11.798C41.3016 11.63 40.9889 11.546 40.6342 11.546C40.2796 11.546 39.9622 11.63 39.6822 11.798C39.4116 11.9567 39.1969 12.1853 39.0382 12.484C38.8796 12.7733 38.8002 13.1233 38.8002 13.534V18H37.4982ZM48.6853 18.084C47.948 18.084 47.3787 17.874 46.9773 17.454C46.5853 17.034 46.3893 16.4413 46.3893 15.676V11.7H45.0173V10.454H45.2973C45.6333 10.454 45.8993 10.3513 46.0953 10.146C46.2913 9.94067 46.3893 9.67 46.3893 9.334V8.718H47.6913V10.454H49.3853V11.7H47.6913V15.634C47.6913 15.886 47.7287 16.1053 47.8033 16.292C47.8873 16.4787 48.0227 16.628 48.2093 16.74C48.396 16.8427 48.6433 16.894 48.9513 16.894C49.0167 16.894 49.096 16.8893 49.1893 16.88C49.292 16.8707 49.3853 16.8613 49.4693 16.852V18C49.348 18.028 49.2127 18.0467 49.0633 18.056C48.914 18.0747 48.788 18.084 48.6853 18.084ZM54.437 18.168C53.709 18.168 53.0604 17.9953 52.491 17.65C51.9217 17.3047 51.4737 16.8333 51.147 16.236C50.8204 15.6293 50.657 14.9527 50.657 14.206C50.657 13.45 50.8157 12.778 51.133 12.19C51.4597 11.602 51.8984 11.14 52.449 10.804C53.009 10.4587 53.6344 10.286 54.325 10.286C54.885 10.286 55.3797 10.3887 55.809 10.594C56.2477 10.79 56.6164 11.0607 56.915 11.406C57.223 11.742 57.4564 12.1293 57.615 12.568C57.783 12.9973 57.867 13.4453 57.867 13.912C57.867 14.0147 57.8577 14.1313 57.839 14.262C57.8297 14.3833 57.8157 14.5 57.797 14.612H51.609V13.492H57.041L56.425 13.996C56.509 13.5107 56.4624 13.0767 56.285 12.694C56.1077 12.3113 55.8464 12.008 55.501 11.784C55.1557 11.56 54.7637 11.448 54.325 11.448C53.8864 11.448 53.485 11.56 53.121 11.784C52.757 12.008 52.4724 12.33 52.267 12.75C52.071 13.1607 51.9917 13.6507 52.029 14.22C51.9917 14.7707 52.0757 15.256 52.281 15.676C52.4957 16.0867 52.7944 16.4087 53.177 16.642C53.569 16.866 53.9937 16.978 54.451 16.978C54.955 16.978 55.3797 16.8613 55.725 16.628C56.0704 16.3947 56.3504 16.096 56.565 15.732L57.657 16.292C57.5077 16.6373 57.2744 16.9547 56.957 17.244C56.649 17.524 56.2804 17.748 55.851 17.916C55.431 18.084 54.9597 18.168 54.437 18.168ZM59.5646 18V10.454H60.8386V11.84L60.6986 11.644C60.876 11.2147 61.1466 10.8973 61.5106 10.692C61.8746 10.4773 62.318 10.37 62.8406 10.37H63.3026V11.602H62.6446C62.1126 11.602 61.6833 11.77 61.3566 12.106C61.03 12.4327 60.8666 12.8993 60.8666 13.506V18H59.5646ZM67.2851 21.08C67.1171 21.08 66.9491 21.066 66.7811 21.038C66.6131 21.01 66.4544 20.9633 66.3051 20.898V19.736C66.4078 19.7547 66.5338 19.7733 66.6831 19.792C66.8418 19.82 66.9958 19.834 67.1451 19.834C67.5838 19.834 67.9151 19.736 68.1391 19.54C68.3724 19.3533 68.5918 19.0267 68.7971 18.56L69.2731 17.426L69.2451 18.56L66.0251 10.454H67.4391L69.9451 16.894H69.5251L72.0171 10.454H73.4591L70.0571 18.896C69.8984 19.2973 69.6931 19.6613 69.4411 19.988C69.1984 20.324 68.8998 20.59 68.5451 20.786C68.1904 20.982 67.7704 21.08 67.2851 21.08ZM78.0647 18.168C77.3367 18.168 76.6787 18 76.0907 17.664C75.5027 17.3187 75.036 16.8473 74.6907 16.25C74.3453 15.6527 74.1727 14.976 74.1727 14.22C74.1727 13.464 74.3407 12.792 74.6767 12.204C75.022 11.616 75.4887 11.1493 76.0767 10.804C76.6647 10.4587 77.3273 10.286 78.0647 10.286C78.7927 10.286 79.4507 10.4587 80.0387 10.804C80.6267 11.14 81.0887 11.602 81.4247 12.19C81.77 12.778 81.9427 13.4547 81.9427 14.22C81.9427 14.9853 81.7653 15.6667 81.4107 16.264C81.056 16.852 80.5847 17.3187 79.9967 17.664C79.418 18 78.774 18.168 78.0647 18.168ZM78.0647 16.908C78.5313 16.908 78.9513 16.7913 79.3247 16.558C79.7073 16.3247 80.006 16.0027 80.2207 15.592C80.4447 15.1813 80.5567 14.724 80.5567 14.22C80.5567 13.7067 80.4447 13.254 80.2207 12.862C80.006 12.4607 79.7073 12.1433 79.3247 11.91C78.9513 11.6673 78.5313 11.546 78.0647 11.546C77.5887 11.546 77.1593 11.6673 76.7767 11.91C76.4033 12.1433 76.1047 12.4607 75.8807 12.862C75.6567 13.254 75.5447 13.7067 75.5447 14.22C75.5447 14.724 75.6567 15.1813 75.8807 15.592C76.1047 16.0027 76.4033 16.3247 76.7767 16.558C77.1593 16.7913 77.5887 16.908 78.0647 16.908ZM86.3148 18.168C85.7735 18.168 85.2835 18.042 84.8448 17.79C84.4155 17.538 84.0795 17.188 83.8368 16.74C83.6035 16.2827 83.4868 15.76 83.4868 15.172V10.454H84.7888V15.032C84.7888 15.4053 84.8635 15.732 85.0128 16.012C85.1715 16.292 85.3861 16.5113 85.6568 16.67C85.9368 16.8287 86.2541 16.908 86.6088 16.908C86.9635 16.908 87.2761 16.8287 87.5468 16.67C87.8268 16.5113 88.0415 16.2827 88.1908 15.984C88.3495 15.6853 88.4288 15.3307 88.4288 14.92V10.454H89.7448V18H88.4708V16.53L88.6808 16.656C88.5035 17.132 88.2001 17.5053 87.7708 17.776C87.3508 18.0373 86.8655 18.168 86.3148 18.168ZM91.7619 18V10.454H93.0359V11.84L92.8959 11.644C93.0732 11.2147 93.3439 10.8973 93.7079 10.692C94.0719 10.4773 94.5152 10.37 95.0379 10.37H95.4999V11.602H94.8419C94.3099 11.602 93.8806 11.77 93.5539 12.106C93.2272 12.4327 93.0639 12.8993 93.0639 13.506V18H91.7619ZM102.548 18.168C101.82 18.168 101.172 17.9953 100.602 17.65C100.033 17.3047 99.585 16.8333 99.2584 16.236C98.9317 15.6293 98.7684 14.9527 98.7684 14.206C98.7684 13.45 98.927 12.778 99.2444 12.19C99.571 11.602 100.01 11.14 100.56 10.804C101.12 10.4587 101.746 10.286 102.436 10.286C102.996 10.286 103.491 10.3887 103.92 10.594C104.359 10.79 104.728 11.0607 105.026 11.406C105.334 11.742 105.568 12.1293 105.726 12.568C105.894 12.9973 105.978 13.4453 105.978 13.912C105.978 14.0147 105.969 14.1313 105.95 14.262C105.941 14.3833 105.927 14.5 105.908 14.612H99.7204V13.492H105.152L104.536 13.996C104.62 13.5107 104.574 13.0767 104.396 12.694C104.219 12.3113 103.958 12.008 103.612 11.784C103.267 11.56 102.875 11.448 102.436 11.448C101.998 11.448 101.596 11.56 101.232 11.784C100.868 12.008 100.584 12.33 100.378 12.75C100.182 13.1607 100.103 13.6507 100.14 14.22C100.103 14.7707 100.187 15.256 100.392 15.676C100.607 16.0867 100.906 16.4087 101.288 16.642C101.68 16.866 102.105 16.978 102.562 16.978C103.066 16.978 103.491 16.8613 103.836 16.628C104.182 16.3947 104.462 16.096 104.676 15.732L105.768 16.292C105.619 16.6373 105.386 16.9547 105.068 17.244C104.76 17.524 104.392 17.748 103.962 17.916C103.542 18.084 103.071 18.168 102.548 18.168ZM107.676 18V10.454H108.95V11.994L108.768 11.756C108.955 11.28 109.253 10.916 109.664 10.664C110.075 10.412 110.537 10.286 111.05 10.286C111.638 10.286 112.165 10.4493 112.632 10.776C113.108 11.1027 113.435 11.532 113.612 12.064L113.248 12.078C113.444 11.49 113.775 11.0467 114.242 10.748C114.709 10.44 115.227 10.286 115.796 10.286C116.319 10.286 116.79 10.4073 117.21 10.65C117.639 10.8927 117.98 11.2287 118.232 11.658C118.484 12.0873 118.61 12.5727 118.61 13.114V18H117.294V13.534C117.294 13.114 117.219 12.7593 117.07 12.47C116.921 12.1807 116.715 11.9567 116.454 11.798C116.202 11.63 115.903 11.546 115.558 11.546C115.222 11.546 114.919 11.63 114.648 11.798C114.387 11.9567 114.177 12.1853 114.018 12.484C113.869 12.7733 113.794 13.1233 113.794 13.534V18H112.478V13.534C112.478 13.114 112.403 12.7593 112.254 12.47C112.105 12.1807 111.899 11.9567 111.638 11.798C111.386 11.63 111.087 11.546 110.742 11.546C110.406 11.546 110.103 11.63 109.832 11.798C109.571 11.9567 109.361 12.1853 109.202 12.484C109.053 12.7733 108.978 13.1233 108.978 13.534V18H107.676ZM122.671 18.168C122.177 18.168 121.738 18.0793 121.355 17.902C120.982 17.7153 120.688 17.4633 120.473 17.146C120.259 16.8193 120.151 16.446 120.151 16.026C120.151 15.6247 120.235 15.2653 120.403 14.948C120.581 14.6213 120.851 14.346 121.215 14.122C121.589 13.898 122.055 13.7393 122.615 13.646L125.415 13.184V14.276L122.909 14.696C122.424 14.78 122.069 14.934 121.845 15.158C121.631 15.382 121.523 15.6573 121.523 15.984C121.523 16.292 121.645 16.5487 121.887 16.754C122.139 16.9593 122.452 17.062 122.825 17.062C123.301 17.062 123.712 16.964 124.057 16.768C124.412 16.5627 124.687 16.2873 124.883 15.942C125.089 15.5967 125.191 15.214 125.191 14.794V12.876C125.191 12.4653 125.037 12.134 124.729 11.882C124.431 11.6207 124.034 11.49 123.539 11.49C123.11 11.49 122.727 11.602 122.391 11.826C122.065 12.0407 121.822 12.33 121.663 12.694L120.529 12.106C120.669 11.7607 120.893 11.4527 121.201 11.182C121.509 10.902 121.869 10.6827 122.279 10.524C122.69 10.3653 123.119 10.286 123.567 10.286C124.146 10.286 124.655 10.398 125.093 10.622C125.532 10.8367 125.873 11.14 126.115 11.532C126.367 11.9147 126.493 12.3627 126.493 12.876V18H125.219V16.572L125.457 16.656C125.299 16.9547 125.084 17.216 124.813 17.44C124.543 17.664 124.225 17.8413 123.861 17.972C123.497 18.1027 123.101 18.168 122.671 18.168ZM128.512 18V10.454H129.814V18H128.512ZM128.512 9.25V7.57H129.814V9.25H128.512ZM131.834 18V7.402H133.136V18H131.834Z" fill="white"/>
</svg>
