<svg width="489" height="118" viewBox="0 0 489 118" fill="none" xmlns="http://www.w3.org/2000/svg">
<g filter="url(#filter0_d_160_733)">
<rect x="14.813" width="459" height="82.2581" rx="4.03989" fill="white"/>
</g>
<path opacity="0.88" d="M77.1052 47.0808H73.4562V36.3125H77.1788C78.2479 36.3125 79.1663 36.5281 79.934 36.9592C80.7051 37.3869 81.2975 38.002 81.7112 38.8048C82.1248 39.6075 82.3316 40.5679 82.3316 41.6861C82.3316 42.8078 82.123 43.7718 81.7059 44.578C81.2923 45.3842 80.6946 46.0029 79.9129 46.4341C79.1348 46.8652 78.1988 47.0808 77.1052 47.0808ZM75.4069 45.393H77.0105C77.7607 45.393 78.3864 45.2563 78.8876 44.9829C79.3889 44.706 79.7657 44.2941 80.0181 43.7473C80.2705 43.1969 80.3967 42.5099 80.3967 41.6861C80.3967 40.8624 80.2705 40.1788 80.0181 39.6355C79.7657 39.0887 79.3924 38.6803 78.8982 38.4104C78.4074 38.137 77.7975 38.0003 77.0684 38.0003H75.4069V45.393ZM87.6238 47.2385C86.8351 47.2385 86.1515 47.065 85.5732 46.718C84.9948 46.371 84.5461 45.8855 84.2271 45.2616C83.9116 44.6376 83.7539 43.9085 83.7539 43.0742C83.7539 42.24 83.9116 41.5091 84.2271 40.8817C84.5461 40.2542 84.9948 39.767 85.5732 39.4199C86.1515 39.0729 86.8351 38.8994 87.6238 38.8994C88.4125 38.8994 89.096 39.0729 89.6744 39.4199C90.2527 39.767 90.6997 40.2542 91.0152 40.8817C91.3341 41.5091 91.4936 42.24 91.4936 43.0742C91.4936 43.9085 91.3341 44.6376 91.0152 45.2616C90.6997 45.8855 90.2527 46.371 89.6744 46.718C89.096 47.065 88.4125 47.2385 87.6238 47.2385ZM87.6343 45.7137C88.0619 45.7137 88.4195 45.5963 88.7069 45.3615C88.9943 45.1231 89.2082 44.8041 89.3484 44.4045C89.4921 44.0049 89.564 43.5597 89.564 43.069C89.564 42.5747 89.4921 42.1278 89.3484 41.7282C89.2082 41.3251 88.9943 41.0043 88.7069 40.766C88.4195 40.5276 88.0619 40.4084 87.6343 40.4084C87.1961 40.4084 86.8316 40.5276 86.5406 40.766C86.2532 41.0043 86.0376 41.3251 85.8939 41.7282C85.7537 42.1278 85.6836 42.5747 85.6836 43.069C85.6836 43.5597 85.7537 44.0049 85.8939 44.4045C86.0376 44.8041 86.2532 45.1231 86.5406 45.3615C86.8316 45.5963 87.1961 45.7137 87.6343 45.7137ZM98.8167 36.3125V47.0808H96.866V36.3125H98.8167ZM106.421 42.3486V47.0808H104.518V39.0046H106.337V40.3769H106.432C106.617 39.9247 106.914 39.5654 107.32 39.299C107.73 39.0326 108.237 38.8994 108.84 38.8994C109.397 38.8994 109.883 39.0186 110.296 39.2569C110.713 39.4953 111.036 39.8406 111.264 40.2928C111.495 40.745 111.609 41.2935 111.605 41.9385V47.0808H109.702V42.233C109.702 41.6931 109.562 41.2708 109.281 40.9658C109.004 40.6608 108.621 40.5083 108.13 40.5083C107.797 40.5083 107.501 40.582 107.241 40.7292C106.985 40.8729 106.784 41.0815 106.637 41.3549C106.493 41.6283 106.421 41.9595 106.421 42.3486ZM117.116 47.2385C116.306 47.2385 115.607 47.0703 115.018 46.7338C114.432 46.3938 113.982 45.9135 113.667 45.2931C113.351 44.6692 113.193 43.9348 113.193 43.09C113.193 42.2592 113.351 41.5301 113.667 40.9027C113.985 40.2717 114.431 39.781 115.002 39.4305C115.573 39.0764 116.245 38.8994 117.016 38.8994C117.514 38.8994 117.983 38.98 118.425 39.1413C118.87 39.299 119.263 39.5444 119.603 39.8774C119.946 40.2104 120.216 40.6345 120.412 41.1498C120.609 41.6616 120.707 42.2715 120.707 42.9796V43.5632H114.087V42.2803H118.882C118.879 41.9157 118.8 41.5915 118.646 41.3076C118.492 41.0201 118.276 40.794 117.999 40.6293C117.726 40.4645 117.407 40.3822 117.042 40.3822C116.653 40.3822 116.311 40.4768 116.017 40.6661C115.722 40.8519 115.493 41.0972 115.328 41.4022C115.167 41.7037 115.084 42.0349 115.081 42.396V43.5159C115.081 43.9856 115.167 44.3887 115.339 44.7252C115.51 45.0582 115.75 45.3141 116.059 45.4929C116.367 45.6682 116.728 45.7558 117.142 45.7558C117.419 45.7558 117.67 45.7172 117.894 45.6401C118.118 45.5595 118.313 45.4421 118.478 45.2878C118.642 45.1336 118.767 44.9426 118.851 44.7147L120.628 44.9145C120.516 45.3842 120.302 45.7944 119.987 46.1449C119.675 46.4919 119.275 46.7618 118.788 46.9546C118.301 47.1439 117.743 47.2385 117.116 47.2385ZM125.893 47.2385C125.083 47.2385 124.384 47.0703 123.795 46.7338C123.209 46.3938 122.759 45.9135 122.443 45.2931C122.128 44.6692 121.97 43.9348 121.97 43.09C121.97 42.2592 122.128 41.5301 122.443 40.9027C122.762 40.2717 123.208 39.781 123.779 39.4305C124.35 39.0764 125.022 38.8994 125.793 38.8994C126.29 38.8994 126.76 38.98 127.202 39.1413C127.647 39.299 128.04 39.5444 128.38 39.8774C128.723 40.2104 128.993 40.6345 129.189 41.1498C129.386 41.6616 129.484 42.2715 129.484 42.9796V43.5632H122.864V42.2803H127.659C127.656 41.9157 127.577 41.5915 127.423 41.3076C127.268 41.0201 127.053 40.794 126.776 40.6293C126.503 40.4645 126.184 40.3822 125.819 40.3822C125.43 40.3822 125.088 40.4768 124.794 40.6661C124.499 40.8519 124.27 41.0972 124.105 41.4022C123.944 41.7037 123.861 42.0349 123.858 42.396V43.5159C123.858 43.9856 123.944 44.3887 124.115 44.7252C124.287 45.0582 124.527 45.3141 124.836 45.4929C125.144 45.6682 125.505 45.7558 125.919 45.7558C126.196 45.7558 126.446 45.7172 126.671 45.6401C126.895 45.5595 127.09 45.4421 127.254 45.2878C127.419 45.1336 127.544 44.9426 127.628 44.7147L129.405 44.9145C129.293 45.3842 129.079 45.7944 128.763 46.1449C128.451 46.4919 128.052 46.7618 127.565 46.9546C127.077 47.1439 126.52 47.2385 125.893 47.2385ZM134.091 47.2228C133.457 47.2228 132.889 47.0598 132.388 46.7338C131.886 46.4078 131.49 45.9346 131.199 45.3141C130.908 44.6937 130.763 43.94 130.763 43.0532C130.763 42.1558 130.91 41.3987 131.204 40.7818C131.502 40.1613 131.904 39.6934 132.409 39.3779C132.913 39.0589 133.476 38.8994 134.096 38.8994C134.57 38.8994 134.959 38.98 135.264 39.1413C135.569 39.299 135.81 39.49 135.989 39.7144C136.168 39.9352 136.306 40.1438 136.405 40.3401H136.483V36.3125H138.392V47.0808H136.52V45.8084H136.405C136.306 46.0047 136.164 46.2132 135.979 46.4341C135.793 46.6514 135.548 46.8372 135.243 46.9914C134.938 47.1457 134.554 47.2228 134.091 47.2228ZM134.622 45.6612C135.025 45.6612 135.369 45.5525 135.653 45.3352C135.937 45.1143 136.152 44.8076 136.299 44.415C136.447 44.0224 136.52 43.565 136.52 43.0427C136.52 42.5204 136.447 42.0665 136.299 41.6809C136.156 41.2953 135.942 40.9956 135.658 40.7818C135.378 40.5679 135.032 40.461 134.622 40.461C134.198 40.461 133.844 40.5714 133.56 40.7923C133.276 41.0131 133.062 41.3181 132.919 41.7072C132.775 42.0963 132.703 42.5414 132.703 43.0427C132.703 43.5475 132.775 43.9979 132.919 44.394C133.066 44.7866 133.281 45.0968 133.565 45.3246C133.853 45.549 134.205 45.6612 134.622 45.6612ZM146.417 47.2438C145.905 47.2438 145.444 47.1527 145.034 46.9704C144.628 46.7846 144.305 46.5112 144.067 46.1501C143.832 45.7891 143.715 45.3439 143.715 44.8146C143.715 44.3589 143.799 43.9821 143.967 43.6842C144.135 43.3862 144.365 43.1478 144.656 42.9691C144.947 42.7903 145.274 42.6553 145.639 42.5642C146.007 42.4696 146.387 42.4012 146.78 42.3592C147.253 42.3101 147.637 42.2663 147.931 42.2277C148.226 42.1856 148.44 42.1225 148.573 42.0384C148.71 41.9508 148.778 41.8158 148.778 41.6336V41.602C148.778 41.2059 148.661 40.8992 148.426 40.6819C148.191 40.4645 147.853 40.3559 147.411 40.3559C146.945 40.3559 146.575 40.4575 146.301 40.6608C146.032 40.8641 145.849 41.1042 145.755 41.3812L143.977 41.1288C144.118 40.638 144.349 40.2279 144.671 39.8984C144.994 39.5654 145.388 39.3165 145.855 39.1518C146.321 38.9835 146.836 38.8994 147.4 38.8994C147.789 38.8994 148.177 38.945 148.562 39.0361C148.948 39.1272 149.3 39.278 149.619 39.4883C149.938 39.6951 150.194 39.9773 150.387 40.3348C150.583 40.6924 150.681 41.1393 150.681 41.6756V47.0808H148.852V45.9714H148.788C148.673 46.1957 148.51 46.406 148.299 46.6023C148.093 46.7951 147.831 46.9511 147.516 47.0703C147.204 47.186 146.838 47.2438 146.417 47.2438ZM146.911 45.8452C147.293 45.8452 147.625 45.7698 147.905 45.6191C148.186 45.4649 148.401 45.2616 148.552 45.0092C148.706 44.7568 148.783 44.4816 148.783 44.1837V43.232C148.724 43.281 148.622 43.3266 148.478 43.3687C148.338 43.4107 148.18 43.4476 148.005 43.4791C147.83 43.5106 147.656 43.5387 147.484 43.5632C147.313 43.5878 147.164 43.6088 147.038 43.6263C146.754 43.6649 146.499 43.728 146.275 43.8156C146.051 43.9032 145.874 44.0259 145.744 44.1837C145.614 44.3379 145.55 44.5377 145.55 44.7831C145.55 45.1336 145.677 45.3983 145.933 45.577C146.189 45.7558 146.515 45.8452 146.911 45.8452ZM156.268 39.0046H158.171V47.5435C158.171 48.1254 158.061 48.6056 157.84 48.9842C157.619 49.3628 157.3 49.6449 156.883 49.8307C156.466 50.0165 155.959 50.1094 155.364 50.1094C155.293 50.1094 155.229 50.1077 155.169 50.1041C155.109 50.1041 155.045 50.1024 154.974 50.0989V48.5478C155.027 48.5513 155.074 48.553 155.116 48.553C155.158 48.5565 155.202 48.5583 155.248 48.5583C155.612 48.5583 155.874 48.4689 156.031 48.2901C156.189 48.1149 156.268 47.8572 156.268 47.5172V39.0046ZM157.214 37.8583C156.909 37.8583 156.648 37.7584 156.431 37.5586C156.217 37.3553 156.11 37.1117 156.11 36.8278C156.11 36.5403 156.217 36.2967 156.431 36.0969C156.648 35.8936 156.909 35.7919 157.214 35.7919C157.516 35.7919 157.773 35.8936 157.987 36.0969C158.205 36.2967 158.313 36.5403 158.313 36.8278C158.313 37.1117 158.205 37.3553 157.987 37.5586C157.773 37.7584 157.516 37.8583 157.214 37.8583ZM163.651 47.2385C162.863 47.2385 162.179 47.065 161.601 46.718C161.022 46.371 160.574 45.8855 160.255 45.2616C159.939 44.6376 159.782 43.9085 159.782 43.0742C159.782 42.24 159.939 41.5091 160.255 40.8817C160.574 40.2542 161.022 39.767 161.601 39.4199C162.179 39.0729 162.863 38.8994 163.651 38.8994C164.44 38.8994 165.124 39.0729 165.702 39.4199C166.28 39.767 166.727 40.2542 167.043 40.8817C167.362 41.5091 167.521 42.24 167.521 43.0742C167.521 43.9085 167.362 44.6376 167.043 45.2616C166.727 45.8855 166.28 46.371 165.702 46.718C165.124 47.065 164.44 47.2385 163.651 47.2385ZM163.662 45.7137C164.09 45.7137 164.447 45.5963 164.735 45.3615C165.022 45.1231 165.236 44.8041 165.376 44.4045C165.52 44.0049 165.592 43.5597 165.592 43.069C165.592 42.5747 165.52 42.1278 165.376 41.7282C165.236 41.3251 165.022 41.0043 164.735 40.766C164.447 40.5276 164.09 40.4084 163.662 40.4084C163.224 40.4084 162.859 40.5276 162.568 40.766C162.281 41.0043 162.065 41.3251 161.922 41.7282C161.781 42.1278 161.711 42.5747 161.711 43.069C161.711 43.5597 161.781 44.0049 161.922 44.4045C162.065 44.8041 162.281 45.1231 162.568 45.3615C162.859 45.5963 163.224 45.7137 163.662 45.7137ZM169.221 47.0808V36.3125H171.124V40.3401H171.203C171.301 40.1438 171.44 39.9352 171.619 39.7144C171.797 39.49 172.039 39.299 172.344 39.1413C172.649 38.98 173.038 38.8994 173.511 38.8994C174.135 38.8994 174.698 39.0589 175.199 39.3779C175.704 39.6934 176.104 40.1613 176.398 40.7818C176.696 41.3987 176.845 42.1558 176.845 43.0532C176.845 43.94 176.7 44.6937 176.409 45.3141C176.118 45.9346 175.722 46.4078 175.22 46.7338C174.719 47.0598 174.151 47.2228 173.517 47.2228C173.054 47.2228 172.67 47.1457 172.365 46.9914C172.06 46.8372 171.815 46.6514 171.629 46.4341C171.447 46.2132 171.305 46.0047 171.203 45.8084H171.093V47.0808H169.221ZM171.088 43.0427C171.088 43.565 171.161 44.0224 171.308 44.415C171.459 44.8076 171.675 45.1143 171.955 45.3352C172.239 45.5525 172.583 45.6612 172.986 45.6612C173.406 45.6612 173.759 45.549 174.042 45.3246C174.326 45.0968 174.54 44.7866 174.684 44.394C174.831 43.9979 174.905 43.5475 174.905 43.0427C174.905 42.5414 174.833 42.0963 174.689 41.7072C174.546 41.3181 174.332 41.0131 174.048 40.7923C173.764 40.5714 173.41 40.461 172.986 40.461C172.579 40.461 172.234 40.5679 171.95 40.7818C171.666 40.9956 171.45 41.2953 171.303 41.6809C171.159 42.0665 171.088 42.5204 171.088 43.0427ZM185.659 47.2385C184.87 47.2385 184.186 47.065 183.608 46.718C183.03 46.371 182.581 45.8855 182.262 45.2616C181.947 44.6376 181.789 43.9085 181.789 43.0742C181.789 42.24 181.947 41.5091 182.262 40.8817C182.581 40.2542 183.03 39.767 183.608 39.4199C184.186 39.0729 184.87 38.8994 185.659 38.8994C186.447 38.8994 187.131 39.0729 187.709 39.4199C188.288 39.767 188.735 40.2542 189.05 40.8817C189.369 41.5091 189.529 42.24 189.529 43.0742C189.529 43.9085 189.369 44.6376 189.05 45.2616C188.735 45.8855 188.288 46.371 187.709 46.718C187.131 47.065 186.447 47.2385 185.659 47.2385ZM185.669 45.7137C186.097 45.7137 186.454 45.5963 186.742 45.3615C187.029 45.1231 187.243 44.8041 187.383 44.4045C187.527 44.0049 187.599 43.5597 187.599 43.069C187.599 42.5747 187.527 42.1278 187.383 41.7282C187.243 41.3251 187.029 41.0043 186.742 40.766C186.454 40.5276 186.097 40.4084 185.669 40.4084C185.231 40.4084 184.866 40.5276 184.576 40.766C184.288 41.0043 184.073 41.3251 183.929 41.7282C183.789 42.1278 183.718 42.5747 183.718 43.069C183.718 43.5597 183.789 44.0049 183.929 44.4045C184.073 44.8041 184.288 45.1231 184.576 45.3615C184.866 45.5963 185.231 45.7137 185.669 45.7137ZM195.235 39.0046V40.4768H190.461V39.0046H195.235ZM191.654 47.0808V38.2422C191.654 37.6988 191.766 37.2466 191.991 36.8856C192.218 36.5246 192.523 36.2546 192.905 36.0759C193.288 35.8971 193.712 35.8077 194.178 35.8077C194.507 35.8077 194.8 35.834 195.056 35.8866C195.312 35.9392 195.501 35.9865 195.624 36.0286L195.245 37.5008C195.165 37.4762 195.063 37.4517 194.94 37.4272C194.818 37.3991 194.681 37.3851 194.53 37.3851C194.176 37.3851 193.926 37.471 193.778 37.6427C193.635 37.811 193.563 38.0529 193.563 38.3683V47.0808H191.654ZM200.816 39.0046V40.4768H196.042V39.0046H200.816ZM197.235 47.0808V38.2422C197.235 37.6988 197.348 37.2466 197.572 36.8856C197.8 36.5246 198.105 36.2546 198.487 36.0759C198.869 35.8971 199.293 35.8077 199.759 35.8077C200.089 35.8077 200.381 35.834 200.637 35.8866C200.893 35.9392 201.082 35.9865 201.205 36.0286L200.827 37.5008C200.746 37.4762 200.644 37.4517 200.522 37.4272C200.399 37.3991 200.262 37.3851 200.112 37.3851C199.757 37.3851 199.507 37.471 199.36 37.6427C199.216 37.811 199.144 38.0529 199.144 38.3683V47.0808H197.235ZM205.579 47.2385C204.769 47.2385 204.069 47.0703 203.481 46.7338C202.895 46.3938 202.445 45.9135 202.129 45.2931C201.814 44.6692 201.656 43.9348 201.656 43.09C201.656 42.2592 201.814 41.5301 202.129 40.9027C202.448 40.2717 202.893 39.781 203.465 39.4305C204.036 39.0764 204.707 38.8994 205.479 38.8994C205.976 38.8994 206.446 38.98 206.888 39.1413C207.333 39.299 207.726 39.5444 208.066 39.8774C208.409 40.2104 208.679 40.6345 208.875 41.1498C209.072 41.6616 209.17 42.2715 209.17 42.9796V43.5632H202.55V42.2803H207.345C207.342 41.9157 207.263 41.5915 207.109 41.3076C206.954 41.0201 206.739 40.794 206.462 40.6293C206.188 40.4645 205.869 40.3822 205.505 40.3822C205.116 40.3822 204.774 40.4768 204.48 40.6661C204.185 40.8519 203.956 41.0972 203.791 41.4022C203.63 41.7037 203.547 42.0349 203.544 42.396V43.5159C203.544 43.9856 203.63 44.3887 203.801 44.7252C203.973 45.0582 204.213 45.3141 204.522 45.4929C204.83 45.6682 205.191 45.7558 205.605 45.7558C205.882 45.7558 206.132 45.7172 206.357 45.6401C206.581 45.5595 206.776 45.4421 206.94 45.2878C207.105 45.1336 207.23 44.9426 207.314 44.7147L209.091 44.9145C208.979 45.3842 208.765 45.7944 208.449 46.1449C208.137 46.4919 207.738 46.7618 207.251 46.9546C206.763 47.1439 206.206 47.2385 205.579 47.2385ZM210.78 47.0808V39.0046H212.626V40.3506H212.71C212.857 39.8844 213.109 39.5251 213.467 39.2727C213.828 39.0168 214.24 38.8889 214.702 38.8889C214.808 38.8889 214.925 38.8941 215.055 38.9047C215.188 38.9117 215.298 38.9239 215.386 38.9415V40.6924C215.305 40.6643 215.177 40.6398 215.002 40.6188C214.83 40.5942 214.664 40.582 214.503 40.582C214.156 40.582 213.844 40.6573 213.567 40.808C213.293 40.9553 213.078 41.1603 212.92 41.4232C212.762 41.6861 212.683 41.9893 212.683 42.3329V47.0808H210.78ZM224.414 39.0046V40.4768H219.64V39.0046H224.414ZM220.833 47.0808V38.2422C220.833 37.6988 220.945 37.2466 221.17 36.8856C221.398 36.5246 221.703 36.2546 222.085 36.0759C222.467 35.8971 222.891 35.8077 223.357 35.8077C223.687 35.8077 223.979 35.834 224.235 35.8866C224.491 35.9392 224.68 35.9865 224.803 36.0286L224.424 37.5008C224.344 37.4762 224.242 37.4517 224.119 37.4272C223.997 37.3991 223.86 37.3851 223.709 37.3851C223.355 37.3851 223.105 37.471 222.957 37.6427C222.814 37.811 222.742 38.0529 222.742 38.3683V47.0808H220.833ZM229.124 47.2385C228.335 47.2385 227.651 47.065 227.073 46.718C226.495 46.371 226.046 45.8855 225.727 45.2616C225.412 44.6376 225.254 43.9085 225.254 43.0742C225.254 42.24 225.412 41.5091 225.727 40.8817C226.046 40.2542 226.495 39.767 227.073 39.4199C227.651 39.0729 228.335 38.8994 229.124 38.8994C229.912 38.8994 230.596 39.0729 231.174 39.4199C231.753 39.767 232.2 40.2542 232.515 40.8817C232.834 41.5091 232.994 42.24 232.994 43.0742C232.994 43.9085 232.834 44.6376 232.515 45.2616C232.2 45.8855 231.753 46.371 231.174 46.718C230.596 47.065 229.912 47.2385 229.124 47.2385ZM229.134 45.7137C229.562 45.7137 229.919 45.5963 230.207 45.3615C230.494 45.1231 230.708 44.8041 230.848 44.4045C230.992 44.0049 231.064 43.5597 231.064 43.069C231.064 42.5747 230.992 42.1278 230.848 41.7282C230.708 41.3251 230.494 41.0043 230.207 40.766C229.919 40.5276 229.562 40.4084 229.134 40.4084C228.696 40.4084 228.332 40.5276 228.041 40.766C227.753 41.0043 227.538 41.3251 227.394 41.7282C227.254 42.1278 227.184 42.5747 227.184 43.069C227.184 43.5597 227.254 44.0049 227.394 44.4045C227.538 44.8041 227.753 45.1231 228.041 45.3615C228.332 45.5963 228.696 45.7137 229.134 45.7137ZM234.609 47.0808V39.0046H236.455V40.3506H236.539C236.686 39.8844 236.938 39.5251 237.296 39.2727C237.657 39.0168 238.069 38.8889 238.532 38.8889C238.637 38.8889 238.754 38.8941 238.884 38.9047C239.017 38.9117 239.127 38.9239 239.215 38.9415V40.6924C239.134 40.6643 239.007 40.6398 238.831 40.6188C238.659 40.5942 238.493 40.582 238.332 40.582C237.985 40.582 237.673 40.6573 237.396 40.808C237.122 40.9553 236.907 41.1603 236.749 41.4232C236.591 41.6861 236.512 41.9893 236.512 42.3329V47.0808H234.609ZM244.152 47.0808V39.0046H246.056V47.0808H244.152ZM245.109 37.8583C244.808 37.8583 244.548 37.7584 244.331 37.5586C244.114 37.3553 244.005 37.1117 244.005 36.8278C244.005 36.5403 244.114 36.2967 244.331 36.0969C244.548 35.8936 244.808 35.7919 245.109 35.7919C245.414 35.7919 245.674 35.8936 245.887 36.0969C246.105 36.2967 246.213 36.5403 246.213 36.8278C246.213 37.1117 246.105 37.3553 245.887 37.5586C245.674 37.7584 245.414 37.8583 245.109 37.8583ZM248.013 47.0808V39.0046H249.832V40.3769H249.927C250.095 39.9142 250.374 39.5531 250.763 39.2938C251.152 39.0309 251.616 38.8994 252.156 38.8994C252.703 38.8994 253.164 39.0326 253.539 39.299C253.918 39.5619 254.184 39.9212 254.338 40.3769H254.422C254.601 39.9282 254.903 39.5707 255.327 39.3043C255.754 39.0344 256.261 38.8994 256.846 38.8994C257.589 38.8994 258.196 39.1343 258.666 39.604C259.135 40.0737 259.37 40.759 259.37 41.6598V47.0808H257.462V41.9543C257.462 41.453 257.328 41.0867 257.062 40.8554C256.796 40.6205 256.47 40.5031 256.084 40.5031C255.625 40.5031 255.265 40.6468 255.006 40.9342C254.75 41.2182 254.622 41.588 254.622 42.0437V47.0808H252.756V41.8754C252.756 41.4583 252.629 41.1253 252.377 40.8764C252.128 40.6275 251.802 40.5031 251.399 40.5031C251.126 40.5031 250.877 40.5732 250.652 40.7134C250.428 40.8501 250.249 41.0447 250.116 41.297C249.983 41.5459 249.916 41.8369 249.916 42.1699V47.0808H248.013ZM261.301 47.0808V39.0046H263.12V40.3769H263.215C263.383 39.9142 263.662 39.5531 264.051 39.2938C264.44 39.0309 264.905 38.8994 265.444 38.8994C265.991 38.8994 266.452 39.0326 266.827 39.299C267.206 39.5619 267.472 39.9212 267.627 40.3769H267.711C267.889 39.9282 268.191 39.5707 268.615 39.3043C269.043 39.0344 269.549 38.8994 270.135 38.8994C270.878 38.8994 271.484 39.1343 271.954 39.604C272.424 40.0737 272.658 40.759 272.658 41.6598V47.0808H270.75V41.9543C270.75 41.453 270.617 41.0867 270.35 40.8554C270.084 40.6205 269.758 40.5031 269.372 40.5031C268.913 40.5031 268.554 40.6468 268.294 40.9342C268.038 41.2182 267.91 41.588 267.91 42.0437V47.0808H266.044V41.8754C266.044 41.4583 265.918 41.1253 265.665 40.8764C265.416 40.6275 265.09 40.5031 264.687 40.5031C264.414 40.5031 264.165 40.5732 263.941 40.7134C263.716 40.8501 263.538 41.0447 263.404 41.297C263.271 41.5459 263.205 41.8369 263.205 42.1699V47.0808H261.301ZM274.589 47.0808V39.0046H276.493V47.0808H274.589ZM275.546 37.8583C275.245 37.8583 274.985 37.7584 274.768 37.5586C274.551 37.3553 274.442 37.1117 274.442 36.8278C274.442 36.5403 274.551 36.2967 274.768 36.0969C274.985 35.8936 275.245 35.7919 275.546 35.7919C275.851 35.7919 276.111 35.8936 276.325 36.0969C276.542 36.2967 276.651 36.5403 276.651 36.8278C276.651 37.1117 276.542 37.3553 276.325 37.5586C276.111 37.7584 275.851 37.8583 275.546 37.8583ZM281.962 50.2777C281.279 50.2777 280.692 50.1848 280.201 49.999C279.71 49.8167 279.316 49.5713 279.018 49.2629C278.72 48.9544 278.513 48.6126 278.397 48.2376L280.112 47.8222C280.189 47.9799 280.301 48.1359 280.448 48.2901C280.595 48.4479 280.793 48.5776 281.042 48.6792C281.295 48.7844 281.612 48.837 281.994 48.837C282.534 48.837 282.981 48.7055 283.335 48.4426C283.689 48.1832 283.866 47.7556 283.866 47.1597V45.6296H283.771C283.673 45.8259 283.529 46.0275 283.34 46.2343C283.154 46.4411 282.907 46.6146 282.599 46.7548C282.294 46.895 281.91 46.9651 281.447 46.9651C280.827 46.9651 280.264 46.8197 279.759 46.5287C279.258 46.2343 278.858 45.7961 278.56 45.2142C278.266 44.6288 278.119 43.8962 278.119 43.0164C278.119 42.1296 278.266 41.3812 278.56 40.7712C278.858 40.1578 279.26 39.6934 279.765 39.3779C280.269 39.0589 280.832 38.8994 281.452 38.8994C281.926 38.8994 282.315 38.98 282.62 39.1413C282.928 39.299 283.173 39.49 283.356 39.7144C283.538 39.9352 283.676 40.1438 283.771 40.3401H283.876V39.0046H285.753V47.2123C285.753 47.9028 285.589 48.4742 285.259 48.9264C284.93 49.3785 284.479 49.7168 283.908 49.9411C283.336 50.1655 282.688 50.2777 281.962 50.2777ZM281.978 45.4719C282.381 45.4719 282.725 45.3737 283.009 45.1774C283.293 44.9811 283.508 44.6989 283.655 44.3309C283.803 43.9628 283.876 43.5212 283.876 43.0059C283.876 42.4976 283.803 42.0524 283.655 41.6704C283.512 41.2883 283.298 40.9921 283.014 40.7818C282.734 40.5679 282.388 40.461 281.978 40.461C281.554 40.461 281.2 40.5714 280.916 40.7923C280.632 41.0131 280.418 41.3163 280.275 41.7019C280.131 42.084 280.059 42.5186 280.059 43.0059C280.059 43.5001 280.131 43.933 280.275 44.3046C280.422 44.6727 280.637 44.9601 280.921 45.1669C281.209 45.3702 281.561 45.4719 281.978 45.4719ZM287.704 47.0808V39.0046H289.55V40.3506H289.634C289.781 39.8844 290.033 39.5251 290.391 39.2727C290.752 39.0168 291.164 38.8889 291.627 38.8889C291.732 38.8889 291.849 38.8941 291.979 38.9047C292.112 38.9117 292.222 38.9239 292.31 38.9415V40.6924C292.229 40.6643 292.102 40.6398 291.926 40.6188C291.754 40.5942 291.588 40.582 291.427 40.582C291.08 40.582 290.768 40.6573 290.491 40.808C290.217 40.9553 290.002 41.1603 289.844 41.4232C289.686 41.6861 289.607 41.9893 289.607 42.3329V47.0808H287.704ZM295.754 47.2438C295.242 47.2438 294.781 47.1527 294.371 46.9704C293.965 46.7846 293.642 46.5112 293.404 46.1501C293.169 45.7891 293.051 45.3439 293.051 44.8146C293.051 44.3589 293.136 43.9821 293.304 43.6842C293.472 43.3862 293.702 43.1478 293.993 42.9691C294.284 42.7903 294.611 42.6553 294.976 42.5642C295.344 42.4696 295.724 42.4012 296.117 42.3592C296.59 42.3101 296.974 42.2663 297.268 42.2277C297.563 42.1856 297.777 42.1225 297.91 42.0384C298.047 41.9508 298.115 41.8158 298.115 41.6336V41.602C298.115 41.2059 297.997 40.8992 297.763 40.6819C297.528 40.4645 297.189 40.3559 296.748 40.3559C296.282 40.3559 295.912 40.4575 295.638 40.6608C295.368 40.8641 295.186 41.1042 295.092 41.3812L293.314 41.1288C293.455 40.638 293.686 40.2279 294.008 39.8984C294.331 39.5654 294.725 39.3165 295.191 39.1518C295.658 38.9835 296.173 38.8994 296.737 38.8994C297.126 38.8994 297.514 38.945 297.899 39.0361C298.285 39.1272 298.637 39.278 298.956 39.4883C299.275 39.6951 299.531 39.9773 299.724 40.3348C299.92 40.6924 300.018 41.1393 300.018 41.6756V47.0808H298.188V45.9714H298.125C298.01 46.1957 297.847 46.406 297.636 46.6023C297.43 46.7951 297.168 46.9511 296.853 47.0703C296.541 47.186 296.175 47.2438 295.754 47.2438ZM296.248 45.8452C296.63 45.8452 296.962 45.7698 297.242 45.6191C297.522 45.4649 297.738 45.2616 297.889 45.0092C298.043 44.7568 298.12 44.4816 298.12 44.1837V43.232C298.061 43.281 297.959 43.3266 297.815 43.3687C297.675 43.4107 297.517 43.4476 297.342 43.4791C297.167 43.5106 296.993 43.5387 296.821 43.5632C296.65 43.5878 296.501 43.6088 296.374 43.6263C296.091 43.6649 295.836 43.728 295.612 43.8156C295.388 43.9032 295.211 44.0259 295.081 44.1837C294.951 44.3379 294.886 44.5377 294.886 44.7831C294.886 45.1336 295.014 45.3983 295.27 45.577C295.526 45.7558 295.852 45.8452 296.248 45.8452ZM305.965 39.0046V40.4768H301.322V39.0046H305.965ZM302.468 37.0696H304.372V44.6516C304.372 44.9075 304.41 45.1038 304.488 45.2405C304.568 45.3737 304.673 45.4649 304.803 45.5139C304.933 45.563 305.076 45.5875 305.234 45.5875C305.353 45.5875 305.462 45.5788 305.56 45.5613C305.662 45.5437 305.739 45.528 305.792 45.5139L306.112 47.0019C306.011 47.037 305.865 47.0756 305.676 47.1176C305.49 47.1597 305.262 47.1842 304.992 47.1912C304.516 47.2052 304.086 47.1334 303.704 46.9757C303.322 46.8144 303.019 46.5655 302.794 46.229C302.574 45.8925 302.465 45.4719 302.468 44.9671V37.0696ZM307.557 47.0808V39.0046H309.46V47.0808H307.557ZM308.514 37.8583C308.212 37.8583 307.953 37.7584 307.736 37.5586C307.518 37.3553 307.41 37.1117 307.41 36.8278C307.41 36.5403 307.518 36.2967 307.736 36.0969C307.953 35.8936 308.212 35.7919 308.514 35.7919C308.819 35.7919 309.078 35.8936 309.292 36.0969C309.509 36.2967 309.618 36.5403 309.618 36.8278C309.618 37.1117 309.509 37.3553 309.292 37.5586C309.078 37.7584 308.819 37.8583 308.514 37.8583ZM314.94 47.2385C314.152 47.2385 313.468 47.065 312.89 46.718C312.311 46.371 311.863 45.8855 311.544 45.2616C311.228 44.6376 311.071 43.9085 311.071 43.0742C311.071 42.24 311.228 41.5091 311.544 40.8817C311.863 40.2542 312.311 39.767 312.89 39.4199C313.468 39.0729 314.152 38.8994 314.94 38.8994C315.729 38.8994 316.413 39.0729 316.991 39.4199C317.569 39.767 318.016 40.2542 318.332 40.8817C318.651 41.5091 318.81 42.24 318.81 43.0742C318.81 43.9085 318.651 44.6376 318.332 45.2616C318.016 45.8855 317.569 46.371 316.991 46.718C316.413 47.065 315.729 47.2385 314.94 47.2385ZM314.951 45.7137C315.379 45.7137 315.736 45.5963 316.024 45.3615C316.311 45.1231 316.525 44.8041 316.665 44.4045C316.809 44.0049 316.881 43.5597 316.881 43.069C316.881 42.5747 316.809 42.1278 316.665 41.7282C316.525 41.3251 316.311 41.0043 316.024 40.766C315.736 40.5276 315.379 40.4084 314.951 40.4084C314.513 40.4084 314.148 40.5276 313.857 40.766C313.57 41.0043 313.354 41.3251 313.211 41.7282C313.07 42.1278 313 42.5747 313 43.069C313 43.5597 313.07 44.0049 313.211 44.4045C313.354 44.8041 313.57 45.1231 313.857 45.3615C314.148 45.5963 314.513 45.7137 314.951 45.7137ZM322.329 42.3486V47.0808H320.426V39.0046H322.245V40.3769H322.34C322.525 39.9247 322.822 39.5654 323.228 39.299C323.638 39.0326 324.145 38.8994 324.748 38.8994C325.305 38.8994 325.791 39.0186 326.204 39.2569C326.621 39.4953 326.944 39.8406 327.172 40.2928C327.403 40.745 327.517 41.2935 327.514 41.9385V47.0808H325.61V42.233C325.61 41.6931 325.47 41.2708 325.189 40.9658C324.913 40.6608 324.529 40.5083 324.038 40.5083C323.705 40.5083 323.409 40.582 323.149 40.7292C322.894 40.8729 322.692 41.0815 322.545 41.3549C322.401 41.6283 322.329 41.9595 322.329 42.3486ZM331.268 43.9155V43.7788C331.271 43.1443 331.331 42.6396 331.446 42.2645C331.566 41.8894 331.734 41.588 331.951 41.3601C332.169 41.1288 332.433 40.9167 332.745 40.7239C332.959 40.5907 333.15 40.4452 333.318 40.2875C333.49 40.1263 333.625 39.9475 333.723 39.7512C333.821 39.5514 333.87 39.3288 333.87 39.0834C333.87 38.8065 333.806 38.5664 333.676 38.3631C333.546 38.1598 333.371 38.002 333.15 37.8899C332.933 37.7777 332.689 37.7216 332.419 37.7216C332.17 37.7216 331.934 37.776 331.709 37.8846C331.489 37.9898 331.305 38.151 331.157 38.3683C331.014 38.5822 330.933 38.8538 330.915 39.1833H329.044C329.061 38.5173 329.222 37.96 329.527 37.5113C329.836 37.0626 330.242 36.7261 330.747 36.5018C331.255 36.2774 331.816 36.1653 332.43 36.1653C333.099 36.1653 333.688 36.2827 334.196 36.5175C334.708 36.7524 335.106 37.0872 335.39 37.5218C335.677 37.953 335.821 38.4647 335.821 39.0571C335.821 39.4567 335.756 39.8143 335.627 40.1298C335.5 40.4452 335.32 40.7257 335.085 40.971C334.85 41.2164 334.571 41.4355 334.249 41.6283C333.965 41.8036 333.732 41.9858 333.55 42.1751C333.371 42.3644 333.238 42.587 333.15 42.8429C333.066 43.0953 333.022 43.4072 333.019 43.7788V43.9155H331.268ZM332.183 47.1965C331.867 47.1965 331.595 47.0843 331.368 46.86C331.14 46.6356 331.026 46.3622 331.026 46.0397C331.026 45.7243 331.14 45.4543 331.368 45.23C331.595 45.0057 331.867 44.8935 332.183 44.8935C332.495 44.8935 332.764 45.0057 332.992 45.23C333.224 45.4543 333.339 45.7243 333.339 46.0397C333.339 46.2536 333.285 46.4481 333.176 46.6234C333.071 46.7986 332.931 46.9388 332.756 47.044C332.584 47.1457 332.393 47.1965 332.183 47.1965Z" fill="#1B1139"/>
<rect opacity="0.8" x="46.0708" y="39.0725" width="14.8065" height="2.46774" rx="1.23387" fill="#1B1139"/>
<rect opacity="0.8" x="54.7085" y="32.9033" width="14.8065" height="2.46774" rx="1.23387" transform="rotate(90 54.7085 32.9033)" fill="#1B1139"/>
<defs>
<filter id="filter0_d_160_733" x="4.673e-05" y="0" width="488.626" height="117.27" filterUnits="userSpaceOnUse" color-interpolation-filters="sRGB">
<feFlood flood-opacity="0" result="BackgroundImageFix"/>
<feColorMatrix in="SourceAlpha" type="matrix" values="0 0 0 0 0 0 0 0 0 0 0 0 0 0 0 0 0 0 127 0" result="hardAlpha"/>
<feMorphology radius="12.1197" operator="erode" in="SourceAlpha" result="effect1_dropShadow_160_733"/>
<feOffset dy="20.1995"/>
<feGaussianBlur stdDeviation="13.4663"/>
<feColorMatrix type="matrix" values="0 0 0 0 0.583333 0 0 0 0 0.583333 0 0 0 0 0.583333 0 0 0 0.25 0"/>
<feBlend mode="normal" in2="BackgroundImageFix" result="effect1_dropShadow_160_733"/>
<feBlend mode="normal" in="SourceGraphic" in2="effect1_dropShadow_160_733" result="shape"/>
</filter>
</defs>
</svg>
