<svg width="387" height="19" viewBox="0 0 387 19" fill="none" xmlns="http://www.w3.org/2000/svg">
<path opacity="0.88" d="M27.3854 15V4.23167H29.3361V8.79033H34.3259V4.23167H36.2818V15H34.3259V10.4256H29.3361V15H27.3854ZM41.8421 15.1577C41.0535 15.1577 40.3699 14.9842 39.7915 14.6372C39.2132 14.2902 38.7645 13.8047 38.4455 13.1807C38.13 12.5568 37.9723 11.8277 37.9723 10.9934C37.9723 10.1592 38.13 9.4283 38.4455 8.80085C38.7645 8.1734 39.2132 7.68616 39.7915 7.33913C40.3699 6.99211 41.0535 6.81859 41.8421 6.81859C42.6308 6.81859 43.3144 6.99211 43.8928 7.33913C44.4711 7.68616 44.9181 8.1734 45.2335 8.80085C45.5525 9.4283 45.712 10.1592 45.712 10.9934C45.712 11.8277 45.5525 12.5568 45.2335 13.1807C44.9181 13.8047 44.4711 14.2902 43.8928 14.6372C43.3144 14.9842 42.6308 15.1577 41.8421 15.1577ZM41.8527 13.6329C42.2803 13.6329 42.6379 13.5155 42.9253 13.2806C43.2127 13.0423 43.4266 12.7233 43.5668 12.3237C43.7105 11.9241 43.7823 11.4789 43.7823 10.9882C43.7823 10.4939 43.7105 10.047 43.5668 9.64738C43.4266 9.24427 43.2127 8.92354 42.9253 8.68517C42.6379 8.44681 42.2803 8.32763 41.8527 8.32763C41.4145 8.32763 41.0499 8.44681 40.759 8.68517C40.4716 8.92354 40.256 9.24427 40.1123 9.64738C39.9721 10.047 39.902 10.4939 39.902 10.9882C39.902 11.4789 39.9721 11.9241 40.1123 12.3237C40.256 12.7233 40.4716 13.0423 40.759 13.2806C41.0499 13.5155 41.4145 13.6329 41.8527 13.6329ZM48.763 15L46.481 6.92375H48.4212L49.8408 12.6024H49.9145L51.3657 6.92375H53.2848L54.736 12.5708H54.8149L56.2135 6.92375H58.159L55.8717 15H53.8895L52.3752 9.54222H52.2648L50.7505 15H48.763ZM66.1576 15.142C65.5232 15.142 64.9553 14.979 64.4541 14.653C63.9528 14.327 63.5567 13.8538 63.2658 13.2333C62.9748 12.6129 62.8293 11.8592 62.8293 10.9724C62.8293 10.075 62.9766 9.31788 63.271 8.70095C63.569 8.08051 63.9703 7.61255 64.4751 7.29707C64.9799 6.97809 65.5425 6.81859 66.1629 6.81859C66.6361 6.81859 67.0252 6.89922 67.3302 7.06046C67.6351 7.2182 67.877 7.40924 68.0558 7.63358C68.2345 7.85441 68.373 8.06298 68.4712 8.25928H68.55V4.23167H70.4587V15H68.5868V13.7276H68.4712C68.373 13.9239 68.231 14.1324 68.0453 14.3533C67.8595 14.5706 67.6141 14.7564 67.3091 14.9106C67.0042 15.0648 66.6203 15.142 66.1576 15.142ZM66.6887 13.5803C67.0918 13.5803 67.4353 13.4717 67.7193 13.2544C68.0032 13.0335 68.2188 12.7268 68.366 12.3342C68.5132 11.9416 68.5868 11.4842 68.5868 10.9619C68.5868 10.4396 68.5132 9.98565 68.366 9.60006C68.2223 9.21448 68.0085 8.91477 67.7245 8.70095C67.4441 8.48712 67.0988 8.38021 66.6887 8.38021C66.2646 8.38021 65.9105 8.49063 65.6266 8.71146C65.3427 8.9323 65.1288 9.23726 64.9851 9.62635C64.8414 10.0154 64.7695 10.4606 64.7695 10.9619C64.7695 11.4666 64.8414 11.9171 64.9851 12.3132C65.1323 12.7058 65.3479 13.016 65.6318 13.2438C65.9193 13.4682 66.2716 13.5803 66.6887 13.5803ZM76.0098 15.1577C75.2211 15.1577 74.5375 14.9842 73.9592 14.6372C73.3808 14.2902 72.9321 13.8047 72.6131 13.1807C72.2976 12.5568 72.1399 11.8277 72.1399 10.9934C72.1399 10.1592 72.2976 9.4283 72.6131 8.80085C72.9321 8.1734 73.3808 7.68616 73.9592 7.33913C74.5375 6.99211 75.2211 6.81859 76.0098 6.81859C76.7985 6.81859 77.482 6.99211 78.0604 7.33913C78.6388 7.68616 79.0857 8.1734 79.4012 8.80085C79.7202 9.4283 79.8796 10.1592 79.8796 10.9934C79.8796 11.8277 79.7202 12.5568 79.4012 13.1807C79.0857 13.8047 78.6388 14.2902 78.0604 14.6372C77.482 14.9842 76.7985 15.1577 76.0098 15.1577ZM76.0203 13.6329C76.4479 13.6329 76.8055 13.5155 77.0929 13.2806C77.3804 13.0423 77.5942 12.7233 77.7344 12.3237C77.8781 11.9241 77.95 11.4789 77.95 10.9882C77.95 10.4939 77.8781 10.047 77.7344 9.64738C77.5942 9.24427 77.3804 8.92354 77.0929 8.68517C76.8055 8.44681 76.4479 8.32763 76.0203 8.32763C75.5821 8.32763 75.2176 8.44681 74.9266 8.68517C74.6392 8.92354 74.4236 9.24427 74.2799 9.64738C74.1397 10.047 74.0696 10.4939 74.0696 10.9882C74.0696 11.4789 74.1397 11.9241 74.2799 12.3237C74.4236 12.7233 74.6392 13.0423 74.9266 13.2806C75.2176 13.5155 75.5821 13.6329 76.0203 13.6329ZM87.2027 4.23167V15H85.252V4.23167H87.2027ZM94.6388 12.4657L94.6335 10.1679H94.9385L97.8409 6.92375H100.065L96.4948 10.8988H96.1005L94.6388 12.4657ZM92.9036 15V4.23167H94.807V15H92.9036ZM97.9723 15L95.3433 11.3247L96.6263 9.98389L100.249 15H97.9723ZM103.237 10.2678V15H101.333V6.92375H103.153V8.29608H103.247C103.433 7.8439 103.729 7.4846 104.136 7.2182C104.546 6.9518 105.053 6.81859 105.656 6.81859C106.213 6.81859 106.698 6.93777 107.112 7.17614C107.529 7.4145 107.852 7.75977 108.079 8.21196C108.311 8.66414 108.425 9.21272 108.421 9.8577V15H106.518V10.1521C106.518 9.61233 106.378 9.18994 106.097 8.88498C105.82 8.58001 105.436 8.42753 104.946 8.42753C104.613 8.42753 104.317 8.50115 104.057 8.64837C103.801 8.79209 103.6 9.00065 103.452 9.27407C103.309 9.54748 103.237 9.87873 103.237 10.2678ZM113.879 15.1577C113.09 15.1577 112.407 14.9842 111.828 14.6372C111.25 14.2902 110.801 13.8047 110.482 13.1807C110.167 12.5568 110.009 11.8277 110.009 10.9934C110.009 10.1592 110.167 9.4283 110.482 8.80085C110.801 8.1734 111.25 7.68616 111.828 7.33913C112.407 6.99211 113.09 6.81859 113.879 6.81859C114.668 6.81859 115.351 6.99211 115.93 7.33913C116.508 7.68616 116.955 8.1734 117.27 8.80085C117.589 9.4283 117.749 10.1592 117.749 10.9934C117.749 11.8277 117.589 12.5568 117.27 13.1807C116.955 13.8047 116.508 14.2902 115.93 14.6372C115.351 14.9842 114.668 15.1577 113.879 15.1577ZM113.89 13.6329C114.317 13.6329 114.675 13.5155 114.962 13.2806C115.25 13.0423 115.463 12.7233 115.604 12.3237C115.747 11.9241 115.819 11.4789 115.819 10.9882C115.819 10.4939 115.747 10.047 115.604 9.64738C115.463 9.24427 115.25 8.92354 114.962 8.68517C114.675 8.44681 114.317 8.32763 113.89 8.32763C113.451 8.32763 113.087 8.44681 112.796 8.68517C112.508 8.92354 112.293 9.24427 112.149 9.64738C112.009 10.047 111.939 10.4939 111.939 10.9882C111.939 11.4789 112.009 11.9241 112.149 12.3237C112.293 12.7233 112.508 13.0423 112.796 13.2806C113.087 13.5155 113.451 13.6329 113.89 13.6329ZM120.8 15L118.518 6.92375H120.458L121.878 12.6024H121.951L123.403 6.92375H125.322L126.773 12.5708H126.852L128.25 6.92375H130.196L127.909 15H125.926L124.412 9.54222H124.302L122.787 15H120.8ZM135.197 15V6.92375H137.101V15H135.197ZM136.154 5.77752C135.853 5.77752 135.594 5.67761 135.376 5.47781C135.159 5.2745 135.05 5.03088 135.05 4.74695C135.05 4.45952 135.159 4.2159 135.376 4.01609C135.594 3.81279 135.853 3.71113 136.154 3.71113C136.459 3.71113 136.719 3.81279 136.933 4.01609C137.15 4.2159 137.259 4.45952 137.259 4.74695C137.259 5.03088 137.15 5.2745 136.933 5.47781C136.719 5.67761 136.459 5.77752 136.154 5.77752ZM143.149 6.92375V8.39599H138.375V6.92375H143.149ZM139.568 15V6.16135C139.568 5.61802 139.68 5.16584 139.905 4.80479C140.133 4.44374 140.437 4.17383 140.82 3.99506C141.202 3.81629 141.626 3.72691 142.092 3.72691C142.421 3.72691 142.714 3.7532 142.97 3.80578C143.226 3.85836 143.415 3.90568 143.538 3.94774L143.159 5.41997C143.079 5.39544 142.977 5.3709 142.854 5.34636C142.732 5.31832 142.595 5.3043 142.444 5.3043C142.09 5.3043 141.84 5.39018 141.692 5.56194C141.549 5.73019 141.477 5.97206 141.477 6.28754V15H139.568ZM150.347 4.23167V15H148.396V4.23167H150.347ZM161.437 18.0286V13.7276H161.358C161.26 13.9239 161.118 14.1324 160.933 14.3533C160.747 14.5706 160.501 14.7564 160.196 14.9106C159.892 15.0648 159.508 15.142 159.045 15.142C158.411 15.142 157.843 14.979 157.341 14.653C156.84 14.327 156.444 13.8538 156.153 13.2333C155.862 12.6129 155.717 11.8592 155.717 10.9724C155.717 10.075 155.864 9.31788 156.158 8.70095C156.456 8.08051 156.858 7.61255 157.362 7.29707C157.867 6.97809 158.43 6.81859 159.05 6.81859C159.523 6.81859 159.913 6.89922 160.218 7.06046C160.522 7.2182 160.764 7.40924 160.943 7.63358C161.122 7.85441 161.26 8.06298 161.358 8.25928H161.474V6.92375H163.346V18.0286H161.437ZM159.576 13.5803C159.979 13.5803 160.323 13.4717 160.607 13.2544C160.891 13.0335 161.106 12.7268 161.253 12.3342C161.401 11.9416 161.474 11.4842 161.474 10.9619C161.474 10.4396 161.401 9.98565 161.253 9.60006C161.11 9.21448 160.896 8.91477 160.612 8.70095C160.331 8.48712 159.986 8.38021 159.576 8.38021C159.152 8.38021 158.798 8.49063 158.514 8.71146C158.23 8.9323 158.016 9.23726 157.872 9.62635C157.729 10.0154 157.657 10.4606 157.657 10.9619C157.657 11.4666 157.729 11.9171 157.872 12.3132C158.02 12.7058 158.235 13.016 158.519 13.2438C158.807 13.4682 159.159 13.5803 159.576 13.5803ZM170.45 11.6033V6.92375H172.353V15H170.507V13.5646H170.423C170.241 14.0168 169.941 14.3866 169.524 14.674C169.111 14.9614 168.6 15.1052 167.994 15.1052C167.465 15.1052 166.997 14.9877 166.59 14.7529C166.187 14.5145 165.872 14.1692 165.644 13.7171C165.416 13.2614 165.302 12.711 165.302 12.0661V6.92375H167.205V11.7716C167.205 12.2834 167.346 12.69 167.626 12.9915C167.906 13.2929 168.274 13.4436 168.73 13.4436C169.011 13.4436 169.282 13.3753 169.545 13.2386C169.808 13.1019 170.024 12.8986 170.192 12.6287C170.364 12.3552 170.45 12.0135 170.45 11.6033ZM176.634 15.163C176.122 15.163 175.662 15.0719 175.251 14.8896C174.845 14.7038 174.522 14.4304 174.284 14.0693C174.049 13.7083 173.932 13.2631 173.932 12.7338C173.932 12.2781 174.016 11.9013 174.184 11.6033C174.352 11.3054 174.582 11.067 174.873 10.8883C175.164 10.7095 175.492 10.5745 175.856 10.4834C176.224 10.3888 176.604 10.3204 176.997 10.2783C177.47 10.2293 177.854 10.1854 178.149 10.1469C178.443 10.1048 178.657 10.0417 178.79 9.9576C178.927 9.86997 178.995 9.73502 178.995 9.55274V9.52119C178.995 9.12509 178.878 8.81838 178.643 8.60105C178.408 8.38372 178.07 8.27505 177.628 8.27505C177.162 8.27505 176.792 8.37671 176.519 8.58002C176.249 8.78332 176.066 9.02344 175.972 9.30036L174.195 9.04797C174.335 8.55723 174.566 8.14711 174.889 7.81761C175.211 7.4846 175.605 7.23573 176.072 7.07098C176.538 6.90272 177.053 6.81859 177.617 6.81859C178.007 6.81859 178.394 6.86416 178.779 6.9553C179.165 7.04644 179.517 7.19717 179.836 7.40749C180.155 7.6143 180.411 7.89648 180.604 8.25402C180.8 8.61156 180.898 9.05849 180.898 9.5948V15H179.069V13.8906H179.006C178.89 14.1149 178.727 14.3252 178.517 14.5215C178.31 14.7143 178.049 14.8703 177.733 14.9895C177.421 15.1052 177.055 15.163 176.634 15.163ZM177.128 13.7644C177.511 13.7644 177.842 13.689 178.122 13.5383C178.403 13.384 178.618 13.1807 178.769 12.9284C178.923 12.676 179 12.4008 179 12.1029V11.1512C178.941 11.2002 178.839 11.2458 178.695 11.2879C178.555 11.3299 178.397 11.3667 178.222 11.3983C178.047 11.4298 177.873 11.4579 177.702 11.4824C177.53 11.507 177.381 11.528 177.255 11.5455C176.971 11.5841 176.717 11.6472 176.492 11.7348C176.268 11.8224 176.091 11.9451 175.961 12.1029C175.832 12.2571 175.767 12.4569 175.767 12.7023C175.767 13.0528 175.895 13.3174 176.151 13.4962C176.406 13.675 176.732 13.7644 177.128 13.7644ZM184.716 4.23167V15H182.812V4.23167H184.716ZM186.673 15V6.92375H188.576V15H186.673ZM187.63 5.77752C187.329 5.77752 187.069 5.67761 186.852 5.47781C186.634 5.2745 186.526 5.03088 186.526 4.74695C186.526 4.45952 186.634 4.2159 186.852 4.01609C187.069 3.81279 187.329 3.71113 187.63 3.71113C187.935 3.71113 188.194 3.81279 188.408 4.01609C188.625 4.2159 188.734 4.45952 188.734 4.74695C188.734 5.03088 188.625 5.2745 188.408 5.47781C188.194 5.67761 187.935 5.77752 187.63 5.77752ZM194.624 6.92375V8.39599H189.85V6.92375H194.624ZM191.044 15V6.16135C191.044 5.61802 191.156 5.16584 191.38 4.80479C191.608 4.44374 191.913 4.17383 192.295 3.99506C192.677 3.81629 193.101 3.72691 193.568 3.72691C193.897 3.72691 194.19 3.7532 194.446 3.80578C194.701 3.85836 194.891 3.90568 195.013 3.94774L194.635 5.41997C194.554 5.39544 194.453 5.3709 194.33 5.34636C194.207 5.31832 194.071 5.3043 193.92 5.3043C193.566 5.3043 193.315 5.39018 193.168 5.56194C193.024 5.73019 192.952 5.97206 192.952 6.28754V15H191.044ZM197.298 18.0286C197.039 18.0286 196.799 18.0076 196.578 17.9655C196.36 17.9269 196.187 17.8814 196.057 17.8288L196.499 16.346C196.776 16.4267 197.023 16.4652 197.24 16.4617C197.458 16.4582 197.649 16.3899 197.813 16.2567C197.982 16.127 198.124 15.9096 198.239 15.6047L198.402 15.1683L195.474 6.92375H197.493L199.354 13.023H199.438L201.305 6.92375H203.329L200.095 15.978C199.945 16.4056 199.745 16.7719 199.496 17.0769C199.247 17.3854 198.942 17.6202 198.581 17.7815C198.223 17.9462 197.796 18.0286 197.298 18.0286ZM212.409 6.92375V8.39599H207.635V6.92375H212.409ZM208.829 15V6.16135C208.829 5.61802 208.941 5.16584 209.165 4.80479C209.393 4.44374 209.698 4.17383 210.08 3.99506C210.462 3.81629 210.886 3.72691 211.353 3.72691C211.682 3.72691 211.975 3.7532 212.231 3.80578C212.487 3.85836 212.676 3.90568 212.799 3.94774L212.42 5.41997C212.339 5.39544 212.238 5.3709 212.115 5.34636C211.992 5.31832 211.856 5.3043 211.705 5.3043C211.351 5.3043 211.1 5.39018 210.953 5.56194C210.809 5.73019 210.737 5.97206 210.737 6.28754V15H208.829ZM217.119 15.1577C216.331 15.1577 215.647 14.9842 215.069 14.6372C214.49 14.2902 214.042 13.8047 213.723 13.1807C213.407 12.5568 213.249 11.8277 213.249 10.9934C213.249 10.1592 213.407 9.4283 213.723 8.80085C214.042 8.1734 214.49 7.68616 215.069 7.33913C215.647 6.99211 216.331 6.81859 217.119 6.81859C217.908 6.81859 218.592 6.99211 219.17 7.33913C219.748 7.68616 220.195 8.1734 220.511 8.80085C220.83 9.4283 220.989 10.1592 220.989 10.9934C220.989 11.8277 220.83 12.5568 220.511 13.1807C220.195 13.8047 219.748 14.2902 219.17 14.6372C218.592 14.9842 217.908 15.1577 217.119 15.1577ZM217.13 13.6329C217.557 13.6329 217.915 13.5155 218.202 13.2806C218.49 13.0423 218.704 12.7233 218.844 12.3237C218.988 11.9241 219.06 11.4789 219.06 10.9882C219.06 10.4939 218.988 10.047 218.844 9.64738C218.704 9.24427 218.49 8.92354 218.202 8.68517C217.915 8.44681 217.557 8.32763 217.13 8.32763C216.692 8.32763 216.327 8.44681 216.036 8.68517C215.749 8.92354 215.533 9.24427 215.389 9.64738C215.249 10.047 215.179 10.4939 215.179 10.9882C215.179 11.4789 215.249 11.9241 215.389 12.3237C215.533 12.7233 215.749 13.0423 216.036 13.2806C216.327 13.5155 216.692 13.6329 217.13 13.6329ZM222.605 15V6.92375H224.45V8.26979H224.534C224.682 7.80359 224.934 7.44429 225.292 7.19191C225.653 6.93602 226.064 6.80808 226.527 6.80808C226.632 6.80808 226.75 6.81334 226.879 6.82385C227.013 6.83086 227.123 6.84313 227.211 6.86066V8.61156C227.13 8.58352 227.002 8.55898 226.827 8.53795C226.655 8.51341 226.489 8.50115 226.327 8.50115C225.98 8.50115 225.668 8.57651 225.391 8.72724C225.118 8.87446 224.902 9.07952 224.745 9.34242C224.587 9.60532 224.508 9.90853 224.508 10.2521V15H222.605ZM236.181 6.92375V8.39599H231.538V6.92375H236.181ZM232.684 4.98882H234.588V12.5708C234.588 12.8267 234.626 13.023 234.703 13.1597C234.784 13.2929 234.889 13.384 235.019 13.4331C235.148 13.4822 235.292 13.5067 235.45 13.5067C235.569 13.5067 235.678 13.498 235.776 13.4804C235.878 13.4629 235.955 13.4471 236.007 13.4331L236.328 14.9211C236.226 14.9562 236.081 14.9947 235.892 15.0368C235.706 15.0789 235.478 15.1034 235.208 15.1104C234.731 15.1244 234.302 15.0526 233.92 14.8948C233.538 14.7336 233.235 14.4847 233.01 14.1482C232.789 13.8117 232.681 13.3911 232.684 12.8863V4.98882ZM239.85 10.2678V15H237.946V4.23167H239.807V8.29608H239.902C240.091 7.84039 240.384 7.4811 240.78 7.2182C241.18 6.9518 241.688 6.81859 242.305 6.81859C242.866 6.81859 243.355 6.93602 243.772 7.17088C244.189 7.40573 244.512 7.74925 244.739 8.20144C244.971 8.65363 245.086 9.20571 245.086 9.8577V15H243.183V10.1521C243.183 9.60882 243.043 9.18643 242.762 8.88498C242.486 8.58001 242.096 8.42753 241.595 8.42753C241.259 8.42753 240.957 8.50115 240.691 8.64837C240.428 8.79209 240.221 9.00065 240.07 9.27407C239.923 9.54748 239.85 9.87873 239.85 10.2678ZM250.602 15.1577C249.792 15.1577 249.093 14.9895 248.504 14.653C247.919 14.313 247.468 13.8327 247.153 13.2123C246.837 12.5883 246.68 11.854 246.68 11.0092C246.68 10.1784 246.837 9.44933 247.153 8.82188C247.472 8.19092 247.917 7.70018 248.488 7.34965C249.06 6.99561 249.731 6.81859 250.502 6.81859C251 6.81859 251.47 6.89922 251.911 7.06046C252.356 7.2182 252.749 7.46357 253.089 7.79658C253.433 8.12958 253.703 8.55372 253.899 9.06901C254.095 9.58078 254.193 10.1907 254.193 10.8988V11.4824H247.573V10.1995H252.369C252.365 9.83492 252.286 9.51068 252.132 9.22675C251.978 8.93931 251.762 8.71322 251.485 8.54847C251.212 8.38372 250.893 8.30134 250.528 8.30134C250.139 8.30134 249.798 8.39599 249.503 8.58527C249.209 8.77105 248.979 9.01643 248.814 9.32139C248.653 9.62285 248.571 9.9541 248.567 10.3151V11.4351C248.567 11.9048 248.653 12.3079 248.825 12.6444C248.997 12.9774 249.237 13.2333 249.545 13.4121C249.854 13.5874 250.215 13.675 250.628 13.675C250.905 13.675 251.156 13.6364 251.38 13.5593C251.605 13.4787 251.799 13.3613 251.964 13.207C252.129 13.0528 252.253 12.8618 252.337 12.6339L254.114 12.8337C254.002 13.3034 253.788 13.7135 253.473 14.0641C253.161 14.4111 252.761 14.681 252.274 14.8738C251.787 15.0631 251.23 15.1577 250.602 15.1577ZM265.412 7.19191C265.363 6.73271 265.157 6.37517 264.792 6.11928C264.431 5.8634 263.961 5.73545 263.383 5.73545C262.976 5.73545 262.628 5.79679 262.337 5.91948C262.046 6.04217 261.823 6.20867 261.669 6.41899C261.515 6.62931 261.436 6.86942 261.432 7.13933C261.432 7.36367 261.483 7.55822 261.585 7.72297C261.69 7.88772 261.832 8.02793 262.011 8.1436C262.189 8.25577 262.387 8.35042 262.605 8.42753C262.822 8.50465 263.041 8.5695 263.262 8.62208L264.271 8.87446C264.678 8.9691 265.069 9.09705 265.444 9.25829C265.823 9.41954 266.161 9.62285 266.459 9.86822C266.76 10.1136 266.999 10.4098 267.174 10.7568C267.349 11.1038 267.437 11.5105 267.437 11.9767C267.437 12.6076 267.276 13.1632 266.953 13.6434C266.631 14.1202 266.164 14.4935 265.554 14.7634C264.948 15.0298 264.214 15.163 263.351 15.163C262.514 15.163 261.786 15.0333 261.169 14.7739C260.556 14.5145 260.076 14.1359 259.729 13.6382C259.385 13.1404 259.199 12.534 259.171 11.8189H261.09C261.118 12.194 261.234 12.506 261.437 12.7548C261.641 13.0037 261.905 13.1895 262.231 13.3122C262.561 13.4349 262.929 13.4962 263.336 13.4962C263.76 13.4962 264.131 13.4331 264.45 13.3069C264.773 13.1772 265.025 12.9985 265.207 12.7706C265.39 12.5393 265.483 12.2694 265.486 11.9609C265.483 11.6805 265.4 11.4491 265.239 11.2668C265.078 11.0811 264.852 10.9268 264.561 10.8041C264.273 10.6779 263.937 10.5658 263.551 10.4676L262.326 10.1521C261.439 9.9243 260.738 9.57903 260.223 9.11633C259.711 8.65012 259.455 8.03143 259.455 7.26026C259.455 6.6258 259.627 6.07021 259.97 5.59349C260.318 5.11676 260.789 4.74695 261.385 4.48405C261.981 4.21765 262.656 4.08445 263.409 4.08445C264.173 4.08445 264.843 4.21765 265.418 4.48405C265.996 4.74695 266.45 5.11326 266.78 5.58297C267.109 6.04918 267.279 6.58549 267.29 7.19191H265.412ZM273.125 6.92375V8.39599H268.482V6.92375H273.125ZM269.628 4.98882H271.531V12.5708C271.531 12.8267 271.57 13.023 271.647 13.1597C271.728 13.2929 271.833 13.384 271.963 13.4331C272.092 13.4822 272.236 13.5067 272.394 13.5067C272.513 13.5067 272.622 13.498 272.72 13.4804C272.821 13.4629 272.899 13.4471 272.951 13.4331L273.272 14.9211C273.17 14.9562 273.025 14.9947 272.835 15.0368C272.65 15.0789 272.422 15.1034 272.152 15.1104C271.675 15.1244 271.246 15.0526 270.864 14.8948C270.482 14.7336 270.178 14.4847 269.954 14.1482C269.733 13.8117 269.625 13.3911 269.628 12.8863V4.98882ZM277.04 15.163C276.529 15.163 276.068 15.0719 275.658 14.8896C275.251 14.7038 274.929 14.4304 274.69 14.0693C274.455 13.7083 274.338 13.2631 274.338 12.7338C274.338 12.2781 274.422 11.9013 274.59 11.6033C274.759 11.3054 274.988 11.067 275.279 10.8883C275.57 10.7095 275.898 10.5745 276.262 10.4834C276.63 10.3888 277.011 10.3204 277.403 10.2783C277.877 10.2293 278.26 10.1854 278.555 10.1469C278.849 10.1048 279.063 10.0417 279.196 9.9576C279.333 9.86997 279.401 9.73502 279.401 9.55274V9.52119C279.401 9.12509 279.284 8.81838 279.049 8.60105C278.814 8.38372 278.476 8.27505 278.034 8.27505C277.568 8.27505 277.198 8.37671 276.925 8.58002C276.655 8.78332 276.473 9.02344 276.378 9.30036L274.601 9.04797C274.741 8.55723 274.972 8.14711 275.295 7.81761C275.617 7.4846 276.012 7.23573 276.478 7.07098C276.944 6.90272 277.459 6.81859 278.024 6.81859C278.413 6.81859 278.8 6.86416 279.186 6.9553C279.571 7.04644 279.924 7.19717 280.243 7.40749C280.562 7.6143 280.817 7.89648 281.01 8.25402C281.207 8.61156 281.305 9.05849 281.305 9.5948V15H279.475V13.8906H279.412C279.296 14.1149 279.133 14.3252 278.923 14.5215C278.716 14.7143 278.455 14.8703 278.139 14.9895C277.827 15.1052 277.461 15.163 277.04 15.163ZM277.535 13.7644C277.917 13.7644 278.248 13.689 278.528 13.5383C278.809 13.384 279.024 13.1807 279.175 12.9284C279.329 12.676 279.407 12.4008 279.407 12.1029V11.1512C279.347 11.2002 279.245 11.2458 279.102 11.2879C278.961 11.3299 278.804 11.3667 278.628 11.3983C278.453 11.4298 278.28 11.4579 278.108 11.4824C277.936 11.507 277.787 11.528 277.661 11.5455C277.377 11.5841 277.123 11.6472 276.899 11.7348C276.674 11.8224 276.497 11.9451 276.367 12.1029C276.238 12.2571 276.173 12.4569 276.173 12.7023C276.173 13.0528 276.301 13.3174 276.557 13.4962C276.813 13.675 277.139 13.7644 277.535 13.7644ZM283.219 15V6.92375H285.064V8.26979H285.148C285.295 7.80359 285.548 7.44429 285.905 7.19191C286.266 6.93602 286.678 6.80808 287.141 6.80808C287.246 6.80808 287.364 6.81334 287.493 6.82385C287.627 6.83086 287.737 6.84313 287.825 6.86066V8.61156C287.744 8.58352 287.616 8.55898 287.441 8.53795C287.269 8.51341 287.102 8.50115 286.941 8.50115C286.594 8.50115 286.282 8.57651 286.005 8.72724C285.732 8.87446 285.516 9.07952 285.359 9.34242C285.201 9.60532 285.122 9.90853 285.122 10.2521V15H283.219ZM293.556 6.92375V8.39599H288.913V6.92375H293.556ZM290.059 4.98882H291.963V12.5708C291.963 12.8267 292.001 13.023 292.078 13.1597C292.159 13.2929 292.264 13.384 292.394 13.4331C292.523 13.4822 292.667 13.5067 292.825 13.5067C292.944 13.5067 293.053 13.498 293.151 13.4804C293.253 13.4629 293.33 13.4471 293.382 13.4331L293.703 14.9211C293.601 14.9562 293.456 14.9947 293.267 15.0368C293.081 15.0789 292.853 15.1034 292.583 15.1104C292.106 15.1244 291.677 15.0526 291.295 14.8948C290.913 14.7336 290.61 14.4847 290.385 14.1482C290.164 13.8117 290.056 13.3911 290.059 12.8863V4.98882ZM299.783 9.73151V11.2984H294.935V9.73151H299.783ZM308.657 4.23167H310.607V11.2668C310.607 12.038 310.425 12.7163 310.061 13.3017C309.7 13.8871 309.191 14.3445 308.536 14.674C307.88 15 307.114 15.163 306.238 15.163C305.358 15.163 304.591 15 303.935 14.674C303.28 14.3445 302.771 13.8871 302.41 13.3017C302.049 12.7163 301.869 12.038 301.869 11.2668V4.23167H303.819V11.1038C303.819 11.5525 303.917 11.9521 304.114 12.3027C304.314 12.6532 304.594 12.9284 304.955 13.1282C305.316 13.3245 305.744 13.4226 306.238 13.4226C306.732 13.4226 307.16 13.3245 307.521 13.1282C307.886 12.9284 308.166 12.6532 308.362 12.3027C308.559 11.9521 308.657 11.5525 308.657 11.1038V4.23167ZM312.644 18.0286V6.92375H314.515V8.25928H314.626C314.724 8.06298 314.862 7.85441 315.041 7.63358C315.22 7.40924 315.462 7.2182 315.767 7.06046C316.072 6.89922 316.461 6.81859 316.934 6.81859C317.558 6.81859 318.121 6.97809 318.622 7.29707C319.127 7.61255 319.526 8.08051 319.821 8.70095C320.119 9.31788 320.268 10.075 320.268 10.9724C320.268 11.8592 320.122 12.6129 319.831 13.2333C319.54 13.8538 319.144 14.327 318.643 14.653C318.142 14.979 317.574 15.142 316.939 15.142C316.477 15.142 316.093 15.0648 315.788 14.9106C315.483 14.7564 315.237 14.5706 315.052 14.3533C314.869 14.1324 314.727 13.9239 314.626 13.7276H314.547V18.0286H312.644ZM314.51 10.9619C314.51 11.4842 314.584 11.9416 314.731 12.3342C314.882 12.7268 315.097 13.0335 315.378 13.2544C315.662 13.4717 316.005 13.5803 316.408 13.5803C316.829 13.5803 317.181 13.4682 317.465 13.2438C317.749 13.016 317.963 12.7058 318.107 12.3132C318.254 11.9171 318.327 11.4666 318.327 10.9619C318.327 10.4606 318.256 10.0154 318.112 9.62635C317.968 9.23726 317.754 8.9323 317.47 8.71146C317.186 8.49063 316.832 8.38021 316.408 8.38021C316.002 8.38021 315.656 8.48712 315.372 8.70095C315.088 8.91477 314.873 9.21448 314.726 9.60006C314.582 9.98565 314.51 10.4396 314.51 10.9619ZM327.095 4.23167L329.898 12.7075H330.008L332.805 4.23167H334.95L331.154 15H328.746L324.955 4.23167H327.095ZM336.285 15V6.92375H338.188V15H336.285ZM337.242 5.77752C336.94 5.77752 336.681 5.67761 336.463 5.47781C336.246 5.2745 336.137 5.03088 336.137 4.74695C336.137 4.45952 336.246 4.2159 336.463 4.01609C336.681 3.81279 336.94 3.71113 337.242 3.71113C337.547 3.71113 337.806 3.81279 338.02 4.01609C338.237 4.2159 338.346 4.45952 338.346 4.74695C338.346 5.03088 338.237 5.2745 338.02 5.47781C337.806 5.67761 337.547 5.77752 337.242 5.77752ZM346.529 9.05849L344.793 9.24778C344.744 9.07251 344.658 8.90776 344.536 8.75353C344.417 8.59929 344.255 8.47486 344.052 8.38021C343.849 8.28557 343.6 8.23825 343.305 8.23825C342.909 8.23825 342.576 8.32413 342.306 8.49589C342.04 8.66765 341.909 8.89024 341.912 9.16365C341.909 9.39851 341.994 9.58955 342.17 9.73677C342.348 9.88399 342.643 10.0049 343.053 10.0996L344.431 10.394C345.195 10.5588 345.763 10.8199 346.134 11.1775C346.509 11.535 346.699 12.003 346.702 12.5813C346.699 13.0896 346.55 13.5383 346.255 13.9274C345.964 14.313 345.559 14.6144 345.041 14.8317C344.522 15.0491 343.926 15.1577 343.253 15.1577C342.264 15.1577 341.469 14.9509 340.866 14.5373C340.263 14.1202 339.904 13.54 339.788 12.7969L341.644 12.6181C341.728 12.9827 341.907 13.2579 342.18 13.4436C342.454 13.6294 342.809 13.7223 343.248 13.7223C343.7 13.7223 344.063 13.6294 344.336 13.4436C344.613 13.2579 344.751 13.0283 344.751 12.7548C344.751 12.5235 344.662 12.3325 344.483 12.1817C344.308 12.031 344.035 11.9153 343.663 11.8347L342.285 11.5455C341.511 11.3843 340.938 11.1126 340.566 10.7305C340.194 10.3449 340.01 9.8577 340.014 9.26881C340.01 8.77105 340.145 8.3399 340.419 7.97535C340.696 7.60729 341.08 7.32336 341.57 7.12356C342.065 6.92025 342.634 6.81859 343.279 6.81859C344.226 6.81859 344.97 7.02015 345.514 7.42326C346.061 7.82637 346.399 8.37145 346.529 9.05849ZM350.596 15.163C350.084 15.163 349.623 15.0719 349.213 14.8896C348.806 14.7038 348.484 14.4304 348.245 14.0693C348.01 13.7083 347.893 13.2631 347.893 12.7338C347.893 12.2781 347.977 11.9013 348.145 11.6033C348.314 11.3054 348.543 11.067 348.834 10.8883C349.125 10.7095 349.453 10.5745 349.817 10.4834C350.185 10.3888 350.566 10.3204 350.958 10.2783C351.432 10.2293 351.815 10.1854 352.11 10.1469C352.404 10.1048 352.618 10.0417 352.751 9.9576C352.888 9.86997 352.956 9.73502 352.956 9.55274V9.52119C352.956 9.12509 352.839 8.81838 352.604 8.60105C352.369 8.38372 352.031 8.27505 351.589 8.27505C351.123 8.27505 350.753 8.37671 350.48 8.58002C350.21 8.78332 350.028 9.02344 349.933 9.30036L348.156 9.04797C348.296 8.55723 348.527 8.14711 348.85 7.81761C349.172 7.4846 349.567 7.23573 350.033 7.07098C350.499 6.90272 351.014 6.81859 351.579 6.81859C351.968 6.81859 352.355 6.86416 352.741 6.9553C353.126 7.04644 353.479 7.19717 353.798 7.40749C354.117 7.6143 354.373 7.89648 354.565 8.25402C354.762 8.61156 354.86 9.05849 354.86 9.5948V15H353.03V13.8906H352.967C352.851 14.1149 352.688 14.3252 352.478 14.5215C352.271 14.7143 352.01 14.8703 351.695 14.9895C351.383 15.1052 351.016 15.163 350.596 15.163ZM351.09 13.7644C351.472 13.7644 351.803 13.689 352.084 13.5383C352.364 13.384 352.58 13.1807 352.73 12.9284C352.885 12.676 352.962 12.4008 352.962 12.1029V11.1512C352.902 11.2002 352.8 11.2458 352.657 11.2879C352.516 11.3299 352.359 11.3667 352.183 11.3983C352.008 11.4298 351.835 11.4579 351.663 11.4824C351.491 11.507 351.342 11.528 351.216 11.5455C350.932 11.5841 350.678 11.6472 350.454 11.7348C350.229 11.8224 350.052 11.9451 349.923 12.1029C349.793 12.2571 349.728 12.4569 349.728 12.7023C349.728 13.0528 349.856 13.3174 350.112 13.4962C350.368 13.675 350.694 13.7644 351.09 13.7644ZM358.593 11.8347V11.698C358.596 11.0635 358.656 10.5588 358.772 10.1837C358.891 9.80863 359.059 9.50717 359.276 9.27933C359.494 9.04797 359.758 8.8359 360.07 8.64311C360.284 8.50991 360.475 8.36444 360.644 8.2067C360.815 8.04545 360.95 7.86668 361.048 7.67039C361.147 7.47058 361.196 7.248 361.196 7.00262C361.196 6.7257 361.131 6.48559 361.001 6.28228C360.871 6.07897 360.696 5.92123 360.475 5.80906C360.258 5.69689 360.014 5.64081 359.744 5.64081C359.496 5.64081 359.259 5.69514 359.035 5.80381C358.814 5.90896 358.63 6.07021 358.483 6.28754C358.339 6.50136 358.258 6.77302 358.241 7.10252H356.369C356.386 6.43651 356.548 5.87917 356.853 5.43049C357.161 4.98181 357.568 4.6453 358.072 4.42096C358.581 4.19662 359.142 4.08445 359.755 4.08445C360.424 4.08445 361.013 4.20188 361.522 4.43673C362.033 4.67159 362.431 5.00635 362.715 5.441C363.003 5.87216 363.146 6.38393 363.146 6.97633C363.146 7.37594 363.082 7.73348 362.952 8.04896C362.826 8.36444 362.645 8.64486 362.41 8.89024C362.175 9.13561 361.897 9.35469 361.574 9.54748C361.29 9.72275 361.057 9.90502 360.875 10.0943C360.696 10.2836 360.563 10.5062 360.475 10.7621C360.391 11.0145 360.347 11.3264 360.344 11.698V11.8347H358.593ZM359.508 15.1157C359.192 15.1157 358.921 15.0035 358.693 14.7792C358.465 14.5548 358.351 14.2814 358.351 13.9589C358.351 13.6434 358.465 13.3735 358.693 13.1492C358.921 12.9249 359.192 12.8127 359.508 12.8127C359.82 12.8127 360.09 12.9249 360.318 13.1492C360.549 13.3735 360.665 13.6434 360.665 13.9589C360.665 14.1727 360.61 14.3673 360.502 14.5426C360.396 14.7178 360.256 14.858 360.081 14.9632C359.909 15.0648 359.718 15.1157 359.508 15.1157Z" fill="#1B1139"/>
<rect opacity="0.8" y="8.63696" width="14.8065" height="2.46774" rx="1.23387" fill="#1B1139"/>
<rect opacity="0.8" x="8.6377" y="2.46777" width="14.8065" height="2.46774" rx="1.23387" transform="rotate(90 8.6377 2.46777)" fill="#1B1139"/>
</svg>
