<svg width="489" height="118" viewBox="0 0 489 118" fill="none" xmlns="http://www.w3.org/2000/svg">
<g filter="url(#filter0_d_160_747)">
<rect x="14.813" width="459" height="82.2581" rx="4.03989" fill="white"/>
</g>
<path opacity="0.88" d="M75.7223 47.0803L72.6832 36.312H74.7812L76.7214 44.2252H76.8213L78.8929 36.312H80.8015L82.8784 44.2305H82.9731L84.9133 36.312H87.0112L83.9721 47.0803H82.0477L79.8919 39.5246H79.8078L77.6468 47.0803H75.7223ZM90.1831 42.3481V47.0803H88.2797V36.312H90.141V40.3764H90.2357C90.4249 39.9207 90.7176 39.5614 91.1137 39.2985C91.5133 39.0321 92.0216 38.8989 92.6386 38.8989C93.1994 38.8989 93.6884 39.0163 94.1055 39.2512C94.5227 39.4861 94.8451 39.8296 95.073 40.2818C95.3043 40.7339 95.42 41.286 95.42 41.938V47.0803H93.5166V42.2325C93.5166 41.6891 93.3764 41.2668 93.096 40.9653C92.8191 40.6603 92.43 40.5079 91.9287 40.5079C91.5922 40.5079 91.2908 40.5815 91.0244 40.7287C90.7615 40.8724 90.5546 41.081 90.4039 41.3544C90.2567 41.6278 90.1831 41.9591 90.1831 42.3481ZM99.6842 47.2433C99.1725 47.2433 98.7115 47.1522 98.3014 46.9699C97.8948 46.7841 97.5723 46.5107 97.3339 46.1497C97.0991 45.7886 96.9816 45.3434 96.9816 44.8141C96.9816 44.3584 97.0658 43.9816 97.234 43.6837C97.4023 43.3857 97.6319 43.1474 97.9228 42.9686C98.2138 42.7898 98.5415 42.6549 98.9061 42.5637C99.2741 42.4691 99.6544 42.4007 100.047 42.3587C100.52 42.3096 100.904 42.2658 101.199 42.2272C101.493 42.1851 101.707 42.1221 101.84 42.0379C101.977 41.9503 102.045 41.8153 102.045 41.6331V41.6015C102.045 41.2054 101.928 40.8987 101.693 40.6814C101.458 40.464 101.12 40.3554 100.678 40.3554C100.212 40.3554 99.842 40.457 99.5686 40.6603C99.2987 40.8636 99.1164 41.1038 99.0217 41.3807L97.2445 41.1283C97.3848 40.6376 97.6161 40.2274 97.9386 39.8979C98.2611 39.5649 98.6554 39.316 99.1216 39.1513C99.5878 38.983 100.103 38.8989 100.667 38.8989C101.057 38.8989 101.444 38.9445 101.829 39.0356C102.215 39.1268 102.567 39.2775 102.886 39.4878C103.205 39.6946 103.461 39.9768 103.654 40.3343C103.85 40.6919 103.948 41.1388 103.948 41.6751V47.0803H102.119V45.9709H102.056C101.94 46.1952 101.777 46.4055 101.567 46.6018C101.36 46.7946 101.099 46.9506 100.783 47.0698C100.471 47.1855 100.105 47.2433 99.6842 47.2433ZM100.178 45.8447C100.561 45.8447 100.892 45.7693 101.172 45.6186C101.453 45.4644 101.668 45.2611 101.819 45.0087C101.973 44.7563 102.05 44.4811 102.05 44.1832V43.2315C101.991 43.2806 101.889 43.3261 101.745 43.3682C101.605 43.4103 101.447 43.4471 101.272 43.4786C101.097 43.5102 100.923 43.5382 100.752 43.5627C100.58 43.5873 100.431 43.6083 100.305 43.6258C100.021 43.6644 99.7666 43.7275 99.5423 43.8151C99.3179 43.9028 99.1409 44.0254 99.0112 44.1832C98.8815 44.3374 98.8167 44.5372 98.8167 44.7826C98.8167 45.1331 98.9446 45.3978 99.2005 45.5765C99.4564 45.7553 99.7824 45.8447 100.178 45.8447ZM109.895 39.0041V40.4763H105.252V39.0041H109.895ZM106.399 37.0691H108.302V44.6511C108.302 44.907 108.341 45.1033 108.418 45.24C108.498 45.3732 108.604 45.4644 108.733 45.5134C108.863 45.5625 109.007 45.5871 109.164 45.5871C109.284 45.5871 109.392 45.5783 109.49 45.5608C109.592 45.5432 109.669 45.5275 109.722 45.5134L110.042 47.0015C109.941 47.0365 109.795 47.0751 109.606 47.1171C109.42 47.1592 109.192 47.1837 108.922 47.1907C108.446 47.2048 108.016 47.1329 107.634 46.9752C107.252 46.8139 106.949 46.565 106.725 46.2285C106.504 45.892 106.395 45.4714 106.399 44.9666V37.0691ZM115.16 47.0803V39.0041H117.063V47.0803H115.16ZM116.117 37.8578C115.815 37.8578 115.556 37.7579 115.339 37.5581C115.121 37.3548 115.013 37.1112 115.013 36.8273C115.013 36.5398 115.121 36.2962 115.339 36.0964C115.556 35.8931 115.815 35.7915 116.117 35.7915C116.422 35.7915 116.681 35.8931 116.895 36.0964C117.112 36.2962 117.221 36.5398 117.221 36.8273C117.221 37.1112 117.112 37.3548 116.895 37.5581C116.681 37.7579 116.422 37.8578 116.117 37.8578ZM125.404 41.1388L123.668 41.3281C123.619 41.1528 123.534 40.9881 123.411 40.8339C123.292 40.6796 123.13 40.5552 122.927 40.4605C122.724 40.3659 122.475 40.3186 122.18 40.3186C121.784 40.3186 121.451 40.4044 121.181 40.5762C120.915 40.748 120.784 40.9706 120.787 41.244C120.784 41.4788 120.869 41.6699 121.045 41.8171C121.224 41.9643 121.518 42.0852 121.928 42.1799L123.306 42.4743C124.07 42.6391 124.638 42.9002 125.009 43.2578C125.384 43.6153 125.574 44.0833 125.577 44.6617C125.574 45.1699 125.425 45.6186 125.13 46.0077C124.839 46.3933 124.434 46.6947 123.916 46.9121C123.397 47.1294 122.801 47.2381 122.128 47.2381C121.139 47.2381 120.344 47.0312 119.741 46.6176C119.138 46.2005 118.779 45.6204 118.663 44.8772L120.519 44.6985C120.603 45.063 120.782 45.3382 121.055 45.524C121.329 45.7097 121.684 45.8026 122.123 45.8026C122.575 45.8026 122.938 45.7097 123.211 45.524C123.488 45.3382 123.626 45.1086 123.626 44.8352C123.626 44.6038 123.537 44.4128 123.358 44.262C123.183 44.1113 122.91 43.9956 122.538 43.915L121.16 43.6258C120.386 43.4646 119.813 43.1929 119.441 42.8108C119.07 42.4253 118.885 41.938 118.889 41.3491C118.885 40.8514 119.02 40.4202 119.294 40.0557C119.571 39.6876 119.955 39.4037 120.445 39.2039C120.94 39.0006 121.509 38.8989 122.154 38.8989C123.101 38.8989 123.845 39.1005 124.389 39.5036C124.936 39.9067 125.274 40.4518 125.404 41.1388ZM130.903 47.0803V36.312H132.854V45.4451H137.597V47.0803H130.903ZM139.29 36.312H141.677L144.874 44.1148H145L148.197 36.312H150.584V47.0803H148.712V39.6824H148.612L145.636 47.0488H144.238L141.262 39.6666H141.162V47.0803H139.29V36.312ZM154.659 36.312V47.0803H152.708V36.312H154.659ZM158.154 47.0803H156.072L159.863 36.312H162.271L166.067 47.0803H163.985L161.109 38.5203H161.025L158.154 47.0803ZM158.223 42.8582H163.901V44.425H158.223V42.8582ZM173.398 47.2433C172.887 47.2433 172.426 47.1522 172.016 46.9699C171.609 46.7841 171.286 46.5107 171.048 46.1497C170.813 45.7886 170.696 45.3434 170.696 44.8141C170.696 44.3584 170.78 43.9816 170.948 43.6837C171.116 43.3857 171.346 43.1474 171.637 42.9686C171.928 42.7898 172.256 42.6549 172.62 42.5637C172.988 42.4691 173.369 42.4007 173.761 42.3587C174.234 42.3096 174.618 42.2658 174.913 42.2272C175.207 42.1851 175.421 42.1221 175.554 42.0379C175.691 41.9503 175.759 41.8153 175.759 41.6331V41.6015C175.759 41.2054 175.642 40.8987 175.407 40.6814C175.172 40.464 174.834 40.3554 174.392 40.3554C173.926 40.3554 173.556 40.457 173.283 40.6603C173.013 40.8636 172.831 41.1038 172.736 41.3807L170.959 41.1283C171.099 40.6376 171.33 40.2274 171.653 39.8979C171.975 39.5649 172.37 39.316 172.836 39.1513C173.302 38.983 173.817 38.8989 174.382 38.8989C174.771 38.8989 175.158 38.9445 175.544 39.0356C175.929 39.1268 176.282 39.2775 176.6 39.4878C176.919 39.6946 177.175 39.9768 177.368 40.3343C177.564 40.6919 177.663 41.1388 177.663 41.6751V47.0803H175.833V45.9709H175.77C175.654 46.1952 175.491 46.4055 175.281 46.6018C175.074 46.7946 174.813 46.9506 174.497 47.0698C174.185 47.1855 173.819 47.2433 173.398 47.2433ZM173.893 45.8447C174.275 45.8447 174.606 45.7693 174.886 45.6186C175.167 45.4644 175.382 45.2611 175.533 45.0087C175.687 44.7563 175.764 44.4811 175.764 44.1832V43.2315C175.705 43.2806 175.603 43.3261 175.46 43.3682C175.319 43.4103 175.162 43.4471 174.986 43.4786C174.811 43.5102 174.638 43.5382 174.466 43.5627C174.294 43.5873 174.145 43.6083 174.019 43.6258C173.735 43.6644 173.481 43.7275 173.256 43.8151C173.032 43.9028 172.855 44.0254 172.725 44.1832C172.596 44.3374 172.531 44.5372 172.531 44.7826C172.531 45.1331 172.659 45.3978 172.915 45.5765C173.171 45.7553 173.497 45.8447 173.893 45.8447ZM181.48 42.3481V47.0803H179.577V39.0041H181.396V40.3764H181.49C181.676 39.9242 181.972 39.5649 182.379 39.2985C182.789 39.0321 183.296 38.8989 183.899 38.8989C184.456 38.8989 184.941 39.0181 185.355 39.2565C185.772 39.4948 186.095 39.8401 186.322 40.2923C186.554 40.7445 186.668 41.293 186.664 41.938V47.0803H184.761V42.2325C184.761 41.6927 184.621 41.2703 184.34 40.9653C184.063 40.6603 183.679 40.5079 183.189 40.5079C182.856 40.5079 182.56 40.5815 182.3 40.7287C182.044 40.8724 181.843 41.081 181.695 41.3544C181.552 41.6278 181.48 41.9591 181.48 42.3481ZM191.596 47.2223C190.962 47.2223 190.394 47.0593 189.893 46.7333C189.391 46.4073 188.995 45.9341 188.704 45.3136C188.413 44.6932 188.268 43.9396 188.268 43.0527C188.268 42.1554 188.415 41.3982 188.71 40.7813C189.008 40.1608 189.409 39.6929 189.914 39.3774C190.418 39.0584 190.981 38.8989 191.601 38.8989C192.075 38.8989 192.464 38.9795 192.769 39.1408C193.074 39.2985 193.316 39.4896 193.494 39.7139C193.673 39.9347 193.812 40.1433 193.91 40.3396H193.989V36.312H195.897V47.0803H194.025V45.8079H193.91C193.812 46.0042 193.67 46.2128 193.484 46.4336C193.298 46.6509 193.053 46.8367 192.748 46.9909C192.443 47.1452 192.059 47.2223 191.596 47.2223ZM192.127 45.6607C192.53 45.6607 192.874 45.552 193.158 45.3347C193.442 45.1138 193.657 44.8071 193.805 44.4145C193.952 44.0219 194.025 43.5645 194.025 43.0422C194.025 42.5199 193.952 42.066 193.805 41.6804C193.661 41.2948 193.447 40.9951 193.163 40.7813C192.883 40.5674 192.537 40.4605 192.127 40.4605C191.703 40.4605 191.349 40.571 191.065 40.7918C190.781 41.0126 190.567 41.3176 190.424 41.7067C190.28 42.0958 190.208 42.5409 190.208 43.0422C190.208 43.547 190.28 43.9974 190.424 44.3935C190.571 44.7861 190.787 45.0963 191.07 45.3242C191.358 45.5485 191.71 45.6607 192.127 45.6607ZM203.265 47.0803L200.983 39.0041H202.923L204.343 44.6827H204.416L205.868 39.0041H207.787L209.238 44.6511H209.317L210.716 39.0041H212.661L210.374 47.0803H208.392L206.877 41.6225H206.767L205.252 47.0803H203.265ZM215.893 42.3481V47.0803H213.99V36.312H215.851V40.3764H215.946C216.135 39.9207 216.428 39.5614 216.824 39.2985C217.224 39.0321 217.732 38.8989 218.349 38.8989C218.91 38.8989 219.399 39.0163 219.816 39.2512C220.233 39.4861 220.555 39.8296 220.783 40.2818C221.015 40.7339 221.13 41.286 221.13 41.938V47.0803H219.227V42.2325C219.227 41.6891 219.087 41.2668 218.806 40.9653C218.529 40.6603 218.14 40.5079 217.639 40.5079C217.302 40.5079 217.001 40.5815 216.735 40.7287C216.472 40.8724 216.265 41.081 216.114 41.3544C215.967 41.6278 215.893 41.9591 215.893 42.3481ZM223.964 50.1089C223.705 50.1089 223.465 50.0879 223.244 50.0458C223.027 50.0073 222.853 49.9617 222.723 49.9091L223.165 48.4264C223.442 48.507 223.689 48.5455 223.906 48.542C224.124 48.5385 224.315 48.4702 224.48 48.337C224.648 48.2073 224.79 47.99 224.905 47.685L225.068 47.2486L222.14 39.0041H224.159L226.02 45.1033H226.104L227.971 39.0041H229.995L226.762 48.0583C226.611 48.486 226.411 48.8523 226.162 49.1572C225.913 49.4657 225.608 49.7005 225.247 49.8618C224.89 50.0265 224.462 50.1089 223.964 50.1089ZM237.982 47.2223C237.348 47.2223 236.78 47.0593 236.278 46.7333C235.777 46.4073 235.381 45.9341 235.09 45.3136C234.799 44.6932 234.654 43.9396 234.654 43.0527C234.654 42.1554 234.801 41.3982 235.095 40.7813C235.393 40.1608 235.795 39.6929 236.3 39.3774C236.804 39.0584 237.367 38.8989 237.987 38.8989C238.461 38.8989 238.85 38.9795 239.155 39.1408C239.46 39.2985 239.701 39.4896 239.88 39.7139C240.059 39.9347 240.197 40.1433 240.296 40.3396H240.374V36.312H242.283V47.0803H240.411V45.8079H240.296C240.197 46.0042 240.055 46.2128 239.87 46.4336C239.684 46.6509 239.439 46.8367 239.134 46.9909C238.829 47.1452 238.445 47.2223 237.982 47.2223ZM238.513 45.6607C238.916 45.6607 239.26 45.552 239.544 45.3347C239.828 45.1138 240.043 44.8071 240.19 44.4145C240.338 44.0219 240.411 43.5645 240.411 43.0422C240.411 42.5199 240.338 42.066 240.19 41.6804C240.047 41.2948 239.833 40.9951 239.549 40.7813C239.269 40.5674 238.923 40.4605 238.513 40.4605C238.089 40.4605 237.735 40.571 237.451 40.7918C237.167 41.0126 236.953 41.3176 236.81 41.7067C236.666 42.0958 236.594 42.5409 236.594 43.0422C236.594 43.547 236.666 43.9974 236.81 44.3935C236.957 44.7861 237.172 45.0963 237.456 45.3242C237.744 45.5485 238.096 45.6607 238.513 45.6607ZM247.834 47.2381C247.046 47.2381 246.362 47.0645 245.784 46.7175C245.205 46.3705 244.757 45.885 244.438 45.2611C244.122 44.6371 243.964 43.908 243.964 43.0737C243.964 42.2395 244.122 41.5086 244.438 40.8812C244.757 40.2537 245.205 39.7665 245.784 39.4195C246.362 39.0724 247.046 38.8989 247.834 38.8989C248.623 38.8989 249.306 39.0724 249.885 39.4195C250.463 39.7665 250.91 40.2537 251.226 40.8812C251.545 41.5086 251.704 42.2395 251.704 43.0737C251.704 43.908 251.545 44.6371 251.226 45.2611C250.91 45.885 250.463 46.3705 249.885 46.7175C249.306 47.0645 248.623 47.2381 247.834 47.2381ZM247.845 45.7132C248.272 45.7132 248.63 45.5958 248.917 45.361C249.205 45.1226 249.419 44.8036 249.559 44.404C249.703 44.0044 249.774 43.5592 249.774 43.0685C249.774 42.5742 249.703 42.1273 249.559 41.7277C249.419 41.3246 249.205 41.0039 248.917 40.7655C248.63 40.5271 248.272 40.408 247.845 40.408C247.407 40.408 247.042 40.5271 246.751 40.7655C246.464 41.0039 246.248 41.3246 246.104 41.7277C245.964 42.1273 245.894 42.5742 245.894 43.0685C245.894 43.5592 245.964 44.0044 246.104 44.404C246.248 44.8036 246.464 45.1226 246.751 45.361C247.042 45.5958 247.407 45.7132 247.845 45.7132ZM259.027 36.312V47.0803H257.076V36.312H259.027ZM266.631 42.3481V47.0803H264.728V39.0041H266.547V40.3764H266.642C266.828 39.9242 267.124 39.5649 267.531 39.2985C267.941 39.0321 268.447 38.8989 269.05 38.8989C269.607 38.8989 270.093 39.0181 270.507 39.2565C270.924 39.4948 271.246 39.8401 271.474 40.2923C271.705 40.7445 271.819 41.293 271.816 41.938V47.0803H269.912V42.2325C269.912 41.6927 269.772 41.2703 269.492 40.9653C269.215 40.6603 268.831 40.5079 268.34 40.5079C268.007 40.5079 267.711 40.5815 267.452 40.7287C267.196 40.8724 266.994 41.081 266.847 41.3544C266.703 41.6278 266.631 41.9591 266.631 42.3481ZM277.326 47.2381C276.516 47.2381 275.817 47.0698 275.228 46.7333C274.643 46.3933 274.192 45.9131 273.877 45.2926C273.561 44.6687 273.404 43.9343 273.404 43.0895C273.404 42.2588 273.561 41.5297 273.877 40.9022C274.196 40.2712 274.641 39.7805 275.212 39.43C275.784 39.0759 276.455 38.8989 277.226 38.8989C277.724 38.8989 278.194 38.9795 278.635 39.1408C279.081 39.2985 279.473 39.5439 279.813 39.8769C280.157 40.2099 280.427 40.634 280.623 41.1493C280.819 41.6611 280.917 42.271 280.917 42.9791V43.5627H274.298V42.2798H279.093C279.089 41.9152 279.01 41.591 278.856 41.3071C278.702 41.0196 278.486 40.7935 278.21 40.6288C277.936 40.464 277.617 40.3817 277.253 40.3817C276.863 40.3817 276.522 40.4763 276.227 40.6656C275.933 40.8514 275.703 41.0967 275.538 41.4017C275.377 41.7032 275.295 42.0344 275.291 42.3955V43.5154C275.291 43.9851 275.377 44.3882 275.549 44.7248C275.721 45.0578 275.961 45.3136 276.269 45.4924C276.578 45.6677 276.939 45.7553 277.352 45.7553C277.629 45.7553 277.88 45.7168 278.104 45.6396C278.329 45.559 278.523 45.4416 278.688 45.2874C278.853 45.1331 278.977 44.9421 279.061 44.7142L280.838 44.914C280.726 45.3837 280.513 45.7939 280.197 46.1444C279.885 46.4914 279.485 46.7613 278.998 46.9541C278.511 47.1434 277.954 47.2381 277.326 47.2381ZM286.103 47.2381C285.293 47.2381 284.594 47.0698 284.005 46.7333C283.42 46.3933 282.969 45.9131 282.654 45.2926C282.338 44.6687 282.181 43.9343 282.181 43.0895C282.181 42.2588 282.338 41.5297 282.654 40.9022C282.973 40.2712 283.418 39.7805 283.989 39.43C284.561 39.0759 285.232 38.8989 286.003 38.8989C286.501 38.8989 286.971 38.9795 287.412 39.1408C287.857 39.2985 288.25 39.5439 288.59 39.8769C288.934 40.2099 289.203 40.634 289.4 41.1493C289.596 41.6611 289.694 42.271 289.694 42.9791V43.5627H283.074V42.2798H287.87C287.866 41.9152 287.787 41.591 287.633 41.3071C287.479 41.0196 287.263 40.7935 286.986 40.6288C286.713 40.464 286.394 40.3817 286.029 40.3817C285.64 40.3817 285.299 40.4763 285.004 40.6656C284.71 40.8514 284.48 41.0967 284.315 41.4017C284.154 41.7032 284.072 42.0344 284.068 42.3955V43.5154C284.068 43.9851 284.154 44.3882 284.326 44.7248C284.498 45.0578 284.738 45.3136 285.046 45.4924C285.355 45.6677 285.716 45.7553 286.129 45.7553C286.406 45.7553 286.657 45.7168 286.881 45.6396C287.106 45.559 287.3 45.4416 287.465 45.2874C287.63 45.1331 287.754 44.9421 287.838 44.7142L289.615 44.914C289.503 45.3837 289.289 45.7939 288.974 46.1444C288.662 46.4914 288.262 46.7613 287.775 46.9541C287.288 47.1434 286.73 47.2381 286.103 47.2381ZM294.302 47.2223C293.667 47.2223 293.099 47.0593 292.598 46.7333C292.097 46.4073 291.701 45.9341 291.41 45.3136C291.119 44.6932 290.973 43.9396 290.973 43.0527C290.973 42.1554 291.12 41.3982 291.415 40.7813C291.713 40.1608 292.114 39.6929 292.619 39.3774C293.124 39.0584 293.686 38.8989 294.307 38.8989C294.78 38.8989 295.169 38.9795 295.474 39.1408C295.779 39.2985 296.021 39.4896 296.2 39.7139C296.378 39.9347 296.517 40.1433 296.615 40.3396H296.694V36.312H298.603V47.0803H296.731V45.8079H296.615C296.517 46.0042 296.375 46.2128 296.189 46.4336C296.003 46.6509 295.758 46.8367 295.453 46.9909C295.148 47.1452 294.764 47.2223 294.302 47.2223ZM294.833 45.6607C295.236 45.6607 295.579 45.552 295.863 45.3347C296.147 45.1138 296.363 44.8071 296.51 44.4145C296.657 44.0219 296.731 43.5645 296.731 43.0422C296.731 42.5199 296.657 42.066 296.51 41.6804C296.366 41.2948 296.152 40.9951 295.868 40.7813C295.588 40.5674 295.243 40.4605 294.833 40.4605C294.408 40.4605 294.054 40.571 293.77 40.7918C293.487 41.0126 293.273 41.3176 293.129 41.7067C292.985 42.0958 292.913 42.5409 292.913 43.0422C292.913 43.547 292.985 43.9974 293.129 44.3935C293.276 44.7861 293.492 45.0963 293.776 45.3242C294.063 45.5485 294.415 45.6607 294.833 45.6607ZM304.304 47.0803V39.0041H306.207V47.0803H304.304ZM305.26 37.8578C304.959 37.8578 304.7 37.7579 304.482 37.5581C304.265 37.3548 304.156 37.1112 304.156 36.8273C304.156 36.5398 304.265 36.2962 304.482 36.0964C304.7 35.8931 304.959 35.7915 305.26 35.7915C305.565 35.7915 305.825 35.8931 306.039 36.0964C306.256 36.2962 306.365 36.5398 306.365 36.8273C306.365 37.1112 306.256 37.3548 306.039 37.5581C305.825 37.7579 305.565 37.8578 305.26 37.8578ZM312.197 39.0041V40.4763H307.554V39.0041H312.197ZM308.7 37.0691H310.604V44.6511C310.604 44.907 310.642 45.1033 310.72 45.24C310.8 45.3732 310.905 45.4644 311.035 45.5134C311.165 45.5625 311.308 45.5871 311.466 45.5871C311.585 45.5871 311.694 45.5783 311.792 45.5608C311.894 45.5432 311.971 45.5275 312.024 45.5134L312.344 47.0015C312.243 47.0365 312.097 47.0751 311.908 47.1171C311.722 47.1592 311.494 47.1837 311.224 47.1907C310.748 47.2048 310.318 47.1329 309.936 46.9752C309.554 46.8139 309.251 46.565 309.026 46.2285C308.806 45.892 308.697 45.4714 308.7 44.9666V37.0691ZM315.608 43.915V43.7783C315.612 43.1439 315.671 42.6391 315.787 42.264C315.906 41.889 316.074 41.5875 316.292 41.3596C316.509 41.1283 316.774 40.9162 317.086 40.7234C317.299 40.5902 317.491 40.4448 317.659 40.287C317.831 40.1258 317.965 39.947 318.064 39.7507C318.162 39.5509 318.211 39.3283 318.211 39.0829C318.211 38.806 318.146 38.5659 318.016 38.3626C317.887 38.1593 317.711 38.0016 317.491 37.8894C317.273 37.7772 317.03 37.7211 316.76 37.7211C316.511 37.7211 316.274 37.7755 316.05 37.8841C315.829 37.9893 315.645 38.1505 315.498 38.3679C315.354 38.5817 315.273 38.8533 315.256 39.1828H313.384C313.402 38.5168 313.563 37.9595 313.868 37.5108C314.176 37.0621 314.583 36.7256 315.088 36.5013C315.596 36.2769 316.157 36.1648 316.77 36.1648C317.44 36.1648 318.029 36.2822 318.537 36.5171C319.049 36.7519 319.446 37.0867 319.73 37.5213C320.018 37.9525 320.162 38.4643 320.162 39.0567C320.162 39.4563 320.097 39.8138 319.967 40.1293C319.841 40.4448 319.66 40.7252 319.425 40.9706C319.191 41.2159 318.912 41.435 318.589 41.6278C318.305 41.8031 318.072 41.9853 317.89 42.1746C317.711 42.3639 317.578 42.5865 317.491 42.8424C317.406 43.0948 317.363 43.4068 317.359 43.7783V43.915H315.608ZM316.523 47.196C316.208 47.196 315.936 47.0838 315.708 46.8595C315.48 46.6351 315.366 46.3617 315.366 46.0392C315.366 45.7238 315.48 45.4539 315.708 45.2295C315.936 45.0052 316.208 44.893 316.523 44.893C316.835 44.893 317.105 45.0052 317.333 45.2295C317.564 45.4539 317.68 45.7238 317.68 46.0392C317.68 46.2531 317.625 46.4476 317.517 46.6229C317.412 46.7981 317.271 46.9384 317.096 47.0435C316.924 47.1452 316.733 47.196 316.523 47.196Z" fill="#1B1139"/>
<rect opacity="0.8" x="46.0708" y="39.0725" width="14.8065" height="2.46774" rx="1.23387" fill="#1B1139"/>
<rect opacity="0.8" x="54.7085" y="32.9031" width="14.8065" height="2.46774" rx="1.23387" transform="rotate(90 54.7085 32.9031)" fill="#1B1139"/>
<defs>
<filter id="filter0_d_160_747" x="4.673e-05" y="0" width="488.626" height="117.27" filterUnits="userSpaceOnUse" color-interpolation-filters="sRGB">
<feFlood flood-opacity="0" result="BackgroundImageFix"/>
<feColorMatrix in="SourceAlpha" type="matrix" values="0 0 0 0 0 0 0 0 0 0 0 0 0 0 0 0 0 0 127 0" result="hardAlpha"/>
<feMorphology radius="12.1197" operator="erode" in="SourceAlpha" result="effect1_dropShadow_160_747"/>
<feOffset dy="20.1995"/>
<feGaussianBlur stdDeviation="13.4663"/>
<feColorMatrix type="matrix" values="0 0 0 0 0.583333 0 0 0 0 0.583333 0 0 0 0 0.583333 0 0 0 0.25 0"/>
<feBlend mode="normal" in2="BackgroundImageFix" result="effect1_dropShadow_160_747"/>
<feBlend mode="normal" in="SourceGraphic" in2="effect1_dropShadow_160_747" result="shape"/>
</filter>
</defs>
</svg>
