<svg width="231" height="48" viewBox="0 0 231 48" fill="none" xmlns="http://www.w3.org/2000/svg">
<path d="M0.392 18V17.412L6.608 8.41H0.756V7.57H7.812V8.158L1.61 17.16H7.952V18H0.392ZM9.64217 18V7.57H16.0122V8.41H10.5522V12.344H15.5222V13.184H10.5522V18H9.64217ZM24.8595 18.168C24.1408 18.168 23.4782 18.0373 22.8715 17.776C22.2648 17.5053 21.7328 17.1273 21.2755 16.642C20.8275 16.1567 20.4775 15.5873 20.2255 14.934C19.9828 14.2807 19.8615 13.562 19.8615 12.778C19.8615 12.0033 19.9828 11.2893 20.2255 10.636C20.4775 9.97333 20.8275 9.404 21.2755 8.928C21.7328 8.44267 22.2648 8.06933 22.8715 7.808C23.4782 7.53733 24.1408 7.402 24.8595 7.402C25.5595 7.402 26.1895 7.528 26.7495 7.78C27.3095 8.032 27.7808 8.354 28.1635 8.746C28.5462 9.138 28.8215 9.544 28.9895 9.964L28.1355 10.342C27.8555 9.71667 27.4308 9.21267 26.8615 8.83C26.3015 8.44733 25.6342 8.256 24.8595 8.256C24.0662 8.256 23.3568 8.44733 22.7315 8.83C22.1155 9.21267 21.6348 9.74467 21.2895 10.426C20.9442 11.098 20.7715 11.882 20.7715 12.778C20.7715 13.674 20.9442 14.4627 21.2895 15.144C21.6348 15.8253 22.1155 16.3573 22.7315 16.74C23.3568 17.1133 24.0662 17.3 24.8595 17.3C25.6342 17.3 26.3015 17.1133 26.8615 16.74C27.4308 16.3573 27.8555 15.8533 28.1355 15.228L28.9895 15.606C28.8215 16.0167 28.5462 16.418 28.1635 16.81C27.7808 17.202 27.3095 17.5287 26.7495 17.79C26.1895 18.042 25.5595 18.168 24.8595 18.168ZM32.999 18.168C32.5323 18.168 32.117 18.0793 31.753 17.902C31.389 17.7247 31.0997 17.4773 30.885 17.16C30.6703 16.8427 30.563 16.4787 30.563 16.068C30.563 15.704 30.6423 15.3633 30.801 15.046C30.9597 14.7287 31.2163 14.458 31.571 14.234C31.9257 14.0007 32.3877 13.8373 32.957 13.744L35.967 13.24V14.024L33.181 14.486C32.5463 14.5887 32.0983 14.78 31.837 15.06C31.5757 15.34 31.445 15.6667 31.445 16.04C31.445 16.4413 31.5943 16.768 31.893 17.02C32.201 17.272 32.5883 17.398 33.055 17.398C33.5963 17.398 34.0677 17.2767 34.469 17.034C34.8703 16.782 35.183 16.4553 35.407 16.054C35.631 15.6433 35.743 15.1953 35.743 14.71V12.862C35.743 12.3673 35.5657 11.966 35.211 11.658C34.8563 11.35 34.3943 11.196 33.825 11.196C33.3583 11.196 32.9383 11.3127 32.565 11.546C32.1917 11.7793 31.907 12.0827 31.711 12.456L30.955 12.05C31.095 11.7513 31.3097 11.476 31.599 11.224C31.8883 10.972 32.2243 10.7713 32.607 10.622C32.9897 10.4727 33.3957 10.398 33.825 10.398C34.3663 10.398 34.8423 10.5053 35.253 10.72C35.673 10.9253 35.9997 11.2147 36.233 11.588C36.4663 11.952 36.583 12.3767 36.583 12.862V18H35.743V16.446L35.841 16.516C35.7197 16.8147 35.519 17.09 35.239 17.342C34.959 17.5847 34.6277 17.7853 34.245 17.944C33.8717 18.0933 33.4563 18.168 32.999 18.168ZM38.8964 18V10.566H39.7364V12.064L39.5264 12.008C39.6944 11.5133 39.993 11.1213 40.4224 10.832C40.861 10.5427 41.3697 10.398 41.9484 10.398C42.4617 10.398 42.9284 10.5147 43.3484 10.748C43.7684 10.9813 44.1044 11.308 44.3564 11.728C44.6084 12.1387 44.7344 12.61 44.7344 13.142V18H43.8944V13.38C43.8944 12.932 43.8057 12.5493 43.6284 12.232C43.451 11.9053 43.2037 11.658 42.8864 11.49C42.5784 11.3127 42.2237 11.224 41.8224 11.224C41.4024 11.224 41.0337 11.322 40.7164 11.518C40.399 11.714 40.1564 11.9847 39.9884 12.33C39.8204 12.6753 39.7364 13.072 39.7364 13.52V18H38.8964ZM49.0361 18.168C48.5694 18.168 48.1541 18.0793 47.7901 17.902C47.4261 17.7247 47.1368 17.4773 46.9221 17.16C46.7074 16.8427 46.6001 16.4787 46.6001 16.068C46.6001 15.704 46.6794 15.3633 46.8381 15.046C46.9968 14.7287 47.2534 14.458 47.6081 14.234C47.9628 14.0007 48.4248 13.8373 48.9941 13.744L52.0041 13.24V14.024L49.2181 14.486C48.5834 14.5887 48.1354 14.78 47.8741 15.06C47.6128 15.34 47.4821 15.6667 47.4821 16.04C47.4821 16.4413 47.6314 16.768 47.9301 17.02C48.2381 17.272 48.6254 17.398 49.0921 17.398C49.6334 17.398 50.1048 17.2767 50.5061 17.034C50.9074 16.782 51.2201 16.4553 51.4441 16.054C51.6681 15.6433 51.7801 15.1953 51.7801 14.71V12.862C51.7801 12.3673 51.6028 11.966 51.2481 11.658C50.8934 11.35 50.4314 11.196 49.8621 11.196C49.3954 11.196 48.9754 11.3127 48.6021 11.546C48.2288 11.7793 47.9441 12.0827 47.7481 12.456L46.9921 12.05C47.1321 11.7513 47.3468 11.476 47.6361 11.224C47.9254 10.972 48.2614 10.7713 48.6441 10.622C49.0268 10.4727 49.4328 10.398 49.8621 10.398C50.4034 10.398 50.8794 10.5053 51.2901 10.72C51.7101 10.9253 52.0368 11.2147 52.2701 11.588C52.5034 11.952 52.6201 12.3767 52.6201 12.862V18H51.7801V16.446L51.8781 16.516C51.7568 16.8147 51.5561 17.09 51.2761 17.342C50.9961 17.5847 50.6648 17.7853 50.2821 17.944C49.9088 18.0933 49.4934 18.168 49.0361 18.168ZM58.2795 18.168C57.5888 18.168 56.9635 18 56.4035 17.664C55.8528 17.3187 55.4188 16.852 55.1015 16.264C54.7842 15.676 54.6255 15.0133 54.6255 14.276C54.6255 13.5387 54.7842 12.876 55.1015 12.288C55.4188 11.7 55.8528 11.238 56.4035 10.902C56.9635 10.566 57.5888 10.398 58.2795 10.398C58.9608 10.398 59.5675 10.5613 60.0995 10.888C60.6315 11.2053 61.0328 11.6347 61.3035 12.176L61.1635 12.442V7.402H62.0035V18H61.1635V16.11L61.3035 16.306C61.0422 16.8847 60.6408 17.342 60.0995 17.678C59.5675 18.0047 58.9608 18.168 58.2795 18.168ZM58.3075 17.328C58.8488 17.328 59.3295 17.1973 59.7495 16.936C60.1788 16.6653 60.5195 16.3013 60.7715 15.844C61.0235 15.3773 61.1495 14.8547 61.1495 14.276C61.1495 13.6973 61.0235 13.1793 60.7715 12.722C60.5195 12.2647 60.1788 11.9053 59.7495 11.644C59.3295 11.3733 58.8488 11.238 58.3075 11.238C57.7755 11.238 57.2995 11.3733 56.8795 11.644C56.4595 11.9053 56.1282 12.2647 55.8855 12.722C55.6428 13.1793 55.5215 13.6973 55.5215 14.276C55.5215 14.8547 55.6428 15.3773 55.8855 15.844C56.1282 16.3013 56.4595 16.6653 56.8795 16.936C57.2995 17.1973 57.7755 17.328 58.3075 17.328ZM66.4541 18.168C65.9874 18.168 65.5721 18.0793 65.2081 17.902C64.8441 17.7247 64.5547 17.4773 64.3401 17.16C64.1254 16.8427 64.0181 16.4787 64.0181 16.068C64.0181 15.704 64.0974 15.3633 64.2561 15.046C64.4147 14.7287 64.6714 14.458 65.0261 14.234C65.3807 14.0007 65.8427 13.8373 66.4121 13.744L69.4221 13.24V14.024L66.6361 14.486C66.0014 14.5887 65.5534 14.78 65.2921 15.06C65.0307 15.34 64.9001 15.6667 64.9001 16.04C64.9001 16.4413 65.0494 16.768 65.3481 17.02C65.6561 17.272 66.0434 17.398 66.5101 17.398C67.0514 17.398 67.5227 17.2767 67.9241 17.034C68.3254 16.782 68.6381 16.4553 68.8621 16.054C69.0861 15.6433 69.1981 15.1953 69.1981 14.71V12.862C69.1981 12.3673 69.0207 11.966 68.6661 11.658C68.3114 11.35 67.8494 11.196 67.2801 11.196C66.8134 11.196 66.3934 11.3127 66.0201 11.546C65.6467 11.7793 65.3621 12.0827 65.1661 12.456L64.4101 12.05C64.5501 11.7513 64.7647 11.476 65.0541 11.224C65.3434 10.972 65.6794 10.7713 66.0621 10.622C66.4447 10.4727 66.8507 10.398 67.2801 10.398C67.8214 10.398 68.2974 10.5053 68.7081 10.72C69.1281 10.9253 69.4547 11.2147 69.6881 11.588C69.9214 11.952 70.0381 12.3767 70.0381 12.862V18H69.1981V16.446L69.2961 16.516C69.1747 16.8147 68.9741 17.09 68.6941 17.342C68.4141 17.5847 68.0827 17.7853 67.7001 17.944C67.3267 18.0933 66.9114 18.168 66.4541 18.168ZM74.662 18V10.566H75.502V18H74.662ZM74.662 9.11V7.57H75.502V9.11H74.662ZM80.3125 18.168C79.6219 18.168 79.0152 17.9953 78.4925 17.65C77.9699 17.3047 77.5872 16.8333 77.3445 16.236L78.0725 15.9C78.3059 16.3573 78.6185 16.7213 79.0105 16.992C79.4025 17.2533 79.8365 17.384 80.3125 17.384C80.7979 17.384 81.2039 17.2673 81.5305 17.034C81.8665 16.7913 82.0345 16.474 82.0345 16.082C82.0345 15.8393 81.9692 15.634 81.8385 15.466C81.7172 15.298 81.5585 15.1627 81.3625 15.06C81.1665 14.948 80.9565 14.864 80.7325 14.808L79.5845 14.486C78.9405 14.3087 78.4645 14.0473 78.1565 13.702C77.8579 13.3567 77.7085 12.9507 77.7085 12.484C77.7085 12.064 77.8159 11.7 78.0305 11.392C78.2452 11.0747 78.5345 10.832 78.8985 10.664C79.2625 10.4867 79.6639 10.398 80.1025 10.398C80.7185 10.398 81.2785 10.5567 81.7825 10.874C82.2865 11.1913 82.6412 11.6207 82.8465 12.162L82.0905 12.512C81.8945 12.092 81.6192 11.7653 81.2645 11.532C80.9099 11.2893 80.5179 11.168 80.0885 11.168C79.6405 11.168 79.2765 11.2893 78.9965 11.532C78.7165 11.7653 78.5765 12.064 78.5765 12.428C78.5765 12.6613 78.6325 12.8573 78.7445 13.016C78.8565 13.1653 79.0012 13.2913 79.1785 13.394C79.3652 13.4873 79.5565 13.562 79.7525 13.618L80.9985 13.982C81.6052 14.15 82.0719 14.416 82.3985 14.78C82.7345 15.144 82.9025 15.5733 82.9025 16.068C82.9025 16.4693 82.7905 16.8287 82.5665 17.146C82.3425 17.4633 82.0345 17.7153 81.6425 17.902C81.2505 18.0793 80.8072 18.168 80.3125 18.168ZM89.3545 18.168C88.8878 18.168 88.4725 18.0793 88.1085 17.902C87.7445 17.7247 87.4551 17.4773 87.2405 17.16C87.0258 16.8427 86.9185 16.4787 86.9185 16.068C86.9185 15.704 86.9978 15.3633 87.1565 15.046C87.3151 14.7287 87.5718 14.458 87.9265 14.234C88.2811 14.0007 88.7431 13.8373 89.3125 13.744L92.3225 13.24V14.024L89.5365 14.486C88.9018 14.5887 88.4538 14.78 88.1925 15.06C87.9311 15.34 87.8005 15.6667 87.8005 16.04C87.8005 16.4413 87.9498 16.768 88.2485 17.02C88.5565 17.272 88.9438 17.398 89.4105 17.398C89.9518 17.398 90.4231 17.2767 90.8245 17.034C91.2258 16.782 91.5385 16.4553 91.7625 16.054C91.9865 15.6433 92.0985 15.1953 92.0985 14.71V12.862C92.0985 12.3673 91.9211 11.966 91.5665 11.658C91.2118 11.35 90.7498 11.196 90.1805 11.196C89.7138 11.196 89.2938 11.3127 88.9205 11.546C88.5471 11.7793 88.2625 12.0827 88.0665 12.456L87.3105 12.05C87.4505 11.7513 87.6651 11.476 87.9545 11.224C88.2438 10.972 88.5798 10.7713 88.9625 10.622C89.3451 10.4727 89.7511 10.398 90.1805 10.398C90.7218 10.398 91.1978 10.5053 91.6085 10.72C92.0285 10.9253 92.3551 11.2147 92.5885 11.588C92.8218 11.952 92.9385 12.3767 92.9385 12.862V18H92.0985V16.446L92.1965 16.516C92.0751 16.8147 91.8745 17.09 91.5945 17.342C91.3145 17.5847 90.9831 17.7853 90.6005 17.944C90.2271 18.0933 89.8118 18.168 89.3545 18.168ZM97.5624 18V7.402H98.4024V18H97.5624ZM104.109 18.168C103.409 18.168 102.779 18 102.219 17.664C101.659 17.3187 101.216 16.852 100.889 16.264C100.562 15.6667 100.399 14.9993 100.399 14.262C100.399 13.5247 100.558 12.8667 100.875 12.288C101.192 11.7 101.622 11.238 102.163 10.902C102.704 10.566 103.311 10.398 103.983 10.398C104.496 10.398 104.958 10.4913 105.369 10.678C105.789 10.8647 106.148 11.126 106.447 11.462C106.755 11.7887 106.988 12.1667 107.147 12.596C107.315 13.016 107.399 13.4593 107.399 13.926C107.399 14.0193 107.394 14.1173 107.385 14.22C107.376 14.3227 107.362 14.43 107.343 14.542H100.889V13.772H106.867L106.489 14.066C106.545 13.5247 106.466 13.0393 106.251 12.61C106.036 12.1713 105.728 11.826 105.327 11.574C104.935 11.3127 104.487 11.182 103.983 11.182C103.479 11.182 103.017 11.3173 102.597 11.588C102.177 11.8493 101.846 12.2133 101.603 12.68C101.36 13.1373 101.248 13.6693 101.267 14.276C101.248 14.8827 101.365 15.4193 101.617 15.886C101.869 16.3527 102.214 16.7213 102.653 16.992C103.092 17.2533 103.577 17.384 104.109 17.384C104.65 17.384 105.122 17.258 105.523 17.006C105.924 16.7447 106.251 16.3993 106.503 15.97L107.217 16.348C107.049 16.6933 106.811 17.006 106.503 17.286C106.195 17.5567 105.836 17.7713 105.425 17.93C105.024 18.0887 104.585 18.168 104.109 18.168ZM111.394 18.168C110.927 18.168 110.512 18.0793 110.148 17.902C109.784 17.7247 109.494 17.4773 109.28 17.16C109.065 16.8427 108.958 16.4787 108.958 16.068C108.958 15.704 109.037 15.3633 109.196 15.046C109.354 14.7287 109.611 14.458 109.966 14.234C110.32 14.0007 110.782 13.8373 111.352 13.744L114.362 13.24V14.024L111.576 14.486C110.941 14.5887 110.493 14.78 110.232 15.06C109.97 15.34 109.84 15.6667 109.84 16.04C109.84 16.4413 109.989 16.768 110.288 17.02C110.596 17.272 110.983 17.398 111.45 17.398C111.991 17.398 112.462 17.2767 112.864 17.034C113.265 16.782 113.578 16.4553 113.802 16.054C114.026 15.6433 114.138 15.1953 114.138 14.71V12.862C114.138 12.3673 113.96 11.966 113.606 11.658C113.251 11.35 112.789 11.196 112.22 11.196C111.753 11.196 111.333 11.3127 110.96 11.546C110.586 11.7793 110.302 12.0827 110.106 12.456L109.35 12.05C109.49 11.7513 109.704 11.476 109.994 11.224C110.283 10.972 110.619 10.7713 111.002 10.622C111.384 10.4727 111.79 10.398 112.22 10.398C112.761 10.398 113.237 10.5053 113.648 10.72C114.068 10.9253 114.394 11.2147 114.628 11.588C114.861 11.952 114.978 12.3767 114.978 12.862V18H114.138V16.446L114.236 16.516C114.114 16.8147 113.914 17.09 113.634 17.342C113.354 17.5847 113.022 17.7853 112.64 17.944C112.266 18.0933 111.851 18.168 111.394 18.168ZM120.637 18.168C119.946 18.168 119.321 18 118.761 17.664C118.21 17.3187 117.776 16.852 117.459 16.264C117.142 15.676 116.983 15.0133 116.983 14.276C116.983 13.5387 117.142 12.876 117.459 12.288C117.776 11.7 118.21 11.238 118.761 10.902C119.321 10.566 119.946 10.398 120.637 10.398C121.318 10.398 121.925 10.5613 122.457 10.888C122.989 11.2053 123.39 11.6347 123.661 12.176L123.521 12.442V7.402H124.361V18H123.521V16.11L123.661 16.306C123.4 16.8847 122.998 17.342 122.457 17.678C121.925 18.0047 121.318 18.168 120.637 18.168ZM120.665 17.328C121.206 17.328 121.687 17.1973 122.107 16.936C122.536 16.6653 122.877 16.3013 123.129 15.844C123.381 15.3773 123.507 14.8547 123.507 14.276C123.507 13.6973 123.381 13.1793 123.129 12.722C122.877 12.2647 122.536 11.9053 122.107 11.644C121.687 11.3733 121.206 11.238 120.665 11.238C120.133 11.238 119.657 11.3733 119.237 11.644C118.817 11.9053 118.486 12.2647 118.243 12.722C118 13.1793 117.879 13.6973 117.879 14.276C117.879 14.8547 118 15.3773 118.243 15.844C118.486 16.3013 118.817 16.6653 119.237 16.936C119.657 17.1973 120.133 17.328 120.665 17.328ZM126.683 18V10.566H127.523V18H126.683ZM126.683 9.11V7.57H127.523V9.11H126.683ZM129.828 18V10.566H130.668V12.064L130.458 12.008C130.626 11.5133 130.925 11.1213 131.354 10.832C131.793 10.5427 132.301 10.398 132.88 10.398C133.393 10.398 133.86 10.5147 134.28 10.748C134.7 10.9813 135.036 11.308 135.288 11.728C135.54 12.1387 135.666 12.61 135.666 13.142V18H134.826V13.38C134.826 12.932 134.737 12.5493 134.56 12.232C134.383 11.9053 134.135 11.658 133.818 11.49C133.51 11.3127 133.155 11.224 132.754 11.224C132.334 11.224 131.965 11.322 131.648 11.518C131.331 11.714 131.088 11.9847 130.92 12.33C130.752 12.6753 130.668 13.072 130.668 13.52V18H129.828ZM141.312 21.08C140.817 21.08 140.36 21.0007 139.94 20.842C139.52 20.6833 139.156 20.4687 138.848 20.198C138.54 19.9273 138.297 19.6193 138.12 19.274L138.876 18.868C139.081 19.2693 139.389 19.6007 139.8 19.862C140.22 20.1233 140.719 20.254 141.298 20.254C141.764 20.254 142.198 20.1607 142.6 19.974C143.001 19.7967 143.328 19.5167 143.58 19.134C143.841 18.7607 143.972 18.2893 143.972 17.72V15.83L144.126 16.026C143.864 16.6047 143.468 17.062 142.936 17.398C142.404 17.7247 141.811 17.888 141.158 17.888C140.467 17.888 139.846 17.72 139.296 17.384C138.745 17.048 138.311 16.5953 137.994 16.026C137.686 15.4567 137.532 14.8267 137.532 14.136C137.532 13.4453 137.686 12.82 137.994 12.26C138.311 11.6907 138.74 11.238 139.282 10.902C139.832 10.566 140.458 10.398 141.158 10.398C141.811 10.398 142.399 10.5613 142.922 10.888C143.444 11.2053 143.846 11.6347 144.126 12.176L143.972 12.442V10.566H144.812V17.72C144.812 18.364 144.662 18.938 144.364 19.442C144.065 19.9553 143.65 20.3567 143.118 20.646C142.595 20.9353 141.993 21.08 141.312 21.08ZM141.186 17.048C141.708 17.048 142.175 16.9173 142.586 16.656C143.006 16.3947 143.337 16.0447 143.58 15.606C143.822 15.158 143.944 14.668 143.944 14.136C143.944 13.604 143.822 13.1187 143.58 12.68C143.337 12.2413 143.006 11.8913 142.586 11.63C142.175 11.3687 141.708 11.238 141.186 11.238C140.654 11.238 140.178 11.3687 139.758 11.63C139.338 11.8913 139.011 12.2413 138.778 12.68C138.544 13.1187 138.428 13.604 138.428 14.136C138.428 14.668 138.544 15.158 138.778 15.606C139.011 16.0447 139.333 16.3947 139.744 16.656C140.164 16.9173 140.644 17.048 141.186 17.048ZM149.433 18V10.566H150.273V18H149.433ZM149.433 9.11V7.57H150.273V9.11H149.433ZM152.578 18V10.566H153.418V12.064L153.264 11.854C153.451 11.406 153.749 11.0513 154.16 10.79C154.58 10.5287 155.047 10.398 155.56 10.398C156.139 10.398 156.666 10.566 157.142 10.902C157.618 11.2287 157.949 11.6673 158.136 12.218L157.87 12.232C158.029 11.6627 158.341 11.2147 158.808 10.888C159.284 10.5613 159.811 10.398 160.39 10.398C160.885 10.398 161.337 10.5147 161.748 10.748C162.168 10.9813 162.504 11.308 162.756 11.728C163.017 12.1387 163.148 12.61 163.148 13.142V18H162.308V13.38C162.308 12.932 162.215 12.5493 162.028 12.232C161.851 11.9053 161.613 11.658 161.314 11.49C161.015 11.3127 160.679 11.224 160.306 11.224C159.905 11.224 159.55 11.322 159.242 11.518C158.943 11.714 158.705 11.9847 158.528 12.33C158.36 12.6753 158.276 13.072 158.276 13.52V18H157.436V13.38C157.436 12.932 157.347 12.5493 157.17 12.232C156.993 11.9053 156.75 11.658 156.442 11.49C156.143 11.3127 155.807 11.224 155.434 11.224C155.033 11.224 154.678 11.322 154.37 11.518C154.071 11.714 153.838 11.9847 153.67 12.33C153.502 12.6753 153.418 13.072 153.418 13.52V18H152.578ZM165.307 18V10.566H166.147V12.064L165.993 11.854C166.179 11.406 166.478 11.0513 166.889 10.79C167.309 10.5287 167.775 10.398 168.289 10.398C168.867 10.398 169.395 10.566 169.871 10.902C170.347 11.2287 170.678 11.6673 170.865 12.218L170.599 12.232C170.757 11.6627 171.07 11.2147 171.537 10.888C172.013 10.5613 172.54 10.398 173.119 10.398C173.613 10.398 174.066 10.5147 174.477 10.748C174.897 10.9813 175.233 11.308 175.485 11.728C175.746 12.1387 175.877 12.61 175.877 13.142V18H175.037V13.38C175.037 12.932 174.943 12.5493 174.757 12.232C174.579 11.9053 174.341 11.658 174.043 11.49C173.744 11.3127 173.408 11.224 173.035 11.224C172.633 11.224 172.279 11.322 171.971 11.518C171.672 11.714 171.434 11.9847 171.257 12.33C171.089 12.6753 171.005 13.072 171.005 13.52V18H170.165V13.38C170.165 12.932 170.076 12.5493 169.899 12.232C169.721 11.9053 169.479 11.658 169.171 11.49C168.872 11.3127 168.536 11.224 168.163 11.224C167.761 11.224 167.407 11.322 167.099 11.518C166.8 11.714 166.567 11.9847 166.399 12.33C166.231 12.6753 166.147 13.072 166.147 13.52V18H165.307ZM178.035 18V10.566H178.875V18H178.035ZM178.035 9.11V7.57H178.875V9.11H178.035ZM184.652 21.08C184.157 21.08 183.7 21.0007 183.28 20.842C182.86 20.6833 182.496 20.4687 182.188 20.198C181.88 19.9273 181.637 19.6193 181.46 19.274L182.216 18.868C182.421 19.2693 182.729 19.6007 183.14 19.862C183.56 20.1233 184.059 20.254 184.638 20.254C185.104 20.254 185.538 20.1607 185.94 19.974C186.341 19.7967 186.668 19.5167 186.92 19.134C187.181 18.7607 187.312 18.2893 187.312 17.72V15.83L187.466 16.026C187.204 16.6047 186.808 17.062 186.276 17.398C185.744 17.7247 185.151 17.888 184.498 17.888C183.807 17.888 183.186 17.72 182.636 17.384C182.085 17.048 181.651 16.5953 181.334 16.026C181.026 15.4567 180.872 14.8267 180.872 14.136C180.872 13.4453 181.026 12.82 181.334 12.26C181.651 11.6907 182.08 11.238 182.622 10.902C183.172 10.566 183.798 10.398 184.498 10.398C185.151 10.398 185.739 10.5613 186.262 10.888C186.784 11.2053 187.186 11.6347 187.466 12.176L187.312 12.442V10.566H188.152V17.72C188.152 18.364 188.002 18.938 187.704 19.442C187.405 19.9553 186.99 20.3567 186.458 20.646C185.935 20.9353 185.333 21.08 184.652 21.08ZM184.526 17.048C185.048 17.048 185.515 16.9173 185.926 16.656C186.346 16.3947 186.677 16.0447 186.92 15.606C187.162 15.158 187.284 14.668 187.284 14.136C187.284 13.604 187.162 13.1187 186.92 12.68C186.677 12.2413 186.346 11.8913 185.926 11.63C185.515 11.3687 185.048 11.238 184.526 11.238C183.994 11.238 183.518 11.3687 183.098 11.63C182.678 11.8913 182.351 12.2413 182.118 12.68C181.884 13.1187 181.768 13.604 181.768 14.136C181.768 14.668 181.884 15.158 182.118 15.606C182.351 16.0447 182.673 16.3947 183.084 16.656C183.504 16.9173 183.984 17.048 184.526 17.048ZM190.463 18V10.566H191.303V11.952L191.149 11.826C191.307 11.406 191.578 11.0747 191.961 10.832C192.353 10.5893 192.815 10.468 193.347 10.468H193.823V11.308H193.249C192.642 11.308 192.166 11.504 191.821 11.896C191.475 12.2787 191.303 12.7967 191.303 13.45V18H190.463ZM197.335 18.168C196.868 18.168 196.453 18.0793 196.089 17.902C195.725 17.7247 195.436 17.4773 195.221 17.16C195.006 16.8427 194.899 16.4787 194.899 16.068C194.899 15.704 194.978 15.3633 195.137 15.046C195.296 14.7287 195.552 14.458 195.907 14.234C196.262 14.0007 196.724 13.8373 197.293 13.744L200.303 13.24V14.024L197.517 14.486C196.882 14.5887 196.434 14.78 196.173 15.06C195.912 15.34 195.781 15.6667 195.781 16.04C195.781 16.4413 195.93 16.768 196.229 17.02C196.537 17.272 196.924 17.398 197.391 17.398C197.932 17.398 198.404 17.2767 198.805 17.034C199.206 16.782 199.519 16.4553 199.743 16.054C199.967 15.6433 200.079 15.1953 200.079 14.71V12.862C200.079 12.3673 199.902 11.966 199.547 11.658C199.192 11.35 198.73 11.196 198.161 11.196C197.694 11.196 197.274 11.3127 196.901 11.546C196.528 11.7793 196.243 12.0827 196.047 12.456L195.291 12.05C195.431 11.7513 195.646 11.476 195.935 11.224C196.224 10.972 196.56 10.7713 196.943 10.622C197.326 10.4727 197.732 10.398 198.161 10.398C198.702 10.398 199.178 10.5053 199.589 10.72C200.009 10.9253 200.336 11.2147 200.569 11.588C200.802 11.952 200.919 12.3767 200.919 12.862V18H200.079V16.446L200.177 16.516C200.056 16.8147 199.855 17.09 199.575 17.342C199.295 17.5847 198.964 17.7853 198.581 17.944C198.208 18.0933 197.792 18.168 197.335 18.168ZM205.798 18.084C205.182 18.084 204.706 17.9113 204.37 17.566C204.034 17.2113 203.866 16.698 203.866 16.026V11.364H202.466V10.566H202.998C203.278 10.566 203.492 10.482 203.642 10.314C203.791 10.146 203.866 9.91733 203.866 9.628V8.83H204.706V10.566H206.33V11.364H204.706V16.026C204.706 16.2313 204.734 16.432 204.79 16.628C204.855 16.824 204.976 16.9827 205.154 17.104C205.331 17.2253 205.588 17.286 205.924 17.286C205.998 17.286 206.087 17.2813 206.19 17.272C206.302 17.2627 206.39 17.2533 206.456 17.244V18C206.353 18.028 206.236 18.0467 206.106 18.056C205.975 18.0747 205.872 18.084 205.798 18.084ZM208.469 18V10.566H209.309V18H208.469ZM208.469 9.11V7.57H209.309V9.11H208.469ZM215.071 18.168C214.362 18.168 213.723 18 213.153 17.664C212.584 17.328 212.131 16.866 211.795 16.278C211.469 15.6807 211.305 15.0133 211.305 14.276C211.305 13.5387 211.469 12.876 211.795 12.288C212.131 11.7 212.579 11.238 213.139 10.902C213.709 10.566 214.353 10.398 215.071 10.398C215.781 10.398 216.42 10.566 216.989 10.902C217.559 11.238 218.007 11.7 218.333 12.288C218.66 12.8667 218.823 13.5293 218.823 14.276C218.823 15.0227 218.655 15.69 218.319 16.278C217.983 16.866 217.531 17.328 216.961 17.664C216.401 18 215.771 18.168 215.071 18.168ZM215.071 17.342C215.603 17.342 216.084 17.2113 216.513 16.95C216.952 16.6793 217.297 16.3107 217.549 15.844C217.801 15.3773 217.927 14.8547 217.927 14.276C217.927 13.6973 217.801 13.1793 217.549 12.722C217.297 12.2647 216.957 11.9007 216.527 11.63C216.098 11.3593 215.613 11.224 215.071 11.224C214.53 11.224 214.04 11.3593 213.601 11.63C213.172 11.8913 212.831 12.2553 212.579 12.722C212.327 13.1793 212.201 13.6973 212.201 14.276C212.201 14.8547 212.327 15.3773 212.579 15.844C212.841 16.3107 213.186 16.6793 213.615 16.95C214.045 17.2113 214.53 17.342 215.071 17.342ZM220.842 18V10.566H221.682V12.064L221.472 12.008C221.64 11.5133 221.938 11.1213 222.368 10.832C222.806 10.5427 223.315 10.398 223.894 10.398C224.407 10.398 224.874 10.5147 225.294 10.748C225.714 10.9813 226.05 11.308 226.302 11.728C226.554 12.1387 226.68 12.61 226.68 13.142V18H225.84V13.38C225.84 12.932 225.751 12.5493 225.574 12.232C225.396 11.9053 225.149 11.658 224.832 11.49C224.524 11.3127 224.169 11.224 223.768 11.224C223.348 11.224 222.979 11.322 222.662 11.518C222.344 11.714 222.102 11.9847 221.934 12.33C221.766 12.6753 221.682 13.072 221.682 13.52V18H220.842ZM4.55 42.168C3.84067 42.168 3.206 42 2.646 41.664C2.09533 41.3187 1.65667 40.852 1.33 40.264C1.01267 39.676 0.854 39.0133 0.854 38.276C0.854 37.5293 1.01267 36.8667 1.33 36.288C1.65667 35.7 2.09533 35.238 2.646 34.902C3.206 34.566 3.84067 34.398 4.55 34.398C5.01667 34.398 5.446 34.4773 5.838 34.636C6.23933 34.7947 6.594 35.0093 6.902 35.28C7.21 35.5507 7.44333 35.8633 7.602 36.218L6.86 36.61C6.636 36.1807 6.32333 35.84 5.922 35.588C5.52067 35.336 5.06333 35.21 4.55 35.21C4.018 35.21 3.53733 35.3407 3.108 35.602C2.688 35.8633 2.352 36.2273 2.1 36.694C1.848 37.1513 1.722 37.6787 1.722 38.276C1.722 38.8733 1.848 39.4053 2.1 39.872C2.352 40.3293 2.688 40.6887 3.108 40.95C3.53733 41.2113 4.018 41.342 4.55 41.342C5.06333 41.342 5.52067 41.216 5.922 40.964C6.32333 40.712 6.636 40.3667 6.86 39.928L7.602 40.334C7.44333 40.6793 7.21 40.992 6.902 41.272C6.594 41.5427 6.23933 41.762 5.838 41.93C5.446 42.0887 5.01667 42.168 4.55 42.168ZM13.0692 42.168C12.3599 42.168 11.7206 42 11.1512 41.664C10.5819 41.328 10.1292 40.866 9.79322 40.278C9.46655 39.6807 9.30322 39.0133 9.30322 38.276C9.30322 37.5387 9.46655 36.876 9.79322 36.288C10.1292 35.7 10.5772 35.238 11.1372 34.902C11.7066 34.566 12.3506 34.398 13.0692 34.398C13.7786 34.398 14.4179 34.566 14.9872 34.902C15.5566 35.238 16.0046 35.7 16.3312 36.288C16.6579 36.8667 16.8212 37.5293 16.8212 38.276C16.8212 39.0227 16.6532 39.69 16.3172 40.278C15.9812 40.866 15.5286 41.328 14.9592 41.664C14.3992 42 13.7692 42.168 13.0692 42.168ZM13.0692 41.342C13.6012 41.342 14.0819 41.2113 14.5112 40.95C14.9499 40.6793 15.2952 40.3107 15.5472 39.844C15.7992 39.3773 15.9252 38.8547 15.9252 38.276C15.9252 37.6973 15.7992 37.1793 15.5472 36.722C15.2952 36.2647 14.9546 35.9007 14.5252 35.63C14.0959 35.3593 13.6106 35.224 13.0692 35.224C12.5279 35.224 12.0379 35.3593 11.5992 35.63C11.1699 35.8913 10.8292 36.2553 10.5772 36.722C10.3252 37.1793 10.1992 37.6973 10.1992 38.276C10.1992 38.8547 10.3252 39.3773 10.5772 39.844C10.8386 40.3107 11.1839 40.6793 11.6132 40.95C12.0426 41.2113 12.5279 41.342 13.0692 41.342ZM18.8397 42V34.566H19.6797V36.064L19.4697 36.008C19.6377 35.5133 19.9364 35.1213 20.3657 34.832C20.8044 34.5427 21.3131 34.398 21.8917 34.398C22.4051 34.398 22.8717 34.5147 23.2917 34.748C23.7117 34.9813 24.0477 35.308 24.2997 35.728C24.5517 36.1387 24.6777 36.61 24.6777 37.142V42H23.8377V37.38C23.8377 36.932 23.7491 36.5493 23.5717 36.232C23.3944 35.9053 23.1471 35.658 22.8297 35.49C22.5217 35.3127 22.1671 35.224 21.7657 35.224C21.3457 35.224 20.9771 35.322 20.6597 35.518C20.3424 35.714 20.0997 35.9847 19.9317 36.33C19.7637 36.6753 19.6797 37.072 19.6797 37.52V42H18.8397ZM29.3575 42.168C28.6668 42.168 28.0601 41.9953 27.5375 41.65C27.0148 41.3047 26.6321 40.8333 26.3895 40.236L27.1175 39.9C27.3508 40.3573 27.6635 40.7213 28.0555 40.992C28.4475 41.2533 28.8815 41.384 29.3575 41.384C29.8428 41.384 30.2488 41.2673 30.5755 41.034C30.9115 40.7913 31.0795 40.474 31.0795 40.082C31.0795 39.8393 31.0141 39.634 30.8835 39.466C30.7621 39.298 30.6035 39.1627 30.4075 39.06C30.2115 38.948 30.0015 38.864 29.7775 38.808L28.6295 38.486C27.9855 38.3087 27.5095 38.0473 27.2015 37.702C26.9028 37.3567 26.7535 36.9507 26.7535 36.484C26.7535 36.064 26.8608 35.7 27.0755 35.392C27.2901 35.0747 27.5795 34.832 27.9435 34.664C28.3075 34.4867 28.7088 34.398 29.1475 34.398C29.7635 34.398 30.3235 34.5567 30.8275 34.874C31.3315 35.1913 31.6861 35.6207 31.8915 36.162L31.1355 36.512C30.9395 36.092 30.6641 35.7653 30.3095 35.532C29.9548 35.2893 29.5628 35.168 29.1335 35.168C28.6855 35.168 28.3215 35.2893 28.0415 35.532C27.7615 35.7653 27.6215 36.064 27.6215 36.428C27.6215 36.6613 27.6775 36.8573 27.7895 37.016C27.9015 37.1653 28.0461 37.2913 28.2235 37.394C28.4101 37.4873 28.6015 37.562 28.7975 37.618L30.0435 37.982C30.6501 38.15 31.1168 38.416 31.4435 38.78C31.7795 39.144 31.9475 39.5733 31.9475 40.068C31.9475 40.4693 31.8355 40.8287 31.6115 41.146C31.3875 41.4633 31.0795 41.7153 30.6875 41.902C30.2955 42.0793 29.8521 42.168 29.3575 42.168ZM36.5928 42.168C36.0888 42.168 35.6222 42.0513 35.1928 41.818C34.7728 41.5847 34.4368 41.258 34.1848 40.838C33.9328 40.4087 33.8068 39.9 33.8068 39.312V34.566H34.6468V39.242C34.6468 39.6807 34.7355 40.0587 34.9128 40.376C35.0995 40.684 35.3468 40.922 35.6548 41.09C35.9722 41.258 36.3268 41.342 36.7188 41.342C37.1482 41.342 37.5168 41.244 37.8248 41.048C38.1422 40.852 38.3848 40.5813 38.5528 40.236C38.7208 39.8813 38.8048 39.48 38.8048 39.032V34.566H39.6448V42H38.8048V40.488L39.0148 40.558C38.8468 41.0433 38.5482 41.4353 38.1188 41.734C37.6895 42.0233 37.1808 42.168 36.5928 42.168ZM41.9725 42V31.402H42.8125V42H41.9725ZM47.8191 42.084C47.2031 42.084 46.7271 41.9113 46.3911 41.566C46.0551 41.2113 45.8871 40.698 45.8871 40.026V35.364H44.4871V34.566H45.0191C45.2991 34.566 45.5137 34.482 45.6631 34.314C45.8124 34.146 45.8871 33.9173 45.8871 33.628V32.83H46.7271V34.566H48.3511V35.364H46.7271V40.026C46.7271 40.2313 46.7551 40.432 46.8111 40.628C46.8764 40.824 46.9977 40.9827 47.1751 41.104C47.3524 41.2253 47.6091 41.286 47.9451 41.286C48.0197 41.286 48.1084 41.2813 48.2111 41.272C48.3231 41.2627 48.4117 41.2533 48.4771 41.244V42C48.3744 42.028 48.2577 42.0467 48.1271 42.056C47.9964 42.0747 47.8937 42.084 47.8191 42.084ZM52.413 42.168C51.9464 42.168 51.531 42.0793 51.167 41.902C50.803 41.7247 50.5137 41.4773 50.299 41.16C50.0844 40.8427 49.977 40.4787 49.977 40.068C49.977 39.704 50.0564 39.3633 50.215 39.046C50.3737 38.7287 50.6304 38.458 50.985 38.234C51.3397 38.0007 51.8017 37.8373 52.371 37.744L55.381 37.24V38.024L52.595 38.486C51.9604 38.5887 51.5124 38.78 51.251 39.06C50.9897 39.34 50.859 39.6667 50.859 40.04C50.859 40.4413 51.0084 40.768 51.307 41.02C51.615 41.272 52.0024 41.398 52.469 41.398C53.0104 41.398 53.4817 41.2767 53.883 41.034C54.2844 40.782 54.597 40.4553 54.821 40.054C55.045 39.6433 55.157 39.1953 55.157 38.71V36.862C55.157 36.3673 54.9797 35.966 54.625 35.658C54.2704 35.35 53.8084 35.196 53.239 35.196C52.7724 35.196 52.3524 35.3127 51.979 35.546C51.6057 35.7793 51.321 36.0827 51.125 36.456L50.369 36.05C50.509 35.7513 50.7237 35.476 51.013 35.224C51.3024 34.972 51.6384 34.7713 52.021 34.622C52.4037 34.4727 52.8097 34.398 53.239 34.398C53.7804 34.398 54.2564 34.5053 54.667 34.72C55.087 34.9253 55.4137 35.2147 55.647 35.588C55.8804 35.952 55.997 36.3767 55.997 36.862V42H55.157V40.446L55.255 40.516C55.1337 40.8147 54.933 41.09 54.653 41.342C54.373 41.5847 54.0417 41.7853 53.659 41.944C53.2857 42.0933 52.8704 42.168 52.413 42.168ZM58.3104 42V34.566H59.1504V36.064L58.9404 36.008C59.1084 35.5133 59.4071 35.1213 59.8364 34.832C60.2751 34.5427 60.7838 34.398 61.3624 34.398C61.8758 34.398 62.3424 34.5147 62.7624 34.748C63.1824 34.9813 63.5184 35.308 63.7704 35.728C64.0224 36.1387 64.1484 36.61 64.1484 37.142V42H63.3084V37.38C63.3084 36.932 63.2198 36.5493 63.0424 36.232C62.8651 35.9053 62.6178 35.658 62.3004 35.49C61.9924 35.3127 61.6378 35.224 61.2364 35.224C60.8164 35.224 60.4478 35.322 60.1304 35.518C59.8131 35.714 59.5704 35.9847 59.4024 36.33C59.2344 36.6753 59.1504 37.072 59.1504 37.52V42H58.3104ZM69.7102 42.168C69.0008 42.168 68.3662 42 67.8062 41.664C67.2555 41.3187 66.8168 40.852 66.4902 40.264C66.1728 39.676 66.0142 39.0133 66.0142 38.276C66.0142 37.5293 66.1728 36.8667 66.4902 36.288C66.8168 35.7 67.2555 35.238 67.8062 34.902C68.3662 34.566 69.0008 34.398 69.7102 34.398C70.1768 34.398 70.6062 34.4773 70.9982 34.636C71.3995 34.7947 71.7542 35.0093 72.0622 35.28C72.3702 35.5507 72.6035 35.8633 72.7622 36.218L72.0202 36.61C71.7962 36.1807 71.4835 35.84 71.0822 35.588C70.6808 35.336 70.2235 35.21 69.7102 35.21C69.1782 35.21 68.6975 35.3407 68.2682 35.602C67.8482 35.8633 67.5122 36.2273 67.2602 36.694C67.0082 37.1513 66.8822 37.6787 66.8822 38.276C66.8822 38.8733 67.0082 39.4053 67.2602 39.872C67.5122 40.3293 67.8482 40.6887 68.2682 40.95C68.6975 41.2113 69.1782 41.342 69.7102 41.342C70.2235 41.342 70.6808 41.216 71.0822 40.964C71.4835 40.712 71.7962 40.3667 72.0202 39.928L72.7622 40.334C72.6035 40.6793 72.3702 40.992 72.0622 41.272C71.7542 41.5427 71.3995 41.762 70.9982 41.93C70.6062 42.0887 70.1768 42.168 69.7102 42.168ZM74.7994 45.08C74.6687 45.08 74.524 45.066 74.3654 45.038C74.216 45.0193 74.0714 44.9867 73.9314 44.94V44.156C74.0434 44.184 74.1694 44.2073 74.3094 44.226C74.4587 44.2447 74.594 44.254 74.7154 44.254C75.1727 44.2447 75.532 44.1327 75.7934 43.918C76.0547 43.7033 76.2927 43.3487 76.5074 42.854L77.0394 41.608V42.392L73.8894 34.566H74.8134L77.5154 41.314H77.1794L79.8954 34.566H80.8334L77.3614 43.036C77.2307 43.344 77.058 43.6567 76.8434 43.974C76.6287 44.2913 76.3534 44.5527 76.0174 44.758C75.6907 44.9727 75.2847 45.08 74.7994 45.08ZM85.3168 42V35.364H83.8048V34.566H85.3168V33.852C85.3168 33.3293 85.4194 32.886 85.6248 32.522C85.8394 32.158 86.1288 31.8827 86.4928 31.696C86.8568 31.5 87.2581 31.402 87.6968 31.402C87.7994 31.402 87.9021 31.4113 88.0048 31.43C88.1168 31.4393 88.2101 31.4533 88.2848 31.472V32.228C88.2101 32.2093 88.1214 32.2 88.0188 32.2C87.9161 32.1907 87.8368 32.186 87.7808 32.186C87.2954 32.186 86.9034 32.326 86.6048 32.606C86.3061 32.8767 86.1568 33.292 86.1568 33.852V34.566H90.3848V35.364H86.1568V42H85.3168ZM89.6288 42V34.566H90.4688V42H89.6288ZM92.5585 42V34.566H93.3985V35.952L93.2445 35.826C93.4032 35.406 93.6738 35.0747 94.0565 34.832C94.4485 34.5893 94.9105 34.468 95.4425 34.468H95.9185V35.308H95.3445C94.7378 35.308 94.2618 35.504 93.9165 35.896C93.5712 36.2787 93.3985 36.7967 93.3985 37.45V42H92.5585ZM97.3026 42V34.566H98.1426V36.064L97.9886 35.854C98.1753 35.406 98.474 35.0513 98.8846 34.79C99.3046 34.5287 99.7713 34.398 100.285 34.398C100.863 34.398 101.391 34.566 101.867 34.902C102.343 35.2287 102.674 35.6673 102.861 36.218L102.595 36.232C102.753 35.6627 103.066 35.2147 103.533 34.888C104.009 34.5613 104.536 34.398 105.115 34.398C105.609 34.398 106.062 34.5147 106.473 34.748C106.893 34.9813 107.229 35.308 107.481 35.728C107.742 36.1387 107.873 36.61 107.873 37.142V42H107.033V37.38C107.033 36.932 106.939 36.5493 106.753 36.232C106.575 35.9053 106.337 35.658 106.039 35.49C105.74 35.3127 105.404 35.224 105.031 35.224C104.629 35.224 104.275 35.322 103.967 35.518C103.668 35.714 103.43 35.9847 103.253 36.33C103.085 36.6753 103.001 37.072 103.001 37.52V42H102.161V37.38C102.161 36.932 102.072 36.5493 101.895 36.232C101.717 35.9053 101.475 35.658 101.167 35.49C100.868 35.3127 100.532 35.224 100.159 35.224C99.7573 35.224 99.4026 35.322 99.0946 35.518C98.796 35.714 98.5626 35.9847 98.3946 36.33C98.2266 36.6753 98.1426 37.072 98.1426 37.52V42H97.3026ZM112.342 42V34.566H113.182V42H112.342ZM112.342 33.11V31.57H113.182V33.11H112.342ZM115.486 42V34.566H116.326V36.064L116.116 36.008C116.284 35.5133 116.583 35.1213 117.012 34.832C117.451 34.5427 117.96 34.398 118.538 34.398C119.052 34.398 119.518 34.5147 119.938 34.748C120.358 34.9813 120.694 35.308 120.946 35.728C121.198 36.1387 121.324 36.61 121.324 37.142V42H120.484V37.38C120.484 36.932 120.396 36.5493 120.218 36.232C120.041 35.9053 119.794 35.658 119.476 35.49C119.168 35.3127 118.814 35.224 118.412 35.224C117.992 35.224 117.624 35.322 117.306 35.518C116.989 35.714 116.746 35.9847 116.578 36.33C116.41 36.6753 116.326 37.072 116.326 37.52V42H115.486ZM130.652 42.168C129.934 42.168 129.271 42.0373 128.664 41.776C128.058 41.5053 127.526 41.1273 127.068 40.642C126.62 40.1567 126.27 39.5873 126.018 38.934C125.776 38.2807 125.654 37.562 125.654 36.778C125.654 36.0033 125.776 35.2893 126.018 34.636C126.27 33.9733 126.62 33.404 127.068 32.928C127.526 32.4427 128.058 32.0693 128.664 31.808C129.271 31.5373 129.934 31.402 130.652 31.402C131.352 31.402 131.982 31.528 132.542 31.78C133.102 32.032 133.574 32.354 133.956 32.746C134.339 33.138 134.614 33.544 134.782 33.964L133.928 34.342C133.648 33.7167 133.224 33.2127 132.654 32.83C132.094 32.4473 131.427 32.256 130.652 32.256C129.859 32.256 129.15 32.4473 128.524 32.83C127.908 33.2127 127.428 33.7447 127.082 34.426C126.737 35.098 126.564 35.882 126.564 36.778C126.564 37.674 126.737 38.4627 127.082 39.144C127.428 39.8253 127.908 40.3573 128.524 40.74C129.15 41.1133 129.859 41.3 130.652 41.3C131.427 41.3 132.094 41.1133 132.654 40.74C133.224 40.3573 133.648 39.8533 133.928 39.228L134.782 39.606C134.614 40.0167 134.339 40.418 133.956 40.81C133.574 41.202 133.102 41.5287 132.542 41.79C131.982 42.042 131.352 42.168 130.652 42.168ZM138.792 42.168C138.325 42.168 137.91 42.0793 137.546 41.902C137.182 41.7247 136.893 41.4773 136.678 41.16C136.463 40.8427 136.356 40.4787 136.356 40.068C136.356 39.704 136.435 39.3633 136.594 39.046C136.753 38.7287 137.009 38.458 137.364 38.234C137.719 38.0007 138.181 37.8373 138.75 37.744L141.76 37.24V38.024L138.974 38.486C138.339 38.5887 137.891 38.78 137.63 39.06C137.369 39.34 137.238 39.6667 137.238 40.04C137.238 40.4413 137.387 40.768 137.686 41.02C137.994 41.272 138.381 41.398 138.848 41.398C139.389 41.398 139.861 41.2767 140.262 41.034C140.663 40.782 140.976 40.4553 141.2 40.054C141.424 39.6433 141.536 39.1953 141.536 38.71V36.862C141.536 36.3673 141.359 35.966 141.004 35.658C140.649 35.35 140.187 35.196 139.618 35.196C139.151 35.196 138.731 35.3127 138.358 35.546C137.985 35.7793 137.7 36.0827 137.504 36.456L136.748 36.05C136.888 35.7513 137.103 35.476 137.392 35.224C137.681 34.972 138.017 34.7713 138.4 34.622C138.783 34.4727 139.189 34.398 139.618 34.398C140.159 34.398 140.635 34.5053 141.046 34.72C141.466 34.9253 141.793 35.2147 142.026 35.588C142.259 35.952 142.376 36.3767 142.376 36.862V42H141.536V40.446L141.634 40.516C141.513 40.8147 141.312 41.09 141.032 41.342C140.752 41.5847 140.421 41.7853 140.038 41.944C139.665 42.0933 139.249 42.168 138.792 42.168ZM144.689 42V34.566H145.529V36.064L145.319 36.008C145.487 35.5133 145.786 35.1213 146.215 34.832C146.654 34.5427 147.163 34.398 147.741 34.398C148.255 34.398 148.721 34.5147 149.141 34.748C149.561 34.9813 149.897 35.308 150.149 35.728C150.401 36.1387 150.527 36.61 150.527 37.142V42H149.687V37.38C149.687 36.932 149.599 36.5493 149.421 36.232C149.244 35.9053 148.997 35.658 148.679 35.49C148.371 35.3127 148.017 35.224 147.615 35.224C147.195 35.224 146.827 35.322 146.509 35.518C146.192 35.714 145.949 35.9847 145.781 36.33C145.613 36.6753 145.529 37.072 145.529 37.52V42H144.689ZM154.829 42.168C154.362 42.168 153.947 42.0793 153.583 41.902C153.219 41.7247 152.93 41.4773 152.715 41.16C152.5 40.8427 152.393 40.4787 152.393 40.068C152.393 39.704 152.472 39.3633 152.631 39.046C152.79 38.7287 153.046 38.458 153.401 38.234C153.756 38.0007 154.218 37.8373 154.787 37.744L157.797 37.24V38.024L155.011 38.486C154.376 38.5887 153.928 38.78 153.667 39.06C153.406 39.34 153.275 39.6667 153.275 40.04C153.275 40.4413 153.424 40.768 153.723 41.02C154.031 41.272 154.418 41.398 154.885 41.398C155.426 41.398 155.898 41.2767 156.299 41.034C156.7 40.782 157.013 40.4553 157.237 40.054C157.461 39.6433 157.573 39.1953 157.573 38.71V36.862C157.573 36.3673 157.396 35.966 157.041 35.658C156.686 35.35 156.224 35.196 155.655 35.196C155.188 35.196 154.768 35.3127 154.395 35.546C154.022 35.7793 153.737 36.0827 153.541 36.456L152.785 36.05C152.925 35.7513 153.14 35.476 153.429 35.224C153.718 34.972 154.054 34.7713 154.437 34.622C154.82 34.4727 155.226 34.398 155.655 34.398C156.196 34.398 156.672 34.5053 157.083 34.72C157.503 34.9253 157.83 35.2147 158.063 35.588C158.296 35.952 158.413 36.3767 158.413 36.862V42H157.573V40.446L157.671 40.516C157.55 40.8147 157.349 41.09 157.069 41.342C156.789 41.5847 156.458 41.7853 156.075 41.944C155.702 42.0933 155.286 42.168 154.829 42.168ZM164.072 42.168C163.382 42.168 162.756 42 162.196 41.664C161.646 41.3187 161.212 40.852 160.894 40.264C160.577 39.676 160.418 39.0133 160.418 38.276C160.418 37.5387 160.577 36.876 160.894 36.288C161.212 35.7 161.646 35.238 162.196 34.902C162.756 34.566 163.382 34.398 164.072 34.398C164.754 34.398 165.36 34.5613 165.892 34.888C166.424 35.2053 166.826 35.6347 167.096 36.176L166.956 36.442V31.402H167.796V42H166.956V40.11L167.096 40.306C166.835 40.8847 166.434 41.342 165.892 41.678C165.36 42.0047 164.754 42.168 164.072 42.168ZM164.1 41.328C164.642 41.328 165.122 41.1973 165.542 40.936C165.972 40.6653 166.312 40.3013 166.564 39.844C166.816 39.3773 166.942 38.8547 166.942 38.276C166.942 37.6973 166.816 37.1793 166.564 36.722C166.312 36.2647 165.972 35.9053 165.542 35.644C165.122 35.3733 164.642 35.238 164.1 35.238C163.568 35.238 163.092 35.3733 162.672 35.644C162.252 35.9053 161.921 36.2647 161.678 36.722C161.436 37.1793 161.314 37.6973 161.314 38.276C161.314 38.8547 161.436 39.3773 161.678 39.844C161.921 40.3013 162.252 40.6653 162.672 40.936C163.092 41.1973 163.568 41.328 164.1 41.328ZM172.247 42.168C171.78 42.168 171.365 42.0793 171.001 41.902C170.637 41.7247 170.348 41.4773 170.133 41.16C169.918 40.8427 169.811 40.4787 169.811 40.068C169.811 39.704 169.89 39.3633 170.049 39.046C170.208 38.7287 170.464 38.458 170.819 38.234C171.174 38.0007 171.636 37.8373 172.205 37.744L175.215 37.24V38.024L172.429 38.486C171.794 38.5887 171.346 38.78 171.085 39.06C170.824 39.34 170.693 39.6667 170.693 40.04C170.693 40.4413 170.842 40.768 171.141 41.02C171.449 41.272 171.836 41.398 172.303 41.398C172.844 41.398 173.316 41.2767 173.717 41.034C174.118 40.782 174.431 40.4553 174.655 40.054C174.879 39.6433 174.991 39.1953 174.991 38.71V36.862C174.991 36.3673 174.814 35.966 174.459 35.658C174.104 35.35 173.642 35.196 173.073 35.196C172.606 35.196 172.186 35.3127 171.813 35.546C171.44 35.7793 171.155 36.0827 170.959 36.456L170.203 36.05C170.343 35.7513 170.558 35.476 170.847 35.224C171.136 34.972 171.472 34.7713 171.855 34.622C172.238 34.4727 172.644 34.398 173.073 34.398C173.614 34.398 174.09 34.5053 174.501 34.72C174.921 34.9253 175.248 35.2147 175.481 35.588C175.714 35.952 175.831 36.3767 175.831 36.862V42H174.991V40.446L175.089 40.516C174.968 40.8147 174.767 41.09 174.487 41.342C174.207 41.5847 173.876 41.7853 173.493 41.944C173.12 42.0933 172.704 42.168 172.247 42.168Z" fill="white"/>
</svg>
