<svg width="24" height="24" viewBox="0 0 24 24" fill="none" xmlns="http://www.w3.org/2000/svg">
<path d="M11.9997 2.15991C17.4255 2.15991 21.8397 6.57405 21.8397 11.9999C21.8397 17.4258 17.4255 21.8399 11.9997 21.8399C6.5738 21.8399 2.15967 17.4258 2.15967 11.9999C2.15967 6.57405 6.5738 2.15991 11.9997 2.15991ZM9.53967 16.2114C11.8825 16.2114 13.7888 14.3222 13.7888 11.9999C13.7888 11.5061 13.388 11.1054 12.8942 11.1054H9.83308C9.33929 11.1054 8.93853 11.5061 8.93853 11.9999C8.93853 12.4937 9.33929 12.8945 9.83308 12.8945H11.8257C11.4634 13.7886 10.5751 14.4223 9.53967 14.4223C8.18354 14.4223 7.07967 13.3359 7.07967 11.9999C7.07967 10.6639 8.18354 9.57748 9.53967 9.57748C10.0648 9.57748 10.5653 9.73805 10.9879 10.0422C11.3896 10.3316 11.9482 10.239 12.2363 9.83824C12.5252 9.43749 12.4335 8.8784 12.0328 8.58946C11.3037 8.06525 10.4418 7.78794 9.53967 7.78794C7.19685 7.78794 5.29058 9.67722 5.29058 11.9995C5.29058 14.3217 7.19685 16.2114 9.53967 16.2114ZM18.0378 12.8945C18.5316 12.8945 18.9324 12.4937 18.9324 11.9999C18.9324 11.5061 18.5316 11.1054 18.0378 11.1054H17.6134V10.4568C17.6134 9.96303 17.2126 9.56227 16.7188 9.56227C16.2251 9.56227 15.8243 9.96303 15.8243 10.4568V11.1054H15.3542C14.8604 11.1054 14.4597 11.5061 14.4597 11.9999C14.4597 12.4937 14.8604 12.8945 15.3542 12.8945H15.8243V13.543C15.8243 14.0368 16.2251 14.4375 16.7188 14.4375C17.2126 14.4375 17.6134 14.0368 17.6134 13.543V12.8945H18.0378Z" fill="white"/>
</svg>
