<svg width="20" height="20" viewBox="0 0 20 20" fill="none" xmlns="http://www.w3.org/2000/svg">
<path d="M9.84 0C15.2659 0 19.68 4.41413 19.68 9.84C19.68 15.2659 15.2659 19.68 9.84 19.68C4.41413 19.68 0 15.2659 0 9.84C0 4.41413 4.41413 0 9.84 0ZM7.38 14.0515C9.72281 14.0515 11.6291 12.1622 11.6291 9.84C11.6291 9.34621 11.2283 8.94545 10.7345 8.94545H7.67341C7.17962 8.94545 6.77886 9.34621 6.77886 9.84C6.77886 10.3338 7.17962 10.7345 7.67341 10.7345H9.66601C9.30372 11.6286 8.41544 12.2624 7.38 12.2624C6.02387 12.2624 4.92 11.176 4.92 9.84C4.92 8.504 6.02387 7.41757 7.38 7.41757C7.9051 7.41757 8.4056 7.57814 8.82827 7.88229C9.22992 8.17167 9.78856 8.07909 10.0766 7.67833C10.3655 7.27757 10.2739 6.71848 9.8731 6.42954C9.14404 5.90534 8.28215 5.62803 7.38 5.62803C5.03719 5.62803 3.13091 7.51731 3.13091 9.83955C3.13091 12.1618 5.03719 14.0515 7.38 14.0515ZM15.8782 10.7345C16.372 10.7345 16.7727 10.3338 16.7727 9.84C16.7727 9.34621 16.372 8.94545 15.8782 8.94545H15.4537V8.29691C15.4537 7.80312 15.053 7.40236 14.5592 7.40236C14.0654 7.40236 13.6646 7.80312 13.6646 8.29691V8.94545H13.1945C12.7008 8.94545 12.3 9.34621 12.3 9.84C12.3 10.3338 12.7008 10.7345 13.1945 10.7345H13.6646V11.3831C13.6646 11.8769 14.0654 12.2776 14.5592 12.2776C15.053 12.2776 15.4537 11.8769 15.4537 11.3831V10.7345H15.8782Z" fill="white"/>
</svg>
