<svg width="115" height="17" viewBox="0 0 115 17" fill="none" xmlns="http://www.w3.org/2000/svg">
<path d="M7.26634 6.56463C7.18939 6.31534 7.08322 6.09221 6.9478 5.89524C6.81546 5.69519 6.65542 5.52438 6.46768 5.38281C6.28303 5.24124 6.07067 5.13506 5.83061 5.06428C5.59055 4.99041 5.32895 4.95348 5.04581 4.95348C4.538 4.95348 4.08558 5.0812 3.68857 5.33665C3.29155 5.59209 2.97917 5.96757 2.75142 6.46307C2.52675 6.95549 2.41442 7.55563 2.41442 8.26349C2.41442 8.97751 2.52675 9.58227 2.75142 10.0778C2.97609 10.5733 3.28847 10.9503 3.68857 11.2088C4.08866 11.4643 4.55339 11.592 5.08274 11.592C5.56286 11.592 5.97834 11.4996 6.32919 11.315C6.68312 11.1303 6.95549 10.8687 7.14631 10.5302C7.33712 10.1886 7.43253 9.78847 7.43253 9.3299L7.82031 9.38991H5.25355V8.05114H9.08984V9.18679C9.08984 9.99621 8.9175 10.6964 8.5728 11.2873C8.2281 11.8782 7.75414 12.3337 7.15092 12.6538C6.5477 12.9708 5.85523 13.1293 5.07351 13.1293C4.20253 13.1293 3.43774 12.9338 2.77912 12.543C2.12358 12.149 1.61115 11.5904 1.24183 10.8672C0.875592 10.1409 0.692472 9.27912 0.692472 8.28196C0.692472 7.5187 0.800189 6.837 1.01562 6.23686C1.23414 5.63672 1.53883 5.12737 1.92969 4.70881C2.32055 4.28717 2.77912 3.96709 3.3054 3.74858C3.83168 3.52699 4.40412 3.41619 5.02273 3.41619C5.54593 3.41619 6.03374 3.49313 6.48615 3.64702C6.93857 3.79782 7.3402 4.01326 7.69105 4.29332C8.04498 4.57339 8.33582 4.90578 8.56357 5.29048C8.79131 5.67519 8.94058 6.09991 9.01136 6.56463H7.26634ZM13.8113 13.1385C13.1004 13.1385 12.4864 12.9908 11.9694 12.6953C11.4554 12.3968 11.0599 11.9751 10.7829 11.4304C10.5059 10.8826 10.3675 10.2378 10.3675 9.49609C10.3675 8.76669 10.5059 8.12654 10.7829 7.57564C11.063 7.02166 11.4539 6.59079 11.9555 6.28303C12.4572 5.97218 13.0465 5.81676 13.7236 5.81676C14.1607 5.81676 14.5731 5.88755 14.9608 6.02912C15.3517 6.16761 15.6964 6.38305 15.9949 6.67543C16.2965 6.9678 16.5335 7.3402 16.7059 7.79261C16.8782 8.24195 16.9644 8.77746 16.9644 9.39915V9.91158H11.1523V8.78516H15.3625C15.3594 8.46508 15.2902 8.1804 15.1547 7.93111C15.0193 7.67874 14.83 7.48023 14.5869 7.33558C14.3469 7.19093 14.0668 7.11861 13.7467 7.11861C13.4051 7.11861 13.105 7.2017 12.8465 7.3679C12.588 7.53101 12.3864 7.74645 12.2417 8.0142C12.1002 8.27888 12.0278 8.56972 12.0248 8.88672V9.87003C12.0248 10.2824 12.1002 10.6364 12.251 10.9318C12.4018 11.2242 12.6126 11.4489 12.8834 11.6058C13.1543 11.7597 13.4713 11.8366 13.8344 11.8366C14.0776 11.8366 14.2976 11.8028 14.4946 11.7351C14.6916 11.6643 14.8624 11.5612 15.007 11.4258C15.1517 11.2904 15.2609 11.1226 15.3348 10.9226L16.8952 11.098C16.7967 11.5104 16.6089 11.8705 16.3319 12.1783C16.058 12.483 15.7072 12.7199 15.2794 12.8892C14.8516 13.0554 14.3622 13.1385 13.8113 13.1385ZM21.919 5.90909V7.2017H17.8427V5.90909H21.919ZM18.8491 4.21023H20.5202V10.8672C20.5202 11.0919 20.5541 11.2642 20.6218 11.3842C20.6926 11.5012 20.7849 11.5812 20.8988 11.6243C21.0127 11.6674 21.1388 11.6889 21.2773 11.6889C21.382 11.6889 21.4774 11.6812 21.5636 11.6658C21.6528 11.6504 21.7205 11.6366 21.7667 11.6243L22.0483 12.9308C21.959 12.9615 21.8313 12.9954 21.6651 13.0323C21.502 13.0692 21.302 13.0908 21.065 13.0969C20.6464 13.1093 20.2694 13.0462 19.9339 12.9077C19.5985 12.7661 19.3323 12.5476 19.1353 12.2521C18.9414 11.9567 18.846 11.5874 18.8491 11.1442V4.21023ZM34.7078 6.73544H32.9813C32.932 6.4523 32.8412 6.20147 32.7089 5.98295C32.5766 5.76136 32.4119 5.57363 32.2149 5.41974C32.018 5.26586 31.7933 5.15045 31.5409 5.07351C31.2916 4.99349 31.0223 4.95348 30.733 4.95348C30.2191 4.95348 29.7636 5.08274 29.3666 5.34126C28.9695 5.59671 28.6587 5.97218 28.434 6.46768C28.2094 6.96011 28.097 7.56179 28.097 8.27273C28.097 8.99598 28.2094 9.60535 28.434 10.1009C28.6618 10.5933 28.9726 10.9657 29.3666 11.218C29.7636 11.4673 30.2175 11.592 30.7284 11.592C31.0116 11.592 31.2762 11.555 31.5225 11.4812C31.7718 11.4042 31.9949 11.2919 32.1919 11.1442C32.3919 10.9964 32.5596 10.8149 32.695 10.5994C32.8335 10.384 32.9289 10.1378 32.9813 9.8608L34.7078 9.87003C34.6432 10.3194 34.5032 10.741 34.2877 11.1349C34.0754 11.5289 33.7968 11.8767 33.4521 12.1783C33.1075 12.4768 32.7043 12.7107 32.2426 12.88C31.781 13.0462 31.2686 13.1293 30.7053 13.1293C29.8744 13.1293 29.1327 12.9369 28.4802 12.5522C27.8277 12.1675 27.3138 11.612 26.9383 10.8857C26.5628 10.1593 26.3751 9.28835 26.3751 8.27273C26.3751 7.25402 26.5644 6.38305 26.9429 5.6598C27.3215 4.93348 27.837 4.37796 28.4894 3.99325C29.1419 3.60855 29.8805 3.41619 30.7053 3.41619C31.2316 3.41619 31.721 3.49006 32.1734 3.63778C32.6258 3.78551 33.029 4.00249 33.3829 4.28871C33.7368 4.57185 34.0277 4.91963 34.2554 5.33203C34.4862 5.74136 34.637 6.20916 34.7078 6.73544ZM39.2955 13.1385C38.603 13.1385 38.0028 12.9862 37.495 12.6815C36.9872 12.3768 36.5933 11.9505 36.3132 11.4027C36.0362 10.8549 35.8977 10.2147 35.8977 9.48224C35.8977 8.74976 36.0362 8.10807 36.3132 7.55717C36.5933 7.00627 36.9872 6.57848 37.495 6.27379C38.0028 5.96911 38.603 5.81676 39.2955 5.81676C39.9879 5.81676 40.5881 5.96911 41.0959 6.27379C41.6037 6.57848 41.9961 7.00627 42.2731 7.55717C42.5531 8.10807 42.6932 8.74976 42.6932 9.48224C42.6932 10.2147 42.5531 10.8549 42.2731 11.4027C41.9961 11.9505 41.6037 12.3768 41.0959 12.6815C40.5881 12.9862 39.9879 13.1385 39.2955 13.1385ZM39.3047 11.7997C39.6802 11.7997 39.9941 11.6966 40.2464 11.4904C40.4988 11.2811 40.6866 11.0011 40.8097 10.6502C40.9358 10.2994 40.9989 9.9085 40.9989 9.47763C40.9989 9.04368 40.9358 8.65128 40.8097 8.30043C40.6866 7.9465 40.4988 7.66489 40.2464 7.45561C39.9941 7.24633 39.6802 7.14169 39.3047 7.14169C38.92 7.14169 38.5999 7.24633 38.3445 7.45561C38.0921 7.66489 37.9028 7.9465 37.7766 8.30043C37.6535 8.65128 37.592 9.04368 37.592 9.47763C37.592 9.9085 37.6535 10.2994 37.7766 10.6502C37.9028 11.0011 38.0921 11.2811 38.3445 11.4904C38.5999 11.6966 38.92 11.7997 39.3047 11.7997ZM45.7828 8.84517V13H44.1116V5.90909H45.7089V7.11399H45.792C45.9551 6.71697 46.2152 6.40151 46.5722 6.16761C46.9323 5.93371 47.377 5.81676 47.9063 5.81676C48.3957 5.81676 48.8219 5.9214 49.1851 6.13068C49.5513 6.33996 49.8345 6.64311 50.0345 7.04013C50.2377 7.43714 50.3377 7.9188 50.3346 8.48508V13H48.6634V8.74361C48.6634 8.26965 48.5403 7.89879 48.2941 7.63104C48.051 7.36328 47.714 7.2294 47.2831 7.2294C46.9907 7.2294 46.7307 7.29403 46.5029 7.4233C46.2783 7.54948 46.1013 7.7326 45.972 7.97266C45.8459 8.21271 45.7828 8.50355 45.7828 8.84517ZM57.6379 7.78338L56.1144 7.94957C56.0713 7.79569 55.9959 7.65104 55.8882 7.51562C55.7836 7.38021 55.642 7.27095 55.4635 7.18785C55.285 7.10476 55.0665 7.06321 54.808 7.06321C54.4602 7.06321 54.1678 7.13861 53.9308 7.28942C53.6969 7.44022 53.5815 7.63565 53.5846 7.87571C53.5815 8.08191 53.6569 8.24964 53.8108 8.37891C53.9678 8.50817 54.2263 8.61435 54.5864 8.69744L55.7959 8.95597C56.4668 9.10062 56.9654 9.3299 57.2916 9.64382C57.6209 9.95774 57.7871 10.3686 57.7902 10.8764C57.7871 11.3227 57.6563 11.7166 57.3978 12.0582C57.1424 12.3968 56.7869 12.6615 56.3314 12.8523C55.8759 13.0431 55.3527 13.1385 54.7618 13.1385C53.8939 13.1385 53.1953 12.9569 52.6659 12.5938C52.1366 12.2275 51.8211 11.7182 51.7195 11.0657L53.3492 10.9087C53.423 11.2288 53.58 11.4704 53.82 11.6335C54.0601 11.7966 54.3725 11.8782 54.7572 11.8782C55.1542 11.8782 55.4727 11.7966 55.7128 11.6335C55.9559 11.4704 56.0775 11.2688 56.0775 11.0288C56.0775 10.8256 55.999 10.6579 55.8421 10.5256C55.6882 10.3932 55.4481 10.2917 55.1219 10.2209L53.9124 9.96697C53.2322 9.8254 52.729 9.58688 52.4028 9.25142C52.0766 8.91288 51.915 8.48509 51.9181 7.96804C51.915 7.53101 52.0335 7.15246 52.2735 6.83239C52.5167 6.50923 52.8537 6.25994 53.2845 6.08452C53.7185 5.90601 54.2186 5.81676 54.7849 5.81676C55.6159 5.81676 56.2699 5.99373 56.7469 6.34766C57.227 6.70159 57.524 7.18016 57.6379 7.78338ZM63.6878 10.0178V5.90909H65.3589V13H63.7385V11.7397H63.6647C63.5046 12.1367 63.2415 12.4614 62.8753 12.7138C62.5121 12.9661 62.0643 13.0923 61.5319 13.0923C61.0671 13.0923 60.6563 12.9892 60.2993 12.783C59.9453 12.5737 59.6684 12.2706 59.4683 11.8736C59.2683 11.4735 59.1682 10.9903 59.1682 10.424V5.90909H60.8394V10.1655C60.8394 10.6148 60.9625 10.9718 61.2087 11.2365C61.4549 11.5012 61.7781 11.6335 62.1782 11.6335C62.4244 11.6335 62.6629 11.5735 62.8937 11.4535C63.1246 11.3335 63.3138 11.1549 63.4616 10.918C63.6124 10.6779 63.6878 10.3778 63.6878 10.0178ZM68.7486 3.54545V13H67.0774V3.54545H68.7486ZM74.0079 5.90909V7.2017H69.9316V5.90909H74.0079ZM70.9379 4.21023H72.6091V10.8672C72.6091 11.0919 72.643 11.2642 72.7107 11.3842C72.7815 11.5012 72.8738 11.5812 72.9877 11.6243C73.1015 11.6674 73.2277 11.6889 73.3662 11.6889C73.4709 11.6889 73.5663 11.6812 73.6524 11.6658C73.7417 11.6504 73.8094 11.6366 73.8556 11.6243L74.1372 12.9308C74.0479 12.9615 73.9202 12.9954 73.754 13.0323C73.5909 13.0692 73.3908 13.0908 73.1539 13.0969C72.7353 13.1093 72.3583 13.0462 72.0228 12.9077C71.6874 12.7661 71.4211 12.5476 71.2242 12.2521C71.0303 11.9567 70.9349 11.5874 70.9379 11.1442V4.21023ZM77.446 13.1431C76.9967 13.1431 76.592 13.0631 76.2319 12.9031C75.8749 12.7399 75.5917 12.4999 75.3825 12.1829C75.1763 11.8659 75.0732 11.475 75.0732 11.0103C75.0732 10.6102 75.147 10.2794 75.2947 10.0178C75.4425 9.75616 75.6441 9.54688 75.8995 9.38991C76.1549 9.23295 76.4427 9.11446 76.7628 9.03445C77.0859 8.95135 77.4199 8.89134 77.7646 8.8544C78.18 8.81132 78.517 8.77285 78.7756 8.73899C79.0341 8.70206 79.2218 8.64666 79.3388 8.5728C79.4588 8.49586 79.5188 8.37737 79.5188 8.21733V8.18963C79.5188 7.84186 79.4157 7.57256 79.2095 7.38175C79.0033 7.19093 78.7063 7.09553 78.3185 7.09553C77.9092 7.09553 77.5845 7.18478 77.3445 7.36328C77.1075 7.54178 76.9474 7.7526 76.8643 7.99574L75.304 7.77415C75.4271 7.34328 75.6302 6.98319 75.9134 6.69389C76.1965 6.40151 76.5427 6.183 76.9521 6.03835C77.3614 5.89062 77.8138 5.81676 78.3093 5.81676C78.6509 5.81676 78.991 5.85677 79.3295 5.93679C79.6681 6.01681 79.9774 6.14915 80.2575 6.33381C80.5375 6.51539 80.7622 6.76314 80.9315 7.07706C81.1038 7.39098 81.19 7.78338 81.19 8.25426V13H79.5835V12.0259H79.5281C79.4265 12.2229 79.2834 12.4076 79.0987 12.5799C78.9171 12.7492 78.6879 12.8861 78.4109 12.9908C78.137 13.0923 77.8153 13.1431 77.446 13.1431ZM77.88 11.9151C78.2154 11.9151 78.5063 11.849 78.7525 11.7166C78.9987 11.5812 79.188 11.4027 79.3203 11.1811C79.4557 10.9595 79.5234 10.7179 79.5234 10.4563V9.62074C79.4711 9.66383 79.3819 9.70384 79.2557 9.74077C79.1326 9.7777 78.9941 9.81001 78.8402 9.83771C78.6863 9.86541 78.534 9.89003 78.3832 9.91158C78.2324 9.93312 78.1016 9.95159 77.9908 9.96697C77.7415 10.0008 77.5183 10.0562 77.3214 10.1332C77.1244 10.2101 76.969 10.3178 76.8551 10.4563C76.7412 10.5917 76.6843 10.7672 76.6843 10.9826C76.6843 11.2904 76.7966 11.5227 77.0213 11.6797C77.246 11.8366 77.5322 11.9151 77.88 11.9151ZM86.4112 5.90909V7.2017H82.3349V5.90909H86.4112ZM83.3413 4.21023H85.0124V10.8672C85.0124 11.0919 85.0463 11.2642 85.114 11.3842C85.1848 11.5012 85.2771 11.5812 85.391 11.6243C85.5049 11.6674 85.631 11.6889 85.7695 11.6889C85.8742 11.6889 85.9696 11.6812 86.0558 11.6658C86.145 11.6504 86.2127 11.6366 86.2589 11.6243L86.5405 12.9308C86.4512 12.9615 86.3235 12.9954 86.1573 13.0323C85.9942 13.0692 85.7942 13.0908 85.5572 13.0969C85.1386 13.1093 84.7616 13.0462 84.4261 12.9077C84.0907 12.7661 83.8245 12.5476 83.6275 12.2521C83.4336 11.9567 83.3382 11.5874 83.3413 11.1442V4.21023ZM87.8089 13V5.90909H89.48V13H87.8089ZM88.6491 4.9027C88.3844 4.9027 88.1566 4.81499 87.9658 4.63956C87.775 4.46106 87.6796 4.24716 87.6796 3.99787C87.6796 3.7455 87.775 3.5316 87.9658 3.35618C88.1566 3.17767 88.3844 3.08842 88.6491 3.08842C88.9168 3.08842 89.1446 3.17767 89.3323 3.35618C89.5231 3.5316 89.6185 3.7455 89.6185 3.99787C89.6185 4.24716 89.5231 4.46106 89.3323 4.63956C89.1446 4.81499 88.9168 4.9027 88.6491 4.9027ZM94.2915 13.1385C93.5991 13.1385 92.9989 12.9862 92.4911 12.6815C91.9833 12.3768 91.5894 11.9505 91.3093 11.4027C91.0323 10.8549 90.8938 10.2147 90.8938 9.48224C90.8938 8.74976 91.0323 8.10807 91.3093 7.55717C91.5894 7.00627 91.9833 6.57848 92.4911 6.27379C92.9989 5.96911 93.5991 5.81676 94.2915 5.81676C94.984 5.81676 95.5842 5.96911 96.092 6.27379C96.5998 6.57848 96.9922 7.00627 97.2692 7.55717C97.5492 8.10807 97.6893 8.74976 97.6893 9.48224C97.6893 10.2147 97.5492 10.8549 97.2692 11.4027C96.9922 11.9505 96.5998 12.3768 96.092 12.6815C95.5842 12.9862 94.984 13.1385 94.2915 13.1385ZM94.3008 11.7997C94.6763 11.7997 94.9902 11.6966 95.2425 11.4904C95.4949 11.2811 95.6826 11.0011 95.8058 10.6502C95.9319 10.2994 95.995 9.9085 95.995 9.47763C95.995 9.04368 95.9319 8.65128 95.8058 8.30043C95.6826 7.9465 95.4949 7.66489 95.2425 7.45561C94.9902 7.24633 94.6763 7.14169 94.3008 7.14169C93.9161 7.14169 93.596 7.24633 93.3406 7.45561C93.0882 7.66489 92.8989 7.9465 92.7727 8.30043C92.6496 8.65128 92.5881 9.04368 92.5881 9.47763C92.5881 9.9085 92.6496 10.2994 92.7727 10.6502C92.8989 11.0011 93.0882 11.2811 93.3406 11.4904C93.596 11.6966 93.9161 11.7997 94.3008 11.7997ZM100.779 8.84517V13H99.1077V5.90909H100.705V7.11399H100.788C100.951 6.71697 101.211 6.40151 101.568 6.16761C101.928 5.93371 102.373 5.81676 102.902 5.81676C103.392 5.81676 103.818 5.9214 104.181 6.13068C104.547 6.33996 104.831 6.64311 105.031 7.04013C105.234 7.43714 105.334 7.9188 105.331 8.48508V13H103.66V8.74361C103.66 8.26965 103.536 7.89879 103.29 7.63104C103.047 7.36328 102.71 7.2294 102.279 7.2294C101.987 7.2294 101.727 7.29403 101.499 7.4233C101.274 7.54948 101.097 7.7326 100.968 7.97266C100.842 8.21271 100.779 8.50355 100.779 8.84517Z" fill="white"/>
<path d="M114.208 12.7946C114.48 12.7946 114.7 12.5674 114.7 12.2871L114.7 7.71884C114.7 7.43851 114.48 7.21126 114.208 7.21126C113.936 7.21126 113.715 7.43851 113.715 7.71884L113.715 11.7795L109.777 11.7795C109.505 11.7795 109.285 12.0067 109.285 12.2871C109.285 12.5674 109.505 12.7946 109.777 12.7946L114.208 12.7946ZM108.249 6.14352L107.901 6.50244L113.86 12.646L114.208 12.2871L114.556 11.9282L108.597 5.78461L108.249 6.14352Z" fill="white"/>
</svg>
