<svg width="498" height="104" viewBox="0 0 498 104" fill="none" xmlns="http://www.w3.org/2000/svg">
<g filter="url(#filter0_d_147_565)">
<rect x="18.0078" width="461" height="61" rx="4.91124" fill="white"/>
</g>
<path d="M109.365 26.0794V40H106.766V26.0794H103.315V23.456H112.863V26.0794H109.365ZM114.882 36.4785C114.882 36.6833 114.914 36.8724 114.977 37.0457C115.04 37.2033 115.126 37.3451 115.237 37.4711C115.347 37.5972 115.489 37.6917 115.662 37.7547C115.835 37.8178 116.024 37.8493 116.229 37.8493C116.655 37.8493 117.135 37.7547 117.671 37.5657C118.222 37.3766 118.742 37.156 119.231 36.9039L120.176 39.1728C119.641 39.5194 119.01 39.7952 118.286 40C117.576 40.2048 116.867 40.3072 116.158 40.3072C115.607 40.3072 115.087 40.2363 114.599 40.0945C114.126 39.9527 113.708 39.74 113.346 39.4564C112.999 39.1728 112.724 38.8104 112.519 38.3692C112.33 37.9281 112.235 37.4081 112.235 36.8094V31.9644C112.235 31.0663 112.424 30.3178 112.802 29.7191C113.196 29.1204 113.724 28.6713 114.386 28.372C115.048 28.0726 115.788 27.9229 116.607 27.9229C117.443 27.9229 118.167 28.0726 118.782 28.372C119.412 28.6556 119.901 29.0967 120.247 29.6955C120.594 30.2784 120.767 31.0111 120.767 31.8935V35.5804L114.882 35.8876V36.4785ZM118.144 32.6025C118.144 32.2401 118.104 31.8935 118.026 31.5626C117.947 31.2159 117.797 30.9323 117.576 30.7117C117.356 30.4912 117.025 30.3966 116.584 30.4281C116.111 30.4439 115.749 30.5463 115.497 30.7354C115.26 30.9087 115.095 31.1529 115 31.468C114.922 31.7674 114.882 32.1377 114.882 32.5788V33.5006L118.144 33.2879V32.6025ZM135.361 31.9171C135.361 31.6807 135.314 31.468 135.219 31.279C135.125 31.0741 134.991 30.9087 134.818 30.7826C134.644 30.6408 134.447 30.5305 134.227 30.4518C134.006 30.373 133.77 30.3336 133.518 30.3336C133.376 30.3336 133.195 30.3572 132.974 30.4045C132.769 30.436 132.541 30.499 132.289 30.5936C132.052 30.6724 131.808 30.7748 131.556 30.9008C131.588 31.0426 131.603 31.1923 131.603 31.3499C131.619 31.5074 131.627 31.6729 131.627 31.8462V40H129.027V31.9171C129.027 31.6807 128.98 31.468 128.885 31.279C128.791 31.0741 128.665 30.9087 128.507 30.7826C128.35 30.6408 128.161 30.5305 127.94 30.4518C127.72 30.373 127.483 30.3336 127.231 30.3336C127.058 30.3336 126.869 30.3572 126.664 30.4045C126.459 30.436 126.246 30.499 126.026 30.5936C125.805 30.6724 125.577 30.7748 125.34 30.9008V40H122.717V28.1592H125.34V28.7265C125.466 28.6477 125.648 28.5531 125.884 28.4429C126.136 28.3168 126.412 28.2065 126.711 28.112C127.026 28.0174 127.349 27.9702 127.68 27.9702C128.058 27.9702 128.429 28.0096 128.791 28.0883C129.153 28.1514 129.5 28.2695 129.831 28.4429C130.177 28.6004 130.477 28.821 130.729 29.1046C131.013 28.9155 131.312 28.7343 131.627 28.561C131.958 28.3877 132.32 28.2459 132.714 28.1356C133.108 28.0253 133.534 27.9702 133.99 27.9702C134.463 27.9702 134.928 28.0332 135.385 28.1592C135.858 28.2695 136.283 28.4744 136.661 28.7737C137.055 29.0573 137.37 29.4513 137.606 29.9554C137.843 30.4596 137.961 31.0899 137.961 31.8462V40H135.361V31.9171ZM148.726 35.8167C148.726 37.2663 148.387 38.3771 147.71 39.1492C147.032 39.9055 146.04 40.2836 144.732 40.2836C144.48 40.2836 144.22 40.26 143.952 40.2127C143.7 40.1654 143.456 40.0945 143.219 40C142.999 39.9212 142.794 39.8267 142.605 39.7164V45.0577L139.982 44.5378V28.1592H142.605V28.6792C142.699 28.5847 142.881 28.4822 143.149 28.372C143.416 28.2459 143.716 28.1435 144.047 28.0647C144.393 27.9702 144.716 27.9229 145.016 27.9229C145.819 27.9229 146.497 28.0805 147.048 28.3956C147.6 28.7107 148.017 29.1598 148.301 29.7427C148.584 30.3257 148.726 31.019 148.726 31.8226V35.8167ZM146.126 32.0116C146.126 31.6807 146.079 31.405 145.985 31.1844C145.89 30.9481 145.756 30.7669 145.583 30.6408C145.425 30.5148 145.244 30.4281 145.039 30.3809C144.834 30.3178 144.622 30.2863 144.401 30.2863C144.149 30.2863 143.889 30.3336 143.621 30.4281C143.369 30.5069 143.149 30.5936 142.959 30.6881C142.786 30.7669 142.668 30.822 142.605 30.8535V36.6912C142.605 36.9118 142.668 37.1009 142.794 37.2584C142.936 37.416 143.109 37.542 143.314 37.6366C143.535 37.7311 143.755 37.802 143.976 37.8493C144.212 37.8966 144.425 37.9202 144.614 37.9202C144.945 37.9202 145.22 37.8493 145.441 37.7075C145.662 37.5657 145.827 37.3687 145.937 37.1166C146.063 36.8488 146.126 36.5494 146.126 36.2185V32.0116ZM159.431 35.6277C159.431 37.0142 159.076 38.1329 158.367 38.9837C157.658 39.8188 156.579 40.2363 155.129 40.2363C154.089 40.2363 153.238 40.0236 152.577 39.5982C151.931 39.157 151.45 38.5898 151.135 37.8966C150.836 37.1875 150.686 36.4312 150.686 35.6277V32.5079C150.686 31.4996 150.851 30.6566 151.182 29.9791C151.529 29.3016 152.033 28.7895 152.695 28.4429C153.357 28.0805 154.168 27.8993 155.129 27.8993C156.5 27.8993 157.556 28.3089 158.296 29.1282C159.052 29.9318 159.431 31.0584 159.431 32.5079V35.6277ZM156.76 32.3661C156.76 31.988 156.697 31.665 156.571 31.3971C156.445 31.1135 156.256 30.9008 156.004 30.759C155.767 30.6014 155.468 30.5227 155.105 30.5227C154.727 30.5227 154.404 30.5936 154.136 30.7354C153.884 30.8772 153.687 31.082 153.546 31.3499C153.404 31.6177 153.333 31.9565 153.333 32.3661V35.8167C153.333 36.1319 153.388 36.4312 153.498 36.7148C153.624 36.9985 153.821 37.2269 154.089 37.4002C154.357 37.5736 154.696 37.6602 155.105 37.6602C155.499 37.6602 155.814 37.5814 156.051 37.4239C156.303 37.2663 156.484 37.0457 156.594 36.7621C156.705 36.4785 156.76 36.1634 156.76 35.8167V32.3661ZM168.301 30.31C168.301 30.31 168.199 30.2863 167.994 30.2391C167.805 30.176 167.498 30.1445 167.072 30.1445C166.82 30.1445 166.56 30.1603 166.292 30.1918C166.025 30.2075 165.757 30.2469 165.489 30.31C165.237 30.3572 164.985 30.4203 164.733 30.499C164.48 30.5778 164.236 30.6802 164 30.8063V40H161.376V28.1592H164V28.6319C164.394 28.3641 164.835 28.1592 165.323 28.0174C165.812 27.8756 166.308 27.8047 166.812 27.8047C167.175 27.8047 167.513 27.8441 167.829 27.9229C168.144 27.9859 168.427 28.0647 168.679 28.1592L168.301 30.31ZM175.695 32.0825C175.695 31.6256 175.648 31.2475 175.553 30.9481C175.459 30.6487 175.309 30.4124 175.104 30.2391C174.899 30.0657 174.639 29.9397 174.324 29.8609C174.009 29.7821 173.623 29.7427 173.166 29.7427L173.379 27.9465C174.277 27.9465 175.033 28.0253 175.648 28.1829C176.278 28.3404 176.782 28.6083 177.16 28.9864C177.554 29.3488 177.838 29.8373 178.011 30.4518C178.2 31.0663 178.295 31.8304 178.295 32.7443V40C178.043 40.0315 177.783 40.063 177.515 40.0945C177.247 40.126 176.971 40.1497 176.688 40.1654C176.42 40.197 176.136 40.2127 175.837 40.2127C175.553 40.2285 175.262 40.2363 174.962 40.2363C174.663 40.2521 174.356 40.26 174.041 40.26C173.363 40.26 172.733 40.197 172.15 40.0709C171.567 39.9449 171.047 39.7321 170.59 39.4328C170.149 39.1177 169.802 38.708 169.55 38.2038C169.298 37.6996 169.172 37.0694 169.172 36.3131V34.0205C169.172 33.4218 169.259 32.9018 169.432 32.4607C169.605 32.0195 169.842 31.6571 170.141 31.3735C170.44 31.0899 170.779 30.8772 171.157 30.7354C171.551 30.5936 171.961 30.5227 172.386 30.5227C172.78 30.5227 173.19 30.5857 173.615 30.7117C174.041 30.822 174.435 30.9954 174.797 31.2317C175.175 31.4523 175.475 31.7359 175.695 32.0825ZM175.695 34.0205C175.616 33.9575 175.435 33.863 175.152 33.7369C174.884 33.6109 174.569 33.4927 174.206 33.3824C173.844 33.2564 173.481 33.1933 173.119 33.1933C172.946 33.1933 172.78 33.217 172.623 33.2642C172.465 33.2958 172.323 33.3588 172.197 33.4533C172.087 33.5321 171.992 33.6503 171.914 33.8078C171.851 33.9496 171.819 34.1308 171.819 34.3514V35.8876C171.819 36.187 171.843 36.4549 171.89 36.6912C171.953 36.9275 172.063 37.1324 172.221 37.3057C172.394 37.479 172.638 37.6129 172.954 37.7075C173.284 37.802 173.718 37.8493 174.253 37.8493C174.332 37.8493 174.427 37.8493 174.537 37.8493C174.663 37.8335 174.789 37.8256 174.915 37.8256C175.057 37.8099 175.183 37.802 175.293 37.802C175.419 37.7863 175.514 37.7784 175.577 37.7784C175.656 37.7626 175.695 37.7547 175.695 37.7547V34.0205ZM187.25 30.31C187.25 30.31 187.148 30.2863 186.943 30.2391C186.754 30.176 186.447 30.1445 186.021 30.1445C185.769 30.1445 185.509 30.1603 185.241 30.1918C184.973 30.2075 184.706 30.2469 184.438 30.31C184.186 30.3572 183.934 30.4203 183.681 30.499C183.429 30.5778 183.185 30.6802 182.949 30.8063V40H180.325V28.1592H182.949V28.6319C183.343 28.3641 183.784 28.1592 184.272 28.0174C184.761 27.8756 185.257 27.8047 185.761 27.8047C186.124 27.8047 186.462 27.8441 186.778 27.9229C187.093 27.9859 187.376 28.0647 187.628 28.1592L187.25 30.31ZM199.412 29.7427C198.956 29.8373 198.648 30.0421 198.491 30.3572C198.349 30.6566 198.278 31.0111 198.278 31.4208V41.3944C198.278 42.1507 198.136 42.7967 197.853 43.3324C197.585 43.8839 197.183 44.3093 196.647 44.6087C196.112 44.908 195.466 45.0577 194.709 45.0577L194.024 42.9543C194.26 42.9543 194.481 42.8991 194.686 42.7888C194.89 42.6943 195.064 42.5604 195.206 42.3871C195.363 42.2137 195.481 42.0168 195.56 41.7962C195.639 41.5914 195.678 41.3708 195.678 41.1344V39.3382C195.584 39.4485 195.41 39.5667 195.158 39.6928C194.906 39.8188 194.615 39.9212 194.284 40C193.969 40.0945 193.646 40.1418 193.315 40.1418C192.842 40.1418 192.377 40.0788 191.92 39.9527C191.479 39.8267 191.07 39.6219 190.691 39.3382C190.329 39.0389 190.038 38.6371 189.817 38.1329C189.612 37.6287 189.51 36.9985 189.51 36.2422V28.112H192.157V36.1713C192.157 36.3918 192.196 36.6045 192.275 36.8094C192.354 36.9985 192.464 37.1639 192.606 37.3057C192.748 37.4475 192.921 37.5578 193.126 37.6366C193.331 37.7154 193.551 37.7547 193.787 37.7547C194.055 37.7547 194.3 37.7075 194.52 37.6129C194.756 37.5026 194.961 37.3608 195.135 37.1875C195.308 37.0142 195.442 36.8094 195.536 36.573C195.631 36.3367 195.678 36.0846 195.678 35.8167V30.7117C195.678 30.2706 195.773 29.8373 195.962 29.4119C196.151 28.9707 196.458 28.6083 196.884 28.3247C197.309 28.0411 197.876 27.8993 198.585 27.8993L199.412 29.7427ZM212.852 23.456C213.467 23.456 214.081 23.5427 214.695 23.716C215.31 23.8893 215.869 24.1887 216.374 24.6141C216.878 25.0395 217.279 25.6383 217.579 26.4103C217.878 27.1666 218.028 28.1277 218.028 29.2937C218.028 30.2233 217.941 31.0269 217.768 31.7044C217.61 32.3819 217.382 32.9491 217.083 33.406C216.799 33.863 216.468 34.2254 216.09 34.4932L218.122 40H215.334L213.703 35.3441C213.608 35.3598 213.514 35.3677 213.419 35.3677C213.325 35.3677 213.23 35.3677 213.136 35.3677C213.041 35.3677 212.947 35.3677 212.852 35.3677H210.323V40H207.7V23.456H212.852ZM211.883 32.8861C212.497 32.8861 213.025 32.8467 213.467 32.7679C213.908 32.6891 214.27 32.5316 214.554 32.2952C214.837 32.0431 215.042 31.6807 215.168 31.2081C215.31 30.7354 215.381 30.0973 215.381 29.2937C215.381 28.5531 215.31 27.9702 215.168 27.5448C215.042 27.1036 214.837 26.7806 214.554 26.5758C214.27 26.3552 213.908 26.2134 213.467 26.1503C213.025 26.0873 212.497 26.0558 211.883 26.0558H210.323V32.8861H211.883ZM222.39 36.4785C222.39 36.6833 222.422 36.8724 222.485 37.0457C222.548 37.2033 222.634 37.3451 222.745 37.4711C222.855 37.5972 222.997 37.6917 223.17 37.7547C223.344 37.8178 223.533 37.8493 223.737 37.8493C224.163 37.8493 224.643 37.7547 225.179 37.5657C225.731 37.3766 226.251 37.156 226.739 36.9039L227.684 39.1728C227.149 39.5194 226.518 39.7952 225.794 40C225.085 40.2048 224.376 40.3072 223.667 40.3072C223.115 40.3072 222.595 40.2363 222.107 40.0945C221.634 39.9527 221.216 39.74 220.854 39.4564C220.507 39.1728 220.232 38.8104 220.027 38.3692C219.838 37.9281 219.743 37.4081 219.743 36.8094V31.9644C219.743 31.0663 219.932 30.3178 220.31 29.7191C220.704 29.1204 221.232 28.6713 221.894 28.372C222.556 28.0726 223.296 27.9229 224.116 27.9229C224.951 27.9229 225.675 28.0726 226.29 28.372C226.92 28.6556 227.409 29.0967 227.755 29.6955C228.102 30.2784 228.275 31.0111 228.275 31.8935V35.5804L222.39 35.8876V36.4785ZM225.652 32.6025C225.652 32.2401 225.612 31.8935 225.534 31.5626C225.455 31.2159 225.305 30.9323 225.085 30.7117C224.864 30.4912 224.533 30.3966 224.092 30.4281C223.619 30.4439 223.257 30.5463 223.005 30.7354C222.768 30.9087 222.603 31.1529 222.508 31.468C222.43 31.7674 222.39 32.1377 222.39 32.5788V33.5006L225.652 33.2879V32.6025ZM236.356 30.8772C236.182 30.7826 235.985 30.7039 235.765 30.6408C235.544 30.5621 235.308 30.5069 235.056 30.4754C234.819 30.4281 234.567 30.4045 234.3 30.4045C234.158 30.4045 234 30.4124 233.827 30.4281C233.669 30.4439 233.512 30.4833 233.354 30.5463C233.197 30.5936 233.063 30.6724 232.952 30.7826C232.858 30.8772 232.811 31.0111 232.811 31.1844C232.811 31.4208 232.905 31.6256 233.094 31.7989C233.299 31.9722 233.567 32.1298 233.898 32.2716C234.229 32.4134 234.591 32.5631 234.985 32.7207C235.379 32.8625 235.765 33.0358 236.143 33.2406C236.537 33.4454 236.899 33.6897 237.23 33.9733C237.561 34.2569 237.821 34.6114 238.01 35.0368C238.215 35.4465 238.317 35.9428 238.317 36.5258C238.317 37.156 238.199 37.7075 237.963 38.1802C237.726 38.6528 237.403 39.0546 236.994 39.3855C236.6 39.7006 236.143 39.937 235.623 40.0945C235.119 40.2679 234.591 40.3545 234.04 40.3545C233.173 40.3545 232.346 40.1733 231.558 39.8109C230.77 39.4485 230.101 38.9601 229.549 38.3456L231.085 36.7385C231.337 36.9591 231.605 37.1639 231.889 37.353C232.188 37.5263 232.495 37.6681 232.811 37.7784C233.126 37.8729 233.441 37.9202 233.756 37.9202C233.961 37.9202 234.166 37.8966 234.37 37.8493C234.591 37.802 234.788 37.7232 234.961 37.6129C235.135 37.5026 235.276 37.3608 235.387 37.1875C235.497 37.0142 235.552 36.8094 235.552 36.573C235.552 36.2579 235.45 35.9979 235.245 35.7931C235.056 35.5883 234.796 35.4071 234.465 35.2495C234.15 35.0762 233.795 34.9108 233.401 34.7532C233.023 34.5956 232.637 34.4302 232.243 34.2569C231.865 34.0678 231.511 33.8393 231.18 33.5715C230.865 33.3036 230.605 32.9806 230.4 32.6025C230.211 32.2243 230.116 31.7674 230.116 31.2317C230.116 30.6487 230.227 30.1445 230.447 29.7191C230.668 29.2937 230.967 28.9471 231.345 28.6792C231.739 28.3956 232.172 28.1908 232.645 28.0647C233.118 27.9229 233.598 27.852 234.087 27.852C234.433 27.852 234.788 27.8835 235.15 27.9465C235.529 28.0096 235.891 28.1041 236.238 28.2301C236.584 28.3562 236.891 28.5138 237.159 28.7028L236.356 30.8772ZM240.245 40V28.1592H242.868V40H240.245ZM241.568 23.2197C241.962 23.2197 242.293 23.3457 242.561 23.5978C242.844 23.8499 242.986 24.1808 242.986 24.5905C242.986 24.9844 242.844 25.3231 242.561 25.6067C242.293 25.8746 241.962 26.0085 241.568 26.0085C241.174 26.0085 240.836 25.8746 240.552 25.6067C240.284 25.3231 240.15 24.9844 240.15 24.5905C240.15 24.1808 240.284 23.8499 240.552 23.5978C240.836 23.3457 241.174 23.2197 241.568 23.2197ZM253.976 40C253.724 40.0315 253.464 40.063 253.196 40.0945C252.944 40.126 252.676 40.1497 252.393 40.1654C252.125 40.197 251.849 40.2127 251.566 40.2127C251.282 40.2285 250.991 40.2363 250.691 40.2363C250.408 40.2521 250.108 40.26 249.793 40.26C249.131 40.26 248.501 40.1812 247.902 40.0236C247.304 39.8818 246.776 39.6534 246.319 39.3382C245.862 39.0231 245.5 38.6213 245.232 38.1329C244.98 37.6287 244.854 37.0221 244.854 36.3131V31.4917C244.854 30.8772 244.956 30.3494 245.161 29.9082C245.366 29.467 245.633 29.1046 245.964 28.821C246.311 28.5216 246.697 28.3011 247.122 28.1592C247.548 28.0174 247.973 27.9465 248.399 27.9465C248.95 27.9465 249.454 27.9938 249.911 28.0883C250.384 28.1829 250.872 28.3404 251.377 28.561V23.456H253.976V40ZM251.377 31.2317C251.235 31.1529 250.967 31.0426 250.573 30.9008C250.179 30.7433 249.706 30.6645 249.155 30.6645C248.966 30.6645 248.777 30.6881 248.588 30.7354C248.399 30.7669 248.217 30.8299 248.044 30.9245C247.887 31.0032 247.753 31.1214 247.642 31.279C247.548 31.4208 247.501 31.602 247.501 31.8226V35.864C247.501 36.1634 247.532 36.4391 247.595 36.6912C247.658 36.9275 247.768 37.1324 247.926 37.3057C248.099 37.4633 248.344 37.5893 248.659 37.6838C248.99 37.7784 249.423 37.8256 249.959 37.8256C250.037 37.8256 250.132 37.8256 250.242 37.8256C250.368 37.8099 250.494 37.802 250.62 37.802C250.762 37.7863 250.888 37.7784 250.998 37.7784C251.109 37.7784 251.195 37.7784 251.258 37.7784C251.337 37.7626 251.377 37.7547 251.377 37.7547V31.2317ZM258.649 36.4785C258.649 36.6833 258.681 36.8724 258.744 37.0457C258.807 37.2033 258.894 37.3451 259.004 37.4711C259.114 37.5972 259.256 37.6917 259.429 37.7547C259.603 37.8178 259.792 37.8493 259.997 37.8493C260.422 37.8493 260.903 37.7547 261.438 37.5657C261.99 37.3766 262.51 37.156 262.998 36.9039L263.944 39.1728C263.408 39.5194 262.778 39.7952 262.053 40C261.344 40.2048 260.635 40.3072 259.926 40.3072C259.374 40.3072 258.854 40.2363 258.366 40.0945C257.893 39.9527 257.476 39.74 257.113 39.4564C256.767 39.1728 256.491 38.8104 256.286 38.3692C256.097 37.9281 256.002 37.4081 256.002 36.8094V31.9644C256.002 31.0663 256.191 30.3178 256.57 29.7191C256.964 29.1204 257.491 28.6713 258.153 28.372C258.815 28.0726 259.555 27.9229 260.375 27.9229C261.21 27.9229 261.935 28.0726 262.549 28.372C263.179 28.6556 263.668 29.0967 264.014 29.6955C264.361 30.2784 264.534 31.0111 264.534 31.8935V35.5804L258.649 35.8876V36.4785ZM261.911 32.6025C261.911 32.2401 261.872 31.8935 261.793 31.5626C261.714 31.2159 261.564 30.9323 261.344 30.7117C261.123 30.4912 260.792 30.3966 260.351 30.4281C259.878 30.4439 259.516 30.5463 259.264 30.7354C259.028 30.9087 258.862 31.1529 258.768 31.468C258.689 31.7674 258.649 32.1377 258.649 32.5788V33.5006L261.911 33.2879V32.6025ZM272.653 31.8935C272.653 31.6729 272.613 31.468 272.535 31.279C272.456 31.0741 272.338 30.9008 272.18 30.759C272.038 30.6172 271.865 30.5069 271.66 30.4281C271.455 30.3494 271.227 30.31 270.975 30.31C270.801 30.31 270.612 30.3257 270.407 30.3572C270.218 30.3887 270.014 30.4518 269.793 30.5463C269.572 30.6251 269.336 30.7354 269.084 30.8772V40.0236H266.484V28.1592H269.084V28.7028C269.226 28.6241 269.415 28.5295 269.651 28.4192C269.903 28.2932 270.179 28.1829 270.478 28.0883C270.793 27.9938 271.117 27.9465 271.447 27.9465C271.826 27.9465 272.196 27.9859 272.558 28.0647C272.921 28.1435 273.259 28.2695 273.574 28.4429C273.905 28.6162 274.189 28.8525 274.425 29.1519C274.677 29.4355 274.874 29.7979 275.016 30.2391C275.158 30.6802 275.229 31.2081 275.229 31.8226V40.0236H272.653V31.8935ZM284.185 30.7117C283.901 30.5699 283.586 30.4518 283.239 30.3572C282.909 30.2469 282.57 30.1839 282.223 30.1682C281.766 30.1366 281.349 30.1918 280.971 30.3336C280.608 30.4596 280.317 30.6724 280.096 30.9717C279.891 31.2711 279.789 31.665 279.789 32.1534V35.864C279.789 36.2264 279.844 36.5494 279.954 36.833C280.08 37.1009 280.254 37.3215 280.474 37.4948C280.695 37.6681 280.955 37.802 281.254 37.8966C281.553 37.9753 281.884 38.0147 282.247 38.0147C282.499 38.0147 282.751 38.0068 283.003 37.9911C283.255 37.9596 283.484 37.9281 283.688 37.8966C283.893 37.8493 284.051 37.8178 284.161 37.802C284.287 37.7705 284.35 37.7547 284.35 37.7547L284.823 39.8818C284.334 40.0079 283.83 40.1103 283.31 40.1891C282.79 40.2679 282.263 40.2994 281.727 40.2836C280.829 40.2521 280.033 40.0867 279.34 39.7873C278.662 39.4722 278.134 38.9995 277.756 38.3692C277.378 37.7232 277.189 36.896 277.189 35.8876V32.437C277.189 31.5389 277.362 30.7511 277.709 30.0736C278.056 29.3803 278.56 28.8368 279.222 28.4429C279.899 28.049 280.726 27.8678 281.703 27.8993C282.223 27.915 282.743 27.9938 283.263 28.1356C283.783 28.2774 284.287 28.4586 284.776 28.6792L284.185 30.7117ZM288.862 36.4785C288.862 36.6833 288.893 36.8724 288.956 37.0457C289.019 37.2033 289.106 37.3451 289.216 37.4711C289.326 37.5972 289.468 37.6917 289.642 37.7547C289.815 37.8178 290.004 37.8493 290.209 37.8493C290.634 37.8493 291.115 37.7547 291.65 37.5657C292.202 37.3766 292.722 37.156 293.21 36.9039L294.156 39.1728C293.62 39.5194 292.99 39.7952 292.265 40C291.556 40.2048 290.847 40.3072 290.138 40.3072C289.586 40.3072 289.066 40.2363 288.578 40.0945C288.105 39.9527 287.688 39.74 287.325 39.4564C286.979 39.1728 286.703 38.8104 286.498 38.3692C286.309 37.9281 286.215 37.4081 286.215 36.8094V31.9644C286.215 31.0663 286.404 30.3178 286.782 29.7191C287.176 29.1204 287.704 28.6713 288.365 28.372C289.027 28.0726 289.768 27.9229 290.587 27.9229C291.422 27.9229 292.147 28.0726 292.761 28.372C293.391 28.6556 293.88 29.0967 294.227 29.6955C294.573 30.2784 294.747 31.0111 294.747 31.8935V35.5804L288.862 35.8876V36.4785ZM292.123 32.6025C292.123 32.2401 292.084 31.8935 292.005 31.5626C291.926 31.2159 291.776 30.9323 291.556 30.7117C291.335 30.4912 291.004 30.3966 290.563 30.4281C290.091 30.4439 289.728 30.5463 289.476 30.7354C289.24 30.9087 289.074 31.1529 288.98 31.468C288.901 31.7674 288.862 32.1377 288.862 32.5788V33.5006L292.123 33.2879V32.6025Z" fill="black"/>
<path d="M432.557 31.5303C432.85 31.2374 432.85 30.7626 432.557 30.4697L427.784 25.6967C427.491 25.4038 427.016 25.4038 426.723 25.6967C426.431 25.9896 426.431 26.4645 426.723 26.7574L430.966 31L426.723 35.2426C426.431 35.5355 426.431 36.0104 426.723 36.3033C427.016 36.5962 427.491 36.5962 427.784 36.3033L432.557 31.5303ZM431.008 31V31.75H432.027V31V30.25H431.008V31Z" fill="black"/>
<path d="M66.5078 25C63.3078 25 60.6078 27.35 60.1078 30.4L59.8578 30.15C59.6578 29.95 59.3578 29.95 59.1578 30.15C58.9578 30.35 58.9578 30.65 59.1578 30.85L60.1578 31.85C60.2578 31.95 60.4578 32.05 60.7078 31.95C60.9078 31.9 61.0078 31.7 61.0078 31.5C61.0078 28.45 63.4578 26 66.5078 26C69.5578 26 72.0078 28.45 72.0078 31.5C72.0078 31.8 72.2078 32 72.5078 32C72.8078 32 73.0078 31.8 73.0078 31.5C73.0078 27.9 70.1078 25 66.5078 25ZM72.3078 33.2C72.0578 33.1 71.7578 33.25 71.6578 33.5C70.8578 35.6 68.7578 37 66.5078 37C65.1578 37 63.8578 36.5 62.8578 35.6C62.6578 35.4 62.3578 35.45 62.1578 35.65C61.9578 35.85 62.0078 36.15 62.2078 36.35C63.4078 37.45 64.9578 38.05 66.5578 38.05C69.2078 38.05 71.6578 36.4 72.6078 33.9C72.6578 33.6 72.5578 33.3 72.3078 33.2Z" fill="#FF0000"/>
<path d="M66.5078 32C66.8078 32 67.0078 31.8 67.0078 31.5V27.5C67.0078 27.2 66.8078 27 66.5078 27C66.2078 27 66.0078 27.2 66.0078 27.5V31H64.5078C64.2078 31 64.0078 31.2 64.0078 31.5C64.0078 31.8 64.2078 32 64.5078 32H66.5078ZM46.5078 38.75C46.8078 38.75 47.0078 38.55 47.0078 38.25V16.5C47.0078 16.2 47.2078 16 47.5078 16H56.3078L59.6578 19.35C59.8578 19.55 60.1578 19.55 60.3578 19.35C60.5578 19.15 60.5578 18.85 60.3578 18.65L58.5578 16.85L64.8578 19.35C64.0578 19.8 63.4078 20.5 63.1078 21.4L61.8078 20.1C61.6078 19.9 61.3078 19.9 61.1078 20.1C60.9078 20.3 60.9078 20.6 61.1078 20.8L63.1078 22.8C63.2078 22.9 63.4078 23 63.6578 22.9C63.8578 22.85 63.9578 22.65 63.9578 22.45C63.9578 21.25 64.8078 20.25 65.9578 20V23.4C65.9578 23.7 66.1578 23.9 66.4578 23.9C66.7578 23.9 66.9578 23.7 66.9578 23.4V19.5C66.9578 19.15 66.6578 19.05 66.6578 19.05L56.6578 15H47.5078C46.6578 15 46.0078 15.65 46.0078 16.5V38.25C46.0078 38.55 46.2078 38.75 46.5078 38.75ZM46.5078 42.1C46.8078 42.1 47.0078 41.9 47.0078 41.6V40.5C47.0078 40.2 46.8078 40 46.5078 40C46.2078 40 46.0078 40.2 46.0078 40.5V41.6C46.0078 41.9 46.2078 42.1 46.5078 42.1ZM66.5078 39.1C66.2078 39.1 66.0078 39.3 66.0078 39.6V44.5C66.0078 44.8 65.8078 45 65.5078 45H47.5078C47.2078 45 47.0078 44.8 47.0078 44.5V43.5C47.0078 43.2 46.8078 43 46.5078 43C46.2078 43 46.0078 43.2 46.0078 43.5V44.5C46.0078 45.35 46.6578 46 47.5078 46H65.5078C66.3578 46 67.0078 45.35 67.0078 44.5V39.6C67.0078 39.35 66.8078 39.1 66.5078 39.1Z" fill="#FF0000"/>
<path d="M48.5078 19C48.8078 19 49.0078 18.8 49.0078 18.5V18H49.5078C49.8078 18 50.0078 17.8 50.0078 17.5C50.0078 17.2 49.8078 17 49.5078 17H48.5078C48.2078 17 48.0078 17.2 48.0078 17.5V18.5C48.0078 18.8 48.2078 19 48.5078 19ZM64.5078 42C64.2078 42 64.0078 42.2 64.0078 42.5V43H63.5078C63.2078 43 63.0078 43.2 63.0078 43.5C63.0078 43.8 63.2078 44 63.5078 44H64.5078C64.8078 44 65.0078 43.8 65.0078 43.5V42.5C65.0078 42.2 64.8078 42 64.5078 42ZM52.5078 18C52.8078 18 53.0078 17.8 53.0078 17.5C53.0078 17.2 52.8078 17 52.5078 17H51.5078C51.2078 17 51.0078 17.2 51.0078 17.5C51.0078 17.8 51.2078 18 51.5078 18H52.5078ZM48.5078 21H58.5078C58.8078 21 59.0078 20.8 59.0078 20.5C59.0078 20.2 58.8078 20 58.5078 20H48.5078C48.2078 20 48.0078 20.2 48.0078 20.5C48.0078 20.8 48.2078 21 48.5078 21ZM64.5078 40H48.5078C48.2078 40 48.0078 40.2 48.0078 40.5C48.0078 40.8 48.2078 41 48.5078 41H64.5078C64.8078 41 65.0078 40.8 65.0078 40.5C65.0078 40.2 64.8078 40 64.5078 40ZM63.0078 24.5C63.0078 24.2 62.8078 24 62.5078 24H48.5078C48.2078 24 48.0078 24.2 48.0078 24.5C48.0078 24.8 48.2078 25 48.5078 25H62.5078C62.8078 25 63.0078 24.8 63.0078 24.5ZM60.0078 28.5C60.0078 28.2 59.8078 28 59.5078 28H48.5078C48.2078 28 48.0078 28.2 48.0078 28.5C48.0078 28.8 48.2078 29 48.5078 29H59.5078C59.8078 29 60.0078 28.8 60.0078 28.5ZM58.5078 32H48.5078C48.2078 32 48.0078 32.2 48.0078 32.5C48.0078 32.8 48.2078 33 48.5078 33H58.5078C58.8078 33 59.0078 32.8 59.0078 32.5C59.0078 32.2 58.8078 32 58.5078 32ZM60.5078 36H48.5078C48.2078 36 48.0078 36.2 48.0078 36.5C48.0078 36.8 48.2078 37 48.5078 37H60.5078C60.8078 37 61.0078 36.8 61.0078 36.5C61.0078 36.2 60.8078 36 60.5078 36Z" fill="#FF0000"/>
<defs>
<filter id="filter0_d_147_565" x="-7.53403e-05" y="0" width="497.016" height="103.564" filterUnits="userSpaceOnUse" color-interpolation-filters="sRGB">
<feFlood flood-opacity="0" result="BackgroundImageFix"/>
<feColorMatrix in="SourceAlpha" type="matrix" values="0 0 0 0 0 0 0 0 0 0 0 0 0 0 0 0 0 0 127 0" result="hardAlpha"/>
<feMorphology radius="14.7337" operator="erode" in="SourceAlpha" result="effect1_dropShadow_147_565"/>
<feOffset dy="24.5562"/>
<feGaussianBlur stdDeviation="16.3708"/>
<feColorMatrix type="matrix" values="0 0 0 0 0.583333 0 0 0 0 0.583333 0 0 0 0 0.583333 0 0 0 0.25 0"/>
<feBlend mode="normal" in2="BackgroundImageFix" result="effect1_dropShadow_147_565"/>
<feBlend mode="normal" in="SourceGraphic" in2="effect1_dropShadow_147_565" result="shape"/>
</filter>
</defs>
</svg>
