<svg width="14" height="14" viewBox="0 0 14 14" fill="none" xmlns="http://www.w3.org/2000/svg">
<path d="M7.5 0C4.3 0 1.6 2.35 1.1 5.4L0.850001 5.15C0.650001 4.95 0.35 4.95 0.15 5.15C-0.05 5.35 -0.05 5.65 0.15 5.85L1.15 6.85C1.25 6.95 1.45 7.05 1.7 6.95C1.9 6.9 2 6.7 2 6.5C2 3.45 4.45 1 7.5 1C10.55 1 13 3.45 13 6.5C13 6.8 13.2 7 13.5 7C13.8 7 14 6.8 14 6.5C14 2.9 11.1 0 7.5 0ZM13.3 8.2C13.05 8.1 12.75 8.25 12.65 8.5C11.85 10.6 9.75 12 7.5 12C6.15 12 4.85 11.5 3.85 10.6C3.65 10.4 3.35 10.45 3.15 10.65C2.95 10.85 3 11.15 3.2 11.35C4.4 12.45 5.95 13.05 7.55 13.05C10.2 13.05 12.65 11.4 13.6 8.9C13.65 8.6 13.55 8.3 13.3 8.2Z" fill="#FF0000"/>
</svg>
