<svg width="498" height="104" viewBox="0 0 498 104" fill="none" xmlns="http://www.w3.org/2000/svg">
<g filter="url(#filter0_d_147_569)">
<rect x="18.0078" width="461" height="61" rx="4.91124" fill="white"/>
</g>
<path d="M109.129 23.456C109.744 23.456 110.358 23.5427 110.973 23.716C111.587 23.8893 112.146 24.1887 112.651 24.6141C113.155 25.0395 113.557 25.6383 113.856 26.4103C114.155 27.1666 114.305 28.1277 114.305 29.2937C114.305 30.5857 114.155 31.6335 113.856 32.437C113.572 33.2249 113.178 33.8315 112.674 34.2569C112.17 34.6823 111.611 34.9738 110.996 35.1313C110.397 35.2889 109.775 35.3677 109.129 35.3677H106.6V40H103.977V23.456H109.129ZM106.6 32.8861H108.16C108.775 32.8861 109.302 32.8467 109.744 32.7679C110.185 32.6891 110.547 32.5316 110.831 32.2952C111.114 32.0431 111.319 31.6807 111.445 31.2081C111.587 30.7354 111.658 30.0973 111.658 29.2937C111.658 28.5531 111.587 27.9702 111.445 27.5448C111.319 27.1036 111.114 26.7806 110.831 26.5758C110.547 26.3552 110.185 26.2134 109.744 26.1503C109.302 26.0873 108.775 26.0558 108.16 26.0558H106.6V32.8861ZM121.362 23.456C121.976 23.456 122.591 23.5427 123.205 23.716C123.82 23.8893 124.379 24.1887 124.883 24.6141C125.387 25.0395 125.789 25.6383 126.088 26.4103C126.388 27.1666 126.538 28.1277 126.538 29.2937C126.538 30.2233 126.451 31.0269 126.278 31.7044C126.12 32.3819 125.892 32.9491 125.592 33.406C125.309 33.863 124.978 34.2254 124.6 34.4932L126.632 40H123.843L122.212 35.3441C122.118 35.3598 122.023 35.3677 121.929 35.3677C121.834 35.3677 121.74 35.3677 121.645 35.3677C121.551 35.3677 121.456 35.3677 121.362 35.3677H118.833V40H116.209V23.456H121.362ZM120.393 32.8861C121.007 32.8861 121.535 32.8467 121.976 32.7679C122.417 32.6891 122.78 32.5316 123.063 32.2952C123.347 32.0431 123.552 31.6807 123.678 31.2081C123.82 30.7354 123.891 30.0973 123.891 29.2937C123.891 28.5531 123.82 27.9702 123.678 27.5448C123.552 27.1036 123.347 26.7806 123.063 26.5758C122.78 26.3552 122.417 26.2134 121.976 26.1503C121.535 26.0873 121.007 26.0558 120.393 26.0558H118.833V32.8861H120.393ZM142.088 26.1976C141.789 26.0716 141.434 25.977 141.025 25.914C140.615 25.8352 140.229 25.7958 139.867 25.7958C139.347 25.7958 138.905 25.8667 138.543 26.0085C138.196 26.1503 137.929 26.3709 137.739 26.6703C137.55 26.9697 137.456 27.3636 137.456 27.852V35.604C137.456 36.0925 137.542 36.4864 137.716 36.7857C137.889 37.0694 138.133 37.2821 138.448 37.4239C138.779 37.5499 139.181 37.6129 139.654 37.6129C140.142 37.6129 140.623 37.5657 141.096 37.4711C141.568 37.3766 141.978 37.2742 142.324 37.1639C142.687 37.0536 142.907 36.9906 142.986 36.9748L143.364 39.4564C142.687 39.7085 142.025 39.9055 141.379 40.0473C140.733 40.2048 140.111 40.2836 139.512 40.2836C138.535 40.2836 137.692 40.1103 136.983 39.7637C136.29 39.4013 135.754 38.8734 135.376 38.1802C135.014 37.4869 134.832 36.6439 134.832 35.6513V27.9229C134.832 26.883 135.029 26.0085 135.423 25.2995C135.833 24.5905 136.377 24.0626 137.054 23.716C137.747 23.3536 138.527 23.1724 139.394 23.1724C139.961 23.1724 140.528 23.2433 141.096 23.3851C141.663 23.5112 142.23 23.716 142.797 23.9996L142.088 26.1976ZM151.368 32.0825C151.368 31.6256 151.321 31.2475 151.227 30.9481C151.132 30.6487 150.982 30.4124 150.778 30.2391C150.573 30.0657 150.313 29.9397 149.998 29.8609C149.683 29.7821 149.297 29.7427 148.84 29.7427L149.052 27.9465C149.95 27.9465 150.707 28.0253 151.321 28.1829C151.951 28.3404 152.456 28.6083 152.834 28.9864C153.228 29.3488 153.511 29.8373 153.685 30.4518C153.874 31.0663 153.968 31.8304 153.968 32.7443V40C153.716 40.0315 153.456 40.063 153.188 40.0945C152.92 40.126 152.645 40.1497 152.361 40.1654C152.093 40.197 151.81 40.2127 151.51 40.2127C151.227 40.2285 150.935 40.2363 150.636 40.2363C150.336 40.2521 150.029 40.26 149.714 40.26C149.037 40.26 148.406 40.197 147.823 40.0709C147.24 39.9449 146.72 39.7321 146.263 39.4328C145.822 39.1177 145.476 38.708 145.224 38.2038C144.971 37.6996 144.845 37.0694 144.845 36.3131V34.0205C144.845 33.4218 144.932 32.9018 145.105 32.4607C145.279 32.0195 145.515 31.6571 145.814 31.3735C146.114 31.0899 146.453 30.8772 146.831 30.7354C147.225 30.5936 147.634 30.5227 148.06 30.5227C148.454 30.5227 148.863 30.5857 149.289 30.7117C149.714 30.822 150.108 30.9954 150.47 31.2317C150.849 31.4523 151.148 31.7359 151.368 32.0825ZM151.368 34.0205C151.29 33.9575 151.108 33.863 150.825 33.7369C150.557 33.6109 150.242 33.4927 149.879 33.3824C149.517 33.2564 149.155 33.1933 148.792 33.1933C148.619 33.1933 148.454 33.217 148.296 33.2642C148.138 33.2958 147.997 33.3588 147.871 33.4533C147.76 33.5321 147.666 33.6503 147.587 33.8078C147.524 33.9496 147.492 34.1308 147.492 34.3514V35.8876C147.492 36.187 147.516 36.4549 147.563 36.6912C147.626 36.9275 147.737 37.1324 147.894 37.3057C148.068 37.479 148.312 37.6129 148.627 37.7075C148.958 37.802 149.391 37.8493 149.927 37.8493C150.006 37.8493 150.1 37.8493 150.21 37.8493C150.336 37.8335 150.462 37.8256 150.589 37.8256C150.73 37.8099 150.856 37.802 150.967 37.802C151.093 37.7863 151.187 37.7784 151.25 37.7784C151.329 37.7626 151.368 37.7547 151.368 37.7547V34.0205ZM162.924 30.31C162.924 30.31 162.821 30.2863 162.616 30.2391C162.427 30.176 162.12 30.1445 161.695 30.1445C161.442 30.1445 161.183 30.1603 160.915 30.1918C160.647 30.2075 160.379 30.2469 160.111 30.31C159.859 30.3572 159.607 30.4203 159.355 30.499C159.103 30.5778 158.858 30.6802 158.622 30.8063V40H155.999V28.1592H158.622V28.6319C159.016 28.3641 159.457 28.1592 159.946 28.0174C160.434 27.8756 160.93 27.8047 161.435 27.8047C161.797 27.8047 162.136 27.8441 162.451 27.9229C162.766 27.9859 163.05 28.0647 163.302 28.1592L162.924 30.31ZM173.818 40C173.566 40.0315 173.306 40.063 173.038 40.0945C172.786 40.126 172.519 40.1497 172.235 40.1654C171.967 40.197 171.691 40.2127 171.408 40.2127C171.124 40.2285 170.833 40.2363 170.533 40.2363C170.25 40.2521 169.95 40.26 169.635 40.26C168.973 40.26 168.343 40.1812 167.744 40.0236C167.146 39.8818 166.618 39.6534 166.161 39.3382C165.704 39.0231 165.342 38.6213 165.074 38.1329C164.822 37.6287 164.696 37.0221 164.696 36.3131V31.4917C164.696 30.8772 164.798 30.3494 165.003 29.9082C165.208 29.467 165.476 29.1046 165.806 28.821C166.153 28.5216 166.539 28.3011 166.964 28.1592C167.39 28.0174 167.815 27.9465 168.241 27.9465C168.792 27.9465 169.296 27.9938 169.753 28.0883C170.226 28.1829 170.714 28.3404 171.219 28.561V23.456H173.818V40ZM171.219 31.2317C171.077 31.1529 170.809 31.0426 170.415 30.9008C170.021 30.7433 169.548 30.6645 168.997 30.6645C168.808 30.6645 168.619 30.6881 168.43 30.7354C168.241 30.7669 168.06 30.8299 167.886 30.9245C167.729 31.0032 167.595 31.1214 167.484 31.279C167.39 31.4208 167.343 31.602 167.343 31.8226V35.864C167.343 36.1634 167.374 36.4391 167.437 36.6912C167.5 36.9275 167.61 37.1324 167.768 37.3057C167.941 37.4633 168.186 37.5893 168.501 37.6838C168.832 37.7784 169.265 37.8256 169.801 37.8256C169.879 37.8256 169.974 37.8256 170.084 37.8256C170.21 37.8099 170.336 37.802 170.462 37.802C170.604 37.7863 170.73 37.7784 170.84 37.7784C170.951 37.7784 171.037 37.7784 171.1 37.7784C171.179 37.7626 171.219 37.7547 171.219 37.7547V31.2317ZM182.143 42.7179L189.895 20.6436H192.234L184.482 42.7179H182.143ZM207.59 26.1976C207.291 26.0716 206.936 25.977 206.527 25.914C206.117 25.8352 205.731 25.7958 205.368 25.7958C204.848 25.7958 204.407 25.8667 204.045 26.0085C203.698 26.1503 203.43 26.3709 203.241 26.6703C203.052 26.9697 202.958 27.3636 202.958 27.852V35.604C202.958 36.0925 203.044 36.4864 203.218 36.7857C203.391 37.0694 203.635 37.2821 203.95 37.4239C204.281 37.5499 204.683 37.6129 205.156 37.6129C205.644 37.6129 206.125 37.5657 206.597 37.4711C207.07 37.3766 207.48 37.2742 207.826 37.1639C208.189 37.0536 208.409 36.9906 208.488 36.9748L208.866 39.4564C208.189 39.7085 207.527 39.9055 206.881 40.0473C206.235 40.2048 205.613 40.2836 205.014 40.2836C204.037 40.2836 203.194 40.1103 202.485 39.7637C201.792 39.4013 201.256 38.8734 200.878 38.1802C200.516 37.4869 200.334 36.6439 200.334 35.6513V27.9229C200.334 26.883 200.531 26.0085 200.925 25.2995C201.335 24.5905 201.878 24.0626 202.556 23.716C203.249 23.3536 204.029 23.1724 204.896 23.1724C205.463 23.1724 206.03 23.2433 206.597 23.3851C207.165 23.5112 207.732 23.716 208.299 23.9996L207.59 26.1976ZM210.817 40V28.1592H213.441V40H210.817ZM212.141 23.2197C212.535 23.2197 212.866 23.3457 213.133 23.5978C213.417 23.8499 213.559 24.1808 213.559 24.5905C213.559 24.9844 213.417 25.3231 213.133 25.6067C212.866 25.8746 212.535 26.0085 212.141 26.0085C211.747 26.0085 211.408 25.8746 211.124 25.6067C210.857 25.3231 210.723 24.9844 210.723 24.5905C210.723 24.1808 210.857 23.8499 211.124 23.5978C211.408 23.3457 211.747 23.2197 212.141 23.2197ZM218.263 36.8803C218.263 37.2269 218.334 37.5026 218.475 37.7075C218.617 37.8966 218.814 38.0305 219.066 38.1093C219.334 38.188 219.649 38.2274 220.012 38.2274L219.232 40.3072C218.034 40.2757 217.128 39.9764 216.514 39.4091C215.915 38.8262 215.616 37.9832 215.616 36.8803V23.456H218.263V28.1829H220.532L219.988 30.5699H218.263V36.8803ZM222.45 40V28.1592H225.073V40H222.45ZM223.773 23.2197C224.167 23.2197 224.498 23.3457 224.766 23.5978C225.049 23.8499 225.191 24.1808 225.191 24.5905C225.191 24.9844 225.049 25.3231 224.766 25.6067C224.498 25.8746 224.167 26.0085 223.773 26.0085C223.379 26.0085 223.041 25.8746 222.757 25.6067C222.489 25.3231 222.355 24.9844 222.355 24.5905C222.355 24.1808 222.489 23.8499 222.757 23.5978C223.041 23.3457 223.379 23.2197 223.773 23.2197ZM235.521 28.1592V30.5227L230.322 37.4948L235.758 37.5184V40H227.037V37.4948L232.236 30.5936L227.249 30.5699V28.1592H235.521ZM240.254 36.4785C240.254 36.6833 240.286 36.8724 240.349 37.0457C240.412 37.2033 240.499 37.3451 240.609 37.4711C240.719 37.5972 240.861 37.6917 241.034 37.7547C241.208 37.8178 241.397 37.8493 241.602 37.8493C242.027 37.8493 242.508 37.7547 243.043 37.5657C243.595 37.3766 244.115 37.156 244.603 36.9039L245.549 39.1728C245.013 39.5194 244.383 39.7952 243.658 40C242.949 40.2048 242.24 40.3072 241.531 40.3072C240.979 40.3072 240.459 40.2363 239.971 40.0945C239.498 39.9527 239.081 39.74 238.718 39.4564C238.372 39.1728 238.096 38.8104 237.891 38.3692C237.702 37.9281 237.607 37.4081 237.607 36.8094V31.9644C237.607 31.0663 237.796 30.3178 238.175 29.7191C238.569 29.1204 239.096 28.6713 239.758 28.372C240.42 28.0726 241.16 27.9229 241.98 27.9229C242.815 27.9229 243.54 28.0726 244.154 28.372C244.784 28.6556 245.273 29.0967 245.619 29.6955C245.966 30.2784 246.139 31.0111 246.139 31.8935V35.5804L240.254 35.8876V36.4785ZM243.516 32.6025C243.516 32.2401 243.477 31.8935 243.398 31.5626C243.319 31.2159 243.169 30.9323 242.949 30.7117C242.728 30.4912 242.397 30.3966 241.956 30.4281C241.483 30.4439 241.121 30.5463 240.869 30.7354C240.633 30.9087 240.467 31.1529 240.373 31.468C240.294 31.7674 240.254 32.1377 240.254 32.5788V33.5006L243.516 33.2879V32.6025ZM254.258 31.8935C254.258 31.6729 254.218 31.468 254.14 31.279C254.061 31.0741 253.943 30.9008 253.785 30.759C253.643 30.6172 253.47 30.5069 253.265 30.4281C253.06 30.3494 252.832 30.31 252.58 30.31C252.406 30.31 252.217 30.3257 252.012 30.3572C251.823 30.3887 251.619 30.4518 251.398 30.5463C251.177 30.6251 250.941 30.7354 250.689 30.8772V40.0236H248.089V28.1592H250.689V28.7028C250.831 28.6241 251.02 28.5295 251.256 28.4192C251.508 28.2932 251.784 28.1829 252.083 28.0883C252.398 27.9938 252.721 27.9465 253.052 27.9465C253.431 27.9465 253.801 27.9859 254.163 28.0647C254.526 28.1435 254.864 28.2695 255.179 28.4429C255.51 28.6162 255.794 28.8525 256.03 29.1519C256.282 29.4355 256.479 29.7979 256.621 30.2391C256.763 30.6802 256.834 31.2081 256.834 31.8226V40.0236H254.258V31.8935ZM265.575 30.8772C265.402 30.7826 265.205 30.7039 264.985 30.6408C264.764 30.5621 264.528 30.5069 264.276 30.4754C264.039 30.4281 263.787 30.4045 263.519 30.4045C263.377 30.4045 263.22 30.4124 263.047 30.4281C262.889 30.4439 262.731 30.4833 262.574 30.5463C262.416 30.5936 262.282 30.6724 262.172 30.7826C262.078 30.8772 262.03 31.0111 262.03 31.1844C262.03 31.4208 262.125 31.6256 262.314 31.7989C262.519 31.9722 262.787 32.1298 263.117 32.2716C263.448 32.4134 263.811 32.5631 264.205 32.7207C264.599 32.8625 264.985 33.0358 265.363 33.2406C265.757 33.4454 266.119 33.6897 266.45 33.9733C266.781 34.2569 267.041 34.6114 267.23 35.0368C267.435 35.4465 267.537 35.9428 267.537 36.5258C267.537 37.156 267.419 37.7075 267.183 38.1802C266.946 38.6528 266.623 39.0546 266.214 39.3855C265.82 39.7006 265.363 39.937 264.843 40.0945C264.339 40.2679 263.811 40.3545 263.259 40.3545C262.393 40.3545 261.565 40.1733 260.778 39.8109C259.99 39.4485 259.32 38.9601 258.769 38.3456L260.305 36.7385C260.557 36.9591 260.825 37.1639 261.109 37.353C261.408 37.5263 261.715 37.6681 262.03 37.7784C262.345 37.8729 262.66 37.9202 262.976 37.9202C263.18 37.9202 263.385 37.8966 263.59 37.8493C263.811 37.802 264.008 37.7232 264.181 37.6129C264.354 37.5026 264.496 37.3608 264.606 37.1875C264.717 37.0142 264.772 36.8094 264.772 36.573C264.772 36.2579 264.669 35.9979 264.465 35.7931C264.276 35.5883 264.016 35.4071 263.685 35.2495C263.37 35.0762 263.015 34.9108 262.621 34.7532C262.243 34.5956 261.857 34.4302 261.463 34.2569C261.085 34.0678 260.73 33.8393 260.399 33.5715C260.084 33.3036 259.824 32.9806 259.62 32.6025C259.43 32.2243 259.336 31.7674 259.336 31.2317C259.336 30.6487 259.446 30.1445 259.667 29.7191C259.887 29.2937 260.187 28.9471 260.565 28.6792C260.959 28.3956 261.392 28.1908 261.865 28.0647C262.337 27.9229 262.818 27.852 263.306 27.852C263.653 27.852 264.008 27.8835 264.37 27.9465C264.748 28.0096 265.111 28.1041 265.457 28.2301C265.804 28.3562 266.111 28.5138 266.379 28.7028L265.575 30.8772ZM272.039 28.7028C272.181 28.6083 272.37 28.498 272.607 28.372C272.859 28.2459 273.134 28.1435 273.434 28.0647C273.749 27.9702 274.072 27.9229 274.403 27.9229C274.781 27.9229 275.151 27.9623 275.514 28.0411C275.876 28.1199 276.215 28.2459 276.53 28.4192C276.861 28.5925 277.152 28.8289 277.404 29.1282C277.656 29.4276 277.853 29.7979 277.995 30.2391C278.137 30.6802 278.208 31.2081 278.208 31.8226V40H275.632V31.8698C275.632 31.6492 275.592 31.4444 275.514 31.2553C275.435 31.0663 275.317 30.9008 275.159 30.759C275.017 30.6172 274.836 30.5069 274.615 30.4281C274.411 30.3494 274.182 30.31 273.93 30.31C273.757 30.31 273.568 30.3336 273.363 30.3809C273.174 30.4124 272.969 30.4675 272.748 30.5463C272.528 30.6251 272.291 30.7275 272.039 30.8535V40H269.44V23.456H272.039V28.7028ZM280.174 40V28.1592H282.797V40H280.174ZM281.497 23.2197C281.891 23.2197 282.222 23.3457 282.49 23.5978C282.773 23.8499 282.915 24.1808 282.915 24.5905C282.915 24.9844 282.773 25.3231 282.49 25.6067C282.222 25.8746 281.891 26.0085 281.497 26.0085C281.103 26.0085 280.764 25.8746 280.481 25.6067C280.213 25.3231 280.079 24.9844 280.079 24.5905C280.079 24.1808 280.213 23.8499 280.481 23.5978C280.764 23.3457 281.103 23.2197 281.497 23.2197ZM293.601 35.8167C293.601 37.2663 293.263 38.3771 292.585 39.1492C291.908 39.9055 290.915 40.2836 289.607 40.2836C289.355 40.2836 289.095 40.26 288.827 40.2127C288.575 40.1654 288.331 40.0945 288.095 40C287.874 39.9212 287.669 39.8267 287.48 39.7164V45.0577L284.857 44.5378V28.1592H287.48V28.6792C287.575 28.5847 287.756 28.4822 288.024 28.372C288.292 28.2459 288.591 28.1435 288.922 28.0647C289.268 27.9702 289.591 27.9229 289.891 27.9229C290.694 27.9229 291.372 28.0805 291.923 28.3956C292.475 28.7107 292.892 29.1598 293.176 29.7427C293.46 30.3257 293.601 31.019 293.601 31.8226V35.8167ZM291.002 32.0116C291.002 31.6807 290.954 31.405 290.86 31.1844C290.765 30.9481 290.631 30.7669 290.458 30.6408C290.3 30.5148 290.119 30.4281 289.914 30.3809C289.71 30.3178 289.497 30.2863 289.276 30.2863C289.024 30.2863 288.764 30.3336 288.496 30.4281C288.244 30.5069 288.024 30.5936 287.835 30.6881C287.661 30.7669 287.543 30.822 287.48 30.8535V36.6912C287.48 36.9118 287.543 37.1009 287.669 37.2584C287.811 37.416 287.984 37.542 288.189 37.6366C288.41 37.7311 288.63 37.802 288.851 37.8493C289.087 37.8966 289.3 37.9202 289.489 37.9202C289.82 37.9202 290.096 37.8493 290.316 37.7075C290.537 37.5657 290.702 37.3687 290.813 37.1166C290.939 36.8488 291.002 36.5494 291.002 36.2185V32.0116Z" fill="black"/>
<path d="M432.557 31.5303C432.85 31.2374 432.85 30.7626 432.557 30.4697L427.784 25.6967C427.491 25.4038 427.016 25.4038 426.723 25.6967C426.431 25.9896 426.431 26.4645 426.723 26.7574L430.966 31L426.723 35.2426C426.431 35.5355 426.431 36.0104 426.723 36.3033C427.016 36.5962 427.491 36.5962 427.784 36.3033L432.557 31.5303ZM431.008 31V31.75H432.027V31V30.25H431.008V31Z" fill="black"/>
<path d="M72.5936 13.342H71.1964V11.8799C71.1964 11.7581 71.1477 11.6443 71.0584 11.5631C70.9771 11.4819 70.8553 11.4413 70.7334 11.4494L70.1242 11.4981V10.4259C70.1161 10.296 70.0674 10.1904 69.9699 10.101C69.8724 10.0279 69.7587 9.98731 69.6287 10.0036L46.4302 13.342H46.3977L46.3733 13.3501C46.3246 13.3501 46.2759 13.3664 46.2352 13.3907C46.1378 13.4314 46.0728 13.5207 46.0322 13.6101C46.0322 13.6182 46.0241 13.6344 46.0241 13.6425C46.0241 13.6507 46.0159 13.6588 46.0159 13.675C46.0159 13.6994 46.0078 13.7238 46.0078 13.7563V52.4693C46.0078 52.7048 46.1946 52.8916 46.4302 52.8916H72.5854C72.821 52.8916 73.0078 52.7048 73.0078 52.4693V13.7644C73.0078 13.5369 72.821 13.342 72.5854 13.342H72.5936ZM70.3436 13.342H57.4203L70.3436 12.3429V13.342ZM61.506 47.3113V48.8628C61.506 49.0252 61.3679 49.1633 61.2055 49.1633H58.0295C57.8589 49.1633 57.7289 49.0252 57.7289 48.8628V47.3113C57.7289 47.1489 57.8589 47.0108 58.0295 47.0108H61.2055C61.3679 47.0108 61.506 47.1489 61.506 47.3113ZM59.1098 20.4332C59.1585 20.425 59.2154 20.4169 59.2641 20.4169H59.4266C59.4266 20.4169 59.451 20.4169 59.4591 20.4169C63.8291 20.4332 67.3706 23.9828 67.3706 28.361C67.3706 32.7391 63.8129 36.305 59.4266 36.305C59.3535 36.305 59.2641 36.305 59.191 36.2969C54.9834 36.175 51.58 32.7554 51.4825 28.5397V28.5153C51.4744 28.4503 51.4744 28.3691 51.4744 28.296C51.4744 28.1985 51.4825 28.1173 51.4907 28.036C51.6612 23.9178 54.9916 20.5956 59.1098 20.4413V20.4332ZM54.6585 17.4115C54.6585 17.1841 54.8535 16.9891 55.0809 16.9891H63.9347C64.1621 16.9891 64.3571 17.1841 64.3571 17.4115C64.3571 17.6389 64.1621 17.8339 63.9347 17.8339H55.0809C54.8535 17.8339 54.6585 17.6471 54.6585 17.4115ZM68.256 41.8691V43.6642H50.8652V41.8691H68.256ZM69.2795 11.5631L59.4022 12.3348L69.2795 10.9133V11.5631Z" fill="#FF0000"/>
<path d="M55.357 25.4367C53.7487 26.0053 52.6197 26.8907 52.376 27.8816H54.9834C55.0159 27.0287 55.1458 26.2002 55.357 25.4367ZM55.6738 24.462C56.1449 23.2598 56.811 22.2363 57.6558 21.489C55.3976 22.0739 53.57 23.7553 52.7659 25.924C53.4888 25.3148 54.4879 24.8031 55.6738 24.462ZM59.4103 23.9421C60.2875 23.9421 61.1242 24.0152 61.9202 24.1614C61.3191 22.8861 60.4256 21.8952 59.3453 21.3672C58.2325 21.887 57.3146 22.8943 56.7054 24.202C57.5583 24.0314 58.468 23.9421 59.4184 23.9421H59.4103ZM66.0953 25.9403C65.2749 23.674 63.3254 21.9439 60.9292 21.424C61.7821 22.1632 62.4644 23.1948 62.9355 24.397C64.2271 24.7462 65.3236 25.2824 66.0953 25.9322V25.9403ZM62.2938 25.1118C61.4085 24.9087 60.4337 24.795 59.4103 24.795C58.3137 24.795 57.2577 24.9249 56.3236 25.1605C56.0393 26.0053 55.8769 26.9313 55.8281 27.906L62.7975 27.9222C62.765 26.9231 62.5863 25.9647 62.2938 25.1118ZM63.2605 25.3717C63.4879 26.1677 63.6179 27.0287 63.6503 27.9304H66.4771C66.2496 26.8744 65.0068 25.9403 63.2523 25.3717H63.2605ZM52.7009 30.6271C53.4563 32.8771 55.3164 34.6316 57.6395 35.2408C56.7704 34.4529 56.0881 33.3807 55.6251 32.1298C54.4392 31.7724 53.4238 31.2526 52.7009 30.6271ZM59.4103 32.6578C58.4518 32.6578 57.5258 32.5603 56.6648 32.3897C57.274 33.7544 58.2 34.8184 59.3128 35.3627C60.4337 34.8266 61.3597 33.7787 61.9608 32.4222C61.1648 32.5766 60.2957 32.6578 59.4021 32.6578H59.4103ZM55.3245 31.1145C55.1296 30.3672 55.0077 29.5712 54.9834 28.7426H52.3841C52.6521 29.693 53.7731 30.554 55.3245 31.1145ZM56.2911 31.415C57.2415 31.6668 58.3056 31.8049 59.4103 31.8049C60.4419 31.8049 61.4328 31.6831 62.3345 31.4638C62.6025 30.6434 62.765 29.7336 62.8056 28.767L55.8363 28.7508C55.8688 29.6849 56.0312 30.5865 56.2993 31.4069L56.2911 31.415ZM63.2929 31.1957C64.9256 30.6434 66.1197 29.7742 66.4364 28.7914H63.6503C63.6179 29.628 63.496 30.4403 63.2929 31.1957ZM60.9049 35.3058C63.3742 34.7778 65.3724 32.9583 66.1603 30.5946C65.3967 31.2769 64.292 31.8293 62.9843 32.1867C62.5132 33.462 61.8065 34.5423 60.913 35.3058H60.9049Z" fill="#FF0000"/>
<defs>
<filter id="filter0_d_147_569" x="-7.53403e-05" y="0" width="497.016" height="103.564" filterUnits="userSpaceOnUse" color-interpolation-filters="sRGB">
<feFlood flood-opacity="0" result="BackgroundImageFix"/>
<feColorMatrix in="SourceAlpha" type="matrix" values="0 0 0 0 0 0 0 0 0 0 0 0 0 0 0 0 0 0 127 0" result="hardAlpha"/>
<feMorphology radius="14.7337" operator="erode" in="SourceAlpha" result="effect1_dropShadow_147_569"/>
<feOffset dy="24.5562"/>
<feGaussianBlur stdDeviation="16.3708"/>
<feColorMatrix type="matrix" values="0 0 0 0 0.583333 0 0 0 0 0.583333 0 0 0 0 0.583333 0 0 0 0.25 0"/>
<feBlend mode="normal" in2="BackgroundImageFix" result="effect1_dropShadow_147_569"/>
<feBlend mode="normal" in="SourceGraphic" in2="effect1_dropShadow_147_569" result="shape"/>
</filter>
</defs>
</svg>
