<svg width="18" height="18" viewBox="0 0 18 18" fill="none" xmlns="http://www.w3.org/2000/svg">
<path d="M2.67697 11.2516C2.35213 11.0322 1.93447 11.0491 1.54213 11.2938C1.14978 11.0491 0.732126 11.0322 0.407282 11.2516C0.0697819 11.4794 -0.0778743 11.9181 0.0402507 12.3527C0.225876 12.918 0.681501 13.4116 1.43666 13.863C1.46619 13.8841 1.50416 13.8925 1.54213 13.8925C1.58009 13.8925 1.61806 13.8841 1.64759 13.863C2.40275 13.4116 2.85838 12.918 3.044 12.3527C3.044 12.3484 3.044 12.3484 3.044 12.3442C3.16213 11.9181 3.01447 11.4794 2.67697 11.2516ZM17.0503 11.1925C16.7085 10.9647 16.274 10.9816 15.8606 11.2431C15.4471 10.9858 15.0126 10.9647 14.6709 11.1925C14.3207 11.433 14.1646 11.8886 14.287 12.3316C14.287 12.3358 14.2912 12.34 14.2912 12.34C14.481 12.9306 14.962 13.4495 15.7551 13.9263C15.7846 13.9473 15.8226 13.9558 15.8606 13.9558C15.8985 13.9558 15.9323 13.9473 15.966 13.9263C16.7592 13.4495 17.2401 12.9306 17.4342 12.3316C17.5565 11.8886 17.4004 11.433 17.0503 11.1925ZM9.119 16.1369C8.92072 16.0019 8.67181 16.0019 8.43556 16.1284C8.20353 16.0019 7.95463 16.0019 7.75634 16.1369C7.53697 16.2845 7.43994 16.5672 7.51588 16.8414V16.8541C7.62556 17.1874 7.89134 17.4784 8.33009 17.74C8.36384 17.7611 8.40181 17.7695 8.43556 17.7695C8.47353 17.7695 8.5115 17.7611 8.54525 17.74C8.984 17.4784 9.24978 17.1873 9.35947 16.8414C9.43541 16.5672 9.33838 16.2845 9.119 16.1369ZM1.33541 1.20672C1.66869 1.20672 1.99353 1.03376 2.30572 0.692037C2.38166 0.607662 2.37744 0.47688 2.29306 0.396724C2.20869 0.320786 2.07791 0.325005 1.99775 0.40938C1.53791 0.91563 1.12869 0.91563 0.668844 0.40938C0.592907 0.325005 0.457907 0.316567 0.373532 0.396724C0.289157 0.472661 0.28072 0.603443 0.360876 0.692037C0.677282 1.03376 1.00213 1.20672 1.33541 1.20672ZM15.3121 3.66625C15.6454 3.66625 15.9703 3.49329 16.2824 3.15157C16.3584 3.06719 16.3542 2.93641 16.2698 2.85626C16.1854 2.78032 16.0546 2.78454 15.9745 2.86891C15.5146 3.37516 15.1054 3.37516 14.6456 2.86891C14.5696 2.78454 14.4346 2.7761 14.3503 2.85626C14.2659 2.93219 14.2574 3.06297 14.3376 3.15157C14.654 3.49329 14.9788 3.66625 15.3121 3.66625ZM9.01353 10.4416C8.55369 10.9478 8.14447 10.9478 7.68463 10.4416C7.60869 10.3572 7.47369 10.3488 7.38931 10.4289C7.30494 10.5048 7.2965 10.6356 7.37666 10.7242C7.68884 11.0659 8.01369 11.2389 8.34697 11.2389C8.68025 11.2389 9.00509 11.0659 9.31728 10.7242C9.39322 10.6398 9.389 10.5091 9.30463 10.4289C9.22447 10.3488 9.08947 10.3572 9.01353 10.4416ZM7.94619 2.27407C7.97994 2.29516 8.01369 2.3036 8.05166 2.3036C8.08963 2.3036 8.12759 2.29516 8.15713 2.27407C8.76884 1.91126 9.13588 1.51047 9.28353 1.05063C9.28353 1.05063 9.28353 1.04641 9.28775 1.04219C9.38478 0.687818 9.25822 0.320787 8.97556 0.130943C8.70978 -0.0504634 8.37228 -0.0420255 8.05166 0.147818C7.73103 -0.0420255 7.39353 -0.0504634 7.12775 0.130943C6.8451 0.320787 6.71853 0.687818 6.81978 1.05063C6.96744 1.51047 7.33869 1.91126 7.94619 2.27407Z" fill="#FF0000"/>
</svg>
