<svg width="24" height="24" viewBox="0 0 24 24" fill="none" xmlns="http://www.w3.org/2000/svg">
<path d="M12.9896 0.355957V1.97504C14.591 1.97504 16.0913 2.37981 17.4904 3.18935C18.8221 3.98203 19.8841 5.04455 20.6764 6.37692C21.4855 7.77676 21.8901 9.27778 21.8901 10.88H23.5083C23.5083 8.9742 23.0279 7.20333 22.0671 5.56738C21.1399 3.98203 19.8841 2.72555 18.2996 1.79795C16.6644 0.836622 14.8945 0.355957 12.9896 0.355957ZM4.62019 2.78458C4.16506 2.78458 3.76892 2.92794 3.43178 3.21465L0.827392 5.87096L0.903248 5.82036C0.481826 6.17454 0.203687 6.61304 0.0688323 7.13587C-0.0491659 7.6587 -0.0154521 8.16466 0.169974 8.65376C0.641966 9.96926 1.2741 11.3185 2.06637 12.7015C3.17893 14.6073 4.50219 16.3191 6.03617 17.837C8.49728 20.3162 11.5568 22.2726 15.2147 23.7062H15.24C15.7289 23.8748 16.2177 23.9086 16.7066 23.8074C17.2123 23.7062 17.659 23.4869 18.0467 23.1496L20.6005 20.5945C20.9377 20.2572 21.1062 19.844 21.1062 19.3549C21.1062 18.8489 20.9377 18.4273 20.6005 18.09L17.2881 14.7506C16.951 14.4133 16.5296 14.2447 16.0239 14.2447C15.5182 14.2447 15.0967 14.4133 14.7596 14.7506L13.1666 16.3697C11.8855 15.7625 10.773 15.012 9.82897 14.1182C8.88498 13.2074 8.13485 12.1027 7.57857 10.8041L9.19684 9.18502C9.55083 8.81398 9.72783 8.37548 9.72783 7.86952C9.72783 7.34669 9.52555 6.92505 9.12098 6.60461L9.19684 6.6805L5.8086 3.21465C5.47146 2.92794 5.07533 2.78458 4.62019 2.78458ZM12.9896 3.59412V5.21321C14.0179 5.21321 14.9619 5.46619 15.8216 5.97215C16.6982 6.47812 17.3893 7.1696 17.895 8.0466C18.4007 8.90674 18.6535 9.85121 18.6535 10.88H20.2718C20.2718 9.56449 19.9431 8.34175 19.2857 7.21176C18.6283 6.11551 17.7517 5.23851 16.656 4.58075C15.5266 3.923 14.3045 3.59412 12.9896 3.59412ZM4.62019 4.40367C4.67076 4.40367 4.72976 4.42896 4.79719 4.47956L8.10957 7.86952C8.12642 7.93698 8.10957 7.99601 8.059 8.0466L5.65689 10.4246L5.83389 10.9306L6.1626 11.6389C6.43231 12.2124 6.74416 12.7689 7.09815 13.3086C7.587 14.0676 8.12642 14.7169 8.71641 15.2566C9.50869 16.0324 10.4611 16.7407 11.5737 17.3816C12.1299 17.7021 12.6019 17.9382 12.9896 18.09L13.4953 18.3177L15.948 15.8637C15.9817 15.83 16.007 15.8131 16.0239 15.8131C16.0407 15.8131 16.066 15.83 16.0997 15.8637L19.5133 19.279C19.547 19.3127 19.5638 19.338 19.5638 19.3549C19.5638 19.3549 19.547 19.3718 19.5133 19.4055L16.9847 21.91C16.6139 22.2304 16.2093 22.3148 15.771 22.163C12.3322 20.8306 9.46655 19.0091 7.17401 16.6986C5.75803 15.2819 4.51905 13.6712 3.45707 11.8666C2.69851 10.568 2.10852 9.31151 1.68709 8.0972V8.0719C1.61967 7.92011 1.61124 7.74303 1.66181 7.54064C1.71238 7.32139 1.80509 7.15273 1.93995 7.03468L4.44319 4.47956C4.49376 4.42896 4.55276 4.40367 4.62019 4.40367ZM12.9896 6.83229V8.45137C13.6639 8.45137 14.237 8.68749 14.709 9.15972C15.181 9.63196 15.417 10.2054 15.417 10.88H17.0353C17.0353 10.1548 16.8499 9.48017 16.479 8.85614C16.125 8.23212 15.6362 7.74303 15.0125 7.38885C14.3888 7.01781 13.7145 6.83229 12.9896 6.83229Z" fill="black"/>
</svg>
