<svg width="328" height="117" viewBox="0 0 328 117" fill="none" xmlns="http://www.w3.org/2000/svg">
<path d="M2.3988 0.391507C1.85003 -0.130502 0.960328 -0.130502 0.411563 0.391507C-0.137188 0.913502 -0.137188 1.75984 0.411563 2.28184L5.37959 7.00764L0.411563 11.7336C-0.137188 12.2555 -0.137188 13.1018 0.411563 13.6239C0.960328 14.1458 1.85003 14.1458 2.3988 13.6239L7.36679 8.89795C8.46438 7.85402 8.46438 6.16139 7.36679 5.11732L2.3988 0.391507Z" fill="#FF0000"/>
<path d="M9.67873 0.391507C9.13 -0.130502 8.24024 -0.130502 7.69151 0.391507C7.14279 0.913502 7.14279 1.75984 7.69151 2.28184L12.6595 7.00764L7.69151 11.7336C7.14279 12.2555 7.14279 13.1018 7.69151 13.6239C8.24024 14.1458 9.13 14.1458 9.67873 13.6239L14.6468 8.89795C15.7443 7.85402 15.7443 6.16139 14.6468 5.11732L9.67873 0.391507Z" fill="#FF0000"/>
<path d="M314.528 0.391507C313.979 -0.130502 313.09 -0.130502 312.541 0.391507C311.992 0.913502 311.992 1.75984 312.541 2.28184L317.509 7.00764L312.541 11.7336C311.992 12.2555 311.992 13.1018 312.541 13.6239C313.09 14.1458 313.979 14.1458 314.528 13.6239L319.496 8.89795C320.594 7.85402 320.594 6.16139 319.496 5.11732L314.528 0.391507Z" fill="#FF0000"/>
<path d="M321.808 0.391507C321.259 -0.130502 320.37 -0.130502 319.821 0.391507C319.272 0.913502 319.272 1.75984 319.821 2.28184L324.789 7.00764L319.821 11.7336C319.272 12.2555 319.272 13.1018 319.821 13.6239C320.37 14.1458 321.259 14.1458 321.808 13.6239L326.776 8.89795C327.874 7.85402 327.874 6.16139 326.776 5.11732L321.808 0.391507Z" fill="#FF0000"/>
<path d="M2.3988 51.8073C1.85003 51.2504 0.960328 51.2504 0.411563 51.8073C-0.137188 52.3641 -0.137188 53.2668 0.411563 53.8236L5.37959 58.8645L0.411563 63.9054C-0.137188 64.4622 -0.137188 65.3649 0.411563 65.9218C0.960328 66.4785 1.85003 66.4785 2.3988 65.9218L7.36679 60.8808C8.46438 59.7673 8.46438 57.9618 7.36679 56.8481L2.3988 51.8073Z" fill="#FF0000"/>
<path d="M9.67873 51.8073C9.13 51.2504 8.24024 51.2504 7.69151 51.8073C7.14279 52.3641 7.14279 53.2668 7.69151 53.8236L12.6595 58.8645L7.69151 63.9054C7.14279 64.4622 7.14279 65.3649 7.69151 65.9218C8.24024 66.4785 9.13 66.4785 9.67873 65.9218L14.6468 60.8808C15.7443 59.7673 15.7443 57.9618 14.6468 56.8481L9.67873 51.8073Z" fill="#FF0000"/>
<path d="M314.528 51.8073C313.979 51.2504 313.09 51.2504 312.541 51.8073C311.992 52.3641 311.992 53.2668 312.541 53.8236L317.509 58.8645L312.541 63.9054C311.992 64.4622 311.992 65.3649 312.541 65.9218C313.09 66.4785 313.979 66.4785 314.528 65.9218L319.496 60.8808C320.594 59.7673 320.594 57.9618 319.496 56.8481L314.528 51.8073Z" fill="#FF0000"/>
<path d="M321.808 51.8073C321.259 51.2504 320.37 51.2504 319.821 51.8073C319.272 52.3641 319.272 53.2668 319.821 53.8236L324.789 58.8645L319.821 63.9054C319.272 64.4622 319.272 65.3649 319.821 65.9218C320.37 66.4785 321.259 66.4785 321.808 65.9218L326.776 60.8808C327.874 59.7673 327.874 57.9618 326.776 56.8481L321.808 51.8073Z" fill="#FF0000"/>
<path d="M2.3988 103.171C1.85003 102.649 0.960328 102.649 0.411563 103.171C-0.137188 103.693 -0.137188 104.539 0.411563 105.061L5.37959 109.787L0.411563 114.513C-0.137188 115.035 -0.137188 115.881 0.411563 116.403C0.960328 116.925 1.85003 116.925 2.3988 116.403L7.36679 111.677C8.46438 110.633 8.46438 108.941 7.36679 107.897L2.3988 103.171Z" fill="#FF0000"/>
<path d="M9.67873 103.171C9.13 102.649 8.24024 102.649 7.69151 103.171C7.14279 103.693 7.14279 104.539 7.69151 105.061L12.6595 109.787L7.69151 114.513C7.14279 115.035 7.14279 115.881 7.69151 116.403C8.24024 116.925 9.13 116.925 9.67873 116.403L14.6468 111.677C15.7443 110.633 15.7443 108.941 14.6468 107.897L9.67873 103.171Z" fill="#FF0000"/>
<path d="M314.528 103.171C313.979 102.649 313.09 102.649 312.541 103.171C311.992 103.693 311.992 104.539 312.541 105.061L317.509 109.787L312.541 114.513C311.992 115.035 311.992 115.881 312.541 116.403C313.09 116.925 313.979 116.925 314.528 116.403L319.496 111.677C320.594 110.633 320.594 108.941 319.496 107.897L314.528 103.171Z" fill="#FF0000"/>
<path d="M321.808 103.171C321.259 102.649 320.37 102.649 319.821 103.171C319.272 103.693 319.272 104.539 319.821 105.061L324.789 109.787L319.821 114.513C319.272 115.035 319.272 115.881 319.821 116.403C320.37 116.925 321.259 116.925 321.808 116.403L326.776 111.677C327.874 110.633 327.874 108.941 326.776 107.897L321.808 103.171Z" fill="#FF0000"/>
</svg>
