<svg width="66" height="59" viewBox="0 0 66 59" fill="none" xmlns="http://www.w3.org/2000/svg">
<path d="M43.5541 20.8943C40.698 19.7632 37.478 20.3165 35.1348 22.3394L32.8414 24.3196L30.5479 22.3308C28.2058 20.3165 24.9765 19.7632 22.1286 20.8858C19.2725 22.0159 17.2443 24.6431 16.8225 27.7545V27.7886C16.1106 34.4274 16.1924 40.9301 17.0702 47.1018C17.0702 47.1103 17.0702 47.1188 17.0785 47.1273V47.1539C17.4754 49.4056 19.3968 51.0123 21.5825 51.0123C21.7649 51.0123 21.939 51.0028 22.1204 50.9783C22.5919 50.9187 23.0313 50.7921 23.4448 50.6048L23.6023 57.0308C23.62 57.8129 24.249 58.4418 25.0097 58.4418H25.0429C25.8212 58.4248 26.4336 57.7608 26.4171 56.9627L26.16 46.4399C26.16 46.3122 26.16 46.1846 26.1518 46.0494C26.1518 46.0239 26.1435 46.0069 26.1435 45.9898L25.7714 30.8936C25.7548 30.0944 25.1092 29.4656 24.3309 29.4826C23.5526 29.4996 22.9401 30.1625 22.9567 30.9617L23.3381 46.424C23.2883 47.2912 22.6427 48.0148 21.7898 48.1159C20.8705 48.2255 20.0259 47.5881 19.8528 46.6538C19.0155 40.746 18.9336 34.5147 19.6207 28.1397C19.9015 26.0828 21.2519 24.3324 23.1474 23.5833C25.0429 22.8352 27.1881 23.2013 28.7437 24.5441L31.9387 27.315C31.947 27.3246 31.9636 27.3331 31.9719 27.3416C31.9885 27.3587 32.0051 27.3672 32.0206 27.3831C32.0455 27.4002 32.0704 27.4172 32.0952 27.4342C32.1118 27.4427 32.1201 27.4512 32.1367 27.4598C32.1781 27.4853 32.2196 27.5023 32.26 27.5279C32.2662 27.5279 32.2721 27.5307 32.2776 27.5364C32.318 27.5534 32.3522 27.5704 32.3927 27.5874C32.4009 27.5874 32.4175 27.596 32.4258 27.596C32.459 27.6045 32.4911 27.613 32.5253 27.6215C32.5419 27.6215 32.5491 27.63 32.5657 27.63C32.5989 27.6396 32.6321 27.6396 32.6745 27.6481C32.6828 27.6481 32.6984 27.6481 32.7077 27.6566C32.7575 27.6651 32.7979 27.6651 32.8476 27.6651C32.8974 27.6651 32.9388 27.6651 32.9886 27.6566C32.9968 27.6566 33.0134 27.6566 33.0217 27.6481C33.0549 27.6396 33.088 27.6396 33.1295 27.63C33.1461 27.63 33.1544 27.6215 33.171 27.6215C33.2041 27.613 33.2373 27.6045 33.2704 27.596C33.2787 27.596 33.2953 27.5874 33.3036 27.5874C33.3451 27.5704 33.3772 27.5619 33.4197 27.5364C33.4252 27.5364 33.4307 27.5335 33.4363 27.5279C33.4777 27.5108 33.5192 27.4853 33.5596 27.4598C33.5772 27.4512 33.5927 27.4427 33.6021 27.4342C33.6259 27.4172 33.6508 27.4002 33.6757 27.3831C33.6922 27.3746 33.7088 27.3576 33.7254 27.3416C33.7337 27.3331 33.7503 27.3246 33.7586 27.315L36.9547 24.5441C38.5102 23.2013 40.6555 22.8352 42.551 23.5833C44.4464 24.3313 45.7958 26.0828 46.0766 28.1482C46.914 34.3274 46.83 40.5491 45.8455 46.6357C45.6797 47.5711 44.8278 48.217 43.9003 48.1063C42.981 47.9956 42.2939 47.1625 42.3437 46.2112C42.352 46.109 42.3437 45.9983 42.3271 45.9047L42.6919 31.1564C42.7085 30.3573 42.096 29.6954 41.3177 29.6773C40.5394 29.6603 39.8927 30.2892 39.8761 31.0883L39.2388 56.9723C39.2222 57.7714 39.8357 58.4344 40.613 58.4503H40.6461C41.4079 58.4503 42.0369 57.83 42.0535 57.0393L42.211 50.5963C42.6339 50.7921 43.0805 50.9272 43.5614 50.9868C43.7428 51.0123 43.9262 51.0209 44.0993 51.0209C46.2766 51.0209 48.2063 49.4141 48.6022 47.1625V47.1454C49.6458 40.7609 49.7287 34.2423 48.8592 27.7641C48.4374 24.6527 46.4093 22.0265 43.5531 20.8964L43.5541 20.8943Z" fill="white"/>
<path d="M32.8569 19.4481C36.9805 19.4481 40.3331 16.0057 40.3331 11.7728C40.3331 7.53983 36.9805 4.09644 32.8569 4.09644C28.7333 4.09644 25.3817 7.53877 25.3817 11.7728C25.3734 15.9972 28.7353 19.4481 32.8569 19.4481ZM32.8569 6.97799C35.4322 6.97799 37.5184 9.12852 37.5184 11.7643C37.5184 14.4 35.4239 16.5495 32.8569 16.5495C30.2899 16.5495 28.1964 14.399 28.1964 11.7643C28.1964 9.12958 30.2826 6.97799 32.8569 6.97799V6.97799Z" fill="white"/>
<path d="M17.691 23.0619C18.1957 22.4489 18.1128 21.5402 17.5262 21.0209L14.3218 18.25C11.9797 16.2357 8.74935 15.6835 5.9025 16.805C3.04632 17.9351 1.01819 20.5623 0.595357 23.6737C-0.274141 30.1508 -0.191237 36.6705 0.844077 43.054V43.071C1.241 45.3248 3.16239 46.9315 5.34806 46.9315C5.53045 46.9315 5.70456 46.922 5.88592 46.8964C6.3585 46.8379 6.79687 46.7091 7.21037 46.5229L7.3679 52.9149C7.38448 53.697 8.01251 54.3259 8.77423 54.3259H8.80739C9.58569 54.3089 10.1982 53.646 10.1816 52.8468L9.92457 42.3485C9.92457 42.2219 9.92458 42.1027 9.91629 41.975C9.91629 41.958 9.908 41.941 9.908 41.9165L9.5432 26.8021C9.52662 26.003 8.88201 25.3741 8.10371 25.3912C7.32541 25.4082 6.71293 26.0722 6.72951 26.8702L7.10985 42.3325C7.06011 43.1998 6.41446 43.9223 5.56154 44.033C4.6423 44.1436 3.78938 43.4977 3.61631 42.5624C2.63074 36.4758 2.54784 30.2541 3.38417 24.0749C3.66502 22.0095 5.01539 20.258 6.91087 19.5099C8.80636 18.7619 10.9516 19.1269 12.5072 20.4697L15.7033 23.2406C15.9769 23.4534 16.2992 23.5726 16.6142 23.5726C17.0111 23.5726 17.4091 23.3939 17.69 23.0629L17.691 23.0619Z" fill="white"/>
<path d="M16.6318 15.3516C20.7544 15.3516 24.107 11.9082 24.107 7.67529C24.107 3.44233 20.7544 0 16.6318 0C12.5092 0 9.15558 3.44233 9.15558 7.67529C9.15558 11.9082 12.5092 15.3516 16.6318 15.3516V15.3516ZM16.6318 2.89007C19.2061 2.89007 21.2923 5.0406 21.2923 7.67529C21.2923 10.31 19.1978 12.4616 16.6318 12.4616C14.0658 12.4616 11.9703 10.311 11.9703 7.67529C11.9703 5.03953 14.0648 2.89007 16.6318 2.89007V2.89007Z" fill="white"/>
<path d="M49.0758 15.3516C53.1994 15.3516 56.551 11.9082 56.551 7.67529C56.551 3.44233 53.1994 0 49.0758 0C44.9521 0 41.5995 3.44233 41.5995 7.67529C41.5995 11.9082 44.9521 15.3516 49.0758 15.3516V15.3516ZM49.0758 2.89007C51.6511 2.89007 53.7373 5.0406 53.7373 7.67529C53.7373 10.31 51.6418 12.4616 49.0758 12.4616C46.5098 12.4616 44.4143 10.311 44.4143 7.67529C44.4143 5.03953 46.5004 2.89007 49.0758 2.89007V2.89007Z" fill="white"/>
<path d="M65.0781 23.6736C64.6563 20.5622 62.6282 17.935 59.772 16.8049C56.9158 15.6748 53.6948 16.2271 51.3527 18.2499L48.1493 21.0208C47.5524 21.539 47.4788 22.4488 47.9835 23.0618C48.2654 23.4012 48.6623 23.5715 49.0603 23.5715C49.3836 23.5715 49.7059 23.4608 49.9629 23.2309L53.158 20.4601C54.7136 19.1172 56.8588 18.7522 58.7543 19.5002C60.6498 20.2472 61.9991 21.9987 62.281 24.0641C63.1173 30.2444 63.0344 36.4661 62.0499 42.5527C61.8841 43.487 61.0322 44.1339 60.1036 44.0222C59.1854 43.9126 58.4983 43.0784 58.5481 42.1271C58.5564 42.0175 58.5481 41.9068 58.5315 41.8046L58.8952 26.8701C58.9129 26.071 58.3004 25.4081 57.5221 25.3911C56.7427 25.3666 56.0981 26.004 56.0816 26.802L55.4442 52.8467C55.4266 53.6459 56.0391 54.3088 56.8174 54.3258H56.8516C57.6133 54.3258 58.2423 53.7054 58.2579 52.9148L58.4154 46.5058C58.8372 46.7005 59.2922 46.8378 59.773 46.8963C59.9554 46.9219 60.1368 46.9314 60.3109 46.9314C62.4883 46.9314 64.418 45.3247 64.8149 43.0709V43.0539C65.874 36.6704 65.9569 30.1507 65.0791 23.6736H65.0781Z" fill="white"/>
</svg>
