<svg width="62" height="59" viewBox="0 0 62 59" fill="none" xmlns="http://www.w3.org/2000/svg">
<path d="M61.6463 17.2691C61.6038 16.9095 61.4266 16.5892 61.1478 16.3668C60.869 16.1444 60.5239 16.0475 60.1726 16.0933C57.9008 16.3934 56.1431 17.5735 55.0684 18.511L54.3232 19.1601L54.202 18.1641C54.1284 17.5607 54.032 16.952 53.9149 16.354L53.8351 15.9464L54.1978 15.7613C55.856 14.9153 57.1308 13.5309 57.7889 11.8644C58.7486 9.48931 58.4398 6.55551 56.9836 4.20486C56.1359 2.83533 55.2249 1.5754 54.2735 0.460197C53.7957 -0.0995339 52.9635 -0.156997 52.4173 0.333565C50.842 1.74779 49.7787 3.81007 49.3434 6.2948L49.3413 6.3097C48.9714 8.56671 49.1911 10.7024 49.9766 12.4859C54.1916 22.0364 50.8099 33.5003 42.1105 39.1518C41.6628 39.4423 41.2959 39.8456 41.0482 40.3192L40.899 40.6044H32.2545V31.4369L39.5143 35.3071C39.9652 35.5476 40.4802 35.5072 40.8927 35.1997C41.3052 34.8921 41.5021 34.4016 41.4182 33.8865L39.8346 24.0998L46.7172 17.1382C47.0789 16.7722 47.2012 16.2561 47.0437 15.7581C46.8861 15.2601 46.4923 14.9174 45.9897 14.8397L36.4674 13.367L32.1374 3.53765C31.9187 3.04177 31.471 2.74594 30.9383 2.74594C30.4066 2.74594 29.9578 3.04177 29.7391 3.53765L25.4091 13.367L15.8868 14.8397C15.3842 14.9174 14.9904 15.2611 14.8328 15.7591C14.6753 16.2572 14.7976 16.7722 15.1593 17.1382L22.0419 24.0998L20.4583 33.8865C20.3754 34.4016 20.5713 34.8921 20.9838 35.1997C21.3963 35.5072 21.9113 35.5476 22.3622 35.3071L29.622 31.4369V40.6044H20.9496L20.7972 40.3341C20.391 39.6147 19.7121 39.1337 19.1141 38.7091C15.2754 35.9903 12.4098 31.9126 11.0459 27.2283C9.63226 22.3706 9.94939 17.1297 11.9392 12.471C12.7248 10.6301 12.9363 8.55713 12.5683 6.3097L12.5652 6.28948C12.132 3.81007 11.0687 1.74885 9.49235 0.333565C8.94722 -0.155933 8.11396 -0.0995339 7.63619 0.460197C6.68478 1.5754 5.77276 2.83533 4.92708 4.20379C3.46992 6.55658 3.16107 9.49037 4.11869 11.8602C4.77783 13.5309 6.05259 14.9153 7.7108 15.7613L8.07354 15.9464L7.99373 16.354C7.87559 16.9542 7.7792 17.565 7.70665 18.1683L7.58643 19.1612L6.84231 18.5152C5.31157 17.1883 3.48754 16.3274 1.70392 16.0922C1.35466 16.0465 1.0085 16.1433 0.72868 16.3657C0.449893 16.5881 0.272664 16.9084 0.229136 17.2681C0.0270409 18.9632 -0.0403231 20.4849 0.0228964 21.9194C0.0985524 24.6637 1.49042 27.2687 3.65335 28.7266L3.66268 28.733C5.09911 29.745 6.8817 30.1717 8.73994 29.9269L9.14101 29.8737L9.29543 30.2579C9.51825 30.8133 9.76492 31.3699 10.0282 31.9115L10.4697 32.8171L9.49132 32.6915C7.48073 32.434 5.65046 32.7149 4.05132 33.5279C3.73523 33.6886 3.49168 33.978 3.38286 34.3218C3.27404 34.6655 3.30513 35.0464 3.46991 35.3667C4.10003 36.5979 4.84935 38.0207 5.78209 39.3221L5.79142 39.3349C7.34599 41.644 9.85507 43.0231 12.5041 43.0231C14.2068 43.0231 15.8371 42.3729 17.2186 41.1439L17.5305 40.8672L17.8684 41.1098C18.1534 41.3152 18.3089 41.4397 18.4063 41.5387L18.5545 41.6898L18.5618 41.9037C18.5618 41.9186 18.5618 41.9356 18.5618 41.9547V55.7479H16.1905C15.465 55.7479 14.8743 56.3545 14.8743 57.0994C14.8743 57.8443 15.465 58.4508 16.1905 58.4508H45.6891C46.4146 58.4508 47.0053 57.8443 47.0053 57.0994C47.0053 56.3545 46.4146 55.7479 45.6891 55.7479H43.3179V41.5663L43.5625 41.4067C43.7169 41.3056 43.8661 41.2035 44.0444 41.0811L44.3812 40.8491L44.6859 41.1237C46.0715 42.3708 47.7494 43.0316 49.5372 43.0338H49.5963C52.2722 43.0338 54.7699 41.5259 56.4509 38.8975C57.1722 37.7695 57.9184 36.6032 58.4988 35.3082C58.7983 34.6399 58.5299 33.8599 57.8884 33.5332C56.2976 32.7234 54.5181 32.4553 52.4495 32.7128L51.4742 32.8341L51.9147 31.9317C52.1769 31.3933 52.4246 30.8314 52.6515 30.261L52.8039 29.8769L53.205 29.928C53.5294 29.9695 53.8558 29.9908 54.1761 29.9908C55.6436 29.9908 57.0665 29.5438 58.2905 28.6989C60.4224 27.2187 61.7883 24.6201 61.8536 21.9172V21.9055C61.9189 20.4828 61.8515 18.9654 61.6484 17.2659L61.6463 17.2691ZM7.63411 27.2964C6.71898 27.2815 5.85671 27.0059 5.14056 26.4972L5.11155 26.477C3.66683 25.5097 2.70195 23.6901 2.65532 21.8406V21.8151C2.6263 21.1979 2.6263 20.5488 2.65532 19.8837L2.68951 19.0601L3.41188 19.4187C4.27208 19.8454 5.08149 20.4477 5.75411 21.1596C6.82262 22.2993 7.51699 23.5507 7.81962 24.8787L7.82688 24.9159C7.91912 25.5002 8.03104 26.0758 8.15852 26.6281L8.31501 27.306L7.63619 27.2953L7.63411 27.2964ZM9.32237 11.8751C9.2177 12.1369 9.10991 12.4082 9.00835 12.6902L8.77205 13.3436L8.21345 12.9467C7.45999 12.4114 6.88791 11.6857 6.55834 10.8471L6.55212 10.8322C5.91474 9.26158 6.14275 7.27805 7.14804 5.6542C7.48901 5.10298 7.84552 4.56453 8.20826 4.05481L8.70158 3.361L9.09956 4.11653C9.50686 4.89015 9.80119 5.78083 9.97426 6.76302C10.3764 9.23072 9.8644 10.5151 9.32341 11.874L9.32237 11.8751ZM14.8753 39.5785C14.1696 40.0414 13.3 40.3192 12.3766 40.3192C10.8811 40.3192 9.24258 39.5913 7.91704 37.744C7.5854 37.2822 7.25479 36.7671 6.90657 36.168L6.48373 35.4412L7.3035 35.3518C8.16784 35.2571 9.08193 35.3157 10.0209 35.5242C11.5941 35.9041 12.8523 36.5671 13.7706 37.496L13.7882 37.5152C14.1696 37.9419 14.5613 38.3495 14.9531 38.7283L15.4453 39.205L14.8753 39.5796V39.5785ZM23.4846 31.6646L24.749 23.8518C24.8194 23.4187 24.6785 22.976 24.3748 22.6685L18.8799 17.1106L26.5087 15.9305C26.9523 15.8624 27.3264 15.5708 27.512 15.1515L30.9383 7.37382L34.3645 15.1515C34.549 15.5708 34.9242 15.8624 35.3678 15.9305L42.9956 17.1106L37.5006 22.6685C37.1959 22.9771 37.056 23.4198 37.1265 23.8529L38.3909 31.6657L37.454 31.1666C32.2845 28.4105 31.6554 28.0753 31.5777 28.0338C31.131 27.8136 30.7237 27.8072 30.332 28.0157L23.4856 31.6657L23.4846 31.6646ZM40.6834 55.7501H21.1911V43.3083H40.6834V55.7501ZM54.6279 35.3603L55.4767 35.4455L55.0238 36.1872C54.7751 36.5947 54.5108 37.0087 54.2548 37.4088C54.1688 37.5439 54.0828 37.678 53.9978 37.811L53.9812 37.8366C52.8163 39.4604 51.1664 40.3351 49.5382 40.3351C48.6708 40.3351 47.8085 40.0872 47.0292 39.5711L46.4581 39.1933L46.9556 38.7187C47.3774 38.3165 47.7868 37.8972 48.1702 37.4726L48.2044 37.4386C49.8461 35.9254 52.3064 35.1294 54.6279 35.3614V35.3603ZM53.1366 13.3436L52.9003 12.6902C52.8101 12.4423 52.7106 12.1996 52.6049 11.9442C52.096 10.7109 51.5198 9.31373 51.9333 6.77153V6.76408C52.1075 5.78083 52.4018 4.89122 52.8091 4.11653L53.207 3.361L53.6993 4.05481C54.0621 4.5656 54.4196 5.10511 54.7606 5.65632C55.7649 7.27805 55.9939 9.26158 55.3555 10.8322L55.3503 10.8471C55.0207 11.6867 54.4476 12.4125 53.6942 12.9477L53.1355 13.3436H53.1366ZM59.2222 21.8023V21.8364C59.1828 23.6592 58.2397 25.4746 56.8178 26.4611C56.0467 26.9931 55.199 27.274 54.2994 27.2953L53.6195 27.3113L53.7729 26.6303C53.8361 26.3483 53.8869 26.0737 53.9398 25.7821C54.1947 24.3871 54.458 22.9441 56.1545 21.1628C56.8323 20.4456 57.6314 19.8433 58.4636 19.424L59.1891 19.0579L59.2233 19.8869C59.2512 20.5466 59.2502 21.1915 59.2222 21.8023V21.8023Z" fill="white"/>
<path d="M27.2497 50.8799H34.6247C35.3501 50.8799 35.9409 50.2733 35.9409 49.5284C35.9409 48.7836 35.3501 48.177 34.6247 48.177H27.2497C26.5243 48.177 25.9335 48.7836 25.9335 49.5284C25.9335 50.2733 26.5243 50.8799 27.2497 50.8799Z" fill="white"/>
</svg>
