<svg width="21" height="21" viewBox="0 0 21 21" fill="none" xmlns="http://www.w3.org/2000/svg">
<path d="M18.6603 2.70706L0.986716 9.10199C0.702432 9.20477 0.63937 9.45658 0.976706 9.5943L4.7765 11.1576L7.02874 12.0836L18.0237 3.79344C18.1719 3.68244 18.342 3.89108 18.2349 4.0103L10.3561 12.7599V12.762L9.90361 13.2789L10.5032 13.6098L15.4902 16.3664C15.7815 16.5267 16.1588 16.3941 16.2429 16.0231L19.1518 3.15004C19.2309 2.79751 19.0037 2.5827 18.6603 2.70706ZM7.00872 17.6388C7.00872 17.8916 7.14786 17.9625 7.34005 17.7837C7.59131 17.5483 10.1929 15.1515 10.1929 15.1515L7.00872 13.4618V17.6388Z" fill="white"/>
</svg>
