<svg width="17" height="16" viewBox="0 0 17 16" fill="none" xmlns="http://www.w3.org/2000/svg">
<g clip-path="url(#clip0_35_684)">
<path d="M14.185 1.22667H12.745V0.48C12.745 0.337777 12.7006 0.222222 12.6117 0.133333C12.5228 0.0444441 12.4072 -3.8743e-07 12.265 -3.8743e-07C12.1228 -3.8743e-07 12.0072 0.0444441 11.9183 0.133333C11.8294 0.222222 11.785 0.337777 11.785 0.48V1.22667H4.745V0.48C4.745 0.337777 4.70056 0.222222 4.61167 0.133333C4.52278 0.0444441 4.40722 -3.8743e-07 4.265 -3.8743e-07C4.12278 -3.8743e-07 4.00722 0.0444441 3.91833 0.133333C3.82944 0.222222 3.785 0.337777 3.785 0.48V1.22667H2.345C1.77611 1.22667 1.28722 1.43111 0.878333 1.84C0.469444 2.24889 0.264999 2.73778 0.264999 3.30667V13.92C0.264999 14.4889 0.469444 14.9778 0.878333 15.3867C1.28722 15.7956 1.77611 16 2.345 16H14.185C14.7539 16 15.2428 15.7956 15.6517 15.3867C16.0606 14.9778 16.265 14.4889 16.265 13.92V3.30667C16.265 2.73778 16.0606 2.24889 15.6517 1.84C15.2428 1.43111 14.7539 1.22667 14.185 1.22667ZM2.345 2.24H3.785V2.77333C3.785 2.88 3.82944 2.98667 3.91833 3.09333C4.00722 3.2 4.12278 3.25333 4.265 3.25333C4.40722 3.25333 4.52278 3.2 4.61167 3.09333C4.70056 2.98667 4.745 2.88 4.745 2.77333V2.24H11.785V2.77333C11.785 2.88 11.8294 2.98667 11.9183 3.09333C12.0072 3.2 12.1228 3.25333 12.265 3.25333C12.4072 3.25333 12.5228 3.2 12.6117 3.09333C12.7006 2.98667 12.745 2.88 12.745 2.77333V2.24H14.185C14.505 2.24 14.7628 2.34667 14.9583 2.56C15.1539 2.77333 15.2517 3.02222 15.2517 3.30667V4.48H1.27833V3.30667C1.27833 3.02222 1.37611 2.77333 1.57167 2.56C1.76722 2.34667 2.025 2.24 2.345 2.24ZM14.185 14.9867H2.345C2.025 14.9867 1.76722 14.8889 1.57167 14.6933C1.37611 14.4978 1.27833 14.24 1.27833 13.92V5.49333H15.2517V13.92C15.2517 14.24 15.1539 14.4978 14.9583 14.6933C14.7628 14.8889 14.505 14.9867 14.185 14.9867Z" fill="white"/>
</g>
<defs>
<clipPath id="clip0_35_684">
<rect width="16.53" height="16" fill="white" transform="matrix(1 0 0 -1 0 16)"/>
</clipPath>
</defs>
</svg>
