<svg width="23" height="24" viewBox="0 0 23 24" fill="none" xmlns="http://www.w3.org/2000/svg">
<path d="M21.0186 3.04933L1.11142 10.2524C0.791212 10.3682 0.720179 10.6518 1.10015 10.8069L5.38014 12.5678L7.91702 13.6108L20.3015 4.27299C20.4683 4.14796 20.66 4.38297 20.5394 4.51727L11.6648 14.3726V14.3749L11.1552 14.9572L11.8306 15.3299L17.4478 18.4348C17.7759 18.6154 18.2009 18.4661 18.2957 18.0482L21.5722 3.54829C21.6612 3.1512 21.4053 2.90925 21.0186 3.04933ZM7.89447 19.8681C7.89447 20.1528 8.05119 20.2327 8.26767 20.0313C8.55067 19.7662 11.481 17.0665 11.481 17.0665L7.89447 15.1632V19.8681Z" fill="white"/>
</svg>
