<svg width="17" height="16" viewBox="0 0 17 16" fill="none" xmlns="http://www.w3.org/2000/svg">
<g clip-path="url(#clip0_35_678)">
<path d="M13.9183 2.34667C13.1717 1.6 12.3094 1.02222 11.3317 0.613333C10.3539 0.204444 9.33167 -3.8743e-07 8.265 -3.8743e-07C7.19833 -3.8743e-07 6.17611 0.204444 5.19833 0.613333C4.22056 1.02222 3.35833 1.6 2.61167 2.34667C1.865 3.09333 1.28722 3.95556 0.878333 4.93333C0.469444 5.91111 0.264999 6.93333 0.264999 8C0.264999 9.06667 0.469444 10.0889 0.878333 11.0667C1.28722 12.0444 1.865 12.9067 2.61167 13.6533C3.35833 14.4 4.22056 14.9778 5.19833 15.3867C6.17611 15.7956 7.19833 16 8.265 16C9.33167 16 10.3539 15.7956 11.3317 15.3867C12.3094 14.9778 13.1717 14.4 13.9183 13.6533C14.665 12.9067 15.2428 12.0444 15.6517 11.0667C16.0606 10.0889 16.265 9.06667 16.265 8C16.265 6.93333 16.0606 5.91111 15.6517 4.93333C15.2428 3.95556 14.665 3.09333 13.9183 2.34667ZM3.73167 13.44C3.83833 12.6933 4.105 12.0089 4.53167 11.3867C4.95833 10.7644 5.50056 10.2756 6.15833 9.92C6.81611 9.56444 7.51833 9.38667 8.265 9.38667C8.86944 9.38667 9.44722 9.50222 9.99833 9.73333C10.5494 9.96444 11.0383 10.2933 11.465 10.72C12.2117 11.4667 12.6561 12.3733 12.7983 13.44C12.1583 13.9378 11.4561 14.3289 10.6917 14.6133C9.92722 14.8978 9.11833 15.04 8.265 15.04C7.41167 15.04 6.60278 14.8978 5.83833 14.6133C5.07389 14.3289 4.37167 13.9378 3.73167 13.44ZM8.265 8.42667C7.58944 8.42667 7.01167 8.18667 6.53167 7.70667C6.05167 7.22667 5.81167 6.65778 5.81167 6C5.81167 5.34222 6.05167 4.77333 6.53167 4.29333C7.01167 3.81333 7.58944 3.57333 8.265 3.57333C8.94056 3.57333 9.51833 3.81333 9.99833 4.29333C10.4783 4.77333 10.7183 5.34222 10.7183 6C10.7183 6.65778 10.4783 7.22667 9.99833 7.70667C9.51833 8.18667 8.94056 8.42667 8.265 8.42667ZM13.5983 12.64C13.3494 11.6444 12.8694 10.7911 12.1583 10.08C11.5894 9.47556 10.9139 9.04889 10.1317 8.8C10.5939 8.48 10.9583 8.07111 11.225 7.57333C11.4917 7.07556 11.625 6.53333 11.625 5.94667C11.625 5.36 11.4739 4.80889 11.1717 4.29333C10.8694 3.77778 10.4606 3.36889 9.945 3.06667C9.42944 2.76444 8.86944 2.61333 8.265 2.61333C7.66056 2.61333 7.10056 2.76444 6.585 3.06667C6.06944 3.36889 5.66056 3.77778 5.35833 4.29333C5.05611 4.80889 4.905 5.36 4.905 5.94667C4.905 6.53333 5.03833 7.07556 5.305 7.57333C5.57167 8.07111 5.93611 8.48 6.39833 8.8C5.68722 9.04889 5.065 9.42222 4.53167 9.92C3.71389 10.6667 3.18056 11.5733 2.93167 12.64C2.39833 12 1.98055 11.28 1.67833 10.48C1.37611 9.68 1.225 8.85333 1.225 8C1.225 6.72 1.53611 5.53778 2.15833 4.45333C2.78056 3.36889 3.63389 2.51556 4.71833 1.89333C5.80278 1.27111 6.985 0.96 8.265 0.96C9.545 0.96 10.7272 1.27111 11.8117 1.89333C12.8961 2.51556 13.7494 3.36889 14.3717 4.45333C14.9939 5.53778 15.305 6.72 15.305 8C15.305 8.85333 15.1539 9.68 14.8517 10.48C14.5494 11.28 14.1317 12 13.5983 12.64Z" fill="white"/>
</g>
<defs>
<clipPath id="clip0_35_678">
<rect width="16.53" height="16" fill="white" transform="matrix(1 0 0 -1 0 16)"/>
</clipPath>
</defs>
</svg>
