<svg width="282" height="257" viewBox="0 0 282 257" fill="none" xmlns="http://www.w3.org/2000/svg">
<path d="M152.8 6.115C113.83 -12.2225 88.5681 14.8271 81.1875 32.8196L79.948 36.9151C82.6051 72.407 46.5186 85.3557 27.3289 86.7113C-2.19383 92.9224 -2.43986 123.189 2.23457 136.252C9.7754 157.325 17.2419 172.114 18.8411 178.768C17.0697 212.19 20.5632 225.968 22.5314 228.679C43.7878 267.129 81.5769 258.256 97.8143 249.013C126.156 227.422 148.987 229.172 156.86 232.746C185.202 252.858 210.739 254.189 219.965 252.34C267.791 236.369 259.328 197.87 249.118 180.617C236.423 146.9 254.408 113.577 264.987 101.13C294.509 55.8776 279.01 28.5439 267.57 20.5336C255.761 6.33681 221.072 19.9174 201.882 29.0369C188.228 33.1037 160.427 13.7556 152.8 6.115Z" fill="#C0181C"/>
</svg>
