<svg width="160" height="43" viewBox="0 0 160 43" fill="none" xmlns="http://www.w3.org/2000/svg">
<rect width="159.959" height="42.8614" rx="9.09998" fill="#C0181C"/>
<path d="M23.9664 25.9696V14.5672H31.3824V16.2988H26.032V19.3943H30.9983V21.1258H26.032V24.2381H31.427V25.9696H23.9664ZM35.0487 17.4178L36.7746 20.5746L38.5284 17.4178H40.6608L38.083 21.6937L40.7053 25.9696H38.5841L36.7746 22.8907L34.9819 25.9696H32.8439L35.4495 21.6937L32.9107 17.4178H35.0487ZM42.2197 29.1765V17.4178H44.2017V18.832H44.3187C44.4226 18.6241 44.5692 18.4033 44.7585 18.1695C44.9478 17.9319 45.2039 17.7296 45.5268 17.5626C45.8497 17.3918 46.2617 17.3065 46.7628 17.3065C47.4235 17.3065 48.0192 17.4754 48.55 17.8131C49.0845 18.1472 49.5076 18.6427 49.8194 19.2997C50.1349 19.9529 50.2927 20.7547 50.2927 21.7049C50.2927 22.6439 50.1386 23.4419 49.8305 24.0989C49.5225 24.7559 49.1031 25.257 48.5723 25.6021C48.0415 25.9473 47.4402 26.1199 46.7684 26.1199C46.2784 26.1199 45.872 26.0383 45.5491 25.875C45.2262 25.7116 44.9664 25.5149 44.7696 25.2848C44.5766 25.051 44.4263 24.8301 44.3187 24.6223H44.2351V29.1765H42.2197ZM44.1962 21.6937C44.1962 22.2468 44.2741 22.7311 44.43 23.1469C44.5896 23.5626 44.8179 23.8873 45.1148 24.1212C45.4155 24.3513 45.7792 24.4664 46.2061 24.4664C46.6515 24.4664 47.0245 24.3476 47.3251 24.11C47.6258 23.8688 47.8522 23.5403 48.0044 23.1246C48.1603 22.7052 48.2382 22.2282 48.2382 21.6937C48.2382 21.1629 48.1621 20.6916 48.01 20.2796C47.8578 19.8676 47.6314 19.5446 47.3307 19.3108C47.0301 19.077 46.6552 18.96 46.2061 18.96C45.7755 18.96 45.4099 19.0733 45.1093 19.2997C44.8086 19.5261 44.5803 19.8434 44.4244 20.2517C44.2723 20.66 44.1962 21.1407 44.1962 21.6937ZM54.0341 14.5672V25.9696H52.0186V14.5672H54.0341ZM59.8368 26.1366C59.0017 26.1366 58.2779 25.9529 57.6655 25.5854C57.0531 25.218 56.578 24.7039 56.2402 24.0432C55.9061 23.3825 55.7391 22.6105 55.7391 21.7271C55.7391 20.8437 55.9061 20.0698 56.2402 19.4055C56.578 18.7411 57.0531 18.2251 57.6655 17.8577C58.2779 17.4902 59.0017 17.3065 59.8368 17.3065C60.672 17.3065 61.3958 17.4902 62.0082 17.8577C62.6206 18.2251 63.0939 18.7411 63.4279 19.4055C63.7657 20.0698 63.9346 20.8437 63.9346 21.7271C63.9346 22.6105 63.7657 23.3825 63.4279 24.0432C63.0939 24.7039 62.6206 25.218 62.0082 25.5854C61.3958 25.9529 60.672 26.1366 59.8368 26.1366ZM59.848 24.522C60.3008 24.522 60.6794 24.3977 60.9838 24.149C61.2881 23.8966 61.5145 23.5589 61.663 23.1357C61.8152 22.7126 61.8913 22.2412 61.8913 21.7216C61.8913 21.1982 61.8152 20.725 61.663 20.3018C61.5145 19.875 61.2881 19.5354 60.9838 19.283C60.6794 19.0306 60.3008 18.9044 59.848 18.9044C59.384 18.9044 58.998 19.0306 58.6899 19.283C58.3856 19.5354 58.1573 19.875 58.0051 20.3018C57.8567 20.725 57.7824 21.1982 57.7824 21.7216C57.7824 22.2412 57.8567 22.7126 58.0051 23.1357C58.1573 23.5589 58.3856 23.8966 58.6899 24.149C58.998 24.3977 59.384 24.522 59.848 24.522ZM65.6452 25.9696V17.4178H67.5994V18.8431H67.6885C67.8444 18.3495 68.1116 17.969 68.4902 17.7018C68.8725 17.4308 69.3087 17.2953 69.7986 17.2953C69.91 17.2953 70.0343 17.3009 70.1716 17.312C70.3127 17.3195 70.4296 17.3325 70.5224 17.351V19.205C70.437 19.1753 70.3015 19.1493 70.116 19.1271C69.9341 19.1011 69.7578 19.0881 69.587 19.0881C69.2196 19.0881 68.8892 19.1679 68.596 19.3275C68.3065 19.4834 68.0782 19.7005 67.9112 19.9789C67.7442 20.2573 67.6607 20.5784 67.6607 20.9421V25.9696H65.6452ZM75.2952 26.1366C74.4378 26.1366 73.6973 25.9585 73.0737 25.6021C72.4539 25.2421 71.9769 24.7336 71.6429 24.0766C71.3088 23.4159 71.1418 22.6383 71.1418 21.7438C71.1418 20.8642 71.3088 20.0921 71.6429 19.4277C71.9806 18.7596 72.452 18.24 73.057 17.8688C73.662 17.4939 74.3728 17.3065 75.1894 17.3065C75.7165 17.3065 76.2138 17.3918 76.6815 17.5626C77.1529 17.7296 77.5686 17.9894 77.9286 18.342C78.2924 18.6947 78.5782 19.1438 78.786 19.6894C78.9939 20.2313 79.0978 20.8771 79.0978 21.6269V22.2449H72.0883V20.8864H77.1659C77.1622 20.5004 77.0787 20.1571 76.9153 19.8564C76.752 19.5521 76.5237 19.3127 76.2305 19.1382C75.941 18.9638 75.6032 18.8765 75.2172 18.8765C74.8052 18.8765 74.4433 18.9767 74.1316 19.1772C73.8198 19.3739 73.5767 19.6337 73.4022 19.9566C73.2315 20.2758 73.1442 20.6266 73.1405 21.0089V22.1948C73.1405 22.6922 73.2315 23.119 73.4133 23.4753C73.5952 23.8279 73.8495 24.0989 74.1761 24.2882C74.5027 24.4738 74.885 24.5666 75.323 24.5666C75.6162 24.5666 75.8816 24.5258 76.1192 24.4441C76.3567 24.3587 76.5627 24.2344 76.7372 24.0711C76.9116 23.9078 77.0434 23.7055 77.1325 23.4642L79.0143 23.6758C78.8955 24.1731 78.6691 24.6074 78.3351 24.9786C78.0047 25.346 77.5816 25.6318 77.0657 25.836C76.5497 26.0364 75.9596 26.1366 75.2952 26.1366ZM84.7809 14.5672H87.3086L90.6937 22.8295H90.8273L94.2124 14.5672H96.74V25.9696H94.758V18.136H94.6522L91.501 25.9362H90.02L86.8687 18.1193H86.763V25.9696H84.7809V14.5672ZM102.631 26.1366C101.795 26.1366 101.072 25.9529 100.459 25.5854C99.8467 25.218 99.3716 24.7039 99.0339 24.0432C98.6998 23.3825 98.5328 22.6105 98.5328 21.7271C98.5328 20.8437 98.6998 20.0698 99.0339 19.4055C99.3716 18.7411 99.8467 18.2251 100.459 17.8577C101.072 17.4902 101.795 17.3065 102.631 17.3065C103.466 17.3065 104.189 17.4902 104.802 17.8577C105.414 18.2251 105.888 18.7411 106.222 19.4055C106.559 20.0698 106.728 20.8437 106.728 21.7271C106.728 22.6105 106.559 23.3825 106.222 24.0432C105.888 24.7039 105.414 25.218 104.802 25.5854C104.189 25.9529 103.466 26.1366 102.631 26.1366ZM102.642 24.522C103.094 24.522 103.473 24.3977 103.777 24.149C104.082 23.8966 104.308 23.5589 104.457 23.1357C104.609 22.7126 104.685 22.2412 104.685 21.7216C104.685 21.1982 104.609 20.725 104.457 20.3018C104.308 19.875 104.082 19.5354 103.777 19.283C103.473 19.0306 103.094 18.9044 102.642 18.9044C102.178 18.9044 101.792 19.0306 101.484 19.283C101.179 19.5354 100.951 19.875 100.799 20.3018C100.65 20.725 100.576 21.1982 100.576 21.7216C100.576 22.2412 100.65 22.7126 100.799 23.1357C100.951 23.5589 101.179 23.8966 101.484 24.149C101.792 24.3977 102.178 24.522 102.642 24.522ZM108.439 25.9696V17.4178H110.393V18.8431H110.482C110.638 18.3495 110.905 17.969 111.284 17.7018C111.666 17.4308 112.102 17.2953 112.592 17.2953C112.704 17.2953 112.828 17.3009 112.965 17.312C113.106 17.3195 113.223 17.3325 113.316 17.351V19.205C113.231 19.1753 113.095 19.1493 112.91 19.1271C112.728 19.1011 112.551 19.0881 112.381 19.0881C112.013 19.0881 111.683 19.1679 111.39 19.3275C111.1 19.4834 110.872 19.7005 110.705 19.9789C110.538 20.2573 110.454 20.5784 110.454 20.9421V25.9696H108.439ZM118.089 26.1366C117.231 26.1366 116.491 25.9585 115.867 25.6021C115.248 25.2421 114.771 24.7336 114.437 24.0766C114.102 23.4159 113.935 22.6383 113.935 21.7438C113.935 20.8642 114.102 20.0921 114.437 19.4277C114.774 18.7596 115.246 18.24 115.851 17.8688C116.456 17.4939 117.166 17.3065 117.983 17.3065C118.51 17.3065 119.007 17.3918 119.475 17.5626C119.947 17.7296 120.362 17.9894 120.722 18.342C121.086 18.6947 121.372 19.1438 121.58 19.6894C121.788 20.2313 121.891 20.8771 121.891 21.6269V22.2449H114.882V20.8864H119.96C119.956 20.5004 119.872 20.1571 119.709 19.8564C119.546 19.5521 119.317 19.3127 119.024 19.1382C118.735 18.9638 118.397 18.8765 118.011 18.8765C117.599 18.8765 117.237 18.9767 116.925 19.1772C116.613 19.3739 116.37 19.6337 116.196 19.9566C116.025 20.2758 115.938 20.6266 115.934 21.0089V22.1948C115.934 22.6922 116.025 23.119 116.207 23.4753C116.389 23.8279 116.643 24.0989 116.97 24.2882C117.296 24.4738 117.679 24.5666 118.117 24.5666C118.41 24.5666 118.675 24.5258 118.913 24.4441C119.15 24.3587 119.356 24.2344 119.531 24.0711C119.705 23.9078 119.837 23.7055 119.926 23.4642L121.808 23.6758C121.689 24.1731 121.463 24.6074 121.129 24.9786C120.798 25.346 120.375 25.6318 119.859 25.836C119.343 26.0364 118.753 26.1366 118.089 26.1366Z" fill="white"/>
<path d="M138.113 18.4306C138.163 18.0964 137.939 17.7866 137.615 17.7388L132.325 16.9596C132 16.9118 131.697 17.144 131.648 17.4783C131.599 17.8125 131.822 18.1223 132.146 18.1701L136.849 18.8627L136.136 23.7046C136.086 24.0389 136.31 24.3486 136.634 24.3964C136.959 24.4442 137.262 24.212 137.311 23.8778L138.113 18.4306ZM130.161 23.9871L130.513 24.4762L137.878 18.8332L137.526 18.344L137.173 17.8549L129.808 23.4979L130.161 23.9871Z" fill="white"/>
</svg>
