<svg width="160" height="43" viewBox="0 0 160 43" fill="none" xmlns="http://www.w3.org/2000/svg">
<rect width="159.959" height="42.8614" rx="9.09998" fill="#C0181C"/>
<path d="M23.9655 25.9696V14.5672H31.3815V16.2988H26.031V19.3943H30.9973V21.1258H26.031V24.2381H31.426V25.9696H23.9655ZM35.0477 17.4178L36.7736 20.5746L38.5274 17.4178H40.6598L38.082 21.6937L40.7043 25.9696H38.5831L36.7736 22.8907L34.9809 25.9696H32.8429L35.4486 21.6937L32.9098 17.4178H35.0477ZM42.2187 29.1765V17.4178H44.2008V18.832H44.3177C44.4216 18.6241 44.5682 18.4033 44.7575 18.1695C44.9468 17.9319 45.2029 17.7296 45.5258 17.5626C45.8488 17.3918 46.2608 17.3065 46.7618 17.3065C47.4225 17.3065 48.0183 17.4754 48.549 17.8131C49.0835 18.1472 49.5067 18.6427 49.8184 19.2997C50.1339 19.9529 50.2917 20.7547 50.2917 21.7049C50.2917 22.6439 50.1376 23.4419 49.8296 24.0989C49.5215 24.7559 49.1021 25.257 48.5713 25.6021C48.0405 25.9473 47.4392 26.1199 46.7674 26.1199C46.2775 26.1199 45.871 26.0383 45.5481 25.875C45.2252 25.7116 44.9654 25.5149 44.7687 25.2848C44.5756 25.051 44.4253 24.8301 44.3177 24.6223H44.2342V29.1765H42.2187ZM44.1952 21.6937C44.1952 22.2468 44.2731 22.7311 44.429 23.1469C44.5886 23.5626 44.8169 23.8873 45.1138 24.1212C45.4145 24.3513 45.7782 24.4664 46.2051 24.4664C46.6505 24.4664 47.0235 24.3476 47.3242 24.11C47.6248 23.8688 47.8512 23.5403 48.0034 23.1246C48.1593 22.7052 48.2372 22.2282 48.2372 21.6937C48.2372 21.1629 48.1612 20.6916 48.009 20.2796C47.8568 19.8676 47.6304 19.5446 47.3297 19.3108C47.0291 19.077 46.6542 18.96 46.2051 18.96C45.7745 18.96 45.4089 19.0733 45.1083 19.2997C44.8076 19.5261 44.5794 19.8434 44.4235 20.2517C44.2713 20.66 44.1952 21.1407 44.1952 21.6937ZM54.0331 14.5672V25.9696H52.0176V14.5672H54.0331ZM59.8359 26.1366C59.0007 26.1366 58.277 25.9529 57.6645 25.5854C57.0521 25.218 56.577 24.7039 56.2392 24.0432C55.9052 23.3825 55.7381 22.6105 55.7381 21.7271C55.7381 20.8437 55.9052 20.0698 56.2392 19.4055C56.577 18.7411 57.0521 18.2251 57.6645 17.8577C58.277 17.4902 59.0007 17.3065 59.8359 17.3065C60.671 17.3065 61.3948 17.4902 62.0072 17.8577C62.6197 18.2251 63.0929 18.7411 63.4269 19.4055C63.7647 20.0698 63.9336 20.8437 63.9336 21.7271C63.9336 22.6105 63.7647 23.3825 63.4269 24.0432C63.0929 24.7039 62.6197 25.218 62.0072 25.5854C61.3948 25.9529 60.671 26.1366 59.8359 26.1366ZM59.847 24.522C60.2998 24.522 60.6784 24.3977 60.9828 24.149C61.2871 23.8966 61.5136 23.5589 61.662 23.1357C61.8142 22.7126 61.8903 22.2412 61.8903 21.7216C61.8903 21.1982 61.8142 20.725 61.662 20.3018C61.5136 19.875 61.2871 19.5354 60.9828 19.283C60.6784 19.0306 60.2998 18.9044 59.847 18.9044C59.383 18.9044 58.997 19.0306 58.689 19.283C58.3846 19.5354 58.1563 19.875 58.0041 20.3018C57.8557 20.725 57.7814 21.1982 57.7814 21.7216C57.7814 22.2412 57.8557 22.7126 58.0041 23.1357C58.1563 23.5589 58.3846 23.8966 58.689 24.149C58.997 24.3977 59.383 24.522 59.847 24.522ZM65.6442 25.9696V17.4178H67.5984V18.8431H67.6875C67.8434 18.3495 68.1107 17.969 68.4892 17.7018C68.8716 17.4308 69.3077 17.2953 69.7976 17.2953C69.909 17.2953 70.0333 17.3009 70.1707 17.312C70.3117 17.3195 70.4286 17.3325 70.5214 17.351V19.205C70.436 19.1753 70.3006 19.1493 70.115 19.1271C69.9331 19.1011 69.7568 19.0881 69.5861 19.0881C69.2186 19.0881 68.8883 19.1679 68.595 19.3275C68.3055 19.4834 68.0772 19.7005 67.9102 19.9789C67.7432 20.2573 67.6597 20.5784 67.6597 20.9421V25.9696H65.6442ZM75.2942 26.1366C74.4368 26.1366 73.6963 25.9585 73.0727 25.6021C72.4529 25.2421 71.9759 24.7336 71.6419 24.0766C71.3078 23.4159 71.1408 22.6383 71.1408 21.7438C71.1408 20.8642 71.3078 20.0921 71.6419 19.4277C71.9796 18.7596 72.451 18.24 73.056 17.8688C73.661 17.4939 74.3718 17.3065 75.1884 17.3065C75.7155 17.3065 76.2128 17.3918 76.6805 17.5626C77.1519 17.7296 77.5676 17.9894 77.9277 18.342C78.2914 18.6947 78.5772 19.1438 78.7851 19.6894C78.9929 20.2313 79.0968 20.8771 79.0968 21.6269V22.2449H72.0873V20.8864H77.1649C77.1612 20.5004 77.0777 20.1571 76.9144 19.8564C76.751 19.5521 76.5228 19.3127 76.2295 19.1382C75.94 18.9638 75.6023 18.8765 75.2163 18.8765C74.8043 18.8765 74.4424 18.9767 74.1306 19.1772C73.8188 19.3739 73.5757 19.6337 73.4012 19.9566C73.2305 20.2758 73.1433 20.6266 73.1396 21.0089V22.1948C73.1396 22.6922 73.2305 23.119 73.4124 23.4753C73.5942 23.8279 73.8485 24.0989 74.1751 24.2882C74.5017 24.4738 74.8841 24.5666 75.322 24.5666C75.6153 24.5666 75.8806 24.5258 76.1182 24.4441C76.3557 24.3587 76.5617 24.2344 76.7362 24.0711C76.9106 23.9078 77.0424 23.7055 77.1315 23.4642L79.0133 23.6758C78.8946 24.1731 78.6681 24.6074 78.3341 24.9786C78.0037 25.346 77.5806 25.6318 77.0647 25.836C76.5488 26.0364 75.9586 26.1366 75.2942 26.1366ZM84.7799 14.5672H87.3076L90.6927 22.8295H90.8263L94.2114 14.5672H96.7391V25.9696H94.757V18.136H94.6512L91.5 25.9362H90.019L86.8678 18.1193H86.762V25.9696H84.7799V14.5672ZM102.63 26.1366C101.794 26.1366 101.071 25.9529 100.458 25.5854C99.8458 25.218 99.3707 24.7039 99.0329 24.0432C98.6988 23.3825 98.5318 22.6105 98.5318 21.7271C98.5318 20.8437 98.6988 20.0698 99.0329 19.4055C99.3707 18.7411 99.8458 18.2251 100.458 17.8577C101.071 17.4902 101.794 17.3065 102.63 17.3065C103.465 17.3065 104.188 17.4902 104.801 17.8577C105.413 18.2251 105.887 18.7411 106.221 19.4055C106.558 20.0698 106.727 20.8437 106.727 21.7271C106.727 22.6105 106.558 23.3825 106.221 24.0432C105.887 24.7039 105.413 25.218 104.801 25.5854C104.188 25.9529 103.465 26.1366 102.63 26.1366ZM102.641 24.522C103.093 24.522 103.472 24.3977 103.776 24.149C104.081 23.8966 104.307 23.5589 104.456 23.1357C104.608 22.7126 104.684 22.2412 104.684 21.7216C104.684 21.1982 104.608 20.725 104.456 20.3018C104.307 19.875 104.081 19.5354 103.776 19.283C103.472 19.0306 103.093 18.9044 102.641 18.9044C102.177 18.9044 101.791 19.0306 101.483 19.283C101.178 19.5354 100.95 19.875 100.798 20.3018C100.649 20.725 100.575 21.1982 100.575 21.7216C100.575 22.2412 100.649 22.7126 100.798 23.1357C100.95 23.5589 101.178 23.8966 101.483 24.149C101.791 24.3977 102.177 24.522 102.641 24.522ZM108.438 25.9696V17.4178H110.392V18.8431H110.481C110.637 18.3495 110.904 17.969 111.283 17.7018C111.665 17.4308 112.101 17.2953 112.591 17.2953C112.703 17.2953 112.827 17.3009 112.964 17.312C113.105 17.3195 113.222 17.3325 113.315 17.351V19.205C113.23 19.1753 113.094 19.1493 112.909 19.1271C112.727 19.1011 112.55 19.0881 112.38 19.0881C112.012 19.0881 111.682 19.1679 111.389 19.3275C111.099 19.4834 110.871 19.7005 110.704 19.9789C110.537 20.2573 110.453 20.5784 110.453 20.9421V25.9696H108.438ZM118.088 26.1366C117.23 26.1366 116.49 25.9585 115.866 25.6021C115.247 25.2421 114.77 24.7336 114.436 24.0766C114.101 23.4159 113.934 22.6383 113.934 21.7438C113.934 20.8642 114.101 20.0921 114.436 19.4277C114.773 18.7596 115.245 18.24 115.85 17.8688C116.455 17.4939 117.166 17.3065 117.982 17.3065C118.509 17.3065 119.007 17.3918 119.474 17.5626C119.946 17.7296 120.361 17.9894 120.721 18.342C121.085 18.6947 121.371 19.1438 121.579 19.6894C121.787 20.2313 121.891 20.8771 121.891 21.6269V22.2449H114.881V20.8864H119.959C119.955 20.5004 119.871 20.1571 119.708 19.8564C119.545 19.5521 119.316 19.3127 119.023 19.1382C118.734 18.9638 118.396 18.8765 118.01 18.8765C117.598 18.8765 117.236 18.9767 116.924 19.1772C116.612 19.3739 116.369 19.6337 116.195 19.9566C116.024 20.2758 115.937 20.6266 115.933 21.0089V22.1948C115.933 22.6922 116.024 23.119 116.206 23.4753C116.388 23.8279 116.642 24.0989 116.969 24.2882C117.295 24.4738 117.678 24.5666 118.116 24.5666C118.409 24.5666 118.674 24.5258 118.912 24.4441C119.149 24.3587 119.355 24.2344 119.53 24.0711C119.704 23.9078 119.836 23.7055 119.925 23.4642L121.807 23.6758C121.688 24.1731 121.462 24.6074 121.128 24.9786C120.797 25.346 120.374 25.6318 119.858 25.836C119.342 26.0364 118.752 26.1366 118.088 26.1366Z" fill="white"/>
<path d="M138.113 18.4306C138.162 18.0964 137.939 17.7866 137.614 17.7388L132.324 16.9596C132 16.9118 131.697 17.144 131.647 17.4783C131.598 17.8125 131.821 18.1223 132.146 18.1701L136.848 18.8627L136.135 23.7046C136.086 24.0389 136.309 24.3486 136.634 24.3964C136.958 24.4442 137.261 24.212 137.311 23.8778L138.113 18.4306ZM130.16 23.9871L130.513 24.4762L137.878 18.8332L137.525 18.344L137.173 17.8549L129.808 23.4979L130.16 23.9871Z" fill="white"/>
</svg>
