<svg width="595" height="143" viewBox="0 0 595 143" fill="none" xmlns="http://www.w3.org/2000/svg">
<g filter="url(#filter0_d_125_1137)">
<rect x="18.0078" width="558" height="100" rx="4.91124" fill="white"/>
</g>
<path opacity="0.88" d="M92.054 58L88.3594 44.9091H90.9098L93.2685 54.5291H93.3899L95.9084 44.9091H98.2287L100.754 54.5355H100.869L103.227 44.9091H105.778L102.083 58H99.7436L97.1229 48.8146H97.0206L94.3935 58H92.054ZM109.634 52.2472V58H107.32V44.9091H109.583V49.8501H109.698C109.928 49.2962 110.284 48.8594 110.765 48.5398C111.251 48.2159 111.869 48.054 112.619 48.054C113.301 48.054 113.895 48.1967 114.402 48.4822C114.909 48.7678 115.301 49.1854 115.578 49.7351C115.86 50.2848 116 50.956 116 51.7486V58H113.686V52.1065C113.686 51.446 113.516 50.9325 113.175 50.5661C112.838 50.1953 112.365 50.0099 111.756 50.0099C111.347 50.0099 110.98 50.0994 110.656 50.2784C110.337 50.4531 110.085 50.7067 109.902 51.0391C109.723 51.3714 109.634 51.7741 109.634 52.2472ZM121.184 58.1982C120.562 58.1982 120.002 58.0874 119.503 57.8658C119.009 57.6399 118.617 57.3075 118.327 56.8686C118.041 56.4297 117.899 55.8885 117.899 55.245C117.899 54.6911 118.001 54.233 118.205 53.8707C118.41 53.5085 118.689 53.2188 119.043 53.0014C119.396 52.7841 119.795 52.62 120.238 52.5092C120.686 52.3942 121.148 52.3111 121.625 52.2599C122.2 52.2003 122.667 52.147 123.025 52.1001C123.383 52.049 123.643 51.9723 123.805 51.87C123.971 51.7635 124.054 51.5994 124.054 51.3778V51.3395C124.054 50.858 123.911 50.4851 123.626 50.2209C123.34 49.9567 122.929 49.8246 122.392 49.8246C121.825 49.8246 121.376 49.9482 121.044 50.1953C120.715 50.4425 120.494 50.7344 120.379 51.071L118.218 50.7642C118.389 50.1676 118.67 49.669 119.062 49.2685C119.454 48.8636 119.933 48.5611 120.5 48.3608C121.067 48.1562 121.693 48.054 122.379 48.054C122.852 48.054 123.323 48.1094 123.792 48.2202C124.261 48.331 124.689 48.5142 125.077 48.7699C125.465 49.0213 125.776 49.3643 126.01 49.799C126.249 50.2337 126.368 50.777 126.368 51.429V58H124.144V56.6513H124.067C123.926 56.924 123.728 57.1797 123.472 57.4183C123.221 57.6527 122.904 57.8423 122.52 57.9872C122.141 58.1278 121.695 58.1982 121.184 58.1982ZM121.785 56.4979C122.249 56.4979 122.652 56.4062 122.993 56.223C123.334 56.0355 123.596 55.7884 123.779 55.4815C123.967 55.1747 124.061 54.8402 124.061 54.478V53.321C123.988 53.3807 123.865 53.4361 123.69 53.4872C123.519 53.5384 123.328 53.5831 123.115 53.6214C122.901 53.6598 122.691 53.6939 122.482 53.7237C122.273 53.7536 122.092 53.7791 121.938 53.8004C121.593 53.8473 121.284 53.924 121.012 54.0305C120.739 54.1371 120.524 54.2862 120.366 54.478C120.208 54.6655 120.129 54.9084 120.129 55.2067C120.129 55.6328 120.285 55.9545 120.596 56.1719C120.907 56.3892 121.303 56.4979 121.785 56.4979ZM133.597 48.1818V49.9716H127.953V48.1818H133.597ZM129.347 45.8295H131.661V55.0469C131.661 55.358 131.708 55.5966 131.801 55.7628C131.899 55.9247 132.027 56.0355 132.185 56.0952C132.343 56.1548 132.517 56.1847 132.709 56.1847C132.854 56.1847 132.986 56.174 133.105 56.1527C133.229 56.1314 133.323 56.1122 133.387 56.0952L133.776 57.9041C133.653 57.9467 133.476 57.9936 133.246 58.0447C133.02 58.0959 132.743 58.1257 132.415 58.1342C131.835 58.1513 131.313 58.0639 130.849 57.8722C130.384 57.6761 130.016 57.3736 129.743 56.9645C129.475 56.5554 129.343 56.044 129.347 55.4304V45.8295ZM139.998 58V48.1818H142.311V58H139.998ZM141.161 46.7884C140.794 46.7884 140.479 46.6669 140.215 46.424C139.951 46.1768 139.819 45.8807 139.819 45.5355C139.819 45.1861 139.951 44.8899 140.215 44.647C140.479 44.3999 140.794 44.2763 141.161 44.2763C141.532 44.2763 141.847 44.3999 142.107 44.647C142.371 44.8899 142.503 45.1861 142.503 45.5355C142.503 45.8807 142.371 46.1768 142.107 46.424C141.847 46.6669 141.532 46.7884 141.161 46.7884ZM144.691 58V48.1818H146.903V49.8501H147.018C147.222 49.2876 147.561 48.8487 148.034 48.5334C148.507 48.2138 149.072 48.054 149.728 48.054C150.393 48.054 150.953 48.2159 151.409 48.5398C151.869 48.8594 152.193 49.2962 152.381 49.8501H152.483C152.7 49.3047 153.067 48.87 153.582 48.5462C154.102 48.218 154.718 48.054 155.43 48.054C156.333 48.054 157.07 48.3395 157.641 48.9105C158.212 49.4815 158.498 50.3146 158.498 51.4098V58H156.177V51.7678C156.177 51.1584 156.015 50.7131 155.692 50.4318C155.368 50.1463 154.971 50.0036 154.503 50.0036C153.944 50.0036 153.508 50.1783 153.192 50.5277C152.881 50.8729 152.726 51.3224 152.726 51.8764V58H150.456V51.6719C150.456 51.1648 150.303 50.7599 149.996 50.4574C149.694 50.1548 149.297 50.0036 148.807 50.0036C148.475 50.0036 148.172 50.0888 147.9 50.2592C147.627 50.4254 147.41 50.6619 147.248 50.9688C147.086 51.2713 147.005 51.625 147.005 52.0298V58H144.691ZM160.845 58V48.1818H163.057V49.8501H163.172C163.376 49.2876 163.715 48.8487 164.188 48.5334C164.661 48.2138 165.226 48.054 165.882 48.054C166.547 48.054 167.107 48.2159 167.563 48.5398C168.023 48.8594 168.347 49.2962 168.535 49.8501H168.637C168.854 49.3047 169.221 48.87 169.737 48.5462C170.256 48.218 170.872 48.054 171.584 48.054C172.487 48.054 173.224 48.3395 173.795 48.9105C174.366 49.4815 174.652 50.3146 174.652 51.4098V58H172.332V51.7678C172.332 51.1584 172.17 50.7131 171.846 50.4318C171.522 50.1463 171.126 50.0036 170.657 50.0036C170.099 50.0036 169.662 50.1783 169.347 50.5277C169.036 50.8729 168.88 51.3224 168.88 51.8764V58H166.611V51.6719C166.611 51.1648 166.457 50.7599 166.151 50.4574C165.848 50.1548 165.452 50.0036 164.962 50.0036C164.629 50.0036 164.327 50.0888 164.054 50.2592C163.781 50.4254 163.564 50.6619 163.402 50.9688C163.24 51.2713 163.159 51.625 163.159 52.0298V58H160.845ZM176.999 58V48.1818H179.313V58H176.999ZM178.163 46.7884C177.796 46.7884 177.481 46.6669 177.217 46.424C176.953 46.1768 176.82 45.8807 176.82 45.5355C176.82 45.1861 176.953 44.8899 177.217 44.647C177.481 44.3999 177.796 44.2763 178.163 44.2763C178.534 44.2763 178.849 44.3999 179.109 44.647C179.373 44.8899 179.505 45.1861 179.505 45.5355C179.505 45.8807 179.373 46.1768 179.109 46.424C178.849 46.6669 178.534 46.7884 178.163 46.7884ZM185.963 61.8864C185.132 61.8864 184.418 61.7734 183.821 61.5476C183.225 61.326 182.745 61.0277 182.383 60.6527C182.021 60.2777 181.77 59.8622 181.629 59.4062L183.713 58.9013C183.806 59.093 183.943 59.2827 184.122 59.4702C184.301 59.6619 184.542 59.8196 184.844 59.9432C185.151 60.071 185.537 60.1349 186.001 60.1349C186.657 60.1349 187.201 59.9751 187.631 59.6555C188.061 59.3402 188.277 58.8203 188.277 58.0959V56.2358H188.162C188.042 56.4744 187.868 56.7195 187.637 56.9709C187.412 57.2223 187.111 57.4332 186.736 57.6037C186.365 57.7741 185.899 57.8594 185.336 57.8594C184.582 57.8594 183.898 57.6825 183.284 57.3288C182.675 56.9709 182.189 56.4382 181.827 55.7308C181.469 55.0192 181.29 54.1286 181.29 53.0589C181.29 51.9808 181.469 51.071 181.827 50.3295C182.189 49.5838 182.677 49.0192 183.291 48.6357C183.904 48.2479 184.588 48.054 185.343 48.054C185.918 48.054 186.391 48.152 186.762 48.348C187.137 48.5398 187.435 48.772 187.657 49.0447C187.878 49.3132 188.047 49.5668 188.162 49.8054H188.289V48.1818H190.571V58.1598C190.571 58.9993 190.371 59.6939 189.971 60.2436C189.57 60.7933 189.022 61.2045 188.328 61.4773C187.633 61.75 186.845 61.8864 185.963 61.8864ZM185.982 56.044C186.472 56.044 186.89 55.9247 187.235 55.6861C187.58 55.4474 187.842 55.1044 188.021 54.657C188.2 54.2095 188.289 53.6726 188.289 53.0462C188.289 52.4283 188.2 51.8871 188.021 51.4226C187.846 50.9581 187.586 50.598 187.241 50.3423C186.9 50.0824 186.48 49.9524 185.982 49.9524C185.466 49.9524 185.036 50.0866 184.691 50.3551C184.346 50.6236 184.086 50.9922 183.911 51.4609C183.736 51.9254 183.649 52.4538 183.649 53.0462C183.649 53.647 183.736 54.1733 183.911 54.625C184.09 55.0724 184.352 55.4219 184.697 55.6733C185.047 55.9205 185.475 56.044 185.982 56.044ZM192.943 58V48.1818H195.186V49.8182H195.289C195.468 49.2514 195.775 48.8146 196.209 48.5078C196.648 48.1967 197.149 48.0412 197.711 48.0412C197.839 48.0412 197.982 48.0476 198.14 48.0604C198.301 48.0689 198.436 48.0838 198.542 48.1051V50.2337C198.444 50.1996 198.289 50.1697 198.076 50.1442C197.867 50.1143 197.664 50.0994 197.468 50.0994C197.047 50.0994 196.667 50.1911 196.331 50.3743C195.998 50.5533 195.736 50.8026 195.544 51.1222C195.353 51.4418 195.257 51.8104 195.257 52.228V58H192.943ZM202.729 58.1982C202.107 58.1982 201.547 58.0874 201.048 57.8658C200.554 57.6399 200.162 57.3075 199.872 56.8686C199.586 56.4297 199.444 55.8885 199.444 55.245C199.444 54.6911 199.546 54.233 199.75 53.8707C199.955 53.5085 200.234 53.2188 200.588 53.0014C200.941 52.7841 201.34 52.62 201.783 52.5092C202.23 52.3942 202.693 52.3111 203.17 52.2599C203.745 52.2003 204.212 52.147 204.57 52.1001C204.928 52.049 205.188 51.9723 205.35 51.87C205.516 51.7635 205.599 51.5994 205.599 51.3778V51.3395C205.599 50.858 205.456 50.4851 205.171 50.2209C204.885 49.9567 204.474 49.8246 203.937 49.8246C203.37 49.8246 202.921 49.9482 202.588 50.1953C202.26 50.4425 202.039 50.7344 201.924 51.071L199.763 50.7642C199.934 50.1676 200.215 49.669 200.607 49.2685C200.999 48.8636 201.478 48.5611 202.045 48.3608C202.612 48.1562 203.238 48.054 203.924 48.054C204.397 48.054 204.868 48.1094 205.337 48.2202C205.806 48.331 206.234 48.5142 206.622 48.7699C207.01 49.0213 207.321 49.3643 207.555 49.799C207.794 50.2337 207.913 50.777 207.913 51.429V58H205.689V56.6513H205.612C205.471 56.924 205.273 57.1797 205.017 57.4183C204.766 57.6527 204.449 57.8423 204.065 57.9872C203.686 58.1278 203.24 58.1982 202.729 58.1982ZM203.33 56.4979C203.794 56.4979 204.197 56.4062 204.538 56.223C204.879 56.0355 205.141 55.7884 205.324 55.4815C205.512 55.1747 205.605 54.8402 205.605 54.478V53.321C205.533 53.3807 205.409 53.4361 205.235 53.4872C205.064 53.5384 204.873 53.5831 204.659 53.6214C204.446 53.6598 204.235 53.6939 204.027 53.7237C203.818 53.7536 203.637 53.7791 203.483 53.8004C203.138 53.8473 202.829 53.924 202.556 54.0305C202.284 54.1371 202.069 54.2862 201.911 54.478C201.753 54.6655 201.674 54.9084 201.674 55.2067C201.674 55.6328 201.83 55.9545 202.141 56.1719C202.452 56.3892 202.848 56.4979 203.33 56.4979ZM215.142 48.1818V49.9716H209.498V48.1818H215.142ZM210.892 45.8295H213.206V55.0469C213.206 55.358 213.252 55.5966 213.346 55.7628C213.444 55.9247 213.572 56.0355 213.73 56.0952C213.887 56.1548 214.062 56.1847 214.254 56.1847C214.399 56.1847 214.531 56.174 214.65 56.1527C214.774 56.1314 214.868 56.1122 214.931 56.0952L215.321 57.9041C215.198 57.9467 215.021 57.9936 214.791 58.0447C214.565 58.0959 214.288 58.1257 213.96 58.1342C213.38 58.1513 212.858 58.0639 212.394 57.8722C211.929 57.6761 211.561 57.3736 211.288 56.9645C211.02 56.5554 210.887 56.044 210.892 55.4304V45.8295ZM217.078 58V48.1818H219.392V58H217.078ZM218.241 46.7884C217.874 46.7884 217.559 46.6669 217.295 46.424C217.031 46.1768 216.899 45.8807 216.899 45.5355C216.899 45.1861 217.031 44.8899 217.295 44.647C217.559 44.3999 217.874 44.2763 218.241 44.2763C218.612 44.2763 218.927 44.3999 219.187 44.647C219.451 44.8899 219.583 45.1861 219.583 45.5355C219.583 45.8807 219.451 46.1768 219.187 46.424C218.927 46.6669 218.612 46.7884 218.241 46.7884ZM226.054 58.1918C225.095 58.1918 224.264 57.9808 223.561 57.5589C222.858 57.1371 222.312 56.5469 221.924 55.7884C221.541 55.0298 221.349 54.1435 221.349 53.1293C221.349 52.1151 221.541 51.2266 221.924 50.4638C222.312 49.701 222.858 49.1087 223.561 48.6868C224.264 48.2649 225.095 48.054 226.054 48.054C227.012 48.054 227.843 48.2649 228.547 48.6868C229.25 49.1087 229.793 49.701 230.176 50.4638C230.564 51.2266 230.758 52.1151 230.758 53.1293C230.758 54.1435 230.564 55.0298 230.176 55.7884C229.793 56.5469 229.25 57.1371 228.547 57.5589C227.843 57.9808 227.012 58.1918 226.054 58.1918ZM226.066 56.3381C226.586 56.3381 227.021 56.1953 227.37 55.9098C227.72 55.62 227.98 55.2322 228.15 54.7464C228.325 54.2607 228.412 53.7195 228.412 53.1229C228.412 52.522 228.325 51.9787 228.15 51.4929C227.98 51.0028 227.72 50.6129 227.37 50.3232C227.021 50.0334 226.586 49.8885 226.066 49.8885C225.534 49.8885 225.091 50.0334 224.737 50.3232C224.387 50.6129 224.125 51.0028 223.951 51.4929C223.78 51.9787 223.695 52.522 223.695 53.1229C223.695 53.7195 223.78 54.2607 223.951 54.7464C224.125 55.2322 224.387 55.62 224.737 55.9098C225.091 56.1953 225.534 56.3381 226.066 56.3381ZM235.036 52.2472V58H232.722V48.1818H234.934V49.8501H235.049C235.275 49.3004 235.635 48.8636 236.129 48.5398C236.628 48.2159 237.243 48.054 237.976 48.054C238.654 48.054 239.244 48.1989 239.747 48.4886C240.254 48.7784 240.646 49.1982 240.923 49.7479C241.204 50.2976 241.343 50.9645 241.339 51.7486V58H239.025V52.1065C239.025 51.4503 238.854 50.9368 238.513 50.5661C238.177 50.1953 237.71 50.0099 237.113 50.0099C236.709 50.0099 236.349 50.0994 236.033 50.2784C235.722 50.4531 235.477 50.7067 235.298 51.0391C235.123 51.3714 235.036 51.7741 235.036 52.2472ZM255.916 50.777L253.806 51.0071C253.747 50.794 253.642 50.5938 253.493 50.4062C253.348 50.2188 253.152 50.0675 252.905 49.9524C252.658 49.8374 252.355 49.7798 251.997 49.7798C251.516 49.7798 251.111 49.8842 250.783 50.093C250.459 50.3018 250.299 50.5724 250.303 50.9048C250.299 51.1903 250.404 51.4226 250.617 51.6016C250.834 51.7805 251.192 51.9276 251.691 52.0426L253.365 52.4006C254.294 52.6009 254.985 52.9183 255.436 53.353C255.892 53.7876 256.122 54.3565 256.127 55.0597C256.122 55.6776 255.941 56.223 255.583 56.696C255.23 57.1648 254.737 57.5312 254.107 57.7955C253.476 58.0597 252.752 58.1918 251.933 58.1918C250.732 58.1918 249.764 57.9403 249.031 57.4375C248.298 56.9304 247.862 56.2251 247.721 55.3217L249.977 55.1044C250.08 55.5476 250.297 55.8821 250.629 56.108C250.962 56.3338 251.394 56.4467 251.927 56.4467C252.477 56.4467 252.918 56.3338 253.25 56.108C253.587 55.8821 253.755 55.603 253.755 55.2706C253.755 54.9893 253.646 54.7571 253.429 54.5739C253.216 54.3906 252.884 54.25 252.432 54.152L250.757 53.8004C249.816 53.6044 249.119 53.2741 248.667 52.8097C248.215 52.3409 247.992 51.7486 247.996 51.0327C247.992 50.4276 248.156 49.9034 248.488 49.4602C248.825 49.0128 249.291 48.6676 249.888 48.4247C250.489 48.1776 251.181 48.054 251.965 48.054C253.116 48.054 254.021 48.299 254.682 48.7891C255.347 49.2791 255.758 49.9418 255.916 50.777ZM262.381 58.1918C261.397 58.1918 260.547 57.9872 259.831 57.5781C259.119 57.1648 258.572 56.581 258.188 55.8267C257.805 55.0682 257.613 54.1754 257.613 53.1484C257.613 52.1385 257.805 51.2521 258.188 50.4893C258.576 49.7223 259.117 49.1257 259.812 48.6996C260.506 48.2692 261.322 48.054 262.26 48.054C262.865 48.054 263.436 48.152 263.973 48.348C264.514 48.5398 264.991 48.8381 265.405 49.2429C265.822 49.6477 266.15 50.1634 266.389 50.7898C266.628 51.4119 266.747 52.1534 266.747 53.0142V53.7237H258.699V52.1641H264.529C264.525 51.7209 264.429 51.3267 264.241 50.9815C264.054 50.6321 263.792 50.3572 263.455 50.157C263.123 49.9567 262.735 49.8565 262.292 49.8565C261.819 49.8565 261.403 49.9716 261.045 50.2017C260.687 50.4276 260.408 50.7259 260.208 51.0966C260.012 51.4631 259.912 51.8658 259.907 52.3047V53.6662C259.907 54.2372 260.012 54.7273 260.221 55.1364C260.43 55.5412 260.721 55.8523 261.096 56.0696C261.471 56.2827 261.91 56.3892 262.413 56.3892C262.75 56.3892 263.055 56.3423 263.327 56.2486C263.6 56.1506 263.836 56.0078 264.037 55.8203C264.237 55.6328 264.388 55.4006 264.491 55.1236L266.651 55.3665C266.515 55.9375 266.255 56.4361 265.871 56.8622C265.492 57.2841 265.006 57.6122 264.414 57.8466C263.822 58.0767 263.144 58.1918 262.381 58.1918ZM268.705 58V48.1818H270.948V49.8182H271.05C271.229 49.2514 271.536 48.8146 271.971 48.5078C272.41 48.1967 272.911 48.0412 273.473 48.0412C273.601 48.0412 273.744 48.0476 273.901 48.0604C274.063 48.0689 274.197 48.0838 274.304 48.1051V50.2337C274.206 50.1996 274.05 50.1697 273.837 50.1442C273.629 50.1143 273.426 50.0994 273.23 50.0994C272.808 50.0994 272.429 50.1911 272.092 50.3743C271.76 50.5533 271.498 50.8026 271.306 51.1222C271.114 51.4418 271.018 51.8104 271.018 52.228V58H268.705ZM284.91 48.1818L281.414 58H278.857L275.36 48.1818H277.828L280.084 55.4751H280.186L282.449 48.1818H284.91ZM286.511 58V48.1818H288.825V58H286.511ZM287.675 46.7884C287.308 46.7884 286.993 46.6669 286.729 46.424C286.464 46.1768 286.332 45.8807 286.332 45.5355C286.332 45.1861 286.464 44.8899 286.729 44.647C286.993 44.3999 287.308 44.2763 287.675 44.2763C288.045 44.2763 288.361 44.3999 288.621 44.647C288.885 44.8899 289.017 45.1861 289.017 45.5355C289.017 45.8807 288.885 46.1768 288.621 46.424C288.361 46.6669 288.045 46.7884 287.675 46.7884ZM295.487 58.1918C294.507 58.1918 293.665 57.9766 292.962 57.5462C292.263 57.1158 291.724 56.5213 291.345 55.7628C290.97 55 290.783 54.1222 290.783 53.1293C290.783 52.1321 290.974 51.2521 291.358 50.4893C291.741 49.7223 292.283 49.1257 292.982 48.6996C293.685 48.2692 294.516 48.054 295.474 48.054C296.271 48.054 296.977 48.201 297.59 48.495C298.208 48.7848 298.7 49.196 299.067 49.7287C299.433 50.2571 299.642 50.875 299.693 51.5824H297.482C297.392 51.1094 297.179 50.7152 296.842 50.3999C296.51 50.0803 296.065 49.9205 295.506 49.9205C295.033 49.9205 294.618 50.0483 294.26 50.304C293.902 50.5554 293.623 50.9176 293.423 51.3906C293.227 51.8636 293.129 52.4304 293.129 53.0909C293.129 53.7599 293.227 54.3352 293.423 54.8168C293.619 55.294 293.893 55.6626 294.247 55.9226C294.605 56.1783 295.025 56.3061 295.506 56.3061C295.847 56.3061 296.152 56.2422 296.42 56.1143C296.693 55.9822 296.921 55.7926 297.104 55.5455C297.288 55.2983 297.413 54.9979 297.482 54.6442H299.693C299.638 55.3388 299.433 55.9545 299.08 56.4915C298.726 57.0241 298.244 57.4418 297.635 57.7443C297.026 58.0426 296.31 58.1918 295.487 58.1918ZM305.94 58.1918C304.955 58.1918 304.105 57.9872 303.389 57.5781C302.678 57.1648 302.13 56.581 301.747 55.8267C301.363 55.0682 301.171 54.1754 301.171 53.1484C301.171 52.1385 301.363 51.2521 301.747 50.4893C302.134 49.7223 302.676 49.1257 303.37 48.6996C304.065 48.2692 304.881 48.054 305.818 48.054C306.423 48.054 306.994 48.152 307.531 48.348C308.073 48.5398 308.55 48.8381 308.963 49.2429C309.381 49.6477 309.709 50.1634 309.948 50.7898C310.186 51.4119 310.306 52.1534 310.306 53.0142V53.7237H302.258V52.1641H308.088C308.083 51.7209 307.987 51.3267 307.8 50.9815C307.612 50.6321 307.35 50.3572 307.014 50.157C306.681 49.9567 306.294 49.8565 305.85 49.8565C305.377 49.8565 304.962 49.9716 304.604 50.2017C304.246 50.4276 303.967 50.7259 303.767 51.0966C303.57 51.4631 303.47 51.8658 303.466 52.3047V53.6662C303.466 54.2372 303.57 54.7273 303.779 55.1364C303.988 55.5412 304.28 55.8523 304.655 56.0696C305.03 56.2827 305.469 56.3892 305.972 56.3892C306.308 56.3892 306.613 56.3423 306.886 56.2486C307.159 56.1506 307.395 56.0078 307.595 55.8203C307.796 55.6328 307.947 55.4006 308.049 55.1236L310.21 55.3665C310.073 55.9375 309.813 56.4361 309.43 56.8622C309.051 57.2841 308.565 57.6122 307.972 57.8466C307.38 58.0767 306.703 58.1918 305.94 58.1918ZM320.023 50.777L317.914 51.0071C317.854 50.794 317.75 50.5938 317.6 50.4062C317.456 50.2188 317.26 50.0675 317.012 49.9524C316.765 49.8374 316.463 49.7798 316.105 49.7798C315.623 49.7798 315.218 49.8842 314.89 50.093C314.566 50.3018 314.407 50.5724 314.411 50.9048C314.407 51.1903 314.511 51.4226 314.724 51.6016C314.941 51.7805 315.299 51.9276 315.798 52.0426L317.473 52.4006C318.402 52.6009 319.092 52.9183 319.544 53.353C320 53.7876 320.23 54.3565 320.234 55.0597C320.23 55.6776 320.049 56.223 319.691 56.696C319.337 57.1648 318.845 57.5312 318.214 57.7955C317.583 58.0597 316.859 58.1918 316.041 58.1918C314.839 58.1918 313.872 57.9403 313.139 57.4375C312.406 56.9304 311.969 56.2251 311.828 55.3217L314.085 55.1044C314.187 55.5476 314.404 55.8821 314.737 56.108C315.069 56.3338 315.502 56.4467 316.034 56.4467C316.584 56.4467 317.025 56.3338 317.358 56.108C317.694 55.8821 317.863 55.603 317.863 55.2706C317.863 54.9893 317.754 54.7571 317.537 54.5739C317.324 54.3906 316.991 54.25 316.539 54.152L314.865 53.8004C313.923 53.6044 313.226 53.2741 312.775 52.8097C312.323 52.3409 312.099 51.7486 312.103 51.0327C312.099 50.4276 312.263 49.9034 312.596 49.4602C312.932 49.0128 313.399 48.6676 313.995 48.4247C314.596 48.1776 315.289 48.054 316.073 48.054C317.223 48.054 318.129 48.299 318.789 48.7891C319.454 49.2791 319.865 49.9418 320.023 50.777ZM330.25 58.1726C329.479 58.1726 328.789 57.9744 328.179 57.5781C327.57 57.1818 327.088 56.6065 326.735 55.8523C326.381 55.098 326.204 54.1818 326.204 53.1037C326.204 52.0128 326.383 51.0923 326.741 50.3423C327.103 49.5881 327.591 49.0192 328.205 48.6357C328.819 48.2479 329.502 48.054 330.257 48.054C330.832 48.054 331.305 48.152 331.676 48.348C332.047 48.5398 332.341 48.772 332.558 49.0447C332.775 49.3132 332.944 49.5668 333.063 49.8054H333.159V44.9091H335.479V58H333.203V56.4531H333.063C332.944 56.6918 332.771 56.9453 332.545 57.2138C332.319 57.478 332.021 57.7038 331.65 57.8913C331.279 58.0788 330.813 58.1726 330.25 58.1726ZM330.896 56.2741C331.386 56.2741 331.804 56.142 332.149 55.8778C332.494 55.6094 332.756 55.2365 332.935 54.7592C333.114 54.282 333.203 53.7259 333.203 53.0909C333.203 52.456 333.114 51.9041 332.935 51.4354C332.76 50.9666 332.5 50.6023 332.155 50.3423C331.814 50.0824 331.395 49.9524 330.896 49.9524C330.38 49.9524 329.95 50.0866 329.605 50.3551C329.26 50.6236 329 50.9943 328.825 51.4673C328.65 51.9403 328.563 52.4815 328.563 53.0909C328.563 53.7045 328.65 54.2521 328.825 54.7337C329.004 55.2109 329.266 55.5881 329.611 55.8651C329.961 56.1378 330.389 56.2741 330.896 56.2741ZM342.227 58.1918C341.269 58.1918 340.438 57.9808 339.735 57.5589C339.031 57.1371 338.486 56.5469 338.098 55.7884C337.715 55.0298 337.523 54.1435 337.523 53.1293C337.523 52.1151 337.715 51.2266 338.098 50.4638C338.486 49.701 339.031 49.1087 339.735 48.6868C340.438 48.2649 341.269 48.054 342.227 48.054C343.186 48.054 344.017 48.2649 344.72 48.6868C345.423 49.1087 345.967 49.701 346.35 50.4638C346.738 51.2266 346.932 52.1151 346.932 53.1293C346.932 54.1435 346.738 55.0298 346.35 55.7884C345.967 56.5469 345.423 57.1371 344.72 57.5589C344.017 57.9808 343.186 58.1918 342.227 58.1918ZM342.24 56.3381C342.76 56.3381 343.195 56.1953 343.544 55.9098C343.894 55.62 344.154 55.2322 344.324 54.7464C344.499 54.2607 344.586 53.7195 344.586 53.1229C344.586 52.522 344.499 51.9787 344.324 51.4929C344.154 51.0028 343.894 50.6129 343.544 50.3232C343.195 50.0334 342.76 49.8885 342.24 49.8885C341.708 49.8885 341.264 50.0334 340.911 50.3232C340.561 50.6129 340.299 51.0028 340.124 51.4929C339.954 51.9787 339.869 52.522 339.869 53.1229C339.869 53.7195 339.954 54.2607 340.124 54.7464C340.299 55.2322 340.561 55.62 340.911 55.9098C341.264 56.1953 341.708 56.3381 342.24 56.3381ZM353.243 58.1918C352.258 58.1918 351.408 57.9872 350.692 57.5781C349.98 57.1648 349.433 56.581 349.049 55.8267C348.666 55.0682 348.474 54.1754 348.474 53.1484C348.474 52.1385 348.666 51.2521 349.049 50.4893C349.437 49.7223 349.978 49.1257 350.673 48.6996C351.368 48.2692 352.184 48.054 353.121 48.054C353.726 48.054 354.297 48.152 354.834 48.348C355.375 48.5398 355.853 48.8381 356.266 49.2429C356.684 49.6477 357.012 50.1634 357.25 50.7898C357.489 51.4119 357.608 52.1534 357.608 53.0142V53.7237H349.561V52.1641H355.39C355.386 51.7209 355.29 51.3267 355.103 50.9815C354.915 50.6321 354.653 50.3572 354.316 50.157C353.984 49.9567 353.596 49.8565 353.153 49.8565C352.68 49.8565 352.265 49.9716 351.907 50.2017C351.549 50.4276 351.27 50.7259 351.069 51.0966C350.873 51.4631 350.773 51.8658 350.769 52.3047V53.6662C350.769 54.2372 350.873 54.7273 351.082 55.1364C351.291 55.5412 351.583 55.8523 351.958 56.0696C352.333 56.2827 352.772 56.3892 353.275 56.3892C353.611 56.3892 353.916 56.3423 354.189 56.2486C354.461 56.1506 354.698 56.0078 354.898 55.8203C355.098 55.6328 355.25 55.4006 355.352 55.1236L357.512 55.3665C357.376 55.9375 357.116 56.4361 356.733 56.8622C356.353 57.2841 355.868 57.6122 355.275 57.8466C354.683 58.0767 354.005 58.1918 353.243 58.1918ZM367.326 50.777L365.216 51.0071C365.157 50.794 365.052 50.5938 364.903 50.4062C364.758 50.2188 364.562 50.0675 364.315 49.9524C364.068 49.8374 363.765 49.7798 363.407 49.7798C362.926 49.7798 362.521 49.8842 362.193 50.093C361.869 50.3018 361.709 50.5724 361.714 50.9048C361.709 51.1903 361.814 51.4226 362.027 51.6016C362.244 51.7805 362.602 51.9276 363.101 52.0426L364.775 52.4006C365.704 52.6009 366.395 52.9183 366.846 53.353C367.302 53.7876 367.532 54.3565 367.537 55.0597C367.532 55.6776 367.351 56.223 366.993 56.696C366.64 57.1648 366.148 57.5312 365.517 57.7955C364.886 58.0597 364.162 58.1918 363.344 58.1918C362.142 58.1918 361.175 57.9403 360.442 57.4375C359.709 56.9304 359.272 56.2251 359.131 55.3217L361.388 55.1044C361.49 55.5476 361.707 55.8821 362.04 56.108C362.372 56.3338 362.805 56.4467 363.337 56.4467C363.887 56.4467 364.328 56.3338 364.66 56.108C364.997 55.8821 365.165 55.603 365.165 55.2706C365.165 54.9893 365.057 54.7571 364.839 54.5739C364.626 54.3906 364.294 54.25 363.842 54.152L362.167 53.8004C361.226 53.6044 360.529 53.2741 360.077 52.8097C359.626 52.3409 359.402 51.7486 359.406 51.0327C359.402 50.4276 359.566 49.9034 359.898 49.4602C360.235 49.0128 360.702 48.6676 361.298 48.4247C361.899 48.1776 362.591 48.054 363.376 48.054C364.526 48.054 365.432 48.299 366.092 48.7891C366.757 49.2791 367.168 49.9418 367.326 50.777ZM373.769 58V56.5234L380.481 46.897H373.731V44.9091H383.421V46.3857L376.716 56.0121H383.459V58H373.769ZM385.754 58V44.9091H394.14V46.897H388.126V50.451H393.565V52.4389H388.126V58H385.754ZM411.971 49.326H409.58C409.512 48.9339 409.387 48.5866 409.203 48.2841C409.02 47.9773 408.792 47.7173 408.519 47.5043C408.247 47.2912 407.936 47.1314 407.586 47.0249C407.241 46.9141 406.868 46.8587 406.468 46.8587C405.756 46.8587 405.125 47.0376 404.575 47.3956C404.026 47.7493 403.595 48.2692 403.284 48.9553C402.973 49.6371 402.818 50.4702 402.818 51.4545C402.818 52.456 402.973 53.2997 403.284 53.9858C403.6 54.6676 404.03 55.1832 404.575 55.5327C405.125 55.8778 405.754 56.0504 406.461 56.0504C406.853 56.0504 407.22 55.9993 407.561 55.897C407.906 55.7905 408.215 55.6349 408.487 55.4304C408.764 55.2259 408.997 54.9744 409.184 54.6761C409.376 54.3778 409.508 54.0369 409.58 53.6534L411.971 53.6662C411.882 54.2884 411.688 54.8722 411.389 55.4176C411.095 55.9631 410.71 56.4446 410.232 56.8622C409.755 57.2756 409.197 57.5994 408.558 57.8338C407.919 58.0639 407.209 58.179 406.429 58.179C405.279 58.179 404.252 57.9126 403.348 57.38C402.445 56.8473 401.733 56.0781 401.213 55.0724C400.693 54.0668 400.433 52.8608 400.433 51.4545C400.433 50.044 400.695 48.8381 401.22 47.8366C401.744 46.831 402.458 46.0618 403.361 45.5291C404.264 44.9964 405.287 44.7301 406.429 44.7301C407.158 44.7301 407.835 44.8324 408.462 45.0369C409.088 45.2415 409.646 45.5419 410.137 45.9382C410.627 46.3303 411.029 46.8118 411.345 47.3828C411.664 47.9496 411.873 48.5973 411.971 49.326ZM416.866 58.1982C416.244 58.1982 415.683 58.0874 415.185 57.8658C414.69 57.6399 414.298 57.3075 414.009 56.8686C413.723 56.4297 413.58 55.8885 413.58 55.245C413.58 54.6911 413.683 54.233 413.887 53.8707C414.092 53.5085 414.371 53.2188 414.724 53.0014C415.078 52.7841 415.477 52.62 415.92 52.5092C416.367 52.3942 416.83 52.3111 417.307 52.2599C417.882 52.2003 418.349 52.147 418.707 52.1001C419.065 52.049 419.325 51.9723 419.487 51.87C419.653 51.7635 419.736 51.5994 419.736 51.3778V51.3395C419.736 50.858 419.593 50.4851 419.308 50.2209C419.022 49.9567 418.611 49.8246 418.074 49.8246C417.507 49.8246 417.058 49.9482 416.725 50.1953C416.397 50.4425 416.175 50.7344 416.06 51.071L413.9 50.7642C414.07 50.1676 414.352 49.669 414.744 49.2685C415.136 48.8636 415.615 48.5611 416.182 48.3608C416.749 48.1562 417.375 48.054 418.061 48.054C418.534 48.054 419.005 48.1094 419.474 48.2202C419.942 48.331 420.371 48.5142 420.759 48.7699C421.146 49.0213 421.457 49.3643 421.692 49.799C421.93 50.2337 422.05 50.777 422.05 51.429V58H419.825V56.6513H419.749C419.608 56.924 419.41 57.1797 419.154 57.4183C418.903 57.6527 418.585 57.8423 418.202 57.9872C417.822 58.1278 417.377 58.1982 416.866 58.1982ZM417.467 56.4979C417.931 56.4979 418.334 56.4062 418.675 56.223C419.016 56.0355 419.278 55.7884 419.461 55.4815C419.648 55.1747 419.742 54.8402 419.742 54.478V53.321C419.67 53.3807 419.546 53.4361 419.371 53.4872C419.201 53.5384 419.009 53.5831 418.796 53.6214C418.583 53.6598 418.372 53.6939 418.163 53.7237C417.955 53.7536 417.773 53.7791 417.62 53.8004C417.275 53.8473 416.966 53.924 416.693 54.0305C416.42 54.1371 416.205 54.2862 416.048 54.478C415.89 54.6655 415.811 54.9084 415.811 55.2067C415.811 55.6328 415.967 55.9545 416.278 56.1719C416.589 56.3892 416.985 56.4979 417.467 56.4979ZM426.69 52.2472V58H424.376V48.1818H426.588V49.8501H426.703C426.929 49.3004 427.289 48.8636 427.783 48.5398C428.282 48.2159 428.898 48.054 429.631 48.054C430.308 48.054 430.898 48.1989 431.401 48.4886C431.908 48.7784 432.3 49.1982 432.577 49.7479C432.859 50.2976 432.997 50.9645 432.993 51.7486V58H430.679V52.1065C430.679 51.4503 430.509 50.9368 430.168 50.5661C429.831 50.1953 429.364 50.0099 428.768 50.0099C428.363 50.0099 428.003 50.0994 427.688 50.2784C427.376 50.4531 427.131 50.7067 426.952 51.0391C426.778 51.3714 426.69 51.7741 426.69 52.2472ZM438.17 58.1982C437.548 58.1982 436.988 58.0874 436.489 57.8658C435.995 57.6399 435.603 57.3075 435.313 56.8686C435.028 56.4297 434.885 55.8885 434.885 55.245C434.885 54.6911 434.987 54.233 435.192 53.8707C435.396 53.5085 435.675 53.2188 436.029 53.0014C436.383 52.7841 436.781 52.62 437.224 52.5092C437.672 52.3942 438.134 52.3111 438.612 52.2599C439.187 52.2003 439.653 52.147 440.011 52.1001C440.369 52.049 440.629 51.9723 440.791 51.87C440.957 51.7635 441.04 51.5994 441.04 51.3778V51.3395C441.04 50.858 440.898 50.4851 440.612 50.2209C440.327 49.9567 439.915 49.8246 439.379 49.8246C438.812 49.8246 438.362 49.9482 438.03 50.1953C437.702 50.4425 437.48 50.7344 437.365 51.071L435.205 50.7642C435.375 50.1676 435.656 49.669 436.048 49.2685C436.44 48.8636 436.92 48.5611 437.487 48.3608C438.053 48.1562 438.68 48.054 439.366 48.054C439.839 48.054 440.31 48.1094 440.778 48.2202C441.247 48.331 441.675 48.5142 442.063 48.7699C442.451 49.0213 442.762 49.3643 442.996 49.799C443.235 50.2337 443.354 50.777 443.354 51.429V58H441.13V56.6513H441.053C440.913 56.924 440.714 57.1797 440.459 57.4183C440.207 57.6527 439.89 57.8423 439.506 57.9872C439.127 58.1278 438.682 58.1982 438.17 58.1982ZM438.771 56.4979C439.236 56.4979 439.638 56.4062 439.979 56.223C440.32 56.0355 440.582 55.7884 440.766 55.4815C440.953 55.1747 441.047 54.8402 441.047 54.478V53.321C440.974 53.3807 440.851 53.4361 440.676 53.4872C440.506 53.5384 440.314 53.5831 440.101 53.6214C439.888 53.6598 439.677 53.6939 439.468 53.7237C439.259 53.7536 439.078 53.7791 438.925 53.8004C438.58 53.8473 438.271 53.924 437.998 54.0305C437.725 54.1371 437.51 54.2862 437.352 54.478C437.195 54.6655 437.116 54.9084 437.116 55.2067C437.116 55.6328 437.271 55.9545 437.582 56.1719C437.893 56.3892 438.29 56.4979 438.771 56.4979ZM449.325 58.1726C448.553 58.1726 447.863 57.9744 447.254 57.5781C446.644 57.1818 446.163 56.6065 445.809 55.8523C445.455 55.098 445.278 54.1818 445.278 53.1037C445.278 52.0128 445.457 51.0923 445.815 50.3423C446.178 49.5881 446.665 49.0192 447.279 48.6357C447.893 48.2479 448.577 48.054 449.331 48.054C449.906 48.054 450.379 48.152 450.75 48.348C451.121 48.5398 451.415 48.772 451.632 49.0447C451.849 49.3132 452.018 49.5668 452.137 49.8054H452.233V44.9091H454.553V58H452.278V56.4531H452.137C452.018 56.6918 451.845 56.9453 451.619 57.2138C451.393 57.478 451.095 57.7038 450.724 57.8913C450.354 58.0788 449.887 58.1726 449.325 58.1726ZM449.97 56.2741C450.46 56.2741 450.878 56.142 451.223 55.8778C451.568 55.6094 451.83 55.2365 452.009 54.7592C452.188 54.282 452.278 53.7259 452.278 53.0909C452.278 52.456 452.188 51.9041 452.009 51.4354C451.835 50.9666 451.575 50.6023 451.229 50.3423C450.888 50.0824 450.469 49.9524 449.97 49.9524C449.455 49.9524 449.024 50.0866 448.679 50.3551C448.334 50.6236 448.074 50.9943 447.899 51.4673C447.724 51.9403 447.637 52.4815 447.637 53.0909C447.637 53.7045 447.724 54.2521 447.899 54.7337C448.078 55.2109 448.34 55.5881 448.685 55.8651C449.035 56.1378 449.463 56.2741 449.97 56.2741ZM459.844 58.1982C459.222 58.1982 458.662 58.0874 458.163 57.8658C457.669 57.6399 457.277 57.3075 456.987 56.8686C456.702 56.4297 456.559 55.8885 456.559 55.245C456.559 54.6911 456.661 54.233 456.866 53.8707C457.07 53.5085 457.349 53.2188 457.703 53.0014C458.057 52.7841 458.455 52.62 458.898 52.5092C459.346 52.3942 459.808 52.3111 460.285 52.2599C460.861 52.2003 461.327 52.147 461.685 52.1001C462.043 52.049 462.303 51.9723 462.465 51.87C462.631 51.7635 462.714 51.5994 462.714 51.3778V51.3395C462.714 50.858 462.572 50.4851 462.286 50.2209C462.001 49.9567 461.589 49.8246 461.052 49.8246C460.486 49.8246 460.036 49.9482 459.704 50.1953C459.376 50.4425 459.154 50.7344 459.039 51.071L456.878 50.7642C457.049 50.1676 457.33 49.669 457.722 49.2685C458.114 48.8636 458.594 48.5611 459.16 48.3608C459.727 48.1562 460.354 48.054 461.04 48.054C461.513 48.054 461.983 48.1094 462.452 48.2202C462.921 48.331 463.349 48.5142 463.737 48.7699C464.125 49.0213 464.436 49.3643 464.67 49.799C464.909 50.2337 465.028 50.777 465.028 51.429V58H462.804V56.6513H462.727C462.586 56.924 462.388 57.1797 462.133 57.4183C461.881 57.6527 461.564 57.8423 461.18 57.9872C460.801 58.1278 460.356 58.1982 459.844 58.1982ZM460.445 56.4979C460.91 56.4979 461.312 56.4062 461.653 56.223C461.994 56.0355 462.256 55.7884 462.439 55.4815C462.627 55.1747 462.721 54.8402 462.721 54.478V53.321C462.648 53.3807 462.525 53.4361 462.35 53.4872C462.18 53.5384 461.988 53.5831 461.775 53.6214C461.562 53.6598 461.351 53.6939 461.142 53.7237C460.933 53.7536 460.752 53.7791 460.599 53.8004C460.253 53.8473 459.944 53.924 459.672 54.0305C459.399 54.1371 459.184 54.2862 459.026 54.478C458.868 54.6655 458.79 54.9084 458.79 55.2067C458.79 55.6328 458.945 55.9545 459.256 56.1719C459.567 56.3892 459.964 56.4979 460.445 56.4979ZM476.102 58.1918C475.144 58.1918 474.313 57.9808 473.61 57.5589C472.906 57.1371 472.361 56.5469 471.973 55.7884C471.59 55.0298 471.398 54.1435 471.398 53.1293C471.398 52.1151 471.59 51.2266 471.973 50.4638C472.361 49.701 472.906 49.1087 473.61 48.6868C474.313 48.2649 475.144 48.054 476.102 48.054C477.061 48.054 477.892 48.2649 478.595 48.6868C479.298 49.1087 479.842 49.701 480.225 50.4638C480.613 51.2266 480.807 52.1151 480.807 53.1293C480.807 54.1435 480.613 55.0298 480.225 55.7884C479.842 56.5469 479.298 57.1371 478.595 57.5589C477.892 57.9808 477.061 58.1918 476.102 58.1918ZM476.115 56.3381C476.635 56.3381 477.07 56.1953 477.419 55.9098C477.769 55.62 478.029 55.2322 478.199 54.7464C478.374 54.2607 478.461 53.7195 478.461 53.1229C478.461 52.522 478.374 51.9787 478.199 51.4929C478.029 51.0028 477.769 50.6129 477.419 50.3232C477.07 50.0334 476.635 49.8885 476.115 49.8885C475.583 49.8885 475.139 50.0334 474.786 50.3232C474.436 50.6129 474.174 51.0028 473.999 51.4929C473.829 51.9787 473.744 52.522 473.744 53.1229C473.744 53.7195 473.829 54.2607 473.999 54.7464C474.174 55.2322 474.436 55.62 474.786 55.9098C475.139 56.1953 475.583 56.3381 476.115 56.3381ZM487.744 48.1818V49.9716H481.94V48.1818H487.744ZM483.391 58V47.255C483.391 46.5945 483.527 46.0447 483.8 45.6058C484.077 45.1669 484.448 44.8388 484.912 44.6214C485.377 44.4041 485.892 44.2955 486.459 44.2955C486.86 44.2955 487.216 44.3274 487.527 44.3913C487.838 44.4553 488.068 44.5128 488.217 44.5639L487.757 46.3537C487.659 46.3239 487.535 46.294 487.386 46.2642C487.237 46.2301 487.071 46.2131 486.887 46.2131C486.457 46.2131 486.152 46.3175 485.973 46.5263C485.799 46.7308 485.711 47.0249 485.711 47.4084V58H483.391ZM494.529 48.1818V49.9716H488.725V48.1818H494.529ZM490.176 58V47.255C490.176 46.5945 490.313 46.0447 490.585 45.6058C490.862 45.1669 491.233 44.8388 491.697 44.6214C492.162 44.4041 492.678 44.2955 493.244 44.2955C493.645 44.2955 494.001 44.3274 494.312 44.3913C494.623 44.4553 494.853 44.5128 495.002 44.5639L494.542 46.3537C494.444 46.3239 494.32 46.294 494.171 46.2642C494.022 46.2301 493.856 46.2131 493.673 46.2131C493.242 46.2131 492.938 46.3175 492.759 46.5263C492.584 46.7308 492.496 47.0249 492.496 47.4084V58H490.176ZM500.319 58.1918C499.334 58.1918 498.484 57.9872 497.768 57.5781C497.057 57.1648 496.509 56.581 496.126 55.8267C495.742 55.0682 495.55 54.1754 495.55 53.1484C495.55 52.1385 495.742 51.2521 496.126 50.4893C496.513 49.7223 497.055 49.1257 497.749 48.6996C498.444 48.2692 499.26 48.054 500.197 48.054C500.802 48.054 501.373 48.152 501.91 48.348C502.452 48.5398 502.929 48.8381 503.342 49.2429C503.76 49.6477 504.088 50.1634 504.327 50.7898C504.565 51.4119 504.684 52.1534 504.684 53.0142V53.7237H496.637V52.1641H502.466C502.462 51.7209 502.366 51.3267 502.179 50.9815C501.991 50.6321 501.729 50.3572 501.393 50.157C501.06 49.9567 500.672 49.8565 500.229 49.8565C499.756 49.8565 499.341 49.9716 498.983 50.2017C498.625 50.4276 498.346 50.7259 498.145 51.0966C497.949 51.4631 497.849 51.8658 497.845 52.3047V53.6662C497.845 54.2372 497.949 54.7273 498.158 55.1364C498.367 55.5412 498.659 55.8523 499.034 56.0696C499.409 56.2827 499.848 56.3892 500.351 56.3892C500.687 56.3892 500.992 56.3423 501.265 56.2486C501.537 56.1506 501.774 56.0078 501.974 55.8203C502.175 55.6328 502.326 55.4006 502.428 55.1236L504.589 55.3665C504.452 55.9375 504.192 56.4361 503.809 56.8622C503.43 57.2841 502.944 57.6122 502.351 57.8466C501.759 58.0767 501.081 58.1918 500.319 58.1918ZM506.642 58V48.1818H508.886V49.8182H508.988C509.167 49.2514 509.474 48.8146 509.908 48.5078C510.347 48.1967 510.848 48.0412 511.411 48.0412C511.538 48.0412 511.681 48.0476 511.839 48.0604C512.001 48.0689 512.135 48.0838 512.241 48.1051V50.2337C512.143 50.1996 511.988 50.1697 511.775 50.1442C511.566 50.1143 511.364 50.0994 511.168 50.0994C510.746 50.0994 510.366 50.1911 510.03 50.3743C509.697 50.5533 509.435 50.8026 509.244 51.1222C509.052 51.4418 508.956 51.8104 508.956 52.228V58H506.642ZM515.99 54.152V53.9858C515.995 53.2145 516.067 52.6009 516.208 52.1449C516.353 51.6889 516.557 51.3224 516.821 51.0455C517.086 50.7642 517.407 50.5064 517.787 50.272C518.047 50.1101 518.279 49.9332 518.483 49.7415C518.692 49.5455 518.856 49.3281 518.975 49.0895C519.095 48.8466 519.154 48.576 519.154 48.2777C519.154 47.9411 519.076 47.6491 518.918 47.402C518.76 47.1548 518.547 46.9631 518.279 46.8267C518.015 46.6903 517.718 46.6222 517.39 46.6222C517.088 46.6222 516.8 46.6882 516.527 46.8203C516.259 46.9482 516.035 47.1442 515.856 47.4084C515.681 47.6683 515.583 47.9986 515.562 48.3991H513.287C513.308 47.5895 513.504 46.9119 513.875 46.3665C514.25 45.821 514.744 45.4119 515.358 45.1392C515.975 44.8665 516.657 44.7301 517.403 44.7301C518.217 44.7301 518.933 44.8729 519.551 45.1584C520.173 45.4439 520.657 45.8509 521.002 46.3793C521.351 46.9034 521.526 47.5256 521.526 48.2457C521.526 48.7315 521.447 49.1662 521.289 49.5497C521.136 49.9332 520.917 50.2741 520.631 50.5724C520.346 50.8707 520.007 51.1371 519.615 51.3714C519.27 51.5845 518.986 51.8061 518.765 52.0362C518.547 52.2663 518.385 52.5369 518.279 52.848C518.176 53.1548 518.123 53.5341 518.119 53.9858V54.152H515.99ZM517.103 58.1406C516.719 58.1406 516.389 58.0043 516.112 57.7315C515.835 57.4588 515.696 57.1264 515.696 56.7344C515.696 56.3509 515.835 56.0227 516.112 55.75C516.389 55.4773 516.719 55.3409 517.103 55.3409C517.482 55.3409 517.81 55.4773 518.087 55.75C518.368 56.0227 518.509 56.3509 518.509 56.7344C518.509 56.9943 518.443 57.2308 518.311 57.4439C518.183 57.657 518.012 57.8274 517.799 57.9553C517.591 58.0788 517.358 58.1406 517.103 58.1406Z" fill="#1B1139"/>
<rect opacity="0.8" x="56.0078" y="47.5" width="18" height="3" rx="1.5" fill="#1B1139"/>
<rect opacity="0.8" x="66.5078" y="40" width="18" height="3" rx="1.5" transform="rotate(90 66.5078 40)" fill="#1B1139"/>
<defs>
<filter id="filter0_d_125_1137" x="-7.53403e-05" y="0" width="594.016" height="142.564" filterUnits="userSpaceOnUse" color-interpolation-filters="sRGB">
<feFlood flood-opacity="0" result="BackgroundImageFix"/>
<feColorMatrix in="SourceAlpha" type="matrix" values="0 0 0 0 0 0 0 0 0 0 0 0 0 0 0 0 0 0 127 0" result="hardAlpha"/>
<feMorphology radius="14.7337" operator="erode" in="SourceAlpha" result="effect1_dropShadow_125_1137"/>
<feOffset dy="24.5562"/>
<feGaussianBlur stdDeviation="16.3708"/>
<feColorMatrix type="matrix" values="0 0 0 0 0.583333 0 0 0 0 0.583333 0 0 0 0 0.583333 0 0 0 0.25 0"/>
<feBlend mode="normal" in2="BackgroundImageFix" result="effect1_dropShadow_125_1137"/>
<feBlend mode="normal" in="SourceGraphic" in2="effect1_dropShadow_125_1137" result="shape"/>
</filter>
</defs>
</svg>
