<svg width="595" height="143" viewBox="0 0 595 143" fill="none" xmlns="http://www.w3.org/2000/svg">
<g filter="url(#filter0_d_125_1144)">
<rect x="18.0078" width="558" height="100" rx="4.91124" fill="white"/>
</g>
<path opacity="0.88" d="M100.504 49.326H98.1136C98.0455 48.9339 97.9197 48.5866 97.7365 48.2841C97.5533 47.9773 97.3253 47.7173 97.0526 47.5043C96.7798 47.2912 96.4688 47.1314 96.1193 47.0249C95.7741 46.9141 95.4013 46.8587 95.0007 46.8587C94.2891 46.8587 93.6584 47.0376 93.1087 47.3956C92.5589 47.7493 92.1286 48.2692 91.8175 48.9553C91.5064 49.6371 91.3509 50.4702 91.3509 51.4545C91.3509 52.456 91.5064 53.2997 91.8175 53.9858C92.1328 54.6676 92.5632 55.1832 93.1087 55.5327C93.6584 55.8778 94.2869 56.0504 94.9943 56.0504C95.3864 56.0504 95.7528 55.9993 96.0938 55.897C96.4389 55.7905 96.7479 55.6349 97.0206 55.4304C97.2976 55.2259 97.5298 54.9744 97.7173 54.6761C97.9091 54.3778 98.0412 54.0369 98.1136 53.6534L100.504 53.6662C100.415 54.2884 100.221 54.8722 99.9226 55.4176C99.6286 55.9631 99.2429 56.4446 98.7656 56.8622C98.2884 57.2756 97.7301 57.5994 97.0909 57.8338C96.4517 58.0639 95.7422 58.179 94.9624 58.179C93.8118 58.179 92.7848 57.9126 91.8814 57.38C90.978 56.8473 90.2663 56.0781 89.7464 55.0724C89.2266 54.0668 88.9666 52.8608 88.9666 51.4545C88.9666 50.044 89.2287 48.8381 89.7528 47.8366C90.277 46.831 90.9908 46.0618 91.8942 45.5291C92.7976 44.9964 93.8203 44.7301 94.9624 44.7301C95.6911 44.7301 96.3686 44.8324 96.995 45.0369C97.6214 45.2415 98.1797 45.5419 98.6697 45.9382C99.1598 46.3303 99.5625 46.8118 99.8778 47.3828C100.197 47.9496 100.406 48.5973 100.504 49.326ZM105.399 58.1982C104.777 58.1982 104.216 58.0874 103.718 57.8658C103.224 57.6399 102.831 57.3075 102.542 56.8686C102.256 56.4297 102.113 55.8885 102.113 55.245C102.113 54.6911 102.216 54.233 102.42 53.8707C102.625 53.5085 102.904 53.2188 103.258 53.0014C103.611 52.7841 104.01 52.62 104.453 52.5092C104.9 52.3942 105.363 52.3111 105.84 52.2599C106.415 52.2003 106.882 52.147 107.24 52.1001C107.598 52.049 107.858 51.9723 108.02 51.87C108.186 51.7635 108.269 51.5994 108.269 51.3778V51.3395C108.269 50.858 108.126 50.4851 107.841 50.2209C107.555 49.9567 107.144 49.8246 106.607 49.8246C106.04 49.8246 105.591 49.9482 105.258 50.1953C104.93 50.4425 104.709 50.7344 104.594 51.071L102.433 50.7642C102.604 50.1676 102.885 49.669 103.277 49.2685C103.669 48.8636 104.148 48.5611 104.715 48.3608C105.282 48.1562 105.908 48.054 106.594 48.054C107.067 48.054 107.538 48.1094 108.007 48.2202C108.476 48.331 108.904 48.5142 109.292 48.7699C109.68 49.0213 109.991 49.3643 110.225 49.799C110.464 50.2337 110.583 50.777 110.583 51.429V58H108.358V56.6513H108.282C108.141 56.924 107.943 57.1797 107.687 57.4183C107.436 57.6527 107.118 57.8423 106.735 57.9872C106.356 58.1278 105.91 58.1982 105.399 58.1982ZM106 56.4979C106.464 56.4979 106.867 56.4062 107.208 56.223C107.549 56.0355 107.811 55.7884 107.994 55.4815C108.182 55.1747 108.275 54.8402 108.275 54.478V53.321C108.203 53.3807 108.079 53.4361 107.905 53.4872C107.734 53.5384 107.542 53.5831 107.329 53.6214C107.116 53.6598 106.905 53.6939 106.697 53.7237C106.488 53.7536 106.307 53.7791 106.153 53.8004C105.808 53.8473 105.499 53.924 105.226 54.0305C104.954 54.1371 104.738 54.2862 104.581 54.478C104.423 54.6655 104.344 54.9084 104.344 55.2067C104.344 55.6328 104.5 55.9545 104.811 56.1719C105.122 56.3892 105.518 56.4979 106 56.4979ZM115.224 52.2472V58H112.91V48.1818H115.121V49.8501H115.236C115.462 49.3004 115.822 48.8636 116.317 48.5398C116.815 48.2159 117.431 48.054 118.164 48.054C118.841 48.054 119.432 48.1989 119.934 48.4886C120.442 48.7784 120.834 49.1982 121.111 49.7479C121.392 50.2976 121.53 50.9645 121.526 51.7486V58H119.212V52.1065C119.212 51.4503 119.042 50.9368 118.701 50.5661C118.364 50.1953 117.898 50.0099 117.301 50.0099C116.896 50.0099 116.536 50.0994 116.221 50.2784C115.91 50.4531 115.665 50.7067 115.486 51.0391C115.311 51.3714 115.224 51.7741 115.224 52.2472ZM128.203 58V56.5234L134.914 46.897H128.164V44.9091H137.855V46.3857L131.149 56.0121H137.893V58H128.203ZM140.188 58V44.9091H148.574V46.897H142.559V50.451H147.999V52.4389H142.559V58H140.188ZM166.405 49.326H164.014C163.946 48.9339 163.82 48.5866 163.637 48.2841C163.454 47.9773 163.226 47.7173 162.953 47.5043C162.68 47.2912 162.369 47.1314 162.02 47.0249C161.675 46.9141 161.302 46.8587 160.901 46.8587C160.189 46.8587 159.559 47.0376 159.009 47.3956C158.459 47.7493 158.029 48.2692 157.718 48.9553C157.407 49.6371 157.251 50.4702 157.251 51.4545C157.251 52.456 157.407 53.2997 157.718 53.9858C158.033 54.6676 158.464 55.1832 159.009 55.5327C159.559 55.8778 160.187 56.0504 160.895 56.0504C161.287 56.0504 161.653 55.9993 161.994 55.897C162.339 55.7905 162.648 55.6349 162.921 55.4304C163.198 55.2259 163.43 54.9744 163.618 54.6761C163.809 54.3778 163.942 54.0369 164.014 53.6534L166.405 53.6662C166.315 54.2884 166.121 54.8722 165.823 55.4176C165.529 55.9631 165.143 56.4446 164.666 56.8622C164.189 57.2756 163.631 57.5994 162.991 57.8338C162.352 58.0639 161.643 58.179 160.863 58.179C159.712 58.179 158.685 57.9126 157.782 57.38C156.878 56.8473 156.167 56.0781 155.647 55.0724C155.127 54.0668 154.867 52.8608 154.867 51.4545C154.867 50.044 155.129 48.8381 155.653 47.8366C156.177 46.831 156.891 46.0618 157.795 45.5291C158.698 44.9964 159.721 44.7301 160.863 44.7301C161.591 44.7301 162.269 44.8324 162.895 45.0369C163.522 45.2415 164.08 45.5419 164.57 45.9382C165.06 46.3303 165.463 46.8118 165.778 47.3828C166.098 47.9496 166.307 48.5973 166.405 49.326ZM171.299 58.1982C170.677 58.1982 170.117 58.0874 169.618 57.8658C169.124 57.6399 168.732 57.3075 168.442 56.8686C168.157 56.4297 168.014 55.8885 168.014 55.245C168.014 54.6911 168.116 54.233 168.321 53.8707C168.525 53.5085 168.804 53.2188 169.158 53.0014C169.512 52.7841 169.91 52.62 170.353 52.5092C170.801 52.3942 171.263 52.3111 171.74 52.2599C172.316 52.2003 172.782 52.147 173.14 52.1001C173.498 52.049 173.758 51.9723 173.92 51.87C174.086 51.7635 174.169 51.5994 174.169 51.3778V51.3395C174.169 50.858 174.027 50.4851 173.741 50.2209C173.456 49.9567 173.044 49.8246 172.507 49.8246C171.941 49.8246 171.491 49.9482 171.159 50.1953C170.831 50.4425 170.609 50.7344 170.494 51.071L168.333 50.7642C168.504 50.1676 168.785 49.669 169.177 49.2685C169.569 48.8636 170.049 48.5611 170.615 48.3608C171.182 48.1562 171.809 48.054 172.495 48.054C172.968 48.054 173.439 48.1094 173.907 48.2202C174.376 48.331 174.804 48.5142 175.192 48.7699C175.58 49.0213 175.891 49.3643 176.125 49.799C176.364 50.2337 176.483 50.777 176.483 51.429V58H174.259V56.6513H174.182C174.042 56.924 173.843 57.1797 173.588 57.4183C173.336 57.6527 173.019 57.8423 172.635 57.9872C172.256 58.1278 171.811 58.1982 171.299 58.1982ZM171.9 56.4979C172.365 56.4979 172.767 56.4062 173.108 56.223C173.449 56.0355 173.711 55.7884 173.895 55.4815C174.082 55.1747 174.176 54.8402 174.176 54.478V53.321C174.103 53.3807 173.98 53.4361 173.805 53.4872C173.635 53.5384 173.443 53.5831 173.23 53.6214C173.017 53.6598 172.806 53.6939 172.597 53.7237C172.388 53.7536 172.207 53.7791 172.054 53.8004C171.708 53.8473 171.4 53.924 171.127 54.0305C170.854 54.1371 170.639 54.2862 170.481 54.478C170.324 54.6655 170.245 54.9084 170.245 55.2067C170.245 55.6328 170.4 55.9545 170.711 56.1719C171.022 56.3892 171.419 56.4979 171.9 56.4979ZM181.124 52.2472V58H178.81V48.1818H181.022V49.8501H181.137C181.363 49.3004 181.723 48.8636 182.217 48.5398C182.716 48.2159 183.331 48.054 184.064 48.054C184.742 48.054 185.332 48.1989 185.835 48.4886C186.342 48.7784 186.734 49.1982 187.011 49.7479C187.292 50.2976 187.431 50.9645 187.426 51.7486V58H185.113V52.1065C185.113 51.4503 184.942 50.9368 184.601 50.5661C184.265 50.1953 183.798 50.0099 183.201 50.0099C182.797 50.0099 182.436 50.0994 182.121 50.2784C181.81 50.4531 181.565 50.7067 181.386 51.0391C181.211 51.3714 181.124 51.7741 181.124 52.2472ZM192.604 58.1982C191.982 58.1982 191.422 58.0874 190.923 57.8658C190.429 57.6399 190.037 57.3075 189.747 56.8686C189.461 56.4297 189.319 55.8885 189.319 55.245C189.319 54.6911 189.421 54.233 189.625 53.8707C189.83 53.5085 190.109 53.2188 190.463 53.0014C190.816 52.7841 191.215 52.62 191.658 52.5092C192.105 52.3942 192.568 52.3111 193.045 52.2599C193.62 52.2003 194.087 52.147 194.445 52.1001C194.803 52.049 195.063 51.9723 195.225 51.87C195.391 51.7635 195.474 51.5994 195.474 51.3778V51.3395C195.474 50.858 195.331 50.4851 195.046 50.2209C194.76 49.9567 194.349 49.8246 193.812 49.8246C193.245 49.8246 192.796 49.9482 192.463 50.1953C192.135 50.4425 191.914 50.7344 191.799 51.071L189.638 50.7642C189.809 50.1676 190.09 49.669 190.482 49.2685C190.874 48.8636 191.353 48.5611 191.92 48.3608C192.487 48.1562 193.113 48.054 193.799 48.054C194.272 48.054 194.743 48.1094 195.212 48.2202C195.681 48.331 196.109 48.5142 196.497 48.7699C196.885 49.0213 197.196 49.3643 197.43 49.799C197.669 50.2337 197.788 50.777 197.788 51.429V58H195.564V56.6513H195.487C195.346 56.924 195.148 57.1797 194.892 57.4183C194.641 57.6527 194.324 57.8423 193.94 57.9872C193.561 58.1278 193.115 58.1982 192.604 58.1982ZM193.205 56.4979C193.669 56.4979 194.072 56.4062 194.413 56.223C194.754 56.0355 195.016 55.7884 195.199 55.4815C195.387 55.1747 195.48 54.8402 195.48 54.478V53.321C195.408 53.3807 195.284 53.4361 195.11 53.4872C194.939 53.5384 194.748 53.5831 194.534 53.6214C194.321 53.6598 194.11 53.6939 193.902 53.7237C193.693 53.7536 193.512 53.7791 193.358 53.8004C193.013 53.8473 192.704 53.924 192.431 54.0305C192.159 54.1371 191.944 54.2862 191.786 54.478C191.628 54.6655 191.549 54.9084 191.549 55.2067C191.549 55.6328 191.705 55.9545 192.016 56.1719C192.327 56.3892 192.723 56.4979 193.205 56.4979ZM203.758 58.1726C202.987 58.1726 202.297 57.9744 201.687 57.5781C201.078 57.1818 200.596 56.6065 200.243 55.8523C199.889 55.098 199.712 54.1818 199.712 53.1037C199.712 52.0128 199.891 51.0923 200.249 50.3423C200.611 49.5881 201.099 49.0192 201.713 48.6357C202.326 48.2479 203.01 48.054 203.765 48.054C204.34 48.054 204.813 48.152 205.184 48.348C205.554 48.5398 205.848 48.772 206.066 49.0447C206.283 49.3132 206.451 49.5668 206.571 49.8054H206.667V44.9091H208.987V58H206.711V56.4531H206.571C206.451 56.6918 206.279 56.9453 206.053 57.2138C205.827 57.478 205.529 57.7038 205.158 57.8913C204.787 58.0788 204.321 58.1726 203.758 58.1726ZM204.404 56.2741C204.894 56.2741 205.311 56.142 205.657 55.8778C206.002 55.6094 206.264 55.2365 206.443 54.7592C206.622 54.282 206.711 53.7259 206.711 53.0909C206.711 52.456 206.622 51.9041 206.443 51.4354C206.268 50.9666 206.008 50.6023 205.663 50.3423C205.322 50.0824 204.902 49.9524 204.404 49.9524C203.888 49.9524 203.458 50.0866 203.113 50.3551C202.767 50.6236 202.507 50.9943 202.333 51.4673C202.158 51.9403 202.071 52.4815 202.071 53.0909C202.071 53.7045 202.158 54.2521 202.333 54.7337C202.512 55.2109 202.774 55.5881 203.119 55.8651C203.468 56.1378 203.897 56.2741 204.404 56.2741ZM214.278 58.1982C213.656 58.1982 213.095 58.0874 212.597 57.8658C212.102 57.6399 211.71 57.3075 211.421 56.8686C211.135 56.4297 210.992 55.8885 210.992 55.245C210.992 54.6911 211.095 54.233 211.299 53.8707C211.504 53.5085 211.783 53.2188 212.137 53.0014C212.49 52.7841 212.889 52.62 213.332 52.5092C213.779 52.3942 214.242 52.3111 214.719 52.2599C215.294 52.2003 215.761 52.147 216.119 52.1001C216.477 52.049 216.737 51.9723 216.899 51.87C217.065 51.7635 217.148 51.5994 217.148 51.3778V51.3395C217.148 50.858 217.005 50.4851 216.72 50.2209C216.434 49.9567 216.023 49.8246 215.486 49.8246C214.919 49.8246 214.47 49.9482 214.137 50.1953C213.809 50.4425 213.588 50.7344 213.472 51.071L211.312 50.7642C211.482 50.1676 211.764 49.669 212.156 49.2685C212.548 48.8636 213.027 48.5611 213.594 48.3608C214.161 48.1562 214.787 48.054 215.473 48.054C215.946 48.054 216.417 48.1094 216.886 48.2202C217.355 48.331 217.783 48.5142 218.171 48.7699C218.558 49.0213 218.869 49.3643 219.104 49.799C219.343 50.2337 219.462 50.777 219.462 51.429V58H217.237V56.6513H217.161C217.02 56.924 216.822 57.1797 216.566 57.4183C216.315 57.6527 215.997 57.8423 215.614 57.9872C215.235 58.1278 214.789 58.1982 214.278 58.1982ZM214.879 56.4979C215.343 56.4979 215.746 56.4062 216.087 56.223C216.428 56.0355 216.69 55.7884 216.873 55.4815C217.061 55.1747 217.154 54.8402 217.154 54.478V53.321C217.082 53.3807 216.958 53.4361 216.784 53.4872C216.613 53.5384 216.421 53.5831 216.208 53.6214C215.995 53.6598 215.784 53.6939 215.575 53.7237C215.367 53.7536 215.186 53.7791 215.032 53.8004C214.687 53.8473 214.378 53.924 214.105 54.0305C213.833 54.1371 213.617 54.2862 213.46 54.478C213.302 54.6655 213.223 54.9084 213.223 55.2067C213.223 55.6328 213.379 55.9545 213.69 56.1719C214.001 56.3892 214.397 56.4979 214.879 56.4979ZM228.567 52.2472V58H226.253V44.9091H228.516V49.8501H228.631C228.861 49.2962 229.217 48.8594 229.699 48.5398C230.184 48.2159 230.802 48.054 231.552 48.054C232.234 48.054 232.829 48.1967 233.336 48.4822C233.843 48.7678 234.235 49.1854 234.512 49.7351C234.793 50.2848 234.934 50.956 234.934 51.7486V58H232.62V52.1065C232.62 51.446 232.449 50.9325 232.108 50.5661C231.772 50.1953 231.299 50.0099 230.689 50.0099C230.28 50.0099 229.914 50.0994 229.59 50.2784C229.27 50.4531 229.019 50.7067 228.836 51.0391C228.657 51.3714 228.567 51.7741 228.567 52.2472ZM241.639 58.1918C240.655 58.1918 239.805 57.9872 239.089 57.5781C238.377 57.1648 237.829 56.581 237.446 55.8267C237.062 55.0682 236.871 54.1754 236.871 53.1484C236.871 52.1385 237.062 51.2521 237.446 50.4893C237.834 49.7223 238.375 49.1257 239.069 48.6996C239.764 48.2692 240.58 48.054 241.518 48.054C242.123 48.054 242.694 48.152 243.231 48.348C243.772 48.5398 244.249 48.8381 244.662 49.2429C245.08 49.6477 245.408 50.1634 245.647 50.7898C245.885 51.4119 246.005 52.1534 246.005 53.0142V53.7237H237.957V52.1641H243.787C243.782 51.7209 243.687 51.3267 243.499 50.9815C243.312 50.6321 243.05 50.3572 242.713 50.157C242.381 49.9567 241.993 49.8565 241.55 49.8565C241.077 49.8565 240.661 49.9716 240.303 50.2017C239.945 50.4276 239.666 50.7259 239.466 51.0966C239.27 51.4631 239.17 51.8658 239.165 52.3047V53.6662C239.165 54.2372 239.27 54.7273 239.479 55.1364C239.687 55.5412 239.979 55.8523 240.354 56.0696C240.729 56.2827 241.168 56.3892 241.671 56.3892C242.008 56.3892 242.312 56.3423 242.585 56.2486C242.858 56.1506 243.094 56.0078 243.295 55.8203C243.495 55.6328 243.646 55.4006 243.748 55.1236L245.909 55.3665C245.773 55.9375 245.513 56.4361 245.129 56.8622C244.75 57.2841 244.264 57.6122 243.672 57.8466C243.079 58.0767 242.402 58.1918 241.639 58.1918ZM250.276 44.9091V58H247.962V44.9091H250.276ZM252.656 61.6818V48.1818H254.931V49.8054H255.066C255.185 49.5668 255.353 49.3132 255.57 49.0447C255.788 48.772 256.082 48.5398 256.453 48.348C256.823 48.152 257.296 48.054 257.872 48.054C258.63 48.054 259.314 48.2479 259.923 48.6357C260.537 49.0192 261.023 49.5881 261.381 50.3423C261.743 51.0923 261.924 52.0128 261.924 53.1037C261.924 54.1818 261.747 55.098 261.394 55.8523C261.04 56.6065 260.558 57.1818 259.949 57.5781C259.34 57.9744 258.649 58.1726 257.878 58.1726C257.316 58.1726 256.849 58.0788 256.478 57.8913C256.107 57.7038 255.809 57.478 255.583 57.2138C255.362 56.9453 255.189 56.6918 255.066 56.4531H254.97V61.6818H252.656ZM254.925 53.0909C254.925 53.7259 255.014 54.282 255.193 54.7592C255.377 55.2365 255.639 55.6094 255.98 55.8778C256.325 56.142 256.742 56.2741 257.232 56.2741C257.744 56.2741 258.172 56.1378 258.517 55.8651C258.862 55.5881 259.122 55.2109 259.297 54.7337C259.476 54.2521 259.566 53.7045 259.566 53.0909C259.566 52.4815 259.478 51.9403 259.303 51.4673C259.129 50.9943 258.869 50.6236 258.524 50.3551C258.178 50.0866 257.748 49.9524 257.232 49.9524C256.738 49.9524 256.318 50.0824 255.973 50.3423C255.628 50.6023 255.366 50.9666 255.187 51.4354C255.012 51.9041 254.925 52.456 254.925 53.0909ZM270.397 58L267.623 48.1818H269.981L271.707 55.0852H271.797L273.561 48.1818H275.894L277.658 55.0469H277.754L279.454 48.1818H281.819L279.039 58H276.629L274.788 51.3651H274.654L272.813 58H270.397ZM283.435 58V48.1818H285.749V58H283.435ZM284.598 46.7884C284.232 46.7884 283.917 46.6669 283.652 46.424C283.388 46.1768 283.256 45.8807 283.256 45.5355C283.256 45.1861 283.388 44.8899 283.652 44.647C283.917 44.3999 284.232 44.2763 284.598 44.2763C284.969 44.2763 285.284 44.3999 285.544 44.647C285.809 44.8899 285.941 45.1861 285.941 45.5355C285.941 45.8807 285.809 46.1768 285.544 46.424C285.284 46.6669 284.969 46.7884 284.598 46.7884ZM293.031 48.1818V49.9716H287.387V48.1818H293.031ZM288.78 45.8295H291.094V55.0469C291.094 55.358 291.141 55.5966 291.235 55.7628C291.333 55.9247 291.461 56.0355 291.618 56.0952C291.776 56.1548 291.951 56.1847 292.143 56.1847C292.287 56.1847 292.42 56.174 292.539 56.1527C292.662 56.1314 292.756 56.1122 292.82 56.0952L293.21 57.9041C293.086 57.9467 292.91 57.9936 292.68 58.0447C292.454 58.0959 292.177 58.1257 291.849 58.1342C291.269 58.1513 290.747 58.0639 290.282 57.8722C289.818 57.6761 289.449 57.3736 289.177 56.9645C288.908 56.5554 288.776 56.044 288.78 55.4304V45.8295ZM297.491 52.2472V58H295.177V44.9091H297.44V49.8501H297.555C297.785 49.2962 298.141 48.8594 298.623 48.5398C299.108 48.2159 299.726 48.054 300.476 48.054C301.158 48.054 301.752 48.1967 302.26 48.4822C302.767 48.7678 303.159 49.1854 303.436 49.7351C303.717 50.2848 303.858 50.956 303.858 51.7486V58H301.544V52.1065C301.544 51.446 301.373 50.9325 301.032 50.5661C300.696 50.1953 300.223 50.0099 299.613 50.0099C299.204 50.0099 298.838 50.0994 298.514 50.2784C298.194 50.4531 297.943 50.7067 297.76 51.0391C297.581 51.3714 297.491 51.7741 297.491 52.2472ZM319.451 48.1818L315.955 58H313.398L309.901 48.1818H312.369L314.625 55.4751H314.727L316.99 48.1818H319.451ZM321.052 58V48.1818H323.366V58H321.052ZM322.216 46.7884C321.849 46.7884 321.534 46.6669 321.27 46.424C321.005 46.1768 320.873 45.8807 320.873 45.5355C320.873 45.1861 321.005 44.8899 321.27 44.647C321.534 44.3999 321.849 44.2763 322.216 44.2763C322.586 44.2763 322.902 44.3999 323.162 44.647C323.426 44.8899 323.558 45.1861 323.558 45.5355C323.558 45.8807 323.426 46.1768 323.162 46.424C322.902 46.6669 322.586 46.7884 322.216 46.7884ZM333.506 50.777L331.396 51.0071C331.336 50.794 331.232 50.5938 331.083 50.4062C330.938 50.2188 330.742 50.0675 330.495 49.9524C330.248 49.8374 329.945 49.7798 329.587 49.7798C329.106 49.7798 328.701 49.8842 328.373 50.093C328.049 50.3018 327.889 50.5724 327.893 50.9048C327.889 51.1903 327.993 51.4226 328.206 51.6016C328.424 51.7805 328.782 51.9276 329.28 52.0426L330.955 52.4006C331.884 52.6009 332.574 52.9183 333.026 53.353C333.482 53.7876 333.712 54.3565 333.716 55.0597C333.712 55.6776 333.531 56.223 333.173 56.696C332.819 57.1648 332.327 57.5312 331.697 57.7955C331.066 58.0597 330.341 58.1918 329.523 58.1918C328.322 58.1918 327.354 57.9403 326.621 57.4375C325.888 56.9304 325.452 56.2251 325.311 55.3217L327.567 55.1044C327.67 55.5476 327.887 55.8821 328.219 56.108C328.552 56.3338 328.984 56.4467 329.517 56.4467C330.067 56.4467 330.508 56.3338 330.84 56.108C331.177 55.8821 331.345 55.603 331.345 55.2706C331.345 54.9893 331.236 54.7571 331.019 54.5739C330.806 54.3906 330.474 54.25 330.022 54.152L328.347 53.8004C327.405 53.6044 326.709 53.2741 326.257 52.8097C325.805 52.3409 325.581 51.7486 325.586 51.0327C325.581 50.4276 325.746 49.9034 326.078 49.4602C326.415 49.0128 326.881 48.6676 327.478 48.4247C328.079 48.1776 328.771 48.054 329.555 48.054C330.706 48.054 331.611 48.299 332.272 48.7891C332.937 49.2791 333.348 49.9418 333.506 50.777ZM338.45 58.1982C337.828 58.1982 337.267 58.0874 336.769 57.8658C336.274 57.6399 335.882 57.3075 335.593 56.8686C335.307 56.4297 335.164 55.8885 335.164 55.245C335.164 54.6911 335.267 54.233 335.471 53.8707C335.676 53.5085 335.955 53.2188 336.308 53.0014C336.662 52.7841 337.061 52.62 337.504 52.5092C337.951 52.3942 338.414 52.3111 338.891 52.2599C339.466 52.2003 339.933 52.147 340.291 52.1001C340.649 52.049 340.909 51.9723 341.07 51.87C341.237 51.7635 341.32 51.5994 341.32 51.3778V51.3395C341.32 50.858 341.177 50.4851 340.892 50.2209C340.606 49.9567 340.195 49.8246 339.658 49.8246C339.091 49.8246 338.642 49.9482 338.309 50.1953C337.981 50.4425 337.759 50.7344 337.644 51.071L335.484 50.7642C335.654 50.1676 335.936 49.669 336.328 49.2685C336.72 48.8636 337.199 48.5611 337.766 48.3608C338.333 48.1562 338.959 48.054 339.645 48.054C340.118 48.054 340.589 48.1094 341.058 48.2202C341.526 48.331 341.955 48.5142 342.343 48.7699C342.73 49.0213 343.041 49.3643 343.276 49.799C343.514 50.2337 343.634 50.777 343.634 51.429V58H341.409V56.6513H341.333C341.192 56.924 340.994 57.1797 340.738 57.4183C340.487 57.6527 340.169 57.8423 339.786 57.9872C339.406 58.1278 338.961 58.1982 338.45 58.1982ZM339.051 56.4979C339.515 56.4979 339.918 56.4062 340.259 56.223C340.6 56.0355 340.862 55.7884 341.045 55.4815C341.232 55.1747 341.326 54.8402 341.326 54.478V53.321C341.254 53.3807 341.13 53.4361 340.955 53.4872C340.785 53.5384 340.593 53.5831 340.38 53.6214C340.167 53.6598 339.956 53.6939 339.747 53.7237C339.539 53.7536 339.357 53.7791 339.204 53.8004C338.859 53.8473 338.55 53.924 338.277 54.0305C338.004 54.1371 337.789 54.2862 337.632 54.478C337.474 54.6655 337.395 54.9084 337.395 55.2067C337.395 55.6328 337.551 55.9545 337.862 56.1719C338.173 56.3892 338.569 56.4979 339.051 56.4979ZM350.425 58V48.1818H352.669V49.8182H352.771C352.95 49.2514 353.257 48.8146 353.692 48.5078C354.131 48.1967 354.631 48.0412 355.194 48.0412C355.322 48.0412 355.464 48.0476 355.622 48.0604C355.784 48.0689 355.918 48.0838 356.025 48.1051V50.2337C355.927 50.1996 355.771 50.1697 355.558 50.1442C355.349 50.1143 355.147 50.0994 354.951 50.0994C354.529 50.0994 354.15 50.1911 353.813 50.3743C353.481 50.5533 353.219 50.8026 353.027 51.1222C352.835 51.4418 352.739 51.8104 352.739 52.228V58H350.425ZM361.504 58.1918C360.52 58.1918 359.67 57.9872 358.954 57.5781C358.242 57.1648 357.695 56.581 357.311 55.8267C356.928 55.0682 356.736 54.1754 356.736 53.1484C356.736 52.1385 356.928 51.2521 357.311 50.4893C357.699 49.7223 358.24 49.1257 358.935 48.6996C359.629 48.2692 360.445 48.054 361.383 48.054C361.988 48.054 362.559 48.152 363.096 48.348C363.637 48.5398 364.114 48.8381 364.528 49.2429C364.945 49.6477 365.273 50.1634 365.512 50.7898C365.751 51.4119 365.87 52.1534 365.87 53.0142V53.7237H357.822V52.1641H363.652C363.648 51.7209 363.552 51.3267 363.364 50.9815C363.177 50.6321 362.915 50.3572 362.578 50.157C362.246 49.9567 361.858 49.8565 361.415 49.8565C360.942 49.8565 360.526 49.9716 360.168 50.2017C359.81 50.4276 359.531 50.7259 359.331 51.0966C359.135 51.4631 359.035 51.8658 359.031 52.3047V53.6662C359.031 54.2372 359.135 54.7273 359.344 55.1364C359.553 55.5412 359.844 55.8523 360.219 56.0696C360.594 56.2827 361.033 56.3892 361.536 56.3892C361.873 56.3892 362.178 56.3423 362.45 56.2486C362.723 56.1506 362.96 56.0078 363.16 55.8203C363.36 55.6328 363.511 55.4006 363.614 55.1236L365.774 55.3665C365.638 55.9375 365.378 56.4361 364.994 56.8622C364.615 57.2841 364.129 57.6122 363.537 57.8466C362.945 58.0767 362.267 58.1918 361.504 58.1918ZM372.801 48.1818V49.9716H366.997V48.1818H372.801ZM368.448 58V47.255C368.448 46.5945 368.584 46.0447 368.857 45.6058C369.134 45.1669 369.504 44.8388 369.969 44.6214C370.433 44.4041 370.949 44.2955 371.516 44.2955C371.916 44.2955 372.272 44.3274 372.583 44.3913C372.894 44.4553 373.124 44.5128 373.274 44.5639L372.813 46.3537C372.715 46.3239 372.592 46.294 372.443 46.2642C372.294 46.2301 372.127 46.2131 371.944 46.2131C371.514 46.2131 371.209 46.3175 371.03 46.5263C370.855 46.7308 370.768 47.0249 370.768 47.4084V58H368.448ZM380.871 53.8707V48.1818H383.184V58H380.941V56.255H380.839C380.617 56.8047 380.253 57.2543 379.746 57.6037C379.243 57.9531 378.623 58.1278 377.885 58.1278C377.242 58.1278 376.673 57.9851 376.179 57.6996C375.689 57.4098 375.305 56.9901 375.028 56.4403C374.751 55.8864 374.613 55.2173 374.613 54.4332V48.1818H376.927V54.0753C376.927 54.6974 377.097 55.1918 377.438 55.5582C377.779 55.9247 378.226 56.108 378.78 56.108C379.121 56.108 379.452 56.0249 379.771 55.8587C380.091 55.6925 380.353 55.4453 380.557 55.1172C380.766 54.7848 380.871 54.3693 380.871 53.8707ZM393.324 50.777L391.214 51.0071C391.155 50.794 391.05 50.5938 390.901 50.4062C390.756 50.2188 390.56 50.0675 390.313 49.9524C390.066 49.8374 389.763 49.7798 389.406 49.7798C388.924 49.7798 388.519 49.8842 388.191 50.093C387.867 50.3018 387.707 50.5724 387.712 50.9048C387.707 51.1903 387.812 51.4226 388.025 51.6016C388.242 51.7805 388.6 51.9276 389.099 52.0426L390.773 52.4006C391.702 52.6009 392.393 52.9183 392.844 53.353C393.3 53.7876 393.531 54.3565 393.535 55.0597C393.531 55.6776 393.349 56.223 392.991 56.696C392.638 57.1648 392.146 57.5312 391.515 57.7955C390.884 58.0597 390.16 58.1918 389.342 58.1918C388.14 58.1918 387.173 57.9403 386.44 57.4375C385.707 56.9304 385.27 56.2251 385.129 55.3217L387.386 55.1044C387.488 55.5476 387.705 55.8821 388.038 56.108C388.37 56.3338 388.803 56.4467 389.335 56.4467C389.885 56.4467 390.326 56.3338 390.658 56.108C390.995 55.8821 391.163 55.603 391.163 55.2706C391.163 54.9893 391.055 54.7571 390.837 54.5739C390.624 54.3906 390.292 54.25 389.84 54.152L388.165 53.8004C387.224 53.6044 386.527 53.2741 386.075 52.8097C385.624 52.3409 385.4 51.7486 385.404 51.0327C385.4 50.4276 385.564 49.9034 385.896 49.4602C386.233 49.0128 386.7 48.6676 387.296 48.4247C387.897 48.1776 388.589 48.054 389.374 48.054C390.524 48.054 391.43 48.299 392.09 48.7891C392.755 49.2791 393.166 49.9418 393.324 50.777ZM398.268 58.1982C397.646 58.1982 397.086 58.0874 396.587 57.8658C396.093 57.6399 395.701 57.3075 395.411 56.8686C395.125 56.4297 394.983 55.8885 394.983 55.245C394.983 54.6911 395.085 54.233 395.289 53.8707C395.494 53.5085 395.773 53.2188 396.127 53.0014C396.48 52.7841 396.879 52.62 397.322 52.5092C397.77 52.3942 398.232 52.3111 398.709 52.2599C399.284 52.2003 399.751 52.147 400.109 52.1001C400.467 52.049 400.727 51.9723 400.889 51.87C401.055 51.7635 401.138 51.5994 401.138 51.3778V51.3395C401.138 50.858 400.995 50.4851 400.71 50.2209C400.424 49.9567 400.013 49.8246 399.476 49.8246C398.909 49.8246 398.46 49.9482 398.127 50.1953C397.799 50.4425 397.578 50.7344 397.463 51.071L395.302 50.7642C395.473 50.1676 395.754 49.669 396.146 49.2685C396.538 48.8636 397.017 48.5611 397.584 48.3608C398.151 48.1562 398.777 48.054 399.463 48.054C399.936 48.054 400.407 48.1094 400.876 48.2202C401.345 48.331 401.773 48.5142 402.161 48.7699C402.549 49.0213 402.86 49.3643 403.094 49.799C403.333 50.2337 403.452 50.777 403.452 51.429V58H401.228V56.6513H401.151C401.01 56.924 400.812 57.1797 400.556 57.4183C400.305 57.6527 399.988 57.8423 399.604 57.9872C399.225 58.1278 398.779 58.1982 398.268 58.1982ZM398.869 56.4979C399.333 56.4979 399.736 56.4062 400.077 56.223C400.418 56.0355 400.68 55.7884 400.863 55.4815C401.051 55.1747 401.145 54.8402 401.145 54.478V53.321C401.072 53.3807 400.949 53.4361 400.774 53.4872C400.603 53.5384 400.412 53.5831 400.199 53.6214C399.985 53.6598 399.775 53.6939 399.566 53.7237C399.357 53.7536 399.176 53.7791 399.022 53.8004C398.677 53.8473 398.368 53.924 398.096 54.0305C397.823 54.1371 397.608 54.2862 397.45 54.478C397.292 54.6655 397.213 54.9084 397.213 55.2067C397.213 55.6328 397.369 55.9545 397.68 56.1719C397.991 56.3892 398.387 56.4979 398.869 56.4979ZM408.093 44.9091V58H405.779V44.9091H408.093ZM418.232 50.777L416.123 51.0071C416.063 50.794 415.959 50.5938 415.809 50.4062C415.665 50.2188 415.469 50.0675 415.221 49.9524C414.974 49.8374 414.672 49.7798 414.314 49.7798C413.832 49.7798 413.427 49.8842 413.099 50.093C412.775 50.3018 412.616 50.5724 412.62 50.9048C412.616 51.1903 412.72 51.4226 412.933 51.6016C413.15 51.7805 413.508 51.9276 414.007 52.0426L415.682 52.4006C416.611 52.6009 417.301 52.9183 417.753 53.353C418.209 53.7876 418.439 54.3565 418.443 55.0597C418.439 55.6776 418.258 56.223 417.9 56.696C417.546 57.1648 417.054 57.5312 416.423 57.7955C415.792 58.0597 415.068 58.1918 414.25 58.1918C413.048 58.1918 412.081 57.9403 411.348 57.4375C410.615 56.9304 410.178 56.2251 410.037 55.3217L412.294 55.1044C412.396 55.5476 412.613 55.8821 412.946 56.108C413.278 56.3338 413.711 56.4467 414.243 56.4467C414.793 56.4467 415.234 56.3338 415.567 56.108C415.903 55.8821 416.072 55.603 416.072 55.2706C416.072 54.9893 415.963 54.7571 415.746 54.5739C415.532 54.3906 415.2 54.25 414.748 54.152L413.074 53.8004C412.132 53.6044 411.435 53.2741 410.983 52.8097C410.532 52.3409 410.308 51.7486 410.312 51.0327C410.308 50.4276 410.472 49.9034 410.805 49.4602C411.141 49.0128 411.608 48.6676 412.204 48.4247C412.805 48.1776 413.498 48.054 414.282 48.054C415.432 48.054 416.338 48.299 416.998 48.7891C417.663 49.2791 418.074 49.9418 418.232 50.777ZM422.563 54.152V53.9858C422.567 53.2145 422.639 52.6009 422.78 52.1449C422.925 51.6889 423.129 51.3224 423.394 51.0455C423.658 50.7642 423.98 50.5064 424.359 50.272C424.619 50.1101 424.851 49.9332 425.056 49.7415C425.264 49.5455 425.428 49.3281 425.548 49.0895C425.667 48.8466 425.727 48.576 425.727 48.2777C425.727 47.9411 425.648 47.6491 425.49 47.402C425.333 47.1548 425.119 46.9631 424.851 46.8267C424.587 46.6903 424.291 46.6222 423.963 46.6222C423.66 46.6222 423.372 46.6882 423.1 46.8203C422.831 46.9482 422.607 47.1442 422.428 47.4084C422.254 47.6683 422.156 47.9986 422.134 48.3991H419.859C419.88 47.5895 420.076 46.9119 420.447 46.3665C420.822 45.821 421.316 45.4119 421.93 45.1392C422.548 44.8665 423.23 44.7301 423.975 44.7301C424.789 44.7301 425.505 44.8729 426.123 45.1584C426.745 45.4439 427.229 45.8509 427.574 46.3793C427.923 46.9034 428.098 47.5256 428.098 48.2457C428.098 48.7315 428.019 49.1662 427.862 49.5497C427.708 49.9332 427.489 50.2741 427.203 50.5724C426.918 50.8707 426.579 51.1371 426.187 51.3714C425.842 51.5845 425.558 51.8061 425.337 52.0362C425.119 52.2663 424.958 52.5369 424.851 52.848C424.749 53.1548 424.695 53.5341 424.691 53.9858V54.152H422.563ZM423.675 58.1406C423.291 58.1406 422.961 58.0043 422.684 57.7315C422.407 57.4588 422.269 57.1264 422.269 56.7344C422.269 56.3509 422.407 56.0227 422.684 55.75C422.961 55.4773 423.291 55.3409 423.675 55.3409C424.054 55.3409 424.382 55.4773 424.659 55.75C424.941 56.0227 425.081 56.3509 425.081 56.7344C425.081 56.9943 425.015 57.2308 424.883 57.4439C424.755 57.657 424.585 57.8274 424.372 57.9553C424.163 58.0788 423.931 58.1406 423.675 58.1406Z" fill="#1B1139"/>
<rect opacity="0.8" x="56.0078" y="47.5" width="18" height="3" rx="1.5" fill="#1B1139"/>
<rect opacity="0.8" x="66.5078" y="40" width="18" height="3" rx="1.5" transform="rotate(90 66.5078 40)" fill="#1B1139"/>
<defs>
<filter id="filter0_d_125_1144" x="-7.53403e-05" y="0" width="594.016" height="142.564" filterUnits="userSpaceOnUse" color-interpolation-filters="sRGB">
<feFlood flood-opacity="0" result="BackgroundImageFix"/>
<feColorMatrix in="SourceAlpha" type="matrix" values="0 0 0 0 0 0 0 0 0 0 0 0 0 0 0 0 0 0 127 0" result="hardAlpha"/>
<feMorphology radius="14.7337" operator="erode" in="SourceAlpha" result="effect1_dropShadow_125_1144"/>
<feOffset dy="24.5562"/>
<feGaussianBlur stdDeviation="16.3708"/>
<feColorMatrix type="matrix" values="0 0 0 0 0.583333 0 0 0 0 0.583333 0 0 0 0 0.583333 0 0 0 0.25 0"/>
<feBlend mode="normal" in2="BackgroundImageFix" result="effect1_dropShadow_125_1144"/>
<feBlend mode="normal" in="SourceGraphic" in2="effect1_dropShadow_125_1144" result="shape"/>
</filter>
</defs>
</svg>
