<svg width="595" height="143" viewBox="0 0 595 143" fill="none" xmlns="http://www.w3.org/2000/svg">
<g filter="url(#filter0_d_125_1151)">
<rect x="18.0078" width="558" height="100" rx="4.91124" fill="white"/>
</g>
<path opacity="0.88" d="M93.7351 57H89.299V43.9091H93.8246C95.1243 43.9091 96.2408 44.1712 97.174 44.6953C98.1115 45.2152 98.8317 45.9631 99.3345 46.9389C99.8374 47.9148 100.089 49.0824 100.089 50.4418C100.089 51.8054 99.8352 52.9773 99.3281 53.9574C98.8253 54.9375 98.0987 55.6896 97.1484 56.2138C96.2024 56.7379 95.0646 57 93.7351 57ZM91.6705 54.9482H93.62C94.532 54.9482 95.2926 54.782 95.902 54.4496C96.5114 54.1129 96.9695 53.6122 97.2763 52.9474C97.5831 52.2784 97.7365 51.4432 97.7365 50.4418C97.7365 49.4403 97.5831 48.6094 97.2763 47.9489C96.9695 47.2841 96.5156 46.7876 95.9148 46.4595C95.3182 46.1271 94.5767 45.9609 93.6903 45.9609H91.6705V54.9482ZM106.522 57.1918C105.564 57.1918 104.733 56.9808 104.029 56.5589C103.326 56.1371 102.781 55.5469 102.393 54.7884C102.01 54.0298 101.818 53.1435 101.818 52.1293C101.818 51.1151 102.01 50.2266 102.393 49.4638C102.781 48.701 103.326 48.1087 104.029 47.6868C104.733 47.2649 105.564 47.054 106.522 47.054C107.481 47.054 108.312 47.2649 109.015 47.6868C109.718 48.1087 110.262 48.701 110.645 49.4638C111.033 50.2266 111.227 51.1151 111.227 52.1293C111.227 53.1435 111.033 54.0298 110.645 54.7884C110.262 55.5469 109.718 56.1371 109.015 56.5589C108.312 56.9808 107.481 57.1918 106.522 57.1918ZM106.535 55.3381C107.055 55.3381 107.49 55.1953 107.839 54.9098C108.189 54.62 108.449 54.2322 108.619 53.7464C108.794 53.2607 108.881 52.7195 108.881 52.1229C108.881 51.522 108.794 50.9787 108.619 50.4929C108.449 50.0028 108.189 49.6129 107.839 49.3232C107.49 49.0334 107.055 48.8885 106.535 48.8885C106.002 48.8885 105.559 49.0334 105.206 49.3232C104.856 49.6129 104.594 50.0028 104.419 50.4929C104.249 50.9787 104.164 51.522 104.164 52.1229C104.164 52.7195 104.249 53.2607 104.419 53.7464C104.594 54.2322 104.856 54.62 105.206 54.9098C105.559 55.1953 106.002 55.3381 106.535 55.3381ZM120.129 43.9091V57H117.758V43.9091H120.129ZM129.374 51.2472V57H127.06V47.1818H129.272V48.8501H129.387C129.613 48.3004 129.973 47.8636 130.467 47.5398C130.966 47.2159 131.581 47.054 132.314 47.054C132.992 47.054 133.582 47.1989 134.085 47.4886C134.592 47.7784 134.984 48.1982 135.261 48.7479C135.542 49.2976 135.681 49.9645 135.676 50.7486V57H133.363V51.1065C133.363 50.4503 133.192 49.9368 132.851 49.5661C132.515 49.1953 132.048 49.0099 131.451 49.0099C131.047 49.0099 130.686 49.0994 130.371 49.2784C130.06 49.4531 129.815 49.7067 129.636 50.0391C129.461 50.3714 129.374 50.7741 129.374 51.2472ZM142.375 57.1918C141.391 57.1918 140.541 56.9872 139.825 56.5781C139.113 56.1648 138.566 55.581 138.182 54.8267C137.799 54.0682 137.607 53.1754 137.607 52.1484C137.607 51.1385 137.799 50.2521 138.182 49.4893C138.57 48.7223 139.111 48.1257 139.806 47.6996C140.5 47.2692 141.316 47.054 142.254 47.054C142.859 47.054 143.43 47.152 143.967 47.348C144.508 47.5398 144.985 47.8381 145.399 48.2429C145.816 48.6477 146.145 49.1634 146.383 49.7898C146.622 50.4119 146.741 51.1534 146.741 52.0142V52.7237H138.694V51.1641H144.523C144.519 50.7209 144.423 50.3267 144.235 49.9815C144.048 49.6321 143.786 49.3572 143.449 49.157C143.117 48.9567 142.729 48.8565 142.286 48.8565C141.813 48.8565 141.397 48.9716 141.039 49.2017C140.681 49.4276 140.402 49.7259 140.202 50.0966C140.006 50.4631 139.906 50.8658 139.902 51.3047V52.6662C139.902 53.2372 140.006 53.7273 140.215 54.1364C140.424 54.5412 140.716 54.8523 141.091 55.0696C141.466 55.2827 141.904 55.3892 142.407 55.3892C142.744 55.3892 143.049 55.3423 143.321 55.2486C143.594 55.1506 143.831 55.0078 144.031 54.8203C144.231 54.6328 144.382 54.4006 144.485 54.1236L146.645 54.3665C146.509 54.9375 146.249 55.4361 145.865 55.8622C145.486 56.2841 145 56.6122 144.408 56.8466C143.816 57.0767 143.138 57.1918 142.375 57.1918ZM153.045 57.1918C152.061 57.1918 151.211 56.9872 150.495 56.5781C149.783 56.1648 149.236 55.581 148.852 54.8267C148.469 54.0682 148.277 53.1754 148.277 52.1484C148.277 51.1385 148.469 50.2521 148.852 49.4893C149.24 48.7223 149.781 48.1257 150.476 47.6996C151.17 47.2692 151.986 47.054 152.924 47.054C153.529 47.054 154.1 47.152 154.637 47.348C155.178 47.5398 155.655 47.8381 156.069 48.2429C156.486 48.6477 156.814 49.1634 157.053 49.7898C157.292 50.4119 157.411 51.1534 157.411 52.0142V52.7237H149.363V51.1641H155.193C155.189 50.7209 155.093 50.3267 154.905 49.9815C154.718 49.6321 154.456 49.3572 154.119 49.157C153.787 48.9567 153.399 48.8565 152.956 48.8565C152.483 48.8565 152.067 48.9716 151.709 49.2017C151.351 49.4276 151.072 49.7259 150.872 50.0966C150.676 50.4631 150.576 50.8658 150.572 51.3047V52.6662C150.572 53.2372 150.676 53.7273 150.885 54.1364C151.094 54.5412 151.385 54.8523 151.76 55.0696C152.135 55.2827 152.574 55.3892 153.077 55.3892C153.414 55.3892 153.719 55.3423 153.991 55.2486C154.264 55.1506 154.501 55.0078 154.701 54.8203C154.901 54.6328 155.052 54.4006 155.155 54.1236L157.315 54.3665C157.179 54.9375 156.919 55.4361 156.535 55.8622C156.156 56.2841 155.67 56.6122 155.078 56.8466C154.486 57.0767 153.808 57.1918 153.045 57.1918ZM163.012 57.1726C162.241 57.1726 161.55 56.9744 160.941 56.5781C160.332 56.1818 159.85 55.6065 159.496 54.8523C159.143 54.098 158.966 53.1818 158.966 52.1037C158.966 51.0128 159.145 50.0923 159.503 49.3423C159.865 48.5881 160.353 48.0192 160.967 47.6357C161.58 47.2479 162.264 47.054 163.018 47.054C163.594 47.054 164.067 47.152 164.438 47.348C164.808 47.5398 165.102 47.772 165.32 48.0447C165.537 48.3132 165.705 48.5668 165.825 48.8054H165.92V43.9091H168.241V57H165.965V55.4531H165.825C165.705 55.6918 165.533 55.9453 165.307 56.2138C165.081 56.478 164.783 56.7038 164.412 56.8913C164.041 57.0788 163.575 57.1726 163.012 57.1726ZM163.658 55.2741C164.148 55.2741 164.565 55.142 164.911 54.8778C165.256 54.6094 165.518 54.2365 165.697 53.7592C165.876 53.282 165.965 52.7259 165.965 52.0909C165.965 51.456 165.876 50.9041 165.697 50.4354C165.522 49.9666 165.262 49.6023 164.917 49.3423C164.576 49.0824 164.156 48.9524 163.658 48.9524C163.142 48.9524 162.712 49.0866 162.366 49.3551C162.021 49.6236 161.761 49.9943 161.587 50.4673C161.412 50.9403 161.325 51.4815 161.325 52.0909C161.325 52.7045 161.412 53.2521 161.587 53.7337C161.766 54.2109 162.028 54.5881 162.373 54.8651C162.722 55.1378 163.151 55.2741 163.658 55.2741ZM177.997 57.1982C177.374 57.1982 176.814 57.0874 176.316 56.8658C175.821 56.6399 175.429 56.3075 175.139 55.8686C174.854 55.4297 174.711 54.8885 174.711 54.245C174.711 53.6911 174.813 53.233 175.018 52.8707C175.222 52.5085 175.502 52.2188 175.855 52.0014C176.209 51.7841 176.607 51.62 177.051 51.5092C177.498 51.3942 177.96 51.3111 178.438 51.2599C179.013 51.2003 179.48 51.147 179.838 51.1001C180.195 51.049 180.455 50.9723 180.617 50.87C180.784 50.7635 180.867 50.5994 180.867 50.3778V50.3395C180.867 49.858 180.724 49.4851 180.438 49.2209C180.153 48.9567 179.742 48.8246 179.205 48.8246C178.638 48.8246 178.188 48.9482 177.856 49.1953C177.528 49.4425 177.306 49.7344 177.191 50.071L175.031 49.7642C175.201 49.1676 175.482 48.669 175.874 48.2685C176.267 47.8636 176.746 47.5611 177.313 47.3608C177.879 47.1562 178.506 47.054 179.192 47.054C179.665 47.054 180.136 47.1094 180.605 47.2202C181.073 47.331 181.502 47.5142 181.889 47.7699C182.277 48.0213 182.588 48.3643 182.823 48.799C183.061 49.2337 183.181 49.777 183.181 50.429V57H180.956V55.6513H180.879C180.739 55.924 180.541 56.1797 180.285 56.4183C180.034 56.6527 179.716 56.8423 179.333 56.9872C178.953 57.1278 178.508 57.1982 177.997 57.1982ZM178.597 55.4979C179.062 55.4979 179.465 55.4062 179.806 55.223C180.146 55.0355 180.409 54.7884 180.592 54.4815C180.779 54.1747 180.873 53.8402 180.873 53.478V52.321C180.801 52.3807 180.677 52.4361 180.502 52.4872C180.332 52.5384 180.14 52.5831 179.927 52.6214C179.714 52.6598 179.503 52.6939 179.294 52.7237C179.085 52.7536 178.904 52.7791 178.751 52.8004C178.406 52.8473 178.097 52.924 177.824 53.0305C177.551 53.1371 177.336 53.2862 177.178 53.478C177.021 53.6655 176.942 53.9084 176.942 54.2067C176.942 54.6328 177.097 54.9545 177.409 55.1719C177.72 55.3892 178.116 55.4979 178.597 55.4979ZM189.972 47.1818H192.286V57.5625C192.286 58.2699 192.152 58.8537 191.883 59.3139C191.615 59.7741 191.227 60.1172 190.72 60.343C190.213 60.5689 189.597 60.6818 188.873 60.6818C188.787 60.6818 188.709 60.6797 188.636 60.6754C188.564 60.6754 188.485 60.6733 188.4 60.669V58.7834C188.464 58.7876 188.521 58.7898 188.572 58.7898C188.623 58.794 188.677 58.7962 188.732 58.7962C189.175 58.7962 189.493 58.6875 189.684 58.4702C189.876 58.2571 189.972 57.9439 189.972 57.5305V47.1818ZM191.123 45.7884C190.752 45.7884 190.434 45.6669 190.17 45.424C189.91 45.1768 189.78 44.8807 189.78 44.5355C189.78 44.1861 189.91 43.8899 190.17 43.647C190.434 43.3999 190.752 43.2763 191.123 43.2763C191.489 43.2763 191.802 43.3999 192.062 43.647C192.327 43.8899 192.459 44.1861 192.459 44.5355C192.459 44.8807 192.327 45.1768 192.062 45.424C191.802 45.6669 191.489 45.7884 191.123 45.7884ZM198.948 57.1918C197.989 57.1918 197.158 56.9808 196.455 56.5589C195.752 56.1371 195.207 55.5469 194.819 54.7884C194.435 54.0298 194.244 53.1435 194.244 52.1293C194.244 51.1151 194.435 50.2266 194.819 49.4638C195.207 48.701 195.752 48.1087 196.455 47.6868C197.158 47.2649 197.989 47.054 198.948 47.054C199.907 47.054 200.738 47.2649 201.441 47.6868C202.144 48.1087 202.688 48.701 203.071 49.4638C203.459 50.2266 203.653 51.1151 203.653 52.1293C203.653 53.1435 203.459 54.0298 203.071 54.7884C202.688 55.5469 202.144 56.1371 201.441 56.5589C200.738 56.9808 199.907 57.1918 198.948 57.1918ZM198.961 55.3381C199.481 55.3381 199.915 55.1953 200.265 54.9098C200.614 54.62 200.874 54.2322 201.045 53.7464C201.219 53.2607 201.307 52.7195 201.307 52.1229C201.307 51.522 201.219 50.9787 201.045 50.4929C200.874 50.0028 200.614 49.6129 200.265 49.3232C199.915 49.0334 199.481 48.8885 198.961 48.8885C198.428 48.8885 197.985 49.0334 197.631 49.3232C197.282 49.6129 197.02 50.0028 196.845 50.4929C196.675 50.9787 196.589 51.522 196.589 52.1229C196.589 52.7195 196.675 53.2607 196.845 53.7464C197.02 54.2322 197.282 54.62 197.631 54.9098C197.985 55.1953 198.428 55.3381 198.961 55.3381ZM205.719 57V43.9091H208.033V48.8054H208.129C208.248 48.5668 208.416 48.3132 208.634 48.0447C208.851 47.772 209.145 47.5398 209.516 47.348C209.887 47.152 210.36 47.054 210.935 47.054C211.693 47.054 212.377 47.2479 212.987 47.6357C213.6 48.0192 214.086 48.5881 214.444 49.3423C214.806 50.0923 214.987 51.0128 214.987 52.1037C214.987 53.1818 214.811 54.098 214.457 54.8523C214.103 55.6065 213.622 56.1818 213.012 56.5781C212.403 56.9744 211.713 57.1726 210.941 57.1726C210.379 57.1726 209.912 57.0788 209.541 56.8913C209.171 56.7038 208.872 56.478 208.646 56.2138C208.425 55.9453 208.252 55.6918 208.129 55.4531H207.994V57H205.719ZM207.988 52.0909C207.988 52.7259 208.078 53.282 208.257 53.7592C208.44 54.2365 208.702 54.6094 209.043 54.8778C209.388 55.142 209.806 55.2741 210.296 55.2741C210.807 55.2741 211.235 55.1378 211.58 54.8651C211.926 54.5881 212.186 54.2109 212.36 53.7337C212.539 53.2521 212.629 52.7045 212.629 52.0909C212.629 51.4815 212.541 50.9403 212.367 50.4673C212.192 49.9943 211.932 49.6236 211.587 49.3551C211.242 49.0866 210.811 48.9524 210.296 48.9524C209.801 48.9524 209.382 49.0824 209.036 49.3423C208.691 49.6023 208.429 49.9666 208.25 50.4354C208.075 50.9041 207.988 51.456 207.988 52.0909ZM225.702 57.1918C224.743 57.1918 223.912 56.9808 223.209 56.5589C222.506 56.1371 221.961 55.5469 221.573 54.7884C221.189 54.0298 220.998 53.1435 220.998 52.1293C220.998 51.1151 221.189 50.2266 221.573 49.4638C221.961 48.701 222.506 48.1087 223.209 47.6868C223.912 47.2649 224.743 47.054 225.702 47.054C226.661 47.054 227.492 47.2649 228.195 47.6868C228.898 48.1087 229.441 48.701 229.825 49.4638C230.213 50.2266 230.407 51.1151 230.407 52.1293C230.407 53.1435 230.213 54.0298 229.825 54.7884C229.441 55.5469 228.898 56.1371 228.195 56.5589C227.492 56.9808 226.661 57.1918 225.702 57.1918ZM225.715 55.3381C226.235 55.3381 226.669 55.1953 227.019 54.9098C227.368 54.62 227.628 54.2322 227.799 53.7464C227.973 53.2607 228.061 52.7195 228.061 52.1229C228.061 51.522 227.973 50.9787 227.799 50.4929C227.628 50.0028 227.368 49.6129 227.019 49.3232C226.669 49.0334 226.235 48.8885 225.715 48.8885C225.182 48.8885 224.739 49.0334 224.385 49.3232C224.036 49.6129 223.774 50.0028 223.599 50.4929C223.429 50.9787 223.343 51.522 223.343 52.1229C223.343 52.7195 223.429 53.2607 223.599 53.7464C223.774 54.2322 224.036 54.62 224.385 54.9098C224.739 55.1953 225.182 55.3381 225.715 55.3381ZM237.344 47.1818V48.9716H231.54V47.1818H237.344ZM232.991 57V46.255C232.991 45.5945 233.127 45.0447 233.4 44.6058C233.677 44.1669 234.047 43.8388 234.512 43.6214C234.976 43.4041 235.492 43.2955 236.059 43.2955C236.459 43.2955 236.815 43.3274 237.126 43.3913C237.437 43.4553 237.667 43.5128 237.817 43.5639L237.356 45.3537C237.258 45.3239 237.135 45.294 236.986 45.2642C236.836 45.2301 236.67 45.2131 236.487 45.2131C236.057 45.2131 235.752 45.3175 235.573 45.5263C235.398 45.7308 235.311 46.0249 235.311 46.4084V57H232.991ZM244.129 47.1818V48.9716H238.325V47.1818H244.129ZM239.776 57V46.255C239.776 45.5945 239.912 45.0447 240.185 44.6058C240.462 44.1669 240.833 43.8388 241.297 43.6214C241.762 43.4041 242.277 43.2955 242.844 43.2955C243.244 43.2955 243.6 43.3274 243.911 43.3913C244.222 43.4553 244.453 43.5128 244.602 43.5639L244.142 45.3537C244.044 45.3239 243.92 45.294 243.771 45.2642C243.622 45.2301 243.455 45.2131 243.272 45.2131C242.842 45.2131 242.537 45.3175 242.358 45.5263C242.183 45.7308 242.096 46.0249 242.096 46.4084V57H239.776ZM249.918 57.1918C248.934 57.1918 248.084 56.9872 247.368 56.5781C246.656 56.1648 246.109 55.581 245.725 54.8267C245.342 54.0682 245.15 53.1754 245.15 52.1484C245.15 51.1385 245.342 50.2521 245.725 49.4893C246.113 48.7223 246.654 48.1257 247.349 47.6996C248.043 47.2692 248.859 47.054 249.797 47.054C250.402 47.054 250.973 47.152 251.51 47.348C252.051 47.5398 252.528 47.8381 252.942 48.2429C253.359 48.6477 253.688 49.1634 253.926 49.7898C254.165 50.4119 254.284 51.1534 254.284 52.0142V52.7237H246.237V51.1641H252.066C252.062 50.7209 251.966 50.3267 251.778 49.9815C251.591 49.6321 251.329 49.3572 250.992 49.157C250.66 48.9567 250.272 48.8565 249.829 48.8565C249.356 48.8565 248.94 48.9716 248.582 49.2017C248.224 49.4276 247.945 49.7259 247.745 50.0966C247.549 50.4631 247.449 50.8658 247.445 51.3047V52.6662C247.445 53.2372 247.549 53.7273 247.758 54.1364C247.967 54.5412 248.259 54.8523 248.634 55.0696C249.009 55.2827 249.447 55.3892 249.95 55.3892C250.287 55.3892 250.592 55.3423 250.864 55.2486C251.137 55.1506 251.374 55.0078 251.574 54.8203C251.774 54.6328 251.925 54.4006 252.028 54.1236L254.188 54.3665C254.052 54.9375 253.792 55.4361 253.408 55.8622C253.029 56.2841 252.543 56.6122 251.951 56.8466C251.359 57.0767 250.681 57.1918 249.918 57.1918ZM256.242 57V47.1818H258.485V48.8182H258.588C258.767 48.2514 259.073 47.8146 259.508 47.5078C259.947 47.1967 260.448 47.0412 261.01 47.0412C261.138 47.0412 261.281 47.0476 261.438 47.0604C261.6 47.0689 261.735 47.0838 261.841 47.1051V49.2337C261.743 49.1996 261.588 49.1697 261.374 49.1442C261.166 49.1143 260.963 49.0994 260.767 49.0994C260.345 49.0994 259.966 49.1911 259.629 49.3743C259.297 49.5533 259.035 49.8026 258.843 50.1222C258.651 50.4418 258.556 50.8104 258.556 51.228V57H256.242ZM272.816 47.1818V48.9716H267.012V47.1818H272.816ZM268.463 57V46.255C268.463 45.5945 268.6 45.0447 268.872 44.6058C269.149 44.1669 269.52 43.8388 269.985 43.6214C270.449 43.4041 270.965 43.2955 271.531 43.2955C271.932 43.2955 272.288 43.3274 272.599 43.3913C272.91 43.4553 273.14 43.5128 273.289 43.5639L272.829 45.3537C272.731 45.3239 272.607 45.294 272.458 45.2642C272.309 45.2301 272.143 45.2131 271.96 45.2131C271.529 45.2131 271.225 45.3175 271.046 45.5263C270.871 45.7308 270.784 46.0249 270.784 46.4084V57H268.463ZM278.542 57.1918C277.583 57.1918 276.752 56.9808 276.049 56.5589C275.346 56.1371 274.8 55.5469 274.413 54.7884C274.029 54.0298 273.837 53.1435 273.837 52.1293C273.837 51.1151 274.029 50.2266 274.413 49.4638C274.8 48.701 275.346 48.1087 276.049 47.6868C276.752 47.2649 277.583 47.054 278.542 47.054C279.501 47.054 280.332 47.2649 281.035 47.6868C281.738 48.1087 282.281 48.701 282.665 49.4638C283.053 50.2266 283.246 51.1151 283.246 52.1293C283.246 53.1435 283.053 54.0298 282.665 54.7884C282.281 55.5469 281.738 56.1371 281.035 56.5589C280.332 56.9808 279.501 57.1918 278.542 57.1918ZM278.555 55.3381C279.075 55.3381 279.509 55.1953 279.859 54.9098C280.208 54.62 280.468 54.2322 280.638 53.7464C280.813 53.2607 280.901 52.7195 280.901 52.1229C280.901 51.522 280.813 50.9787 280.638 50.4929C280.468 50.0028 280.208 49.6129 279.859 49.3232C279.509 49.0334 279.075 48.8885 278.555 48.8885C278.022 48.8885 277.579 49.0334 277.225 49.3232C276.876 49.6129 276.614 50.0028 276.439 50.4929C276.268 50.9787 276.183 51.522 276.183 52.1229C276.183 52.7195 276.268 53.2607 276.439 53.7464C276.614 54.2322 276.876 54.62 277.225 54.9098C277.579 55.1953 278.022 55.3381 278.555 55.3381ZM285.21 57V47.1818H287.454V48.8182H287.556C287.735 48.2514 288.042 47.8146 288.477 47.5078C288.916 47.1967 289.416 47.0412 289.979 47.0412C290.107 47.0412 290.249 47.0476 290.407 47.0604C290.569 47.0689 290.703 47.0838 290.81 47.1051V49.2337C290.712 49.1996 290.556 49.1697 290.343 49.1442C290.134 49.1143 289.932 49.0994 289.736 49.0994C289.314 49.0994 288.935 49.1911 288.598 49.3743C288.266 49.5533 288.004 49.8026 287.812 50.1222C287.62 50.4418 287.524 50.8104 287.524 51.228V57H285.21ZM296.812 57V47.1818H299.126V57H296.812ZM297.975 45.7884C297.609 45.7884 297.294 45.6669 297.029 45.424C296.765 45.1768 296.633 44.8807 296.633 44.5355C296.633 44.1861 296.765 43.8899 297.029 43.647C297.294 43.3999 297.609 43.2763 297.975 43.2763C298.346 43.2763 298.661 43.3999 298.921 43.647C299.186 43.8899 299.318 44.1861 299.318 44.5355C299.318 44.8807 299.186 45.1768 298.921 45.424C298.661 45.6669 298.346 45.7884 297.975 45.7884ZM301.505 57V47.1818H303.717V48.8501H303.832C304.037 48.2876 304.375 47.8487 304.848 47.5334C305.321 47.2138 305.886 47.054 306.542 47.054C307.207 47.054 307.767 47.2159 308.223 47.5398C308.684 47.8594 309.007 48.2962 309.195 48.8501H309.297C309.515 48.3047 309.881 47.87 310.397 47.5462C310.917 47.218 311.532 47.054 312.244 47.054C313.147 47.054 313.885 47.3395 314.456 47.9105C315.027 48.4815 315.312 49.3146 315.312 50.4098V57H312.992V50.7678C312.992 50.1584 312.83 49.7131 312.506 49.4318C312.182 49.1463 311.786 49.0036 311.317 49.0036C310.759 49.0036 310.322 49.1783 310.007 49.5277C309.696 49.8729 309.54 50.3224 309.54 50.8764V57H307.271V50.6719C307.271 50.1648 307.118 49.7599 306.811 49.4574C306.508 49.1548 306.112 49.0036 305.622 49.0036C305.289 49.0036 304.987 49.0888 304.714 49.2592C304.441 49.4254 304.224 49.6619 304.062 49.9688C303.9 50.2713 303.819 50.625 303.819 51.0298V57H301.505ZM317.66 57V47.1818H319.871V48.8501H319.986C320.191 48.2876 320.53 47.8487 321.003 47.5334C321.476 47.2138 322.04 47.054 322.697 47.054C323.361 47.054 323.922 47.2159 324.378 47.5398C324.838 47.8594 325.162 48.2962 325.349 48.8501H325.452C325.669 48.3047 326.035 47.87 326.551 47.5462C327.071 47.218 327.687 47.054 328.398 47.054C329.302 47.054 330.039 47.3395 330.61 47.9105C331.181 48.4815 331.466 49.3146 331.466 50.4098V57H329.146V50.7678C329.146 50.1584 328.984 49.7131 328.66 49.4318C328.336 49.1463 327.94 49.0036 327.471 49.0036C326.913 49.0036 326.476 49.1783 326.161 49.5277C325.85 49.8729 325.694 50.3224 325.694 50.8764V57H323.425V50.6719C323.425 50.1648 323.272 49.7599 322.965 49.4574C322.662 49.1548 322.266 49.0036 321.776 49.0036C321.444 49.0036 321.141 49.0888 320.868 49.2592C320.596 49.4254 320.378 49.6619 320.216 49.9688C320.055 50.2713 319.974 50.625 319.974 51.0298V57H317.66ZM333.814 57V47.1818H336.128V57H333.814ZM334.977 45.7884C334.611 45.7884 334.295 45.6669 334.031 45.424C333.767 45.1768 333.635 44.8807 333.635 44.5355C333.635 44.1861 333.767 43.8899 334.031 43.647C334.295 43.3999 334.611 43.2763 334.977 43.2763C335.348 43.2763 335.663 43.3999 335.923 43.647C336.188 43.8899 336.32 44.1861 336.32 44.5355C336.32 44.8807 336.188 45.1768 335.923 45.424C335.663 45.6669 335.348 45.7884 334.977 45.7884ZM342.777 60.8864C341.946 60.8864 341.232 60.7734 340.636 60.5476C340.039 60.326 339.56 60.0277 339.198 59.6527C338.835 59.2777 338.584 58.8622 338.443 58.4062L340.527 57.9013C340.621 58.093 340.757 58.2827 340.936 58.4702C341.115 58.6619 341.356 58.8196 341.659 58.9432C341.965 59.071 342.351 59.1349 342.816 59.1349C343.472 59.1349 344.015 58.9751 344.445 58.6555C344.876 58.3402 345.091 57.8203 345.091 57.0959V55.2358H344.976C344.857 55.4744 344.682 55.7195 344.452 55.9709C344.226 56.2223 343.926 56.4332 343.551 56.6037C343.18 56.7741 342.713 56.8594 342.151 56.8594C341.396 56.8594 340.713 56.6825 340.099 56.3288C339.49 55.9709 339.004 55.4382 338.642 54.7308C338.284 54.0192 338.105 53.1286 338.105 52.0589C338.105 50.9808 338.284 50.071 338.642 49.3295C339.004 48.5838 339.492 48.0192 340.105 47.6357C340.719 47.2479 341.403 47.054 342.157 47.054C342.732 47.054 343.205 47.152 343.576 47.348C343.951 47.5398 344.249 47.772 344.471 48.0447C344.693 48.3132 344.861 48.5668 344.976 48.8054H345.104V47.1818H347.386V57.1598C347.386 57.9993 347.186 58.6939 346.785 59.2436C346.384 59.7933 345.837 60.2045 345.142 60.4773C344.448 60.75 343.659 60.8864 342.777 60.8864ZM342.796 55.044C343.286 55.044 343.704 54.9247 344.049 54.6861C344.394 54.4474 344.656 54.1044 344.835 53.657C345.014 53.2095 345.104 52.6726 345.104 52.0462C345.104 51.4283 345.014 50.8871 344.835 50.4226C344.661 49.9581 344.401 49.598 344.056 49.3423C343.715 49.0824 343.295 48.9524 342.796 48.9524C342.281 48.9524 341.85 49.0866 341.505 49.3551C341.16 49.6236 340.9 49.9922 340.725 50.4609C340.551 50.9254 340.463 51.4538 340.463 52.0462C340.463 52.647 340.551 53.1733 340.725 53.625C340.904 54.0724 341.166 54.4219 341.512 54.6733C341.861 54.9205 342.289 55.044 342.796 55.044ZM349.757 57V47.1818H352.001V48.8182H352.103C352.282 48.2514 352.589 47.8146 353.024 47.5078C353.463 47.1967 353.963 47.0412 354.526 47.0412C354.654 47.0412 354.796 47.0476 354.954 47.0604C355.116 47.0689 355.25 47.0838 355.357 47.1051V49.2337C355.259 49.1996 355.103 49.1697 354.89 49.1442C354.681 49.1143 354.479 49.0994 354.283 49.0994C353.861 49.0994 353.482 49.1911 353.145 49.3743C352.813 49.5533 352.551 49.8026 352.359 50.1222C352.167 50.4418 352.071 50.8104 352.071 51.228V57H349.757ZM359.544 57.1982C358.921 57.1982 358.361 57.0874 357.862 56.8658C357.368 56.6399 356.976 56.3075 356.686 55.8686C356.401 55.4297 356.258 54.8885 356.258 54.245C356.258 53.6911 356.36 53.233 356.565 52.8707C356.769 52.5085 357.048 52.2188 357.402 52.0014C357.756 51.7841 358.154 51.62 358.597 51.5092C359.045 51.3942 359.507 51.3111 359.985 51.2599C360.56 51.2003 361.026 51.147 361.384 51.1001C361.742 51.049 362.002 50.9723 362.164 50.87C362.33 50.7635 362.414 50.5994 362.414 50.3778V50.3395C362.414 49.858 362.271 49.4851 361.985 49.2209C361.7 48.9567 361.289 48.8246 360.752 48.8246C360.185 48.8246 359.735 48.9482 359.403 49.1953C359.075 49.4425 358.853 49.7344 358.738 50.071L356.578 49.7642C356.748 49.1676 357.029 48.669 357.421 48.2685C357.813 47.8636 358.293 47.5611 358.86 47.3608C359.426 47.1562 360.053 47.054 360.739 47.054C361.212 47.054 361.683 47.1094 362.151 47.2202C362.62 47.331 363.048 47.5142 363.436 47.7699C363.824 48.0213 364.135 48.3643 364.369 48.799C364.608 49.2337 364.727 49.777 364.727 50.429V57H362.503V55.6513H362.426C362.286 55.924 362.088 56.1797 361.832 56.4183C361.58 56.6527 361.263 56.8423 360.879 56.9872C360.5 57.1278 360.055 57.1982 359.544 57.1982ZM360.144 55.4979C360.609 55.4979 361.012 55.4062 361.352 55.223C361.693 55.0355 361.955 54.7884 362.139 54.4815C362.326 54.1747 362.42 53.8402 362.42 53.478V52.321C362.347 52.3807 362.224 52.4361 362.049 52.4872C361.879 52.5384 361.687 52.5831 361.474 52.6214C361.261 52.6598 361.05 52.6939 360.841 52.7237C360.632 52.7536 360.451 52.7791 360.298 52.8004C359.953 52.8473 359.644 52.924 359.371 53.0305C359.098 53.1371 358.883 53.2862 358.725 53.478C358.568 53.6655 358.489 53.9084 358.489 54.2067C358.489 54.6328 358.644 54.9545 358.955 55.1719C359.267 55.3892 359.663 55.4979 360.144 55.4979ZM371.957 47.1818V48.9716H366.313V47.1818H371.957ZM367.706 44.8295H370.02V54.0469C370.02 54.358 370.067 54.5966 370.161 54.7628C370.259 54.9247 370.387 55.0355 370.544 55.0952C370.702 55.1548 370.877 55.1847 371.068 55.1847C371.213 55.1847 371.345 55.174 371.465 55.1527C371.588 55.1314 371.682 55.1122 371.746 55.0952L372.136 56.9041C372.012 56.9467 371.835 56.9936 371.605 57.0447C371.379 57.0959 371.102 57.1257 370.774 57.1342C370.195 57.1513 369.673 57.0639 369.208 56.8722C368.744 56.6761 368.375 56.3736 368.102 55.9645C367.834 55.5554 367.702 55.044 367.706 54.4304V44.8295ZM373.892 57V47.1818H376.206V57H373.892ZM375.055 45.7884C374.689 45.7884 374.374 45.6669 374.109 45.424C373.845 45.1768 373.713 44.8807 373.713 44.5355C373.713 44.1861 373.845 43.8899 374.109 43.647C374.374 43.3999 374.689 43.2763 375.055 43.2763C375.426 43.2763 375.741 43.3999 376.001 43.647C376.266 43.8899 376.398 44.1861 376.398 44.5355C376.398 44.8807 376.266 45.1768 376.001 45.424C375.741 45.6669 375.426 45.7884 375.055 45.7884ZM382.868 57.1918C381.909 57.1918 381.078 56.9808 380.375 56.5589C379.672 56.1371 379.127 55.5469 378.739 54.7884C378.355 54.0298 378.164 53.1435 378.164 52.1293C378.164 51.1151 378.355 50.2266 378.739 49.4638C379.127 48.701 379.672 48.1087 380.375 47.6868C381.078 47.2649 381.909 47.054 382.868 47.054C383.827 47.054 384.658 47.2649 385.361 47.6868C386.064 48.1087 386.607 48.701 386.991 49.4638C387.379 50.2266 387.573 51.1151 387.573 52.1293C387.573 53.1435 387.379 54.0298 386.991 54.7884C386.607 55.5469 386.064 56.1371 385.361 56.5589C384.658 56.9808 383.827 57.1918 382.868 57.1918ZM382.881 55.3381C383.401 55.3381 383.835 55.1953 384.185 54.9098C384.534 54.62 384.794 54.2322 384.965 53.7464C385.139 53.2607 385.227 52.7195 385.227 52.1229C385.227 51.522 385.139 50.9787 384.965 50.4929C384.794 50.0028 384.534 49.6129 384.185 49.3232C383.835 49.0334 383.401 48.8885 382.881 48.8885C382.348 48.8885 381.905 49.0334 381.551 49.3232C381.202 49.6129 380.94 50.0028 380.765 50.4929C380.595 50.9787 380.509 51.522 380.509 52.1229C380.509 52.7195 380.595 53.2607 380.765 53.7464C380.94 54.2322 381.202 54.62 381.551 54.9098C381.905 55.1953 382.348 55.3381 382.881 55.3381ZM391.85 51.2472V57H389.537V47.1818H391.748V48.8501H391.863C392.089 48.3004 392.449 47.8636 392.944 47.5398C393.442 47.2159 394.058 47.054 394.791 47.054C395.468 47.054 396.059 47.1989 396.561 47.4886C397.069 47.7784 397.461 48.1982 397.738 48.7479C398.019 49.2976 398.157 49.9645 398.153 50.7486V57H395.839V51.1065C395.839 50.4503 395.669 49.9368 395.328 49.5661C394.991 49.1953 394.525 49.0099 393.928 49.0099C393.523 49.0099 393.163 49.0994 392.848 49.2784C392.537 49.4531 392.292 49.7067 392.113 50.0391C391.938 50.3714 391.85 50.7741 391.85 51.2472ZM402.717 53.152V52.9858C402.721 52.2145 402.794 51.6009 402.934 51.1449C403.079 50.6889 403.284 50.3224 403.548 50.0455C403.812 49.7642 404.134 49.5064 404.513 49.272C404.773 49.1101 405.005 48.9332 405.21 48.7415C405.419 48.5455 405.583 48.3281 405.702 48.0895C405.821 47.8466 405.881 47.576 405.881 47.2777C405.881 46.9411 405.802 46.6491 405.645 46.402C405.487 46.1548 405.274 45.9631 405.005 45.8267C404.741 45.6903 404.445 45.6222 404.117 45.6222C403.814 45.6222 403.527 45.6882 403.254 45.8203C402.985 45.9482 402.762 46.1442 402.583 46.4084C402.408 46.6683 402.31 46.9986 402.289 47.3991H400.013C400.034 46.5895 400.23 45.9119 400.601 45.3665C400.976 44.821 401.471 44.4119 402.084 44.1392C402.702 43.8665 403.384 43.7301 404.13 43.7301C404.944 43.7301 405.659 43.8729 406.277 44.1584C406.9 44.4439 407.383 44.8509 407.728 45.3793C408.078 45.9034 408.252 46.5256 408.252 47.2457C408.252 47.7315 408.174 48.1662 408.016 48.5497C407.863 48.9332 407.643 49.2741 407.358 49.5724C407.072 49.8707 406.733 50.1371 406.341 50.3714C405.996 50.5845 405.713 50.8061 405.491 51.0362C405.274 51.2663 405.112 51.5369 405.005 51.848C404.903 52.1548 404.85 52.5341 404.846 52.9858V53.152H402.717ZM403.829 57.1406C403.446 57.1406 403.115 57.0043 402.838 56.7315C402.561 56.4588 402.423 56.1264 402.423 55.7344C402.423 55.3509 402.561 55.0227 402.838 54.75C403.115 54.4773 403.446 54.3409 403.829 54.3409C404.208 54.3409 404.537 54.4773 404.814 54.75C405.095 55.0227 405.235 55.3509 405.235 55.7344C405.235 55.9943 405.169 56.2308 405.037 56.4439C404.909 56.657 404.739 56.8274 404.526 56.9553C404.317 57.0788 404.085 57.1406 403.829 57.1406Z" fill="#1B1139"/>
<rect opacity="0.8" x="56.0078" y="47.5" width="18" height="3" rx="1.5" fill="#1B1139"/>
<rect opacity="0.8" x="66.5078" y="40" width="18" height="3" rx="1.5" transform="rotate(90 66.5078 40)" fill="#1B1139"/>
<defs>
<filter id="filter0_d_125_1151" x="-7.53403e-05" y="0" width="594.016" height="142.564" filterUnits="userSpaceOnUse" color-interpolation-filters="sRGB">
<feFlood flood-opacity="0" result="BackgroundImageFix"/>
<feColorMatrix in="SourceAlpha" type="matrix" values="0 0 0 0 0 0 0 0 0 0 0 0 0 0 0 0 0 0 127 0" result="hardAlpha"/>
<feMorphology radius="14.7337" operator="erode" in="SourceAlpha" result="effect1_dropShadow_125_1151"/>
<feOffset dy="24.5562"/>
<feGaussianBlur stdDeviation="16.3708"/>
<feColorMatrix type="matrix" values="0 0 0 0 0.583333 0 0 0 0 0.583333 0 0 0 0 0.583333 0 0 0 0.25 0"/>
<feBlend mode="normal" in2="BackgroundImageFix" result="effect1_dropShadow_125_1151"/>
<feBlend mode="normal" in="SourceGraphic" in2="effect1_dropShadow_125_1151" result="shape"/>
</filter>
</defs>
</svg>
