<svg width="470" height="22" viewBox="0 0 470 22" fill="none" xmlns="http://www.w3.org/2000/svg">
<path opacity="0.88" d="M37.7273 18H33.2912V4.90909H37.8168C39.1165 4.90909 40.233 5.17116 41.1662 5.69531C42.1037 6.2152 42.8239 6.96307 43.3267 7.93892C43.8295 8.91477 44.081 10.0824 44.081 11.4418C44.081 12.8054 43.8274 13.9773 43.3203 14.9574C42.8175 15.9375 42.0909 16.6896 41.1406 17.2138C40.1946 17.7379 39.0568 18 37.7273 18ZM35.6626 15.9482H37.6122C38.5241 15.9482 39.2848 15.782 39.8942 15.4496C40.5036 15.1129 40.9616 14.6122 41.2685 13.9474C41.5753 13.2784 41.7287 12.4432 41.7287 11.4418C41.7287 10.4403 41.5753 9.60937 41.2685 8.94886C40.9616 8.28409 40.5078 7.78764 39.907 7.45952C39.3104 7.12713 38.5689 6.96094 37.6825 6.96094H35.6626V15.9482ZM50.5146 18.1918C49.5558 18.1918 48.7248 17.9808 48.0217 17.5589C47.3185 17.1371 46.7731 16.5469 46.3853 15.7884C46.0018 15.0298 45.81 14.1435 45.81 13.1293C45.81 12.1151 46.0018 11.2266 46.3853 10.4638C46.7731 9.70099 47.3185 9.10866 48.0217 8.68679C48.7248 8.26491 49.5558 8.05398 50.5146 8.05398C51.4734 8.05398 52.3043 8.26491 53.0075 8.68679C53.7106 9.10866 54.2539 9.70099 54.6374 10.4638C55.0252 11.2266 55.2191 12.1151 55.2191 13.1293C55.2191 14.1435 55.0252 15.0298 54.6374 15.7884C54.2539 16.5469 53.7106 17.1371 53.0075 17.5589C52.3043 17.9808 51.4734 18.1918 50.5146 18.1918ZM50.5273 16.3381C51.0472 16.3381 51.4819 16.1953 51.8313 15.9098C52.1808 15.62 52.4407 15.2322 52.6112 14.7464C52.7859 14.2607 52.8732 13.7195 52.8732 13.1229C52.8732 12.522 52.7859 11.9787 52.6112 11.4929C52.4407 11.0028 52.1808 10.6129 51.8313 10.3232C51.4819 10.0334 51.0472 9.88849 50.5273 9.88849C49.9947 9.88849 49.5515 10.0334 49.1978 10.3232C48.8484 10.6129 48.5863 11.0028 48.4116 11.4929C48.2411 11.9787 48.1559 12.522 48.1559 13.1229C48.1559 13.7195 48.2411 14.2607 48.4116 14.7464C48.5863 15.2322 48.8484 15.62 49.1978 15.9098C49.5515 16.1953 49.9947 16.3381 50.5273 16.3381ZM64.1216 4.90909V18H61.7502V4.90909H64.1216ZM73.3661 12.2472V18H71.0522V8.18182H73.2638V9.85014H73.3789C73.6048 9.30043 73.9648 8.86364 74.4592 8.53977C74.9577 8.21591 75.5735 8.05398 76.3065 8.05398C76.984 8.05398 77.5742 8.19886 78.0771 8.48864C78.5842 8.77841 78.9762 9.19815 79.2532 9.74787C79.5344 10.2976 79.6729 10.9645 79.6687 11.7486V18H77.3548V12.1065C77.3548 11.4503 77.1843 10.9368 76.8434 10.5661C76.5067 10.1953 76.0401 10.0099 75.4435 10.0099C75.0387 10.0099 74.6786 10.0994 74.3633 10.2784C74.0522 10.4531 73.8072 10.7067 73.6282 11.0391C73.4535 11.3714 73.3661 11.7741 73.3661 12.2472ZM86.3675 18.1918C85.3832 18.1918 84.533 17.9872 83.8171 17.5781C83.1055 17.1648 82.5579 16.581 82.1744 15.8267C81.7908 15.0682 81.5991 14.1754 81.5991 13.1484C81.5991 12.1385 81.7908 11.2521 82.1744 10.4893C82.5621 9.7223 83.1033 9.12571 83.7979 8.69957C84.4925 8.26918 85.3086 8.05398 86.2461 8.05398C86.8512 8.05398 87.4222 8.15199 87.9592 8.34801C88.5004 8.53977 88.9776 8.83807 89.391 9.2429C89.8086 9.64773 90.1367 10.1634 90.3754 10.7898C90.614 11.4119 90.7333 12.1534 90.7333 13.0142V13.7237H82.6857V12.1641H88.5153C88.511 11.7209 88.4151 11.3267 88.2276 10.9815C88.0401 10.6321 87.7781 10.3572 87.4414 10.157C87.109 9.95668 86.7212 9.85653 86.2781 9.85653C85.805 9.85653 85.3896 9.97159 85.0316 10.2017C84.6737 10.4276 84.3945 10.7259 84.1942 11.0966C83.9982 11.4631 83.8981 11.8658 83.8938 12.3047V13.6662C83.8938 14.2372 83.9982 14.7273 84.207 15.1364C84.4158 15.5412 84.7077 15.8523 85.0827 16.0696C85.4577 16.2827 85.8967 16.3892 86.3995 16.3892C86.7362 16.3892 87.0408 16.3423 87.3136 16.2486C87.5863 16.1506 87.8228 16.0078 88.0231 15.8203C88.2234 15.6328 88.3746 15.4006 88.4769 15.1236L90.6374 15.3665C90.5011 15.9375 90.2411 16.4361 89.8576 16.8622C89.4783 17.2841 88.9925 17.6122 88.4002 17.8466C87.8079 18.0767 87.1303 18.1918 86.3675 18.1918ZM97.0375 18.1918C96.0531 18.1918 95.2029 17.9872 94.487 17.5781C93.7754 17.1648 93.2278 16.581 92.8443 15.8267C92.4608 15.0682 92.269 14.1754 92.269 13.1484C92.269 12.1385 92.4608 11.2521 92.8443 10.4893C93.2321 9.7223 93.7733 9.12571 94.4679 8.69957C95.1625 8.26918 95.9785 8.05398 96.916 8.05398C97.5211 8.05398 98.0922 8.15199 98.6291 8.34801C99.1703 8.53977 99.6476 8.83807 100.061 9.2429C100.479 9.64773 100.807 10.1634 101.045 10.7898C101.284 11.4119 101.403 12.1534 101.403 13.0142V13.7237H93.3556V12.1641H99.1852C99.1809 11.7209 99.0851 11.3267 98.8976 10.9815C98.7101 10.6321 98.448 10.3572 98.1113 10.157C97.7789 9.95668 97.3912 9.85653 96.948 9.85653C96.475 9.85653 96.0595 9.97159 95.7015 10.2017C95.3436 10.4276 95.0645 10.7259 94.8642 11.0966C94.6681 11.4631 94.568 11.8658 94.5637 12.3047V13.6662C94.5637 14.2372 94.6681 14.7273 94.877 15.1364C95.0858 15.5412 95.3777 15.8523 95.7527 16.0696C96.1277 16.2827 96.5666 16.3892 97.0694 16.3892C97.4061 16.3892 97.7108 16.3423 97.9835 16.2486C98.2562 16.1506 98.4927 16.0078 98.693 15.8203C98.8933 15.6328 99.0446 15.4006 99.1468 15.1236L101.307 15.3665C101.171 15.9375 100.911 16.4361 100.528 16.8622C100.148 17.2841 99.6625 17.6122 99.0701 17.8466C98.4778 18.0767 97.8002 18.1918 97.0375 18.1918ZM107.004 18.1726C106.233 18.1726 105.543 17.9744 104.933 17.5781C104.324 17.1818 103.842 16.6065 103.489 15.8523C103.135 15.098 102.958 14.1818 102.958 13.1037C102.958 12.0128 103.137 11.0923 103.495 10.3423C103.857 9.58807 104.345 9.01918 104.959 8.63565C105.572 8.24787 106.256 8.05398 107.011 8.05398C107.586 8.05398 108.059 8.15199 108.43 8.34801C108.8 8.53977 109.094 8.77202 109.312 9.04474C109.529 9.31321 109.697 9.56676 109.817 9.8054H109.913V4.90909H112.233V18H109.957V16.4531H109.817C109.697 16.6918 109.525 16.9453 109.299 17.2138C109.073 17.478 108.775 17.7038 108.404 17.8913C108.033 18.0788 107.567 18.1726 107.004 18.1726ZM107.65 16.2741C108.14 16.2741 108.558 16.142 108.903 15.8778C109.248 15.6094 109.51 15.2365 109.689 14.7592C109.868 14.282 109.957 13.7259 109.957 13.0909C109.957 12.456 109.868 11.9041 109.689 11.4354C109.514 10.9666 109.254 10.6023 108.909 10.3423C108.568 10.0824 108.148 9.95241 107.65 9.95241C107.134 9.95241 106.704 10.0866 106.359 10.3551C106.013 10.6236 105.754 10.9943 105.579 11.4673C105.404 11.9403 105.317 12.4815 105.317 13.0909C105.317 13.7045 105.404 14.2521 105.579 14.7337C105.758 15.2109 106.02 15.5881 106.365 15.8651C106.714 16.1378 107.143 16.2741 107.65 16.2741ZM121.989 18.1982C121.367 18.1982 120.806 18.0874 120.308 17.8658C119.813 17.6399 119.421 17.3075 119.132 16.8686C118.846 16.4297 118.703 15.8885 118.703 15.245C118.703 14.6911 118.806 14.233 119.01 13.8707C119.215 13.5085 119.494 13.2188 119.847 13.0014C120.201 12.7841 120.6 12.62 121.043 12.5092C121.49 12.3942 121.953 12.3111 122.43 12.2599C123.005 12.2003 123.472 12.147 123.83 12.1001C124.188 12.049 124.448 11.9723 124.61 11.87C124.776 11.7635 124.859 11.5994 124.859 11.3778V11.3395C124.859 10.858 124.716 10.4851 124.431 10.2209C124.145 9.95668 123.734 9.82457 123.197 9.82457C122.63 9.82457 122.181 9.94815 121.848 10.1953C121.52 10.4425 121.298 10.7344 121.183 11.071L119.023 10.7642C119.193 10.1676 119.475 9.66903 119.867 9.26847C120.259 8.86364 120.738 8.56108 121.305 8.3608C121.872 8.15625 122.498 8.05398 123.184 8.05398C123.657 8.05398 124.128 8.10938 124.597 8.22017C125.066 8.33097 125.494 8.5142 125.882 8.76989C126.269 9.02131 126.58 9.36435 126.815 9.79901C127.053 10.2337 127.173 10.777 127.173 11.429V18H124.948V16.6513H124.872C124.731 16.924 124.533 17.1797 124.277 17.4183C124.026 17.6527 123.708 17.8423 123.325 17.9872C122.945 18.1278 122.5 18.1982 121.989 18.1982ZM122.59 16.4979C123.054 16.4979 123.457 16.4062 123.798 16.223C124.139 16.0355 124.401 15.7884 124.584 15.4815C124.771 15.1747 124.865 14.8402 124.865 14.478V13.321C124.793 13.3807 124.669 13.4361 124.494 13.4872C124.324 13.5384 124.132 13.5831 123.919 13.6214C123.706 13.6598 123.495 13.6939 123.286 13.7237C123.078 13.7536 122.896 13.7791 122.743 13.8004C122.398 13.8473 122.089 13.924 121.816 14.0305C121.544 14.1371 121.328 14.2862 121.171 14.478C121.013 14.6655 120.934 14.9084 120.934 15.2067C120.934 15.6328 121.09 15.9545 121.401 16.1719C121.712 16.3892 122.108 16.4979 122.59 16.4979ZM133.964 8.18182H136.278V18.5625C136.278 19.2699 136.144 19.8537 135.876 20.3139C135.607 20.7741 135.219 21.1172 134.712 21.343C134.205 21.5689 133.589 21.6818 132.865 21.6818C132.78 21.6818 132.701 21.6797 132.628 21.6754C132.556 21.6754 132.477 21.6733 132.392 21.669V19.7834C132.456 19.7876 132.513 19.7898 132.564 19.7898C132.616 19.794 132.669 19.7962 132.724 19.7962C133.167 19.7962 133.485 19.6875 133.677 19.4702C133.868 19.2571 133.964 18.9439 133.964 18.5305V8.18182ZM135.115 6.78835C134.744 6.78835 134.427 6.6669 134.162 6.42401C133.903 6.17685 133.773 5.88068 133.773 5.53551C133.773 5.18608 133.903 4.88991 134.162 4.64702C134.427 4.39986 134.744 4.27628 135.115 4.27628C135.481 4.27628 135.795 4.39986 136.055 4.64702C136.319 4.88991 136.451 5.18608 136.451 5.53551C136.451 5.88068 136.319 6.17685 136.055 6.42401C135.795 6.6669 135.481 6.78835 135.115 6.78835ZM142.94 18.1918C141.982 18.1918 141.151 17.9808 140.447 17.5589C139.744 17.1371 139.199 16.5469 138.811 15.7884C138.428 15.0298 138.236 14.1435 138.236 13.1293C138.236 12.1151 138.428 11.2266 138.811 10.4638C139.199 9.70099 139.744 9.10866 140.447 8.68679C141.151 8.26491 141.982 8.05398 142.94 8.05398C143.899 8.05398 144.73 8.26491 145.433 8.68679C146.136 9.10866 146.68 9.70099 147.063 10.4638C147.451 11.2266 147.645 12.1151 147.645 13.1293C147.645 14.1435 147.451 15.0298 147.063 15.7884C146.68 16.5469 146.136 17.1371 145.433 17.5589C144.73 17.9808 143.899 18.1918 142.94 18.1918ZM142.953 16.3381C143.473 16.3381 143.908 16.1953 144.257 15.9098C144.607 15.62 144.866 15.2322 145.037 14.7464C145.212 14.2607 145.299 13.7195 145.299 13.1229C145.299 12.522 145.212 11.9787 145.037 11.4929C144.866 11.0028 144.607 10.6129 144.257 10.3232C143.908 10.0334 143.473 9.88849 142.953 9.88849C142.42 9.88849 141.977 10.0334 141.624 10.3232C141.274 10.6129 141.012 11.0028 140.837 11.4929C140.667 11.9787 140.582 12.522 140.582 13.1229C140.582 13.7195 140.667 14.2607 140.837 14.7464C141.012 15.2322 141.274 15.62 141.624 15.9098C141.977 16.1953 142.42 16.3381 142.953 16.3381ZM149.711 18V4.90909H152.025V9.8054H152.121C152.24 9.56676 152.409 9.31321 152.626 9.04474C152.843 8.77202 153.137 8.53977 153.508 8.34801C153.879 8.15199 154.352 8.05398 154.927 8.05398C155.686 8.05398 156.369 8.24787 156.979 8.63565C157.593 9.01918 158.078 9.58807 158.436 10.3423C158.798 11.0923 158.98 12.0128 158.98 13.1037C158.98 14.1818 158.803 15.098 158.449 15.8523C158.095 16.6065 157.614 17.1818 157.004 17.5781C156.395 17.9744 155.705 18.1726 154.933 18.1726C154.371 18.1726 153.904 18.0788 153.534 17.8913C153.163 17.7038 152.865 17.478 152.639 17.2138C152.417 16.9453 152.244 16.6918 152.121 16.4531H151.987V18H149.711ZM151.98 13.0909C151.98 13.7259 152.07 14.282 152.249 14.7592C152.432 15.2365 152.694 15.6094 153.035 15.8778C153.38 16.142 153.798 16.2741 154.288 16.2741C154.799 16.2741 155.227 16.1378 155.573 15.8651C155.918 15.5881 156.178 15.2109 156.352 14.7337C156.531 14.2521 156.621 13.7045 156.621 13.0909C156.621 12.4815 156.534 11.9403 156.359 11.4673C156.184 10.9943 155.924 10.6236 155.579 10.3551C155.234 10.0866 154.803 9.95241 154.288 9.95241C153.794 9.95241 153.374 10.0824 153.029 10.3423C152.683 10.6023 152.421 10.9666 152.242 11.4354C152.068 11.9041 151.98 12.456 151.98 13.0909ZM169.694 18.1918C168.735 18.1918 167.904 17.9808 167.201 17.5589C166.498 17.1371 165.953 16.5469 165.565 15.7884C165.181 15.0298 164.99 14.1435 164.99 13.1293C164.99 12.1151 165.181 11.2266 165.565 10.4638C165.953 9.70099 166.498 9.10866 167.201 8.68679C167.904 8.26491 168.735 8.05398 169.694 8.05398C170.653 8.05398 171.484 8.26491 172.187 8.68679C172.89 9.10866 173.434 9.70099 173.817 10.4638C174.205 11.2266 174.399 12.1151 174.399 13.1293C174.399 14.1435 174.205 15.0298 173.817 15.7884C173.434 16.5469 172.89 17.1371 172.187 17.5589C171.484 17.9808 170.653 18.1918 169.694 18.1918ZM169.707 16.3381C170.227 16.3381 170.662 16.1953 171.011 15.9098C171.36 15.62 171.62 15.2322 171.791 14.7464C171.966 14.2607 172.053 13.7195 172.053 13.1229C172.053 12.522 171.966 11.9787 171.791 11.4929C171.62 11.0028 171.36 10.6129 171.011 10.3232C170.662 10.0334 170.227 9.88849 169.707 9.88849C169.174 9.88849 168.731 10.0334 168.377 10.3232C168.028 10.6129 167.766 11.0028 167.591 11.4929C167.421 11.9787 167.336 12.522 167.336 13.1229C167.336 13.7195 167.421 14.2607 167.591 14.7464C167.766 15.2322 168.028 15.62 168.377 15.9098C168.731 16.1953 169.174 16.3381 169.707 16.3381ZM181.336 8.18182V9.97159H175.532V8.18182H181.336ZM176.983 18V7.25497C176.983 6.59446 177.119 6.04474 177.392 5.60582C177.669 5.1669 178.04 4.83878 178.504 4.62145C178.969 4.40412 179.484 4.29545 180.051 4.29545C180.452 4.29545 180.807 4.32741 181.118 4.39134C181.43 4.45526 181.66 4.51278 181.809 4.56392L181.349 6.35369C181.251 6.32386 181.127 6.29403 180.978 6.2642C180.829 6.23011 180.662 6.21307 180.479 6.21307C180.049 6.21307 179.744 6.31747 179.565 6.52628C179.39 6.73082 179.303 7.02486 179.303 7.40838V18H176.983ZM188.121 8.18182V9.97159H182.317V8.18182H188.121ZM183.768 18V7.25497C183.768 6.59446 183.904 6.04474 184.177 5.60582C184.454 5.1669 184.825 4.83878 185.289 4.62145C185.754 4.40412 186.269 4.29545 186.836 4.29545C187.237 4.29545 187.593 4.32741 187.904 4.39134C188.215 4.45526 188.445 4.51278 188.594 4.56392L188.134 6.35369C188.036 6.32386 187.912 6.29403 187.763 6.2642C187.614 6.23011 187.448 6.21307 187.264 6.21307C186.834 6.21307 186.529 6.31747 186.35 6.52628C186.176 6.73082 186.088 7.02486 186.088 7.40838V18H183.768ZM193.911 18.1918C192.926 18.1918 192.076 17.9872 191.36 17.5781C190.648 17.1648 190.101 16.581 189.717 15.8267C189.334 15.0682 189.142 14.1754 189.142 13.1484C189.142 12.1385 189.334 11.2521 189.717 10.4893C190.105 9.7223 190.646 9.12571 191.341 8.69957C192.036 8.26918 192.852 8.05398 193.789 8.05398C194.394 8.05398 194.965 8.15199 195.502 8.34801C196.043 8.53977 196.521 8.83807 196.934 9.2429C197.352 9.64773 197.68 10.1634 197.918 10.7898C198.157 11.4119 198.276 12.1534 198.276 13.0142V13.7237H190.229V12.1641H196.058C196.054 11.7209 195.958 11.3267 195.771 10.9815C195.583 10.6321 195.321 10.3572 194.984 10.157C194.652 9.95668 194.264 9.85653 193.821 9.85653C193.348 9.85653 192.933 9.97159 192.575 10.2017C192.217 10.4276 191.938 10.7259 191.737 11.0966C191.541 11.4631 191.441 11.8658 191.437 12.3047V13.6662C191.437 14.2372 191.541 14.7273 191.75 15.1364C191.959 15.5412 192.251 15.8523 192.626 16.0696C193.001 16.2827 193.44 16.3892 193.942 16.3892C194.279 16.3892 194.584 16.3423 194.857 16.2486C195.129 16.1506 195.366 16.0078 195.566 15.8203C195.766 15.6328 195.918 15.4006 196.02 15.1236L198.18 15.3665C198.044 15.9375 197.784 16.4361 197.401 16.8622C197.021 17.2841 196.536 17.6122 195.943 17.8466C195.351 18.0767 194.673 18.1918 193.911 18.1918ZM200.234 18V8.18182H202.477V9.81818H202.58C202.759 9.25142 203.066 8.81463 203.5 8.50781C203.939 8.19673 204.44 8.04119 205.002 8.04119C205.13 8.04119 205.273 8.04758 205.431 8.06037C205.593 8.06889 205.727 8.08381 205.833 8.10511V10.2337C205.735 10.1996 205.58 10.1697 205.367 10.1442C205.158 10.1143 204.955 10.0994 204.759 10.0994C204.338 10.0994 203.958 10.1911 203.622 10.3743C203.289 10.5533 203.027 10.8026 202.835 11.1222C202.644 11.4418 202.548 11.8104 202.548 12.228V18H200.234ZM216.808 8.18182V9.97159H211.004V8.18182H216.808ZM212.455 18V7.25497C212.455 6.59446 212.592 6.04474 212.865 5.60582C213.142 5.1669 213.512 4.83878 213.977 4.62145C214.441 4.40412 214.957 4.29545 215.524 4.29545C215.924 4.29545 216.28 4.32741 216.591 4.39134C216.902 4.45526 217.132 4.51278 217.281 4.56392L216.821 6.35369C216.723 6.32386 216.6 6.29403 216.45 6.2642C216.301 6.23011 216.135 6.21307 215.952 6.21307C215.521 6.21307 215.217 6.31747 215.038 6.52628C214.863 6.73082 214.776 7.02486 214.776 7.40838V18H212.455ZM222.534 18.1918C221.575 18.1918 220.744 17.9808 220.041 17.5589C219.338 17.1371 218.793 16.5469 218.405 15.7884C218.021 15.0298 217.83 14.1435 217.83 13.1293C217.83 12.1151 218.021 11.2266 218.405 10.4638C218.793 9.70099 219.338 9.10866 220.041 8.68679C220.744 8.26491 221.575 8.05398 222.534 8.05398C223.493 8.05398 224.324 8.26491 225.027 8.68679C225.73 9.10866 226.273 9.70099 226.657 10.4638C227.045 11.2266 227.239 12.1151 227.239 13.1293C227.239 14.1435 227.045 15.0298 226.657 15.7884C226.273 16.5469 225.73 17.1371 225.027 17.5589C224.324 17.9808 223.493 18.1918 222.534 18.1918ZM222.547 16.3381C223.067 16.3381 223.501 16.1953 223.851 15.9098C224.2 15.62 224.46 15.2322 224.631 14.7464C224.805 14.2607 224.893 13.7195 224.893 13.1229C224.893 12.522 224.805 11.9787 224.631 11.4929C224.46 11.0028 224.2 10.6129 223.851 10.3232C223.501 10.0334 223.067 9.88849 222.547 9.88849C222.014 9.88849 221.571 10.0334 221.217 10.3232C220.868 10.6129 220.606 11.0028 220.431 11.4929C220.261 11.9787 220.175 12.522 220.175 13.1229C220.175 13.7195 220.261 14.2607 220.431 14.7464C220.606 15.2322 220.868 15.62 221.217 15.9098C221.571 16.1953 222.014 16.3381 222.547 16.3381ZM229.203 18V8.18182H231.446V9.81818H231.548C231.727 9.25142 232.034 8.81463 232.469 8.50781C232.908 8.19673 233.409 8.04119 233.971 8.04119C234.099 8.04119 234.242 8.04758 234.399 8.06037C234.561 8.06889 234.695 8.08381 234.802 8.10511V10.2337C234.704 10.1996 234.548 10.1697 234.335 10.1442C234.127 10.1143 233.924 10.0994 233.728 10.0994C233.306 10.0994 232.927 10.1911 232.59 10.3743C232.258 10.5533 231.996 10.8026 231.804 11.1222C231.612 11.4418 231.517 11.8104 231.517 12.228V18H229.203ZM240.804 18V8.18182H243.118V18H240.804ZM241.968 6.78835C241.601 6.78835 241.286 6.6669 241.021 6.42401C240.757 6.17685 240.625 5.88068 240.625 5.53551C240.625 5.18608 240.757 4.88991 241.021 4.64702C241.286 4.39986 241.601 4.27628 241.968 4.27628C242.338 4.27628 242.654 4.39986 242.914 4.64702C243.178 4.88991 243.31 5.18608 243.31 5.53551C243.31 5.88068 243.178 6.17685 242.914 6.42401C242.654 6.6669 242.338 6.78835 241.968 6.78835ZM245.498 18V8.18182H247.709V9.85014H247.824C248.029 9.28764 248.368 8.84872 248.841 8.53338C249.314 8.21378 249.878 8.05398 250.534 8.05398C251.199 8.05398 251.76 8.21591 252.216 8.53977C252.676 8.85937 253 9.29616 253.187 9.85014H253.289C253.507 9.30469 253.873 8.87003 254.389 8.54616C254.909 8.21804 255.525 8.05398 256.236 8.05398C257.14 8.05398 257.877 8.33949 258.448 8.91051C259.019 9.48153 259.304 10.3146 259.304 11.4098V18H256.984V11.7678C256.984 11.1584 256.822 10.7131 256.498 10.4318C256.174 10.1463 255.778 10.0036 255.309 10.0036C254.751 10.0036 254.314 10.1783 253.999 10.5277C253.688 10.8729 253.532 11.3224 253.532 11.8764V18H251.263V11.6719C251.263 11.1648 251.11 10.7599 250.803 10.4574C250.5 10.1548 250.104 10.0036 249.614 10.0036C249.282 10.0036 248.979 10.0888 248.706 10.2592C248.434 10.4254 248.216 10.6619 248.054 10.9688C247.892 11.2713 247.811 11.625 247.811 12.0298V18H245.498ZM261.652 18V8.18182H263.863V9.85014H263.979C264.183 9.28764 264.522 8.84872 264.995 8.53338C265.468 8.21378 266.032 8.05398 266.689 8.05398C267.354 8.05398 267.914 8.21591 268.37 8.53977C268.83 8.85937 269.154 9.29616 269.341 9.85014H269.444C269.661 9.30469 270.028 8.87003 270.543 8.54616C271.063 8.21804 271.679 8.05398 272.39 8.05398C273.294 8.05398 274.031 8.33949 274.602 8.91051C275.173 9.48153 275.459 10.3146 275.459 11.4098V18H273.138V11.7678C273.138 11.1584 272.976 10.7131 272.653 10.4318C272.329 10.1463 271.932 10.0036 271.464 10.0036C270.905 10.0036 270.469 10.1783 270.153 10.5277C269.842 10.8729 269.687 11.3224 269.687 11.8764V18H267.417V11.6719C267.417 11.1648 267.264 10.7599 266.957 10.4574C266.655 10.1548 266.258 10.0036 265.768 10.0036C265.436 10.0036 265.133 10.0888 264.861 10.2592C264.588 10.4254 264.371 10.6619 264.209 10.9688C264.047 11.2713 263.966 11.625 263.966 12.0298V18H261.652ZM277.806 18V8.18182H280.12V18H277.806ZM278.969 6.78835C278.603 6.78835 278.288 6.6669 278.023 6.42401C277.759 6.17685 277.627 5.88068 277.627 5.53551C277.627 5.18608 277.759 4.88991 278.023 4.64702C278.288 4.39986 278.603 4.27628 278.969 4.27628C279.34 4.27628 279.656 4.39986 279.915 4.64702C280.18 4.88991 280.312 5.18608 280.312 5.53551C280.312 5.88068 280.18 6.17685 279.915 6.42401C279.656 6.6669 279.34 6.78835 278.969 6.78835ZM286.769 21.8864C285.938 21.8864 285.225 21.7734 284.628 21.5476C284.031 21.326 283.552 21.0277 283.19 20.6527C282.828 20.2777 282.576 19.8622 282.436 19.4062L284.519 18.9013C284.613 19.093 284.749 19.2827 284.928 19.4702C285.107 19.6619 285.348 19.8196 285.651 19.9432C285.958 20.071 286.343 20.1349 286.808 20.1349C287.464 20.1349 288.007 19.9751 288.438 19.6555C288.868 19.3402 289.083 18.8203 289.083 18.0959V16.2358H288.968C288.849 16.4744 288.674 16.7195 288.444 16.9709C288.218 17.2223 287.918 17.4332 287.543 17.6037C287.172 17.7741 286.705 17.8594 286.143 17.8594C285.389 17.8594 284.705 17.6825 284.091 17.3288C283.482 16.9709 282.996 16.4382 282.634 15.7308C282.276 15.0192 282.097 14.1286 282.097 13.0589C282.097 11.9808 282.276 11.071 282.634 10.3295C282.996 9.58381 283.484 9.01918 284.097 8.63565C284.711 8.24787 285.395 8.05398 286.149 8.05398C286.725 8.05398 287.198 8.15199 287.568 8.34801C287.943 8.53977 288.242 8.77202 288.463 9.04474C288.685 9.31321 288.853 9.56676 288.968 9.8054H289.096V8.18182H291.378V18.1598C291.378 18.9993 291.178 19.6939 290.777 20.2436C290.377 20.7933 289.829 21.2045 289.134 21.4773C288.44 21.75 287.651 21.8864 286.769 21.8864ZM286.789 16.044C287.279 16.044 287.696 15.9247 288.041 15.6861C288.387 15.4474 288.649 15.1044 288.828 14.657C289.007 14.2095 289.096 13.6726 289.096 13.0462C289.096 12.4283 289.007 11.8871 288.828 11.4226C288.653 10.9581 288.393 10.598 288.048 10.3423C287.707 10.0824 287.287 9.95241 286.789 9.95241C286.273 9.95241 285.843 10.0866 285.497 10.3551C285.152 10.6236 284.892 10.9922 284.718 11.4609C284.543 11.9254 284.455 12.4538 284.455 13.0462C284.455 13.647 284.543 14.1733 284.718 14.625C284.896 15.0724 285.159 15.4219 285.504 15.6733C285.853 15.9205 286.281 16.044 286.789 16.044ZM293.749 18V8.18182H295.993V9.81818H296.095C296.274 9.25142 296.581 8.81463 297.016 8.50781C297.455 8.19673 297.955 8.04119 298.518 8.04119C298.646 8.04119 298.789 8.04758 298.946 8.06037C299.108 8.06889 299.242 8.08381 299.349 8.10511V10.2337C299.251 10.1996 299.095 10.1697 298.882 10.1442C298.673 10.1143 298.471 10.0994 298.275 10.0994C297.853 10.0994 297.474 10.1911 297.137 10.3743C296.805 10.5533 296.543 10.8026 296.351 11.1222C296.159 11.4418 296.063 11.8104 296.063 12.228V18H293.749ZM303.536 18.1982C302.914 18.1982 302.353 18.0874 301.855 17.8658C301.36 17.6399 300.968 17.3075 300.678 16.8686C300.393 16.4297 300.25 15.8885 300.25 15.245C300.25 14.6911 300.352 14.233 300.557 13.8707C300.762 13.5085 301.041 13.2188 301.394 13.0014C301.748 12.7841 302.146 12.62 302.59 12.5092C303.037 12.3942 303.499 12.3111 303.977 12.2599C304.552 12.2003 305.019 12.147 305.377 12.1001C305.735 12.049 305.994 11.9723 306.156 11.87C306.323 11.7635 306.406 11.5994 306.406 11.3778V11.3395C306.406 10.858 306.263 10.4851 305.977 10.2209C305.692 9.95668 305.281 9.82457 304.744 9.82457C304.177 9.82457 303.727 9.94815 303.395 10.1953C303.067 10.4425 302.845 10.7344 302.73 11.071L300.57 10.7642C300.74 10.1676 301.021 9.66903 301.414 9.26847C301.806 8.86364 302.285 8.56108 302.852 8.3608C303.419 8.15625 304.045 8.05398 304.731 8.05398C305.204 8.05398 305.675 8.10938 306.144 8.22017C306.612 8.33097 307.041 8.5142 307.428 8.76989C307.816 9.02131 308.127 9.36435 308.362 9.79901C308.6 10.2337 308.72 10.777 308.72 11.429V18H306.495V16.6513H306.419C306.278 16.924 306.08 17.1797 305.824 17.4183C305.573 17.6527 305.255 17.8423 304.872 17.9872C304.492 18.1278 304.047 18.1982 303.536 18.1982ZM304.137 16.4979C304.601 16.4979 305.004 16.4062 305.345 16.223C305.686 16.0355 305.948 15.7884 306.131 15.4815C306.318 15.1747 306.412 14.8402 306.412 14.478V13.321C306.34 13.3807 306.216 13.4361 306.041 13.4872C305.871 13.5384 305.679 13.5831 305.466 13.6214C305.253 13.6598 305.042 13.6939 304.833 13.7237C304.624 13.7536 304.443 13.7791 304.29 13.8004C303.945 13.8473 303.636 13.924 303.363 14.0305C303.09 14.1371 302.875 14.2862 302.718 14.478C302.56 14.6655 302.481 14.9084 302.481 15.2067C302.481 15.6328 302.637 15.9545 302.948 16.1719C303.259 16.3892 303.655 16.4979 304.137 16.4979ZM315.949 8.18182V9.97159H310.305V8.18182H315.949ZM311.698 5.82955H314.012V15.0469C314.012 15.358 314.059 15.5966 314.153 15.7628C314.251 15.9247 314.379 16.0355 314.536 16.0952C314.694 16.1548 314.869 16.1847 315.061 16.1847C315.205 16.1847 315.338 16.174 315.457 16.1527C315.58 16.1314 315.674 16.1122 315.738 16.0952L316.128 17.9041C316.004 17.9467 315.828 17.9936 315.597 18.0447C315.372 18.0959 315.095 18.1257 314.767 18.1342C314.187 18.1513 313.665 18.0639 313.2 17.8722C312.736 17.6761 312.367 17.3736 312.095 16.9645C311.826 16.5554 311.694 16.044 311.698 15.4304V5.82955ZM317.884 18V8.18182H320.198V18H317.884ZM319.048 6.78835C318.681 6.78835 318.366 6.6669 318.102 6.42401C317.837 6.17685 317.705 5.88068 317.705 5.53551C317.705 5.18608 317.837 4.88991 318.102 4.64702C318.366 4.39986 318.681 4.27628 319.048 4.27628C319.418 4.27628 319.734 4.39986 319.994 4.64702C320.258 4.88991 320.39 5.18608 320.39 5.53551C320.39 5.88068 320.258 6.17685 319.994 6.42401C319.734 6.6669 319.418 6.78835 319.048 6.78835ZM326.86 18.1918C325.901 18.1918 325.07 17.9808 324.367 17.5589C323.664 17.1371 323.119 16.5469 322.731 15.7884C322.347 15.0298 322.156 14.1435 322.156 13.1293C322.156 12.1151 322.347 11.2266 322.731 10.4638C323.119 9.70099 323.664 9.10866 324.367 8.68679C325.07 8.26491 325.901 8.05398 326.86 8.05398C327.819 8.05398 328.65 8.26491 329.353 8.68679C330.056 9.10866 330.6 9.70099 330.983 10.4638C331.371 11.2266 331.565 12.1151 331.565 13.1293C331.565 14.1435 331.371 15.0298 330.983 15.7884C330.6 16.5469 330.056 17.1371 329.353 17.5589C328.65 17.9808 327.819 18.1918 326.86 18.1918ZM326.873 16.3381C327.393 16.3381 327.828 16.1953 328.177 15.9098C328.526 15.62 328.786 15.2322 328.957 14.7464C329.132 14.2607 329.219 13.7195 329.219 13.1229C329.219 12.522 329.132 11.9787 328.957 11.4929C328.786 11.0028 328.526 10.6129 328.177 10.3232C327.828 10.0334 327.393 9.88849 326.873 9.88849C326.34 9.88849 325.897 10.0334 325.544 10.3232C325.194 10.6129 324.932 11.0028 324.757 11.4929C324.587 11.9787 324.502 12.522 324.502 13.1229C324.502 13.7195 324.587 14.2607 324.757 14.7464C324.932 15.2322 325.194 15.62 325.544 15.9098C325.897 16.1953 326.34 16.3381 326.873 16.3381ZM335.843 12.2472V18H333.529V8.18182H335.74V9.85014H335.855C336.081 9.30043 336.441 8.86364 336.936 8.53977C337.434 8.21591 338.05 8.05398 338.783 8.05398C339.461 8.05398 340.051 8.19886 340.554 8.48864C341.061 8.77841 341.453 9.19815 341.73 9.74787C342.011 10.2976 342.15 10.9645 342.145 11.7486V18H339.831V12.1065C339.831 11.4503 339.661 10.9368 339.32 10.5661C338.983 10.1953 338.517 10.0099 337.92 10.0099C337.515 10.0099 337.155 10.0994 336.84 10.2784C336.529 10.4531 336.284 10.7067 336.105 11.0391C335.93 11.3714 335.843 11.7741 335.843 12.2472ZM346.709 14.152V13.9858C346.713 13.2145 346.786 12.6009 346.926 12.1449C347.071 11.6889 347.276 11.3224 347.54 11.0455C347.804 10.7642 348.126 10.5064 348.505 10.272C348.765 10.1101 348.998 9.93324 349.202 9.74148C349.411 9.54545 349.575 9.32812 349.694 9.08949C349.814 8.84659 349.873 8.57599 349.873 8.2777C349.873 7.94105 349.794 7.64915 349.637 7.40199C349.479 7.15483 349.266 6.96307 348.998 6.8267C348.733 6.69034 348.437 6.62216 348.109 6.62216C347.806 6.62216 347.519 6.68821 347.246 6.82031C346.978 6.94815 346.754 7.14418 346.575 7.40838C346.4 7.66832 346.302 7.99858 346.281 8.39915H344.005C344.027 7.58949 344.223 6.91193 344.593 6.36648C344.968 5.82102 345.463 5.41193 346.076 5.1392C346.694 4.86648 347.376 4.73011 348.122 4.73011C348.936 4.73011 349.652 4.87287 350.27 5.15838C350.892 5.44389 351.375 5.85085 351.721 6.37926C352.07 6.90341 352.245 7.52557 352.245 8.24574C352.245 8.73153 352.166 9.16619 352.008 9.54972C351.855 9.93324 351.635 10.2741 351.35 10.5724C351.064 10.8707 350.725 11.1371 350.333 11.3714C349.988 11.5845 349.705 11.8061 349.483 12.0362C349.266 12.2663 349.104 12.5369 348.998 12.848C348.895 13.1548 348.842 13.5341 348.838 13.9858V14.152H346.709ZM347.821 18.1406C347.438 18.1406 347.108 18.0043 346.831 17.7315C346.554 17.4588 346.415 17.1264 346.415 16.7344C346.415 16.3509 346.554 16.0227 346.831 15.75C347.108 15.4773 347.438 15.3409 347.821 15.3409C348.201 15.3409 348.529 15.4773 348.806 15.75C349.087 16.0227 349.228 16.3509 349.228 16.7344C349.228 16.9943 349.162 17.2308 349.029 17.4439C348.902 17.657 348.731 17.8274 348.518 17.9553C348.309 18.0788 348.077 18.1406 347.821 18.1406Z" fill="#1B1139"/>
<rect opacity="0.8" y="8.5" width="18" height="3" rx="1.5" fill="#1B1139"/>
<rect opacity="0.8" x="10.5" y="1" width="18" height="3" rx="1.5" transform="rotate(90 10.5 1)" fill="#1B1139"/>
</svg>
