<svg width="595" height="143" viewBox="0 0 595 143" fill="none" xmlns="http://www.w3.org/2000/svg">
<g filter="url(#filter0_d_125_1158)">
<rect x="18.0078" width="558" height="100" rx="4.91124" fill="white"/>
</g>
<path opacity="0.88" d="M89.299 55V41.9091H91.6705V47.451H97.7365V41.9091H100.114V55H97.7365V49.4389H91.6705V55H89.299ZM106.874 55.1918C105.915 55.1918 105.084 54.9808 104.381 54.5589C103.678 54.1371 103.132 53.5469 102.745 52.7884C102.361 52.0298 102.169 51.1435 102.169 50.1293C102.169 49.1151 102.361 48.2266 102.745 47.4638C103.132 46.701 103.678 46.1087 104.381 45.6868C105.084 45.2649 105.915 45.054 106.874 45.054C107.833 45.054 108.664 45.2649 109.367 45.6868C110.07 46.1087 110.613 46.701 110.997 47.4638C111.385 48.2266 111.578 49.1151 111.578 50.1293C111.578 51.1435 111.385 52.0298 110.997 52.7884C110.613 53.5469 110.07 54.1371 109.367 54.5589C108.664 54.9808 107.833 55.1918 106.874 55.1918ZM106.887 53.3381C107.407 53.3381 107.841 53.1953 108.191 52.9098C108.54 52.62 108.8 52.2322 108.971 51.7464C109.145 51.2607 109.233 50.7195 109.233 50.1229C109.233 49.522 109.145 48.9787 108.971 48.4929C108.8 48.0028 108.54 47.6129 108.191 47.3232C107.841 47.0334 107.407 46.8885 106.887 46.8885C106.354 46.8885 105.911 47.0334 105.557 47.3232C105.208 47.6129 104.946 48.0028 104.771 48.4929C104.6 48.9787 104.515 49.522 104.515 50.1229C104.515 50.7195 104.6 51.2607 104.771 51.7464C104.946 52.2322 105.208 52.62 105.557 52.9098C105.911 53.1953 106.354 53.3381 106.887 53.3381ZM115.287 55L112.513 45.1818H114.872L116.598 52.0852H116.687L118.452 45.1818H120.785L122.549 52.0469H122.645L124.345 45.1818H126.71L123.93 55H121.52L119.679 48.3651H119.545L117.704 55H115.287ZM136.434 55.1726C135.663 55.1726 134.972 54.9744 134.363 54.5781C133.754 54.1818 133.272 53.6065 132.918 52.8523C132.565 52.098 132.388 51.1818 132.388 50.1037C132.388 49.0128 132.567 48.0923 132.925 47.3423C133.287 46.5881 133.775 46.0192 134.388 45.6357C135.002 45.2479 135.686 45.054 136.44 45.054C137.016 45.054 137.489 45.152 137.859 45.348C138.23 45.5398 138.524 45.772 138.741 46.0447C138.959 46.3132 139.127 46.5668 139.246 46.8054H139.342V41.9091H141.663V55H139.387V53.4531H139.246C139.127 53.6918 138.955 53.9453 138.729 54.2138C138.503 54.478 138.205 54.7038 137.834 54.8913C137.463 55.0788 136.996 55.1726 136.434 55.1726ZM137.08 53.2741C137.57 53.2741 137.987 53.142 138.332 52.8778C138.678 52.6094 138.94 52.2365 139.119 51.7592C139.298 51.282 139.387 50.7259 139.387 50.0909C139.387 49.456 139.298 48.9041 139.119 48.4354C138.944 47.9666 138.684 47.6023 138.339 47.3423C137.998 47.0824 137.578 46.9524 137.08 46.9524C136.564 46.9524 136.134 47.0866 135.788 47.3551C135.443 47.6236 135.183 47.9943 135.009 48.4673C134.834 48.9403 134.746 49.4815 134.746 50.0909C134.746 50.7045 134.834 51.2521 135.009 51.7337C135.188 52.2109 135.45 52.5881 135.795 52.8651C136.144 53.1378 136.572 53.2741 137.08 53.2741ZM148.411 55.1918C147.452 55.1918 146.621 54.9808 145.918 54.5589C145.215 54.1371 144.67 53.5469 144.282 52.7884C143.898 52.0298 143.706 51.1435 143.706 50.1293C143.706 49.1151 143.898 48.2266 144.282 47.4638C144.67 46.701 145.215 46.1087 145.918 45.6868C146.621 45.2649 147.452 45.054 148.411 45.054C149.37 45.054 150.201 45.2649 150.904 45.6868C151.607 46.1087 152.15 46.701 152.534 47.4638C152.922 48.2266 153.116 49.1151 153.116 50.1293C153.116 51.1435 152.922 52.0298 152.534 52.7884C152.15 53.5469 151.607 54.1371 150.904 54.5589C150.201 54.9808 149.37 55.1918 148.411 55.1918ZM148.424 53.3381C148.944 53.3381 149.378 53.1953 149.728 52.9098C150.077 52.62 150.337 52.2322 150.508 51.7464C150.682 51.2607 150.77 50.7195 150.77 50.1229C150.77 49.522 150.682 48.9787 150.508 48.4929C150.337 48.0028 150.077 47.6129 149.728 47.3232C149.378 47.0334 148.944 46.8885 148.424 46.8885C147.891 46.8885 147.448 47.0334 147.094 47.3232C146.745 47.6129 146.483 48.0028 146.308 48.4929C146.138 48.9787 146.052 49.522 146.052 50.1229C146.052 50.7195 146.138 51.2607 146.308 51.7464C146.483 52.2322 146.745 52.62 147.094 52.9098C147.448 53.1953 147.891 53.3381 148.424 53.3381ZM162.018 41.9091V55H159.647V41.9091H162.018ZM171.058 51.919L171.052 49.1257H171.422L174.951 45.1818H177.655L173.314 50.0142H172.835L171.058 51.919ZM168.949 55V41.9091H171.263V55H168.949ZM175.111 55L171.915 50.532L173.474 48.902L177.878 55H175.111ZM181.511 49.2472V55H179.197V45.1818H181.408V46.8501H181.523C181.749 46.3004 182.109 45.8636 182.604 45.5398C183.102 45.2159 183.718 45.054 184.451 45.054C185.129 45.054 185.719 45.1989 186.222 45.4886C186.729 45.7784 187.121 46.1982 187.398 46.7479C187.679 47.2976 187.817 47.9645 187.813 48.7486V55H185.499V49.1065C185.499 48.4503 185.329 47.9368 184.988 47.5661C184.651 47.1953 184.185 47.0099 183.588 47.0099C183.183 47.0099 182.823 47.0994 182.508 47.2784C182.197 47.4531 181.952 47.7067 181.773 48.0391C181.598 48.3714 181.511 48.7741 181.511 49.2472ZM194.448 55.1918C193.489 55.1918 192.658 54.9808 191.955 54.5589C191.252 54.1371 190.707 53.5469 190.319 52.7884C189.935 52.0298 189.744 51.1435 189.744 50.1293C189.744 49.1151 189.935 48.2266 190.319 47.4638C190.707 46.701 191.252 46.1087 191.955 45.6868C192.658 45.2649 193.489 45.054 194.448 45.054C195.407 45.054 196.238 45.2649 196.941 45.6868C197.644 46.1087 198.188 46.701 198.571 47.4638C198.959 48.2266 199.153 49.1151 199.153 50.1293C199.153 51.1435 198.959 52.0298 198.571 52.7884C198.188 53.5469 197.644 54.1371 196.941 54.5589C196.238 54.9808 195.407 55.1918 194.448 55.1918ZM194.461 53.3381C194.981 53.3381 195.415 53.1953 195.765 52.9098C196.114 52.62 196.374 52.2322 196.545 51.7464C196.719 51.2607 196.807 50.7195 196.807 50.1229C196.807 49.522 196.719 48.9787 196.545 48.4929C196.374 48.0028 196.114 47.6129 195.765 47.3232C195.415 47.0334 194.981 46.8885 194.461 46.8885C193.928 46.8885 193.485 47.0334 193.131 47.3232C192.782 47.6129 192.52 48.0028 192.345 48.4929C192.175 48.9787 192.089 49.522 192.089 50.1229C192.089 50.7195 192.175 51.2607 192.345 51.7464C192.52 52.2322 192.782 52.62 193.131 52.9098C193.485 53.1953 193.928 53.3381 194.461 53.3381ZM202.862 55L200.088 45.1818H202.446L204.172 52.0852H204.262L206.026 45.1818H208.359L210.123 52.0469H210.219L211.919 45.1818H214.284L211.504 55H209.094L207.253 48.3651H207.119L205.278 55H202.862ZM220.365 55V45.1818H222.679V55H220.365ZM221.528 43.7884C221.162 43.7884 220.846 43.6669 220.582 43.424C220.318 43.1768 220.186 42.8807 220.186 42.5355C220.186 42.1861 220.318 41.8899 220.582 41.647C220.846 41.3999 221.162 41.2763 221.528 41.2763C221.899 41.2763 222.214 41.3999 222.474 41.647C222.738 41.8899 222.87 42.1861 222.87 42.5355C222.87 42.8807 222.738 43.1768 222.474 43.424C222.214 43.6669 221.899 43.7884 221.528 43.7884ZM230.031 45.1818V46.9716H224.227V45.1818H230.031ZM225.678 55V44.255C225.678 43.5945 225.814 43.0447 226.087 42.6058C226.364 42.1669 226.735 41.8388 227.199 41.6214C227.664 41.4041 228.18 41.2955 228.746 41.2955C229.147 41.2955 229.503 41.3274 229.814 41.3913C230.125 41.4553 230.355 41.5128 230.504 41.5639L230.044 43.3537C229.946 43.3239 229.822 43.294 229.673 43.2642C229.524 43.2301 229.358 43.2131 229.175 43.2131C228.744 43.2131 228.439 43.3175 228.26 43.5263C228.086 43.7308 227.998 44.0249 227.998 44.4084V55H225.678ZM238.782 41.9091V55H236.41V41.9091H238.782ZM252.264 58.6818V53.4531H252.168C252.049 53.6918 251.876 53.9453 251.651 54.2138C251.425 54.478 251.126 54.7038 250.756 54.8913C250.385 55.0788 249.918 55.1726 249.356 55.1726C248.585 55.1726 247.894 54.9744 247.285 54.5781C246.675 54.1818 246.194 53.6065 245.84 52.8523C245.487 52.098 245.31 51.1818 245.31 50.1037C245.31 49.0128 245.489 48.0923 245.847 47.3423C246.209 46.5881 246.697 46.0192 247.31 45.6357C247.924 45.2479 248.608 45.054 249.362 45.054C249.938 45.054 250.411 45.152 250.781 45.348C251.152 45.5398 251.446 45.772 251.663 46.0447C251.881 46.3132 252.049 46.5668 252.168 46.8054H252.309V45.1818H254.585V58.6818H252.264ZM250.001 53.2741C250.491 53.2741 250.909 53.142 251.254 52.8778C251.599 52.6094 251.862 52.2365 252.04 51.7592C252.219 51.282 252.309 50.7259 252.309 50.0909C252.309 49.456 252.219 48.9041 252.04 48.4354C251.866 47.9666 251.606 47.6023 251.261 47.3423C250.92 47.0824 250.5 46.9524 250.001 46.9524C249.486 46.9524 249.055 47.0866 248.71 47.3551C248.365 47.6236 248.105 47.9943 247.93 48.4673C247.756 48.9403 247.668 49.4815 247.668 50.0909C247.668 50.7045 247.756 51.2521 247.93 51.7337C248.109 52.2109 248.371 52.5881 248.717 52.8651C249.066 53.1378 249.494 53.2741 250.001 53.2741ZM263.22 50.8707V45.1818H265.534V55H263.29V53.255H263.188C262.967 53.8047 262.602 54.2543 262.095 54.6037C261.592 54.9531 260.972 55.1278 260.235 55.1278C259.592 55.1278 259.023 54.9851 258.528 54.6996C258.038 54.4098 257.655 53.9901 257.378 53.4403C257.101 52.8864 256.962 52.2173 256.962 51.4332V45.1818H259.276V51.0753C259.276 51.6974 259.447 52.1918 259.788 52.5582C260.129 52.9247 260.576 53.108 261.13 53.108C261.471 53.108 261.801 53.0249 262.121 52.8587C262.44 52.6925 262.702 52.4453 262.907 52.1172C263.116 51.7848 263.22 51.3693 263.22 50.8707ZM270.739 55.1982C270.117 55.1982 269.556 55.0874 269.058 54.8658C268.563 54.6399 268.171 54.3075 267.882 53.8686C267.596 53.4297 267.453 52.8885 267.453 52.245C267.453 51.6911 267.556 51.233 267.76 50.8707C267.965 50.5085 268.244 50.2188 268.597 50.0014C268.951 49.7841 269.35 49.62 269.793 49.5092C270.24 49.3942 270.703 49.3111 271.18 49.2599C271.755 49.2003 272.222 49.147 272.58 49.1001C272.938 49.049 273.198 48.9723 273.36 48.87C273.526 48.7635 273.609 48.5994 273.609 48.3778V48.3395C273.609 47.858 273.466 47.4851 273.181 47.2209C272.895 46.9567 272.484 46.8246 271.947 46.8246C271.38 46.8246 270.931 46.9482 270.598 47.1953C270.27 47.4425 270.048 47.7344 269.933 48.071L267.773 47.7642C267.943 47.1676 268.225 46.669 268.617 46.2685C269.009 45.8636 269.488 45.5611 270.055 45.3608C270.622 45.1562 271.248 45.054 271.934 45.054C272.407 45.054 272.878 45.1094 273.347 45.2202C273.816 45.331 274.244 45.5142 274.632 45.7699C275.019 46.0213 275.33 46.3643 275.565 46.799C275.803 47.2337 275.923 47.777 275.923 48.429V55H273.698V53.6513H273.622C273.481 53.924 273.283 54.1797 273.027 54.4183C272.776 54.6527 272.458 54.8423 272.075 54.9872C271.695 55.1278 271.25 55.1982 270.739 55.1982ZM271.34 53.4979C271.804 53.4979 272.207 53.4062 272.548 53.223C272.889 53.0355 273.151 52.7884 273.334 52.4815C273.521 52.1747 273.615 51.8402 273.615 51.478V50.321C273.543 50.3807 273.419 50.4361 273.244 50.4872C273.074 50.5384 272.882 50.5831 272.669 50.6214C272.456 50.6598 272.245 50.6939 272.036 50.7237C271.828 50.7536 271.646 50.7791 271.493 50.8004C271.148 50.8473 270.839 50.924 270.566 51.0305C270.294 51.1371 270.078 51.2862 269.921 51.478C269.763 51.6655 269.684 51.9084 269.684 52.2067C269.684 52.6328 269.84 52.9545 270.151 53.1719C270.462 53.3892 270.858 53.4979 271.34 53.4979ZM280.563 41.9091V55H278.249V41.9091H280.563ZM282.943 55V45.1818H285.257V55H282.943ZM284.106 43.7884C283.74 43.7884 283.424 43.6669 283.16 43.424C282.896 43.1768 282.764 42.8807 282.764 42.5355C282.764 42.1861 282.896 41.8899 283.16 41.647C283.424 41.3999 283.74 41.2763 284.106 41.2763C284.477 41.2763 284.792 41.3999 285.052 41.647C285.316 41.8899 285.449 42.1861 285.449 42.5355C285.449 42.8807 285.316 43.1768 285.052 43.424C284.792 43.6669 284.477 43.7884 284.106 43.7884ZM292.609 45.1818V46.9716H286.805V45.1818H292.609ZM288.256 55V44.255C288.256 43.5945 288.393 43.0447 288.665 42.6058C288.942 42.1669 289.313 41.8388 289.778 41.6214C290.242 41.4041 290.758 41.2955 291.324 41.2955C291.725 41.2955 292.081 41.3274 292.392 41.3913C292.703 41.4553 292.933 41.5128 293.082 41.5639L292.622 43.3537C292.524 43.3239 292.4 43.294 292.251 43.2642C292.102 43.2301 291.936 43.2131 291.753 43.2131C291.322 43.2131 291.018 43.3175 290.839 43.5263C290.664 43.7308 290.577 44.0249 290.577 44.4084V55H288.256ZM295.86 58.6818C295.544 58.6818 295.252 58.6563 294.984 58.6051C294.72 58.5582 294.509 58.5028 294.351 58.4389L294.888 56.6364C295.225 56.7344 295.525 56.7813 295.789 56.777C296.053 56.7727 296.286 56.6896 296.486 56.5277C296.691 56.37 296.863 56.1058 297.004 55.7351L297.202 55.2045L293.642 45.1818H296.096L298.359 52.5966H298.461L300.73 45.1818H303.191L299.26 56.1889C299.077 56.7088 298.834 57.1541 298.531 57.5249C298.229 57.8999 297.858 58.1854 297.419 58.3814C296.985 58.5817 296.465 58.6818 295.86 58.6818ZM314.23 45.1818V46.9716H308.426V45.1818H314.23ZM309.877 55V44.255C309.877 43.5945 310.014 43.0447 310.286 42.6058C310.563 42.1669 310.934 41.8388 311.399 41.6214C311.863 41.4041 312.379 41.2955 312.945 41.2955C313.346 41.2955 313.702 41.3274 314.013 41.3913C314.324 41.4553 314.554 41.5128 314.703 41.5639L314.243 43.3537C314.145 43.3239 314.021 43.294 313.872 43.2642C313.723 43.2301 313.557 43.2131 313.374 43.2131C312.943 43.2131 312.639 43.3175 312.46 43.5263C312.285 43.7308 312.198 44.0249 312.198 44.4084V55H309.877ZM319.956 55.1918C318.997 55.1918 318.166 54.9808 317.463 54.5589C316.76 54.1371 316.214 53.5469 315.827 52.7884C315.443 52.0298 315.251 51.1435 315.251 50.1293C315.251 49.1151 315.443 48.2266 315.827 47.4638C316.214 46.701 316.76 46.1087 317.463 45.6868C318.166 45.2649 318.997 45.054 319.956 45.054C320.915 45.054 321.746 45.2649 322.449 45.6868C323.152 46.1087 323.695 46.701 324.079 47.4638C324.467 48.2266 324.661 49.1151 324.661 50.1293C324.661 51.1435 324.467 52.0298 324.079 52.7884C323.695 53.5469 323.152 54.1371 322.449 54.5589C321.746 54.9808 320.915 55.1918 319.956 55.1918ZM319.969 53.3381C320.489 53.3381 320.923 53.1953 321.273 52.9098C321.622 52.62 321.882 52.2322 322.053 51.7464C322.227 51.2607 322.315 50.7195 322.315 50.1229C322.315 49.522 322.227 48.9787 322.053 48.4929C321.882 48.0028 321.622 47.6129 321.273 47.3232C320.923 47.0334 320.489 46.8885 319.969 46.8885C319.436 46.8885 318.993 47.0334 318.639 47.3232C318.29 47.6129 318.028 48.0028 317.853 48.4929C317.683 48.9787 317.597 49.522 317.597 50.1229C317.597 50.7195 317.683 51.2607 317.853 51.7464C318.028 52.2322 318.29 52.62 318.639 52.9098C318.993 53.1953 319.436 53.3381 319.969 53.3381ZM326.624 55V45.1818H328.868V46.8182H328.97C329.149 46.2514 329.456 45.8146 329.891 45.5078C330.33 45.1967 330.83 45.0412 331.393 45.0412C331.521 45.0412 331.664 45.0476 331.821 45.0604C331.983 45.0689 332.117 45.0838 332.224 45.1051V47.2337C332.126 47.1996 331.97 47.1697 331.757 47.1442C331.548 47.1143 331.346 47.0994 331.15 47.0994C330.728 47.0994 330.349 47.1911 330.012 47.3743C329.68 47.5533 329.418 47.8026 329.226 48.1222C329.034 48.4418 328.938 48.8104 328.938 49.228V55H326.624ZM343.129 45.1818V46.9716H337.485V45.1818H343.129ZM338.878 42.8295H341.192V52.0469C341.192 52.358 341.239 52.5966 341.333 52.7628C341.431 52.9247 341.558 53.0355 341.716 53.0952C341.874 53.1548 342.048 53.1847 342.24 53.1847C342.385 53.1847 342.517 53.174 342.637 53.1527C342.76 53.1314 342.854 53.1122 342.918 53.0952L343.308 54.9041C343.184 54.9467 343.007 54.9936 342.777 55.0447C342.551 55.0959 342.274 55.1257 341.946 55.1342C341.367 55.1513 340.845 55.0639 340.38 54.8722C339.916 54.6761 339.547 54.3736 339.274 53.9645C339.006 53.5554 338.874 53.044 338.878 52.4304V42.8295ZM347.589 49.2472V55H345.275V41.9091H347.538V46.8501H347.653C347.883 46.2962 348.239 45.8594 348.72 45.5398C349.206 45.2159 349.824 45.054 350.574 45.054C351.256 45.054 351.85 45.1967 352.357 45.4822C352.864 45.7678 353.256 46.1854 353.533 46.7351C353.815 47.2848 353.955 47.956 353.955 48.7486V55H351.641V49.1065C351.641 48.446 351.471 47.9325 351.13 47.5661C350.793 47.1953 350.32 47.0099 349.711 47.0099C349.302 47.0099 348.935 47.0994 348.612 47.2784C348.292 47.4531 348.04 47.7067 347.857 48.0391C347.678 48.3714 347.589 48.7741 347.589 49.2472ZM360.661 55.1918C359.676 55.1918 358.826 54.9872 358.11 54.5781C357.398 54.1648 356.851 53.581 356.467 52.8267C356.084 52.0682 355.892 51.1754 355.892 50.1484C355.892 49.1385 356.084 48.2521 356.467 47.4893C356.855 46.7223 357.396 46.1257 358.091 45.6996C358.786 45.2692 359.602 45.054 360.539 45.054C361.144 45.054 361.715 45.152 362.252 45.348C362.793 45.5398 363.271 45.8381 363.684 46.2429C364.102 46.6477 364.43 47.1634 364.668 47.7898C364.907 48.4119 365.026 49.1534 365.026 50.0142V50.7237H356.979V49.1641H362.808C362.804 48.7209 362.708 48.3267 362.521 47.9815C362.333 47.6321 362.071 47.3572 361.734 47.157C361.402 46.9567 361.014 46.8565 360.571 46.8565C360.098 46.8565 359.683 46.9716 359.325 47.2017C358.967 47.4276 358.688 47.7259 358.487 48.0966C358.291 48.4631 358.191 48.8658 358.187 49.3047V50.6662C358.187 51.2372 358.291 51.7273 358.5 52.1364C358.709 52.5412 359.001 52.8523 359.376 53.0696C359.751 53.2827 360.19 53.3892 360.692 53.3892C361.029 53.3892 361.334 53.3423 361.607 53.2486C361.879 53.1506 362.116 53.0078 362.316 52.8203C362.516 52.6328 362.668 52.4006 362.77 52.1236L364.93 52.3665C364.794 52.9375 364.534 53.4361 364.151 53.8622C363.771 54.2841 363.286 54.6122 362.693 54.8466C362.101 55.0767 361.423 55.1918 360.661 55.1918ZM378.665 45.5078C378.606 44.9496 378.354 44.5149 377.911 44.2038C377.472 43.8928 376.901 43.7372 376.198 43.7372C375.704 43.7372 375.28 43.8118 374.926 43.9609C374.572 44.1101 374.302 44.3125 374.114 44.5682C373.927 44.8239 373.831 45.1158 373.827 45.4439C373.827 45.7166 373.888 45.9531 374.012 46.1534C374.14 46.3537 374.312 46.5241 374.53 46.6648C374.747 46.8011 374.988 46.9162 375.252 47.0099C375.516 47.1037 375.782 47.1825 376.051 47.2464L377.278 47.5533C377.773 47.6683 378.248 47.8239 378.704 48.0199C379.164 48.2159 379.575 48.4631 379.937 48.7614C380.304 49.0597 380.594 49.4197 380.807 49.8416C381.02 50.2635 381.126 50.7578 381.126 51.3246C381.126 52.0916 380.93 52.767 380.538 53.3509C380.146 53.9304 379.579 54.3842 378.838 54.7124C378.101 55.0362 377.208 55.1982 376.16 55.1982C375.141 55.1982 374.257 55.0405 373.507 54.7251C372.761 54.4098 372.177 53.9496 371.756 53.3445C371.338 52.7393 371.112 52.0021 371.078 51.1328H373.411C373.445 51.5888 373.586 51.968 373.833 52.2706C374.08 52.5732 374.402 52.799 374.798 52.9482C375.199 53.0973 375.646 53.1719 376.14 53.1719C376.656 53.1719 377.108 53.0952 377.496 52.9418C377.888 52.7841 378.194 52.5668 378.416 52.2898C378.638 52.0085 378.751 51.6804 378.755 51.3054C378.751 50.9645 378.65 50.6832 378.454 50.4616C378.258 50.2358 377.983 50.0483 377.63 49.8991C377.28 49.7457 376.871 49.6094 376.403 49.4901L374.913 49.1065C373.835 48.8295 372.983 48.4098 372.356 47.8473C371.734 47.2805 371.423 46.5284 371.423 45.5909C371.423 44.8196 371.632 44.1442 372.05 43.5646C372.471 42.9851 373.045 42.5355 373.769 42.2159C374.493 41.892 375.314 41.7301 376.23 41.7301C377.159 41.7301 377.973 41.892 378.672 42.2159C379.375 42.5355 379.927 42.9808 380.327 43.5518C380.728 44.1186 380.934 44.7706 380.947 45.5078H378.665ZM388.041 45.1818V46.9716H382.397V45.1818H388.041ZM383.79 42.8295H386.104V52.0469C386.104 52.358 386.151 52.5966 386.245 52.7628C386.343 52.9247 386.471 53.0355 386.628 53.0952C386.786 53.1548 386.961 53.1847 387.152 53.1847C387.297 53.1847 387.429 53.174 387.549 53.1527C387.672 53.1314 387.766 53.1122 387.83 53.0952L388.22 54.9041C388.096 54.9467 387.919 54.9936 387.689 55.0447C387.463 55.0959 387.186 55.1257 386.858 55.1342C386.279 55.1513 385.757 55.0639 385.292 54.8722C384.828 54.6761 384.459 54.3736 384.186 53.9645C383.918 53.5554 383.786 53.044 383.79 52.4304V42.8295ZM392.801 55.1982C392.179 55.1982 391.619 55.0874 391.12 54.8658C390.626 54.6399 390.234 54.3075 389.944 53.8686C389.659 53.4297 389.516 52.8885 389.516 52.245C389.516 51.6911 389.618 51.233 389.823 50.8707C390.027 50.5085 390.306 50.2188 390.66 50.0014C391.014 49.7841 391.412 49.62 391.855 49.5092C392.303 49.3942 392.765 49.3111 393.242 49.2599C393.818 49.2003 394.284 49.147 394.642 49.1001C395 49.049 395.26 48.9723 395.422 48.87C395.588 48.7635 395.671 48.5994 395.671 48.3778V48.3395C395.671 47.858 395.529 47.4851 395.243 47.2209C394.958 46.9567 394.546 46.8246 394.009 46.8246C393.443 46.8246 392.993 46.9482 392.661 47.1953C392.333 47.4425 392.111 47.7344 391.996 48.071L389.835 47.7642C390.006 47.1676 390.287 46.669 390.679 46.2685C391.071 45.8636 391.551 45.5611 392.117 45.3608C392.684 45.1562 393.311 45.054 393.997 45.054C394.47 45.054 394.941 45.1094 395.409 45.2202C395.878 45.331 396.306 45.5142 396.694 45.7699C397.082 46.0213 397.393 46.3643 397.627 46.799C397.866 47.2337 397.985 47.777 397.985 48.429V55H395.761V53.6513H395.684C395.544 53.924 395.345 54.1797 395.09 54.4183C394.838 54.6527 394.521 54.8423 394.137 54.9872C393.758 55.1278 393.313 55.1982 392.801 55.1982ZM393.402 53.4979C393.867 53.4979 394.269 53.4062 394.61 53.223C394.951 53.0355 395.213 52.7884 395.396 52.4815C395.584 52.1747 395.678 51.8402 395.678 51.478V50.321C395.605 50.3807 395.482 50.4361 395.307 50.4872C395.137 50.5384 394.945 50.5831 394.732 50.6214C394.519 50.6598 394.308 50.6939 394.099 50.7237C393.89 50.7536 393.709 50.7791 393.556 50.8004C393.21 50.8473 392.901 50.924 392.629 51.0305C392.356 51.1371 392.141 51.2862 391.983 51.478C391.825 51.6655 391.747 51.9084 391.747 52.2067C391.747 52.6328 391.902 52.9545 392.213 53.1719C392.524 53.3892 392.921 53.4979 393.402 53.4979ZM400.312 55V45.1818H402.556V46.8182H402.658C402.837 46.2514 403.144 45.8146 403.578 45.5078C404.017 45.1967 404.518 45.0412 405.08 45.0412C405.208 45.0412 405.351 45.0476 405.509 45.0604C405.671 45.0689 405.805 45.0838 405.911 45.1051V47.2337C405.813 47.1996 405.658 47.1697 405.445 47.1442C405.236 47.1143 405.034 47.0994 404.838 47.0994C404.416 47.0994 404.036 47.1911 403.7 47.3743C403.367 47.5533 403.105 47.8026 402.914 48.1222C402.722 48.4418 402.626 48.8104 402.626 49.228V55H400.312ZM412.879 45.1818V46.9716H407.235V45.1818H412.879ZM408.628 42.8295H410.942V52.0469C410.942 52.358 410.989 52.5966 411.083 52.7628C411.181 52.9247 411.308 53.0355 411.466 53.0952C411.624 53.1548 411.798 53.1847 411.99 53.1847C412.135 53.1847 412.267 53.174 412.387 53.1527C412.51 53.1314 412.604 53.1122 412.668 53.0952L413.058 54.9041C412.934 54.9467 412.757 54.9936 412.527 55.0447C412.301 55.0959 412.024 55.1257 411.696 55.1342C411.117 55.1513 410.595 55.0639 410.13 54.8722C409.666 54.6761 409.297 54.3736 409.024 53.9645C408.756 53.5554 408.624 53.044 408.628 52.4304V42.8295ZM420.449 48.5952V50.5H414.555V48.5952H420.449ZM431.237 41.9091H433.608V50.4616C433.608 51.3991 433.387 52.2237 432.943 52.9354C432.504 53.647 431.887 54.2031 431.09 54.6037C430.293 55 429.362 55.1982 428.296 55.1982C427.227 55.1982 426.294 55 425.497 54.6037C424.7 54.2031 424.082 53.647 423.643 52.9354C423.204 52.2237 422.985 51.3991 422.985 50.4616V41.9091H425.356V50.2635C425.356 50.8089 425.475 51.2947 425.714 51.7209C425.957 52.147 426.298 52.4815 426.737 52.7244C427.176 52.9631 427.695 53.0824 428.296 53.0824C428.897 53.0824 429.417 52.9631 429.856 52.7244C430.299 52.4815 430.64 52.147 430.879 51.7209C431.117 51.2947 431.237 50.8089 431.237 50.2635V41.9091ZM436.083 58.6818V45.1818H438.359V46.8054H438.493C438.613 46.5668 438.781 46.3132 438.998 46.0447C439.216 45.772 439.51 45.5398 439.88 45.348C440.251 45.152 440.724 45.054 441.299 45.054C442.058 45.054 442.742 45.2479 443.351 45.6357C443.965 46.0192 444.451 46.5881 444.809 47.3423C445.171 48.0923 445.352 49.0128 445.352 50.1037C445.352 51.1818 445.175 52.098 444.821 52.8523C444.468 53.6065 443.986 54.1818 443.377 54.5781C442.767 54.9744 442.077 55.1726 441.306 55.1726C440.743 55.1726 440.277 55.0788 439.906 54.8913C439.535 54.7038 439.237 54.478 439.011 54.2138C438.789 53.9453 438.617 53.6918 438.493 53.4531H438.397V58.6818H436.083ZM438.353 50.0909C438.353 50.7259 438.442 51.282 438.621 51.7592C438.804 52.2365 439.066 52.6094 439.407 52.8778C439.752 53.142 440.17 53.2741 440.66 53.2741C441.172 53.2741 441.6 53.1378 441.945 52.8651C442.29 52.5881 442.55 52.2109 442.725 51.7337C442.904 51.2521 442.993 50.7045 442.993 50.0909C442.993 49.4815 442.906 48.9403 442.731 48.4673C442.556 47.9943 442.297 47.6236 441.951 47.3551C441.606 47.0866 441.176 46.9524 440.66 46.9524C440.166 46.9524 439.746 47.0824 439.401 47.3423C439.056 47.6023 438.794 47.9666 438.615 48.4354C438.44 48.9041 438.353 49.456 438.353 50.0909ZM453.652 41.9091L457.059 52.2131H457.193L460.594 41.9091H463.202L458.587 55H455.659L451.05 41.9091H453.652ZM464.824 55V45.1818H467.138V55H464.824ZM465.987 43.7884C465.621 43.7884 465.305 43.6669 465.041 43.424C464.777 43.1768 464.645 42.8807 464.645 42.5355C464.645 42.1861 464.777 41.8899 465.041 41.647C465.305 41.3999 465.621 41.2763 465.987 41.2763C466.358 41.2763 466.673 41.3999 466.933 41.647C467.197 41.8899 467.329 42.1861 467.329 42.5355C467.329 42.8807 467.197 43.1768 466.933 43.424C466.673 43.6669 466.358 43.7884 465.987 43.7884ZM477.277 47.777L475.168 48.0071C475.108 47.794 475.004 47.5938 474.854 47.4062C474.71 47.2188 474.513 47.0675 474.266 46.9524C474.019 46.8374 473.717 46.7798 473.359 46.7798C472.877 46.7798 472.472 46.8842 472.144 47.093C471.82 47.3018 471.661 47.5724 471.665 47.9048C471.661 48.1903 471.765 48.4226 471.978 48.6016C472.195 48.7805 472.553 48.9276 473.052 49.0426L474.727 49.4006C475.656 49.6009 476.346 49.9183 476.798 50.353C477.254 50.7876 477.484 51.3565 477.488 52.0597C477.484 52.6776 477.303 53.223 476.945 53.696C476.591 54.1648 476.099 54.5312 475.468 54.7955C474.837 55.0597 474.113 55.1918 473.295 55.1918C472.093 55.1918 471.126 54.9403 470.393 54.4375C469.66 53.9304 469.223 53.2251 469.082 52.3217L471.339 52.1044C471.441 52.5476 471.658 52.8821 471.991 53.108C472.323 53.3338 472.756 53.4467 473.288 53.4467C473.838 53.4467 474.279 53.3338 474.612 53.108C474.948 52.8821 475.116 52.603 475.116 52.2706C475.116 51.9893 475.008 51.7571 474.79 51.5739C474.577 51.3906 474.245 51.25 473.793 51.152L472.119 50.8004C471.177 50.6044 470.48 50.2741 470.028 49.8097C469.577 49.3409 469.353 48.7486 469.357 48.0327C469.353 47.4276 469.517 46.9034 469.849 46.4602C470.186 46.0128 470.653 45.6676 471.249 45.4247C471.85 45.1776 472.543 45.054 473.327 45.054C474.477 45.054 475.383 45.299 476.043 45.7891C476.708 46.2791 477.119 46.9418 477.277 47.777ZM482.221 55.1982C481.599 55.1982 481.039 55.0874 480.54 54.8658C480.046 54.6399 479.654 54.3075 479.364 53.8686C479.078 53.4297 478.936 52.8885 478.936 52.245C478.936 51.6911 479.038 51.233 479.243 50.8707C479.447 50.5085 479.726 50.2188 480.08 50.0014C480.434 49.7841 480.832 49.62 481.275 49.5092C481.723 49.3942 482.185 49.3111 482.662 49.2599C483.238 49.2003 483.704 49.147 484.062 49.1001C484.42 49.049 484.68 48.9723 484.842 48.87C485.008 48.7635 485.091 48.5994 485.091 48.3778V48.3395C485.091 47.858 484.949 47.4851 484.663 47.2209C484.377 46.9567 483.966 46.8246 483.429 46.8246C482.863 46.8246 482.413 46.9482 482.081 47.1953C481.752 47.4425 481.531 47.7344 481.416 48.071L479.255 47.7642C479.426 47.1676 479.707 46.669 480.099 46.2685C480.491 45.8636 480.971 45.5611 481.537 45.3608C482.104 45.1562 482.73 45.054 483.417 45.054C483.89 45.054 484.36 45.1094 484.829 45.2202C485.298 45.331 485.726 45.5142 486.114 45.7699C486.502 46.0213 486.813 46.3643 487.047 46.799C487.286 47.2337 487.405 47.777 487.405 48.429V55H485.181V53.6513H485.104C484.963 53.924 484.765 54.1797 484.51 54.4183C484.258 54.6527 483.941 54.8423 483.557 54.9872C483.178 55.1278 482.733 55.1982 482.221 55.1982ZM482.822 53.4979C483.287 53.4979 483.689 53.4062 484.03 53.223C484.371 53.0355 484.633 52.7884 484.816 52.4815C485.004 52.1747 485.098 51.8402 485.098 51.478V50.321C485.025 50.3807 484.902 50.4361 484.727 50.4872C484.556 50.5384 484.365 50.5831 484.152 50.6214C483.939 50.6598 483.728 50.6939 483.519 50.7237C483.31 50.7536 483.129 50.7791 482.975 50.8004C482.63 50.8473 482.321 50.924 482.049 51.0305C481.776 51.1371 481.561 51.2862 481.403 51.478C481.245 51.6655 481.167 51.9084 481.167 52.2067C481.167 52.6328 481.322 52.9545 481.633 53.1719C481.944 53.3892 482.341 53.4979 482.822 53.4979ZM491.944 51.152V50.9858C491.948 50.2145 492.02 49.6009 492.161 49.1449C492.306 48.6889 492.51 48.3224 492.775 48.0455C493.039 47.7642 493.36 47.5064 493.74 47.272C494 47.1101 494.232 46.9332 494.436 46.7415C494.645 46.5455 494.809 46.3281 494.929 46.0895C495.048 45.8466 495.108 45.576 495.108 45.2777C495.108 44.9411 495.029 44.6491 494.871 44.402C494.713 44.1548 494.5 43.9631 494.232 43.8267C493.968 43.6903 493.672 43.6222 493.343 43.6222C493.041 43.6222 492.753 43.6882 492.48 43.8203C492.212 43.9482 491.988 44.1442 491.809 44.4084C491.635 44.6683 491.537 44.9986 491.515 45.3991H489.24C489.261 44.5895 489.457 43.9119 489.828 43.3665C490.203 42.821 490.697 42.4119 491.311 42.1392C491.929 41.8665 492.61 41.7301 493.356 41.7301C494.17 41.7301 494.886 41.8729 495.504 42.1584C496.126 42.4439 496.61 42.8509 496.955 43.3793C497.304 43.9034 497.479 44.5256 497.479 45.2457C497.479 45.7315 497.4 46.1662 497.243 46.5497C497.089 46.9332 496.87 47.2741 496.584 47.5724C496.299 47.8707 495.96 48.1371 495.568 48.3714C495.223 48.5845 494.939 48.8061 494.718 49.0362C494.5 49.2663 494.338 49.5369 494.232 49.848C494.13 50.1548 494.076 50.5341 494.072 50.9858V51.152H491.944ZM493.056 55.1406C492.672 55.1406 492.342 55.0043 492.065 54.7315C491.788 54.4588 491.65 54.1264 491.65 53.7344C491.65 53.3509 491.788 53.0227 492.065 52.75C492.342 52.4773 492.672 52.3409 493.056 52.3409C493.435 52.3409 493.763 52.4773 494.04 52.75C494.321 53.0227 494.462 53.3509 494.462 53.7344C494.462 53.9943 494.396 54.2308 494.264 54.4439C494.136 54.657 493.966 54.8274 493.752 54.9553C493.544 55.0788 493.311 55.1406 493.056 55.1406Z" fill="#1B1139"/>
<rect opacity="0.8" x="56.0078" y="47.5" width="18" height="3" rx="1.5" fill="#1B1139"/>
<rect opacity="0.8" x="66.5078" y="40" width="18" height="3" rx="1.5" transform="rotate(90 66.5078 40)" fill="#1B1139"/>
<defs>
<filter id="filter0_d_125_1158" x="-7.53403e-05" y="0" width="594.016" height="142.564" filterUnits="userSpaceOnUse" color-interpolation-filters="sRGB">
<feFlood flood-opacity="0" result="BackgroundImageFix"/>
<feColorMatrix in="SourceAlpha" type="matrix" values="0 0 0 0 0 0 0 0 0 0 0 0 0 0 0 0 0 0 127 0" result="hardAlpha"/>
<feMorphology radius="14.7337" operator="erode" in="SourceAlpha" result="effect1_dropShadow_125_1158"/>
<feOffset dy="24.5562"/>
<feGaussianBlur stdDeviation="16.3708"/>
<feColorMatrix type="matrix" values="0 0 0 0 0.583333 0 0 0 0 0.583333 0 0 0 0 0.583333 0 0 0 0.25 0"/>
<feBlend mode="normal" in2="BackgroundImageFix" result="effect1_dropShadow_125_1158"/>
<feBlend mode="normal" in="SourceGraphic" in2="effect1_dropShadow_125_1158" result="shape"/>
</filter>
</defs>
</svg>
