<svg width="470" height="22" viewBox="0 0 470 22" fill="none" xmlns="http://www.w3.org/2000/svg">
<path opacity="0.88" d="M33.2912 18V4.90909H35.6626V10.451H41.7287V4.90909H44.1065V18H41.7287V12.4389H35.6626V18H33.2912ZM50.8661 18.1918C49.9073 18.1918 49.0763 17.9808 48.3732 17.5589C47.6701 17.1371 47.1246 16.5469 46.7369 15.7884C46.3533 15.0298 46.1616 14.1435 46.1616 13.1293C46.1616 12.1151 46.3533 11.2266 46.7369 10.4638C47.1246 9.70099 47.6701 9.10866 48.3732 8.68679C49.0763 8.26491 49.9073 8.05398 50.8661 8.05398C51.8249 8.05398 52.6559 8.26491 53.359 8.68679C54.0621 9.10866 54.6055 9.70099 54.989 10.4638C55.3768 11.2266 55.5707 12.1151 55.5707 13.1293C55.5707 14.1435 55.3768 15.0298 54.989 15.7884C54.6055 16.5469 54.0621 17.1371 53.359 17.5589C52.6559 17.9808 51.8249 18.1918 50.8661 18.1918ZM50.8789 16.3381C51.3988 16.3381 51.8335 16.1953 52.1829 15.9098C52.5323 15.62 52.7923 15.2322 52.9627 14.7464C53.1374 14.2607 53.2248 13.7195 53.2248 13.1229C53.2248 12.522 53.1374 11.9787 52.9627 11.4929C52.7923 11.0028 52.5323 10.6129 52.1829 10.3232C51.8335 10.0334 51.3988 9.88849 50.8789 9.88849C50.3462 9.88849 49.9031 10.0334 49.5494 10.3232C49.1999 10.6129 48.9379 11.0028 48.7631 11.4929C48.5927 11.9787 48.5075 12.522 48.5075 13.1229C48.5075 13.7195 48.5927 14.2607 48.7631 14.7464C48.9379 15.2322 49.1999 15.62 49.5494 15.9098C49.9031 16.1953 50.3462 16.3381 50.8789 16.3381ZM59.2797 18L56.5055 8.18182H58.8642L60.59 15.0852H60.6795L62.4437 8.18182H64.7768L66.541 15.0469H66.6369L68.3372 8.18182H70.7022L67.9217 18H65.5119L63.671 11.3651H63.5368L61.6958 18H59.2797ZM80.4261 18.1726C79.6548 18.1726 78.9645 17.9744 78.3551 17.5781C77.7457 17.1818 77.2642 16.6065 76.9105 15.8523C76.5568 15.098 76.38 14.1818 76.38 13.1037C76.38 12.0128 76.5589 11.0923 76.9169 10.3423C77.2791 9.58807 77.767 9.01918 78.3807 8.63565C78.9943 8.24787 79.6783 8.05398 80.4325 8.05398C81.0078 8.05398 81.4808 8.15199 81.8516 8.34801C82.2223 8.53977 82.5163 8.77202 82.7337 9.04474C82.951 9.31321 83.1193 9.56676 83.2386 9.8054H83.3345V4.90909H85.6548V18H83.3793V16.4531H83.2386C83.1193 16.6918 82.9467 16.9453 82.7209 17.2138C82.495 17.478 82.1967 17.7038 81.826 17.8913C81.4553 18.0788 80.9886 18.1726 80.4261 18.1726ZM81.0717 16.2741C81.5618 16.2741 81.9794 16.142 82.3246 15.8778C82.6697 15.6094 82.9318 15.2365 83.1108 14.7592C83.2898 14.282 83.3793 13.7259 83.3793 13.0909C83.3793 12.456 83.2898 11.9041 83.1108 11.4354C82.9361 10.9666 82.6761 10.6023 82.331 10.3423C81.9901 10.0824 81.5703 9.95241 81.0717 9.95241C80.5561 9.95241 80.1257 10.0866 79.7805 10.3551C79.4354 10.6236 79.1754 10.9943 79.0007 11.4673C78.826 11.9403 78.7386 12.4815 78.7386 13.0909C78.7386 13.7045 78.826 14.2521 79.0007 14.7337C79.1797 15.2109 79.4418 15.5881 79.7869 15.8651C80.1364 16.1378 80.5646 16.2741 81.0717 16.2741ZM92.4032 18.1918C91.4444 18.1918 90.6135 17.9808 89.9103 17.5589C89.2072 17.1371 88.6618 16.5469 88.274 15.7884C87.8904 15.0298 87.6987 14.1435 87.6987 13.1293C87.6987 12.1151 87.8904 11.2266 88.274 10.4638C88.6618 9.70099 89.2072 9.10866 89.9103 8.68679C90.6135 8.26491 91.4444 8.05398 92.4032 8.05398C93.362 8.05398 94.193 8.26491 94.8961 8.68679C95.5993 9.10866 96.1426 9.70099 96.5261 10.4638C96.9139 11.2266 97.1078 12.1151 97.1078 13.1293C97.1078 14.1435 96.9139 15.0298 96.5261 15.7884C96.1426 16.5469 95.5993 17.1371 94.8961 17.5589C94.193 17.9808 93.362 18.1918 92.4032 18.1918ZM92.416 16.3381C92.9359 16.3381 93.3706 16.1953 93.72 15.9098C94.0694 15.62 94.3294 15.2322 94.4998 14.7464C94.6745 14.2607 94.7619 13.7195 94.7619 13.1229C94.7619 12.522 94.6745 11.9787 94.4998 11.4929C94.3294 11.0028 94.0694 10.6129 93.72 10.3232C93.3706 10.0334 92.9359 9.88849 92.416 9.88849C91.8833 9.88849 91.4402 10.0334 91.0865 10.3232C90.737 10.6129 90.475 11.0028 90.3002 11.4929C90.1298 11.9787 90.0446 12.522 90.0446 13.1229C90.0446 13.7195 90.1298 14.2607 90.3002 14.7464C90.475 15.2322 90.737 15.62 91.0865 15.9098C91.4402 16.1953 91.8833 16.3381 92.416 16.3381ZM106.01 4.90909V18H103.639V4.90909H106.01ZM115.05 14.919L115.044 12.1257H115.415L118.943 8.18182H121.647L117.307 13.0142H116.827L115.05 14.919ZM112.941 18V4.90909H115.255V18H112.941ZM119.103 18L115.907 13.532L117.466 11.902L121.871 18H119.103ZM125.503 12.2472V18H123.189V8.18182H125.401V9.85014H125.516C125.741 9.30043 126.102 8.86364 126.596 8.53977C127.094 8.21591 127.71 8.05398 128.443 8.05398C129.121 8.05398 129.711 8.19886 130.214 8.48864C130.721 8.77841 131.113 9.19815 131.39 9.74787C131.671 10.2976 131.81 10.9645 131.805 11.7486V18H129.491V12.1065C129.491 11.4503 129.321 10.9368 128.98 10.5661C128.643 10.1953 128.177 10.0099 127.58 10.0099C127.175 10.0099 126.815 10.0994 126.5 10.2784C126.189 10.4531 125.944 10.7067 125.765 11.0391C125.59 11.3714 125.503 11.7741 125.503 12.2472ZM138.44 18.1918C137.482 18.1918 136.651 17.9808 135.947 17.5589C135.244 17.1371 134.699 16.5469 134.311 15.7884C133.928 15.0298 133.736 14.1435 133.736 13.1293C133.736 12.1151 133.928 11.2266 134.311 10.4638C134.699 9.70099 135.244 9.10866 135.947 8.68679C136.651 8.26491 137.482 8.05398 138.44 8.05398C139.399 8.05398 140.23 8.26491 140.933 8.68679C141.636 9.10866 142.18 9.70099 142.563 10.4638C142.951 11.2266 143.145 12.1151 143.145 13.1293C143.145 14.1435 142.951 15.0298 142.563 15.7884C142.18 16.5469 141.636 17.1371 140.933 17.5589C140.23 17.9808 139.399 18.1918 138.44 18.1918ZM138.453 16.3381C138.973 16.3381 139.408 16.1953 139.757 15.9098C140.107 15.62 140.366 15.2322 140.537 14.7464C140.712 14.2607 140.799 13.7195 140.799 13.1229C140.799 12.522 140.712 11.9787 140.537 11.4929C140.366 11.0028 140.107 10.6129 139.757 10.3232C139.408 10.0334 138.973 9.88849 138.453 9.88849C137.92 9.88849 137.477 10.0334 137.124 10.3232C136.774 10.6129 136.512 11.0028 136.337 11.4929C136.167 11.9787 136.082 12.522 136.082 13.1229C136.082 13.7195 136.167 14.2607 136.337 14.7464C136.512 15.2322 136.774 15.62 137.124 15.9098C137.477 16.1953 137.92 16.3381 138.453 16.3381ZM146.854 18L144.08 8.18182H146.438L148.164 15.0852H148.254L150.018 8.18182H152.351L154.115 15.0469H154.211L155.911 8.18182H158.276L155.496 18H153.086L151.245 11.3651H151.111L149.27 18H146.854ZM164.357 18V8.18182H166.671V18H164.357ZM165.52 6.78835C165.154 6.78835 164.838 6.6669 164.574 6.42401C164.31 6.17685 164.178 5.88068 164.178 5.53551C164.178 5.18608 164.31 4.88991 164.574 4.64702C164.838 4.39986 165.154 4.27628 165.52 4.27628C165.891 4.27628 166.206 4.39986 166.466 4.64702C166.73 4.88991 166.863 5.18608 166.863 5.53551C166.863 5.88068 166.73 6.17685 166.466 6.42401C166.206 6.6669 165.891 6.78835 165.52 6.78835ZM174.023 8.18182V9.97159H168.219V8.18182H174.023ZM169.67 18V7.25497C169.67 6.59446 169.807 6.04474 170.079 5.60582C170.356 5.1669 170.727 4.83878 171.192 4.62145C171.656 4.40412 172.172 4.29545 172.738 4.29545C173.139 4.29545 173.495 4.32741 173.806 4.39134C174.117 4.45526 174.347 4.51278 174.496 4.56392L174.036 6.35369C173.938 6.32386 173.814 6.29403 173.665 6.2642C173.516 6.23011 173.35 6.21307 173.167 6.21307C172.736 6.21307 172.432 6.31747 172.253 6.52628C172.078 6.73082 171.991 7.02486 171.991 7.40838V18H169.67ZM182.774 4.90909V18H180.403V4.90909H182.774ZM196.256 21.6818V16.4531H196.161C196.041 16.6918 195.869 16.9453 195.643 17.2138C195.417 17.478 195.119 17.7038 194.748 17.8913C194.377 18.0788 193.911 18.1726 193.348 18.1726C192.577 18.1726 191.886 17.9744 191.277 17.5781C190.668 17.1818 190.186 16.6065 189.832 15.8523C189.479 15.098 189.302 14.1818 189.302 13.1037C189.302 12.0128 189.481 11.0923 189.839 10.3423C190.201 9.58807 190.689 9.01918 191.303 8.63565C191.916 8.24787 192.6 8.05398 193.354 8.05398C193.93 8.05398 194.403 8.15199 194.773 8.34801C195.144 8.53977 195.438 8.77202 195.656 9.04474C195.873 9.31321 196.041 9.56676 196.161 9.8054H196.301V8.18182H198.577V21.6818H196.256ZM193.994 16.2741C194.484 16.2741 194.901 16.142 195.246 15.8778C195.592 15.6094 195.854 15.2365 196.033 14.7592C196.212 14.282 196.301 13.7259 196.301 13.0909C196.301 12.456 196.212 11.9041 196.033 11.4354C195.858 10.9666 195.598 10.6023 195.253 10.3423C194.912 10.0824 194.492 9.95241 193.994 9.95241C193.478 9.95241 193.048 10.0866 192.702 10.3551C192.357 10.6236 192.097 10.9943 191.923 11.4673C191.748 11.9403 191.661 12.4815 191.661 13.0909C191.661 13.7045 191.748 14.2521 191.923 14.7337C192.102 15.2109 192.364 15.5881 192.709 15.8651C193.058 16.1378 193.487 16.2741 193.994 16.2741ZM207.212 13.8707V8.18182H209.526V18H207.283V16.255H207.18C206.959 16.8047 206.594 17.2543 206.087 17.6037C205.585 17.9531 204.964 18.1278 204.227 18.1278C203.584 18.1278 203.015 17.9851 202.521 17.6996C202.031 17.4098 201.647 16.9901 201.37 16.4403C201.093 15.8864 200.955 15.2173 200.955 14.4332V8.18182H203.268V14.0753C203.268 14.6974 203.439 15.1918 203.78 15.5582C204.121 15.9247 204.568 16.108 205.122 16.108C205.463 16.108 205.793 16.0249 206.113 15.8587C206.433 15.6925 206.695 15.4453 206.899 15.1172C207.108 14.7848 207.212 14.3693 207.212 13.8707ZM214.731 18.1982C214.109 18.1982 213.548 18.0874 213.05 17.8658C212.556 17.6399 212.164 17.3075 211.874 16.8686C211.588 16.4297 211.445 15.8885 211.445 15.245C211.445 14.6911 211.548 14.233 211.752 13.8707C211.957 13.5085 212.236 13.2188 212.59 13.0014C212.943 12.7841 213.342 12.62 213.785 12.5092C214.232 12.3942 214.695 12.3111 215.172 12.2599C215.747 12.2003 216.214 12.147 216.572 12.1001C216.93 12.049 217.19 11.9723 217.352 11.87C217.518 11.7635 217.601 11.5994 217.601 11.3778V11.3395C217.601 10.858 217.458 10.4851 217.173 10.2209C216.887 9.95668 216.476 9.82457 215.939 9.82457C215.372 9.82457 214.923 9.94815 214.59 10.1953C214.262 10.4425 214.041 10.7344 213.926 11.071L211.765 10.7642C211.936 10.1676 212.217 9.66903 212.609 9.26847C213.001 8.86364 213.48 8.56108 214.047 8.3608C214.614 8.15625 215.24 8.05398 215.926 8.05398C216.399 8.05398 216.87 8.10938 217.339 8.22017C217.808 8.33097 218.236 8.5142 218.624 8.76989C219.012 9.02131 219.323 9.36435 219.557 9.79901C219.796 10.2337 219.915 10.777 219.915 11.429V18H217.691V16.6513H217.614C217.473 16.924 217.275 17.1797 217.019 17.4183C216.768 17.6527 216.45 17.8423 216.067 17.9872C215.688 18.1278 215.242 18.1982 214.731 18.1982ZM215.332 16.4979C215.796 16.4979 216.199 16.4062 216.54 16.223C216.881 16.0355 217.143 15.7884 217.326 15.4815C217.514 15.1747 217.607 14.8402 217.607 14.478V13.321C217.535 13.3807 217.411 13.4361 217.237 13.4872C217.066 13.5384 216.874 13.5831 216.661 13.6214C216.448 13.6598 216.237 13.6939 216.029 13.7237C215.82 13.7536 215.639 13.7791 215.485 13.8004C215.14 13.8473 214.831 13.924 214.558 14.0305C214.286 14.1371 214.07 14.2862 213.913 14.478C213.755 14.6655 213.676 14.9084 213.676 15.2067C213.676 15.6328 213.832 15.9545 214.143 16.1719C214.454 16.3892 214.85 16.4979 215.332 16.4979ZM224.556 4.90909V18H222.242V4.90909H224.556ZM226.935 18V8.18182H229.249V18H226.935ZM228.098 6.78835C227.732 6.78835 227.417 6.6669 227.152 6.42401C226.888 6.17685 226.756 5.88068 226.756 5.53551C226.756 5.18608 226.888 4.88991 227.152 4.64702C227.417 4.39986 227.732 4.27628 228.098 4.27628C228.469 4.27628 228.784 4.39986 229.044 4.64702C229.309 4.88991 229.441 5.18608 229.441 5.53551C229.441 5.88068 229.309 6.17685 229.044 6.42401C228.784 6.6669 228.469 6.78835 228.098 6.78835ZM236.601 8.18182V9.97159H230.797V8.18182H236.601ZM232.248 18V7.25497C232.248 6.59446 232.385 6.04474 232.657 5.60582C232.934 5.1669 233.305 4.83878 233.77 4.62145C234.234 4.40412 234.75 4.29545 235.317 4.29545C235.717 4.29545 236.073 4.32741 236.384 4.39134C236.695 4.45526 236.925 4.51278 237.074 4.56392L236.614 6.35369C236.516 6.32386 236.393 6.29403 236.243 6.2642C236.094 6.23011 235.928 6.21307 235.745 6.21307C235.314 6.21307 235.01 6.31747 234.831 6.52628C234.656 6.73082 234.569 7.02486 234.569 7.40838V18H232.248ZM239.852 21.6818C239.536 21.6818 239.244 21.6563 238.976 21.6051C238.712 21.5582 238.501 21.5028 238.343 21.4389L238.88 19.6364C239.217 19.7344 239.517 19.7813 239.781 19.777C240.046 19.7727 240.278 19.6896 240.478 19.5277C240.683 19.37 240.855 19.1058 240.996 18.7351L241.194 18.2045L237.634 8.18182H240.088L242.351 15.5966H242.453L244.722 8.18182H247.183L243.252 19.1889C243.069 19.7088 242.826 20.1541 242.524 20.5249C242.221 20.8999 241.85 21.1854 241.411 21.3814C240.977 21.5817 240.457 21.6818 239.852 21.6818ZM258.222 8.18182V9.97159H252.419V8.18182H258.222ZM253.869 18V7.25497C253.869 6.59446 254.006 6.04474 254.279 5.60582C254.556 5.1669 254.926 4.83878 255.391 4.62145C255.855 4.40412 256.371 4.29545 256.938 4.29545C257.338 4.29545 257.694 4.32741 258.005 4.39134C258.316 4.45526 258.546 4.51278 258.695 4.56392L258.235 6.35369C258.137 6.32386 258.014 6.29403 257.865 6.2642C257.715 6.23011 257.549 6.21307 257.366 6.21307C256.936 6.21307 256.631 6.31747 256.452 6.52628C256.277 6.73082 256.19 7.02486 256.19 7.40838V18H253.869ZM263.948 18.1918C262.989 18.1918 262.158 17.9808 261.455 17.5589C260.752 17.1371 260.207 16.5469 259.819 15.7884C259.435 15.0298 259.244 14.1435 259.244 13.1293C259.244 12.1151 259.435 11.2266 259.819 10.4638C260.207 9.70099 260.752 9.10866 261.455 8.68679C262.158 8.26491 262.989 8.05398 263.948 8.05398C264.907 8.05398 265.738 8.26491 266.441 8.68679C267.144 9.10866 267.688 9.70099 268.071 10.4638C268.459 11.2266 268.653 12.1151 268.653 13.1293C268.653 14.1435 268.459 15.0298 268.071 15.7884C267.688 16.5469 267.144 17.1371 266.441 17.5589C265.738 17.9808 264.907 18.1918 263.948 18.1918ZM263.961 16.3381C264.481 16.3381 264.915 16.1953 265.265 15.9098C265.614 15.62 265.874 15.2322 266.045 14.7464C266.219 14.2607 266.307 13.7195 266.307 13.1229C266.307 12.522 266.219 11.9787 266.045 11.4929C265.874 11.0028 265.614 10.6129 265.265 10.3232C264.915 10.0334 264.481 9.88849 263.961 9.88849C263.428 9.88849 262.985 10.0334 262.631 10.3232C262.282 10.6129 262.02 11.0028 261.845 11.4929C261.675 11.9787 261.589 12.522 261.589 13.1229C261.589 13.7195 261.675 14.2607 261.845 14.7464C262.02 15.2322 262.282 15.62 262.631 15.9098C262.985 16.1953 263.428 16.3381 263.961 16.3381ZM270.617 18V8.18182H272.86V9.81818H272.963C273.142 9.25142 273.448 8.81463 273.883 8.50781C274.322 8.19673 274.823 8.04119 275.385 8.04119C275.513 8.04119 275.656 8.04758 275.813 8.06037C275.975 8.06889 276.11 8.08381 276.216 8.10511V10.2337C276.118 10.1996 275.963 10.1697 275.749 10.1442C275.541 10.1143 275.338 10.0994 275.142 10.0994C274.72 10.0994 274.341 10.1911 274.004 10.3743C273.672 10.5533 273.41 10.8026 273.218 11.1222C273.026 11.4418 272.931 11.8104 272.931 12.228V18H270.617ZM287.121 8.18182V9.97159H281.477V8.18182H287.121ZM282.87 5.82955H285.184V15.0469C285.184 15.358 285.231 15.5966 285.325 15.7628C285.423 15.9247 285.551 16.0355 285.708 16.0952C285.866 16.1548 286.041 16.1847 286.232 16.1847C286.377 16.1847 286.509 16.174 286.629 16.1527C286.752 16.1314 286.846 16.1122 286.91 16.0952L287.3 17.9041C287.176 17.9467 286.999 17.9936 286.769 18.0447C286.544 18.0959 286.267 18.1257 285.938 18.1342C285.359 18.1513 284.837 18.0639 284.372 17.8722C283.908 17.6761 283.539 17.3736 283.267 16.9645C282.998 16.5554 282.866 16.044 282.87 15.4304V5.82955ZM291.581 12.2472V18H289.267V4.90909H291.53V9.85014H291.645C291.875 9.29616 292.231 8.85937 292.712 8.53977C293.198 8.21591 293.816 8.05398 294.566 8.05398C295.248 8.05398 295.842 8.19673 296.349 8.48224C296.857 8.76776 297.249 9.18537 297.526 9.73509C297.807 10.2848 297.947 10.956 297.947 11.7486V18H295.634V12.1065C295.634 11.446 295.463 10.9325 295.122 10.5661C294.786 10.1953 294.312 10.0099 293.703 10.0099C293.294 10.0099 292.928 10.0994 292.604 10.2784C292.284 10.4531 292.033 10.7067 291.849 11.0391C291.67 11.3714 291.581 11.7741 291.581 12.2472ZM304.653 18.1918C303.668 18.1918 302.818 17.9872 302.102 17.5781C301.391 17.1648 300.843 16.581 300.46 15.8267C300.076 15.0682 299.884 14.1754 299.884 13.1484C299.884 12.1385 300.076 11.2521 300.46 10.4893C300.847 9.7223 301.388 9.12571 302.083 8.69957C302.778 8.26918 303.594 8.05398 304.531 8.05398C305.136 8.05398 305.707 8.15199 306.244 8.34801C306.786 8.53977 307.263 8.83807 307.676 9.2429C308.094 9.64773 308.422 10.1634 308.661 10.7898C308.899 11.4119 309.018 12.1534 309.018 13.0142V13.7237H300.971V12.1641H306.8C306.796 11.7209 306.7 11.3267 306.513 10.9815C306.325 10.6321 306.063 10.3572 305.727 10.157C305.394 9.95668 305.006 9.85653 304.563 9.85653C304.09 9.85653 303.675 9.97159 303.317 10.2017C302.959 10.4276 302.68 10.7259 302.479 11.0966C302.283 11.4631 302.183 11.8658 302.179 12.3047V13.6662C302.179 14.2372 302.283 14.7273 302.492 15.1364C302.701 15.5412 302.993 15.8523 303.368 16.0696C303.743 16.2827 304.182 16.3892 304.685 16.3892C305.021 16.3892 305.326 16.3423 305.599 16.2486C305.871 16.1506 306.108 16.0078 306.308 15.8203C306.509 15.6328 306.66 15.4006 306.762 15.1236L308.923 15.3665C308.786 15.9375 308.526 16.4361 308.143 16.8622C307.763 17.2841 307.278 17.6122 306.685 17.8466C306.093 18.0767 305.415 18.1918 304.653 18.1918ZM322.657 8.50781C322.598 7.94957 322.346 7.51491 321.903 7.20384C321.464 6.89276 320.893 6.73722 320.19 6.73722C319.696 6.73722 319.272 6.81179 318.918 6.96094C318.564 7.11008 318.294 7.3125 318.106 7.56818C317.919 7.82386 317.823 8.11577 317.819 8.44389C317.819 8.71662 317.881 8.95312 318.004 9.15341C318.132 9.35369 318.305 9.52415 318.522 9.66477C318.739 9.80114 318.98 9.91619 319.244 10.0099C319.508 10.1037 319.775 10.1825 320.043 10.2464L321.27 10.5533C321.765 10.6683 322.24 10.8239 322.696 11.0199C323.156 11.2159 323.567 11.4631 323.93 11.7614C324.296 12.0597 324.586 12.4197 324.799 12.8416C325.012 13.2635 325.118 13.7578 325.118 14.3246C325.118 15.0916 324.922 15.767 324.53 16.3509C324.138 16.9304 323.572 17.3842 322.83 17.7124C322.093 18.0362 321.2 18.1982 320.152 18.1982C319.133 18.1982 318.249 18.0405 317.499 17.7251C316.753 17.4098 316.17 16.9496 315.748 16.3445C315.33 15.7393 315.104 15.0021 315.07 14.1328H317.403C317.437 14.5888 317.578 14.968 317.825 15.2706C318.072 15.5732 318.394 15.799 318.79 15.9482C319.191 16.0973 319.638 16.1719 320.133 16.1719C320.648 16.1719 321.1 16.0952 321.488 15.9418C321.88 15.7841 322.187 15.5668 322.408 15.2898C322.63 15.0085 322.743 14.6804 322.747 14.3054C322.743 13.9645 322.643 13.6832 322.447 13.4616C322.251 13.2358 321.976 13.0483 321.622 12.8991C321.273 12.7457 320.863 12.6094 320.395 12.4901L318.905 12.1065C317.827 11.8295 316.975 11.4098 316.349 10.8473C315.726 10.2805 315.415 9.52841 315.415 8.59091C315.415 7.8196 315.624 7.14418 316.042 6.56463C316.464 5.98509 317.037 5.53551 317.761 5.21591C318.486 4.89204 319.306 4.73011 320.222 4.73011C321.151 4.73011 321.965 4.89204 322.664 5.21591C323.367 5.53551 323.919 5.98082 324.319 6.55185C324.72 7.11861 324.927 7.7706 324.939 8.50781H322.657ZM332.033 8.18182V9.97159H326.389V8.18182H332.033ZM327.782 5.82955H330.096V15.0469C330.096 15.358 330.143 15.5966 330.237 15.7628C330.335 15.9247 330.463 16.0355 330.62 16.0952C330.778 16.1548 330.953 16.1847 331.145 16.1847C331.289 16.1847 331.422 16.174 331.541 16.1527C331.664 16.1314 331.758 16.1122 331.822 16.0952L332.212 17.9041C332.088 17.9467 331.912 17.9936 331.681 18.0447C331.456 18.0959 331.179 18.1257 330.85 18.1342C330.271 18.1513 329.749 18.0639 329.284 17.8722C328.82 17.6761 328.451 17.3736 328.179 16.9645C327.91 16.5554 327.778 16.044 327.782 15.4304V5.82955ZM336.794 18.1982C336.171 18.1982 335.611 18.0874 335.112 17.8658C334.618 17.6399 334.226 17.3075 333.936 16.8686C333.651 16.4297 333.508 15.8885 333.508 15.245C333.508 14.6911 333.61 14.233 333.815 13.8707C334.019 13.5085 334.298 13.2188 334.652 13.0014C335.006 12.7841 335.404 12.62 335.847 12.5092C336.295 12.3942 336.757 12.3111 337.235 12.2599C337.81 12.2003 338.276 12.147 338.634 12.1001C338.992 12.049 339.252 11.9723 339.414 11.87C339.58 11.7635 339.664 11.5994 339.664 11.3778V11.3395C339.664 10.858 339.521 10.4851 339.235 10.2209C338.95 9.95668 338.539 9.82457 338.002 9.82457C337.435 9.82457 336.985 9.94815 336.653 10.1953C336.325 10.4425 336.103 10.7344 335.988 11.071L333.828 10.7642C333.998 10.1676 334.279 9.66903 334.671 9.26847C335.063 8.86364 335.543 8.56108 336.11 8.3608C336.676 8.15625 337.303 8.05398 337.989 8.05398C338.462 8.05398 338.933 8.10938 339.401 8.22017C339.87 8.33097 340.298 8.5142 340.686 8.76989C341.074 9.02131 341.385 9.36435 341.619 9.79901C341.858 10.2337 341.977 10.777 341.977 11.429V18H339.753V16.6513H339.676C339.536 16.924 339.338 17.1797 339.082 17.4183C338.83 17.6527 338.513 17.8423 338.129 17.9872C337.75 18.1278 337.305 18.1982 336.794 18.1982ZM337.394 16.4979C337.859 16.4979 338.262 16.4062 338.602 16.223C338.943 16.0355 339.205 15.7884 339.389 15.4815C339.576 15.1747 339.67 14.8402 339.67 14.478V13.321C339.597 13.3807 339.474 13.4361 339.299 13.4872C339.129 13.5384 338.937 13.5831 338.724 13.6214C338.511 13.6598 338.3 13.6939 338.091 13.7237C337.882 13.7536 337.701 13.7791 337.548 13.8004C337.203 13.8473 336.894 13.924 336.621 14.0305C336.348 14.1371 336.133 14.2862 335.975 14.478C335.818 14.6655 335.739 14.9084 335.739 15.2067C335.739 15.6328 335.894 15.9545 336.205 16.1719C336.517 16.3892 336.913 16.4979 337.394 16.4979ZM344.304 18V8.18182H346.548V9.81818H346.65C346.829 9.25142 347.136 8.81463 347.57 8.50781C348.009 8.19673 348.51 8.04119 349.073 8.04119C349.2 8.04119 349.343 8.04758 349.501 8.06037C349.663 8.06889 349.797 8.08381 349.904 8.10511V10.2337C349.806 10.1996 349.65 10.1697 349.437 10.1442C349.228 10.1143 349.026 10.0994 348.83 10.0994C348.408 10.0994 348.029 10.1911 347.692 10.3743C347.36 10.5533 347.097 10.8026 346.906 11.1222C346.714 11.4418 346.618 11.8104 346.618 12.228V18H344.304ZM356.871 8.18182V9.97159H351.227V8.18182H356.871ZM352.62 5.82955H354.934V15.0469C354.934 15.358 354.981 15.5966 355.075 15.7628C355.173 15.9247 355.301 16.0355 355.458 16.0952C355.616 16.1548 355.791 16.1847 355.982 16.1847C356.127 16.1847 356.259 16.174 356.379 16.1527C356.502 16.1314 356.596 16.1122 356.66 16.0952L357.05 17.9041C356.926 17.9467 356.749 17.9936 356.519 18.0447C356.294 18.0959 356.017 18.1257 355.688 18.1342C355.109 18.1513 354.587 18.0639 354.122 17.8722C353.658 17.6761 353.289 17.3736 353.017 16.9645C352.748 16.5554 352.616 16.044 352.62 15.4304V5.82955ZM364.441 11.5952V13.5H358.547V11.5952H364.441ZM375.229 4.90909H377.6V13.4616C377.6 14.3991 377.379 15.2237 376.936 15.9354C376.497 16.647 375.879 17.2031 375.082 17.6037C374.285 18 373.354 18.1982 372.289 18.1982C371.219 18.1982 370.286 18 369.489 17.6037C368.692 17.2031 368.074 16.647 367.635 15.9354C367.196 15.2237 366.977 14.3991 366.977 13.4616V4.90909H369.348V13.2635C369.348 13.8089 369.468 14.2947 369.706 14.7209C369.949 15.147 370.29 15.4815 370.729 15.7244C371.168 15.9631 371.688 16.0824 372.289 16.0824C372.889 16.0824 373.409 15.9631 373.848 15.7244C374.291 15.4815 374.632 15.147 374.871 14.7209C375.11 14.2947 375.229 13.8089 375.229 13.2635V4.90909ZM380.076 21.6818V8.18182H382.351V9.8054H382.485C382.605 9.56676 382.773 9.31321 382.99 9.04474C383.208 8.77202 383.502 8.53977 383.873 8.34801C384.243 8.15199 384.716 8.05398 385.292 8.05398C386.05 8.05398 386.734 8.24787 387.343 8.63565C387.957 9.01918 388.443 9.58807 388.801 10.3423C389.163 11.0923 389.344 12.0128 389.344 13.1037C389.344 14.1818 389.167 15.098 388.814 15.8523C388.46 16.6065 387.978 17.1818 387.369 17.5781C386.76 17.9744 386.069 18.1726 385.298 18.1726C384.735 18.1726 384.269 18.0788 383.898 17.8913C383.527 17.7038 383.229 17.478 383.003 17.2138C382.782 16.9453 382.609 16.6918 382.485 16.4531H382.39V21.6818H380.076ZM382.345 13.0909C382.345 13.7259 382.434 14.282 382.613 14.7592C382.797 15.2365 383.059 15.6094 383.4 15.8778C383.745 16.142 384.162 16.2741 384.652 16.2741C385.164 16.2741 385.592 16.1378 385.937 15.8651C386.282 15.5881 386.542 15.2109 386.717 14.7337C386.896 14.2521 386.985 13.7045 386.985 13.0909C386.985 12.4815 386.898 11.9403 386.723 11.4673C386.549 10.9943 386.289 10.6236 385.944 10.3551C385.598 10.0866 385.168 9.95241 384.652 9.95241C384.158 9.95241 383.738 10.0824 383.393 10.3423C383.048 10.6023 382.786 10.9666 382.607 11.4354C382.432 11.9041 382.345 12.456 382.345 13.0909ZM397.644 4.90909L401.051 15.2131H401.185L404.586 4.90909H407.194L402.579 18H399.651L395.043 4.90909H397.644ZM408.816 18V8.18182H411.13V18H408.816ZM409.979 6.78835C409.613 6.78835 409.297 6.6669 409.033 6.42401C408.769 6.17685 408.637 5.88068 408.637 5.53551C408.637 5.18608 408.769 4.88991 409.033 4.64702C409.297 4.39986 409.613 4.27628 409.979 4.27628C410.35 4.27628 410.665 4.39986 410.925 4.64702C411.189 4.88991 411.322 5.18608 411.322 5.53551C411.322 5.88068 411.189 6.17685 410.925 6.42401C410.665 6.6669 410.35 6.78835 409.979 6.78835ZM421.269 10.777L419.16 11.0071C419.1 10.794 418.996 10.5938 418.847 10.4062C418.702 10.2188 418.506 10.0675 418.259 9.95241C418.011 9.83736 417.709 9.77983 417.351 9.77983C416.869 9.77983 416.464 9.88423 416.136 10.093C415.812 10.3018 415.653 10.5724 415.657 10.9048C415.653 11.1903 415.757 11.4226 415.97 11.6016C416.188 11.7805 416.545 11.9276 417.044 12.0426L418.719 12.4006C419.648 12.6009 420.338 12.9183 420.79 13.353C421.246 13.7876 421.476 14.3565 421.48 15.0597C421.476 15.6776 421.295 16.223 420.937 16.696C420.583 17.1648 420.091 17.5312 419.46 17.7955C418.83 18.0597 418.105 18.1918 417.287 18.1918C416.085 18.1918 415.118 17.9403 414.385 17.4375C413.652 16.9304 413.215 16.2251 413.075 15.3217L415.331 15.1044C415.433 15.5476 415.651 15.8821 415.983 16.108C416.315 16.3338 416.748 16.4467 417.281 16.4467C417.83 16.4467 418.271 16.3338 418.604 16.108C418.94 15.8821 419.109 15.603 419.109 15.2706C419.109 14.9893 419 14.7571 418.783 14.5739C418.57 14.3906 418.237 14.25 417.786 14.152L416.111 13.8004C415.169 13.6044 414.472 13.2741 414.021 12.8097C413.569 12.3409 413.345 11.7486 413.349 11.0327C413.345 10.4276 413.509 9.90341 413.842 9.46023C414.178 9.01278 414.645 8.66761 415.241 8.42472C415.842 8.17756 416.535 8.05398 417.319 8.05398C418.469 8.05398 419.375 8.29901 420.036 8.78906C420.7 9.27912 421.112 9.94176 421.269 10.777ZM426.213 18.1982C425.591 18.1982 425.031 18.0874 424.532 17.8658C424.038 17.6399 423.646 17.3075 423.356 16.8686C423.071 16.4297 422.928 15.8885 422.928 15.245C422.928 14.6911 423.03 14.233 423.235 13.8707C423.439 13.5085 423.718 13.2188 424.072 13.0014C424.426 12.7841 424.824 12.62 425.267 12.5092C425.715 12.3942 426.177 12.3111 426.654 12.2599C427.23 12.2003 427.696 12.147 428.054 12.1001C428.412 12.049 428.672 11.9723 428.834 11.87C429 11.7635 429.083 11.5994 429.083 11.3778V11.3395C429.083 10.858 428.941 10.4851 428.655 10.2209C428.37 9.95668 427.958 9.82457 427.422 9.82457C426.855 9.82457 426.405 9.94815 426.073 10.1953C425.745 10.4425 425.523 10.7344 425.408 11.071L423.248 10.7642C423.418 10.1676 423.699 9.66903 424.091 9.26847C424.483 8.86364 424.963 8.56108 425.529 8.3608C426.096 8.15625 426.723 8.05398 427.409 8.05398C427.882 8.05398 428.353 8.10938 428.821 8.22017C429.29 8.33097 429.718 8.5142 430.106 8.76989C430.494 9.02131 430.805 9.36435 431.039 9.79901C431.278 10.2337 431.397 10.777 431.397 11.429V18H429.173V16.6513H429.096C428.956 16.924 428.757 17.1797 428.502 17.4183C428.25 17.6527 427.933 17.8423 427.549 17.9872C427.17 18.1278 426.725 18.1982 426.213 18.1982ZM426.814 16.4979C427.279 16.4979 427.681 16.4062 428.022 16.223C428.363 16.0355 428.625 15.7884 428.809 15.4815C428.996 15.1747 429.09 14.8402 429.09 14.478V13.321C429.017 13.3807 428.894 13.4361 428.719 13.4872C428.549 13.5384 428.357 13.5831 428.144 13.6214C427.931 13.6598 427.72 13.6939 427.511 13.7237C427.302 13.7536 427.121 13.7791 426.968 13.8004C426.623 13.8473 426.314 13.924 426.041 14.0305C425.768 14.1371 425.553 14.2862 425.395 14.478C425.238 14.6655 425.159 14.9084 425.159 15.2067C425.159 15.6328 425.314 15.9545 425.625 16.1719C425.936 16.3892 426.333 16.4979 426.814 16.4979ZM435.936 14.152V13.9858C435.94 13.2145 436.012 12.6009 436.153 12.1449C436.298 11.6889 436.502 11.3224 436.767 11.0455C437.031 10.7642 437.353 10.5064 437.732 10.272C437.992 10.1101 438.224 9.93324 438.429 9.74148C438.637 9.54545 438.801 9.32812 438.921 9.08949C439.04 8.84659 439.1 8.57599 439.1 8.2777C439.1 7.94105 439.021 7.64915 438.863 7.40199C438.706 7.15483 438.493 6.96307 438.224 6.8267C437.96 6.69034 437.664 6.62216 437.336 6.62216C437.033 6.62216 436.745 6.68821 436.473 6.82031C436.204 6.94815 435.98 7.14418 435.801 7.40838C435.627 7.66832 435.529 7.99858 435.507 8.39915H433.232C433.253 7.58949 433.449 6.91193 433.82 6.36648C434.195 5.82102 434.689 5.41193 435.303 5.1392C435.921 4.86648 436.603 4.73011 437.348 4.73011C438.162 4.73011 438.878 4.87287 439.496 5.15838C440.118 5.44389 440.602 5.85085 440.947 6.37926C441.297 6.90341 441.471 7.52557 441.471 8.24574C441.471 8.73153 441.392 9.16619 441.235 9.54972C441.081 9.93324 440.862 10.2741 440.576 10.5724C440.291 10.8707 439.952 11.1371 439.56 11.3714C439.215 11.5845 438.931 11.8061 438.71 12.0362C438.493 12.2663 438.331 12.5369 438.224 12.848C438.122 13.1548 438.069 13.5341 438.064 13.9858V14.152H435.936ZM437.048 18.1406C436.664 18.1406 436.334 18.0043 436.057 17.7315C435.78 17.4588 435.642 17.1264 435.642 16.7344C435.642 16.3509 435.78 16.0227 436.057 15.75C436.334 15.4773 436.664 15.3409 437.048 15.3409C437.427 15.3409 437.755 15.4773 438.032 15.75C438.314 16.0227 438.454 16.3509 438.454 16.7344C438.454 16.9943 438.388 17.2308 438.256 17.4439C438.128 17.657 437.958 17.8274 437.745 17.9553C437.536 18.0788 437.304 18.1406 437.048 18.1406Z" fill="#1B1139"/>
<rect opacity="0.8" y="10.5" width="18" height="3" rx="1.5" fill="#1B1139"/>
<rect opacity="0.8" x="10.5" y="3" width="18" height="3" rx="1.5" transform="rotate(90 10.5 3)" fill="#1B1139"/>
</svg>
