<svg width="372" height="52" viewBox="0 0 372 52" fill="none" xmlns="http://www.w3.org/2000/svg">
<rect width="372" height="52" rx="26" fill="#851114"/>
<rect x="0.5" y="0.5" width="371" height="51" rx="25.5" stroke="white" stroke-opacity="0.2"/>
<path fill-rule="evenodd" clip-rule="evenodd" d="M27.5 20C24.189 20 21.5 22.689 21.5 26C21.5 29.311 24.189 32 27.5 32C30.811 32 33.5 29.311 33.5 26C33.5 22.689 30.811 20 27.5 20ZM27.5 22C29.708 22 31.5 23.792 31.5 26C31.5 28.208 29.708 30 27.5 30C25.292 30 23.5 28.208 23.5 26C23.5 23.792 25.292 22 27.5 22Z" fill="white"/>
<path fill-rule="evenodd" clip-rule="evenodd" d="M35.25 31L35.343 30.999C36.304 30.975 37.22 30.583 37.902 29.902C38.605 29.198 39 28.245 39 27.25V25C39 19.52 34.592 15.07 29.129 15.001L29 15H28C21.929 15 17 19.929 17 26C17 32.071 21.929 37 28 37C28.552 37 29 36.552 29 36C29 35.448 28.552 35 28 35C23.033 35 19 30.967 19 26C19 21.033 23.033 17 28 17H29C33.418 17 37 20.582 37 25V27.25C37 27.714 36.816 28.159 36.487 28.487C36.159 28.816 35.714 29 35.25 29M35.25 29C34.786 29 34.341 28.816 34.013 28.487C33.684 28.159 33.5 27.714 33.5 27.25V22C33.5 21.465 33.08 21.028 32.551 21.001L32.5 21C31.948 21 31.5 21.448 31.5 22C31.5 22 31.5 24.935 31.5 27.25C31.5 28.245 31.895 29.198 32.598 29.902C33.302 30.605 34.255 31 35.25 31" fill="white"/>
<path d="M45.162 32V21.57H51.952V22.83H46.534V26.134H51.672V27.394H46.534V30.74H51.952V32H45.162ZM53.4982 32V24.454H54.7722V25.924L54.5622 25.798C54.7489 25.322 55.0476 24.9533 55.4582 24.692C55.8782 24.4213 56.3682 24.286 56.9282 24.286C57.4696 24.286 57.9502 24.4073 58.3702 24.65C58.7996 24.8927 59.1356 25.2287 59.3782 25.658C59.6302 26.0873 59.7562 26.5727 59.7562 27.114V32H58.4402V27.534C58.4402 27.114 58.3656 26.7593 58.2162 26.47C58.0669 26.1807 57.8522 25.9567 57.5722 25.798C57.3016 25.63 56.9889 25.546 56.6342 25.546C56.2796 25.546 55.9622 25.63 55.6822 25.798C55.4116 25.9567 55.1969 26.1853 55.0382 26.484C54.8796 26.7733 54.8002 27.1233 54.8002 27.534V32H53.4982ZM64.6853 32.084C63.948 32.084 63.3787 31.874 62.9773 31.454C62.5853 31.034 62.3893 30.4413 62.3893 29.676V25.7H61.0173V24.454H61.2973C61.6333 24.454 61.8993 24.3513 62.0953 24.146C62.2913 23.9407 62.3893 23.67 62.3893 23.334V22.718H63.6913V24.454H65.3853V25.7H63.6913V29.634C63.6913 29.886 63.7287 30.1053 63.8033 30.292C63.8873 30.4787 64.0227 30.628 64.2093 30.74C64.396 30.8427 64.6433 30.894 64.9513 30.894C65.0167 30.894 65.096 30.8893 65.1893 30.88C65.292 30.8707 65.3853 30.8613 65.4693 30.852V32C65.348 32.028 65.2127 32.0467 65.0633 32.056C64.914 32.0747 64.788 32.084 64.6853 32.084ZM70.437 32.168C69.709 32.168 69.0604 31.9953 68.491 31.65C67.9217 31.3047 67.4737 30.8333 67.147 30.236C66.8204 29.6293 66.657 28.9527 66.657 28.206C66.657 27.45 66.8157 26.778 67.133 26.19C67.4597 25.602 67.8984 25.14 68.449 24.804C69.009 24.4587 69.6344 24.286 70.325 24.286C70.885 24.286 71.3797 24.3887 71.809 24.594C72.2477 24.79 72.6164 25.0607 72.915 25.406C73.223 25.742 73.4564 26.1293 73.615 26.568C73.783 26.9973 73.867 27.4453 73.867 27.912C73.867 28.0147 73.8577 28.1313 73.839 28.262C73.8297 28.3833 73.8157 28.5 73.797 28.612H67.609V27.492H73.041L72.425 27.996C72.509 27.5107 72.4624 27.0767 72.285 26.694C72.1077 26.3113 71.8464 26.008 71.501 25.784C71.1557 25.56 70.7637 25.448 70.325 25.448C69.8864 25.448 69.485 25.56 69.121 25.784C68.757 26.008 68.4724 26.33 68.267 26.75C68.071 27.1607 67.9917 27.6507 68.029 28.22C67.9917 28.7707 68.0757 29.256 68.281 29.676C68.4957 30.0867 68.7944 30.4087 69.177 30.642C69.569 30.866 69.9937 30.978 70.451 30.978C70.955 30.978 71.3797 30.8613 71.725 30.628C72.0704 30.3947 72.3504 30.096 72.565 29.732L73.657 30.292C73.5077 30.6373 73.2744 30.9547 72.957 31.244C72.649 31.524 72.2804 31.748 71.851 31.916C71.431 32.084 70.9597 32.168 70.437 32.168ZM75.5646 32V24.454H76.8386V25.84L76.6986 25.644C76.876 25.2147 77.1466 24.8973 77.5106 24.692C77.8746 24.4773 78.318 24.37 78.8406 24.37H79.3026V25.602H78.6446C78.1126 25.602 77.6833 25.77 77.3566 26.106C77.03 26.4327 76.8666 26.8993 76.8666 27.506V32H75.5646ZM83.2851 35.08C83.1171 35.08 82.9491 35.066 82.7811 35.038C82.6131 35.01 82.4544 34.9633 82.3051 34.898V33.736C82.4078 33.7547 82.5338 33.7733 82.6831 33.792C82.8418 33.82 82.9958 33.834 83.1451 33.834C83.5838 33.834 83.9151 33.736 84.1391 33.54C84.3724 33.3533 84.5918 33.0267 84.7971 32.56L85.2731 31.426L85.2451 32.56L82.0251 24.454H83.4391L85.9451 30.894H85.5251L88.0171 24.454H89.4591L86.0571 32.896C85.8984 33.2973 85.6931 33.6613 85.4411 33.988C85.1984 34.324 84.8998 34.59 84.5451 34.786C84.1904 34.982 83.7704 35.08 83.2851 35.08ZM94.0647 32.168C93.3367 32.168 92.6787 32 92.0907 31.664C91.5027 31.3187 91.036 30.8473 90.6907 30.25C90.3453 29.6527 90.1727 28.976 90.1727 28.22C90.1727 27.464 90.3407 26.792 90.6767 26.204C91.022 25.616 91.4887 25.1493 92.0767 24.804C92.6647 24.4587 93.3273 24.286 94.0647 24.286C94.7927 24.286 95.4507 24.4587 96.0387 24.804C96.6267 25.14 97.0887 25.602 97.4247 26.19C97.77 26.778 97.9427 27.4547 97.9427 28.22C97.9427 28.9853 97.7653 29.6667 97.4107 30.264C97.056 30.852 96.5847 31.3187 95.9967 31.664C95.418 32 94.774 32.168 94.0647 32.168ZM94.0647 30.908C94.5313 30.908 94.9513 30.7913 95.3247 30.558C95.7073 30.3247 96.006 30.0027 96.2207 29.592C96.4447 29.1813 96.5567 28.724 96.5567 28.22C96.5567 27.7067 96.4447 27.254 96.2207 26.862C96.006 26.4607 95.7073 26.1433 95.3247 25.91C94.9513 25.6673 94.5313 25.546 94.0647 25.546C93.5887 25.546 93.1593 25.6673 92.7767 25.91C92.4033 26.1433 92.1047 26.4607 91.8807 26.862C91.6567 27.254 91.5447 27.7067 91.5447 28.22C91.5447 28.724 91.6567 29.1813 91.8807 29.592C92.1047 30.0027 92.4033 30.3247 92.7767 30.558C93.1593 30.7913 93.5887 30.908 94.0647 30.908ZM102.315 32.168C101.773 32.168 101.283 32.042 100.845 31.79C100.415 31.538 100.079 31.188 99.8368 30.74C99.6035 30.2827 99.4868 29.76 99.4868 29.172V24.454H100.789V29.032C100.789 29.4053 100.863 29.732 101.013 30.012C101.171 30.292 101.386 30.5113 101.657 30.67C101.937 30.8287 102.254 30.908 102.609 30.908C102.963 30.908 103.276 30.8287 103.547 30.67C103.827 30.5113 104.041 30.2827 104.191 29.984C104.349 29.6853 104.429 29.3307 104.429 28.92V24.454H105.745V32H104.471V30.53L104.681 30.656C104.503 31.132 104.2 31.5053 103.771 31.776C103.351 32.0373 102.865 32.168 102.315 32.168ZM107.762 32V24.454H109.036V25.84L108.896 25.644C109.073 25.2147 109.344 24.8973 109.708 24.692C110.072 24.4773 110.515 24.37 111.038 24.37H111.5V25.602H110.842C110.31 25.602 109.881 25.77 109.554 26.106C109.227 26.4327 109.064 26.8993 109.064 27.506V32H107.762ZM118.548 32.168C117.82 32.168 117.172 31.9953 116.602 31.65C116.033 31.3047 115.585 30.8333 115.258 30.236C114.932 29.6293 114.768 28.9527 114.768 28.206C114.768 27.45 114.927 26.778 115.244 26.19C115.571 25.602 116.01 25.14 116.56 24.804C117.12 24.4587 117.746 24.286 118.436 24.286C118.996 24.286 119.491 24.3887 119.92 24.594C120.359 24.79 120.728 25.0607 121.026 25.406C121.334 25.742 121.568 26.1293 121.726 26.568C121.894 26.9973 121.978 27.4453 121.978 27.912C121.978 28.0147 121.969 28.1313 121.95 28.262C121.941 28.3833 121.927 28.5 121.908 28.612H115.72V27.492H121.152L120.536 27.996C120.62 27.5107 120.574 27.0767 120.396 26.694C120.219 26.3113 119.958 26.008 119.612 25.784C119.267 25.56 118.875 25.448 118.436 25.448C117.998 25.448 117.596 25.56 117.232 25.784C116.868 26.008 116.584 26.33 116.378 26.75C116.182 27.1607 116.103 27.6507 116.14 28.22C116.103 28.7707 116.187 29.256 116.392 29.676C116.607 30.0867 116.906 30.4087 117.288 30.642C117.68 30.866 118.105 30.978 118.562 30.978C119.066 30.978 119.491 30.8613 119.836 30.628C120.182 30.3947 120.462 30.096 120.676 29.732L121.768 30.292C121.619 30.6373 121.386 30.9547 121.068 31.244C120.76 31.524 120.392 31.748 119.962 31.916C119.542 32.084 119.071 32.168 118.548 32.168ZM123.676 32V24.454H124.95V25.994L124.768 25.756C124.955 25.28 125.253 24.916 125.664 24.664C126.075 24.412 126.537 24.286 127.05 24.286C127.638 24.286 128.165 24.4493 128.632 24.776C129.108 25.1027 129.435 25.532 129.612 26.064L129.248 26.078C129.444 25.49 129.775 25.0467 130.242 24.748C130.709 24.44 131.227 24.286 131.796 24.286C132.319 24.286 132.79 24.4073 133.21 24.65C133.639 24.8927 133.98 25.2287 134.232 25.658C134.484 26.0873 134.61 26.5727 134.61 27.114V32H133.294V27.534C133.294 27.114 133.219 26.7593 133.07 26.47C132.921 26.1807 132.715 25.9567 132.454 25.798C132.202 25.63 131.903 25.546 131.558 25.546C131.222 25.546 130.919 25.63 130.648 25.798C130.387 25.9567 130.177 26.1853 130.018 26.484C129.869 26.7733 129.794 27.1233 129.794 27.534V32H128.478V27.534C128.478 27.114 128.403 26.7593 128.254 26.47C128.105 26.1807 127.899 25.9567 127.638 25.798C127.386 25.63 127.087 25.546 126.742 25.546C126.406 25.546 126.103 25.63 125.832 25.798C125.571 25.9567 125.361 26.1853 125.202 26.484C125.053 26.7733 124.978 27.1233 124.978 27.534V32H123.676ZM138.671 32.168C138.177 32.168 137.738 32.0793 137.355 31.902C136.982 31.7153 136.688 31.4633 136.473 31.146C136.259 30.8193 136.151 30.446 136.151 30.026C136.151 29.6247 136.235 29.2653 136.403 28.948C136.581 28.6213 136.851 28.346 137.215 28.122C137.589 27.898 138.055 27.7393 138.615 27.646L141.415 27.184V28.276L138.909 28.696C138.424 28.78 138.069 28.934 137.845 29.158C137.631 29.382 137.523 29.6573 137.523 29.984C137.523 30.292 137.645 30.5487 137.887 30.754C138.139 30.9593 138.452 31.062 138.825 31.062C139.301 31.062 139.712 30.964 140.057 30.768C140.412 30.5627 140.687 30.2873 140.883 29.942C141.089 29.5967 141.191 29.214 141.191 28.794V26.876C141.191 26.4653 141.037 26.134 140.729 25.882C140.431 25.6207 140.034 25.49 139.539 25.49C139.11 25.49 138.727 25.602 138.391 25.826C138.065 26.0407 137.822 26.33 137.663 26.694L136.529 26.106C136.669 25.7607 136.893 25.4527 137.201 25.182C137.509 24.902 137.869 24.6827 138.279 24.524C138.69 24.3653 139.119 24.286 139.567 24.286C140.146 24.286 140.655 24.398 141.093 24.622C141.532 24.8367 141.873 25.14 142.115 25.532C142.367 25.9147 142.493 26.3627 142.493 26.876V32H141.219V30.572L141.457 30.656C141.299 30.9547 141.084 31.216 140.813 31.44C140.543 31.664 140.225 31.8413 139.861 31.972C139.497 32.1027 139.101 32.168 138.671 32.168ZM144.512 32V24.454H145.814V32H144.512ZM144.512 23.25V21.57H145.814V23.25H144.512ZM147.834 32V21.402H149.136V32H147.834Z" fill="white"/>
<rect x="251" y="4" width="117" height="44" rx="22" fill="white"/>
<path d="M279.732 32.168C279.079 32.168 278.472 32.0467 277.912 31.804C277.352 31.552 276.876 31.2113 276.484 30.782C276.092 30.3527 275.803 29.858 275.616 29.298L277.016 28.71C277.268 29.354 277.637 29.8487 278.122 30.194C278.607 30.5393 279.167 30.712 279.802 30.712C280.175 30.712 280.502 30.656 280.782 30.544C281.062 30.4227 281.277 30.2547 281.426 30.04C281.585 29.8253 281.664 29.578 281.664 29.298C281.664 28.9153 281.557 28.612 281.342 28.388C281.127 28.164 280.81 27.9867 280.39 27.856L278.43 27.24C277.646 26.9973 277.049 26.6287 276.638 26.134C276.227 25.63 276.022 25.042 276.022 24.37C276.022 23.782 276.167 23.2687 276.456 22.83C276.745 22.382 277.142 22.032 277.646 21.78C278.159 21.528 278.743 21.402 279.396 21.402C280.021 21.402 280.591 21.514 281.104 21.738C281.617 21.9527 282.056 22.2513 282.42 22.634C282.793 23.0167 283.064 23.46 283.232 23.964L281.86 24.566C281.655 24.0153 281.333 23.5907 280.894 23.292C280.465 22.9933 279.965 22.844 279.396 22.844C279.051 22.844 278.747 22.9047 278.486 23.026C278.225 23.138 278.019 23.306 277.87 23.53C277.73 23.7447 277.66 23.9967 277.66 24.286C277.66 24.622 277.767 24.9207 277.982 25.182C278.197 25.4433 278.523 25.6393 278.962 25.77L280.782 26.344C281.613 26.596 282.238 26.96 282.658 27.436C283.078 27.9027 283.288 28.486 283.288 29.186C283.288 29.7647 283.134 30.278 282.826 30.726C282.527 31.174 282.112 31.5287 281.58 31.79C281.048 32.042 280.432 32.168 279.732 32.168ZM287.69 32.168C287.121 32.168 286.622 32.042 286.192 31.79C285.763 31.5287 285.427 31.1693 285.184 30.712C284.951 30.2453 284.834 29.7087 284.834 29.102V24.426H286.416V28.962C286.416 29.3073 286.486 29.6107 286.626 29.872C286.766 30.1333 286.962 30.3387 287.214 30.488C287.466 30.628 287.756 30.698 288.082 30.698C288.418 30.698 288.712 30.6233 288.964 30.474C289.216 30.3247 289.412 30.1147 289.552 29.844C289.702 29.5733 289.776 29.256 289.776 28.892V24.426H291.344V32H289.846V30.516L290.014 30.712C289.837 31.1787 289.543 31.538 289.132 31.79C288.722 32.042 288.241 32.168 287.69 32.168ZM297.238 32.168C296.65 32.168 296.113 32.0467 295.628 31.804C295.152 31.5613 294.783 31.2113 294.522 30.754L294.704 30.46V32H293.192V21.402H294.774V25.994L294.522 25.63C294.802 25.2007 295.175 24.8647 295.642 24.622C296.108 24.3793 296.64 24.258 297.238 24.258C297.956 24.258 298.6 24.4307 299.17 24.776C299.748 25.1213 300.201 25.5927 300.528 26.19C300.864 26.7873 301.032 27.4593 301.032 28.206C301.032 28.9527 300.864 29.6247 300.528 30.222C300.201 30.8193 299.753 31.2953 299.184 31.65C298.614 31.9953 297.966 32.168 297.238 32.168ZM297.084 30.698C297.532 30.698 297.928 30.5907 298.274 30.376C298.619 30.1613 298.89 29.8673 299.086 29.494C299.291 29.1113 299.394 28.682 299.394 28.206C299.394 27.73 299.291 27.3053 299.086 26.932C298.89 26.5587 298.619 26.2647 298.274 26.05C297.928 25.8353 297.532 25.728 297.084 25.728C296.645 25.728 296.248 25.8353 295.894 26.05C295.548 26.2647 295.273 26.5587 295.068 26.932C294.872 27.3053 294.774 27.73 294.774 28.206C294.774 28.682 294.872 29.1113 295.068 29.494C295.273 29.8673 295.548 30.1613 295.894 30.376C296.248 30.5907 296.645 30.698 297.084 30.698ZM305.37 32.168C304.596 32.168 303.914 31.9767 303.326 31.594C302.748 31.2113 302.342 30.698 302.108 30.054L303.326 29.48C303.532 29.9093 303.812 30.25 304.166 30.502C304.53 30.754 304.932 30.88 305.37 30.88C305.744 30.88 306.047 30.796 306.28 30.628C306.514 30.46 306.63 30.2313 306.63 29.942C306.63 29.7553 306.579 29.606 306.476 29.494C306.374 29.3727 306.243 29.2747 306.084 29.2C305.935 29.1253 305.781 29.0693 305.622 29.032L304.432 28.696C303.779 28.5093 303.289 28.2293 302.962 27.856C302.645 27.4733 302.486 27.03 302.486 26.526C302.486 26.0687 302.603 25.672 302.836 25.336C303.07 24.9907 303.392 24.7247 303.802 24.538C304.213 24.3513 304.675 24.258 305.188 24.258C305.879 24.258 306.495 24.4307 307.036 24.776C307.578 25.112 307.96 25.5833 308.184 26.19L306.966 26.764C306.817 26.4 306.579 26.1107 306.252 25.896C305.935 25.6813 305.576 25.574 305.174 25.574C304.829 25.574 304.554 25.658 304.348 25.826C304.143 25.9847 304.04 26.1947 304.04 26.456C304.04 26.6333 304.087 26.7827 304.18 26.904C304.274 27.016 304.395 27.1093 304.544 27.184C304.694 27.2493 304.848 27.3053 305.006 27.352L306.238 27.716C306.864 27.8933 307.344 28.1733 307.68 28.556C308.016 28.9293 308.184 29.3773 308.184 29.9C308.184 30.348 308.063 30.7447 307.82 31.09C307.587 31.426 307.26 31.692 306.84 31.888C306.42 32.0747 305.93 32.168 305.37 32.168ZM313.333 32.168C312.577 32.168 311.905 31.9953 311.317 31.65C310.738 31.2953 310.276 30.8193 309.931 30.222C309.595 29.6247 309.427 28.948 309.427 28.192C309.427 27.4453 309.595 26.7733 309.931 26.176C310.267 25.5787 310.729 25.112 311.317 24.776C311.905 24.4307 312.577 24.258 313.333 24.258C313.846 24.258 314.327 24.3513 314.775 24.538C315.223 24.7153 315.61 24.9627 315.937 25.28C316.273 25.5973 316.52 25.966 316.679 26.386L315.293 27.03C315.134 26.638 314.877 26.3253 314.523 26.092C314.177 25.8493 313.781 25.728 313.333 25.728C312.903 25.728 312.516 25.8353 312.171 26.05C311.835 26.2553 311.569 26.5493 311.373 26.932C311.177 27.3053 311.079 27.73 311.079 28.206C311.079 28.682 311.177 29.1113 311.373 29.494C311.569 29.8673 311.835 30.1613 312.171 30.376C312.516 30.5907 312.903 30.698 313.333 30.698C313.79 30.698 314.187 30.5813 314.523 30.348C314.868 30.1053 315.125 29.7833 315.293 29.382L316.679 30.04C316.529 30.4413 316.287 30.8053 315.951 31.132C315.624 31.4493 315.237 31.7013 314.789 31.888C314.341 32.0747 313.855 32.168 313.333 32.168ZM318.225 32V24.426H319.737V25.952L319.597 25.728C319.765 25.2333 320.035 24.8787 320.409 24.664C320.782 24.44 321.23 24.328 321.753 24.328H322.215V25.77H321.557C321.034 25.77 320.609 25.9333 320.283 26.26C319.965 26.5773 319.807 27.0347 319.807 27.632V32H318.225ZM323.297 32V24.426H324.879V32H323.297ZM323.297 23.39V21.57H324.879V23.39H323.297ZM330.775 32.168C330.187 32.168 329.65 32.0467 329.165 31.804C328.689 31.5613 328.32 31.2113 328.059 30.754L328.241 30.46V32H326.729V21.402H328.311V25.994L328.059 25.63C328.339 25.2007 328.712 24.8647 329.179 24.622C329.645 24.3793 330.177 24.258 330.775 24.258C331.493 24.258 332.137 24.4307 332.707 24.776C333.285 25.1213 333.738 25.5927 334.065 26.19C334.401 26.7873 334.569 27.4593 334.569 28.206C334.569 28.9527 334.401 29.6247 334.065 30.222C333.738 30.8193 333.29 31.2953 332.721 31.65C332.151 31.9953 331.503 32.168 330.775 32.168ZM330.621 30.698C331.069 30.698 331.465 30.5907 331.811 30.376C332.156 30.1613 332.427 29.8673 332.623 29.494C332.828 29.1113 332.931 28.682 332.931 28.206C332.931 27.73 332.828 27.3053 332.623 26.932C332.427 26.5587 332.156 26.2647 331.811 26.05C331.465 25.8353 331.069 25.728 330.621 25.728C330.182 25.728 329.785 25.8353 329.431 26.05C329.085 26.2647 328.81 26.5587 328.605 26.932C328.409 27.3053 328.311 27.73 328.311 28.206C328.311 28.682 328.409 29.1113 328.605 29.494C328.81 29.8673 329.085 30.1613 329.431 30.376C329.785 30.5907 330.182 30.698 330.621 30.698ZM339.664 32.168C338.908 32.168 338.236 31.9953 337.648 31.65C337.069 31.2953 336.616 30.8193 336.29 30.222C335.963 29.6153 335.8 28.9387 335.8 28.192C335.8 27.4267 335.963 26.75 336.29 26.162C336.626 25.574 337.074 25.112 337.634 24.776C338.194 24.4307 338.828 24.258 339.538 24.258C340.107 24.258 340.616 24.356 341.064 24.552C341.512 24.748 341.89 25.0187 342.198 25.364C342.506 25.7 342.739 26.0873 342.898 26.526C343.066 26.9647 343.15 27.4313 343.15 27.926C343.15 28.0473 343.145 28.1733 343.136 28.304C343.126 28.4347 343.108 28.556 343.08 28.668H337.046V27.408H342.184L341.428 27.982C341.521 27.5247 341.488 27.1187 341.33 26.764C341.18 26.4 340.947 26.1153 340.63 25.91C340.322 25.6953 339.958 25.588 339.538 25.588C339.118 25.588 338.744 25.6953 338.418 25.91C338.091 26.1153 337.839 26.414 337.662 26.806C337.484 27.1887 337.414 27.6553 337.452 28.206C337.405 28.7193 337.475 29.1673 337.662 29.55C337.858 29.9327 338.128 30.2313 338.474 30.446C338.828 30.6607 339.23 30.768 339.678 30.768C340.135 30.768 340.522 30.6653 340.84 30.46C341.166 30.2547 341.423 29.9887 341.61 29.662L342.898 30.292C342.748 30.6467 342.515 30.9687 342.198 31.258C341.89 31.538 341.516 31.762 341.078 31.93C340.648 32.0887 340.177 32.168 339.664 32.168Z" fill="#3A3A3A"/>
</svg>
