<svg width="595" height="143" viewBox="0 0 595 143" fill="none" xmlns="http://www.w3.org/2000/svg">
<g filter="url(#filter0_d_125_1165)">
<rect x="18.0078" width="558" height="100" rx="4.91124" fill="white"/>
</g>
<path opacity="0.88" d="M92.054 57L88.3594 43.9091H90.9098L93.2685 53.5291H93.3899L95.9084 43.9091H98.2287L100.754 53.5355H100.869L103.227 43.9091H105.778L102.083 57H99.7436L97.1229 47.8146H97.0206L94.3935 57H92.054ZM109.634 51.2472V57H107.32V43.9091H109.583V48.8501H109.698C109.928 48.2962 110.284 47.8594 110.765 47.5398C111.251 47.2159 111.869 47.054 112.619 47.054C113.301 47.054 113.895 47.1967 114.402 47.4822C114.909 47.7678 115.301 48.1854 115.578 48.7351C115.86 49.2848 116 49.956 116 50.7486V57H113.686V51.1065C113.686 50.446 113.516 49.9325 113.175 49.5661C112.838 49.1953 112.365 49.0099 111.756 49.0099C111.347 49.0099 110.98 49.0994 110.656 49.2784C110.337 49.4531 110.085 49.7067 109.902 50.0391C109.723 50.3714 109.634 50.7741 109.634 51.2472ZM121.184 57.1982C120.562 57.1982 120.002 57.0874 119.503 56.8658C119.009 56.6399 118.617 56.3075 118.327 55.8686C118.041 55.4297 117.899 54.8885 117.899 54.245C117.899 53.6911 118.001 53.233 118.205 52.8707C118.41 52.5085 118.689 52.2188 119.043 52.0014C119.396 51.7841 119.795 51.62 120.238 51.5092C120.686 51.3942 121.148 51.3111 121.625 51.2599C122.2 51.2003 122.667 51.147 123.025 51.1001C123.383 51.049 123.643 50.9723 123.805 50.87C123.971 50.7635 124.054 50.5994 124.054 50.3778V50.3395C124.054 49.858 123.911 49.4851 123.626 49.2209C123.34 48.9567 122.929 48.8246 122.392 48.8246C121.825 48.8246 121.376 48.9482 121.044 49.1953C120.715 49.4425 120.494 49.7344 120.379 50.071L118.218 49.7642C118.389 49.1676 118.67 48.669 119.062 48.2685C119.454 47.8636 119.933 47.5611 120.5 47.3608C121.067 47.1562 121.693 47.054 122.379 47.054C122.852 47.054 123.323 47.1094 123.792 47.2202C124.261 47.331 124.689 47.5142 125.077 47.7699C125.465 48.0213 125.776 48.3643 126.01 48.799C126.249 49.2337 126.368 49.777 126.368 50.429V57H124.144V55.6513H124.067C123.926 55.924 123.728 56.1797 123.472 56.4183C123.221 56.6527 122.904 56.8423 122.52 56.9872C122.141 57.1278 121.695 57.1982 121.184 57.1982ZM121.785 55.4979C122.249 55.4979 122.652 55.4062 122.993 55.223C123.334 55.0355 123.596 54.7884 123.779 54.4815C123.967 54.1747 124.061 53.8402 124.061 53.478V52.321C123.988 52.3807 123.865 52.4361 123.69 52.4872C123.519 52.5384 123.328 52.5831 123.115 52.6214C122.901 52.6598 122.691 52.6939 122.482 52.7237C122.273 52.7536 122.092 52.7791 121.938 52.8004C121.593 52.8473 121.284 52.924 121.012 53.0305C120.739 53.1371 120.524 53.2862 120.366 53.478C120.208 53.6655 120.129 53.9084 120.129 54.2067C120.129 54.6328 120.285 54.9545 120.596 55.1719C120.907 55.3892 121.303 55.4979 121.785 55.4979ZM133.597 47.1818V48.9716H127.953V47.1818H133.597ZM129.347 44.8295H131.661V54.0469C131.661 54.358 131.708 54.5966 131.801 54.7628C131.899 54.9247 132.027 55.0355 132.185 55.0952C132.343 55.1548 132.517 55.1847 132.709 55.1847C132.854 55.1847 132.986 55.174 133.105 55.1527C133.229 55.1314 133.323 55.1122 133.387 55.0952L133.776 56.9041C133.653 56.9467 133.476 56.9936 133.246 57.0447C133.02 57.0959 132.743 57.1257 132.415 57.1342C131.835 57.1513 131.313 57.0639 130.849 56.8722C130.384 56.6761 130.016 56.3736 129.743 55.9645C129.475 55.5554 129.343 55.044 129.347 54.4304V44.8295ZM139.998 57V47.1818H142.311V57H139.998ZM141.161 45.7884C140.794 45.7884 140.479 45.6669 140.215 45.424C139.951 45.1768 139.819 44.8807 139.819 44.5355C139.819 44.1861 139.951 43.8899 140.215 43.647C140.479 43.3999 140.794 43.2763 141.161 43.2763C141.532 43.2763 141.847 43.3999 142.107 43.647C142.371 43.8899 142.503 44.1861 142.503 44.5355C142.503 44.8807 142.371 45.1768 142.107 45.424C141.847 45.6669 141.532 45.7884 141.161 45.7884ZM152.451 49.777L150.341 50.0071C150.282 49.794 150.177 49.5938 150.028 49.4062C149.883 49.2188 149.687 49.0675 149.44 48.9524C149.193 48.8374 148.89 48.7798 148.532 48.7798C148.051 48.7798 147.646 48.8842 147.318 49.093C146.994 49.3018 146.834 49.5724 146.839 49.9048C146.834 50.1903 146.939 50.4226 147.152 50.6016C147.369 50.7805 147.727 50.9276 148.226 51.0426L149.9 51.4006C150.829 51.6009 151.52 51.9183 151.971 52.353C152.427 52.7876 152.657 53.3565 152.662 54.0597C152.657 54.6776 152.476 55.223 152.118 55.696C151.765 56.1648 151.273 56.5312 150.642 56.7955C150.011 57.0597 149.287 57.1918 148.469 57.1918C147.267 57.1918 146.3 56.9403 145.567 56.4375C144.834 55.9304 144.397 55.2251 144.256 54.3217L146.513 54.1044C146.615 54.5476 146.832 54.8821 147.165 55.108C147.497 55.3338 147.93 55.4467 148.462 55.4467C149.012 55.4467 149.453 55.3338 149.785 55.108C150.122 54.8821 150.29 54.603 150.29 54.2706C150.29 53.9893 150.182 53.7571 149.964 53.5739C149.751 53.3906 149.419 53.25 148.967 53.152L147.292 52.8004C146.351 52.6044 145.654 52.2741 145.202 51.8097C144.751 51.3409 144.527 50.7486 144.531 50.0327C144.527 49.4276 144.691 48.9034 145.023 48.4602C145.36 48.0128 145.827 47.6676 146.423 47.4247C147.024 47.1776 147.716 47.054 148.501 47.054C149.651 47.054 150.557 47.299 151.217 47.7891C151.882 48.2791 152.293 48.9418 152.451 49.777ZM159.137 57V43.9091H161.508V55.0121H167.274V57H159.137ZM169.332 43.9091H172.234L176.121 53.3949H176.274L180.16 43.9091H183.062V57H180.787V48.0064H180.665L177.047 56.9616H175.347L171.729 47.9872H171.608V57H169.332V43.9091ZM188.016 43.9091V57H185.645V43.9091H188.016ZM192.265 57H189.734L194.343 43.9091H197.27L201.885 57H199.354L195.858 46.5938H195.755L192.265 57ZM192.348 51.8672H199.252V53.772H192.348V51.8672ZM210.797 57.1982C210.175 57.1982 209.615 57.0874 209.116 56.8658C208.622 56.6399 208.23 56.3075 207.94 55.8686C207.655 55.4297 207.512 54.8885 207.512 54.245C207.512 53.6911 207.614 53.233 207.819 52.8707C208.023 52.5085 208.302 52.2188 208.656 52.0014C209.01 51.7841 209.408 51.62 209.851 51.5092C210.299 51.3942 210.761 51.3111 211.238 51.2599C211.814 51.2003 212.28 51.147 212.638 51.1001C212.996 51.049 213.256 50.9723 213.418 50.87C213.584 50.7635 213.667 50.5994 213.667 50.3778V50.3395C213.667 49.858 213.525 49.4851 213.239 49.2209C212.954 48.9567 212.542 48.8246 212.006 48.8246C211.439 48.8246 210.989 48.9482 210.657 49.1953C210.329 49.4425 210.107 49.7344 209.992 50.071L207.831 49.7642C208.002 49.1676 208.283 48.669 208.675 48.2685C209.067 47.8636 209.547 47.5611 210.113 47.3608C210.68 47.1562 211.307 47.054 211.993 47.054C212.466 47.054 212.937 47.1094 213.405 47.2202C213.874 47.331 214.302 47.5142 214.69 47.7699C215.078 48.0213 215.389 48.3643 215.623 48.799C215.862 49.2337 215.981 49.777 215.981 50.429V57H213.757V55.6513H213.68C213.54 55.924 213.341 56.1797 213.086 56.4183C212.834 56.6527 212.517 56.8423 212.133 56.9872C211.754 57.1278 211.309 57.1982 210.797 57.1982ZM211.398 55.4979C211.863 55.4979 212.265 55.4062 212.606 55.223C212.947 55.0355 213.209 54.7884 213.393 54.4815C213.58 54.1747 213.674 53.8402 213.674 53.478V52.321C213.601 52.3807 213.478 52.4361 213.303 52.4872C213.133 52.5384 212.941 52.5831 212.728 52.6214C212.515 52.6598 212.304 52.6939 212.095 52.7237C211.886 52.7536 211.705 52.7791 211.552 52.8004C211.206 52.8473 210.898 52.924 210.625 53.0305C210.352 53.1371 210.137 53.2862 209.979 53.478C209.822 53.6655 209.743 53.9084 209.743 54.2067C209.743 54.6328 209.898 54.9545 210.209 55.1719C210.52 55.3892 210.917 55.4979 211.398 55.4979ZM220.622 51.2472V57H218.308V47.1818H220.52V48.8501H220.635C220.861 48.3004 221.221 47.8636 221.715 47.5398C222.214 47.2159 222.829 47.054 223.562 47.054C224.24 47.054 224.83 47.1989 225.333 47.4886C225.84 47.7784 226.232 48.1982 226.509 48.7479C226.79 49.2976 226.929 49.9645 226.925 50.7486V57H224.611V51.1065C224.611 50.4503 224.44 49.9368 224.099 49.5661C223.763 49.1953 223.296 49.0099 222.699 49.0099C222.295 49.0099 221.934 49.0994 221.619 49.2784C221.308 49.4531 221.063 49.7067 220.884 50.0391C220.709 50.3714 220.622 50.7741 220.622 51.2472ZM232.92 57.1726C232.149 57.1726 231.459 56.9744 230.849 56.5781C230.24 56.1818 229.758 55.6065 229.405 54.8523C229.051 54.098 228.874 53.1818 228.874 52.1037C228.874 51.0128 229.053 50.0923 229.411 49.3423C229.773 48.5881 230.261 48.0192 230.875 47.6357C231.488 47.2479 232.172 47.054 232.927 47.054C233.502 47.054 233.975 47.152 234.346 47.348C234.716 47.5398 235.01 47.772 235.228 48.0447C235.445 48.3132 235.613 48.5668 235.733 48.8054H235.829V43.9091H238.149V57H235.873V55.4531H235.733C235.613 55.6918 235.441 55.9453 235.215 56.2138C234.989 56.478 234.691 56.7038 234.32 56.8913C233.949 57.0788 233.483 57.1726 232.92 57.1726ZM233.566 55.2741C234.056 55.2741 234.474 55.142 234.819 54.8778C235.164 54.6094 235.426 54.2365 235.605 53.7592C235.784 53.282 235.873 52.7259 235.873 52.0909C235.873 51.456 235.784 50.9041 235.605 50.4354C235.43 49.9666 235.17 49.6023 234.825 49.3423C234.484 49.0824 234.064 48.9524 233.566 48.9524C233.05 48.9524 232.62 49.0866 232.275 49.3551C231.93 49.6236 231.67 49.9943 231.495 50.4673C231.32 50.9403 231.233 51.4815 231.233 52.0909C231.233 52.7045 231.32 53.2521 231.495 53.7337C231.674 54.2109 231.936 54.5881 232.281 54.8651C232.631 55.1378 233.059 55.2741 233.566 55.2741ZM247.106 57L244.332 47.1818H246.69L248.416 54.0852H248.506L250.27 47.1818H252.603L254.367 54.0469H254.463L256.163 47.1818H258.528L255.748 57H253.338L251.497 50.3651H251.363L249.522 57H247.106ZM262.458 51.2472V57H260.144V43.9091H262.407V48.8501H262.522C262.752 48.2962 263.108 47.8594 263.589 47.5398C264.075 47.2159 264.693 47.054 265.443 47.054C266.125 47.054 266.719 47.1967 267.226 47.4822C267.733 47.7678 268.126 48.1854 268.403 48.7351C268.684 49.2848 268.824 49.956 268.824 50.7486V57H266.51V51.1065C266.51 50.446 266.34 49.9325 265.999 49.5661C265.662 49.1953 265.189 49.0099 264.58 49.0099C264.171 49.0099 263.805 49.0994 263.481 49.2784C263.161 49.4531 262.91 49.7067 262.726 50.0391C262.547 50.3714 262.458 50.7741 262.458 51.2472ZM272.27 60.6818C271.954 60.6818 271.662 60.6563 271.394 60.6051C271.13 60.5582 270.919 60.5028 270.761 60.4389L271.298 58.6364C271.635 58.7344 271.935 58.7813 272.199 58.777C272.464 58.7727 272.696 58.6896 272.896 58.5277C273.101 58.37 273.273 58.1058 273.414 57.7351L273.612 57.2045L270.052 47.1818H272.506L274.769 54.5966H274.871L277.14 47.1818H279.601L275.67 58.1889C275.487 58.7088 275.244 59.1541 274.942 59.5249C274.639 59.8999 274.268 60.1854 273.829 60.3814C273.395 60.5817 272.875 60.6818 272.27 60.6818ZM289.311 57.1726C288.54 57.1726 287.849 56.9744 287.24 56.5781C286.631 56.1818 286.149 55.6065 285.795 54.8523C285.442 54.098 285.265 53.1818 285.265 52.1037C285.265 51.0128 285.444 50.0923 285.802 49.3423C286.164 48.5881 286.652 48.0192 287.265 47.6357C287.879 47.2479 288.563 47.054 289.317 47.054C289.893 47.054 290.366 47.152 290.736 47.348C291.107 47.5398 291.401 47.772 291.618 48.0447C291.836 48.3132 292.004 48.5668 292.123 48.8054H292.219V43.9091H294.54V57H292.264V55.4531H292.123C292.004 55.6918 291.831 55.9453 291.606 56.2138C291.38 56.478 291.081 56.7038 290.711 56.8913C290.34 57.0788 289.873 57.1726 289.311 57.1726ZM289.956 55.2741C290.447 55.2741 290.864 55.142 291.209 54.8778C291.555 54.6094 291.817 54.2365 291.996 53.7592C292.175 53.282 292.264 52.7259 292.264 52.0909C292.264 51.456 292.175 50.9041 291.996 50.4354C291.821 49.9666 291.561 49.6023 291.216 49.3423C290.875 49.0824 290.455 48.9524 289.956 48.9524C289.441 48.9524 289.01 49.0866 288.665 49.3551C288.32 49.6236 288.06 49.9943 287.885 50.4673C287.711 50.9403 287.623 51.4815 287.623 52.0909C287.623 52.7045 287.711 53.2521 287.885 53.7337C288.064 54.2109 288.327 54.5881 288.672 54.8651C289.021 55.1378 289.449 55.2741 289.956 55.2741ZM301.288 57.1918C300.329 57.1918 299.498 56.9808 298.795 56.5589C298.092 56.1371 297.547 55.5469 297.159 54.7884C296.775 54.0298 296.583 53.1435 296.583 52.1293C296.583 51.1151 296.775 50.2266 297.159 49.4638C297.547 48.701 298.092 48.1087 298.795 47.6868C299.498 47.2649 300.329 47.054 301.288 47.054C302.247 47.054 303.078 47.2649 303.781 47.6868C304.484 48.1087 305.027 48.701 305.411 49.4638C305.799 50.2266 305.993 51.1151 305.993 52.1293C305.993 53.1435 305.799 54.0298 305.411 54.7884C305.027 55.5469 304.484 56.1371 303.781 56.5589C303.078 56.9808 302.247 57.1918 301.288 57.1918ZM301.301 55.3381C301.821 55.3381 302.255 55.1953 302.605 54.9098C302.954 54.62 303.214 54.2322 303.385 53.7464C303.559 53.2607 303.647 52.7195 303.647 52.1229C303.647 51.522 303.559 50.9787 303.385 50.4929C303.214 50.0028 302.954 49.6129 302.605 49.3232C302.255 49.0334 301.821 48.8885 301.301 48.8885C300.768 48.8885 300.325 49.0334 299.971 49.3232C299.622 49.6129 299.36 50.0028 299.185 50.4929C299.015 50.9787 298.929 51.522 298.929 52.1229C298.929 52.7195 299.015 53.2607 299.185 53.7464C299.36 54.2322 299.622 54.62 299.971 54.9098C300.325 55.1953 300.768 55.3381 301.301 55.3381ZM314.895 43.9091V57H312.524V43.9091H314.895ZM324.14 51.2472V57H321.826V47.1818H324.037V48.8501H324.152C324.378 48.3004 324.738 47.8636 325.233 47.5398C325.731 47.2159 326.347 47.054 327.08 47.054C327.757 47.054 328.348 47.1989 328.85 47.4886C329.358 47.7784 329.75 48.1982 330.027 48.7479C330.308 49.2976 330.446 49.9645 330.442 50.7486V57H328.128V51.1065C328.128 50.4503 327.958 49.9368 327.617 49.5661C327.28 49.1953 326.814 49.0099 326.217 49.0099C325.812 49.0099 325.452 49.0994 325.137 49.2784C324.826 49.4531 324.581 49.7067 324.402 50.0391C324.227 50.3714 324.14 50.7741 324.14 51.2472ZM337.141 57.1918C336.157 57.1918 335.306 56.9872 334.591 56.5781C333.879 56.1648 333.331 55.581 332.948 54.8267C332.564 54.0682 332.373 53.1754 332.373 52.1484C332.373 51.1385 332.564 50.2521 332.948 49.4893C333.336 48.7223 333.877 48.1257 334.571 47.6996C335.266 47.2692 336.082 47.054 337.02 47.054C337.625 47.054 338.196 47.152 338.733 47.348C339.274 47.5398 339.751 47.8381 340.164 48.2429C340.582 48.6477 340.91 49.1634 341.149 49.7898C341.387 50.4119 341.507 51.1534 341.507 52.0142V52.7237H333.459V51.1641H339.289C339.284 50.7209 339.189 50.3267 339.001 49.9815C338.814 49.6321 338.551 49.3572 338.215 49.157C337.882 48.9567 337.495 48.8565 337.051 48.8565C336.578 48.8565 336.163 48.9716 335.805 49.2017C335.447 49.4276 335.168 49.7259 334.968 50.0966C334.772 50.4631 334.672 50.8658 334.667 51.3047V52.6662C334.667 53.2372 334.772 53.7273 334.98 54.1364C335.189 54.5412 335.481 54.8523 335.856 55.0696C336.231 55.2827 336.67 55.3892 337.173 55.3892C337.51 55.3892 337.814 55.3423 338.087 55.2486C338.36 55.1506 338.596 55.0078 338.797 54.8203C338.997 54.6328 339.148 54.4006 339.25 54.1236L341.411 54.3665C341.275 54.9375 341.015 55.4361 340.631 55.8622C340.252 56.2841 339.766 56.6122 339.174 56.8466C338.581 57.0767 337.904 57.1918 337.141 57.1918ZM347.811 57.1918C346.827 57.1918 345.976 56.9872 345.26 56.5781C344.549 56.1648 344.001 55.581 343.618 54.8267C343.234 54.0682 343.042 53.1754 343.042 52.1484C343.042 51.1385 343.234 50.2521 343.618 49.4893C344.006 48.7223 344.547 48.1257 345.241 47.6996C345.936 47.2692 346.752 47.054 347.689 47.054C348.295 47.054 348.866 47.152 349.403 47.348C349.944 47.5398 350.421 47.8381 350.834 48.2429C351.252 48.6477 351.58 49.1634 351.819 49.7898C352.057 50.4119 352.177 51.1534 352.177 52.0142V52.7237H344.129V51.1641H349.959C349.954 50.7209 349.858 50.3267 349.671 49.9815C349.483 49.6321 349.221 49.3572 348.885 49.157C348.552 48.9567 348.165 48.8565 347.721 48.8565C347.248 48.8565 346.833 48.9716 346.475 49.2017C346.117 49.4276 345.838 49.7259 345.638 50.0966C345.442 50.4631 345.341 50.8658 345.337 51.3047V52.6662C345.337 53.2372 345.442 53.7273 345.65 54.1364C345.859 54.5412 346.151 54.8523 346.526 55.0696C346.901 55.2827 347.34 55.3892 347.843 55.3892C348.18 55.3892 348.484 55.3423 348.757 55.2486C349.03 55.1506 349.266 55.0078 349.466 54.8203C349.667 54.6328 349.818 54.4006 349.92 54.1236L352.081 54.3665C351.944 54.9375 351.684 55.4361 351.301 55.8622C350.922 56.2841 350.436 56.6122 349.844 56.8466C349.251 57.0767 348.574 57.1918 347.811 57.1918ZM357.778 57.1726C357.006 57.1726 356.316 56.9744 355.707 56.5781C355.097 56.1818 354.616 55.6065 354.262 54.8523C353.908 54.098 353.732 53.1818 353.732 52.1037C353.732 51.0128 353.911 50.0923 354.268 49.3423C354.631 48.5881 355.119 48.0192 355.732 47.6357C356.346 47.2479 357.03 47.054 357.784 47.054C358.359 47.054 358.832 47.152 359.203 47.348C359.574 47.5398 359.868 47.772 360.085 48.0447C360.303 48.3132 360.471 48.5668 360.59 48.8054H360.686V43.9091H363.006V57H360.731V55.4531H360.59C360.471 55.6918 360.298 55.9453 360.072 56.2138C359.847 56.478 359.548 56.7038 359.178 56.8913C358.807 57.0788 358.34 57.1726 357.778 57.1726ZM358.423 55.2741C358.913 55.2741 359.331 55.142 359.676 54.8778C360.021 54.6094 360.283 54.2365 360.462 53.7592C360.641 53.282 360.731 52.7259 360.731 52.0909C360.731 51.456 360.641 50.9041 360.462 50.4354C360.288 49.9666 360.028 49.6023 359.683 49.3423C359.342 49.0824 358.922 48.9524 358.423 48.9524C357.908 48.9524 357.477 49.0866 357.132 49.3551C356.787 49.6236 356.527 49.9943 356.352 50.4673C356.178 50.9403 356.09 51.4815 356.09 52.0909C356.09 52.7045 356.178 53.2521 356.352 53.7337C356.531 54.2109 356.793 54.5881 357.138 54.8651C357.488 55.1378 357.916 55.2741 358.423 55.2741ZM369.937 57V47.1818H372.251V57H369.937ZM371.1 45.7884C370.734 45.7884 370.419 45.6669 370.154 45.424C369.89 45.1768 369.758 44.8807 369.758 44.5355C369.758 44.1861 369.89 43.8899 370.154 43.647C370.419 43.3999 370.734 43.2763 371.1 43.2763C371.471 43.2763 371.786 43.3999 372.046 43.647C372.311 43.8899 372.443 44.1861 372.443 44.5355C372.443 44.8807 372.311 45.1768 372.046 45.424C371.786 45.6669 371.471 45.7884 371.1 45.7884ZM379.533 47.1818V48.9716H373.889V47.1818H379.533ZM375.282 44.8295H377.596V54.0469C377.596 54.358 377.643 54.5966 377.737 54.7628C377.835 54.9247 377.963 55.0355 378.12 55.0952C378.278 55.1548 378.453 55.1847 378.645 55.1847C378.789 55.1847 378.922 55.174 379.041 55.1527C379.164 55.1314 379.258 55.1122 379.322 55.0952L379.712 56.9041C379.588 56.9467 379.412 56.9936 379.181 57.0447C378.956 57.0959 378.679 57.1257 378.35 57.1342C377.771 57.1513 377.249 57.0639 376.784 56.8722C376.32 56.6761 375.951 56.3736 375.679 55.9645C375.41 55.5554 375.278 55.044 375.282 54.4304V44.8295ZM383.68 53.152V52.9858C383.684 52.2145 383.757 51.6009 383.897 51.1449C384.042 50.6889 384.247 50.3224 384.511 50.0455C384.775 49.7642 385.097 49.5064 385.476 49.272C385.736 49.1101 385.968 48.9332 386.173 48.7415C386.382 48.5455 386.546 48.3281 386.665 48.0895C386.784 47.8466 386.844 47.576 386.844 47.2777C386.844 46.9411 386.765 46.6491 386.607 46.402C386.45 46.1548 386.237 45.9631 385.968 45.8267C385.704 45.6903 385.408 45.6222 385.08 45.6222C384.777 45.6222 384.49 45.6882 384.217 45.8203C383.948 45.9482 383.725 46.1442 383.546 46.4084C383.371 46.6683 383.273 46.9986 383.252 47.3991H380.976C380.997 46.5895 381.193 45.9119 381.564 45.3665C381.939 44.821 382.433 44.4119 383.047 44.1392C383.665 43.8665 384.347 43.7301 385.093 43.7301C385.906 43.7301 386.622 43.8729 387.24 44.1584C387.862 44.4439 388.346 44.8509 388.691 45.3793C389.041 45.9034 389.215 46.5256 389.215 47.2457C389.215 47.7315 389.137 48.1662 388.979 48.5497C388.825 48.9332 388.606 49.2741 388.32 49.5724C388.035 49.8707 387.696 50.1371 387.304 50.3714C386.959 50.5845 386.676 50.8061 386.454 51.0362C386.237 51.2663 386.075 51.5369 385.968 51.848C385.866 52.1548 385.813 52.5341 385.808 52.9858V53.152H383.68ZM384.792 57.1406C384.409 57.1406 384.078 57.0043 383.801 56.7315C383.524 56.4588 383.386 56.1264 383.386 55.7344C383.386 55.3509 383.524 55.0227 383.801 54.75C384.078 54.4773 384.409 54.3409 384.792 54.3409C385.171 54.3409 385.499 54.4773 385.776 54.75C386.058 55.0227 386.198 55.3509 386.198 55.7344C386.198 55.9943 386.132 56.2308 386 56.4439C385.872 56.657 385.702 56.8274 385.489 56.9553C385.28 57.0788 385.048 57.1406 384.792 57.1406Z" fill="#1B1139"/>
<rect opacity="0.8" x="56.0078" y="47.5" width="18" height="3" rx="1.5" fill="#1B1139"/>
<rect opacity="0.8" x="66.5078" y="40" width="18" height="3" rx="1.5" transform="rotate(90 66.5078 40)" fill="#1B1139"/>
<defs>
<filter id="filter0_d_125_1165" x="-7.53403e-05" y="0" width="594.016" height="142.564" filterUnits="userSpaceOnUse" color-interpolation-filters="sRGB">
<feFlood flood-opacity="0" result="BackgroundImageFix"/>
<feColorMatrix in="SourceAlpha" type="matrix" values="0 0 0 0 0 0 0 0 0 0 0 0 0 0 0 0 0 0 127 0" result="hardAlpha"/>
<feMorphology radius="14.7337" operator="erode" in="SourceAlpha" result="effect1_dropShadow_125_1165"/>
<feOffset dy="24.5562"/>
<feGaussianBlur stdDeviation="16.3708"/>
<feColorMatrix type="matrix" values="0 0 0 0 0.583333 0 0 0 0 0.583333 0 0 0 0 0.583333 0 0 0 0.25 0"/>
<feBlend mode="normal" in2="BackgroundImageFix" result="effect1_dropShadow_125_1165"/>
<feBlend mode="normal" in="SourceGraphic" in2="effect1_dropShadow_125_1165" result="shape"/>
</filter>
</defs>
</svg>
