<svg width="338" height="22" viewBox="0 0 338 22" fill="none" xmlns="http://www.w3.org/2000/svg">
<path opacity="0.88" d="M36.0462 18L32.3516 4.90909H34.902L37.2607 14.5291H37.3821L39.9006 4.90909H42.2209L44.7457 14.5355H44.8608L47.2195 4.90909H49.7699L46.0753 18H43.7358L41.1151 8.81463H41.0128L38.3857 18H36.0462ZM53.6259 12.2472V18H51.312V4.90909H53.5748V9.85014H53.6898C53.9199 9.29616 54.2757 8.85937 54.7573 8.53977C55.2431 8.21591 55.861 8.05398 56.611 8.05398C57.2928 8.05398 57.8873 8.19673 58.3944 8.48224C58.9015 8.76776 59.2935 9.18537 59.5705 9.73509C59.8517 10.2848 59.9924 10.956 59.9924 11.7486V18H57.6784V12.1065C57.6784 11.446 57.508 10.9325 57.1671 10.5661C56.8304 10.1953 56.3574 10.0099 55.748 10.0099C55.339 10.0099 54.9725 10.0994 54.6486 10.2784C54.329 10.4531 54.0776 10.7067 53.8944 11.0391C53.7154 11.3714 53.6259 11.7741 53.6259 12.2472ZM65.1763 18.1982C64.5542 18.1982 63.9938 18.0874 63.4952 17.8658C63.0009 17.6399 62.6088 17.3075 62.3191 16.8686C62.0336 16.4297 61.8908 15.8885 61.8908 15.245C61.8908 14.6911 61.9931 14.233 62.1976 13.8707C62.4022 13.5085 62.6813 13.2188 63.035 13.0014C63.3887 12.7841 63.7871 12.62 64.2303 12.5092C64.6777 12.3942 65.1401 12.3111 65.6174 12.2599C66.1926 12.2003 66.6593 12.147 67.0172 12.1001C67.3752 12.049 67.6351 11.9723 67.7971 11.87C67.9632 11.7635 68.0463 11.5994 68.0463 11.3778V11.3395C68.0463 10.858 67.9036 10.4851 67.6181 10.2209C67.3326 9.95668 66.9213 9.82457 66.3844 9.82457C65.8176 9.82457 65.3681 9.94815 65.0357 10.1953C64.7076 10.4425 64.486 10.7344 64.3709 11.071L62.2104 10.7642C62.3809 10.1676 62.6621 9.66903 63.0542 9.26847C63.4462 8.86364 63.9256 8.56108 64.4924 8.3608C65.0591 8.15625 65.6855 8.05398 66.3716 8.05398C66.8446 8.05398 67.3155 8.10938 67.7843 8.22017C68.253 8.33097 68.6813 8.5142 69.0691 8.76989C69.4569 9.02131 69.7679 9.36435 70.0023 9.79901C70.2409 10.2337 70.3603 10.777 70.3603 11.429V18H68.1358V16.6513H68.0591C67.9185 16.924 67.7203 17.1797 67.4647 17.4183C67.2132 17.6527 66.8958 17.8423 66.5123 17.9872C66.133 18.1278 65.6877 18.1982 65.1763 18.1982ZM65.7772 16.4979C66.2417 16.4979 66.6444 16.4062 66.9853 16.223C67.3262 16.0355 67.5882 15.7884 67.7715 15.4815C67.959 15.1747 68.0527 14.8402 68.0527 14.478V13.321C67.9803 13.3807 67.8567 13.4361 67.682 13.4872C67.5115 13.5384 67.3198 13.5831 67.1067 13.6214C66.8936 13.6598 66.6827 13.6939 66.4739 13.7237C66.2651 13.7536 66.084 13.7791 65.9306 13.8004C65.5854 13.8473 65.2765 13.924 65.0037 14.0305C64.731 14.1371 64.5158 14.2862 64.3581 14.478C64.2005 14.6655 64.1216 14.9084 64.1216 15.2067C64.1216 15.6328 64.2772 15.9545 64.5882 16.1719C64.8993 16.3892 65.2956 16.4979 65.7772 16.4979ZM77.5897 8.18182V9.97159H71.9455V8.18182H77.5897ZM73.339 5.82955H75.6529V15.0469C75.6529 15.358 75.6998 15.5966 75.7935 15.7628C75.8915 15.9247 76.0194 16.0355 76.177 16.0952C76.3347 16.1548 76.5094 16.1847 76.7012 16.1847C76.8461 16.1847 76.9782 16.174 77.0975 16.1527C77.2211 16.1314 77.3148 16.1122 77.3787 16.0952L77.7686 17.9041C77.6451 17.9467 77.4682 17.9936 77.2381 18.0447C77.0123 18.0959 76.7353 18.1257 76.4071 18.1342C75.8276 18.1513 75.3056 18.0639 74.8411 17.8722C74.3766 17.6761 74.008 17.3736 73.7353 16.9645C73.4668 16.5554 73.3347 16.044 73.339 15.4304V5.82955ZM83.9897 18V8.18182H86.3036V18H83.9897ZM85.1531 6.78835C84.7866 6.78835 84.4712 6.6669 84.207 6.42401C83.9428 6.17685 83.8107 5.88068 83.8107 5.53551C83.8107 5.18608 83.9428 4.88991 84.207 4.64702C84.4712 4.39986 84.7866 4.27628 85.1531 4.27628C85.5238 4.27628 85.8391 4.39986 86.0991 4.64702C86.3633 4.88991 86.4954 5.18608 86.4954 5.53551C86.4954 5.88068 86.3633 6.17685 86.0991 6.42401C85.8391 6.6669 85.5238 6.78835 85.1531 6.78835ZM96.443 10.777L94.3336 11.0071C94.274 10.794 94.1696 10.5938 94.0204 10.4062C93.8755 10.2188 93.6795 10.0675 93.4324 9.95241C93.1852 9.83736 92.8826 9.77983 92.5247 9.77983C92.0431 9.77983 91.6383 9.88423 91.3102 10.093C90.9863 10.3018 90.8265 10.5724 90.8308 10.9048C90.8265 11.1903 90.9309 11.4226 91.144 11.6016C91.3613 11.7805 91.7193 11.9276 92.2179 12.0426L93.8926 12.4006C94.8216 12.6009 95.5119 12.9183 95.9636 13.353C96.4196 13.7876 96.6497 14.3565 96.6539 15.0597C96.6497 15.6776 96.4686 16.223 96.1106 16.696C95.7569 17.1648 95.2647 17.5312 94.6341 17.7955C94.0034 18.0597 93.2789 18.1918 92.4608 18.1918C91.2591 18.1918 90.2917 17.9403 89.5588 17.4375C88.8258 16.9304 88.389 16.2251 88.2484 15.3217L90.5048 15.1044C90.6071 15.5476 90.8244 15.8821 91.1568 16.108C91.4892 16.3338 91.9217 16.4467 92.4544 16.4467C93.0041 16.4467 93.4451 16.3338 93.7775 16.108C94.1142 15.8821 94.2825 15.603 94.2825 15.2706C94.2825 14.9893 94.1738 14.7571 93.9565 14.5739C93.7434 14.3906 93.411 14.25 92.9593 14.152L91.2846 13.8004C90.3429 13.6044 89.6461 13.2741 89.1944 12.8097C88.7427 12.3409 88.519 11.7486 88.5233 11.0327C88.519 10.4276 88.6831 9.90341 89.0154 9.46023C89.3521 9.01278 89.8187 8.66761 90.4153 8.42472C91.0162 8.17756 91.7086 8.05398 92.4927 8.05398C93.6433 8.05398 94.5488 8.29901 95.2093 8.78906C95.8741 9.27912 96.2853 9.94176 96.443 10.777ZM103.129 18V4.90909H105.501V16.0121H111.266V18H103.129ZM113.324 4.90909H116.226L120.113 14.3949H120.266L124.153 4.90909H127.055V18H124.779V9.00639H124.657L121.04 17.9616H119.339L115.721 8.98722H115.6V18H113.324V4.90909ZM132.008 4.90909V18H129.637V4.90909H132.008ZM136.257 18H133.726L138.335 4.90909H141.262L145.877 18H143.346L139.85 7.59375H139.748L136.257 18ZM136.341 12.8672H143.244V14.772H136.341V12.8672ZM154.79 18.1982C154.167 18.1982 153.607 18.0874 153.108 17.8658C152.614 17.6399 152.222 17.3075 151.932 16.8686C151.647 16.4297 151.504 15.8885 151.504 15.245C151.504 14.6911 151.606 14.233 151.811 13.8707C152.015 13.5085 152.295 13.2188 152.648 13.0014C153.002 12.7841 153.4 12.62 153.844 12.5092C154.291 12.3942 154.753 12.3111 155.231 12.2599C155.806 12.2003 156.273 12.147 156.631 12.1001C156.988 12.049 157.248 11.9723 157.41 11.87C157.577 11.7635 157.66 11.5994 157.66 11.3778V11.3395C157.66 10.858 157.517 10.4851 157.231 10.2209C156.946 9.95668 156.535 9.82457 155.998 9.82457C155.431 9.82457 154.981 9.94815 154.649 10.1953C154.321 10.4425 154.099 10.7344 153.984 11.071L151.824 10.7642C151.994 10.1676 152.275 9.66903 152.667 9.26847C153.059 8.86364 153.539 8.56108 154.106 8.3608C154.672 8.15625 155.299 8.05398 155.985 8.05398C156.458 8.05398 156.929 8.10938 157.398 8.22017C157.866 8.33097 158.295 8.5142 158.682 8.76989C159.07 9.02131 159.381 9.36435 159.616 9.79901C159.854 10.2337 159.974 10.777 159.974 11.429V18H157.749V16.6513H157.672C157.532 16.924 157.334 17.1797 157.078 17.4183C156.827 17.6527 156.509 17.8423 156.126 17.9872C155.746 18.1278 155.301 18.1982 154.79 18.1982ZM155.39 16.4979C155.855 16.4979 156.258 16.4062 156.599 16.223C156.939 16.0355 157.202 15.7884 157.385 15.4815C157.572 15.1747 157.666 14.8402 157.666 14.478V13.321C157.594 13.3807 157.47 13.4361 157.295 13.4872C157.125 13.5384 156.933 13.5831 156.72 13.6214C156.507 13.6598 156.296 13.6939 156.087 13.7237C155.878 13.7536 155.697 13.7791 155.544 13.8004C155.199 13.8473 154.89 13.924 154.617 14.0305C154.344 14.1371 154.129 14.2862 153.971 14.478C153.814 14.6655 153.735 14.9084 153.735 15.2067C153.735 15.6328 153.89 15.9545 154.202 16.1719C154.513 16.3892 154.909 16.4979 155.39 16.4979ZM164.614 12.2472V18H162.3V8.18182H164.512V9.85014H164.627C164.853 9.30043 165.213 8.86364 165.707 8.53977C166.206 8.21591 166.822 8.05398 167.555 8.05398C168.232 8.05398 168.822 8.19886 169.325 8.48864C169.832 8.77841 170.224 9.19815 170.501 9.74787C170.782 10.2976 170.921 10.9645 170.917 11.7486V18H168.603V12.1065C168.603 11.4503 168.432 10.9368 168.091 10.5661C167.755 10.1953 167.288 10.0099 166.692 10.0099C166.287 10.0099 165.927 10.0994 165.611 10.2784C165.3 10.4531 165.055 10.7067 164.876 11.0391C164.702 11.3714 164.614 11.7741 164.614 12.2472ZM176.912 18.1726C176.141 18.1726 175.451 17.9744 174.841 17.5781C174.232 17.1818 173.751 16.6065 173.397 15.8523C173.043 15.098 172.866 14.1818 172.866 13.1037C172.866 12.0128 173.045 11.0923 173.403 10.3423C173.765 9.58807 174.253 9.01918 174.867 8.63565C175.481 8.24787 176.165 8.05398 176.919 8.05398C177.494 8.05398 177.967 8.15199 178.338 8.34801C178.709 8.53977 179.003 8.77202 179.22 9.04474C179.437 9.31321 179.606 9.56676 179.725 9.8054H179.821V4.90909H182.141V18H179.866V16.4531H179.725C179.606 16.6918 179.433 16.9453 179.207 17.2138C178.981 17.478 178.683 17.7038 178.312 17.8913C177.942 18.0788 177.475 18.1726 176.912 18.1726ZM177.558 16.2741C178.048 16.2741 178.466 16.142 178.811 15.8778C179.156 15.6094 179.418 15.2365 179.597 14.7592C179.776 14.282 179.866 13.7259 179.866 13.0909C179.866 12.456 179.776 11.9041 179.597 11.4354C179.422 10.9666 179.162 10.6023 178.817 10.3423C178.476 10.0824 178.057 9.95241 177.558 9.95241C177.042 9.95241 176.612 10.0866 176.267 10.3551C175.922 10.6236 175.662 10.9943 175.487 11.4673C175.312 11.9403 175.225 12.4815 175.225 13.0909C175.225 13.7045 175.312 14.2521 175.487 14.7337C175.666 15.2109 175.928 15.5881 176.273 15.8651C176.623 16.1378 177.051 16.2741 177.558 16.2741ZM191.098 18L188.324 8.18182H190.683L192.408 15.0852H192.498L194.262 8.18182H196.595L198.359 15.0469H198.455L200.156 8.18182H202.521L199.74 18H197.33L195.489 11.3651H195.355L193.514 18H191.098ZM206.45 12.2472V18H204.136V4.90909H206.399V9.85014H206.514C206.744 9.29616 207.1 8.85937 207.581 8.53977C208.067 8.21591 208.685 8.05398 209.435 8.05398C210.117 8.05398 210.711 8.19673 211.219 8.48224C211.726 8.76776 212.118 9.18537 212.395 9.73509C212.676 10.2848 212.817 10.956 212.817 11.7486V18H210.503V12.1065C210.503 11.446 210.332 10.9325 209.991 10.5661C209.655 10.1953 209.182 10.0099 208.572 10.0099C208.163 10.0099 207.797 10.0994 207.473 10.2784C207.153 10.4531 206.902 10.7067 206.719 11.0391C206.54 11.3714 206.45 11.7741 206.45 12.2472ZM216.262 21.6818C215.947 21.6818 215.655 21.6563 215.386 21.6051C215.122 21.5582 214.911 21.5028 214.753 21.4389L215.29 19.6364C215.627 19.7344 215.927 19.7813 216.192 19.777C216.456 19.7727 216.688 19.6896 216.888 19.5277C217.093 19.37 217.265 19.1058 217.406 18.7351L217.604 18.2045L214.044 8.18182H216.498L218.761 15.5966H218.863L221.133 8.18182H223.594L219.662 19.1889C219.479 19.7088 219.236 20.1541 218.934 20.5249C218.631 20.8999 218.26 21.1854 217.822 21.3814C217.387 21.5817 216.867 21.6818 216.262 21.6818ZM233.303 18.1726C232.532 18.1726 231.841 17.9744 231.232 17.5781C230.623 17.1818 230.141 16.6065 229.787 15.8523C229.434 15.098 229.257 14.1818 229.257 13.1037C229.257 12.0128 229.436 11.0923 229.794 10.3423C230.156 9.58807 230.644 9.01918 231.258 8.63565C231.871 8.24787 232.555 8.05398 233.309 8.05398C233.885 8.05398 234.358 8.15199 234.729 8.34801C235.099 8.53977 235.393 8.77202 235.611 9.04474C235.828 9.31321 235.996 9.56676 236.116 9.8054H236.211V4.90909H238.532V18H236.256V16.4531H236.116C235.996 16.6918 235.824 16.9453 235.598 17.2138C235.372 17.478 235.074 17.7038 234.703 17.8913C234.332 18.0788 233.866 18.1726 233.303 18.1726ZM233.949 16.2741C234.439 16.2741 234.856 16.142 235.202 15.8778C235.547 15.6094 235.809 15.2365 235.988 14.7592C236.167 14.282 236.256 13.7259 236.256 13.0909C236.256 12.456 236.167 11.9041 235.988 11.4354C235.813 10.9666 235.553 10.6023 235.208 10.3423C234.867 10.0824 234.447 9.95241 233.949 9.95241C233.433 9.95241 233.003 10.0866 232.657 10.3551C232.312 10.6236 232.052 10.9943 231.878 11.4673C231.703 11.9403 231.616 12.4815 231.616 13.0909C231.616 13.7045 231.703 14.2521 231.878 14.7337C232.057 15.2109 232.319 15.5881 232.664 15.8651C233.013 16.1378 233.442 16.2741 233.949 16.2741ZM245.28 18.1918C244.321 18.1918 243.49 17.9808 242.787 17.5589C242.084 17.1371 241.539 16.5469 241.151 15.7884C240.767 15.0298 240.576 14.1435 240.576 13.1293C240.576 12.1151 240.767 11.2266 241.151 10.4638C241.539 9.70099 242.084 9.10866 242.787 8.68679C243.49 8.26491 244.321 8.05398 245.28 8.05398C246.239 8.05398 247.07 8.26491 247.773 8.68679C248.476 9.10866 249.02 9.70099 249.403 10.4638C249.791 11.2266 249.985 12.1151 249.985 13.1293C249.985 14.1435 249.791 15.0298 249.403 15.7884C249.02 16.5469 248.476 17.1371 247.773 17.5589C247.07 17.9808 246.239 18.1918 245.28 18.1918ZM245.293 16.3381C245.813 16.3381 246.248 16.1953 246.597 15.9098C246.946 15.62 247.206 15.2322 247.377 14.7464C247.551 14.2607 247.639 13.7195 247.639 13.1229C247.639 12.522 247.551 11.9787 247.377 11.4929C247.206 11.0028 246.946 10.6129 246.597 10.3232C246.248 10.0334 245.813 9.88849 245.293 9.88849C244.76 9.88849 244.317 10.0334 243.963 10.3232C243.614 10.6129 243.352 11.0028 243.177 11.4929C243.007 11.9787 242.922 12.522 242.922 13.1229C242.922 13.7195 243.007 14.2607 243.177 14.7464C243.352 15.2322 243.614 15.62 243.963 15.9098C244.317 16.1953 244.76 16.3381 245.293 16.3381ZM258.887 4.90909V18H256.516V4.90909H258.887ZM268.132 12.2472V18H265.818V8.18182H268.029V9.85014H268.145C268.37 9.30043 268.73 8.86364 269.225 8.53977C269.723 8.21591 270.339 8.05398 271.072 8.05398C271.75 8.05398 272.34 8.19886 272.843 8.48864C273.35 8.77841 273.742 9.19815 274.019 9.74787C274.3 10.2976 274.439 10.9645 274.434 11.7486V18H272.12V12.1065C272.12 11.4503 271.95 10.9368 271.609 10.5661C271.272 10.1953 270.806 10.0099 270.209 10.0099C269.804 10.0099 269.444 10.0994 269.129 10.2784C268.818 10.4531 268.573 10.7067 268.394 11.0391C268.219 11.3714 268.132 11.7741 268.132 12.2472ZM281.133 18.1918C280.149 18.1918 279.299 17.9872 278.583 17.5781C277.871 17.1648 277.324 16.581 276.94 15.8267C276.556 15.0682 276.365 14.1754 276.365 13.1484C276.365 12.1385 276.556 11.2521 276.94 10.4893C277.328 9.7223 277.869 9.12571 278.564 8.69957C279.258 8.26918 280.074 8.05398 281.012 8.05398C281.617 8.05398 282.188 8.15199 282.725 8.34801C283.266 8.53977 283.743 8.83807 284.157 9.2429C284.574 9.64773 284.902 10.1634 285.141 10.7898C285.38 11.4119 285.499 12.1534 285.499 13.0142V13.7237H277.451V12.1641H283.281C283.277 11.7209 283.181 11.3267 282.993 10.9815C282.806 10.6321 282.544 10.3572 282.207 10.157C281.875 9.95668 281.487 9.85653 281.044 9.85653C280.571 9.85653 280.155 9.97159 279.797 10.2017C279.439 10.4276 279.16 10.7259 278.96 11.0966C278.764 11.4631 278.664 11.8658 278.659 12.3047V13.6662C278.659 14.2372 278.764 14.7273 278.973 15.1364C279.181 15.5412 279.473 15.8523 279.848 16.0696C280.223 16.2827 280.662 16.3892 281.165 16.3892C281.502 16.3892 281.806 16.3423 282.079 16.2486C282.352 16.1506 282.588 16.0078 282.789 15.8203C282.989 15.6328 283.14 15.4006 283.243 15.1236L285.403 15.3665C285.267 15.9375 285.007 16.4361 284.623 16.8622C284.244 17.2841 283.758 17.6122 283.166 17.8466C282.574 18.0767 281.896 18.1918 281.133 18.1918ZM291.803 18.1918C290.819 18.1918 289.969 17.9872 289.253 17.5781C288.541 17.1648 287.993 16.581 287.61 15.8267C287.226 15.0682 287.035 14.1754 287.035 13.1484C287.035 12.1385 287.226 11.2521 287.61 10.4893C287.998 9.7223 288.539 9.12571 289.233 8.69957C289.928 8.26918 290.744 8.05398 291.682 8.05398C292.287 8.05398 292.858 8.15199 293.395 8.34801C293.936 8.53977 294.413 8.83807 294.827 9.2429C295.244 9.64773 295.572 10.1634 295.811 10.7898C296.05 11.4119 296.169 12.1534 296.169 13.0142V13.7237H288.121V12.1641H293.951C293.947 11.7209 293.851 11.3267 293.663 10.9815C293.476 10.6321 293.214 10.3572 292.877 10.157C292.545 9.95668 292.157 9.85653 291.714 9.85653C291.241 9.85653 290.825 9.97159 290.467 10.2017C290.109 10.4276 289.83 10.7259 289.63 11.0966C289.434 11.4631 289.334 11.8658 289.329 12.3047V13.6662C289.329 14.2372 289.434 14.7273 289.643 15.1364C289.851 15.5412 290.143 15.8523 290.518 16.0696C290.893 16.2827 291.332 16.3892 291.835 16.3892C292.172 16.3892 292.476 16.3423 292.749 16.2486C293.022 16.1506 293.258 16.0078 293.459 15.8203C293.659 15.6328 293.81 15.4006 293.912 15.1236L296.073 15.3665C295.937 15.9375 295.677 16.4361 295.293 16.8622C294.914 17.2841 294.428 17.6122 293.836 17.8466C293.243 18.0767 292.566 18.1918 291.803 18.1918ZM301.77 18.1726C300.999 18.1726 300.308 17.9744 299.699 17.5781C299.089 17.1818 298.608 16.6065 298.254 15.8523C297.901 15.098 297.724 14.1818 297.724 13.1037C297.724 12.0128 297.903 11.0923 298.261 10.3423C298.623 9.58807 299.111 9.01918 299.724 8.63565C300.338 8.24787 301.022 8.05398 301.776 8.05398C302.352 8.05398 302.825 8.15199 303.195 8.34801C303.566 8.53977 303.86 8.77202 304.077 9.04474C304.295 9.31321 304.463 9.56676 304.582 9.8054H304.678V4.90909H306.999V18H304.723V16.4531H304.582C304.463 16.6918 304.29 16.9453 304.065 17.2138C303.839 17.478 303.54 17.7038 303.17 17.8913C302.799 18.0788 302.332 18.1726 301.77 18.1726ZM302.415 16.2741C302.906 16.2741 303.323 16.142 303.668 15.8778C304.013 15.6094 304.276 15.2365 304.455 14.7592C304.634 14.282 304.723 13.7259 304.723 13.0909C304.723 12.456 304.634 11.9041 304.455 11.4354C304.28 10.9666 304.02 10.6023 303.675 10.3423C303.334 10.0824 302.914 9.95241 302.415 9.95241C301.9 9.95241 301.469 10.0866 301.124 10.3551C300.779 10.6236 300.519 10.9943 300.344 11.4673C300.17 11.9403 300.082 12.4815 300.082 13.0909C300.082 13.7045 300.17 14.2521 300.344 14.7337C300.523 15.2109 300.786 15.5881 301.131 15.8651C301.48 16.1378 301.908 16.2741 302.415 16.2741ZM313.929 18V8.18182H316.243V18H313.929ZM315.093 6.78835C314.726 6.78835 314.411 6.6669 314.146 6.42401C313.882 6.17685 313.75 5.88068 313.75 5.53551C313.75 5.18608 313.882 4.88991 314.146 4.64702C314.411 4.39986 314.726 4.27628 315.093 4.27628C315.463 4.27628 315.779 4.39986 316.039 4.64702C316.303 4.88991 316.435 5.18608 316.435 5.53551C316.435 5.88068 316.303 6.17685 316.039 6.42401C315.779 6.6669 315.463 6.78835 315.093 6.78835ZM323.525 8.18182V9.97159H317.881V8.18182H323.525ZM319.275 5.82955H321.588V15.0469C321.588 15.358 321.635 15.5966 321.729 15.7628C321.827 15.9247 321.955 16.0355 322.113 16.0952C322.27 16.1548 322.445 16.1847 322.637 16.1847C322.782 16.1847 322.914 16.174 323.033 16.1527C323.157 16.1314 323.25 16.1122 323.314 16.0952L323.704 17.9041C323.581 17.9467 323.404 17.9936 323.174 18.0447C322.948 18.0959 322.671 18.1257 322.343 18.1342C321.763 18.1513 321.241 18.0639 320.777 17.8722C320.312 17.6761 319.944 17.3736 319.671 16.9645C319.402 16.5554 319.27 16.044 319.275 15.4304V5.82955ZM327.672 14.152V13.9858C327.676 13.2145 327.749 12.6009 327.889 12.1449C328.034 11.6889 328.239 11.3224 328.503 11.0455C328.767 10.7642 329.089 10.5064 329.468 10.272C329.728 10.1101 329.96 9.93324 330.165 9.74148C330.374 9.54545 330.538 9.32812 330.657 9.08949C330.776 8.84659 330.836 8.57599 330.836 8.2777C330.836 7.94105 330.757 7.64915 330.6 7.40199C330.442 7.15483 330.229 6.96307 329.96 6.8267C329.696 6.69034 329.4 6.62216 329.072 6.62216C328.769 6.62216 328.482 6.68821 328.209 6.82031C327.941 6.94815 327.717 7.14418 327.538 7.40838C327.363 7.66832 327.265 7.99858 327.244 8.39915H324.968C324.99 7.58949 325.186 6.91193 325.556 6.36648C325.931 5.82102 326.426 5.41193 327.039 5.1392C327.657 4.86648 328.339 4.73011 329.085 4.73011C329.899 4.73011 330.615 4.87287 331.232 5.15838C331.855 5.44389 332.338 5.85085 332.683 6.37926C333.033 6.90341 333.208 7.52557 333.208 8.24574C333.208 8.73153 333.129 9.16619 332.971 9.54972C332.818 9.93324 332.598 10.2741 332.313 10.5724C332.027 10.8707 331.688 11.1371 331.296 11.3714C330.951 11.5845 330.668 11.8061 330.446 12.0362C330.229 12.2663 330.067 12.5369 329.96 12.848C329.858 13.1548 329.805 13.5341 329.801 13.9858V14.152H327.672ZM328.784 18.1406C328.401 18.1406 328.07 18.0043 327.794 17.7315C327.517 17.4588 327.378 17.1264 327.378 16.7344C327.378 16.3509 327.517 16.0227 327.794 15.75C328.07 15.4773 328.401 15.3409 328.784 15.3409C329.164 15.3409 329.492 15.4773 329.769 15.75C330.05 16.0227 330.191 16.3509 330.191 16.7344C330.191 16.9943 330.124 17.2308 329.992 17.4439C329.865 17.657 329.694 17.8274 329.481 17.9553C329.272 18.0788 329.04 18.1406 328.784 18.1406Z" fill="#1B1139"/>
<rect opacity="0.8" y="8.5" width="18" height="3" rx="1.5" fill="#1B1139"/>
<rect opacity="0.8" x="10.5" y="1" width="18" height="3" rx="1.5" transform="rotate(90 10.5 1)" fill="#1B1139"/>
</svg>
