<svg width="24" height="24" viewBox="0 0 24 24" fill="none" xmlns="http://www.w3.org/2000/svg">
<path d="M5.20017 1.92017C3.38867 1.92017 1.92017 3.38867 1.92017 5.20017V18.3202C1.92017 20.1317 3.38867 21.6002 5.20017 21.6002H18.3202C20.1317 21.6002 21.6002 20.1317 21.6002 18.3202V5.20017C21.6002 3.38867 20.1317 1.92017 18.3202 1.92017H5.20017ZM6.17758 6.13731H9.89686L12.5381 9.89046L15.743 6.13731H16.9145L13.067 10.6418L17.8113 17.383H14.093L11.028 13.0286L7.30874 17.383H6.13731L10.499 12.2772L6.17758 6.13731ZM7.97133 7.07445L14.5817 16.4459H16.0176L9.40724 7.07445H7.97133Z" fill="white"/>
</svg>
