<svg width="20" height="20" viewBox="0 0 20 20" fill="none" xmlns="http://www.w3.org/2000/svg">
<path d="M17.3371 0H2.34286C1.0496 0 0 1.0496 0 2.34286V17.3371C0 18.6304 1.0496 19.68 2.34286 19.68H17.3371C18.6304 19.68 19.68 18.6304 19.68 17.3371V2.34286C19.68 1.0496 18.6304 0 17.3371 0ZM6.09143 7.49714V16.4H3.28V7.49714H6.09143ZM3.28 4.90594C3.28 4.24994 3.84229 3.74857 4.68571 3.74857C5.52914 3.74857 6.05863 4.24994 6.09143 4.90594C6.09143 5.56194 5.56663 6.09143 4.68571 6.09143C3.84229 6.09143 3.28 5.56194 3.28 4.90594ZM16.4 16.4H13.5886C13.5886 16.4 13.5886 12.061 13.5886 11.7143C13.5886 10.7771 13.12 9.84 11.9486 9.82126H11.9111C10.7771 9.82126 10.3086 10.7865 10.3086 11.7143C10.3086 12.1407 10.3086 16.4 10.3086 16.4H7.49714V7.49714H10.3086V8.69668C10.3086 8.69668 11.2129 7.49714 13.031 7.49714C14.8912 7.49714 16.4 8.77634 16.4 11.3675V16.4Z" fill="white"/>
</svg>
