<svg width="17" height="22" viewBox="0 0 17 22" fill="none" xmlns="http://www.w3.org/2000/svg">
<path d="M8.41537 0C6.18424 0.00252621 4.04522 0.897178 2.46757 2.48768C0.889927 4.07818 0.00250579 6.23463 0 8.48394C0 11.9358 2.48569 14.8023 5.11865 17.8364C5.95177 18.7972 6.81434 19.7909 7.58224 20.7963C7.68051 20.9248 7.80672 21.0288 7.95116 21.1004C8.0956 21.1721 8.25441 21.2093 8.41537 21.2093C8.57632 21.2093 8.73513 21.1721 8.87957 21.1004C9.02401 21.0288 9.15022 20.9248 9.24849 20.7963C10.0164 19.7909 10.879 18.7972 11.7121 17.8364C14.345 14.8023 16.8307 11.9358 16.8307 8.48394C16.8282 6.23463 15.9408 4.07818 14.3632 2.48768C12.7855 0.897178 10.6465 0.00252621 8.41537 0ZM8.41537 11.6654C7.79121 11.6654 7.18108 11.4788 6.66212 11.1292C6.14316 10.7797 5.73867 10.2828 5.49982 9.70144C5.26097 9.1201 5.19847 8.48041 5.32024 7.86326C5.44201 7.24612 5.74256 6.67923 6.1839 6.23429C6.62525 5.78936 7.18755 5.48635 7.79971 5.36359C8.41186 5.24083 9.04638 5.30384 9.62302 5.54464C10.1997 5.78543 10.6925 6.19321 11.0393 6.7164C11.386 7.23959 11.5711 7.8547 11.5711 8.48394C11.5711 9.32772 11.2386 10.1369 10.6468 10.7336C10.055 11.3302 9.25233 11.6654 8.41537 11.6654Z" fill="white"/>
</svg>
