<svg width="26" height="18" viewBox="0 0 26 18" fill="none" xmlns="http://www.w3.org/2000/svg">
<path d="M7.71237 8.67653L0 14.1194V3.23367L7.71237 8.67653ZM17.5337 8.67653L25.2461 14.1194V3.23367L17.5337 8.67653ZM16.4069 9.4741L12.9586 11.9069C12.857 11.9769 12.74 12.0137 12.623 12.0137C12.5061 12.0137 12.3891 11.9769 12.2875 11.9069L8.83921 9.4741L0.511079 15.3508L0.0277092 15.6912C0.17857 16.6322 0.935953 17.3531 1.84728 17.3531H23.3988C24.3101 17.3531 25.0675 16.6356 25.2184 15.6912L24.7319 15.3508L16.4069 9.4741ZM12.623 10.5487L24.7319 2.00228L25.2184 1.66189C25.0675 0.717482 24.3101 0 23.3988 0H1.84728C0.935953 0 0.17857 0.720819 0.0277092 1.66189L0.511079 2.00228L12.623 10.5487Z" fill="white"/>
</svg>
