<svg width="21" height="22" viewBox="0 0 21 22" fill="none" xmlns="http://www.w3.org/2000/svg">
<path d="M8.33393 4.86678C8.06618 1.68952 4.85323 0.130543 4.71726 0.0669115C4.59014 0.00526632 4.44769 -0.0144293 4.30933 0.0105106C0.60014 0.645383 0.0422188 2.8725 0.0197898 2.96505C-0.0107257 3.09403 -0.00587224 3.22923 0.0338079 3.35552C4.45792 17.5165 13.6524 20.1413 16.6747 21.0047C16.9074 21.0712 17.0995 21.1247 17.2452 21.1739C17.4116 21.23 17.5924 21.2191 17.7513 21.1435C17.8438 21.1001 20.0278 20.0386 20.5619 16.5765C20.5856 16.4253 20.562 16.2704 20.4946 16.134C20.447 16.0385 19.3045 13.7955 16.1364 13.003C16.0289 12.9746 15.9164 12.9736 15.8085 13.0001C15.7005 13.0265 15.6004 13.0796 15.5168 13.1548C14.5173 14.0356 13.1365 14.9741 12.5408 15.071C8.54701 13.0565 6.31672 9.19085 6.23262 8.45764C6.18355 8.04548 7.09894 6.59785 8.1517 5.42067C8.21786 5.34658 8.26826 5.25902 8.29965 5.16362C8.33103 5.06823 8.34271 4.96711 8.33393 4.86678Z" fill="white"/>
</svg>
