<svg width="302" height="83" viewBox="0 0 302 83" fill="none" xmlns="http://www.w3.org/2000/svg">
<path d="M35.8693 28.5455C35.8693 32.3068 35.1648 35.5284 33.7557 38.2102C32.358 40.8807 30.4489 42.9261 28.0284 44.3466C25.6193 45.767 22.8864 46.4773 19.8296 46.4773C16.7727 46.4773 14.0341 45.767 11.6137 44.3466C9.20456 42.9148 7.29547 40.8636 5.88638 38.1932C4.48865 35.5114 3.78979 32.2955 3.78979 28.5455C3.78979 24.7841 4.48865 21.5682 5.88638 18.8977C7.29547 16.2159 9.20456 14.1648 11.6137 12.7443C14.0341 11.3239 16.7727 10.6136 19.8296 10.6136C22.8864 10.6136 25.6193 11.3239 28.0284 12.7443C30.4489 14.1648 32.358 16.2159 33.7557 18.8977C35.1648 21.5682 35.8693 24.7841 35.8693 28.5455ZM29.5114 28.5455C29.5114 25.8977 29.0966 23.6648 28.2671 21.8466C27.4489 20.017 26.3125 18.6364 24.858 17.7045C23.4034 16.7614 21.7273 16.2898 19.8296 16.2898C17.9318 16.2898 16.2557 16.7614 14.8012 17.7045C13.3466 18.6364 12.2046 20.017 11.375 21.8466C10.5568 23.6648 10.1477 25.8977 10.1477 28.5455C10.1477 31.1932 10.5568 33.4318 11.375 35.2614C12.2046 37.0795 13.3466 38.4602 14.8012 39.4034C16.2557 40.3352 17.9318 40.8011 19.8296 40.8011C21.7273 40.8011 23.4034 40.3352 24.858 39.4034C26.3125 38.4602 27.4489 37.0795 28.2671 35.2614C29.0966 33.4318 29.5114 31.1932 29.5114 28.5455ZM58.2628 34.9886V19.8182H64.4333V46H58.4503V41.3466H58.1776C57.5867 42.8125 56.6151 44.0114 55.2628 44.9432C53.9219 45.875 52.2685 46.3409 50.3026 46.3409C48.5867 46.3409 47.0696 45.9602 45.7514 45.1989C44.4446 44.4261 43.4219 43.3068 42.6833 41.8409C41.9446 40.3636 41.5753 38.5795 41.5753 36.4886V19.8182H47.7458V35.5341C47.7458 37.1932 48.2003 38.5114 49.1094 39.4886C50.0185 40.4659 51.2117 40.9545 52.6889 40.9545C53.598 40.9545 54.4787 40.733 55.331 40.2898C56.1833 39.8466 56.8821 39.1875 57.4276 38.3125C57.9844 37.4261 58.2628 36.3182 58.2628 34.9886ZM70.7784 46V19.8182H76.7614V24.1818H77.0341C77.5114 22.6705 78.3296 21.5057 79.4887 20.6875C80.6591 19.858 81.9943 19.4432 83.4943 19.4432C83.8352 19.4432 84.2159 19.4602 84.6364 19.4943C85.0682 19.517 85.4262 19.5568 85.7102 19.6136V25.2898C85.4489 25.1989 85.0341 25.1193 84.4659 25.0511C83.9091 24.9716 83.3693 24.9318 82.8466 24.9318C81.7216 24.9318 80.7102 25.1761 79.8125 25.6648C78.9262 26.142 78.2273 26.8068 77.7159 27.6591C77.2046 28.5114 76.9489 29.4943 76.9489 30.608V46H70.7784ZM120.96 20.6875C120.801 19.1989 120.131 18.0398 118.949 17.2102C117.778 16.3807 116.256 15.9659 114.381 15.9659C113.063 15.9659 111.932 16.1648 110.989 16.5625C110.045 16.9602 109.324 17.5 108.824 18.1818C108.324 18.8636 108.068 19.642 108.057 20.517C108.057 21.2443 108.222 21.875 108.551 22.4091C108.892 22.9432 109.352 23.3977 109.932 23.7727C110.511 24.1364 111.153 24.4432 111.858 24.6932C112.563 24.9432 113.273 25.1534 113.989 25.3239L117.261 26.142C118.58 26.4489 119.847 26.8636 121.063 27.3864C122.29 27.9091 123.386 28.5682 124.352 29.3636C125.33 30.1591 126.102 31.1193 126.67 32.2443C127.239 33.3693 127.523 34.6875 127.523 36.1989C127.523 38.2443 127 40.0455 125.955 41.6023C124.909 43.1477 123.398 44.358 121.42 45.233C119.455 46.0966 117.074 46.5284 114.278 46.5284C111.563 46.5284 109.205 46.108 107.205 45.267C105.216 44.4261 103.659 43.1989 102.534 41.5852C101.42 39.9716 100.818 38.0057 100.727 35.6875H106.949C107.04 36.9034 107.415 37.9148 108.074 38.7216C108.733 39.5284 109.591 40.1307 110.648 40.5284C111.716 40.9261 112.909 41.125 114.227 41.125C115.602 41.125 116.807 40.9205 117.841 40.5114C118.886 40.0909 119.705 39.5114 120.295 38.7727C120.886 38.0227 121.188 37.1477 121.199 36.1477C121.188 35.2386 120.92 34.4886 120.398 33.8977C119.875 33.2955 119.142 32.7955 118.199 32.3977C117.267 31.9886 116.176 31.625 114.926 31.3068L110.955 30.2841C108.08 29.5455 105.807 28.4261 104.136 26.9261C102.477 25.4148 101.648 23.4091 101.648 20.9091C101.648 18.8523 102.205 17.0511 103.318 15.5057C104.443 13.9602 105.972 12.7614 107.903 11.9091C109.835 11.0455 112.023 10.6136 114.466 10.6136C116.943 10.6136 119.114 11.0455 120.977 11.9091C122.852 12.7614 124.324 13.9489 125.392 15.4716C126.46 16.983 127.011 18.7216 127.045 20.6875H120.96ZM144.479 46.5114C141.854 46.5114 139.587 45.9659 137.678 44.875C135.78 43.7727 134.32 42.2159 133.297 40.2045C132.274 38.1818 131.763 35.8011 131.763 33.0625C131.763 30.3693 132.274 28.0057 133.297 25.9716C134.331 23.9261 135.774 22.3352 137.626 21.1989C139.479 20.0511 141.655 19.4773 144.155 19.4773C145.768 19.4773 147.291 19.7386 148.723 20.2614C150.166 20.7727 151.439 21.5682 152.541 22.6477C153.655 23.7273 154.53 25.1023 155.166 26.7727C155.803 28.4318 156.121 30.4091 156.121 32.7045V34.5966H134.661V30.4375H150.206C150.195 29.2557 149.939 28.2045 149.439 27.2841C148.939 26.3523 148.24 25.6193 147.342 25.0852C146.456 24.5511 145.422 24.2841 144.24 24.2841C142.979 24.2841 141.871 24.5909 140.916 25.2045C139.962 25.8068 139.217 26.6023 138.683 27.5909C138.161 28.5682 137.893 29.642 137.882 30.8125V34.4432C137.882 35.9659 138.161 37.2727 138.717 38.3636C139.274 39.4432 140.053 40.2727 141.053 40.8523C142.053 41.4205 143.223 41.7045 144.564 41.7045C145.462 41.7045 146.274 41.5795 147.001 41.3295C147.729 41.0682 148.359 40.6875 148.893 40.1875C149.428 39.6875 149.831 39.0682 150.104 38.3295L155.865 38.9773C155.501 40.5 154.808 41.8295 153.786 42.9659C152.774 44.0909 151.479 44.9659 149.899 45.5909C148.32 46.2045 146.513 46.5114 144.479 46.5114ZM161.341 46V19.8182H167.324V24.1818H167.597C168.074 22.6705 168.892 21.5057 170.051 20.6875C171.222 19.858 172.557 19.4432 174.057 19.4432C174.398 19.4432 174.778 19.4602 175.199 19.4943C175.631 19.517 175.989 19.5568 176.273 19.6136V25.2898C176.011 25.1989 175.597 25.1193 175.028 25.0511C174.472 24.9716 173.932 24.9318 173.409 24.9318C172.284 24.9318 171.273 25.1761 170.375 25.6648C169.489 26.142 168.79 26.8068 168.278 27.6591C167.767 28.5114 167.511 29.4943 167.511 30.608V46H161.341ZM204.555 19.8182L195.232 46H188.413L179.09 19.8182H185.669L191.686 39.267H191.959L197.993 19.8182H204.555ZM208.825 46V19.8182H214.996V46H208.825ZM211.928 16.1023C210.95 16.1023 210.109 15.7784 209.405 15.1307C208.7 14.4716 208.348 13.6818 208.348 12.7614C208.348 11.8295 208.7 11.0398 209.405 10.392C210.109 9.73295 210.95 9.40341 211.928 9.40341C212.916 9.40341 213.757 9.73295 214.45 10.392C215.155 11.0398 215.507 11.8295 215.507 12.7614C215.507 13.6818 215.155 14.4716 214.45 15.1307C213.757 15.7784 212.916 16.1023 211.928 16.1023ZM232.761 46.5114C230.148 46.5114 227.903 45.9375 226.028 44.7898C224.165 43.642 222.727 42.0568 221.716 40.0341C220.716 38 220.216 35.6591 220.216 33.0114C220.216 30.3523 220.727 28.0057 221.75 25.9716C222.773 23.9261 224.216 22.3352 226.08 21.1989C227.955 20.0511 230.17 19.4773 232.727 19.4773C234.852 19.4773 236.733 19.8693 238.369 20.6534C240.017 21.4261 241.33 22.5227 242.307 23.9432C243.284 25.3523 243.841 27 243.977 28.8864H238.08C237.841 27.625 237.273 26.5739 236.375 25.733C235.489 24.8807 234.301 24.4545 232.813 24.4545C231.551 24.4545 230.443 24.7955 229.489 25.4773C228.534 26.1477 227.79 27.1136 227.256 28.375C226.733 29.6364 226.472 31.1477 226.472 32.9091C226.472 34.6932 226.733 36.2273 227.256 37.5114C227.778 38.7841 228.511 39.767 229.455 40.4602C230.409 41.142 231.528 41.483 232.813 41.483C233.722 41.483 234.534 41.3125 235.25 40.9716C235.977 40.6193 236.585 40.1136 237.074 39.4545C237.563 38.7955 237.898 37.9943 238.08 37.0511H243.977C243.83 38.9034 243.284 40.5455 242.341 41.9773C241.398 43.3977 240.114 44.5114 238.489 45.3182C236.864 46.1136 234.955 46.5114 232.761 46.5114ZM260.635 46.5114C258.01 46.5114 255.743 45.9659 253.834 44.875C251.936 43.7727 250.476 42.2159 249.453 40.2045C248.43 38.1818 247.919 35.8011 247.919 33.0625C247.919 30.3693 248.43 28.0057 249.453 25.9716C250.487 23.9261 251.93 22.3352 253.783 21.1989C255.635 20.0511 257.811 19.4773 260.311 19.4773C261.925 19.4773 263.447 19.7386 264.879 20.2614C266.322 20.7727 267.595 21.5682 268.697 22.6477C269.811 23.7273 270.686 25.1023 271.322 26.7727C271.959 28.4318 272.277 30.4091 272.277 32.7045V34.5966H250.817V30.4375H266.362C266.351 29.2557 266.095 28.2045 265.595 27.2841C265.095 26.3523 264.396 25.6193 263.499 25.0852C262.612 24.5511 261.578 24.2841 260.396 24.2841C259.135 24.2841 258.027 24.5909 257.072 25.2045C256.118 25.8068 255.374 26.6023 254.84 27.5909C254.317 28.5682 254.05 29.642 254.038 30.8125V34.4432C254.038 35.9659 254.317 37.2727 254.874 38.3636C255.43 39.4432 256.209 40.2727 257.209 40.8523C258.209 41.4205 259.379 41.7045 260.72 41.7045C261.618 41.7045 262.43 41.5795 263.158 41.3295C263.885 41.0682 264.516 40.6875 265.05 40.1875C265.584 39.6875 265.987 39.0682 266.26 38.3295L272.021 38.9773C271.658 40.5 270.965 41.8295 269.942 42.9659C268.93 44.0909 267.635 44.9659 266.055 45.5909C264.476 46.2045 262.669 46.5114 260.635 46.5114ZM298.19 26.7386L292.565 27.3523C292.406 26.7841 292.128 26.25 291.73 25.75C291.344 25.25 290.821 24.8466 290.162 24.5398C289.503 24.233 288.696 24.0795 287.741 24.0795C286.457 24.0795 285.378 24.358 284.503 24.9148C283.639 25.4716 283.213 26.1932 283.224 27.0795C283.213 27.8409 283.491 28.4602 284.06 28.9375C284.639 29.4148 285.594 29.8068 286.923 30.1136L291.389 31.0682C293.866 31.6023 295.707 32.4489 296.912 33.608C298.128 34.767 298.741 36.2841 298.753 38.1591C298.741 39.8068 298.259 41.2614 297.304 42.5227C296.361 43.7727 295.048 44.75 293.366 45.4545C291.685 46.1591 289.753 46.5114 287.571 46.5114C284.366 46.5114 281.787 45.8409 279.832 44.5C277.878 43.1477 276.713 41.267 276.338 38.858L282.355 38.2784C282.628 39.4602 283.207 40.3523 284.094 40.9545C284.98 41.5568 286.134 41.858 287.554 41.858C289.02 41.858 290.196 41.5568 291.082 40.9545C291.98 40.3523 292.429 39.608 292.429 38.7216C292.429 37.9716 292.139 37.3523 291.56 36.8636C290.991 36.375 290.105 36 288.901 35.7386L284.435 34.8011C281.923 34.2784 280.065 33.3977 278.861 32.1591C277.656 30.9091 277.06 29.3295 277.071 27.4205C277.06 25.8068 277.497 24.4091 278.384 23.2273C279.281 22.0341 280.526 21.1136 282.116 20.4659C283.719 19.8068 285.565 19.4773 287.656 19.4773C290.724 19.4773 293.139 20.1307 294.901 21.4375C296.673 22.7443 297.77 24.5114 298.19 26.7386ZM59.0642 79V65.8681H61.4431V71.4273H67.5282V65.8681H69.9135V79H67.5282V73.4215H61.4431V79H59.0642ZM76.6942 79.1924C75.7324 79.1924 74.8989 78.9808 74.1935 78.5576C73.4882 78.1344 72.941 77.5423 72.552 76.7814C72.1673 76.0205 71.9749 75.1314 71.9749 74.114C71.9749 73.0966 72.1673 72.2053 72.552 71.4402C72.941 70.675 73.4882 70.0808 74.1935 69.6576C74.8989 69.2344 75.7324 69.0228 76.6942 69.0228C77.656 69.0228 78.4896 69.2344 79.1949 69.6576C79.9003 70.0808 80.4453 70.675 80.83 71.4402C81.219 72.2053 81.4135 73.0966 81.4135 74.114C81.4135 75.1314 81.219 76.0205 80.83 76.7814C80.4453 77.5423 79.9003 78.1344 79.1949 78.5576C78.4896 78.9808 77.656 79.1924 76.6942 79.1924ZM76.7071 77.3329C77.2286 77.3329 77.6646 77.1897 78.0151 76.9033C78.3657 76.6126 78.6264 76.2236 78.7974 75.7363C78.9727 75.2489 79.0603 74.706 79.0603 74.1076C79.0603 73.5048 78.9727 72.9598 78.7974 72.4725C78.6264 71.9809 78.3657 71.5898 78.0151 71.2991C77.6646 71.0084 77.2286 70.8631 76.7071 70.8631C76.1727 70.8631 75.7282 71.0084 75.3733 71.2991C75.0228 71.5898 74.7599 71.9809 74.5847 72.4725C74.4137 72.9598 74.3282 73.5048 74.3282 74.1076C74.3282 74.706 74.4137 75.2489 74.5847 75.7363C74.7599 76.2236 75.0228 76.6126 75.3733 76.9033C75.7282 77.1897 76.1727 77.3329 76.7071 77.3329ZM83.3836 79V69.151H85.6022V70.8246H85.7176C85.9228 70.2603 86.2627 69.82 86.7372 69.5037C87.2117 69.1831 87.7781 69.0228 88.4364 69.0228C89.1032 69.0228 89.6653 69.1852 90.1227 69.5101C90.5844 69.8307 90.9093 70.2689 91.0974 70.8246H91.2C91.418 70.2774 91.7856 69.8414 92.3028 69.5165C92.8244 69.1874 93.4421 69.0228 94.1559 69.0228C95.0622 69.0228 95.8017 69.3092 96.3745 69.882C96.9473 70.4548 97.2337 71.2905 97.2337 72.3891V79H94.9061V72.7482C94.9061 72.1369 94.7437 71.6902 94.4188 71.4081C94.0939 71.1217 93.6964 70.9785 93.2262 70.9785C92.6662 70.9785 92.228 71.1538 91.9117 71.5043C91.5997 71.8505 91.4436 72.3015 91.4436 72.8572V79H89.1673V72.652C89.1673 72.1434 89.0134 71.7373 88.7057 71.4337C88.4022 71.1302 88.0046 70.9785 87.513 70.9785C87.1796 70.9785 86.8761 71.064 86.6025 71.235C86.3289 71.4017 86.1109 71.6389 85.9485 71.9467C85.786 72.2502 85.7048 72.605 85.7048 73.0111V79H83.3836ZM103.949 79.1924C102.961 79.1924 102.109 78.9872 101.39 78.5768C100.676 78.1622 100.127 77.5765 99.7425 76.8199C99.3577 76.059 99.1654 75.1634 99.1654 74.1332C99.1654 73.1201 99.3577 72.231 99.7425 71.4658C100.131 70.6964 100.674 70.0979 101.371 69.6704C102.068 69.2387 102.887 69.0228 103.827 69.0228C104.434 69.0228 105.007 69.1211 105.545 69.3178C106.088 69.5101 106.567 69.8094 106.982 70.2155C107.401 70.6216 107.73 71.1388 107.969 71.7672C108.209 72.3913 108.328 73.1351 108.328 73.9986V74.7103H100.255V73.1458H106.103C106.099 72.7012 106.003 72.3058 105.815 71.9595C105.627 71.609 105.364 71.3333 105.026 71.1324C104.693 70.9315 104.304 70.831 103.859 70.831C103.385 70.831 102.968 70.9464 102.609 71.1773C102.25 71.4038 101.97 71.7031 101.769 72.075C101.572 72.4426 101.472 72.8465 101.467 73.2868V74.6526C101.467 75.2254 101.572 75.717 101.781 76.1274C101.991 76.5335 102.284 76.8455 102.66 77.0636C103.036 77.2773 103.476 77.3842 103.981 77.3842C104.319 77.3842 104.624 77.3371 104.898 77.2431C105.171 77.1448 105.409 77.0016 105.61 76.8135C105.81 76.6254 105.962 76.3924 106.065 76.1146L108.232 76.3582C108.095 76.931 107.834 77.4312 107.45 77.8587C107.069 78.2818 106.582 78.611 105.988 78.8461C105.394 79.0769 104.714 79.1924 103.949 79.1924ZM144.523 72.434C144.523 73.849 144.258 75.0608 143.728 76.0697C143.202 77.0742 142.484 77.8437 141.573 78.378C140.667 78.9124 139.639 79.1795 138.489 79.1795C137.339 79.1795 136.309 78.9124 135.398 78.378C134.492 77.8394 133.774 77.0678 133.244 76.0633C132.718 75.0544 132.455 73.8447 132.455 72.434C132.455 71.0191 132.718 69.8094 133.244 68.8048C133.774 67.796 134.492 67.0244 135.398 66.49C136.309 65.9557 137.339 65.6885 138.489 65.6885C139.639 65.6885 140.667 65.9557 141.573 66.49C142.484 67.0244 143.202 67.796 143.728 68.8048C144.258 69.8094 144.523 71.0191 144.523 72.434ZM142.131 72.434C142.131 71.438 141.975 70.598 141.663 69.9141C141.355 69.2259 140.928 68.7065 140.381 68.3559C139.833 68.0011 139.203 67.8237 138.489 67.8237C137.775 67.8237 137.145 68.0011 136.597 68.3559C136.05 68.7065 135.621 69.2259 135.309 69.9141C135.001 70.598 134.847 71.438 134.847 72.434C134.847 73.43 135.001 74.2722 135.309 74.9604C135.621 75.6443 136.05 76.1637 136.597 76.5185C137.145 76.8691 137.775 77.0443 138.489 77.0443C139.203 77.0443 139.833 76.8691 140.381 76.5185C140.928 76.1637 141.355 75.6443 141.663 74.9604C141.975 74.2722 142.131 73.43 142.131 72.434ZM152.947 74.8578V69.151H155.268V79H153.017V77.2495H152.915C152.692 77.8009 152.327 78.2519 151.818 78.6025C151.314 78.953 150.692 79.1282 149.952 79.1282C149.307 79.1282 148.736 78.985 148.24 78.6986C147.749 78.408 147.364 77.9869 147.086 77.4355C146.808 76.8797 146.669 76.2086 146.669 75.4221V69.151H148.99V75.063C148.99 75.6871 149.161 76.183 149.503 76.5506C149.845 76.9182 150.294 77.102 150.85 77.102C151.192 77.102 151.523 77.0187 151.844 76.852C152.164 76.6852 152.427 76.4373 152.632 76.1082C152.842 75.7747 152.947 75.3579 152.947 74.8578ZM157.655 79V69.151H159.905V70.7925H160.008C160.188 70.224 160.495 69.7858 160.931 69.4781C161.372 69.166 161.874 69.01 162.438 69.01C162.566 69.01 162.71 69.0164 162.868 69.0292C163.03 69.0378 163.165 69.0527 163.272 69.0741V71.2093C163.173 71.1751 163.017 71.1452 162.804 71.1196C162.594 71.0896 162.391 71.0747 162.194 71.0747C161.771 71.0747 161.391 71.1666 161.053 71.3504C160.72 71.5299 160.457 71.78 160.264 72.1006C160.072 72.4212 159.976 72.791 159.976 73.2099V79H157.655ZM176.532 69.4781C176.472 68.9181 176.22 68.4821 175.775 68.17C175.335 67.8579 174.762 67.7019 174.057 67.7019C173.561 67.7019 173.136 67.7767 172.781 67.9263C172.426 68.076 172.155 68.279 171.967 68.5355C171.778 68.792 171.682 69.0848 171.678 69.4139C171.678 69.6875 171.74 69.9248 171.864 70.1257C171.992 70.3266 172.165 70.4976 172.383 70.6386C172.601 70.7754 172.843 70.8909 173.108 70.9849C173.373 71.0789 173.64 71.158 173.909 71.2221L175.14 71.5299C175.636 71.6453 176.113 71.8014 176.57 71.998C177.032 72.1946 177.445 72.4426 177.808 72.7418C178.176 73.041 178.466 73.4023 178.68 73.8255C178.894 74.2486 179.001 74.7445 179.001 75.3131C179.001 76.0825 178.804 76.76 178.411 77.3457C178.017 77.927 177.449 78.3823 176.705 78.7115C175.966 79.0363 175.07 79.1988 174.018 79.1988C172.997 79.1988 172.11 79.0406 171.357 78.7243C170.609 78.408 170.024 77.9463 169.6 77.3393C169.182 76.7323 168.955 75.9927 168.921 75.1207H171.261C171.295 75.5781 171.436 75.9585 171.684 76.262C171.932 76.5655 172.255 76.7921 172.653 76.9417C173.054 77.0913 173.503 77.1661 173.999 77.1661C174.516 77.1661 174.969 77.0892 175.358 76.9353C175.752 76.7771 176.06 76.5591 176.282 76.2813C176.504 75.9991 176.617 75.67 176.622 75.2938C176.617 74.9518 176.517 74.6697 176.32 74.4474C176.124 74.2209 175.848 74.0328 175.493 73.8832C175.143 73.7293 174.732 73.5925 174.262 73.4728L172.768 73.0881C171.687 72.8102 170.832 72.3891 170.203 71.8249C169.579 71.2563 169.267 70.5019 169.267 69.5614C169.267 68.7877 169.476 68.1102 169.895 67.5288C170.319 66.9474 170.894 66.4964 171.62 66.1758C172.347 65.851 173.17 65.6885 174.089 65.6885C175.021 65.6885 175.837 65.851 176.538 66.1758C177.244 66.4964 177.797 66.9432 178.199 67.516C178.601 68.0845 178.808 68.7385 178.821 69.4781H176.532ZM185.379 79.1924C184.392 79.1924 183.539 78.9872 182.821 78.5768C182.107 78.1622 181.557 77.5765 181.173 76.8199C180.788 76.059 180.596 75.1634 180.596 74.1332C180.596 73.1201 180.788 72.231 181.173 71.4658C181.562 70.6964 182.105 70.0979 182.801 69.6704C183.498 69.2387 184.317 69.0228 185.257 69.0228C185.864 69.0228 186.437 69.1211 186.976 69.3178C187.518 69.5101 187.997 69.8094 188.412 70.2155C188.831 70.6216 189.16 71.1388 189.399 71.7672C189.639 72.3913 189.758 73.1351 189.758 73.9986V74.7103H181.686V73.1458H187.533C187.529 72.7012 187.433 72.3058 187.245 71.9595C187.057 71.609 186.794 71.3333 186.456 71.1324C186.123 70.9315 185.734 70.831 185.289 70.831C184.815 70.831 184.398 70.9464 184.039 71.1773C183.68 71.4038 183.4 71.7031 183.199 72.075C183.002 72.4426 182.902 72.8465 182.897 73.2868V74.6526C182.897 75.2254 183.002 75.717 183.212 76.1274C183.421 76.5335 183.714 76.8455 184.09 77.0636C184.466 77.2773 184.907 77.3842 185.411 77.3842C185.749 77.3842 186.054 77.3371 186.328 77.2431C186.602 77.1448 186.839 77.0016 187.04 76.8135C187.241 76.6254 187.392 76.3924 187.495 76.1146L189.662 76.3582C189.525 76.931 189.265 77.4312 188.88 77.8587C188.5 78.2818 188.012 78.611 187.418 78.8461C186.824 79.0769 186.144 79.1924 185.379 79.1924ZM191.722 79V69.151H193.973V70.7925H194.075C194.255 70.224 194.563 69.7858 194.999 69.4781C195.439 69.166 195.941 69.01 196.506 69.01C196.634 69.01 196.777 69.0164 196.935 69.0292C197.098 69.0378 197.232 69.0527 197.339 69.0741V71.2093C197.241 71.1751 197.085 71.1452 196.871 71.1196C196.662 71.0896 196.459 71.0747 196.262 71.0747C195.839 71.0747 195.458 71.1666 195.121 71.3504C194.787 71.5299 194.524 71.78 194.332 72.1006C194.139 72.4212 194.043 72.791 194.043 73.2099V79H191.722ZM207.978 69.151L204.471 79H201.906L198.399 69.151H200.874L203.137 76.4672H203.24L205.51 69.151H207.978ZM209.585 79V69.151H211.906V79H209.585ZM210.752 67.7532C210.384 67.7532 210.068 67.6314 209.803 67.3877C209.538 67.1398 209.405 66.8427 209.405 66.4964C209.405 66.1459 209.538 65.8488 209.803 65.6052C210.068 65.3572 210.384 65.2333 210.752 65.2333C211.123 65.2333 211.44 65.3572 211.701 65.6052C211.966 65.8488 212.098 66.1459 212.098 66.4964C212.098 66.8427 211.966 67.1398 211.701 67.3877C211.44 67.6314 211.123 67.7532 210.752 67.7532ZM218.589 79.1924C217.606 79.1924 216.761 78.9765 216.056 78.5447C215.355 78.113 214.814 77.5167 214.434 76.7558C214.058 75.9906 213.869 75.11 213.869 74.114C213.869 73.1137 214.062 72.231 214.447 71.4658C214.831 70.6964 215.374 70.0979 216.075 69.6704C216.781 69.2387 217.614 69.0228 218.576 69.0228C219.375 69.0228 220.083 69.1703 220.698 69.4652C221.318 69.7559 221.812 70.1684 222.18 70.7028C222.547 71.2328 222.757 71.8527 222.808 72.5623H220.589C220.5 72.0878 220.286 71.6924 219.948 71.376C219.615 71.0554 219.168 70.8951 218.608 70.8951C218.133 70.8951 217.717 71.0234 217.358 71.2799C216.999 71.5321 216.719 71.8954 216.518 72.3699C216.321 72.8444 216.223 73.4129 216.223 74.0755C216.223 74.7467 216.321 75.3237 216.518 75.8068C216.714 76.2856 216.99 76.6553 217.345 76.9161C217.704 77.1726 218.125 77.3008 218.608 77.3008C218.95 77.3008 219.256 77.2367 219.525 77.1084C219.798 76.9759 220.027 76.7857 220.211 76.5378C220.395 76.2898 220.521 75.9885 220.589 75.6337H222.808C222.752 76.3304 222.547 76.9481 222.192 77.4867C221.838 78.0211 221.354 78.44 220.743 78.7435C220.132 79.0427 219.414 79.1924 218.589 79.1924ZM229.074 79.1924C228.087 79.1924 227.234 78.9872 226.516 78.5768C225.802 78.1622 225.252 77.5765 224.868 76.8199C224.483 76.059 224.291 75.1634 224.291 74.1332C224.291 73.1201 224.483 72.231 224.868 71.4658C225.257 70.6964 225.8 70.0979 226.496 69.6704C227.193 69.2387 228.012 69.0228 228.952 69.0228C229.559 69.0228 230.132 69.1211 230.671 69.3178C231.214 69.5101 231.692 69.8094 232.107 70.2155C232.526 70.6216 232.855 71.1388 233.094 71.7672C233.334 72.3913 233.454 73.1351 233.454 73.9986V74.7103H225.381V73.1458H231.229C231.224 72.7012 231.128 72.3058 230.94 71.9595C230.752 71.609 230.489 71.3333 230.151 71.1324C229.818 70.9315 229.429 70.831 228.984 70.831C228.51 70.831 228.093 70.9464 227.734 71.1773C227.375 71.4038 227.095 71.7031 226.894 72.075C226.697 72.4426 226.597 72.8465 226.593 73.2868V74.6526C226.593 75.2254 226.697 75.717 226.907 76.1274C227.116 76.5335 227.409 76.8455 227.785 77.0636C228.161 77.2773 228.602 77.3842 229.106 77.3842C229.444 77.3842 229.749 77.3371 230.023 77.2431C230.297 77.1448 230.534 77.0016 230.735 76.8135C230.936 76.6254 231.087 76.3924 231.19 76.1146L233.357 76.3582C233.221 76.931 232.96 77.4312 232.575 77.8587C232.195 78.2818 231.707 78.611 231.113 78.8461C230.519 79.0769 229.839 79.1924 229.074 79.1924ZM243.201 71.7544L241.086 71.9852C241.026 71.7714 240.921 71.5705 240.771 71.3825C240.626 71.1944 240.429 71.0426 240.181 70.9272C239.933 70.8118 239.63 70.7541 239.271 70.7541C238.788 70.7541 238.382 70.8588 238.053 71.0683C237.728 71.2777 237.567 71.5492 237.572 71.8826C237.567 72.169 237.672 72.402 237.886 72.5815C238.104 72.761 238.463 72.9085 238.963 73.0239L240.643 73.383C241.575 73.5839 242.267 73.9024 242.721 74.3384C243.178 74.7744 243.409 75.3451 243.413 76.0504C243.409 76.6703 243.227 77.2174 242.868 77.6919C242.513 78.1622 242.02 78.5298 241.387 78.7948C240.754 79.0598 240.028 79.1924 239.207 79.1924C238.001 79.1924 237.031 78.9402 236.296 78.4357C235.56 77.927 235.122 77.2196 234.981 76.3133L237.245 76.0953C237.347 76.5399 237.565 76.8755 237.899 77.102C238.232 77.3286 238.666 77.4419 239.2 77.4419C239.752 77.4419 240.194 77.3286 240.528 77.102C240.865 76.8755 241.034 76.5955 241.034 76.262C241.034 75.9799 240.925 75.7469 240.707 75.5631C240.493 75.3793 240.16 75.2382 239.707 75.1399L238.027 74.7873C237.082 74.5906 236.383 74.2593 235.93 73.7934C235.477 73.3232 235.253 72.729 235.257 72.0108C235.253 71.4038 235.417 70.878 235.751 70.4335C236.088 69.9846 236.556 69.6384 237.155 69.3947C237.758 69.1468 238.452 69.0228 239.239 69.0228C240.393 69.0228 241.301 69.2686 241.964 69.7602C242.631 70.2518 243.043 70.9165 243.201 71.7544Z" fill="white"/>
<path d="M124.694 73.3281C124.987 73.0352 124.987 72.5604 124.694 72.2675L119.921 67.4945C119.628 67.2016 119.154 67.2016 118.861 67.4945C118.568 67.7874 118.568 68.2623 118.861 68.5552L123.103 72.7978L118.861 77.0404C118.568 77.3333 118.568 77.8082 118.861 78.1011C119.154 78.394 119.628 78.394 119.921 78.1011L124.694 73.3281ZM123.145 72.7978V73.5478H124.164V72.7978V72.0478H123.145V72.7978Z" fill="white"/>
</svg>
