<svg width="351" height="429" viewBox="0 0 351 429" fill="none" xmlns="http://www.w3.org/2000/svg">
<g filter="url(#filter0_d_112_678)">
<path d="M30.5 51.1212C30.5 40.837 38.837 32.5 49.1212 32.5H298.513C313.939 32.5 326.445 45.0055 326.445 60.4317V378.529C326.445 393.956 313.939 406.461 298.513 406.461H58.4317C43.0054 406.461 30.5 393.956 30.5 378.53V51.1212Z" fill="white"/>
<path d="M49.1211 33H298.513C313.663 33 325.945 45.2816 325.945 60.4316V378.529C325.945 393.679 313.663 405.961 298.513 405.961H58.4316C43.2815 405.961 31 393.679 31 378.529V51.1211C31 41.1131 39.1131 33 49.1211 33Z" stroke="#C0181C"/>
</g>
<defs>
<filter id="filter0_d_112_678" x="0" y="0" width="350.945" height="428.961" filterUnits="userSpaceOnUse" color-interpolation-filters="sRGB">
<feFlood flood-opacity="0" result="BackgroundImageFix"/>
<feColorMatrix in="SourceAlpha" type="matrix" values="0 0 0 0 0 0 0 0 0 0 0 0 0 0 0 0 0 0 127 0" result="hardAlpha"/>
<feMorphology radius="1" operator="erode" in="SourceAlpha" result="effect1_dropShadow_112_678"/>
<feOffset dx="-3" dy="-5"/>
<feGaussianBlur stdDeviation="14.25"/>
<feComposite in2="hardAlpha" operator="out"/>
<feColorMatrix type="matrix" values="0 0 0 0 0 0 0 0 0 0 0 0 0 0 0 0 0 0 0.26 0"/>
<feBlend mode="normal" in2="BackgroundImageFix" result="effect1_dropShadow_112_678"/>
<feBlend mode="normal" in="SourceGraphic" in2="effect1_dropShadow_112_678" result="shape"/>
</filter>
</defs>
</svg>
