<svg width="253" height="48" viewBox="0 0 253 48" fill="none" xmlns="http://www.w3.org/2000/svg">
<rect width="252.447" height="47.2285" rx="10" fill="#C0181C"/>
<path d="M66.6478 16.1322C67.7198 16.1322 68.6958 16.2682 69.5758 16.5402C70.4558 16.7962 71.1758 17.1802 71.7358 17.6922C72.7438 18.6042 73.4478 19.6042 73.8478 20.6922C74.2638 21.7642 74.4718 23.1402 74.4718 24.8202C74.4718 25.1722 74.4238 25.4922 74.3278 25.7802C74.2478 26.0682 74.1118 26.4362 73.9198 26.8842C73.6798 27.3802 73.5358 27.7722 73.4878 28.0602C73.1678 28.6202 72.6398 29.1562 71.9038 29.6682C71.1838 30.1802 70.3998 30.5962 69.5518 30.9162C68.7038 31.2362 67.9598 31.3962 67.3198 31.3962C64.2318 31.3962 62.0318 30.3402 60.7198 28.2282C60.3518 27.6362 60.0638 27.0202 59.8558 26.3802C59.6638 25.7402 59.5678 25.1162 59.5678 24.5082C59.5678 22.8762 59.8558 21.4602 60.4318 20.2602C61.0238 19.0442 61.8398 18.1002 62.8798 17.4282C63.5038 17.0602 64.1518 16.7562 64.8238 16.5162C65.5118 16.2602 66.1198 16.1322 66.6478 16.1322ZM62.0638 24.5802C62.0638 25.4442 62.2558 26.1562 62.6398 26.7162C63.0398 27.2762 63.6478 27.8842 64.4638 28.5402C65.1358 28.7962 65.5918 28.9642 65.8318 29.0442C66.0718 29.1082 66.3438 29.1402 66.6478 29.1402C68.2638 29.1402 69.5518 28.7002 70.5118 27.8202C71.4718 26.9402 71.9518 25.7322 71.9518 24.1962C71.9518 22.9802 71.8158 22.0202 71.5438 21.3162C71.2718 20.6122 70.7838 19.9802 70.0798 19.4202C69.7118 19.1162 69.2398 18.8922 68.6638 18.7482C68.1038 18.6042 67.4958 18.5322 66.8398 18.5322C65.8478 18.5322 64.9918 18.8282 64.2718 19.4202C63.5518 19.9962 62.9998 20.7482 62.6158 21.6762C62.2478 22.6042 62.0638 23.5722 62.0638 24.5802ZM79.9584 17.4762C79.9584 17.9402 79.9424 18.6682 79.9104 19.6602L79.8864 21.5322C79.8864 23.0522 79.9984 24.3242 80.2224 25.3482C80.3664 26.0202 80.5184 26.5322 80.6784 26.8842C80.8544 27.2202 81.1184 27.6042 81.4704 28.0362C81.7424 28.3562 82.0944 28.6122 82.5264 28.8042C82.9744 28.9802 83.4144 29.0682 83.8464 29.0682C84.5984 29.0682 85.2224 28.9562 85.7184 28.7322C86.2304 28.5082 86.6144 28.1242 86.8705 27.5802C87.3505 26.5882 87.5905 25.3642 87.5905 23.9082C87.5905 22.9962 87.5345 21.8842 87.4225 20.5722C87.3264 19.1322 87.2784 18.0762 87.2784 17.4042C87.2784 17.0362 87.4544 16.7402 87.8064 16.5162C88.1584 16.2922 88.4784 16.1802 88.7664 16.1802C89.2625 16.1802 89.5985 16.3162 89.7744 16.5882C89.9665 16.8602 90.0625 17.1802 90.0625 17.5482C90.0625 18.0122 90.0385 18.4122 89.9904 18.7482C89.9585 19.1642 89.9425 19.4602 89.9425 19.6362C89.9425 20.2442 89.9745 21.2042 90.0384 22.5162C90.0545 22.8522 90.0705 23.2442 90.0865 23.6922C90.1024 24.1402 90.1104 24.6202 90.1104 25.1322C90.1104 26.2202 89.8544 27.2522 89.3424 28.2282C88.8304 29.1882 88.1104 29.9642 87.1824 30.5562C86.2544 31.1482 85.1984 31.4442 84.0144 31.4442C82.1744 31.4442 80.7584 30.9562 79.7664 29.9802C78.7744 28.9882 78.1024 27.6122 77.7504 25.8522C77.5424 24.8122 77.4064 23.6282 77.3424 22.3002C77.2944 20.9722 77.2704 19.2922 77.2704 17.2602C77.2704 17.0042 77.3904 16.7642 77.6304 16.5402C77.8864 16.3162 78.1584 16.2042 78.4464 16.2042C79.4544 16.2042 79.9584 16.6282 79.9584 17.4762ZM101.129 25.0362C101.689 25.9802 102.249 26.8202 102.809 27.5562C103.385 28.2762 104.137 29.1642 105.065 30.2202C105.177 30.3322 105.233 30.4602 105.233 30.6042C105.233 30.8282 105.105 31.0202 104.849 31.1802C104.609 31.3402 104.313 31.4202 103.961 31.4202C103.465 31.4202 102.929 31.2122 102.353 30.7962C101.841 30.4282 101.385 29.9402 100.985 29.3322C100.585 28.7242 100.121 27.9322 99.5925 26.9562C99.1765 26.2042 98.9285 25.7642 98.8485 25.6362C98.2245 25.8922 97.2485 26.0522 95.9205 26.1162C95.9205 26.6602 95.9685 27.3962 96.0645 28.3242C96.1605 29.2842 96.2085 29.9802 96.2085 30.4122C96.2085 30.7002 96.0645 30.9402 95.7765 31.1322C95.5045 31.3242 95.1925 31.4202 94.8405 31.4202C94.4245 31.4202 94.1045 31.2522 93.8805 30.9162C93.6565 30.4682 93.5125 29.9322 93.4485 29.3082C93.3845 28.6842 93.3525 27.9402 93.3525 27.0762C93.3525 26.1642 93.4085 25.1322 93.5205 23.9802C93.6165 22.7002 93.6645 21.7562 93.6645 21.1482C93.6645 20.6522 93.6165 19.9882 93.5205 19.1562C93.5045 19.0122 93.4805 18.7642 93.4485 18.4122C93.4165 18.0602 93.4005 17.7402 93.4005 17.4522C93.4005 17.2282 93.4805 17.0362 93.6405 16.8762C93.8165 16.7002 94.0005 16.5802 94.1925 16.5162C95.4885 16.3082 96.7525 16.2042 97.9845 16.2042C100.081 16.2042 101.817 16.5962 103.193 17.3802C104.569 18.1642 105.257 19.3562 105.257 20.9562C105.257 21.4522 105.145 21.9322 104.921 22.3962C104.713 22.8442 104.425 23.2202 104.057 23.5242C103.081 24.2762 102.105 24.7802 101.129 25.0362ZM102.737 20.8842C102.737 20.1162 102.329 19.4922 101.513 19.0122C100.697 18.5162 99.5365 18.2682 98.0325 18.2682C97.3605 18.2682 96.6965 18.3482 96.0405 18.5082L96.0645 19.7322C96.0645 20.4362 96.0405 21.1242 95.9925 21.7962C95.9445 22.4682 95.9205 23.1882 95.9205 23.9562C96.1925 23.8922 96.4805 23.8522 96.7845 23.8362C97.0885 23.8042 97.2885 23.7802 97.3845 23.7642C98.0885 23.7002 98.6325 23.6202 99.0165 23.5242C99.7365 23.3002 100.329 23.1002 100.793 22.9242C101.273 22.7322 101.713 22.4682 102.113 22.1322C102.529 21.7802 102.737 21.3642 102.737 20.8842ZM124.004 27.2682C124.004 28.0202 123.844 28.6282 123.524 29.0922C123.204 29.5562 122.652 30.0122 121.868 30.4602C121.34 30.7802 120.732 31.0282 120.044 31.2042C119.356 31.3642 118.66 31.4442 117.956 31.4442C117.524 31.4442 117.02 31.3642 116.444 31.2042C115.884 31.0282 115.428 30.8602 115.076 30.7002L114.668 30.3402C113.948 29.7482 113.444 29.2762 113.156 28.9242C112.884 28.5562 112.748 28.1082 112.748 27.5802C112.748 27.1642 112.844 26.8522 113.036 26.6442C113.228 26.4362 113.54 26.3322 113.972 26.3322C114.196 26.3322 114.404 26.4042 114.596 26.5482C114.788 26.6922 114.956 26.8922 115.1 27.1482C115.5 27.8522 115.972 28.3722 116.516 28.7082C117.076 29.0282 117.732 29.1882 118.484 29.1882C119.188 29.1882 119.9 28.9722 120.62 28.5402C121.212 28.1722 121.508 27.8122 121.508 27.4602C121.508 26.8362 121.228 26.3162 120.668 25.9002C120.124 25.4842 119.34 25.1082 118.316 24.7722C117.692 24.5482 116.756 24.1322 115.508 23.5242C114.66 23.1082 114.028 22.5962 113.612 21.9882C113.196 21.3802 112.988 20.7402 112.988 20.0682C112.988 19.4602 113.196 18.8682 113.612 18.2922C114.044 17.7002 114.564 17.2602 115.172 16.9722C115.492 16.8122 116.004 16.6442 116.708 16.4682C117.412 16.2762 117.94 16.1802 118.292 16.1802C118.948 16.1802 119.516 16.2602 119.996 16.4202C120.476 16.5642 120.948 16.7722 121.412 17.0442C122.116 17.4442 122.636 17.8042 122.972 18.1242C123.308 18.4442 123.476 18.8442 123.476 19.3242C123.476 19.6122 123.364 19.8682 123.14 20.0922C122.932 20.3162 122.564 20.4282 122.036 20.4282C121.908 20.4282 121.78 20.3722 121.652 20.2602C121.524 20.1482 121.364 19.9802 121.172 19.7562C120.916 19.4202 120.668 19.1962 120.428 19.0842C120.364 19.0682 120.1 18.9642 119.636 18.7722C119.188 18.5802 118.628 18.4842 117.956 18.4842C117.316 18.4842 116.748 18.6362 116.252 18.9402C115.756 19.2282 115.508 19.6522 115.508 20.2122C115.508 20.7722 116.012 21.2282 117.02 21.5802C118.092 21.9962 118.98 22.3562 119.684 22.6602C120.404 22.9642 121.1 23.3242 121.772 23.7402C122.54 24.2042 123.1 24.6922 123.452 25.2042C123.82 25.7162 124.004 26.4042 124.004 27.2682ZM136.616 28.3482C136.92 28.3482 137.144 28.4682 137.288 28.7082C137.448 28.9322 137.528 29.1802 137.528 29.4522C137.528 29.7882 137.472 30.0282 137.36 30.1722C137.264 30.3002 137.064 30.4362 136.76 30.5802C136.12 30.8842 135.4 31.1002 134.6 31.2282C133.816 31.3562 132.832 31.4202 131.648 31.4202C130.224 31.4202 129.128 31.1802 128.36 30.7002C127.608 30.2042 127.112 29.5882 126.872 28.8522C126.632 28.1162 126.512 27.2602 126.512 26.2842V24.7722C126.512 23.7322 126.536 22.7322 126.584 21.7722C126.648 20.8122 126.768 19.6922 126.944 18.4122C127.056 17.6442 127.36 17.0922 127.856 16.7562C128.352 16.4042 128.896 16.2282 129.488 16.2282C130.128 16.2282 131.008 16.2122 132.128 16.1802L134.216 16.1562C135.064 16.1562 135.688 16.1802 136.088 16.2282C136.568 16.3242 136.92 16.4362 137.144 16.5642C137.384 16.6762 137.504 16.8762 137.504 17.1642C137.504 17.4842 137.392 17.7962 137.168 18.1002C136.96 18.4042 136.64 18.5562 136.208 18.5562C135.712 18.5562 135 18.5242 134.072 18.4602C133.144 18.3962 132.448 18.3642 131.984 18.3642C131.408 18.3642 130.944 18.3882 130.592 18.4362C130.144 18.4682 129.824 18.5242 129.632 18.6042C129.44 18.6842 129.328 18.8202 129.296 19.0122C129.072 20.6602 128.96 21.8762 128.96 22.6602C129.312 22.7082 129.688 22.7322 130.088 22.7322C130.6 22.7322 131.456 22.6762 132.656 22.5642C133.536 22.4842 134.264 22.4442 134.84 22.4442C135.208 22.4442 135.48 22.5082 135.656 22.6362C135.832 22.7642 135.92 22.9402 135.92 23.1642C135.92 23.5162 135.832 23.7882 135.656 23.9802C135.48 24.1722 135.16 24.3162 134.696 24.4122C134.136 24.5242 133.408 24.6122 132.512 24.6762C131.632 24.7402 130.792 24.7722 129.992 24.7722C129.688 24.7722 129.312 24.7562 128.864 24.7242C128.864 25.7802 128.912 26.6122 129.008 27.2202C129.12 27.8282 129.344 28.3002 129.68 28.6362C130.032 28.9722 130.56 29.1402 131.264 29.1402C132.848 29.1402 134.112 28.9962 135.056 28.7082C135.728 28.4682 136.248 28.3482 136.616 28.3482ZM148.057 25.0362C149.449 27.4042 150.753 29.2842 151.969 30.6762C152.097 30.8042 152.161 30.9482 152.161 31.1082C152.161 31.3162 152.033 31.4922 151.777 31.6362C151.521 31.7962 151.225 31.8762 150.889 31.8762C150.393 31.8762 149.857 31.6682 149.281 31.2522C148.865 30.9642 148.481 30.5402 148.129 29.9802C147.777 29.4042 147.377 28.6682 146.929 27.7722L146.521 26.9562C146.105 26.2042 145.857 25.7642 145.777 25.6362C145.425 25.7802 145.017 25.8842 144.553 25.9482C144.089 26.0122 143.521 26.0682 142.849 26.1162C142.881 28.1642 142.897 29.5962 142.897 30.4122C142.897 30.7162 142.785 30.9642 142.561 31.1562C142.337 31.3322 142.057 31.4202 141.721 31.4202C141.305 31.4202 140.985 31.2522 140.761 30.9162C140.537 30.4682 140.425 29.7722 140.425 28.8282L140.449 27.0762C140.449 25.9882 140.473 24.9562 140.521 23.9802C140.553 22.7002 140.569 21.7562 140.569 21.1482L140.593 19.9242C140.593 19.5562 140.569 19.1802 140.521 18.7962C140.265 18.7162 140.041 18.5962 139.849 18.4362C139.657 18.2602 139.561 18.0682 139.561 17.8602C139.561 17.4602 139.705 17.1562 139.993 16.9482C140.297 16.7242 140.673 16.5802 141.121 16.5162C142.417 16.3082 143.681 16.2042 144.913 16.2042C147.009 16.2042 148.745 16.5962 150.121 17.3802C151.497 18.1642 152.185 19.3562 152.185 20.9562C152.185 21.4522 152.073 21.9322 151.849 22.3962C151.641 22.8442 151.353 23.2202 150.985 23.5242C150.025 24.2762 149.049 24.7802 148.057 25.0362ZM149.641 20.8842C149.641 20.1162 149.233 19.4922 148.417 19.0122C147.617 18.5162 146.465 18.2682 144.961 18.2682C144.305 18.2682 143.633 18.3482 142.945 18.5082C142.977 19.0842 142.993 19.4922 142.993 19.7322C142.993 20.2122 142.961 20.9002 142.897 21.7962C142.865 22.6922 142.849 23.4122 142.849 23.9562C143.921 23.9562 144.945 23.8122 145.921 23.5242C146.625 23.3162 147.217 23.1162 147.697 22.9242C148.177 22.7322 148.617 22.4682 149.017 22.1322C149.433 21.7802 149.641 21.3642 149.641 20.8842ZM156.126 16.8762C156.718 18.6362 157.39 20.5722 158.142 22.6842C158.894 24.7802 159.582 26.5962 160.206 28.1322C160.67 26.6442 161.31 24.8602 162.126 22.7802C162.942 20.6842 163.702 18.7962 164.406 17.1162C164.614 16.6202 164.966 16.3722 165.462 16.3722C165.926 16.3722 166.278 16.4682 166.518 16.6602C166.758 16.8362 166.878 17.1482 166.878 17.5962C166.878 17.7722 166.854 17.9242 166.806 18.0522C166.758 18.1802 166.686 18.3482 166.59 18.5562C166.094 19.5322 165.598 20.6602 165.102 21.9402C164.606 23.2042 163.998 24.8122 163.278 26.7642C163.31 26.6842 163.086 27.2842 162.606 28.5642L161.814 30.6282C161.718 30.8842 161.558 31.0842 161.334 31.2282C161.126 31.3562 160.886 31.4202 160.614 31.4202C160.342 31.4202 160.038 31.3562 159.702 31.2282C159.382 31.0842 159.15 30.9402 159.006 30.7962C158.462 29.7562 157.766 28.2522 156.918 26.2842C156.086 24.3162 155.366 22.5002 154.758 20.8362L154.398 19.8522C154.158 19.1802 153.982 18.6682 153.87 18.3162C153.758 17.9482 153.702 17.6522 153.702 17.4282C153.702 17.1082 153.878 16.8522 154.23 16.6602C154.598 16.4682 154.95 16.3722 155.286 16.3722C155.462 16.3722 155.63 16.4122 155.79 16.4922C155.95 16.5722 156.062 16.7002 156.126 16.8762ZM172.779 18.1482C172.731 19.1722 172.707 20.1562 172.707 21.1002C172.707 22.0762 172.771 23.5082 172.899 25.3962C172.915 25.6842 172.947 26.2682 172.995 27.1482C173.043 28.0122 173.067 28.8042 173.067 29.5242C173.227 29.5082 173.395 29.4842 173.571 29.4522C173.763 29.4202 173.907 29.4042 174.003 29.4042C174.355 29.4042 174.635 29.4922 174.843 29.6682C175.051 29.8442 175.155 30.1162 175.155 30.4842C175.155 30.7242 175.059 30.9082 174.867 31.0362C174.675 31.1642 174.339 31.2602 173.859 31.3242C173.395 31.3722 172.715 31.3962 171.819 31.3962C170.827 31.3962 170.083 31.3642 169.587 31.3002C169.091 31.2362 168.747 31.1162 168.555 30.9402C168.363 30.7482 168.267 30.4682 168.267 30.1002C168.267 29.8282 168.355 29.6442 168.531 29.5482C168.707 29.4522 168.955 29.4042 169.275 29.4042L169.779 29.4282L170.571 29.4762L170.451 26.6442C170.355 25.1082 170.307 23.7002 170.307 22.4202C170.307 21.7322 170.331 20.7882 170.379 19.5882L170.427 18.2682C169.883 18.3002 169.459 18.3162 169.155 18.3162C168.803 18.3162 168.563 18.2522 168.435 18.1242C168.323 17.9962 168.267 17.7322 168.267 17.3322C168.267 16.8842 168.571 16.5962 169.179 16.4682C169.803 16.3402 170.747 16.2762 172.011 16.2762C172.987 16.2762 173.715 16.3082 174.195 16.3722C174.691 16.4362 174.939 16.5802 174.939 16.8042C174.939 17.3482 174.819 17.7082 174.579 17.8842C174.355 18.0442 173.915 18.1242 173.259 18.1242L172.779 18.1482ZM189.58 18.5082C189.82 18.7962 189.988 19.0282 190.084 19.2042C190.18 19.3802 190.228 19.5482 190.228 19.7082C190.228 19.9002 190.1 20.1242 189.844 20.3802C189.604 20.6362 189.364 20.7642 189.124 20.7642C188.804 20.7642 188.548 20.7162 188.356 20.6202C188.164 20.5242 188.004 20.3722 187.876 20.1642C187.572 19.6842 187.22 19.2602 186.82 18.8922C186.42 18.5082 185.884 18.3162 185.212 18.3162C184.556 18.3162 183.82 18.4682 183.004 18.7722C182.188 19.0762 181.588 19.4522 181.204 19.9002C180.34 20.9562 179.908 22.3562 179.908 24.1002C179.908 25.4922 180.34 26.6842 181.204 27.6762C182.116 28.7002 183.268 29.2122 184.66 29.2122C185.3 29.2122 185.996 29.1002 186.748 28.8762C187.516 28.6362 188.124 28.2522 188.572 27.7242H188.548C188.836 27.4202 189.196 27.2682 189.628 27.2682C189.884 27.2682 190.124 27.3802 190.348 27.6042C190.588 27.8282 190.708 28.0522 190.708 28.2762C190.708 28.5162 190.668 28.7322 190.588 28.9242C190.524 29.1002 190.396 29.3002 190.204 29.5242C189.548 30.2442 188.708 30.7482 187.684 31.0362C186.676 31.3082 185.524 31.4442 184.228 31.4442C183.156 31.4442 182.124 31.1882 181.132 30.6762C180.156 30.1642 179.348 29.5162 178.708 28.7322C178.388 28.2682 178.076 27.6042 177.772 26.7402C177.484 25.8602 177.34 25.1482 177.34 24.6042C177.34 23.2122 177.548 21.8922 177.964 20.6442C178.396 19.3802 179.036 18.3722 179.884 17.6202C180.444 17.1082 181.252 16.7242 182.308 16.4682C183.364 16.2122 184.332 16.0842 185.212 16.0842C185.916 16.0842 186.516 16.1882 187.012 16.3962C187.524 16.5882 187.964 16.8522 188.332 17.1882C188.7 17.5082 189.116 17.9482 189.58 18.5082ZM204.21 29.8602C204.226 30.1962 204.186 30.4362 204.09 30.5802C203.994 30.7082 203.802 30.8442 203.514 30.9882C203.082 31.1962 202.57 31.3322 201.978 31.3962C201.402 31.4602 200.658 31.4922 199.746 31.4922H198.114C196.69 31.4922 195.634 31.2522 194.946 30.7722C194.258 30.2762 193.826 29.6842 193.65 28.9962C193.474 28.3082 193.37 27.4202 193.338 26.3322C193.322 25.9642 193.314 25.4202 193.314 24.7002C193.314 23.1322 193.45 21.0362 193.722 18.4122C193.802 17.6442 194.082 17.0922 194.562 16.7562C195.042 16.4042 195.586 16.2282 196.194 16.2282C196.69 16.2282 197.498 16.2122 198.618 16.1802L200.73 16.1562C201.594 16.1562 202.218 16.1802 202.602 16.2282C203.082 16.3242 203.442 16.4362 203.682 16.5642C203.922 16.6762 204.05 16.8762 204.066 17.1642C204.066 17.4842 203.962 17.7962 203.754 18.1002C203.546 18.4042 203.226 18.5562 202.794 18.5562C202.298 18.5562 201.586 18.5242 200.658 18.4602C199.73 18.3962 199.026 18.3642 198.546 18.3642C198.114 18.3642 197.722 18.3882 197.37 18.4362C196.922 18.4682 196.602 18.5242 196.41 18.6042C196.218 18.6842 196.114 18.8202 196.098 19.0122C195.922 20.7562 195.85 21.9722 195.882 22.6602C196.25 22.7082 196.618 22.7322 196.986 22.7322C197.354 22.7322 197.858 22.7002 198.498 22.6362C198.658 22.6202 198.858 22.6042 199.098 22.5882C199.338 22.5722 199.61 22.5642 199.914 22.5642C200.09 22.5642 200.37 22.5802 200.754 22.6122L201.498 22.6362C202.234 22.6362 202.602 22.9002 202.602 23.4282C202.602 23.7482 202.514 24.0042 202.338 24.1962C202.162 24.3882 201.85 24.5322 201.402 24.6282C200.794 24.7402 199.81 24.7962 198.45 24.7962H196.986C196.682 24.7962 196.306 24.7802 195.858 24.7482C195.842 25.0362 195.834 25.4522 195.834 25.9962C195.834 26.7002 195.842 27.1962 195.858 27.4842C195.906 28.6042 196.682 29.1642 198.186 29.1642C198.698 29.1642 199.242 29.1802 199.818 29.2122L200.706 29.2362C201.122 29.2362 201.466 29.1962 201.738 29.1162C202.01 29.0202 202.274 28.9402 202.53 28.8762C202.802 28.7962 203.05 28.7562 203.274 28.7562C203.578 28.7562 203.81 28.8762 203.97 29.1162C204.13 29.3402 204.21 29.5882 204.21 29.8602ZM217.496 27.0522C217.496 27.8042 217.32 28.4522 216.968 28.9962C216.632 29.5242 216.072 30.0122 215.288 30.4602C214.76 30.7802 214.144 31.0202 213.44 31.1802C212.736 31.3402 212.024 31.4202 211.304 31.4202C210.568 31.4202 209.656 31.1802 208.568 30.7002C207.784 30.3162 207.16 29.8602 206.696 29.3322C206.248 28.8042 206.024 28.2282 206.024 27.6042C206.024 27.1722 206.12 26.8602 206.312 26.6682C206.504 26.4602 206.816 26.3562 207.248 26.3562C207.472 26.3562 207.704 26.4522 207.944 26.6442C208.184 26.8202 208.328 26.9962 208.376 27.1722C208.6 27.8282 208.992 28.3322 209.552 28.6842C210.112 29.0202 210.808 29.1882 211.64 29.1882C212.6 29.1882 213.4 29.0122 214.04 28.6602C214.696 28.3082 215.024 27.8362 215.024 27.2442C215.024 26.6682 214.672 26.1562 213.968 25.7082C213.264 25.2602 212.544 24.9482 211.808 24.7722C210.752 24.4842 209.816 24.1402 209 23.7402C208.152 23.3242 207.52 22.8122 207.104 22.2042C206.688 21.5962 206.48 20.9562 206.48 20.2842C206.48 19.6602 206.696 19.0282 207.128 18.3882C207.56 17.7322 208.072 17.2602 208.664 16.9722C208.984 16.8122 209.528 16.6442 210.296 16.4682C211.08 16.2762 211.648 16.1802 212 16.1802C212.448 16.1802 212.92 16.2362 213.416 16.3482C213.912 16.4602 214.336 16.6202 214.688 16.8282C215.392 17.2282 215.912 17.5882 216.248 17.9082C216.584 18.2282 216.752 18.6282 216.752 19.1082C216.752 19.3962 216.64 19.6522 216.416 19.8762C216.208 20.1002 215.84 20.2122 215.312 20.2122C215.184 20.2122 215.056 20.1562 214.928 20.0442C214.8 19.9322 214.64 19.7642 214.448 19.5402C214.192 19.2042 213.944 18.9802 213.704 18.8682C213.448 18.7722 213.128 18.6842 212.744 18.6042C212.36 18.5082 212 18.4602 211.664 18.4602C211.28 18.4602 210.88 18.5402 210.464 18.7002C210.048 18.8602 209.696 19.0922 209.408 19.3962C209.136 19.6842 209 20.0202 209 20.4042C209 20.7242 209.144 21.0042 209.432 21.2442C209.736 21.4682 210.096 21.6522 210.512 21.7962C210.992 21.9882 211.512 22.1562 212.072 22.3002C212.808 22.5242 213.408 22.7322 213.872 22.9242C214.352 23.1002 214.816 23.3242 215.264 23.5962C216.048 24.0602 216.616 24.5402 216.968 25.0362C217.32 25.5162 217.496 26.1882 217.496 27.0522Z" fill="white"/>
<path d="M49.6733 15.6351L29.9035 22.8182C29.5855 22.9337 29.5149 23.2165 29.8923 23.3712L34.1428 25.1272L36.6621 26.1674L48.9612 16.8554C49.1269 16.7307 49.3173 16.965 49.1975 17.099L40.3841 26.927V26.9293L39.878 27.51L40.5487 27.8817L46.1272 30.978C46.453 31.1581 46.8751 31.0092 46.9692 30.5924L50.2231 16.1327C50.3116 15.7367 50.0574 15.4954 49.6733 15.6351ZM36.6397 32.4072C36.6397 32.6912 36.7954 32.7709 37.0104 32.57C37.2914 32.3056 40.2016 29.6134 40.2016 29.6134L36.6397 27.7154V32.4072Z" fill="white"/>
</svg>
