<svg width="196" height="31" viewBox="0 0 196 31" fill="none" xmlns="http://www.w3.org/2000/svg">
<path d="M37.848 7.73594C38.92 7.73594 39.896 7.87194 40.776 8.14394C41.656 8.39994 42.376 8.78394 42.936 9.29594C43.944 10.2079 44.648 11.2079 45.048 12.2959C45.464 13.3679 45.672 14.7439 45.672 16.4239C45.672 16.7759 45.624 17.0959 45.528 17.3839C45.448 17.6719 45.312 18.0399 45.12 18.4879C44.88 18.9839 44.736 19.3759 44.688 19.6639C44.368 20.2239 43.84 20.7599 43.104 21.2719C42.384 21.7839 41.6 22.1999 40.752 22.5199C39.904 22.8399 39.16 22.9999 38.52 22.9999C35.432 22.9999 33.232 21.9439 31.92 19.8319C31.552 19.2399 31.264 18.6239 31.056 17.9839C30.864 17.3439 30.768 16.7199 30.768 16.1119C30.768 14.4799 31.056 13.0639 31.632 11.8639C32.224 10.6479 33.04 9.70394 34.08 9.03194C34.704 8.66394 35.352 8.35994 36.024 8.11994C36.712 7.86394 37.32 7.73594 37.848 7.73594ZM33.264 16.1839C33.264 17.0479 33.456 17.7599 33.84 18.3199C34.24 18.8799 34.848 19.4879 35.664 20.1439C36.336 20.3999 36.792 20.5679 37.032 20.6479C37.272 20.7119 37.544 20.7439 37.848 20.7439C39.464 20.7439 40.752 20.3039 41.712 19.4239C42.672 18.5439 43.152 17.3359 43.152 15.7999C43.152 14.5839 43.016 13.6239 42.744 12.9199C42.472 12.2159 41.984 11.5839 41.28 11.0239C40.912 10.7199 40.44 10.4959 39.864 10.3519C39.304 10.2079 38.696 10.1359 38.04 10.1359C37.048 10.1359 36.192 10.4319 35.472 11.0239C34.752 11.5999 34.2 12.3519 33.816 13.2799C33.448 14.2079 33.264 15.1759 33.264 16.1839ZM51.1586 9.07994C51.1586 9.54394 51.1426 10.2719 51.1106 11.2639L51.0866 13.1359C51.0866 14.6559 51.1986 15.9279 51.4226 16.9519C51.5666 17.6239 51.7186 18.1359 51.8786 18.4879C52.0546 18.8239 52.3186 19.2079 52.6706 19.6399C52.9426 19.9599 53.2946 20.2159 53.7266 20.4079C54.1746 20.5839 54.6146 20.6719 55.0466 20.6719C55.7986 20.6719 56.4226 20.5599 56.9186 20.3359C57.4306 20.1119 57.8146 19.7279 58.0706 19.1839C58.5506 18.1919 58.7906 16.9679 58.7906 15.5119C58.7906 14.5999 58.7346 13.4879 58.6226 12.1759C58.5266 10.7359 58.4786 9.67994 58.4786 9.00794C58.4786 8.63994 58.6546 8.34394 59.0066 8.11994C59.3586 7.89594 59.6786 7.78394 59.9666 7.78394C60.4626 7.78394 60.7986 7.91994 60.9746 8.19194C61.1666 8.46394 61.2626 8.78394 61.2626 9.15194C61.2626 9.61594 61.2386 10.0159 61.1906 10.3519C61.1586 10.7679 61.1426 11.0639 61.1426 11.2399C61.1426 11.8479 61.1746 12.8079 61.2386 14.1199C61.2546 14.4559 61.2706 14.8479 61.2866 15.2959C61.3026 15.7439 61.3106 16.2239 61.3106 16.7359C61.3106 17.8239 61.0546 18.8559 60.5426 19.8319C60.0306 20.7919 59.3106 21.5679 58.3826 22.1599C57.4546 22.7519 56.3986 23.0479 55.2146 23.0479C53.3746 23.0479 51.9586 22.5599 50.9666 21.5839C49.9746 20.5919 49.3026 19.2159 48.9506 17.4559C48.7426 16.4159 48.6066 15.2319 48.5426 13.9039C48.4946 12.5759 48.4706 10.8959 48.4706 8.86394C48.4706 8.60794 48.5906 8.36794 48.8306 8.14394C49.0866 7.91994 49.3586 7.80794 49.6466 7.80794C50.6546 7.80794 51.1586 8.23194 51.1586 9.07994ZM72.3287 16.6399C72.8887 17.5839 73.4487 18.4239 74.0087 19.1599C74.5847 19.8799 75.3367 20.7679 76.2647 21.8239C76.3767 21.9359 76.4327 22.0639 76.4327 22.2079C76.4327 22.4319 76.3047 22.6239 76.0487 22.7839C75.8087 22.9439 75.5127 23.0239 75.1607 23.0239C74.6647 23.0239 74.1287 22.8159 73.5527 22.3999C73.0407 22.0319 72.5847 21.5439 72.1847 20.9359C71.7847 20.3279 71.3207 19.5359 70.7927 18.5599C70.3767 17.8079 70.1287 17.3679 70.0487 17.2399C69.4247 17.4959 68.4487 17.6559 67.1207 17.7199C67.1207 18.2639 67.1687 18.9999 67.2647 19.9279C67.3607 20.8879 67.4087 21.5839 67.4087 22.0159C67.4087 22.3039 67.2647 22.5439 66.9767 22.7359C66.7047 22.9279 66.3927 23.0239 66.0407 23.0239C65.6247 23.0239 65.3047 22.8559 65.0807 22.5199C64.8567 22.0719 64.7127 21.5359 64.6487 20.9119C64.5847 20.2879 64.5527 19.5439 64.5527 18.6799C64.5527 17.7679 64.6087 16.7359 64.7207 15.5839C64.8167 14.3039 64.8647 13.3599 64.8647 12.7519C64.8647 12.2559 64.8167 11.5919 64.7207 10.7599C64.7047 10.6159 64.6807 10.3679 64.6487 10.0159C64.6167 9.66394 64.6007 9.34394 64.6007 9.05594C64.6007 8.83194 64.6807 8.63994 64.8407 8.47994C65.0167 8.30394 65.2007 8.18394 65.3927 8.11994C66.6887 7.91194 67.9527 7.80794 69.1847 7.80794C71.2807 7.80794 73.0167 8.19994 74.3927 8.98394C75.7687 9.76794 76.4567 10.9599 76.4567 12.5599C76.4567 13.0559 76.3447 13.5359 76.1207 13.9999C75.9127 14.4479 75.6247 14.8239 75.2567 15.1279C74.2807 15.8799 73.3047 16.3839 72.3287 16.6399ZM73.9367 12.4879C73.9367 11.7199 73.5287 11.0959 72.7127 10.6159C71.8967 10.1199 70.7367 9.87194 69.2327 9.87194C68.5607 9.87194 67.8967 9.95194 67.2407 10.1119L67.2647 11.3359C67.2647 12.0399 67.2407 12.7279 67.1927 13.3999C67.1447 14.0719 67.1207 14.7919 67.1207 15.5599C67.3927 15.4959 67.6807 15.4559 67.9847 15.4399C68.2887 15.4079 68.4887 15.3839 68.5847 15.3679C69.2887 15.3039 69.8327 15.2239 70.2167 15.1279C70.9367 14.9039 71.5287 14.7039 71.9927 14.5279C72.4727 14.3359 72.9127 14.0719 73.3127 13.7359C73.7287 13.3839 73.9367 12.9679 73.9367 12.4879ZM95.2037 18.8719C95.2037 19.6239 95.0437 20.2319 94.7237 20.6959C94.4037 21.1599 93.8517 21.6159 93.0677 22.0639C92.5397 22.3839 91.9317 22.6319 91.2437 22.8079C90.5557 22.9679 89.8597 23.0479 89.1557 23.0479C88.7237 23.0479 88.2197 22.9679 87.6437 22.8079C87.0837 22.6319 86.6277 22.4639 86.2757 22.3039L85.8677 21.9439C85.1477 21.3519 84.6437 20.8799 84.3557 20.5279C84.0837 20.1599 83.9477 19.7119 83.9477 19.1839C83.9477 18.7679 84.0437 18.4559 84.2357 18.2479C84.4277 18.0399 84.7397 17.9359 85.1717 17.9359C85.3957 17.9359 85.6037 18.0079 85.7957 18.1519C85.9877 18.2959 86.1557 18.4959 86.2997 18.7519C86.6997 19.4559 87.1717 19.9759 87.7157 20.3119C88.2757 20.6319 88.9317 20.7919 89.6837 20.7919C90.3877 20.7919 91.0997 20.5759 91.8197 20.1439C92.4117 19.7759 92.7077 19.4159 92.7077 19.0639C92.7077 18.4399 92.4277 17.9199 91.8677 17.5039C91.3237 17.0879 90.5397 16.7119 89.5157 16.3759C88.8917 16.1519 87.9557 15.7359 86.7077 15.1279C85.8597 14.7119 85.2277 14.1999 84.8117 13.5919C84.3957 12.9839 84.1877 12.3439 84.1877 11.6719C84.1877 11.0639 84.3957 10.4719 84.8117 9.89594C85.2437 9.30394 85.7637 8.86394 86.3717 8.57594C86.6917 8.41594 87.2037 8.24794 87.9077 8.07194C88.6117 7.87994 89.1397 7.78394 89.4917 7.78394C90.1477 7.78394 90.7157 7.86394 91.1957 8.02394C91.6757 8.16794 92.1477 8.37594 92.6117 8.64794C93.3157 9.04794 93.8357 9.40794 94.1717 9.72794C94.5077 10.0479 94.6757 10.4479 94.6757 10.9279C94.6757 11.2159 94.5637 11.4719 94.3397 11.6959C94.1317 11.9199 93.7637 12.0319 93.2357 12.0319C93.1077 12.0319 92.9797 11.9759 92.8517 11.8639C92.7237 11.7519 92.5637 11.5839 92.3717 11.3599C92.1157 11.0239 91.8677 10.7999 91.6277 10.6879C91.5637 10.6719 91.2997 10.5679 90.8357 10.3759C90.3877 10.1839 89.8277 10.0879 89.1557 10.0879C88.5157 10.0879 87.9477 10.2399 87.4517 10.5439C86.9557 10.8319 86.7077 11.2559 86.7077 11.8159C86.7077 12.3759 87.2117 12.8319 88.2197 13.1839C89.2917 13.5999 90.1797 13.9599 90.8837 14.2639C91.6037 14.5679 92.2997 14.9279 92.9717 15.3439C93.7397 15.8079 94.2997 16.2959 94.6517 16.8079C95.0197 17.3199 95.2037 18.0079 95.2037 18.8719ZM107.816 19.9519C108.12 19.9519 108.344 20.0719 108.488 20.3119C108.648 20.5359 108.728 20.7839 108.728 21.0559C108.728 21.3919 108.672 21.6319 108.56 21.7759C108.464 21.9039 108.264 22.0399 107.96 22.1839C107.32 22.4879 106.6 22.7039 105.8 22.8319C105.016 22.9599 104.032 23.0239 102.848 23.0239C101.424 23.0239 100.328 22.7839 99.5603 22.3039C98.8083 21.8079 98.3123 21.1919 98.0723 20.4559C97.8323 19.7199 97.7123 18.8639 97.7123 17.8879V16.3759C97.7123 15.3359 97.7363 14.3359 97.7843 13.3759C97.8483 12.4159 97.9683 11.2959 98.1443 10.0159C98.2563 9.24794 98.5603 8.69594 99.0563 8.35994C99.5523 8.00794 100.096 7.83194 100.688 7.83194C101.328 7.83194 102.208 7.81594 103.328 7.78394L105.416 7.75994C106.264 7.75994 106.888 7.78394 107.288 7.83194C107.768 7.92794 108.12 8.03994 108.344 8.16794C108.584 8.27994 108.704 8.47994 108.704 8.76794C108.704 9.08794 108.592 9.39994 108.368 9.70394C108.16 10.0079 107.84 10.1599 107.408 10.1599C106.912 10.1599 106.2 10.1279 105.272 10.0639C104.344 9.99994 103.648 9.96794 103.184 9.96794C102.608 9.96794 102.144 9.99194 101.792 10.0399C101.344 10.0719 101.024 10.1279 100.832 10.2079C100.64 10.2879 100.528 10.4239 100.496 10.6159C100.272 12.2639 100.16 13.4799 100.16 14.2639C100.512 14.3119 100.888 14.3359 101.288 14.3359C101.8 14.3359 102.656 14.2799 103.856 14.1679C104.736 14.0879 105.464 14.0479 106.04 14.0479C106.408 14.0479 106.68 14.1119 106.856 14.2399C107.032 14.3679 107.12 14.5439 107.12 14.7679C107.12 15.1199 107.032 15.3919 106.856 15.5839C106.68 15.7759 106.36 15.9199 105.896 16.0159C105.336 16.1279 104.608 16.2159 103.712 16.2799C102.832 16.3439 101.992 16.3759 101.192 16.3759C100.888 16.3759 100.512 16.3599 100.064 16.3279C100.064 17.3839 100.112 18.2159 100.208 18.8239C100.32 19.4319 100.544 19.9039 100.88 20.2399C101.232 20.5759 101.76 20.7439 102.464 20.7439C104.048 20.7439 105.312 20.5999 106.256 20.3119C106.928 20.0719 107.448 19.9519 107.816 19.9519ZM119.257 16.6399C120.649 19.0079 121.953 20.8879 123.169 22.2799C123.297 22.4079 123.361 22.5519 123.361 22.7119C123.361 22.9199 123.233 23.0959 122.977 23.2399C122.721 23.3999 122.425 23.4799 122.089 23.4799C121.593 23.4799 121.057 23.2719 120.481 22.8559C120.065 22.5679 119.681 22.1439 119.329 21.5839C118.977 21.0079 118.577 20.2719 118.129 19.3759L117.721 18.5599C117.305 17.8079 117.057 17.3679 116.977 17.2399C116.625 17.3839 116.217 17.4879 115.753 17.5519C115.289 17.6159 114.721 17.6719 114.049 17.7199C114.081 19.7679 114.097 21.1999 114.097 22.0159C114.097 22.3199 113.985 22.5679 113.761 22.7599C113.537 22.9359 113.257 23.0239 112.921 23.0239C112.505 23.0239 112.185 22.8559 111.961 22.5199C111.737 22.0719 111.625 21.3759 111.625 20.4319L111.649 18.6799C111.649 17.5919 111.673 16.5599 111.721 15.5839C111.753 14.3039 111.769 13.3599 111.769 12.7519L111.793 11.5279C111.793 11.1599 111.769 10.7839 111.721 10.3999C111.465 10.3199 111.241 10.1999 111.049 10.0399C110.857 9.86394 110.761 9.67194 110.761 9.46394C110.761 9.06394 110.905 8.75994 111.193 8.55194C111.497 8.32794 111.873 8.18394 112.321 8.11994C113.617 7.91194 114.881 7.80794 116.113 7.80794C118.209 7.80794 119.945 8.19994 121.321 8.98394C122.697 9.76794 123.385 10.9599 123.385 12.5599C123.385 13.0559 123.273 13.5359 123.049 13.9999C122.841 14.4479 122.553 14.8239 122.185 15.1279C121.225 15.8799 120.249 16.3839 119.257 16.6399ZM120.841 12.4879C120.841 11.7199 120.433 11.0959 119.617 10.6159C118.817 10.1199 117.665 9.87194 116.161 9.87194C115.505 9.87194 114.833 9.95194 114.145 10.1119C114.177 10.6879 114.193 11.0959 114.193 11.3359C114.193 11.8159 114.161 12.5039 114.097 13.3999C114.065 14.2959 114.049 15.0159 114.049 15.5599C115.121 15.5599 116.145 15.4159 117.121 15.1279C117.825 14.9199 118.417 14.7199 118.897 14.5279C119.377 14.3359 119.817 14.0719 120.217 13.7359C120.633 13.3839 120.841 12.9679 120.841 12.4879ZM127.326 8.47994C127.918 10.2399 128.59 12.1759 129.342 14.2879C130.094 16.3839 130.782 18.1999 131.406 19.7359C131.87 18.2479 132.51 16.4639 133.326 14.3839C134.142 12.2879 134.902 10.3999 135.606 8.71994C135.814 8.22394 136.166 7.97594 136.662 7.97594C137.126 7.97594 137.478 8.07194 137.718 8.26394C137.958 8.43994 138.078 8.75194 138.078 9.19994C138.078 9.37594 138.054 9.52794 138.006 9.65594C137.958 9.78394 137.886 9.95194 137.79 10.1599C137.294 11.1359 136.798 12.2639 136.302 13.5439C135.806 14.8079 135.198 16.4159 134.478 18.3679C134.51 18.2879 134.286 18.8879 133.806 20.1679L133.014 22.2319C132.918 22.4879 132.758 22.6879 132.534 22.8319C132.326 22.9599 132.086 23.0239 131.814 23.0239C131.542 23.0239 131.238 22.9599 130.902 22.8319C130.582 22.6879 130.35 22.5439 130.206 22.3999C129.662 21.3599 128.966 19.8559 128.118 17.8879C127.286 15.9199 126.566 14.1039 125.958 12.4399L125.598 11.4559C125.358 10.7839 125.182 10.2719 125.07 9.91994C124.958 9.55194 124.902 9.25594 124.902 9.03194C124.902 8.71194 125.078 8.45594 125.43 8.26394C125.798 8.07194 126.15 7.97594 126.486 7.97594C126.662 7.97594 126.83 8.01594 126.99 8.09594C127.15 8.17594 127.262 8.30394 127.326 8.47994ZM143.979 9.75194C143.931 10.7759 143.907 11.7599 143.907 12.7039C143.907 13.6799 143.971 15.1119 144.099 16.9999C144.115 17.2879 144.147 17.8719 144.195 18.7519C144.243 19.6159 144.267 20.4079 144.267 21.1279C144.427 21.1119 144.595 21.0879 144.771 21.0559C144.963 21.0239 145.107 21.0079 145.203 21.0079C145.555 21.0079 145.835 21.0959 146.043 21.2719C146.251 21.4479 146.355 21.7199 146.355 22.0879C146.355 22.3279 146.259 22.5119 146.067 22.6399C145.875 22.7679 145.539 22.8639 145.059 22.9279C144.595 22.9759 143.915 22.9999 143.019 22.9999C142.027 22.9999 141.283 22.9679 140.787 22.9039C140.291 22.8399 139.947 22.7199 139.755 22.5439C139.563 22.3519 139.467 22.0719 139.467 21.7039C139.467 21.4319 139.555 21.2479 139.731 21.1519C139.907 21.0559 140.155 21.0079 140.475 21.0079L140.979 21.0319L141.771 21.0799L141.651 18.2479C141.555 16.7119 141.507 15.3039 141.507 14.0239C141.507 13.3359 141.531 12.3919 141.579 11.1919L141.627 9.87194C141.083 9.90394 140.659 9.91994 140.355 9.91994C140.003 9.91994 139.763 9.85594 139.635 9.72794C139.523 9.59994 139.467 9.33594 139.467 8.93594C139.467 8.48794 139.771 8.19994 140.379 8.07194C141.003 7.94394 141.947 7.87994 143.211 7.87994C144.187 7.87994 144.915 7.91194 145.395 7.97594C145.891 8.03994 146.139 8.18394 146.139 8.40794C146.139 8.95194 146.019 9.31194 145.779 9.48794C145.555 9.64794 145.115 9.72794 144.459 9.72794L143.979 9.75194ZM160.78 10.1119C161.02 10.3999 161.188 10.6319 161.284 10.8079C161.38 10.9839 161.428 11.1519 161.428 11.3119C161.428 11.5039 161.3 11.7279 161.044 11.9839C160.804 12.2399 160.564 12.3679 160.324 12.3679C160.004 12.3679 159.748 12.3199 159.556 12.2239C159.364 12.1279 159.204 11.9759 159.076 11.7679C158.772 11.2879 158.42 10.8639 158.02 10.4959C157.62 10.1119 157.084 9.91994 156.412 9.91994C155.756 9.91994 155.02 10.0719 154.204 10.3759C153.388 10.6799 152.788 11.0559 152.404 11.5039C151.54 12.5599 151.108 13.9599 151.108 15.7039C151.108 17.0959 151.54 18.2879 152.404 19.2799C153.316 20.3039 154.468 20.8159 155.86 20.8159C156.5 20.8159 157.196 20.7039 157.948 20.4799C158.716 20.2399 159.324 19.8559 159.772 19.3279H159.748C160.036 19.0239 160.396 18.8719 160.828 18.8719C161.084 18.8719 161.324 18.9839 161.548 19.2079C161.788 19.4319 161.908 19.6559 161.908 19.8799C161.908 20.1199 161.868 20.3359 161.788 20.5279C161.724 20.7039 161.596 20.9039 161.404 21.1279C160.748 21.8479 159.908 22.3519 158.884 22.6399C157.876 22.9119 156.724 23.0479 155.428 23.0479C154.356 23.0479 153.324 22.7919 152.332 22.2799C151.356 21.7679 150.548 21.1199 149.908 20.3359C149.588 19.8719 149.276 19.2079 148.972 18.3439C148.684 17.4639 148.54 16.7519 148.54 16.2079C148.54 14.8159 148.748 13.4959 149.164 12.2479C149.596 10.9839 150.236 9.97594 151.084 9.22394C151.644 8.71194 152.452 8.32794 153.508 8.07194C154.564 7.81594 155.532 7.68794 156.412 7.68794C157.116 7.68794 157.716 7.79194 158.212 7.99994C158.724 8.19194 159.164 8.45594 159.532 8.79194C159.9 9.11194 160.316 9.55194 160.78 10.1119ZM175.41 21.4639C175.426 21.7999 175.386 22.0399 175.29 22.1839C175.194 22.3119 175.002 22.4479 174.714 22.5919C174.282 22.7999 173.77 22.9359 173.178 22.9999C172.602 23.0639 171.858 23.0959 170.946 23.0959H169.314C167.89 23.0959 166.834 22.8559 166.146 22.3759C165.458 21.8799 165.026 21.2879 164.85 20.5999C164.674 19.9119 164.57 19.0239 164.538 17.9359C164.522 17.5679 164.514 17.0239 164.514 16.3039C164.514 14.7359 164.65 12.6399 164.922 10.0159C165.002 9.24794 165.282 8.69594 165.762 8.35994C166.242 8.00794 166.786 7.83194 167.394 7.83194C167.89 7.83194 168.698 7.81594 169.818 7.78394L171.93 7.75994C172.794 7.75994 173.418 7.78394 173.802 7.83194C174.282 7.92794 174.642 8.03994 174.882 8.16794C175.122 8.27994 175.25 8.47994 175.266 8.76794C175.266 9.08794 175.162 9.39994 174.954 9.70394C174.746 10.0079 174.426 10.1599 173.994 10.1599C173.498 10.1599 172.786 10.1279 171.858 10.0639C170.93 9.99994 170.226 9.96794 169.746 9.96794C169.314 9.96794 168.922 9.99194 168.57 10.0399C168.122 10.0719 167.802 10.1279 167.61 10.2079C167.418 10.2879 167.314 10.4239 167.298 10.6159C167.122 12.3599 167.05 13.5759 167.082 14.2639C167.45 14.3119 167.818 14.3359 168.186 14.3359C168.554 14.3359 169.058 14.3039 169.698 14.2399C169.858 14.2239 170.058 14.2079 170.298 14.1919C170.538 14.1759 170.81 14.1679 171.114 14.1679C171.29 14.1679 171.57 14.1839 171.954 14.2159L172.698 14.2399C173.434 14.2399 173.802 14.5039 173.802 15.0319C173.802 15.3519 173.714 15.6079 173.538 15.7999C173.362 15.9919 173.05 16.1359 172.602 16.2319C171.994 16.3439 171.01 16.3999 169.65 16.3999H168.186C167.882 16.3999 167.506 16.3839 167.058 16.3519C167.042 16.6399 167.034 17.0559 167.034 17.5999C167.034 18.3039 167.042 18.7999 167.058 19.0879C167.106 20.2079 167.882 20.7679 169.386 20.7679C169.898 20.7679 170.442 20.7839 171.018 20.8159L171.906 20.8399C172.322 20.8399 172.666 20.7999 172.938 20.7199C173.21 20.6239 173.474 20.5439 173.73 20.4799C174.002 20.3999 174.25 20.3599 174.474 20.3599C174.778 20.3599 175.01 20.4799 175.17 20.7199C175.33 20.9439 175.41 21.1919 175.41 21.4639ZM188.696 18.6559C188.696 19.4079 188.52 20.0559 188.168 20.5999C187.832 21.1279 187.272 21.6159 186.488 22.0639C185.96 22.3839 185.344 22.6239 184.64 22.7839C183.936 22.9439 183.224 23.0239 182.504 23.0239C181.768 23.0239 180.856 22.7839 179.768 22.3039C178.984 21.9199 178.36 21.4639 177.896 20.9359C177.448 20.4079 177.224 19.8319 177.224 19.2079C177.224 18.7759 177.32 18.4639 177.512 18.2719C177.704 18.0639 178.016 17.9599 178.448 17.9599C178.672 17.9599 178.904 18.0559 179.144 18.2479C179.384 18.4239 179.528 18.5999 179.576 18.7759C179.8 19.4319 180.192 19.9359 180.752 20.2879C181.312 20.6239 182.008 20.7919 182.84 20.7919C183.8 20.7919 184.6 20.6159 185.24 20.2639C185.896 19.9119 186.224 19.4399 186.224 18.8479C186.224 18.2719 185.872 17.7599 185.168 17.3119C184.464 16.8639 183.744 16.5519 183.008 16.3759C181.952 16.0879 181.016 15.7439 180.2 15.3439C179.352 14.9279 178.72 14.4159 178.304 13.8079C177.888 13.1999 177.68 12.5599 177.68 11.8879C177.68 11.2639 177.896 10.6319 178.328 9.99194C178.76 9.33594 179.272 8.86394 179.864 8.57594C180.184 8.41594 180.728 8.24794 181.496 8.07194C182.28 7.87994 182.848 7.78394 183.2 7.78394C183.648 7.78394 184.12 7.83994 184.616 7.95194C185.112 8.06394 185.536 8.22394 185.888 8.43194C186.592 8.83194 187.112 9.19194 187.448 9.51194C187.784 9.83194 187.952 10.2319 187.952 10.7119C187.952 10.9999 187.84 11.2559 187.616 11.4799C187.408 11.7039 187.04 11.8159 186.512 11.8159C186.384 11.8159 186.256 11.7599 186.128 11.6479C186 11.5359 185.84 11.3679 185.648 11.1439C185.392 10.8079 185.144 10.5839 184.904 10.4719C184.648 10.3759 184.328 10.2879 183.944 10.2079C183.56 10.1119 183.2 10.0639 182.864 10.0639C182.48 10.0639 182.08 10.1439 181.664 10.3039C181.248 10.4639 180.896 10.6959 180.608 10.9999C180.336 11.2879 180.2 11.6239 180.2 12.0079C180.2 12.3279 180.344 12.6079 180.632 12.8479C180.936 13.0719 181.296 13.2559 181.712 13.3999C182.192 13.5919 182.712 13.7599 183.272 13.9039C184.008 14.1279 184.608 14.3359 185.072 14.5279C185.552 14.7039 186.016 14.9279 186.464 15.1999C187.248 15.6639 187.816 16.1439 188.168 16.6399C188.52 17.1199 188.696 17.7919 188.696 18.6559Z" fill="white"/>
<path d="M20.8735 7.23885L1.10368 14.422C0.785674 14.5374 0.715132 14.8203 1.09248 14.975L5.34296 16.7309L7.86234 17.7711L20.1614 8.45913C20.3271 8.33445 20.5175 8.56881 20.3976 8.70272L11.5843 18.5308V18.5331L11.0782 19.1137L11.7489 19.4855L17.3274 22.5818C17.6532 22.7618 18.0753 22.6129 18.1694 22.1962L21.4233 7.73643C21.5118 7.34044 21.2576 7.09916 20.8735 7.23885ZM7.83994 24.011C7.83994 24.295 7.99558 24.3746 8.21057 24.1738C8.49162 23.9094 11.4018 21.2172 11.4018 21.2172L7.83994 19.3192V24.011Z" fill="white"/>
</svg>
