<svg width="21" height="18" viewBox="0 0 21 18" fill="none" xmlns="http://www.w3.org/2000/svg">
<path d="M20.0371 0.0399375L0.26725 7.22307C-0.0507515 7.33852 -0.121294 7.62137 0.256053 7.77607L4.50653 9.53202L7.02591 10.5722L19.325 1.26022C19.4907 1.13553 19.681 1.36989 19.5612 1.50381L10.7479 11.3318V11.3342L10.2418 11.9148L10.9125 12.2865L16.4909 15.3828C16.8168 15.5629 17.2389 15.414 17.333 14.9972L20.5869 0.537516C20.6753 0.141531 20.4212 -0.0997538 20.0371 0.0399375ZM7.00352 16.8121C7.00352 17.0961 7.15916 17.1757 7.37415 16.9749C7.6552 16.7105 10.5654 14.0182 10.5654 14.0182L7.00352 12.1203V16.8121Z" fill="white"/>
</svg>
