<svg width="1334" height="99" viewBox="0 0 1334 99" fill="none" xmlns="http://www.w3.org/2000/svg">
<g clip-path="url(#clip0_35_505)">
<g clip-path="url(#clip1_35_505)">
<g clip-path="url(#clip2_35_505)">
<g clip-path="url(#clip3_35_505)">
<g clip-path="url(#clip4_35_505)">
<path d="M43.5901 24.7988C44.2987 24.0852 45.2611 23.6843 46.2631 23.6843C50.7714 23.6843 55.02 23.6843 59.204 23.6843C67.6191 23.6843 71.8331 33.9309 65.8827 39.9235L52.9213 52.977C52.3262 53.5762 51.3088 53.1518 51.3088 52.3043V40.8073L52.8067 39.2988C53.9968 38.1002 53.1539 36.0509 51.4709 36.0509H32.4175L43.5901 24.7988Z" fill="#3A04FF"/>
<path d="M40.1359 52.0598C39.4275 52.7734 38.4652 53.1743 37.4632 53.1743C32.9548 53.1743 28.7062 53.1743 24.5222 53.1743C16.1071 53.1742 11.8932 42.9277 17.8436 36.935L30.805 23.8816C31.4 23.2823 32.4174 23.7068 32.4174 24.5543L32.4175 36.0512L30.9195 37.5598C29.7295 38.7584 30.5723 40.8077 32.2553 40.8077L51.3088 40.8076L40.1359 52.0598Z" fill="#3A04FF"/>
<path d="M154.424 31.0596V46.8568H159.162V31.0596H154.424Z" fill="#110051"/>
<path d="M154.755 28.4314C155.315 28.9794 155.999 29.2535 156.809 29.2535C157.618 29.2535 158.299 28.9794 158.848 28.4314C159.408 27.8832 159.688 27.2176 159.688 26.4346C159.688 25.632 159.408 24.9616 158.848 24.4233C158.299 23.8751 157.618 23.6011 156.809 23.6011C155.999 23.6011 155.315 23.8751 154.755 24.4233C154.195 24.9616 153.914 25.632 153.914 26.4346C153.914 27.2176 154.195 27.8832 154.755 28.4314Z" fill="#110051"/>
<path fill-rule="evenodd" clip-rule="evenodd" d="M144.165 47.0912C142.615 47.0912 141.201 46.7438 139.921 46.0488C138.651 45.354 137.637 44.3947 136.876 43.1712C136.127 41.9478 135.753 40.5384 135.753 38.943C135.753 37.3475 136.127 35.9382 136.876 34.7146C137.637 33.4913 138.651 32.5369 139.921 31.8517C141.201 31.1666 142.615 30.824 144.165 30.824C145.744 30.824 147.168 31.1666 148.438 31.8517C149.708 32.5369 150.712 33.4913 151.452 34.7146C152.201 35.9382 152.576 37.3475 152.576 38.943C152.576 40.5384 152.201 41.9478 151.452 43.1712C150.712 44.3947 149.703 45.354 148.423 46.0488C147.154 46.7438 145.735 47.0912 144.165 47.0912ZM144.165 43.1272C144.904 43.1272 145.569 42.9511 146.159 42.5987C146.749 42.2463 147.213 41.7569 147.553 41.1305C147.893 40.5042 148.063 39.775 148.063 38.943C148.063 38.1404 147.898 37.4259 147.568 36.7995C147.238 36.173 146.783 35.6837 146.203 35.3313C145.624 34.9692 144.953 34.7881 144.195 34.7881C143.445 34.7881 142.77 34.9643 142.17 35.3166C141.58 35.6592 141.115 36.1436 140.776 36.7702C140.436 37.3965 140.265 38.1208 140.265 38.943C140.265 39.775 140.436 40.5042 140.776 41.1305C141.125 41.7569 141.595 42.2463 142.185 42.5987C142.775 42.9511 143.434 43.1272 144.165 43.1272Z" fill="#110051"/>
<path fill-rule="evenodd" clip-rule="evenodd" d="M121.729 52.7735C122.848 53.0964 124.078 53.2579 125.417 53.2579C126.667 53.2579 127.811 53.1013 128.851 52.7881C129.891 52.4848 130.79 52.0247 131.55 51.408C132.32 50.7915 132.914 50.0281 133.335 49.1177C133.754 48.2075 133.964 47.1505 133.964 45.9465V31.0448H129.661V32.5863H129.571C129.284 32.3179 128.975 32.0732 128.641 31.8522C127.602 31.1573 126.387 30.8098 124.998 30.8098C123.798 30.8098 122.643 31.1083 121.534 31.7054C120.424 32.2927 119.515 33.1736 118.805 34.3481C118.105 35.5128 117.755 36.976 117.755 38.7379C117.755 40.0592 117.96 41.2093 118.37 42.1881C118.78 43.1668 119.324 43.984 120.005 44.6399C120.694 45.2858 121.459 45.7703 122.299 46.0933C123.139 46.4065 123.983 46.5631 124.832 46.5631C126.202 46.5631 127.422 46.1961 128.492 45.4621C128.83 45.2266 129.146 44.9673 129.438 44.6839H129.51V46.2108C129.51 46.9644 129.261 47.5713 128.761 48.0313C128.262 48.5011 127.656 48.8437 126.947 49.059C126.237 49.2743 125.552 49.382 124.893 49.382C124.123 49.382 123.363 49.2597 122.613 49.0149C121.873 48.78 121.224 48.4962 120.665 48.1635L119.105 51.8045C119.745 52.1372 120.619 52.4603 121.729 52.7735ZM127.907 42.2614C127.357 42.6139 126.722 42.79 126.002 42.79C125.292 42.79 124.668 42.6139 124.128 42.2614C123.588 41.8993 123.164 41.405 122.854 40.7786C122.544 40.1424 122.388 39.4132 122.388 38.5911C122.388 37.7689 122.544 37.0544 122.854 36.4476C123.173 35.8407 123.613 35.3757 124.173 35.0528C124.733 34.7199 125.367 34.5536 126.077 34.5536C126.787 34.5536 127.412 34.7151 127.952 35.0381C128.492 35.3611 128.916 35.826 129.226 36.4328C129.535 37.03 129.69 37.7493 129.69 38.5911C129.69 39.4229 129.531 40.1572 129.211 40.7933C128.891 41.4197 128.456 41.9091 127.907 42.2614Z" fill="#110051"/>
<path fill-rule="evenodd" clip-rule="evenodd" d="M108.14 47.0912C106.591 47.0912 105.176 46.7438 103.896 46.0488C102.627 45.354 101.612 44.3947 100.853 43.1712C100.103 41.9478 99.7279 40.5384 99.7279 38.943C99.7279 37.3475 100.103 35.9382 100.853 34.7146C101.612 33.4913 102.627 32.5369 103.896 31.8517C105.176 31.1666 106.591 30.824 108.14 30.824C109.719 30.824 111.144 31.1666 112.413 31.8517C113.683 32.5369 114.687 33.4913 115.427 34.7146C116.177 35.9382 116.552 37.3475 116.552 38.943C116.552 40.5384 116.177 41.9478 115.427 43.1712C114.687 44.3947 113.678 45.354 112.398 46.0488C111.129 46.7438 109.709 47.0912 108.14 47.0912ZM108.14 43.1272C108.88 43.1272 109.544 42.9511 110.134 42.5987C110.724 42.2463 111.188 41.7569 111.529 41.1305C111.869 40.5042 112.038 39.775 112.038 38.943C112.038 38.1404 111.873 37.4259 111.543 36.7995C111.213 36.173 110.759 35.6837 110.179 35.3313C109.6 34.9692 108.929 34.7881 108.17 34.7881C107.42 34.7881 106.746 34.9643 106.145 35.3166C105.555 35.6592 105.091 36.1436 104.751 36.7702C104.411 37.3965 104.241 38.1208 104.241 38.943C104.241 39.775 104.411 40.5042 104.751 41.1305C105.101 41.7569 105.571 42.2463 106.161 42.5987C106.75 42.9511 107.41 43.1272 108.14 43.1272Z" fill="#110051"/>
<path d="M86.9185 25.2158V46.8564H99.7989V42.5694H91.8367V25.2158H86.9185Z" fill="#110051"/>
</g>
</g>
</g>
<g clip-path="url(#clip5_35_505)">
<g clip-path="url(#clip6_35_505)">
<mask id="mask0_35_505" style="mask-type:luminance" maskUnits="userSpaceOnUse" x="206" y="6" width="218" height="65">
<path d="M423.504 6.22314H206.111V70.636H423.504V6.22314Z" fill="white"/>
</mask>
<g mask="url(#mask0_35_505)">
<path fill-rule="evenodd" clip-rule="evenodd" d="M213.4 15.8012V12.6646H206.257V41.5663C206.257 54.0635 216.35 64.1948 228.801 64.1948C241.252 64.1948 251.346 54.0635 251.346 41.5663V12.6646H244.203V15.8012H232.149V12.6646H225.007V15.8012H213.4ZM225.007 56.5526C218.398 54.872 213.493 48.9037 213.401 41.7703C214.162 41.9553 214.91 42.1996 215.637 42.5019C217.478 43.2676 219.152 44.3896 220.561 45.8045C221.97 47.2191 223.088 48.8985 223.851 50.747C224.611 52.5878 225.003 54.5603 225.007 56.5526ZM225.612 40.7349C226.73 41.8576 227.724 43.0935 228.578 44.4209C229.432 43.0935 230.426 41.8576 231.544 40.7349C232.663 39.6121 233.894 38.6147 235.217 37.7575C233.894 36.9002 232.663 35.9028 231.544 34.7801C230.426 33.6573 229.432 32.4214 228.578 31.094C227.724 32.4214 226.73 33.6573 225.612 34.7801C224.493 35.9028 223.262 36.9002 221.939 37.7575C223.262 38.6147 224.493 39.6121 225.612 40.7349ZM244.203 41.6687C244.155 49.0069 239.014 55.1316 232.149 56.659V56.5772C232.149 54.5765 232.542 52.5954 233.305 50.747C234.068 48.8985 235.186 47.2191 236.595 45.8045C238.005 44.3896 239.678 43.2676 241.519 42.5019C242.388 42.1407 243.287 41.8621 244.203 41.6687ZM224.465 22.9706C224.298 23.5808 224.093 24.1809 223.851 24.7679C223.088 26.6164 221.97 28.2958 220.561 29.7106C219.152 31.1253 217.478 32.2473 215.637 33.013C214.909 33.3155 214.161 33.5599 213.4 33.7449V22.9706H224.465ZM244.203 33.8464V22.9706H232.691C232.858 23.5808 233.063 24.1809 233.305 24.7679C234.068 26.6164 235.186 28.2958 236.595 29.7106C238.005 31.1253 239.678 32.2473 241.519 33.013C242.388 33.3744 243.287 33.653 244.203 33.8464Z" fill="#09C382"/>
<path d="M277.111 12.6646V33.7639H290.407V29.9406H281.496V12.6646H277.111Z" fill="#124835"/>
<path d="M344.075 18.3003V33.7638H348.319V18.3003H344.075Z" fill="#124835"/>
<path d="M344.075 12.6646V16.9128H348.319V12.6646H344.075Z" fill="#124835"/>
<path fill-rule="evenodd" clip-rule="evenodd" d="M334.163 34.1038C332.636 34.1038 331.24 33.7545 329.976 33.0558C328.731 32.3572 327.732 31.4038 326.977 30.1954C326.242 28.9682 325.874 27.5804 325.874 26.0322C325.874 24.4651 326.242 23.0774 326.977 21.869C327.732 20.6607 328.731 19.7072 329.976 19.0086C331.24 18.31 332.636 17.9607 334.163 17.9607C335.691 17.9607 337.077 18.31 338.321 19.0086C339.566 19.7072 340.557 20.6607 341.292 21.869C342.047 23.0774 342.424 24.4651 342.424 26.0322C342.424 27.5804 342.047 28.9682 341.292 30.1954C340.557 31.4038 339.566 32.3572 338.321 33.0558C337.077 33.7545 335.691 34.1038 334.163 34.1038ZM334.163 30.2804C334.936 30.2804 335.606 30.101 336.171 29.7422C336.756 29.3836 337.209 28.8833 337.529 28.2413C337.869 27.5994 338.039 26.863 338.039 26.0322C338.039 25.2015 337.869 24.4746 337.529 23.8515C337.209 23.2095 336.756 22.7092 336.171 22.3505C335.606 21.9729 334.936 21.7841 334.163 21.7841C333.389 21.7841 332.711 21.9729 332.126 22.3505C331.541 22.7092 331.08 23.2095 330.74 23.8515C330.419 24.4746 330.259 25.2015 330.259 26.0322C330.259 26.863 330.419 27.5994 330.74 28.2413C331.08 28.8833 331.541 29.3836 332.126 29.7422C332.711 30.101 333.389 30.2804 334.163 30.2804Z" fill="#124835"/>
<path fill-rule="evenodd" clip-rule="evenodd" d="M313.273 39.3998C314.291 39.7963 315.394 39.9947 316.583 39.9947C318.072 39.9947 319.383 39.6926 320.515 39.0882C321.665 38.4842 322.571 37.6439 323.231 36.5677C323.891 35.5104 324.221 34.302 324.221 32.9426V18.3005H320.26V19.9247C319.794 19.3773 319.266 18.9492 318.676 18.6404C317.846 18.1872 316.875 17.9607 315.762 17.9607C314.348 17.9607 313.084 18.2817 311.971 18.9236C310.859 19.5656 309.982 20.4529 309.34 21.5858C308.699 22.6998 308.378 23.9837 308.378 25.4375C308.378 26.8913 308.699 28.1941 309.34 29.3458C309.982 30.4786 310.868 31.3754 311.999 32.0363C313.131 32.6782 314.413 32.9993 315.847 32.9993C316.96 32.9993 317.931 32.7915 318.761 32.3762C319.21 32.1408 319.616 31.8416 319.977 31.4786V32.9426C319.977 33.6035 319.836 34.1793 319.553 34.6701C319.289 35.1611 318.902 35.5292 318.393 35.7747C317.884 36.0391 317.28 36.1713 316.583 36.1713C315.696 36.1713 314.932 35.9635 314.291 35.5482C313.65 35.1328 313.225 34.5663 313.018 33.8489L309.085 35.2366C309.406 36.1996 309.925 37.0304 310.641 37.7289C311.377 38.4463 312.254 39.0034 313.273 39.3998ZM318.308 28.6944C317.78 28.9965 317.158 29.1475 316.441 29.1475C315.724 29.1475 315.083 28.9965 314.517 28.6944C313.97 28.3735 313.536 27.9392 313.216 27.3917C312.914 26.8441 312.763 26.2116 312.763 25.4942C312.763 24.7578 312.914 24.1158 313.216 23.5683C313.536 23.0019 313.97 22.5676 314.517 22.2655C315.083 21.9445 315.724 21.7841 316.441 21.7841C317.139 21.7841 317.752 21.9445 318.28 22.2655C318.808 22.5676 319.223 23.0019 319.525 23.5683C319.826 24.1158 319.977 24.7578 319.977 25.4942C319.977 26.2304 319.826 26.8725 319.525 27.42C319.242 27.9675 318.836 28.3923 318.308 28.6944Z" fill="#124835"/>
<path fill-rule="evenodd" clip-rule="evenodd" d="M299.089 34.1038C297.561 34.1038 296.166 33.7545 294.902 33.0558C293.657 32.3572 292.658 31.4038 291.903 30.1954C291.168 28.9682 290.8 27.5804 290.8 26.0322C290.8 24.4651 291.168 23.0774 291.903 21.869C292.658 20.6607 293.657 19.7072 294.902 19.0086C296.166 18.31 297.561 17.9607 299.089 17.9607C300.617 17.9607 302.003 18.31 303.248 19.0086C304.492 19.7072 305.482 20.6607 306.218 21.869C306.972 23.0774 307.349 24.4651 307.349 26.0322C307.349 27.5804 306.972 28.9682 306.218 30.1954C305.482 31.4038 304.492 32.3572 303.248 33.0558C302.003 33.7545 300.617 34.1038 299.089 34.1038ZM299.089 30.2804C299.862 30.2804 300.532 30.101 301.098 29.7422C301.682 29.3836 302.135 28.8833 302.455 28.2413C302.795 27.5994 302.965 26.863 302.965 26.0322C302.965 25.2015 302.795 24.4746 302.455 23.8515C302.135 23.2095 301.682 22.7092 301.098 22.3505C300.532 21.9729 299.862 21.7841 299.089 21.7841C298.316 21.7841 297.637 21.9729 297.052 22.3505C296.467 22.7092 296.005 23.2095 295.666 23.8515C295.345 24.4746 295.185 25.2015 295.185 26.0322C295.185 26.863 295.345 27.5994 295.666 28.2413C296.005 28.8833 296.467 29.3836 297.052 29.7422C297.637 30.101 298.316 30.2804 299.089 30.2804Z" fill="#124835"/>
<path d="M280.245 58.4762C281.193 58.9982 282.291 59.2593 283.54 59.2593C284.804 59.2593 285.902 58.9982 286.834 58.4762C287.782 57.9543 288.517 57.2424 289.038 56.3406C289.56 55.423 289.821 54.379 289.821 53.2085V41.2971H287.924V53.2085C287.924 54.0626 287.735 54.814 287.355 55.4626C286.992 56.0953 286.478 56.5936 285.815 56.9575C285.167 57.3056 284.409 57.4797 283.54 57.4797C282.671 57.4797 281.904 57.3056 281.24 56.9575C280.593 56.5936 280.079 56.0953 279.7 55.4626C279.336 54.814 279.155 54.0626 279.155 53.2085V41.2971H277.259V53.2085C277.259 54.379 277.519 55.423 278.041 56.3406C278.562 57.2424 279.297 57.9543 280.245 58.4762Z" fill="#124835"/>
<path d="M305.829 46.2561V58.9743H307.607V46.2561H305.829Z" fill="#124835"/>
<path d="M305.829 41.2971V43.9071H307.607V41.2971H305.829Z" fill="#124835"/>
<path d="M344.214 58.334C345.13 58.9509 346.197 59.2594 347.414 59.2594C348.298 59.2594 349.081 59.109 349.76 58.8085C350.439 58.4921 350.969 58.0571 351.348 57.5035C351.743 56.9497 351.941 56.3248 351.941 55.6288C351.941 54.7747 351.648 54.0312 351.064 53.3985C350.495 52.7656 349.697 52.299 348.67 51.9985L346.56 51.3816C346.339 51.3183 346.078 51.2234 345.778 51.0968C345.494 50.9703 345.241 50.7804 345.02 50.5273C344.799 50.2743 344.688 49.9342 344.688 49.5071C344.688 48.9534 344.901 48.4947 345.328 48.1308C345.754 47.767 346.323 47.5851 347.034 47.5851C347.761 47.5851 348.417 47.7907 349.002 48.202C349.602 48.5975 350.06 49.1511 350.376 49.863L351.893 49.1511C351.53 48.1546 350.906 47.3794 350.021 46.8258C349.152 46.2564 348.18 45.9717 347.105 45.9717C346.315 45.9717 345.596 46.1219 344.949 46.4224C344.301 46.7231 343.787 47.1501 343.408 47.7037C343.029 48.2574 342.839 48.906 342.839 49.6495C342.839 50.4403 343.1 51.1363 343.621 51.7374C344.143 52.3386 344.988 52.8052 346.157 53.1374L347.982 53.6594C348.235 53.7226 348.528 53.8255 348.859 53.9679C349.191 54.1102 349.484 54.3159 349.736 54.5848C349.989 54.8379 350.116 55.1859 350.116 55.6288C350.116 56.2299 349.855 56.7203 349.333 57.1C348.812 57.4639 348.172 57.6459 347.414 57.6459C346.623 57.6459 345.897 57.4166 345.233 56.9576C344.585 56.4988 344.08 55.8819 343.716 55.1069L342.223 55.8186C342.634 56.8785 343.297 57.717 344.214 58.334Z" fill="#124835"/>
<path d="M335.707 58.9742V46.256H337.485V47.632C337.769 47.218 338.14 46.8781 338.599 46.6119C339.215 46.2639 339.958 46.0898 340.827 46.0898H341.633V47.8694H340.519C339.603 47.8694 338.868 48.1543 338.315 48.7237C337.762 49.2931 337.485 50.0999 337.485 51.144V58.9742H335.707Z" fill="#124835"/>
<path fill-rule="evenodd" clip-rule="evenodd" d="M324.396 58.4051C325.36 58.9747 326.435 59.2594 327.62 59.2594C328.489 59.2594 329.279 59.117 329.99 58.8322C330.717 58.5317 331.341 58.1441 331.862 57.6695C332.384 57.179 332.771 56.6491 333.024 56.0797L331.507 55.2729C331.112 55.9373 330.598 56.4909 329.966 56.9338C329.334 57.3769 328.552 57.5984 327.62 57.5984C326.814 57.5984 326.055 57.3927 325.344 56.9813C324.649 56.57 324.096 55.9927 323.685 55.2492C323.366 54.6357 323.201 53.9397 323.192 53.1611H333.19C333.221 52.9555 333.245 52.7577 333.261 52.5679C333.276 52.3622 333.284 52.1804 333.284 52.0221C333.284 51.2629 333.15 50.5273 332.881 49.8155C332.613 49.0878 332.226 48.4393 331.72 47.8699C331.214 47.2846 330.598 46.8258 329.871 46.4936C329.16 46.1456 328.347 45.9717 327.43 45.9717C326.277 45.9717 325.234 46.2564 324.302 46.8258C323.385 47.3954 322.658 48.1783 322.121 49.1749C321.584 50.1556 321.315 51.2867 321.315 52.5679C321.315 53.8492 321.592 54.9961 322.145 56.0085C322.698 57.0209 323.448 57.8199 324.396 58.4051ZM331.379 51.5002H323.22C323.279 50.9392 323.426 50.4331 323.662 49.9815C324.041 49.2382 324.562 48.6608 325.226 48.2495C325.905 47.8382 326.64 47.6326 327.43 47.6326C328.22 47.6326 328.931 47.8382 329.563 48.2495C330.195 48.645 330.677 49.1907 331.009 49.8867C331.259 50.3754 331.382 50.9134 331.379 51.5002Z" fill="#124835"/>
<path d="M313.924 58.9743L308.97 46.2561H310.961L314.814 56.5551L318.688 46.2561H320.703L315.702 58.9743H313.924Z" fill="#124835"/>
<path d="M292.953 58.9747V46.2564H294.731V47.8318C295.027 47.3752 295.406 46.9925 295.869 46.6834C296.596 46.2089 297.433 45.9717 298.381 45.9717C299.282 45.9717 300.088 46.1773 300.799 46.5886C301.526 46.9999 302.094 47.5693 302.505 48.297C302.932 49.0087 303.145 49.8155 303.145 50.7171V58.9747H301.368V51.4052C301.368 50.6302 301.225 49.9737 300.941 49.4358C300.672 48.8981 300.285 48.4868 299.78 48.202C299.29 47.9015 298.721 47.7512 298.073 47.7512C297.425 47.7512 296.849 47.9015 296.343 48.202C295.837 48.4868 295.442 48.906 295.158 49.4596C294.873 49.9975 294.731 50.646 294.731 51.4052V58.9747H292.953Z" fill="#124835"/>
</g>
</g>
</g>
<g clip-path="url(#clip7_35_505)">
<g clip-path="url(#clip8_35_505)">
<g clip-path="url(#clip9_35_505)">
<mask id="mask1_35_505" style="mask-type:luminance" maskUnits="userSpaceOnUse" x="395" y="11" width="220" height="55">
<path d="M614.047 11.7214H395.174V65.137H614.047V11.7214Z" fill="white"/>
</mask>
<g mask="url(#mask1_35_505)">
<path d="M459.373 49.4416H474.945V44.7515H464.908V27.0852H459.373V49.4416Z" fill="#3C2B1F"/>
<path d="M484.17 46.3143C481.95 46.3143 480.793 44.3758 480.793 41.468C480.793 38.56 481.95 36.5902 484.17 36.5902C486.39 36.5902 487.579 38.56 487.579 41.468C487.579 44.3758 486.39 46.3143 484.17 46.3143ZM484.202 49.9414C489.361 49.9414 492.738 46.2831 492.738 41.468C492.738 36.6527 489.361 32.9944 484.202 32.9944C479.074 32.9944 475.634 36.6527 475.634 41.468C475.634 46.2831 479.074 49.9414 484.202 49.9414Z" fill="#3C2B1F"/>
<path d="M501.668 54.9755C504.044 54.9755 506.139 54.4441 507.546 53.1933C508.828 52.0365 509.672 50.2854 509.672 47.8778V33.4323H504.794V35.152H504.732C503.794 33.8074 502.356 32.9631 500.229 32.9631C496.258 32.9631 493.507 36.2776 493.507 40.9677C493.507 45.8767 496.852 48.5657 500.448 48.5657C502.387 48.5657 503.606 47.7841 504.544 46.721H504.669V48.3156C504.669 50.2541 503.763 51.3799 501.605 51.3799C499.917 51.3799 499.072 50.6606 498.791 49.8164H493.851C494.351 53.1621 497.259 54.9755 501.668 54.9755ZM501.636 44.7824C499.729 44.7824 498.478 43.2189 498.478 40.8113C498.478 38.3725 499.729 36.8091 501.636 36.8091C503.763 36.8091 504.888 38.6226 504.888 40.7801C504.888 43.0314 503.856 44.7824 501.636 44.7824Z" fill="#3C2B1F"/>
<path d="M519.702 46.3143C517.482 46.3143 516.325 44.3758 516.325 41.468C516.325 38.56 517.482 36.5902 519.702 36.5902C521.922 36.5902 523.11 38.56 523.11 41.468C523.11 44.3758 521.922 46.3143 519.702 46.3143ZM519.733 49.9414C524.892 49.9414 528.268 46.2831 528.268 41.468C528.268 36.6527 524.892 32.9944 519.733 32.9944C514.605 32.9944 511.166 36.6527 511.166 41.468C511.166 46.2831 514.605 49.9414 519.733 49.9414Z" fill="#3C2B1F"/>
<path d="M529.757 49.4416H534.854V33.4326H529.757V49.4416ZM529.757 31.2126H534.854V27.0852H529.757V31.2126Z" fill="#3C2B1F"/>
<path d="M428.278 14.2975L423.154 12.9246L418.836 29.0399L414.938 14.4909L409.814 15.8638L414.026 31.583L403.535 21.0919L399.784 24.843L411.291 36.3505L396.96 32.5105L395.587 37.6346L411.245 41.8301C411.066 41.0569 410.971 40.2513 410.971 39.4235C410.971 33.5639 415.721 28.8138 421.581 28.8138C427.441 28.8138 432.191 33.5639 432.191 39.4235C432.191 40.2459 432.097 41.0466 431.92 41.8153L446.15 45.6282L447.523 40.5043L431.803 36.292L446.134 32.4518L444.761 27.3278L429.042 31.5399L439.533 21.0488L435.782 17.2978L424.434 28.6457L428.278 14.2975Z" fill="#F97316"/>
<path d="M431.906 41.8748C431.467 43.732 430.539 45.4006 429.267 46.7374L439.576 57.0468L443.327 53.2957L431.906 41.8748Z" fill="#F97316"/>
<path d="M429.162 46.8452C427.874 48.1606 426.247 49.1424 424.422 49.6482L428.173 63.6483L433.297 62.2752L429.162 46.8452Z" fill="#F97316"/>
<path d="M424.23 49.6993C423.383 49.917 422.496 50.0328 421.581 50.0328C420.601 50.0328 419.652 49.8999 418.751 49.6511L414.996 63.664L420.12 65.0369L424.23 49.6993Z" fill="#F97316"/>
<path d="M418.57 49.5993C416.773 49.0683 415.174 48.0741 413.912 46.7549L403.578 57.0894L407.329 60.8406L418.57 49.5993Z" fill="#F97316"/>
<path d="M413.826 46.6638C412.586 45.3363 411.683 43.69 411.253 41.8613L396.976 45.6868L398.349 50.8108L413.826 46.6638Z" fill="#F97316"/>
</g>
</g>
</g>
</g>
<g clip-path="url(#clip10_35_505)">
<g clip-path="url(#clip11_35_505)">
<path d="M620.608 35.8993C620.019 36.4915 619.568 37.2063 619.288 37.9925C619.007 38.7789 618.903 39.6175 618.983 40.4486L618.955 40.4206C619.038 41.399 618.906 42.3835 618.569 43.3057C618.231 44.2276 617.697 45.0649 617.003 45.7592C616.309 46.4534 615.471 46.9878 614.549 47.3248C613.627 47.6621 612.642 47.7941 611.664 47.7115L611.692 47.7394C610.522 47.6305 609.347 47.8852 608.326 48.4687C607.306 49.0522 606.491 49.9361 605.991 51.0001C605.492 52.0641 605.333 53.256 605.536 54.4138C605.739 55.5714 606.294 56.6383 607.125 57.4689C607.957 58.2996 609.024 58.8536 610.182 59.0554C611.34 59.2573 612.531 59.097 613.595 58.5968C614.658 58.0963 615.542 57.2802 616.124 56.2595C616.707 55.2387 616.96 54.0632 616.851 52.893L616.88 52.921C616.797 51.9428 616.929 50.9582 617.266 50.0361C617.604 49.114 618.138 48.2767 618.832 47.5824C619.527 46.8882 620.364 46.3538 621.286 46.0168C622.208 45.6795 623.192 45.5475 624.171 45.6301L624.141 45.6022C625.097 45.6881 626.059 45.5313 626.939 45.1465C627.818 44.7616 628.586 44.1609 629.171 43.4004C629.756 42.6398 630.14 41.7435 630.287 40.7952C630.434 39.8466 630.338 38.8764 630.01 37.9743C629.682 37.0724 629.132 36.2678 628.41 35.6352C627.688 35.0026 626.819 34.5624 625.881 34.3555C624.944 34.1486 623.97 34.1816 623.049 34.4514C622.128 34.7213 621.29 35.2193 620.612 35.8993H620.608Z" fill="#1B1D1E"/>
<path d="M609.149 44.077L609.12 44.049C609.951 44.1328 610.791 44.0307 611.578 43.7502C612.366 43.4697 613.081 43.0178 613.672 42.4271C614.263 41.8365 614.715 41.1217 614.996 40.3347C615.278 39.5477 615.38 38.7081 615.297 37.8765L615.327 37.9044C615.244 36.9262 615.376 35.9417 615.713 35.0195C616.05 34.0975 616.585 33.2602 617.279 32.5659C617.973 31.8718 618.81 31.3374 619.732 31.0002C620.655 30.663 621.639 30.5311 622.617 30.6137L622.588 30.5858C623.758 30.6957 624.934 30.4419 625.955 29.859C626.976 29.2762 627.792 28.3926 628.292 27.3288C628.792 26.2651 628.952 25.0729 628.749 23.915C628.547 22.7571 627.993 21.6897 627.161 20.8585C626.33 20.0273 625.263 19.4728 624.105 19.2705C622.947 19.0682 621.755 19.2281 620.691 19.7283C619.627 20.2284 618.744 21.0445 618.161 22.0653C617.578 23.0861 617.324 24.2618 617.434 25.4322L617.406 25.4027C617.489 26.381 617.357 27.3657 617.02 28.2879C616.683 29.21 616.149 30.0475 615.455 30.7419C614.76 31.4359 613.923 31.9704 613.001 32.3075C612.079 32.6445 611.094 32.7763 610.116 32.6934L610.143 32.7229C609.312 32.6393 608.472 32.7413 607.685 33.0218C606.898 33.3021 606.183 33.7541 605.592 34.3448C605 34.9356 604.548 35.6503 604.267 36.4374C603.986 37.2244 603.883 38.0638 603.966 38.8954L603.938 38.8675C604.021 39.8457 603.888 40.8301 603.551 41.7522C603.214 42.674 602.68 43.5113 601.985 44.2055C601.291 44.8995 600.454 45.4339 599.532 45.7712C598.61 46.1085 597.626 46.2406 596.648 46.1583L596.676 46.1863C595.505 46.0763 594.329 46.33 593.309 46.913C592.288 47.4959 591.472 48.3793 590.972 49.4431C590.471 50.5069 590.312 51.6991 590.514 52.857C590.716 54.015 591.271 55.0823 592.102 55.9134C592.933 56.7447 594 57.2992 595.158 57.5014C596.316 57.7037 597.508 57.5438 598.572 57.0437C599.636 56.5435 600.519 55.7275 601.102 54.7067C601.685 53.6858 601.939 52.5101 601.829 51.3399L601.859 51.3678C601.776 50.3894 601.908 49.4049 602.245 48.4828C602.582 47.5609 603.117 46.7235 603.811 46.0292C604.505 45.3351 605.342 44.8006 606.264 44.4636C607.187 44.1264 608.171 43.9944 609.149 44.077Z" fill="#1B1D1E"/>
<path d="M598.74 40.9595C599.329 40.3675 599.779 39.6527 600.06 38.8663C600.34 38.0799 600.444 37.2411 600.363 36.4102L600.392 36.4382C600.31 35.4596 600.442 34.4747 600.779 33.5524C601.117 32.6302 601.651 31.7926 602.346 31.0983C603.04 30.404 603.878 29.8698 604.801 29.5328C605.723 29.1958 606.708 29.0643 607.686 29.1473L607.657 29.1194C608.827 29.229 610.002 28.975 611.022 28.3922C612.043 27.8094 612.858 26.9261 613.358 25.8626C613.858 24.7992 614.018 23.6075 613.816 22.45C613.613 21.2925 613.059 20.2256 612.228 19.3947C611.397 18.5638 610.33 18.0094 609.173 17.8072C608.015 17.6049 606.823 17.7646 605.76 18.2645C604.697 18.7643 603.813 19.58 603.23 20.6003C602.648 21.6206 602.394 22.7959 602.503 23.9658L602.475 23.9379C602.558 24.9161 602.426 25.9007 602.089 26.8227C601.752 27.7448 601.217 28.5821 600.523 29.2764C599.829 29.9706 598.991 30.5049 598.069 30.842C597.147 31.1793 596.163 31.3113 595.185 31.2287L595.212 31.2566C594.257 31.1709 593.295 31.3279 592.415 31.7129C591.536 32.098 590.769 32.6988 590.184 33.4596C589.598 34.2202 589.215 35.1163 589.068 36.0648C588.922 37.0133 589.017 37.9834 589.345 38.8853C589.673 39.7872 590.224 40.5917 590.945 41.2241C591.667 41.8568 592.537 42.2967 593.474 42.5036C594.411 42.7104 595.386 42.6773 596.307 42.4075C597.228 42.1375 598.066 41.6396 598.743 40.9595H598.74Z" fill="#1B1D1E"/>
<path d="M646.854 25.4678H651.467V47.9164H646.854V25.4678Z" fill="#1B1D1E"/>
<path d="M654.079 40.2297C654.073 38.6165 654.545 37.0375 655.437 35.693C656.329 34.3486 657.599 33.2989 659.088 32.6772C660.576 32.0552 662.216 31.8892 663.799 32.2C665.382 32.5108 666.837 33.2843 667.98 34.4228C669.123 35.5612 669.903 37.0132 670.22 38.5951C670.537 40.1769 670.377 41.8172 669.761 43.3083C669.146 44.7993 668.101 46.0741 666.76 46.9709C665.419 47.8679 663.842 48.3468 662.229 48.3468C661.158 48.359 660.096 48.1576 659.103 47.7544C658.111 47.3511 657.209 46.7542 656.451 45.9987C655.692 45.2429 655.091 44.3433 654.684 43.3529C654.277 42.3624 654.071 41.3006 654.079 40.2297ZM665.766 40.2297C665.746 39.5343 665.523 38.8601 665.122 38.2911C664.722 37.7223 664.163 37.284 663.515 37.0313C662.867 36.7784 662.158 36.7222 661.479 36.8697C660.799 37.0173 660.178 37.3618 659.692 37.8606C659.207 38.3592 658.88 38.9897 658.752 39.6734C658.623 40.357 658.699 41.0634 658.969 41.7043C659.24 42.3451 659.694 42.8918 660.273 43.2763C660.853 43.6607 661.533 43.8657 662.229 43.8657C662.705 43.8785 663.179 43.7923 663.621 43.6127C664.062 43.4332 664.462 43.1642 664.794 42.8226C665.126 42.4809 665.384 42.0741 665.551 41.6279C665.719 41.1816 665.792 40.7055 665.766 40.2297Z" fill="#1B1D1E"/>
<path d="M688.764 32.5412V47.1414C688.764 52.3074 684.735 54.4913 680.646 54.4913C679.206 54.599 677.764 54.3082 676.478 53.6507C675.193 52.993 674.113 51.9942 673.358 50.7636L677.294 48.488C677.611 49.1295 678.117 49.6588 678.743 50.005C679.37 50.3509 680.087 50.4976 680.799 50.4249C681.254 50.4879 681.718 50.4479 682.155 50.3076C682.593 50.1674 682.993 49.9305 683.327 49.6147C683.661 49.2988 683.919 48.912 684.083 48.4828C684.247 48.0536 684.312 47.5931 684.274 47.1352V45.7295C683.734 46.3905 683.046 46.9156 682.266 47.2628C681.486 47.6099 680.636 47.7694 679.783 47.7285C677.755 47.6645 675.83 46.8137 674.418 45.3558C673.005 43.8981 672.216 41.948 672.216 39.9182C672.216 37.8885 673.005 35.9382 674.418 34.4805C675.83 33.0226 677.755 32.1718 679.783 32.1078C680.636 32.0669 681.486 32.2265 682.266 32.5737C683.046 32.9208 683.734 33.446 684.274 34.1068V32.538L688.764 32.5412ZM684.275 39.9206C684.307 39.1771 684.114 38.4413 683.724 37.8081C683.333 37.1747 682.762 36.6729 682.083 36.3671C681.405 36.0611 680.651 35.9652 679.918 36.0917C679.184 36.2181 678.506 36.5611 677.969 37.0765C677.432 37.5919 677.062 38.2561 676.906 38.9836C676.75 39.7111 676.815 40.4688 677.094 41.1589C677.372 41.8489 677.85 42.4401 678.467 42.8561C679.084 43.272 679.811 43.4938 680.555 43.4929C681.04 43.5268 681.527 43.4587 681.983 43.2932C682.44 43.1276 682.857 42.868 683.208 42.5316C683.558 42.195 683.834 41.7888 684.018 41.3391C684.202 40.8894 684.29 40.4062 684.275 39.9206Z" fill="#1B1D1E"/>
<path d="M691.377 40.2297C691.37 38.6165 691.843 37.0375 692.734 35.693C693.626 34.3486 694.896 33.2989 696.385 32.6772C697.874 32.0552 699.513 31.8892 701.096 32.2C702.68 32.5108 704.135 33.2843 705.277 34.4228C706.42 35.5612 707.199 37.0132 707.517 38.5951C707.834 40.1769 707.675 41.8172 707.059 43.3083C706.443 44.7993 705.399 46.0741 704.058 46.9709C702.717 47.8679 701.14 48.3468 699.526 48.3468C698.456 48.359 697.393 48.1576 696.401 47.7544C695.409 47.3511 694.507 46.7542 693.748 45.9987C692.989 45.2429 692.389 44.3433 691.982 43.3529C691.574 42.3624 691.369 41.3006 691.377 40.2297ZM703.063 40.2297C703.044 39.5343 702.821 38.8601 702.42 38.2911C702.019 37.7223 701.46 37.284 700.812 37.0313C700.164 36.7784 699.456 36.7222 698.776 36.8697C698.096 37.0173 697.475 37.3618 696.99 37.8606C696.505 38.3592 696.178 38.9897 696.049 39.6734C695.92 40.357 695.996 41.0634 696.267 41.7043C696.538 42.3451 696.991 42.8918 697.571 43.2763C698.151 43.6607 698.831 43.8657 699.526 43.8657C700.003 43.8785 700.477 43.7923 700.918 43.6127C701.36 43.4332 701.759 43.1642 702.091 42.8226C702.423 42.4809 702.682 42.0741 702.849 41.6279C703.016 41.1816 703.088 40.7055 703.063 40.2297Z" fill="#1B1D1E"/>
<path d="M709.827 28.42C709.827 27.8726 709.989 27.3374 710.293 26.8823C710.597 26.4271 711.031 26.0723 711.536 25.8628C712.042 25.6533 712.599 25.5985 713.136 25.7053C713.672 25.8121 714.166 26.0757 714.552 26.4628C714.939 26.8499 715.204 27.343 715.31 27.88C715.417 28.4168 715.362 28.9734 715.152 29.4791C714.943 29.9849 714.588 30.4172 714.133 30.7214C713.677 31.0255 713.143 31.1878 712.595 31.1878C711.864 31.1804 711.164 30.8867 710.646 30.3691C710.129 29.8515 709.834 29.1518 709.827 28.42ZM710.293 32.5406H714.908V47.9175H710.288L710.293 32.5406Z" fill="#1B1D1E"/>
<path d="M734.827 40.2295C734.88 41.2458 734.732 42.2625 734.391 43.2213C734.049 44.1802 733.523 45.062 732.839 45.8164C732.157 46.5707 731.331 47.1826 730.41 47.6169C729.49 48.0511 728.493 48.2991 727.477 48.3466C726.622 48.3932 725.767 48.2491 724.975 47.9247C724.183 47.6 723.473 47.1033 722.897 46.4704V54.0671H718.284V32.5411H722.897V33.9856C723.473 33.3531 724.184 32.8568 724.976 32.5326C725.768 32.2082 726.622 32.0643 727.477 32.1109C728.493 32.1583 729.491 32.4062 730.411 32.8404C731.332 33.2747 732.158 33.8867 732.84 34.6412C733.524 35.3958 734.051 36.278 734.392 37.2371C734.732 38.196 734.88 39.2131 734.827 40.2295ZM730.213 40.2295C730.196 39.5099 729.965 38.8116 729.553 38.2219C729.139 37.6322 728.562 37.1774 727.892 36.9146C727.222 36.6517 726.489 36.5922 725.786 36.7438C725.081 36.8953 724.438 37.2509 723.936 37.7663C723.432 38.2818 723.093 38.9339 722.96 39.6413C722.826 40.3487 722.904 41.0796 723.183 41.7429C723.463 42.4064 723.932 42.9724 724.532 43.3704C725.132 43.7684 725.836 43.9807 726.556 43.9805C727.05 44.0026 727.543 43.9198 728.004 43.7377C728.464 43.5559 728.88 43.2786 729.224 42.9245C729.57 42.5703 729.837 42.1472 730.007 41.6827C730.177 41.2183 730.248 40.7229 730.213 40.2295Z" fill="#1B1D1E"/>
</g>
</g>
<g clip-path="url(#clip12_35_505)">
<g clip-path="url(#clip13_35_505)">
<g clip-path="url(#clip14_35_505)">
<path d="M803.822 24.7988C804.53 24.0852 805.493 23.6843 806.495 23.6843C811.003 23.6843 815.252 23.6843 819.436 23.6843C827.851 23.6843 832.065 33.9309 826.114 39.9235L813.153 52.977C812.558 53.5762 811.541 53.1518 811.541 52.3043V40.8073L813.038 39.2988C814.229 38.1002 813.386 36.0509 811.703 36.0509H792.649L803.822 24.7988Z" fill="#3A04FF"/>
<path d="M800.368 52.0598C799.659 52.7734 798.697 53.1743 797.695 53.1743C793.187 53.1743 788.938 53.1743 784.754 53.1743C776.339 53.1742 772.125 42.9277 778.075 36.935L791.037 23.8816C791.632 23.2823 792.649 23.7068 792.649 24.5543L792.649 36.0512L791.151 37.5598C789.961 38.7584 790.804 40.8077 792.487 40.8077L811.541 40.8076L800.368 52.0598Z" fill="#3A04FF"/>
<path d="M914.656 31.0596V46.8568H919.394V31.0596H914.656Z" fill="#110051"/>
<path d="M914.987 28.4314C915.547 28.9794 916.231 29.2535 917.041 29.2535C917.85 29.2535 918.531 28.9794 919.079 28.4314C919.639 27.8832 919.92 27.2176 919.92 26.4346C919.92 25.632 919.639 24.9616 919.079 24.4233C918.531 23.8751 917.85 23.6011 917.041 23.6011C916.231 23.6011 915.547 23.8751 914.987 24.4233C914.427 24.9616 914.146 25.632 914.146 26.4346C914.146 27.2176 914.427 27.8832 914.987 28.4314Z" fill="#110051"/>
<path fill-rule="evenodd" clip-rule="evenodd" d="M904.397 47.0912C902.847 47.0912 901.432 46.7438 900.153 46.0488C898.883 45.354 897.869 44.3947 897.108 43.1712C896.359 41.9478 895.985 40.5384 895.985 38.943C895.985 37.3475 896.359 35.9382 897.108 34.7146C897.869 33.4913 898.883 32.5369 900.153 31.8517C901.432 31.1666 902.847 30.824 904.397 30.824C905.976 30.824 907.4 31.1666 908.67 31.8517C909.939 32.5369 910.944 33.4913 911.683 34.7146C912.433 35.9382 912.808 37.3475 912.808 38.943C912.808 40.5384 912.433 41.9478 911.683 43.1712C910.944 44.3947 909.935 45.354 908.655 46.0488C907.385 46.7438 905.967 47.0912 904.397 47.0912ZM904.397 43.1272C905.136 43.1272 905.801 42.9511 906.391 42.5987C906.981 42.2463 907.445 41.7569 907.785 41.1305C908.125 40.5042 908.295 39.775 908.295 38.943C908.295 38.1404 908.13 37.4259 907.8 36.7995C907.47 36.173 907.015 35.6837 906.435 35.3313C905.856 34.9692 905.185 34.7881 904.427 34.7881C903.677 34.7881 903.002 34.9643 902.402 35.3166C901.812 35.6592 901.347 36.1436 901.008 36.7702C900.668 37.3965 900.497 38.1208 900.497 38.943C900.497 39.775 900.668 40.5042 901.008 41.1305C901.357 41.7569 901.827 42.2463 902.417 42.5987C903.007 42.9511 903.666 43.1272 904.397 43.1272Z" fill="#110051"/>
<path fill-rule="evenodd" clip-rule="evenodd" d="M881.961 52.7735C883.08 53.0964 884.31 53.2579 885.649 53.2579C886.899 53.2579 888.043 53.1013 889.083 52.7881C890.123 52.4848 891.022 52.0247 891.781 51.408C892.551 50.7915 893.146 50.0281 893.567 49.1177C893.986 48.2075 894.196 47.1505 894.196 45.9465V31.0448H889.893V32.5863H889.802C889.516 32.3179 889.207 32.0732 888.873 31.8522C887.833 31.1573 886.619 30.8098 885.229 30.8098C884.03 30.8098 882.875 31.1083 881.765 31.7054C880.656 32.2927 879.747 33.1736 879.036 34.3481C878.337 35.5128 877.987 36.976 877.987 38.7379C877.987 40.0592 878.192 41.2093 878.601 42.1881C879.011 43.1668 879.556 43.984 880.236 44.6399C880.926 45.2858 881.69 45.7703 882.53 46.0933C883.37 46.4065 884.214 46.5631 885.064 46.5631C886.434 46.5631 887.653 46.1961 888.723 45.4621C889.061 45.2266 889.378 44.9673 889.67 44.6839H889.742V46.2108C889.742 46.9644 889.493 47.5713 888.993 48.0313C888.493 48.5011 887.888 48.8437 887.179 49.059C886.469 49.2743 885.784 49.382 885.124 49.382C884.355 49.382 883.595 49.2597 882.845 49.0149C882.105 48.78 881.456 48.4962 880.896 48.1635L879.337 51.8045C879.977 52.1372 880.851 52.4603 881.961 52.7735ZM888.138 42.2614C887.589 42.6139 886.954 42.79 886.234 42.79C885.524 42.79 884.899 42.6139 884.36 42.2614C883.82 41.8993 883.395 41.405 883.085 40.7786C882.776 40.1424 882.62 39.4132 882.62 38.5911C882.62 37.7689 882.776 37.0544 883.085 36.4476C883.405 35.8407 883.845 35.3757 884.405 35.0528C884.965 34.7199 885.599 34.5536 886.309 34.5536C887.018 34.5536 887.644 34.7151 888.183 35.0381C888.723 35.3611 889.148 35.826 889.458 36.4328C889.767 37.03 889.922 37.7493 889.922 38.5911C889.922 39.4229 889.762 40.1572 889.443 40.7933C889.123 41.4197 888.688 41.9091 888.138 42.2614Z" fill="#110051"/>
<path fill-rule="evenodd" clip-rule="evenodd" d="M868.372 47.0912C866.822 47.0912 865.408 46.7438 864.128 46.0488C862.859 45.354 861.844 44.3947 861.085 43.1712C860.335 41.9478 859.96 40.5384 859.96 38.943C859.96 37.3475 860.335 35.9382 861.085 34.7146C861.844 33.4913 862.859 32.5369 864.128 31.8517C865.408 31.1666 866.822 30.824 868.372 30.824C869.951 30.824 871.376 31.1666 872.645 31.8517C873.914 32.5369 874.919 33.4913 875.659 34.7146C876.408 35.9382 876.784 37.3475 876.784 38.943C876.784 40.5384 876.408 41.9478 875.659 43.1712C874.919 44.3947 873.909 45.354 872.63 46.0488C871.36 46.7438 869.941 47.0912 868.372 47.0912ZM868.372 43.1272C869.112 43.1272 869.776 42.9511 870.366 42.5987C870.955 42.2463 871.42 41.7569 871.761 41.1305C872.1 40.5042 872.27 39.775 872.27 38.943C872.27 38.1404 872.105 37.4259 871.775 36.7995C871.445 36.173 870.991 35.6837 870.411 35.3313C869.831 34.9692 869.161 34.7881 868.402 34.7881C867.652 34.7881 866.977 34.9643 866.377 35.3166C865.787 35.6592 865.322 36.1436 864.983 36.7702C864.643 37.3965 864.473 38.1208 864.473 38.943C864.473 39.775 864.643 40.5042 864.983 41.1305C865.333 41.7569 865.802 42.2463 866.392 42.5987C866.982 42.9511 867.641 43.1272 868.372 43.1272Z" fill="#110051"/>
<path d="M847.151 25.2158V46.8564H860.031V42.5694H852.069V25.2158H847.151Z" fill="#110051"/>
</g>
</g>
</g>
<g clip-path="url(#clip15_35_505)">
<g clip-path="url(#clip16_35_505)">
<mask id="mask2_35_505" style="mask-type:luminance" maskUnits="userSpaceOnUse" x="966" y="6" width="218" height="65">
<path d="M1183.74 6.22314H966.343V70.636H1183.74V6.22314Z" fill="white"/>
</mask>
<g mask="url(#mask2_35_505)">
<path fill-rule="evenodd" clip-rule="evenodd" d="M973.631 15.8012V12.6646H966.489V41.5663C966.489 54.0635 976.582 64.1948 989.033 64.1948C1001.48 64.1948 1011.58 54.0635 1011.58 41.5663V12.6646H1004.43V15.8012H992.381V12.6646H985.239V15.8012H973.631ZM985.239 56.5526C978.63 54.872 973.725 48.9037 973.633 41.7703C974.394 41.9553 975.142 42.1996 975.869 42.5019C977.71 43.2676 979.383 44.3896 980.793 45.8045C982.202 47.2191 983.32 48.8985 984.083 50.747C984.843 52.5878 985.235 54.5603 985.239 56.5526ZM985.844 40.7349C986.962 41.8576 987.956 43.0935 988.81 44.4209C989.664 43.0935 990.658 41.8576 991.776 40.7349C992.895 39.6121 994.126 38.6147 995.449 37.7575C994.126 36.9002 992.895 35.9028 991.776 34.7801C990.658 33.6573 989.664 32.4214 988.81 31.094C987.956 32.4214 986.962 33.6573 985.844 34.7801C984.725 35.9028 983.494 36.9002 982.171 37.7575C983.494 38.6147 984.725 39.6121 985.844 40.7349ZM1004.43 41.6687C1004.39 49.0069 999.246 55.1316 992.381 56.659V56.5772C992.381 54.5765 992.774 52.5954 993.537 50.747C994.299 48.8985 995.418 47.2191 996.827 45.8045C998.236 44.3896 999.91 43.2676 1001.75 42.5019C1002.62 42.1407 1003.52 41.8621 1004.43 41.6687ZM984.697 22.9706C984.53 23.5808 984.325 24.1809 984.083 24.7679C983.32 26.6164 982.202 28.2958 980.793 29.7106C979.383 31.1253 977.71 32.2473 975.869 33.013C975.141 33.3155 974.393 33.5599 973.631 33.7449V22.9706H984.697ZM1004.43 33.8464V22.9706H992.923C993.089 23.5808 993.294 24.1809 993.537 24.7679C994.299 26.6164 995.418 28.2958 996.827 29.7106C998.236 31.1253 999.91 32.2473 1001.75 33.013C1002.62 33.3744 1003.52 33.653 1004.43 33.8464Z" fill="#09C382"/>
<path d="M1037.34 12.6646V33.7639H1050.64V29.9406H1041.73V12.6646H1037.34Z" fill="#124835"/>
<path d="M1104.31 18.3003V33.7638H1108.55V18.3003H1104.31Z" fill="#124835"/>
<path d="M1104.31 12.6646V16.9128H1108.55V12.6646H1104.31Z" fill="#124835"/>
<path fill-rule="evenodd" clip-rule="evenodd" d="M1094.39 34.1038C1092.87 34.1038 1091.47 33.7545 1090.21 33.0558C1088.96 32.3572 1087.96 31.4038 1087.21 30.1954C1086.47 28.9682 1086.11 27.5804 1086.11 26.0322C1086.11 24.4651 1086.47 23.0774 1087.21 21.869C1087.96 20.6607 1088.96 19.7072 1090.21 19.0086C1091.47 18.31 1092.87 17.9607 1094.39 17.9607C1095.92 17.9607 1097.31 18.31 1098.55 19.0086C1099.8 19.7072 1100.79 20.6607 1101.52 21.869C1102.28 23.0774 1102.66 24.4651 1102.66 26.0322C1102.66 27.5804 1102.28 28.9682 1101.52 30.1954C1100.79 31.4038 1099.8 32.3572 1098.55 33.0558C1097.31 33.7545 1095.92 34.1038 1094.39 34.1038ZM1094.39 30.2804C1095.17 30.2804 1095.84 30.101 1096.4 29.7422C1096.99 29.3836 1097.44 28.8833 1097.76 28.2413C1098.1 27.5994 1098.27 26.863 1098.27 26.0322C1098.27 25.2015 1098.1 24.4746 1097.76 23.8515C1097.44 23.2095 1096.99 22.7092 1096.4 22.3505C1095.84 21.9729 1095.17 21.7841 1094.39 21.7841C1093.62 21.7841 1092.94 21.9729 1092.36 22.3505C1091.77 22.7092 1091.31 23.2095 1090.97 23.8515C1090.65 24.4746 1090.49 25.2015 1090.49 26.0322C1090.49 26.863 1090.65 27.5994 1090.97 28.2413C1091.31 28.8833 1091.77 29.3836 1092.36 29.7422C1092.94 30.101 1093.62 30.2804 1094.39 30.2804Z" fill="#124835"/>
<path fill-rule="evenodd" clip-rule="evenodd" d="M1073.5 39.3998C1074.52 39.7963 1075.63 39.9947 1076.81 39.9947C1078.3 39.9947 1079.62 39.6926 1080.75 39.0882C1081.9 38.4842 1082.8 37.6439 1083.46 36.5677C1084.12 35.5104 1084.45 34.302 1084.45 32.9426V18.3005H1080.49V19.9247C1080.03 19.3773 1079.5 18.9492 1078.91 18.6404C1078.08 18.1872 1077.11 17.9607 1075.99 17.9607C1074.58 17.9607 1073.32 18.2817 1072.2 18.9236C1071.09 19.5656 1070.21 20.4529 1069.57 21.5858C1068.93 22.6998 1068.61 23.9837 1068.61 25.4375C1068.61 26.8913 1068.93 28.1941 1069.57 29.3458C1070.21 30.4786 1071.1 31.3754 1072.23 32.0363C1073.36 32.6782 1074.65 32.9993 1076.08 32.9993C1077.19 32.9993 1078.16 32.7915 1078.99 32.3762C1079.44 32.1408 1079.85 31.8416 1080.21 31.4786V32.9426C1080.21 33.6035 1080.07 34.1793 1079.79 34.6701C1079.52 35.1611 1079.13 35.5292 1078.63 35.7747C1078.12 36.0391 1077.51 36.1713 1076.81 36.1713C1075.93 36.1713 1075.16 35.9635 1074.52 35.5482C1073.88 35.1328 1073.46 34.5663 1073.25 33.8489L1069.32 35.2366C1069.64 36.1996 1070.16 37.0304 1070.87 37.7289C1071.61 38.4463 1072.49 39.0034 1073.5 39.3998ZM1078.54 28.6944C1078.01 28.9965 1077.39 29.1475 1076.67 29.1475C1075.96 29.1475 1075.31 28.9965 1074.75 28.6944C1074.2 28.3735 1073.77 27.9392 1073.45 27.3917C1073.15 26.8441 1073 26.2116 1073 25.4942C1073 24.7578 1073.15 24.1158 1073.45 23.5683C1073.77 23.0019 1074.2 22.5676 1074.75 22.2655C1075.31 21.9445 1075.96 21.7841 1076.67 21.7841C1077.37 21.7841 1077.98 21.9445 1078.51 22.2655C1079.04 22.5676 1079.45 23.0019 1079.76 23.5683C1080.06 24.1158 1080.21 24.7578 1080.21 25.4942C1080.21 26.2304 1080.06 26.8725 1079.76 27.42C1079.47 27.9675 1079.07 28.3923 1078.54 28.6944Z" fill="#124835"/>
<path fill-rule="evenodd" clip-rule="evenodd" d="M1059.32 34.1038C1057.79 34.1038 1056.4 33.7545 1055.13 33.0558C1053.89 32.3572 1052.89 31.4038 1052.14 30.1954C1051.4 28.9682 1051.03 27.5804 1051.03 26.0322C1051.03 24.4651 1051.4 23.0774 1052.14 21.869C1052.89 20.6607 1053.89 19.7072 1055.13 19.0086C1056.4 18.31 1057.79 17.9607 1059.32 17.9607C1060.85 17.9607 1062.23 18.31 1063.48 19.0086C1064.72 19.7072 1065.71 20.6607 1066.45 21.869C1067.2 23.0774 1067.58 24.4651 1067.58 26.0322C1067.58 27.5804 1067.2 28.9682 1066.45 30.1954C1065.71 31.4038 1064.72 32.3572 1063.48 33.0558C1062.23 33.7545 1060.85 34.1038 1059.32 34.1038ZM1059.32 30.2804C1060.09 30.2804 1060.76 30.101 1061.33 29.7422C1061.91 29.3836 1062.37 28.8833 1062.69 28.2413C1063.03 27.5994 1063.2 26.863 1063.2 26.0322C1063.2 25.2015 1063.03 24.4746 1062.69 23.8515C1062.37 23.2095 1061.91 22.7092 1061.33 22.3505C1060.76 21.9729 1060.09 21.7841 1059.32 21.7841C1058.55 21.7841 1057.87 21.9729 1057.28 22.3505C1056.7 22.7092 1056.24 23.2095 1055.9 23.8515C1055.58 24.4746 1055.42 25.2015 1055.42 26.0322C1055.42 26.863 1055.58 27.5994 1055.9 28.2413C1056.24 28.8833 1056.7 29.3836 1057.28 29.7422C1057.87 30.101 1058.55 30.2804 1059.32 30.2804Z" fill="#124835"/>
<path d="M1040.48 58.4762C1041.42 58.9982 1042.52 59.2593 1043.77 59.2593C1045.04 59.2593 1046.13 58.9982 1047.07 58.4762C1048.01 57.9543 1048.75 57.2424 1049.27 56.3406C1049.79 55.423 1050.05 54.379 1050.05 53.2085V41.2971H1048.16V53.2085C1048.16 54.0626 1047.97 54.814 1047.59 55.4626C1047.22 56.0953 1046.71 56.5936 1046.05 56.9575C1045.4 57.3056 1044.64 57.4797 1043.77 57.4797C1042.9 57.4797 1042.14 57.3056 1041.47 56.9575C1040.82 56.5936 1040.31 56.0953 1039.93 55.4626C1039.57 54.814 1039.39 54.0626 1039.39 53.2085V41.2971H1037.49V53.2085C1037.49 54.379 1037.75 55.423 1038.27 56.3406C1038.79 57.2424 1039.53 57.9543 1040.48 58.4762Z" fill="#124835"/>
<path d="M1066.06 46.2561V58.9743H1067.84V46.2561H1066.06Z" fill="#124835"/>
<path d="M1066.06 41.2971V43.9071H1067.84V41.2971H1066.06Z" fill="#124835"/>
<path d="M1104.45 58.334C1105.36 58.9509 1106.43 59.2594 1107.65 59.2594C1108.53 59.2594 1109.31 59.109 1109.99 58.8085C1110.67 58.4921 1111.2 58.0571 1111.58 57.5035C1111.97 56.9497 1112.17 56.3248 1112.17 55.6288C1112.17 54.7747 1111.88 54.0312 1111.3 53.3985C1110.73 52.7656 1109.93 52.299 1108.9 51.9985L1106.79 51.3816C1106.57 51.3183 1106.31 51.2234 1106.01 51.0968C1105.73 50.9703 1105.47 50.7804 1105.25 50.5273C1105.03 50.2743 1104.92 49.9342 1104.92 49.5071C1104.92 48.9534 1105.13 48.4947 1105.56 48.1308C1105.99 47.767 1106.55 47.5851 1107.27 47.5851C1107.99 47.5851 1108.65 47.7907 1109.23 48.202C1109.83 48.5975 1110.29 49.1511 1110.61 49.863L1112.12 49.1511C1111.76 48.1546 1111.14 47.3794 1110.25 46.8258C1109.38 46.2564 1108.41 45.9717 1107.34 45.9717C1106.55 45.9717 1105.83 46.1219 1105.18 46.4224C1104.53 46.7231 1104.02 47.1501 1103.64 47.7037C1103.26 48.2574 1103.07 48.906 1103.07 49.6495C1103.07 50.4403 1103.33 51.1363 1103.85 51.7374C1104.37 52.3386 1105.22 52.8052 1106.39 53.1374L1108.21 53.6594C1108.47 53.7226 1108.76 53.8255 1109.09 53.9679C1109.42 54.1102 1109.72 54.3159 1109.97 54.5848C1110.22 54.8379 1110.35 55.1859 1110.35 55.6288C1110.35 56.2299 1110.09 56.7203 1109.57 57.1C1109.04 57.4639 1108.4 57.6459 1107.65 57.6459C1106.86 57.6459 1106.13 57.4166 1105.46 56.9576C1104.82 56.4988 1104.31 55.8819 1103.95 55.1069L1102.45 55.8186C1102.87 56.8785 1103.53 57.717 1104.45 58.334Z" fill="#124835"/>
<path d="M1095.94 58.9742V46.256H1097.72V47.632C1098 47.218 1098.37 46.8781 1098.83 46.6119C1099.45 46.2639 1100.19 46.0898 1101.06 46.0898H1101.86V47.8694H1100.75C1099.83 47.8694 1099.1 48.1543 1098.55 48.7237C1097.99 49.2931 1097.72 50.0999 1097.72 51.144V58.9742H1095.94Z" fill="#124835"/>
<path fill-rule="evenodd" clip-rule="evenodd" d="M1084.63 58.4051C1085.59 58.9747 1086.67 59.2594 1087.85 59.2594C1088.72 59.2594 1089.51 59.117 1090.22 58.8322C1090.95 58.5317 1091.57 58.1441 1092.09 57.6695C1092.62 57.179 1093 56.6491 1093.26 56.0797L1091.74 55.2729C1091.34 55.9373 1090.83 56.4909 1090.2 56.9338C1089.57 57.3769 1088.78 57.5984 1087.85 57.5984C1087.05 57.5984 1086.29 57.3927 1085.58 56.9813C1084.88 56.57 1084.33 55.9927 1083.92 55.2492C1083.6 54.6357 1083.43 53.9397 1083.42 53.1611H1093.42C1093.45 52.9555 1093.48 52.7577 1093.49 52.5679C1093.51 52.3622 1093.52 52.1804 1093.52 52.0221C1093.52 51.2629 1093.38 50.5273 1093.11 49.8155C1092.84 49.0878 1092.46 48.4393 1091.95 47.8699C1091.45 47.2846 1090.83 46.8258 1090.1 46.4936C1089.39 46.1456 1088.58 45.9717 1087.66 45.9717C1086.51 45.9717 1085.47 46.2564 1084.53 46.8258C1083.62 47.3954 1082.89 48.1783 1082.35 49.1749C1081.82 50.1556 1081.55 51.2867 1081.55 52.5679C1081.55 53.8492 1081.82 54.9961 1082.38 56.0085C1082.93 57.0209 1083.68 57.8199 1084.63 58.4051ZM1091.61 51.5002H1083.45C1083.51 50.9392 1083.66 50.4331 1083.89 49.9815C1084.27 49.2382 1084.79 48.6608 1085.46 48.2495C1086.14 47.8382 1086.87 47.6326 1087.66 47.6326C1088.45 47.6326 1089.16 47.8382 1089.8 48.2495C1090.43 48.645 1090.91 49.1907 1091.24 49.8867C1091.49 50.3754 1091.61 50.9134 1091.61 51.5002Z" fill="#124835"/>
<path d="M1074.16 58.9743L1069.2 46.2561H1071.19L1075.05 56.5551L1078.92 46.2561H1080.93L1075.93 58.9743H1074.16Z" fill="#124835"/>
<path d="M1053.19 58.9747V46.2564H1054.96V47.8318C1055.26 47.3752 1055.64 46.9925 1056.1 46.6834C1056.83 46.2089 1057.66 45.9717 1058.61 45.9717C1059.51 45.9717 1060.32 46.1773 1061.03 46.5886C1061.76 46.9999 1062.33 47.5693 1062.74 48.297C1063.16 49.0087 1063.38 49.8155 1063.38 50.7171V58.9747H1061.6V51.4052C1061.6 50.6302 1061.46 49.9737 1061.17 49.4358C1060.9 48.8981 1060.52 48.4868 1060.01 48.202C1059.52 47.9015 1058.95 47.7512 1058.3 47.7512C1057.66 47.7512 1057.08 47.9015 1056.57 48.202C1056.07 48.4868 1055.67 48.906 1055.39 49.4596C1055.11 49.9975 1054.96 50.646 1054.96 51.4052V58.9747H1053.19Z" fill="#124835"/>
</g>
</g>
</g>
</g>
<rect width="276.32" height="98.2503" fill="url(#paint0_linear_35_505)"/>
<rect x="775" y="-49.2849" width="468.988" height="167.363" fill="url(#paint1_linear_35_505)"/>
</g>
<defs>
<linearGradient id="paint0_linear_35_505" x1="0" y1="49.1252" x2="276.32" y2="49.1252" gradientUnits="userSpaceOnUse">
<stop stop-color="white"/>
<stop offset="0.75" stop-color="white" stop-opacity="0"/>
</linearGradient>
<linearGradient id="paint1_linear_35_505" x1="775" y1="34.3967" x2="1243.99" y2="34.3967" gradientUnits="userSpaceOnUse">
<stop stop-color="white" stop-opacity="0"/>
<stop offset="0.75" stop-color="white"/>
</linearGradient>
<clipPath id="clip0_35_505">
<rect width="1727" height="98.2503" fill="white"/>
</clipPath>
<clipPath id="clip1_35_505">
<rect width="4647.57" height="131.402" fill="white" transform="translate(-344.149 -25.0291)"/>
</clipPath>
<clipPath id="clip2_35_505">
<rect width="140" height="100.382" fill="white" transform="translate(15.058 6.22803)"/>
</clipPath>
<clipPath id="clip3_35_505">
<rect width="219.004" height="64.4027" fill="white" transform="translate(15.058 6.22803)"/>
</clipPath>
<clipPath id="clip4_35_505">
<rect width="219.004" height="45.6258" fill="white" transform="translate(15.058 15.6165)"/>
</clipPath>
<clipPath id="clip5_35_505">
<rect width="140" height="100.382" fill="white" transform="translate(205.116 6.22803)"/>
</clipPath>
<clipPath id="clip6_35_505">
<rect width="219.004" height="64.4027" fill="white" transform="translate(205.116 6.22803)"/>
</clipPath>
<clipPath id="clip7_35_505">
<rect width="140" height="100.382" fill="white" transform="translate(395.174 6.22803)"/>
</clipPath>
<clipPath id="clip8_35_505">
<rect width="219.004" height="64.4027" fill="white" transform="translate(395.174 6.22803)"/>
</clipPath>
<clipPath id="clip9_35_505">
<rect width="219.004" height="53.4155" fill="white" transform="translate(395.174 11.7214)"/>
</clipPath>
<clipPath id="clip10_35_505">
<rect width="140" height="100.382" fill="white" transform="translate(585.232 6.22803)"/>
</clipPath>
<clipPath id="clip11_35_505">
<rect width="219.004" height="64.4027" fill="white" transform="translate(585.232 6.22803)"/>
</clipPath>
<clipPath id="clip12_35_505">
<rect width="140" height="100.382" fill="white" transform="translate(775.29 6.22803)"/>
</clipPath>
<clipPath id="clip13_35_505">
<rect width="219.004" height="64.4027" fill="white" transform="translate(775.29 6.22803)"/>
</clipPath>
<clipPath id="clip14_35_505">
<rect width="219.004" height="45.6258" fill="white" transform="translate(775.29 15.6165)"/>
</clipPath>
<clipPath id="clip15_35_505">
<rect width="140" height="100.382" fill="white" transform="translate(965.348 6.22803)"/>
</clipPath>
<clipPath id="clip16_35_505">
<rect width="219.004" height="64.4027" fill="white" transform="translate(965.348 6.22803)"/>
</clipPath>
</defs>
</svg>
