<svg width="180" height="24" viewBox="0 0 180 24" fill="none" xmlns="http://www.w3.org/2000/svg">
<path d="M11.9997 2C6.47673 2 1.99973 6.477 1.99973 12C1.99973 17.013 5.69273 21.153 10.5047 21.876V14.65H8.03072V12.021H10.5047V10.272C10.5047 7.376 11.9157 6.105 14.3227 6.105C15.4757 6.105 16.0847 6.19 16.3737 6.229V8.523H14.7317C13.7097 8.523 13.3527 9.492 13.3527 10.584V12.021H16.3477L15.9417 14.65H13.3537V21.897C18.2347 21.236 21.9997 17.062 21.9997 12C21.9997 6.477 17.5227 2 11.9997 2Z" fill="white"/>
<path d="M50.9112 2.16016C41.8672 2.16016 41.1596 2.8683 41.1596 11.9117V12.0886C41.1596 21.132 41.8672 21.8402 50.9112 21.8402H51.088C60.1319 21.8402 60.8396 21.132 60.8396 12.0886V12.0002C60.8396 2.87454 60.1252 2.16016 50.9996 2.16016H50.9112ZM56.9007 5.11216C57.4444 5.11068 57.8861 5.54961 57.8876 6.09327C57.8891 6.63693 57.4501 7.07868 56.9065 7.08016C56.3628 7.08163 55.9211 6.6427 55.9196 6.09904C55.9181 5.55538 56.357 5.11363 56.9007 5.11216ZM50.9881 7.08016C53.7049 7.07376 55.9132 9.2718 55.9196 11.9886C55.926 14.7054 53.7279 16.9138 51.0111 16.9202C48.2943 16.9266 46.086 14.7285 46.0796 12.0117C46.0732 9.29486 48.2712 7.08655 50.9881 7.08016ZM50.9929 9.04816C49.3624 9.05209 48.0437 10.3774 48.0476 12.0078C48.0515 13.6378 49.3763 14.9561 51.0063 14.9522C52.6368 14.9482 53.9555 13.6234 53.9516 11.9934C53.9477 10.3629 52.6229 9.04422 50.9929 9.04816Z" fill="white"/>
<path d="M89.9996 2.16016C95.4255 2.16016 99.8396 6.57429 99.8396 12.0002C99.8396 17.426 95.4255 21.8402 89.9996 21.8402C84.5737 21.8402 80.1596 17.426 80.1596 12.0002C80.1596 6.57429 84.5737 2.16016 89.9996 2.16016ZM87.5396 16.2117C89.8824 16.2117 91.7887 14.3224 91.7887 12.0002C91.7887 11.5064 91.3879 11.1056 90.8942 11.1056H87.833C87.3392 11.1056 86.9385 11.5064 86.9385 12.0002C86.9385 12.4939 87.3392 12.8947 87.833 12.8947H89.8256C89.4633 13.7888 88.575 14.4226 87.5396 14.4226C86.1835 14.4226 85.0796 13.3362 85.0796 12.0002C85.0796 10.6642 86.1835 9.57773 87.5396 9.57773C88.0647 9.57773 88.5652 9.7383 88.9879 10.0424C89.3895 10.3318 89.9482 10.2392 90.2362 9.83849C90.5252 9.43773 90.4335 8.87864 90.0327 8.5897C89.3037 8.0655 88.4418 7.78819 87.5396 7.78819C85.1968 7.78819 83.2905 9.67747 83.2905 11.9997C83.2905 14.3219 85.1968 16.2117 87.5396 16.2117ZM96.0378 12.8947C96.5316 12.8947 96.9323 12.4939 96.9323 12.0002C96.9323 11.5064 96.5316 11.1056 96.0378 11.1056H95.6133V10.4571C95.6133 9.96328 95.2126 9.56252 94.7188 9.56252C94.225 9.56252 93.8242 9.96328 93.8242 10.4571V11.1056H93.3542C92.8604 11.1056 92.4596 11.5064 92.4596 12.0002C92.4596 12.4939 92.8604 12.8947 93.3542 12.8947H93.8242V13.5432C93.8242 14.037 94.225 14.4378 94.7188 14.4378C95.2126 14.4378 95.6133 14.037 95.6133 13.5432V12.8947H96.0378Z" fill="white"/>
<path d="M122.2 1.91992C120.389 1.91992 118.92 3.38842 118.92 5.19992V18.3199C118.92 20.1314 120.389 21.5999 122.2 21.5999H135.32C137.132 21.5999 138.6 20.1314 138.6 18.3199V5.19992C138.6 3.38842 137.132 1.91992 135.32 1.91992H122.2ZM123.178 6.13706H126.897L129.538 9.89021L132.743 6.13706H133.914L130.067 10.6416L134.811 17.3828H131.093L128.028 13.0284L124.309 17.3828H123.137L127.499 12.277L123.178 6.13706ZM124.971 7.07421L131.582 16.4456H133.018L126.407 7.07421H124.971Z" fill="white"/>
<path d="M175.497 2.16016H160.502C159.209 2.16016 158.16 3.20976 158.16 4.50301V19.4973C158.16 20.7906 159.209 21.8402 160.502 21.8402H175.497C176.79 21.8402 177.84 20.7906 177.84 19.4973V4.50301C177.84 3.20976 176.79 2.16016 175.497 2.16016ZM164.251 9.6573V18.5602H161.44V9.6573H164.251ZM161.44 7.0661C161.44 6.4101 162.002 5.90873 162.845 5.90873C163.689 5.90873 164.218 6.4101 164.251 7.0661C164.251 7.7221 163.726 8.25158 162.845 8.25158C162.002 8.25158 161.44 7.7221 161.44 7.0661ZM174.56 18.5602H171.748C171.748 18.5602 171.748 14.2212 171.748 13.8744C171.748 12.9373 171.28 12.0002 170.108 11.9814H170.071C168.937 11.9814 168.468 12.9467 168.468 13.8744C168.468 14.3008 168.468 18.5602 168.468 18.5602H165.657V9.6573H168.468V10.8568C168.468 10.8568 169.373 9.6573 171.191 9.6573C173.051 9.6573 174.56 10.9365 174.56 13.5277V18.5602Z" fill="white"/>
</svg>
