<svg width="23" height="24" viewBox="0 0 23 24" fill="none" xmlns="http://www.w3.org/2000/svg">
<g clip-path="url(#clip0_10_54)">
<path d="M21.0186 3.0492L1.11145 10.2523C0.791242 10.3681 0.72021 10.6517 1.10018 10.8068L5.38017 12.5677L7.91705 13.6107L20.3015 4.27287C20.4684 4.14784 20.6601 4.38285 20.5394 4.51714L11.6649 14.3725V14.3748L11.1552 14.9571L11.8306 15.3298L17.4478 18.4347C17.7759 18.6153 18.201 18.466 18.2957 18.0481L21.5722 3.54816C21.6613 3.15108 21.4053 2.90912 21.0186 3.0492ZM7.8945 19.8679C7.8945 20.1527 8.05122 20.2326 8.2677 20.0312C8.5507 19.7661 11.4811 17.0663 11.4811 17.0663L7.8945 15.1631V19.8679Z" fill="white"/>
</g>
<defs>
<clipPath id="clip0_10_54">
<rect width="22.55" height="23.1536" fill="white"/>
</clipPath>
</defs>
</svg>
