<svg width="17" height="22" viewBox="0 0 17 22" fill="none" xmlns="http://www.w3.org/2000/svg">
<path d="M8.4738 0C6.22719 0.00253322 4.07331 0.89967 2.48471 2.49459C0.896107 4.08951 0.00252319 6.25195 0 8.5075C0 11.969 2.50295 14.8435 5.15419 17.886C5.9931 18.8494 6.86166 19.8459 7.6349 20.854C7.73385 20.9829 7.86094 21.0873 8.00638 21.1591C8.15182 21.2309 8.31173 21.2682 8.4738 21.2682C8.63588 21.2682 8.79579 21.2309 8.94123 21.1591C9.08667 21.0873 9.21376 20.9829 9.31271 20.854C10.0859 19.8459 10.9545 18.8494 11.7934 17.886C14.4447 14.8435 16.9476 11.969 16.9476 8.5075C16.9451 6.25195 16.0515 4.08951 14.4629 2.49459C12.8743 0.89967 10.7204 0.00253322 8.4738 0ZM8.4738 11.6978C7.84532 11.6978 7.23095 11.5107 6.70838 11.1602C6.18582 10.8096 5.77852 10.3113 5.53801 9.72838C5.2975 9.14543 5.23457 8.50396 5.35719 7.8851C5.4798 7.26624 5.78244 6.69778 6.22685 6.25161C6.67125 5.80544 7.23746 5.50159 7.85387 5.37849C8.47028 5.25539 9.1092 5.31857 9.68985 5.56004C10.2705 5.80151 10.7668 6.21042 11.1159 6.73506C11.4651 7.2597 11.6515 7.87652 11.6515 8.5075C11.6515 9.35363 11.3167 10.1651 10.7208 10.7634C10.1248 11.3617 9.31658 11.6978 8.4738 11.6978Z" fill="white"/>
</svg>
