<svg width="9" height="10" viewBox="0 0 9 10" fill="none" xmlns="http://www.w3.org/2000/svg">
<path d="M0.612305 0.633972C1.22795 -0.0109965 2.23125 -0.0118764 2.84863 0.633972L4.45605 2.30389L6.06543 0.630066L6.06641 0.629089C6.68487 -0.00846067 7.68948 -0.00523249 8.30469 0.633972C8.91929 1.27243 8.91734 2.30224 8.30469 2.93866L6.68848 4.61737L8.30469 6.29706C8.91737 6.93343 8.91737 7.96635 8.30469 8.60272C7.68749 9.24335 6.68203 9.24316 6.06543 8.60272L4.45703 6.93182L2.84863 8.60272C2.22189 9.25316 1.21361 9.23529 0.612305 8.60077C-0.00297048 7.96666 -0.00607696 6.93446 0.613281 6.29608L2.22949 4.61737L0.613281 2.93866C-0.00123152 2.30045 3.53338e-05 1.2705 0.612305 0.633972ZM2.35059 1.133C2.00574 0.771785 1.45351 0.773807 1.11133 1.13202L1.11035 1.133C0.785021 1.4707 0.764453 2.00726 1.04883 2.36932L1.11035 2.43866L2.9668 4.36835C3.10032 4.50703 3.10032 4.72967 2.9668 4.86835L1.11035 6.79706H1.10938C0.780187 7.1359 0.761969 7.67047 1.04785 8.03143L1.10938 8.10175L1.11035 8.10272C1.45419 8.46611 2.01283 8.45421 2.35156 8.10272L4.20801 6.17401C4.34459 6.03215 4.56847 6.03218 4.70508 6.17401L6.5625 8.10272C6.90622 8.45966 7.4639 8.45949 7.80762 8.10272C8.15349 7.74348 8.15349 7.1563 7.80762 6.79706L5.95117 4.86835C5.81765 4.72967 5.81765 4.50703 5.95117 4.36835L7.80762 2.43964V2.43866C8.15424 2.07897 8.15406 1.49346 7.80762 1.13397C7.46422 0.777341 6.90624 0.774687 6.56152 1.12909L4.70605 3.06171C4.6573 3.11256 4.59447 3.14718 4.52637 3.16132L4.45703 3.16913C4.36245 3.16913 4.27281 3.12999 4.20801 3.06268L2.35156 1.13397L2.35059 1.133Z" fill="#FF0000" stroke="#FF0000" stroke-width="0.3"/>
</svg>
