<svg width="34" height="34" viewBox="0 0 34 34" fill="none" xmlns="http://www.w3.org/2000/svg">
<path d="M20.4001 4.53333C19.2793 4.53333 18.1837 4.86567 17.2518 5.48833C16.32 6.11099 15.5936 6.996 15.1648 8.03145C14.7359 9.0669 14.6236 10.2063 14.8423 11.3055C15.0609 12.4047 15.6006 13.4144 16.3931 14.2069C17.1856 14.9994 18.1953 15.5391 19.2946 15.7578C20.3938 15.9764 21.5332 15.8642 22.5686 15.4353C23.6041 15.0064 24.4891 14.2801 25.1117 13.3482C25.7344 12.4163 26.0667 11.3208 26.0667 10.2C26.0651 8.6976 25.4675 7.25722 24.4052 6.19488C23.3428 5.13253 21.9025 4.53498 20.4001 4.53333ZM23.3909 6.79999C23.0949 7.06155 22.7652 7.28224 22.4106 7.45619C22.3141 6.93997 22.1652 6.43492 21.9663 5.94886C22.4896 6.14234 22.9726 6.4309 23.3909 6.79999ZM20.4001 5.66666C20.6001 5.66666 21.0591 6.40332 21.3277 7.82452C20.7159 7.95259 20.0842 7.95259 19.4724 7.82452C19.741 6.40332 20.2 5.66666 20.4001 5.66666ZM15.8667 10.2C15.8666 9.28983 16.1418 8.40092 16.6561 7.64999C17.1188 8.05522 17.6456 8.38076 18.215 8.61333C18.1062 9.66698 18.1062 10.729 18.215 11.7827C17.6455 12.0165 17.1189 12.3434 16.6567 12.75C16.1419 11.9992 15.8665 11.1103 15.8667 10.2ZM17.4092 13.6C17.7052 13.3384 18.0349 13.1177 18.3895 12.9438C18.4861 13.46 18.6349 13.9651 18.8338 14.4511C18.3105 14.2576 17.8276 13.9691 17.4092 13.6ZM18.389 7.46129C18.0342 7.28582 17.7046 7.06339 17.4092 6.79999C17.8276 6.43131 18.3106 6.14314 18.8338 5.94999C18.6348 6.43665 18.4858 6.94226 18.389 7.45903V7.46129ZM20.4001 14.7333C20.2 14.7333 19.741 13.9967 19.4724 12.5755C20.0842 12.4474 20.7159 12.4474 21.3277 12.5755C21.0591 13.9967 20.6001 14.7333 20.4001 14.7333ZM21.4767 11.4421C20.764 11.305 20.0316 11.305 19.3189 11.4421C19.2854 11.0591 19.2622 10.6488 19.2622 10.2C19.2622 9.75119 19.2832 9.34149 19.3189 8.95899C20.031 9.10255 20.7646 9.10255 21.4767 8.95899C21.5102 9.34149 21.5334 9.75233 21.5334 10.2C21.5334 10.6477 21.5124 11.0591 21.4767 11.4421ZM21.9641 14.4489C22.163 13.9626 22.312 13.4573 22.4089 12.941C22.7643 13.1156 23.0947 13.3372 23.3909 13.6C22.9725 13.9687 22.4895 14.2568 21.9663 14.45L21.9641 14.4489ZM24.144 12.75C23.6813 12.3448 23.1545 12.0192 22.5851 11.7867C22.6939 10.733 22.6939 9.67095 22.5851 8.61729C23.1546 8.38346 23.6812 8.05657 24.1435 7.64999C24.6578 8.40174 24.9331 9.29137 24.9331 10.2023C24.9331 11.1131 24.6578 12.0028 24.1435 12.7545L24.144 12.75Z" fill="#FF0000"/>
<path d="M33.4333 0H7.36667C7.21638 0 7.07224 0.0597022 6.96597 0.165973C6.8597 0.272243 6.8 0.416377 6.8 0.566667V3.4C5.92012 3.39676 5.06396 3.68508 4.36528 4.21991C3.6666 4.75474 3.16477 5.50594 2.93819 6.35616C2.71162 7.20637 2.77308 8.10769 3.11295 8.91928C3.45282 9.73087 4.05197 10.407 4.81678 10.8421C5.58159 11.2771 6.46896 11.4465 7.34026 11.3239C8.21155 11.2013 9.01768 10.7935 9.63268 10.1642C10.2477 9.53494 10.6369 8.71968 10.7396 7.84581C10.8422 6.97193 10.6525 6.08867 10.2 5.33403V3.4H30.6V30.6H11.9V28.9H28.9V27.7667H11.9V24.3667H28.9V23.2333H11.9V22.6667H13.0333C13.1836 22.6667 13.3278 22.607 13.434 22.5007C13.5403 22.3944 13.6 22.2503 13.6 22.1V15.3C13.5991 14.5488 13.3003 13.8287 12.7691 13.2975C12.238 12.7664 11.5178 12.4676 10.7667 12.4667H2.83333C2.08216 12.4676 1.36202 12.7664 0.830858 13.2975C0.2997 13.8287 0.000899786 14.5488 0 15.3V22.1C0 22.2503 0.0597022 22.3944 0.165973 22.5007C0.272243 22.607 0.416377 22.6667 0.566667 22.6667H1.7V33.4333C1.7 33.5836 1.7597 33.7278 1.86597 33.834C1.97224 33.9403 2.11638 34 2.26667 34H33.4333C33.5836 34 33.7278 33.9403 33.834 33.834C33.9403 33.7278 34 33.5836 34 33.4333V0.566667C34 0.416377 33.9403 0.272243 33.834 0.165973C33.7278 0.0597022 33.5836 0 33.4333 0ZM6.8 10.2C6.23962 10.2 5.69182 10.0338 5.22588 9.7225C4.75994 9.41117 4.39679 8.96866 4.18234 8.45094C3.96789 7.93321 3.91178 7.36352 4.02111 6.81391C4.13043 6.2643 4.40028 5.75945 4.79653 5.3632C5.19278 4.96695 5.69763 4.6971 6.24724 4.58777C6.79686 4.47845 7.36655 4.53456 7.88427 4.74901C8.40199 4.96346 8.8445 5.32661 9.15583 5.79255C9.46716 6.25849 9.63333 6.80629 9.63333 7.36667C9.63243 8.11784 9.33363 8.83798 8.80248 9.36914C8.27132 9.9003 7.55117 10.1991 6.8 10.2ZM6.75013 13.6H6.84987L7.35647 19.1046L6.8 20.5366L6.24353 19.1046L6.75013 13.6ZM10.7667 22.1V32.8667H2.83333V22.1C2.83333 21.9497 2.77363 21.8056 2.66736 21.6993C2.56109 21.593 2.41696 21.5333 2.26667 21.5333H1.13333V15.3C1.13333 14.8491 1.31244 14.4167 1.63125 14.0979C1.95006 13.7791 2.38247 13.6 2.83333 13.6H5.61L5.1 19.1335C5.092 19.2209 5.10442 19.309 5.13627 19.3908L6.2696 22.3051C6.31099 22.4115 6.38355 22.503 6.47779 22.5674C6.57204 22.6319 6.68355 22.6664 6.79773 22.6664C6.91191 22.6664 7.02343 22.6319 7.11767 22.5674C7.21191 22.503 7.28448 22.4115 7.32587 22.3051L8.4592 19.3908C8.49259 19.3093 8.50656 19.2213 8.5 19.1335L7.99 13.6H10.7667C11.2175 13.6 11.6499 13.7791 11.9687 14.0979C12.2876 14.4167 12.4667 14.8491 12.4667 15.3V21.5333H11.3333C11.183 21.5333 11.0389 21.593 10.9326 21.6993C10.8264 21.8056 10.7667 21.9497 10.7667 22.1ZM32.8667 32.8667H11.9V31.7333H31.1667C31.317 31.7333 31.4611 31.6736 31.5674 31.5674C31.6736 31.4611 31.7333 31.317 31.7333 31.1667V2.83333C31.7333 2.68304 31.6736 2.53891 31.5674 2.43264C31.4611 2.32637 31.317 2.26667 31.1667 2.26667H9.63333C9.48304 2.26667 9.33891 2.32637 9.23264 2.43264C9.12637 2.53891 9.06667 2.68304 9.06667 2.83333V4.11627C8.72057 3.87468 8.33792 3.69025 7.93333 3.57V1.13333H32.8667V32.8667Z" fill="#FF0000"/>
<path d="M28.9002 18.7H17.5669V19.8333H28.9002V18.7Z" fill="#FF0000"/>
</svg>
