<svg width="34" height="34" viewBox="0 0 34 34" fill="none" xmlns="http://www.w3.org/2000/svg">
<path d="M33.4333 0H7.36667C7.21638 0 7.07224 0.0597022 6.96597 0.165973C6.8597 0.272243 6.8 0.416377 6.8 0.566667V3.4C5.92012 3.39676 5.06396 3.68508 4.36528 4.21991C3.6666 4.75474 3.16477 5.50594 2.93819 6.35616C2.71162 7.20637 2.77308 8.10769 3.11295 8.91928C3.45282 9.73087 4.05197 10.407 4.81678 10.8421C5.58159 11.2771 6.46896 11.4465 7.34026 11.3239C8.21155 11.2013 9.01768 10.7935 9.63268 10.1642C10.2477 9.53494 10.6369 8.71968 10.7396 7.84581C10.8422 6.97193 10.6525 6.08867 10.2 5.33403V3.4H30.6V30.6H11.9V28.9H28.9V27.7667H11.9V24.3667H28.9V23.2333H11.9V22.6667H13.0333C13.1836 22.6667 13.3278 22.607 13.434 22.5007C13.5403 22.3944 13.6 22.2503 13.6 22.1V15.3C13.5991 14.5488 13.3003 13.8287 12.7691 13.2975C12.238 12.7664 11.5178 12.4676 10.7667 12.4667H2.83333C2.08216 12.4676 1.36202 12.7664 0.830858 13.2975C0.2997 13.8287 0.000899786 14.5488 0 15.3V22.1C0 22.2503 0.0597022 22.3944 0.165973 22.5007C0.272243 22.607 0.416377 22.6667 0.566667 22.6667H1.7V33.4333C1.7 33.5836 1.7597 33.7278 1.86597 33.834C1.97224 33.9403 2.11638 34 2.26667 34H33.4333C33.5836 34 33.7278 33.9403 33.834 33.834C33.9403 33.7278 34 33.5836 34 33.4333V0.566667C34 0.416377 33.9403 0.272243 33.834 0.165973C33.7278 0.0597022 33.5836 0 33.4333 0ZM6.8 10.2C6.23962 10.2 5.69182 10.0338 5.22588 9.7225C4.75994 9.41117 4.39679 8.96866 4.18234 8.45094C3.96789 7.93321 3.91178 7.36352 4.02111 6.81391C4.13043 6.2643 4.40028 5.75945 4.79653 5.3632C5.19278 4.96695 5.69763 4.6971 6.24724 4.58777C6.79686 4.47845 7.36655 4.53456 7.88427 4.74901C8.40199 4.96346 8.8445 5.32661 9.15583 5.79255C9.46716 6.25849 9.63333 6.80629 9.63333 7.36667C9.63243 8.11784 9.33363 8.83798 8.80248 9.36914C8.27132 9.9003 7.55117 10.1991 6.8 10.2ZM6.75013 13.6H6.84987L7.35647 19.1046L6.8 20.5366L6.24353 19.1046L6.75013 13.6ZM10.7667 22.1V32.8667H2.83333V22.1C2.83333 21.9497 2.77363 21.8056 2.66736 21.6993C2.56109 21.593 2.41696 21.5333 2.26667 21.5333H1.13333V15.3C1.13333 14.8491 1.31244 14.4167 1.63125 14.0979C1.95006 13.7791 2.38247 13.6 2.83333 13.6H5.61L5.1 19.1335C5.092 19.2209 5.10442 19.309 5.13627 19.3908L6.2696 22.3051C6.31099 22.4115 6.38355 22.503 6.47779 22.5674C6.57204 22.6319 6.68355 22.6664 6.79773 22.6664C6.91191 22.6664 7.02343 22.6319 7.11767 22.5674C7.21191 22.503 7.28448 22.4115 7.32587 22.3051L8.4592 19.3908C8.49259 19.3093 8.50656 19.2213 8.5 19.1335L7.99 13.6H10.7667C11.2175 13.6 11.6499 13.7791 11.9687 14.0979C12.2876 14.4167 12.4667 14.8491 12.4667 15.3V21.5333H11.3333C11.183 21.5333 11.0389 21.593 10.9326 21.6993C10.8264 21.8056 10.7667 21.9497 10.7667 22.1ZM32.8667 32.8667H11.9V31.7333H31.1667C31.317 31.7333 31.4611 31.6736 31.5674 31.5674C31.6736 31.4611 31.7333 31.317 31.7333 31.1667V2.83333C31.7333 2.68304 31.6736 2.53891 31.5674 2.43264C31.4611 2.32637 31.317 2.26667 31.1667 2.26667H9.63333C9.48304 2.26667 9.33891 2.32637 9.23264 2.43264C9.12637 2.53891 9.06667 2.68304 9.06667 2.83333V4.11627C8.72057 3.87468 8.33792 3.69025 7.93333 3.57V1.13333H32.8667V32.8667Z" fill="#FF0000"/>
</svg>
