<svg width="498" height="104" viewBox="0 0 498 104" fill="none" xmlns="http://www.w3.org/2000/svg">
<g filter="url(#filter0_d_154_186)">
<rect x="18.0078" width="461" height="61" rx="4.91124" fill="white"/>
</g>
<path d="M106.6 23.456L110.311 35.0841L114.092 23.456H116.692V40H114.092V31.2317L111.303 40H109.342L106.6 31.2553V40H103.977V23.456H106.6ZM118.842 40V28.1592H121.466V40H118.842ZM120.166 23.2197C120.56 23.2197 120.891 23.3457 121.158 23.5978C121.442 23.8499 121.584 24.1808 121.584 24.5905C121.584 24.9844 121.442 25.3231 121.158 25.6067C120.891 25.8746 120.56 26.0085 120.166 26.0085C119.772 26.0085 119.433 25.8746 119.149 25.6067C118.882 25.3231 118.748 24.9844 118.748 24.5905C118.748 24.1808 118.882 23.8499 119.149 23.5978C119.433 23.3457 119.772 23.2197 120.166 23.2197ZM130.232 30.8772C130.059 30.7826 129.862 30.7039 129.642 30.6408C129.421 30.5621 129.185 30.5069 128.933 30.4754C128.696 30.4281 128.444 30.4045 128.176 30.4045C128.034 30.4045 127.877 30.4124 127.704 30.4281C127.546 30.4439 127.388 30.4833 127.231 30.5463C127.073 30.5936 126.939 30.6724 126.829 30.7826C126.735 30.8772 126.687 31.0111 126.687 31.1844C126.687 31.4208 126.782 31.6256 126.971 31.7989C127.176 31.9722 127.444 32.1298 127.774 32.2716C128.105 32.4134 128.468 32.5631 128.862 32.7207C129.256 32.8625 129.642 33.0358 130.02 33.2406C130.414 33.4454 130.776 33.6897 131.107 33.9733C131.438 34.2569 131.698 34.6114 131.887 35.0368C132.092 35.4465 132.194 35.9428 132.194 36.5258C132.194 37.156 132.076 37.7075 131.84 38.1802C131.603 38.6528 131.28 39.0546 130.871 39.3855C130.477 39.7006 130.02 39.937 129.5 40.0945C128.996 40.2679 128.468 40.3545 127.916 40.3545C127.05 40.3545 126.222 40.1733 125.435 39.8109C124.647 39.4485 123.977 38.9601 123.426 38.3456L124.962 36.7385C125.214 36.9591 125.482 37.1639 125.766 37.353C126.065 37.5263 126.372 37.6681 126.687 37.7784C127.002 37.8729 127.318 37.9202 127.633 37.9202C127.837 37.9202 128.042 37.8966 128.247 37.8493C128.468 37.802 128.665 37.7232 128.838 37.6129C129.011 37.5026 129.153 37.3608 129.263 37.1875C129.374 37.0142 129.429 36.8094 129.429 36.573C129.429 36.2579 129.326 35.9979 129.122 35.7931C128.933 35.5883 128.673 35.4071 128.342 35.2495C128.027 35.0762 127.672 34.9108 127.278 34.7532C126.9 34.5956 126.514 34.4302 126.12 34.2569C125.742 34.0678 125.387 33.8393 125.057 33.5715C124.741 33.3036 124.481 32.9806 124.277 32.6025C124.088 32.2243 123.993 31.7674 123.993 31.2317C123.993 30.6487 124.103 30.1445 124.324 29.7191C124.544 29.2937 124.844 28.9471 125.222 28.6792C125.616 28.3956 126.049 28.1908 126.522 28.0647C126.995 27.9229 127.475 27.852 127.964 27.852C128.31 27.852 128.665 27.8835 129.027 27.9465C129.405 28.0096 129.768 28.1041 130.114 28.2301C130.461 28.3562 130.768 28.5138 131.036 28.7028L130.232 30.8772ZM141.043 30.31C141.043 30.31 140.941 30.2863 140.736 30.2391C140.547 30.176 140.24 30.1445 139.814 30.1445C139.562 30.1445 139.302 30.1603 139.035 30.1918C138.767 30.2075 138.499 30.2469 138.231 30.31C137.979 30.3572 137.727 30.4203 137.475 30.499C137.223 30.5778 136.978 30.6802 136.742 30.8063V40H134.119V28.1592H136.742V28.6319C137.136 28.3641 137.577 28.1592 138.066 28.0174C138.554 27.8756 139.05 27.8047 139.554 27.8047C139.917 27.8047 140.256 27.8441 140.571 27.9229C140.886 27.9859 141.169 28.0647 141.422 28.1592L141.043 30.31ZM145.371 36.4785C145.371 36.6833 145.403 36.8724 145.466 37.0457C145.529 37.2033 145.615 37.3451 145.726 37.4711C145.836 37.5972 145.978 37.6917 146.151 37.7547C146.325 37.8178 146.514 37.8493 146.718 37.8493C147.144 37.8493 147.624 37.7547 148.16 37.5657C148.712 37.3766 149.232 37.156 149.72 36.9039L150.665 39.1728C150.13 39.5194 149.499 39.7952 148.775 40C148.066 40.2048 147.357 40.3072 146.648 40.3072C146.096 40.3072 145.576 40.2363 145.088 40.0945C144.615 39.9527 144.197 39.74 143.835 39.4564C143.488 39.1728 143.213 38.8104 143.008 38.3692C142.819 37.9281 142.724 37.4081 142.724 36.8094V31.9644C142.724 31.0663 142.913 30.3178 143.291 29.7191C143.685 29.1204 144.213 28.6713 144.875 28.372C145.537 28.0726 146.277 27.9229 147.097 27.9229C147.932 27.9229 148.656 28.0726 149.271 28.372C149.901 28.6556 150.39 29.0967 150.736 29.6955C151.083 30.2784 151.256 31.0111 151.256 31.8935V35.5804L145.371 35.8876V36.4785ZM148.633 32.6025C148.633 32.2401 148.593 31.8935 148.515 31.5626C148.436 31.2159 148.286 30.9323 148.066 30.7117C147.845 30.4912 147.514 30.3966 147.073 30.4281C146.6 30.4439 146.238 30.5463 145.986 30.7354C145.749 30.9087 145.584 31.1529 145.489 31.468C145.411 31.7674 145.371 32.1377 145.371 32.5788V33.5006L148.633 33.2879V32.6025ZM161.951 35.8167C161.951 37.2663 161.612 38.3771 160.935 39.1492C160.257 39.9055 159.265 40.2836 157.957 40.2836C157.705 40.2836 157.445 40.26 157.177 40.2127C156.925 40.1654 156.681 40.0945 156.444 40C156.224 39.9212 156.019 39.8267 155.83 39.7164V45.0577L153.207 44.5378V28.1592H155.83V28.6792C155.925 28.5847 156.106 28.4822 156.374 28.372C156.641 28.2459 156.941 28.1435 157.272 28.0647C157.618 27.9702 157.941 27.9229 158.241 27.9229C159.044 27.9229 159.722 28.0805 160.273 28.3956C160.825 28.7107 161.242 29.1598 161.526 29.7427C161.809 30.3257 161.951 31.019 161.951 31.8226V35.8167ZM159.351 32.0116C159.351 31.6807 159.304 31.405 159.21 31.1844C159.115 30.9481 158.981 30.7669 158.808 30.6408C158.65 30.5148 158.469 30.4281 158.264 30.3809C158.059 30.3178 157.847 30.2863 157.626 30.2863C157.374 30.2863 157.114 30.3336 156.846 30.4281C156.594 30.5069 156.374 30.5936 156.184 30.6881C156.011 30.7669 155.893 30.822 155.83 30.8535V36.6912C155.83 36.9118 155.893 37.1009 156.019 37.2584C156.161 37.416 156.334 37.542 156.539 37.6366C156.76 37.7311 156.98 37.802 157.201 37.8493C157.437 37.8966 157.65 37.9202 157.839 37.9202C158.17 37.9202 158.445 37.8493 158.666 37.7075C158.887 37.5657 159.052 37.3687 159.162 37.1166C159.288 36.8488 159.351 36.5494 159.351 36.2185V32.0116ZM170.886 30.31C170.886 30.31 170.784 30.2863 170.579 30.2391C170.39 30.176 170.083 30.1445 169.657 30.1445C169.405 30.1445 169.145 30.1603 168.877 30.1918C168.61 30.2075 168.342 30.2469 168.074 30.31C167.822 30.3572 167.57 30.4203 167.318 30.499C167.065 30.5778 166.821 30.6802 166.585 30.8063V40H163.961V28.1592H166.585V28.6319C166.979 28.3641 167.42 28.1592 167.908 28.0174C168.397 27.8756 168.893 27.8047 169.397 27.8047C169.76 27.8047 170.098 27.8441 170.414 27.9229C170.729 27.9859 171.012 28.0647 171.264 28.1592L170.886 30.31ZM175.214 36.4785C175.214 36.6833 175.246 36.8724 175.309 37.0457C175.372 37.2033 175.458 37.3451 175.569 37.4711C175.679 37.5972 175.821 37.6917 175.994 37.7547C176.167 37.8178 176.356 37.8493 176.561 37.8493C176.987 37.8493 177.467 37.7547 178.003 37.5657C178.554 37.3766 179.074 37.156 179.563 36.9039L180.508 39.1728C179.972 39.5194 179.342 39.7952 178.617 40C177.908 40.2048 177.199 40.3072 176.49 40.3072C175.939 40.3072 175.419 40.2363 174.931 40.0945C174.458 39.9527 174.04 39.74 173.678 39.4564C173.331 39.1728 173.056 38.8104 172.851 38.3692C172.662 37.9281 172.567 37.4081 172.567 36.8094V31.9644C172.567 31.0663 172.756 30.3178 173.134 29.7191C173.528 29.1204 174.056 28.6713 174.718 28.372C175.38 28.0726 176.12 27.9229 176.939 27.9229C177.774 27.9229 178.499 28.0726 179.114 28.372C179.744 28.6556 180.232 29.0967 180.579 29.6955C180.926 30.2784 181.099 31.0111 181.099 31.8935V35.5804L175.214 35.8876V36.4785ZM178.476 32.6025C178.476 32.2401 178.436 31.8935 178.357 31.5626C178.279 31.2159 178.129 30.9323 177.908 30.7117C177.688 30.4912 177.357 30.3966 176.916 30.4281C176.443 30.4439 176.081 30.5463 175.829 30.7354C175.592 30.9087 175.427 31.1529 175.332 31.468C175.254 31.7674 175.214 32.1377 175.214 32.5788V33.5006L178.476 33.2879V32.6025ZM189.18 30.8772C189.006 30.7826 188.809 30.7039 188.589 30.6408C188.368 30.5621 188.132 30.5069 187.88 30.4754C187.643 30.4281 187.391 30.4045 187.123 30.4045C186.982 30.4045 186.824 30.4124 186.651 30.4281C186.493 30.4439 186.336 30.4833 186.178 30.5463C186.02 30.5936 185.887 30.6724 185.776 30.7826C185.682 30.8772 185.634 31.0111 185.634 31.1844C185.634 31.4208 185.729 31.6256 185.918 31.7989C186.123 31.9722 186.391 32.1298 186.722 32.2716C187.052 32.4134 187.415 32.5631 187.809 32.7207C188.203 32.8625 188.589 33.0358 188.967 33.2406C189.361 33.4454 189.723 33.6897 190.054 33.9733C190.385 34.2569 190.645 34.6114 190.834 35.0368C191.039 35.4465 191.141 35.9428 191.141 36.5258C191.141 37.156 191.023 37.7075 190.787 38.1802C190.55 38.6528 190.227 39.0546 189.818 39.3855C189.424 39.7006 188.967 39.937 188.447 40.0945C187.943 40.2679 187.415 40.3545 186.863 40.3545C185.997 40.3545 185.17 40.1733 184.382 39.8109C183.594 39.4485 182.924 38.9601 182.373 38.3456L183.909 36.7385C184.161 36.9591 184.429 37.1639 184.713 37.353C185.012 37.5263 185.319 37.6681 185.634 37.7784C185.95 37.8729 186.265 37.9202 186.58 37.9202C186.785 37.9202 186.989 37.8966 187.194 37.8493C187.415 37.802 187.612 37.7232 187.785 37.6129C187.958 37.5026 188.1 37.3608 188.211 37.1875C188.321 37.0142 188.376 36.8094 188.376 36.573C188.376 36.2579 188.274 35.9979 188.069 35.7931C187.88 35.5883 187.62 35.4071 187.289 35.2495C186.974 35.0762 186.619 34.9108 186.225 34.7532C185.847 34.5956 185.461 34.4302 185.067 34.2569C184.689 34.0678 184.335 33.8393 184.004 33.5715C183.689 33.3036 183.429 32.9806 183.224 32.6025C183.035 32.2243 182.94 31.7674 182.94 31.2317C182.94 30.6487 183.05 30.1445 183.271 29.7191C183.492 29.2937 183.791 28.9471 184.169 28.6792C184.563 28.3956 184.996 28.1908 185.469 28.0647C185.942 27.9229 186.422 27.852 186.911 27.852C187.257 27.852 187.612 27.8835 187.974 27.9465C188.352 28.0096 188.715 28.1041 189.061 28.2301C189.408 28.3562 189.715 28.5138 189.983 28.7028L189.18 30.8772ZM195.663 36.4785C195.663 36.6833 195.695 36.8724 195.758 37.0457C195.821 37.2033 195.907 37.3451 196.018 37.4711C196.128 37.5972 196.27 37.6917 196.443 37.7547C196.617 37.8178 196.806 37.8493 197.01 37.8493C197.436 37.8493 197.916 37.7547 198.452 37.5657C199.004 37.3766 199.524 37.156 200.012 36.9039L200.957 39.1728C200.422 39.5194 199.791 39.7952 199.067 40C198.358 40.2048 197.649 40.3072 196.94 40.3072C196.388 40.3072 195.868 40.2363 195.38 40.0945C194.907 39.9527 194.489 39.74 194.127 39.4564C193.78 39.1728 193.505 38.8104 193.3 38.3692C193.111 37.9281 193.016 37.4081 193.016 36.8094V31.9644C193.016 31.0663 193.205 30.3178 193.583 29.7191C193.977 29.1204 194.505 28.6713 195.167 28.372C195.829 28.0726 196.569 27.9229 197.389 27.9229C198.224 27.9229 198.948 28.0726 199.563 28.372C200.193 28.6556 200.682 29.0967 201.028 29.6955C201.375 30.2784 201.548 31.0111 201.548 31.8935V35.5804L195.663 35.8876V36.4785ZM198.925 32.6025C198.925 32.2401 198.885 31.8935 198.807 31.5626C198.728 31.2159 198.578 30.9323 198.358 30.7117C198.137 30.4912 197.806 30.3966 197.365 30.4281C196.892 30.4439 196.53 30.5463 196.278 30.7354C196.041 30.9087 195.876 31.1529 195.781 31.468C195.703 31.7674 195.663 32.1377 195.663 32.5788V33.5006L198.925 33.2879V32.6025ZM209.667 31.8935C209.667 31.6729 209.627 31.468 209.548 31.279C209.47 31.0741 209.351 30.9008 209.194 30.759C209.052 30.6172 208.879 30.5069 208.674 30.4281C208.469 30.3494 208.241 30.31 207.989 30.31C207.815 30.31 207.626 30.3257 207.421 30.3572C207.232 30.3887 207.027 30.4518 206.807 30.5463C206.586 30.6251 206.35 30.7354 206.098 30.8772V40.0236H203.498V28.1592H206.098V28.7028C206.24 28.6241 206.429 28.5295 206.665 28.4192C206.917 28.2932 207.193 28.1829 207.492 28.0883C207.807 27.9938 208.13 27.9465 208.461 27.9465C208.839 27.9465 209.21 27.9859 209.572 28.0647C209.934 28.1435 210.273 28.2695 210.588 28.4429C210.919 28.6162 211.203 28.8525 211.439 29.1519C211.691 29.4355 211.888 29.7979 212.03 30.2391C212.172 30.6802 212.243 31.2081 212.243 31.8226V40.0236H209.667V31.8935ZM216.924 36.8803C216.924 37.2269 216.995 37.5026 217.137 37.7075C217.279 37.8966 217.476 38.0305 217.728 38.1093C217.996 38.188 218.311 38.2274 218.673 38.2274L217.893 40.3072C216.696 40.2757 215.79 39.9764 215.175 39.4091C214.576 38.8262 214.277 37.9832 214.277 36.8803V23.456H216.924V28.1829H219.193L218.649 30.5699H216.924V36.8803ZM225.687 32.0825C225.687 31.6256 225.64 31.2475 225.545 30.9481C225.451 30.6487 225.301 30.4124 225.096 30.2391C224.891 30.0657 224.631 29.9397 224.316 29.8609C224.001 29.7821 223.615 29.7427 223.158 29.7427L223.371 27.9465C224.269 27.9465 225.025 28.0253 225.64 28.1829C226.27 28.3404 226.774 28.6083 227.152 28.9864C227.546 29.3488 227.83 29.8373 228.003 30.4518C228.192 31.0663 228.287 31.8304 228.287 32.7443V40C228.035 40.0315 227.775 40.063 227.507 40.0945C227.239 40.126 226.963 40.1497 226.68 40.1654C226.412 40.197 226.128 40.2127 225.829 40.2127C225.545 40.2285 225.254 40.2363 224.954 40.2363C224.655 40.2521 224.348 40.26 224.033 40.26C223.355 40.26 222.725 40.197 222.142 40.0709C221.559 39.9449 221.039 39.7321 220.582 39.4328C220.141 39.1177 219.794 38.708 219.542 38.2038C219.29 37.6996 219.164 37.0694 219.164 36.3131V34.0205C219.164 33.4218 219.251 32.9018 219.424 32.4607C219.597 32.0195 219.834 31.6571 220.133 31.3735C220.432 31.0899 220.771 30.8772 221.149 30.7354C221.543 30.5936 221.953 30.5227 222.378 30.5227C222.772 30.5227 223.182 30.5857 223.607 30.7117C224.033 30.822 224.427 30.9954 224.789 31.2317C225.167 31.4523 225.466 31.7359 225.687 32.0825ZM225.687 34.0205C225.608 33.9575 225.427 33.863 225.143 33.7369C224.876 33.6109 224.561 33.4927 224.198 33.3824C223.836 33.2564 223.473 33.1933 223.111 33.1933C222.938 33.1933 222.772 33.217 222.615 33.2642C222.457 33.2958 222.315 33.3588 222.189 33.4533C222.079 33.5321 221.984 33.6503 221.906 33.8078C221.843 33.9496 221.811 34.1308 221.811 34.3514V35.8876C221.811 36.187 221.835 36.4549 221.882 36.6912C221.945 36.9275 222.055 37.1324 222.213 37.3057C222.386 37.479 222.63 37.6129 222.945 37.7075C223.276 37.802 223.71 37.8493 224.245 37.8493C224.324 37.8493 224.419 37.8493 224.529 37.8493C224.655 37.8335 224.781 37.8256 224.907 37.8256C225.049 37.8099 225.175 37.802 225.285 37.802C225.411 37.7863 225.506 37.7784 225.569 37.7784C225.648 37.7626 225.687 37.7547 225.687 37.7547V34.0205ZM232.965 36.8803C232.965 37.2269 233.036 37.5026 233.178 37.7075C233.319 37.8966 233.516 38.0305 233.768 38.1093C234.036 38.188 234.351 38.2274 234.714 38.2274L233.934 40.3072C232.736 40.2757 231.83 39.9764 231.216 39.4091C230.617 38.8262 230.318 37.9832 230.318 36.8803V23.456H232.965V28.1829H235.234L234.69 30.5699H232.965V36.8803ZM237.152 40V28.1592H239.775V40H237.152ZM238.475 23.2197C238.869 23.2197 239.2 23.3457 239.468 23.5978C239.752 23.8499 239.893 24.1808 239.893 24.5905C239.893 24.9844 239.752 25.3231 239.468 25.6067C239.2 25.8746 238.869 26.0085 238.475 26.0085C238.082 26.0085 237.743 25.8746 237.459 25.6067C237.191 25.3231 237.057 24.9844 237.057 24.5905C237.057 24.1808 237.191 23.8499 237.459 23.5978C237.743 23.3457 238.082 23.2197 238.475 23.2197ZM250.528 35.6277C250.528 37.0142 250.174 38.1329 249.465 38.9837C248.756 39.8188 247.677 40.2363 246.227 40.2363C245.187 40.2363 244.336 40.0236 243.675 39.5982C243.029 39.157 242.548 38.5898 242.233 37.8966C241.934 37.1875 241.784 36.4312 241.784 35.6277V32.5079C241.784 31.4996 241.949 30.6566 242.28 29.9791C242.627 29.3016 243.131 28.7895 243.793 28.4429C244.454 28.0805 245.266 27.8993 246.227 27.8993C247.598 27.8993 248.654 28.3089 249.394 29.1282C250.15 29.9318 250.528 31.0584 250.528 32.5079V35.6277ZM247.858 32.3661C247.858 31.988 247.795 31.665 247.669 31.3971C247.543 31.1135 247.354 30.9008 247.102 30.759C246.865 30.6014 246.566 30.5227 246.203 30.5227C245.825 30.5227 245.502 30.5936 245.234 30.7354C244.982 30.8772 244.785 31.082 244.644 31.3499C244.502 31.6177 244.431 31.9565 244.431 32.3661V35.8167C244.431 36.1319 244.486 36.4312 244.596 36.7148C244.722 36.9985 244.919 37.2269 245.187 37.4002C245.455 37.5736 245.794 37.6602 246.203 37.6602C246.597 37.6602 246.912 37.5814 247.149 37.4239C247.401 37.2663 247.582 37.0457 247.692 36.7621C247.803 36.4785 247.858 36.1634 247.858 35.8167V32.3661ZM258.643 31.8935C258.643 31.6729 258.604 31.468 258.525 31.279C258.446 31.0741 258.328 30.9008 258.17 30.759C258.028 30.6172 257.855 30.5069 257.65 30.4281C257.446 30.3494 257.217 30.31 256.965 30.31C256.792 30.31 256.603 30.3257 256.398 30.3572C256.209 30.3887 256.004 30.4518 255.783 30.5463C255.563 30.6251 255.326 30.7354 255.074 30.8772V40.0236H252.474V28.1592H255.074V28.7028C255.216 28.6241 255.405 28.5295 255.641 28.4192C255.894 28.2932 256.169 28.1829 256.469 28.0883C256.784 27.9938 257.107 27.9465 257.438 27.9465C257.816 27.9465 258.186 27.9859 258.548 28.0647C258.911 28.1435 259.25 28.2695 259.565 28.4429C259.896 28.6162 260.179 28.8525 260.416 29.1519C260.668 29.4355 260.865 29.7979 261.006 30.2391C261.148 30.6802 261.219 31.2081 261.219 31.8226V40.0236H258.643V31.8935Z" fill="black"/>
<path d="M432.557 31.5303C432.85 31.2374 432.85 30.7626 432.557 30.4697L427.784 25.6967C427.491 25.4038 427.016 25.4038 426.723 25.6967C426.431 25.9896 426.431 26.4645 426.723 26.7574L430.966 31L426.723 35.2426C426.431 35.5355 426.431 36.0104 426.723 36.3033C427.016 36.5962 427.491 36.5962 427.784 36.3033L432.557 31.5303ZM431.008 31V31.75H432.027V31V30.25H431.008V31Z" fill="black"/>
<path fill-rule="evenodd" clip-rule="evenodd" d="M59.9808 25.7794C60.1791 25.862 60.3185 26.0576 60.3185 26.2858V32.988C60.3185 33.2162 60.179 33.4119 59.9806 33.4944L54.9273 36.0457C54.7372 36.1506 54.554 36.1506 54.3638 36.0457L49.2747 33.4764C49.0903 33.3834 48.9728 33.1948 48.9727 32.988V26.2858C48.9727 26.0576 49.1121 25.862 49.3104 25.7794L54.3992 23.2102C54.5603 23.129 54.7423 23.135 54.892 23.2102L59.9808 25.7794ZM47.1046 20.477H78.911V18.7801C78.911 16.7554 77.2524 15.0968 75.2278 15.0968H50.7879C48.7632 15.0968 47.1046 16.7554 47.1046 18.7801V20.477ZM78.911 21.5738H47.1046V43.22C47.1046 45.2446 48.7632 46.9032 50.7879 46.9032H75.2278C77.2524 46.9032 78.911 45.2446 78.911 43.2199V21.5738ZM71.0721 16.4721C72.4023 16.4721 73.0733 18.0881 72.1315 19.0299C71.1897 19.9717 69.5738 19.3006 69.5738 17.9705C69.5738 17.143 70.2447 16.4721 71.0721 16.4721ZM71.356 17.6865C71.5128 17.8432 71.5128 18.0977 71.356 18.2545C71.1039 18.5066 70.6705 18.3275 70.6705 17.9705C70.6705 17.6135 71.104 17.4343 71.356 17.6865ZM67.0995 16.4721C68.4298 16.4721 69.1007 18.0882 68.159 19.0299C67.2172 19.9717 65.6012 19.3006 65.6012 17.9705C65.6012 17.143 66.2722 16.4721 67.0995 16.4721ZM67.3835 17.6865C67.5403 17.8432 67.5403 18.0977 67.3835 18.2545C67.1315 18.5065 66.698 18.3275 66.698 17.9705C66.698 17.6134 67.1315 17.4343 67.3835 17.6865ZM50.0694 27.1754V32.6521L54.0971 34.6856V29.2088L50.0694 27.1754ZM55.1939 29.2088V34.6855L59.2217 32.652V27.1753L55.1939 29.2088ZM58.5563 26.2858L54.6455 24.3114L50.7347 26.2858L54.6455 28.2602L58.5563 26.2858ZM62.9116 35.457C62.6088 35.457 62.3633 35.2115 62.3633 34.9086C62.3633 34.6058 62.6088 34.3602 62.9116 34.3602H75.9602C76.263 34.3602 76.5086 34.6058 76.5086 34.9086C76.5086 35.2115 76.263 35.457 75.9602 35.457H62.9116ZM50.0554 39.3656C49.7525 39.3656 49.507 39.12 49.507 38.8172C49.507 38.5143 49.7525 38.2688 50.0554 38.2688H75.9602C76.263 38.2688 76.5086 38.5143 76.5086 38.8172C76.5086 39.12 76.263 39.3656 75.9602 39.3656H50.0554ZM50.0554 43.2742C49.7525 43.2742 49.507 43.0287 49.507 42.7258C49.507 42.423 49.7525 42.1774 50.0554 42.1774H75.9602C76.263 42.1774 76.5086 42.423 76.5086 42.7258C76.5086 43.0287 76.263 43.2742 75.9602 43.2742H50.0554ZM75.0446 16.4721C76.3748 16.4721 77.0458 18.0881 76.1041 19.0299C75.1623 19.9717 73.5463 19.3006 73.5463 17.9705C73.5463 17.143 74.2173 16.4721 75.0446 16.4721ZM75.3286 17.6865C75.4854 17.8432 75.4854 18.0977 75.3286 18.2545C75.0765 18.5066 74.6431 18.3275 74.6431 17.9705C74.6431 17.6135 75.0765 17.4343 75.3286 17.6865ZM62.8994 23.6802H76.6699C76.9728 23.6802 77.2183 23.9257 77.2183 24.2286V27.4098C77.2183 27.7127 76.9728 27.9582 76.6699 27.9582H62.8994C62.5966 27.9582 62.3511 27.7127 62.3511 27.4098V24.2286C62.3511 23.9257 62.5966 23.6802 62.8994 23.6802ZM76.1215 24.7769V26.8615H63.4478V24.7769H76.1215ZM62.9116 31.5484C62.6088 31.5484 62.3633 31.3028 62.3633 31C62.3633 30.6972 62.6088 30.4516 62.9116 30.4516H75.9602C76.263 30.4516 76.5086 30.6972 76.5086 31C76.5086 31.3028 76.263 31.5484 75.9602 31.5484H62.9116ZM50.7879 14C48.1577 14 46.0078 16.1499 46.0078 18.7801V43.22C46.0078 45.8501 48.1577 48 50.7879 48H75.2278C77.8579 48 80.0078 45.85 80.0078 43.2199V18.7801C80.0078 16.1499 77.8579 14 75.2278 14H50.7879Z" fill="#FF0000"/>
<defs>
<filter id="filter0_d_154_186" x="-7.53403e-05" y="0" width="497.016" height="103.564" filterUnits="userSpaceOnUse" color-interpolation-filters="sRGB">
<feFlood flood-opacity="0" result="BackgroundImageFix"/>
<feColorMatrix in="SourceAlpha" type="matrix" values="0 0 0 0 0 0 0 0 0 0 0 0 0 0 0 0 0 0 127 0" result="hardAlpha"/>
<feMorphology radius="14.7337" operator="erode" in="SourceAlpha" result="effect1_dropShadow_154_186"/>
<feOffset dy="24.5562"/>
<feGaussianBlur stdDeviation="16.3708"/>
<feColorMatrix type="matrix" values="0 0 0 0 0.583333 0 0 0 0 0.583333 0 0 0 0 0.583333 0 0 0 0.25 0"/>
<feBlend mode="normal" in2="BackgroundImageFix" result="effect1_dropShadow_154_186"/>
<feBlend mode="normal" in="SourceGraphic" in2="effect1_dropShadow_154_186" result="shape"/>
</filter>
</defs>
</svg>
