<svg width="34" height="34" viewBox="0 0 34 34" fill="none" xmlns="http://www.w3.org/2000/svg">
<path fill-rule="evenodd" clip-rule="evenodd" d="M13.973 11.7794C14.1713 11.862 14.3106 12.0576 14.3106 12.2858V18.988C14.3106 19.2162 14.1712 19.4119 13.9728 19.4944L8.91952 22.0457C8.72936 22.1506 8.5462 22.1506 8.35598 22.0457L3.26688 19.4764C3.08248 19.3834 2.96499 19.1948 2.96485 18.988V12.2858C2.96485 12.0576 3.10428 11.862 3.30259 11.7794L8.39142 9.21023C8.55244 9.129 8.7345 9.13496 8.88415 9.21023L13.973 11.7794ZM1.09677 6.477H32.9032V4.78009C32.9032 2.75537 31.2446 1.09677 29.22 1.09677H4.78009C2.75537 1.09677 1.09677 2.75537 1.09677 4.78009V6.477ZM32.9032 7.57377H1.09677V29.22C1.09677 31.2446 2.75537 32.9032 4.78009 32.9032H29.22C31.2446 32.9032 32.9032 31.2446 32.9032 29.2199V7.57377ZM25.0643 2.47213C26.3945 2.47213 27.0655 4.08809 26.1237 5.02988C25.1819 5.97166 23.566 5.30064 23.566 3.97046C23.566 3.14301 24.2369 2.47213 25.0643 2.47213ZM25.3482 3.68646C25.505 3.84323 25.505 4.09769 25.3482 4.25446C25.0961 4.50658 24.6627 4.32746 24.6627 3.97046C24.6627 3.61346 25.0962 3.43434 25.3482 3.68646ZM21.0917 2.47213C22.422 2.47213 23.0929 4.08816 22.1512 5.02988C21.2094 5.97166 19.5934 5.30064 19.5934 3.97046C19.5934 3.14301 20.2643 2.47213 21.0917 2.47213ZM21.3757 3.68646C21.5325 3.84323 21.5325 4.09769 21.3757 4.25446C21.1237 4.50651 20.6902 4.32746 20.6902 3.97046C20.6902 3.61339 21.1237 3.43434 21.3757 3.68646ZM4.06156 13.1754V18.6521L8.08933 20.6856V15.2088L4.06156 13.1754ZM9.1861 15.2088V20.6855L13.2139 18.652V13.1753L9.1861 15.2088ZM12.5485 12.2858L8.63771 10.3114L4.72689 12.2858L8.63771 14.2602L12.5485 12.2858ZM16.9038 21.457C16.601 21.457 16.3554 21.2115 16.3554 20.9086C16.3554 20.6058 16.601 20.3602 16.9038 20.3602H29.9524C30.2552 20.3602 30.5007 20.6058 30.5007 20.9086C30.5007 21.2115 30.2552 21.457 29.9524 21.457H16.9038ZM4.04758 25.3656C3.74473 25.3656 3.49919 25.12 3.49919 24.8172C3.49919 24.5143 3.74473 24.2688 4.04758 24.2688H29.9524C30.2552 24.2688 30.5007 24.5143 30.5007 24.8172C30.5007 25.12 30.2552 25.3656 29.9524 25.3656H4.04758ZM4.04758 29.2742C3.74473 29.2742 3.49919 29.0287 3.49919 28.7258C3.49919 28.423 3.74473 28.1774 4.04758 28.1774H29.9524C30.2552 28.1774 30.5007 28.423 30.5007 28.7258C30.5007 29.0287 30.2552 29.2742 29.9524 29.2742H4.04758ZM29.0368 2.47213C30.367 2.47213 31.038 4.08809 30.0962 5.02988C29.1545 5.97166 27.5385 5.30064 27.5385 3.97046C27.5385 3.14301 28.2094 2.47213 29.0368 2.47213ZM29.3208 3.68646C29.4776 3.84323 29.4776 4.09769 29.3208 4.25446C29.0687 4.50658 28.6353 4.32746 28.6353 3.97046C28.6353 3.61346 29.0687 3.43434 29.3208 3.68646ZM16.8916 9.6802H30.6621C30.965 9.6802 31.2105 9.92574 31.2105 10.2286V13.4098C31.2105 13.7127 30.965 13.9582 30.6621 13.9582H16.8916C16.5888 13.9582 16.3432 13.7127 16.3432 13.4098V10.2286C16.3432 9.92567 16.5888 9.6802 16.8916 9.6802ZM30.1136 10.7769V12.8615H17.44V10.7769H30.1136ZM16.9038 17.5484C16.601 17.5484 16.3554 17.3028 16.3554 17C16.3554 16.6972 16.601 16.4516 16.9038 16.4516H29.9524C30.2552 16.4516 30.5007 16.6972 30.5007 17C30.5007 17.3028 30.2552 17.5484 29.9524 17.5484H16.9038ZM4.78009 0C2.14988 0 0 2.14988 0 4.78009V29.22C0 31.8501 2.14988 34 4.78009 34H29.22C31.85 34 34 31.85 34 29.2199V4.78009C34 2.14988 31.8501 0 29.22 0H4.78009Z" fill="#FF0000"/>
</svg>
