<svg width="32" height="26" viewBox="0 0 32 26" fill="none" xmlns="http://www.w3.org/2000/svg">
<path d="M14.7558 20.1244H13.7879C13.8437 19.9345 13.8629 19.7357 13.8445 19.5386L13.703 17.9934C13.6895 17.8433 13.6169 17.7047 13.5012 17.6081C13.3855 17.5115 13.2362 17.4648 13.0861 17.4783C12.9359 17.4918 12.7973 17.5644 12.7008 17.6801C12.6042 17.7958 12.5575 17.9451 12.571 18.0953L12.7153 19.6433C12.7208 19.7043 12.7136 19.7657 12.694 19.8238C12.6745 19.8818 12.6431 19.9351 12.6019 19.9804C12.5606 20.0256 12.5104 20.0618 12.4544 20.0866C12.3984 20.1114 12.3379 20.1242 12.2767 20.1244H8.83536C8.72587 20.1248 8.62025 20.084 8.5395 20.01C8.45874 19.9361 8.40878 19.8345 8.39954 19.7254L7.75995 12.8767H9.37873L10.5107 13.1597C10.5535 13.1695 10.5971 13.1752 10.6409 13.1767H10.672C10.7249 13.1755 10.7773 13.1669 10.8277 13.1512C10.8785 13.1331 10.9262 13.1074 10.9692 13.0748L10.9947 13.0578C11.0348 13.0233 11.0709 12.9844 11.1022 12.9418L11.1192 12.9163C11.1495 12.8668 11.1733 12.8135 11.1899 12.7578C11.2256 12.6149 11.2042 12.4638 11.1302 12.3364C11.0562 12.2091 10.9355 12.1156 10.7937 12.0758L10.0211 11.872V4.16303L18.1009 2.06315V11.2721C18.1009 11.4222 18.1605 11.5661 18.2667 11.6723C18.3728 11.7784 18.5168 11.8381 18.6669 11.8381C18.817 11.8381 18.961 11.7784 19.0671 11.6723C19.1733 11.5661 19.2329 11.4222 19.2329 11.2721V1.78015L21.6356 1.15471C21.6918 1.13967 21.7508 1.13798 21.8078 1.14978C21.8648 1.16157 21.9182 1.18652 21.9639 1.22263C22.0089 1.25704 22.0458 1.30105 22.0717 1.35147C22.0977 1.40189 22.112 1.45745 22.1139 1.51412V14.5153C22.114 14.5735 22.1005 14.631 22.0744 14.683C22.0484 14.7351 22.0105 14.7804 21.9639 14.8153C21.9178 14.8516 21.8638 14.8767 21.8064 14.8885C21.7489 14.9003 21.6894 14.8985 21.6327 14.8832L18.8027 14.153L15.6897 13.3493L12.8257 12.6022H12.7861H12.7295H12.6163H12.571H12.5399H12.5059L12.4521 12.6248H12.4238H12.4069C12.3886 12.6341 12.3715 12.6455 12.3559 12.6588C12.343 12.6663 12.3307 12.6748 12.3191 12.6842L12.2795 12.7239L12.2484 12.7578C12.2471 12.7644 12.2471 12.7711 12.2484 12.7776L12.2314 12.8003C12.2314 12.8003 12.2116 12.8286 12.2031 12.8456C12.2036 12.8559 12.2036 12.8663 12.2031 12.8767L12.1889 12.9106C12.1889 12.9106 12.1889 12.9361 12.1889 12.9503C12.1889 12.9503 12.1889 12.9729 12.1889 12.9842C12.1876 12.9955 12.1876 13.0069 12.1889 13.0182C12.1874 13.0276 12.1874 13.0371 12.1889 13.0465C12.1875 13.0672 12.1875 13.088 12.1889 13.1087C12.1904 13.121 12.1904 13.1333 12.1889 13.1455L12.4719 16.0973C12.4847 16.2384 12.5499 16.3696 12.6547 16.4649C12.7595 16.5603 12.8963 16.6129 13.038 16.6123H13.0917C13.6984 16.5455 14.2773 16.3223 14.7719 15.9647C15.2665 15.607 15.6598 15.1271 15.9133 14.5719L18.5254 15.2483L21.3554 15.9784C21.5791 16.0384 21.8136 16.0456 22.0405 15.9994C22.2674 15.9533 22.4805 15.855 22.6629 15.7124C22.8457 15.5712 22.9934 15.3897 23.0945 15.1821C23.1956 14.9744 23.2474 14.7462 23.2459 14.5153V1.51412C23.2454 1.28285 23.1921 1.05474 23.09 0.847226C22.9879 0.639712 22.8397 0.458292 22.6568 0.316835C22.4738 0.175378 22.2609 0.0776307 22.0344 0.0310654C21.8079 -0.0154999 21.5737 -0.00964974 21.3497 0.0481685L18.5197 0.783976L9.37873 3.1612H8.01182C7.83858 2.58316 7.48208 2.07713 6.99609 1.71942C6.5101 1.36171 5.92097 1.17172 5.31756 1.17811C4.71416 1.1845 4.12919 1.38692 3.65088 1.75484C3.17257 2.12276 2.82686 2.63622 2.6659 3.2178C1.9169 3.35216 1.23917 3.74606 0.75166 4.33034C0.264153 4.91462 -0.00196755 5.65195 1.0953e-05 6.4129V9.62498C0.000760345 10.4872 0.34359 11.3138 0.95324 11.9235C1.56289 12.5331 2.38954 12.8759 3.25171 12.8767H6.62228L7.27318 19.8301C7.28143 19.926 7.29945 20.0208 7.32695 20.1131H5.69969C5.54957 20.1131 5.40561 20.1727 5.29946 20.2789C5.19332 20.385 5.13368 20.529 5.13368 20.6791C5.13368 20.8292 5.19332 20.9732 5.29946 21.0793C5.40561 21.1854 5.54957 21.2451 5.69969 21.2451H14.7558C14.9059 21.2451 15.0499 21.1854 15.156 21.0793C15.2622 20.9732 15.3218 20.8292 15.3218 20.6791C15.3218 20.529 15.2622 20.385 15.156 20.2789C15.0499 20.1727 14.9059 20.1131 14.7558 20.1131V20.1244ZM13.4625 15.4209L13.3889 14.6285L13.321 13.9012L14.7982 14.2832C14.5121 14.8171 14.0351 15.2234 13.4625 15.4209ZM5.34877 2.31219C5.56582 2.31215 5.78076 2.35487 5.9813 2.43791C6.18184 2.52094 6.36407 2.64266 6.51757 2.79613C6.62881 2.90372 6.72411 3.02665 6.80057 3.1612H3.90262C4.04578 2.90335 4.25545 2.68859 4.50979 2.53927C4.76412 2.38995 5.05384 2.31154 5.34877 2.31219ZM6.26569 7.72321V6.30819C6.26569 6.15808 6.20606 6.01411 6.09992 5.90796C5.99377 5.80182 5.8498 5.74219 5.69969 5.74219C5.54957 5.74219 5.40561 5.80182 5.29946 5.90796C5.19332 6.01411 5.13368 6.15808 5.13368 6.30819V11.7447H3.25171C2.68977 11.7439 2.15105 11.5204 1.75369 11.123C1.35634 10.7256 1.13277 10.1869 1.13202 9.62498V6.4129C1.13107 5.86113 1.34559 5.3308 1.72989 4.93487C2.11419 4.53893 2.6379 4.3087 3.18945 4.29321H8.88064V11.7447H6.26569V7.72321ZM31.3001 21.0243C31.1563 21.0247 31.0138 20.9968 30.8808 20.9421C30.7478 20.8874 30.6268 20.807 30.5249 20.7056C30.4229 20.6041 30.3419 20.4836 30.2865 20.3509C30.2311 20.2181 30.2024 20.0758 30.2021 19.9319C30.2021 19.7818 30.1424 19.6379 30.0363 19.5317C29.9302 19.4256 29.7862 19.3659 29.6361 19.3659H23.3477C23.1976 19.3659 23.0537 19.4256 22.9475 19.5317C22.8414 19.6379 22.7817 19.7818 22.7817 19.9319C22.7817 20.0821 22.8414 20.226 22.9475 20.3322C23.0537 20.4383 23.1976 20.498 23.3477 20.498H29.1436C29.2453 20.8793 29.4459 21.227 29.7252 21.5058C30.0045 21.7846 30.3526 21.9847 30.7341 22.0856V23.0054C30.3523 23.1058 30.004 23.3056 29.7246 23.5845C29.4452 23.8634 29.2447 24.2114 29.1436 24.593H21.8309C21.73 24.2113 21.5297 23.8631 21.2502 23.5842C20.9708 23.3053 20.6223 23.1055 20.2404 23.0054V22.0969C20.716 21.9714 21.1369 21.6922 21.4373 21.3027C21.7378 20.9132 21.901 20.4352 21.9016 19.9433C21.9016 19.7932 21.842 19.6492 21.7358 19.543C21.6297 19.4369 21.4857 19.3773 21.3356 19.3773C21.1855 19.3773 21.0415 19.4369 20.9354 19.543C20.8292 19.6492 20.7696 19.7932 20.7696 19.9433C20.7666 20.2315 20.6498 20.5069 20.4447 20.7094C20.2395 20.9119 19.9626 21.0251 19.6744 21.0243C19.5243 21.0243 19.3803 21.084 19.2741 21.1901C19.168 21.2963 19.1084 21.4402 19.1084 21.5903V23.4893C19.1084 23.6394 19.168 23.7834 19.2741 23.8895C19.3803 23.9957 19.5243 24.0553 19.6744 24.0553C19.9648 24.0553 20.2434 24.1707 20.4488 24.3761C20.6542 24.5815 20.7696 24.8601 20.7696 25.1505C20.7696 25.3006 20.8292 25.4446 20.9354 25.5507C21.0415 25.6569 21.1855 25.7165 21.3356 25.7165H29.6361C29.7862 25.7165 29.9302 25.6569 30.0363 25.5507C30.1424 25.4446 30.2021 25.3006 30.2021 25.1505C30.2028 24.8598 30.3188 24.5812 30.5247 24.3759C30.7305 24.1706 31.0094 24.0553 31.3001 24.0553C31.4502 24.0553 31.5942 23.9957 31.7004 23.8895C31.8065 23.7834 31.8661 23.6394 31.8661 23.4893V21.5903C31.8661 21.4402 31.8065 21.2963 31.7004 21.1901C31.5942 21.084 31.4502 21.0243 31.3001 21.0243Z" fill="#FF0000"/>
</svg>
