<svg width="4" height="4" viewBox="0 0 4 4" fill="none" xmlns="http://www.w3.org/2000/svg">
<path d="M1.75179 1.13201C1.91616 1.13201 2.0738 1.19731 2.19004 1.31354C2.30627 1.42977 2.37157 1.58741 2.37157 1.75179C2.37157 1.9019 2.4312 2.04587 2.53734 2.15202C2.64349 2.25816 2.78746 2.31779 2.93757 2.31779C3.08768 2.31779 3.23165 2.25816 3.3378 2.15202C3.44394 2.04587 3.50358 1.9019 3.50358 1.75179C3.50358 1.40532 3.40084 1.06663 3.20835 0.778547C3.01586 0.490467 2.74227 0.265935 2.42217 0.133347C2.10207 0.000757959 1.74984 -0.0339318 1.41003 0.0336613C1.07022 0.101254 0.758079 0.268096 0.513087 0.513088C0.268095 0.758079 0.101254 1.07022 0.0336607 1.41003C-0.0339324 1.74984 0.000759562 2.10207 0.133348 2.42217C0.265937 2.74227 0.490467 3.01586 0.778547 3.20835C1.06663 3.40084 1.40532 3.50357 1.75179 3.50357C1.9019 3.50357 2.04587 3.44394 2.15201 3.3378C2.25816 3.23165 2.31779 3.08768 2.31779 2.93757C2.31779 2.78745 2.25816 2.64349 2.15201 2.53734C2.04587 2.4312 1.9019 2.37156 1.75179 2.37156C1.58741 2.37156 1.42977 2.30627 1.31354 2.19004C1.19731 2.07381 1.13201 1.91616 1.13201 1.75179C1.13201 1.58741 1.19731 1.42977 1.31354 1.31354C1.42977 1.19731 1.58741 1.13201 1.75179 1.13201Z" fill="#FF0000"/>
</svg>
