<svg width="489" height="118" viewBox="0 0 489 118" fill="none" xmlns="http://www.w3.org/2000/svg">
<g filter="url(#filter0_d_160_726)">
<rect x="14.813" width="459" height="82.2581" rx="4.03989" fill="white"/>
</g>
<path opacity="0.88" d="M82.6734 40.7683H80.7069C80.6508 40.4458 80.5474 40.1601 80.3967 39.9112C80.2459 39.6588 80.0584 39.445 79.8341 39.2697C79.6097 39.0945 79.3538 38.963 79.0664 38.8754C78.7825 38.7842 78.4758 38.7387 78.1463 38.7387C77.5609 38.7387 77.0421 38.8859 76.5899 39.1803C76.1377 39.4713 75.7837 39.8989 75.5278 40.4633C75.2719 41.0241 75.144 41.7094 75.144 42.5192C75.144 43.3429 75.2719 44.037 75.5278 44.6013C75.7872 45.1622 76.1412 45.5863 76.5899 45.8737C77.0421 46.1577 77.5591 46.2996 78.141 46.2996C78.4635 46.2996 78.765 46.2576 79.0454 46.1734C79.3293 46.0858 79.5834 45.9579 79.8078 45.7896C80.0356 45.6214 80.2267 45.4145 80.3809 45.1692C80.5386 44.9238 80.6473 44.6434 80.7069 44.3279L82.6734 44.3384C82.5998 44.8502 82.4403 45.3304 82.1949 45.7791C81.953 46.2278 81.6358 46.6239 81.2432 46.9674C80.8506 47.3074 80.3914 47.5738 79.8656 47.7666C79.3398 47.9559 78.7562 48.0505 78.1147 48.0505C77.1683 48.0505 76.3235 47.8315 75.5804 47.3933C74.8372 46.9551 74.2519 46.3224 73.8242 45.4952C73.3966 44.6679 73.1827 43.6759 73.1827 42.5192C73.1827 41.3589 73.3983 40.3669 73.8295 39.5431C74.2606 38.7159 74.8478 38.0832 75.5909 37.645C76.334 37.2069 77.1753 36.9878 78.1147 36.9878C78.7141 36.9878 79.2715 37.0719 79.7868 37.2402C80.302 37.4084 80.7612 37.6555 81.1643 37.9815C81.5675 38.304 81.8987 38.7001 82.1581 39.1698C82.421 39.636 82.5928 40.1688 82.6734 40.7683ZM86.6997 48.0663C86.1879 48.0663 85.7269 47.9752 85.3168 47.7929C84.9102 47.6071 84.5877 47.3337 84.3494 46.9727C84.1145 46.6116 83.9971 46.1664 83.9971 45.6371C83.9971 45.1814 84.0812 44.8046 84.2495 44.5067C84.4177 44.2087 84.6473 43.9704 84.9383 43.7916C85.2292 43.6128 85.5569 43.4779 85.9215 43.3867C86.2896 43.2921 86.6699 43.2237 87.0625 43.1817C87.5357 43.1326 87.9195 43.0888 88.214 43.0502C88.5084 43.0081 88.7222 42.9451 88.8554 42.8609C88.9921 42.7733 89.0605 42.6383 89.0605 42.4561V42.4245C89.0605 42.0284 88.9431 41.7217 88.7082 41.5044C88.4734 41.287 88.1351 41.1784 87.6934 41.1784C87.2272 41.1784 86.8574 41.28 86.584 41.4833C86.3141 41.6866 86.1318 41.9268 86.0372 42.2037L84.26 41.9513C84.4002 41.4606 84.6315 41.0504 84.954 40.7209C85.2765 40.3879 85.6709 40.139 86.1371 39.9743C86.6033 39.806 87.1186 39.7219 87.6829 39.7219C88.072 39.7219 88.4593 39.7675 88.8449 39.8586C89.2305 39.9498 89.5828 40.1005 89.9018 40.3108C90.2208 40.5176 90.4767 40.7998 90.6694 41.1573C90.8657 41.5149 90.9639 41.9618 90.9639 42.4981V47.9033H89.1341V46.7939H89.071C88.9553 47.0182 88.7923 47.2285 88.582 47.4248C88.3752 47.6176 88.1141 47.7736 87.7986 47.8928C87.4866 48.0085 87.1203 48.0663 86.6997 48.0663ZM87.1939 46.6677C87.576 46.6677 87.9073 46.5923 88.1877 46.4416C88.4681 46.2874 88.6837 46.0841 88.8344 45.8317C88.9886 45.5793 89.0658 45.3041 89.0658 45.0062V44.0545C89.0062 44.1036 88.9045 44.1491 88.7608 44.1912C88.6206 44.2333 88.4628 44.2701 88.2876 44.3016C88.1123 44.3332 87.9388 44.3612 87.767 44.3857C87.5953 44.4103 87.4463 44.4313 87.3201 44.4488C87.0362 44.4874 86.782 44.5505 86.5577 44.6381C86.3334 44.7258 86.1563 44.8484 86.0267 45.0062C85.897 45.1604 85.8321 45.3602 85.8321 45.6056C85.8321 45.9561 85.9601 46.2208 86.2159 46.3995C86.4718 46.5783 86.7978 46.6677 87.1939 46.6677ZM94.7812 43.1711V47.9033H92.8778V39.8271H94.697V41.1994H94.7917C94.9775 40.7472 95.2737 40.3879 95.6803 40.1215C96.0904 39.8551 96.5969 39.7219 97.1998 39.7219C97.7572 39.7219 98.2427 39.8411 98.6563 40.0795C99.0734 40.3178 99.3959 40.6631 99.6238 41.1153C99.8551 41.5675 99.969 42.116 99.9655 42.761V47.9033H98.0622V43.0555C98.0622 42.5157 97.9219 42.0933 97.6415 41.7883C97.3646 41.4833 96.9808 41.3309 96.49 41.3309C96.157 41.3309 95.8608 41.4045 95.6014 41.5517C95.3455 41.6954 95.144 41.904 94.9968 42.1774C94.853 42.4508 94.7812 42.7821 94.7812 43.1711ZM105.457 47.9033V46.6887L110.978 38.7702H105.426V37.135H113.397V38.3496L107.881 46.2681H113.429V47.9033H105.457ZM115.316 47.9033V37.135H122.215V38.7702H117.267V41.6937H121.741V43.3289H117.267V47.9033H115.316ZM136.882 40.7683H134.915C134.859 40.4458 134.756 40.1601 134.605 39.9112C134.454 39.6588 134.267 39.445 134.042 39.2697C133.818 39.0945 133.562 38.963 133.275 38.8754C132.991 38.7842 132.684 38.7387 132.355 38.7387C131.769 38.7387 131.25 38.8859 130.798 39.1803C130.346 39.4713 129.992 39.8989 129.736 40.4633C129.48 41.0241 129.352 41.7094 129.352 42.5192C129.352 43.3429 129.48 44.037 129.736 44.6013C129.996 45.1622 130.35 45.5863 130.798 45.8737C131.25 46.1577 131.768 46.2996 132.349 46.2996C132.672 46.2996 132.973 46.2576 133.254 46.1734C133.538 46.0858 133.792 45.9579 134.016 45.7896C134.244 45.6214 134.435 45.4145 134.589 45.1692C134.747 44.9238 134.856 44.6434 134.915 44.3279L136.882 44.3384C136.808 44.8502 136.649 45.3304 136.403 45.7791C136.161 46.2278 135.844 46.6239 135.452 46.9674C135.059 47.3074 134.6 47.5738 134.074 47.7666C133.548 47.9559 132.965 48.0505 132.323 48.0505C131.377 48.0505 130.532 47.8315 129.789 47.3933C129.046 46.9551 128.46 46.3224 128.033 45.4952C127.605 44.6679 127.391 43.6759 127.391 42.5192C127.391 41.3589 127.607 40.3669 128.038 39.5431C128.469 38.7159 129.056 38.0832 129.799 37.645C130.542 37.2069 131.384 36.9878 132.323 36.9878C132.923 36.9878 133.48 37.0719 133.995 37.2402C134.51 37.4084 134.97 37.6555 135.373 37.9815C135.776 38.304 136.107 38.7001 136.366 39.1698C136.629 39.636 136.801 40.1688 136.882 40.7683ZM140.908 48.0663C140.396 48.0663 139.935 47.9752 139.525 47.7929C139.119 47.6071 138.796 47.3337 138.558 46.9727C138.323 46.6116 138.205 46.1664 138.205 45.6371C138.205 45.1814 138.29 44.8046 138.458 44.5067C138.626 44.2087 138.856 43.9704 139.147 43.7916C139.438 43.6128 139.765 43.4779 140.13 43.3867C140.498 43.2921 140.878 43.2237 141.271 43.1817C141.744 43.1326 142.128 43.0888 142.422 43.0502C142.717 43.0081 142.931 42.9451 143.064 42.8609C143.201 42.7733 143.269 42.6383 143.269 42.4561V42.4245C143.269 42.0284 143.151 41.7217 142.917 41.5044C142.682 41.287 142.343 41.1784 141.902 41.1784C141.436 41.1784 141.066 41.28 140.792 41.4833C140.522 41.6866 140.34 41.9268 140.246 42.2037L138.468 41.9513C138.609 41.4606 138.84 41.0504 139.162 40.7209C139.485 40.3879 139.879 40.139 140.345 39.9743C140.812 39.806 141.327 39.7219 141.891 39.7219C142.28 39.7219 142.668 39.7675 143.053 39.8586C143.439 39.9498 143.791 40.1005 144.11 40.3108C144.429 40.5176 144.685 40.7998 144.878 41.1573C145.074 41.5149 145.172 41.9618 145.172 42.4981V47.9033H143.342V46.7939H143.279C143.164 47.0182 143.001 47.2285 142.79 47.4248C142.584 47.6176 142.322 47.7736 142.007 47.8928C141.695 48.0085 141.329 48.0663 140.908 48.0663ZM141.402 46.6677C141.784 46.6677 142.116 46.5923 142.396 46.4416C142.676 46.2874 142.892 46.0841 143.043 45.8317C143.197 45.5793 143.274 45.3041 143.274 45.0062V44.0545C143.215 44.1036 143.113 44.1491 142.969 44.1912C142.829 44.2333 142.671 44.2701 142.496 44.3016C142.321 44.3332 142.147 44.3612 141.975 44.3857C141.804 44.4103 141.655 44.4313 141.528 44.4488C141.245 44.4874 140.99 44.5505 140.766 44.6381C140.542 44.7258 140.365 44.8484 140.235 45.0062C140.105 45.1604 140.04 45.3602 140.04 45.6056C140.04 45.9561 140.168 46.2208 140.424 46.3995C140.68 46.5783 141.006 46.6677 141.402 46.6677ZM148.99 43.1711V47.9033H147.086V39.8271H148.905V41.1994H149C149.186 40.7472 149.482 40.3879 149.889 40.1215C150.299 39.8551 150.805 39.7219 151.408 39.7219C151.966 39.7219 152.451 39.8411 152.865 40.0795C153.282 40.3178 153.604 40.6631 153.832 41.1153C154.064 41.5675 154.177 42.116 154.174 42.761V47.9033H152.271V43.0555C152.271 42.5157 152.13 42.0933 151.85 41.7883C151.573 41.4833 151.189 41.3309 150.698 41.3309C150.365 41.3309 150.069 41.4045 149.81 41.5517C149.554 41.6954 149.352 41.904 149.205 42.1774C149.061 42.4508 148.99 42.7821 148.99 43.1711ZM158.433 48.0663C157.921 48.0663 157.46 47.9752 157.05 47.7929C156.643 47.6071 156.321 47.3337 156.083 46.9727C155.848 46.6116 155.73 46.1664 155.73 45.6371C155.73 45.1814 155.814 44.8046 155.983 44.5067C156.151 44.2087 156.381 43.9704 156.671 43.7916C156.962 43.6128 157.29 43.4779 157.655 43.3867C158.023 43.2921 158.403 43.2237 158.796 43.1817C159.269 43.1326 159.653 43.0888 159.947 43.0502C160.242 43.0081 160.455 42.9451 160.589 42.8609C160.725 42.7733 160.794 42.6383 160.794 42.4561V42.4245C160.794 42.0284 160.676 41.7217 160.441 41.5044C160.207 41.287 159.868 41.1784 159.427 41.1784C158.96 41.1784 158.591 41.28 158.317 41.4833C158.047 41.6866 157.865 41.9268 157.77 42.2037L155.993 41.9513C156.133 41.4606 156.365 41.0504 156.687 40.7209C157.01 40.3879 157.404 40.139 157.87 39.9743C158.336 39.806 158.852 39.7219 159.416 39.7219C159.805 39.7219 160.193 39.7675 160.578 39.8586C160.964 39.9498 161.316 40.1005 161.635 40.3108C161.954 40.5176 162.21 40.7998 162.403 41.1573C162.599 41.5149 162.697 41.9618 162.697 42.4981V47.9033H160.867V46.7939H160.804C160.689 47.0182 160.526 47.2285 160.315 47.4248C160.108 47.6176 159.847 47.7736 159.532 47.8928C159.22 48.0085 158.854 48.0663 158.433 48.0663ZM158.927 46.6677C159.309 46.6677 159.64 46.5923 159.921 46.4416C160.201 46.2874 160.417 46.0841 160.568 45.8317C160.722 45.5793 160.799 45.3041 160.799 45.0062V44.0545C160.739 44.1036 160.638 44.1491 160.494 44.1912C160.354 44.2333 160.196 44.2701 160.021 44.3016C159.846 44.3332 159.672 44.3612 159.5 44.3857C159.328 44.4103 159.18 44.4313 159.053 44.4488C158.769 44.4874 158.515 44.5505 158.291 44.6381C158.067 44.7258 157.89 44.8484 157.76 45.0062C157.63 45.1604 157.565 45.3602 157.565 45.6056C157.565 45.9561 157.693 46.2208 157.949 46.3995C158.205 46.5783 158.531 46.6677 158.927 46.6677ZM167.608 48.0453C166.974 48.0453 166.406 47.8823 165.904 47.5563C165.403 47.2303 165.007 46.7571 164.716 46.1366C164.425 45.5162 164.28 44.7626 164.28 43.8757C164.28 42.9784 164.427 42.2212 164.721 41.6043C165.019 40.9838 165.421 40.5159 165.925 40.2004C166.43 39.8814 166.993 39.7219 167.613 39.7219C168.087 39.7219 168.476 39.8025 168.781 39.9638C169.086 40.1215 169.327 40.3126 169.506 40.5369C169.685 40.7577 169.823 40.9663 169.922 41.1626H170V37.135H171.909V47.9033H170.037V46.6309H169.922C169.823 46.8272 169.681 47.0358 169.496 47.2566C169.31 47.4739 169.065 47.6597 168.76 47.8139C168.455 47.9682 168.071 48.0453 167.608 48.0453ZM168.139 46.4837C168.542 46.4837 168.886 46.375 169.17 46.1577C169.454 45.9368 169.669 45.6301 169.816 45.2375C169.964 44.8449 170.037 44.3875 170.037 43.8652C170.037 43.3429 169.964 42.889 169.816 42.5034C169.673 42.1178 169.459 41.8181 169.175 41.6043C168.894 41.3904 168.549 41.2835 168.139 41.2835C167.715 41.2835 167.361 41.3939 167.077 41.6148C166.793 41.8356 166.579 42.1406 166.436 42.5297C166.292 42.9188 166.22 43.3639 166.22 43.8652C166.22 44.37 166.292 44.8204 166.436 45.2165C166.583 45.6091 166.798 45.9193 167.082 46.1472C167.37 46.3715 167.722 46.4837 168.139 46.4837ZM176.261 48.0663C175.75 48.0663 175.289 47.9752 174.879 47.7929C174.472 47.6071 174.149 47.3337 173.911 46.9727C173.676 46.6116 173.559 46.1664 173.559 45.6371C173.559 45.1814 173.643 44.8046 173.811 44.5067C173.979 44.2087 174.209 43.9704 174.5 43.7916C174.791 43.6128 175.119 43.4779 175.483 43.3867C175.851 43.2921 176.232 43.2237 176.624 43.1817C177.097 43.1326 177.481 43.0888 177.776 43.0502C178.07 43.0081 178.284 42.9451 178.417 42.8609C178.554 42.7733 178.622 42.6383 178.622 42.4561V42.4245C178.622 42.0284 178.505 41.7217 178.27 41.5044C178.035 41.287 177.697 41.1784 177.255 41.1784C176.789 41.1784 176.419 41.28 176.146 41.4833C175.876 41.6866 175.693 41.9268 175.599 42.2037L173.822 41.9513C173.962 41.4606 174.193 41.0504 174.516 40.7209C174.838 40.3879 175.233 40.139 175.699 39.9743C176.165 39.806 176.68 39.7219 177.245 39.7219C177.634 39.7219 178.021 39.7675 178.407 39.8586C178.792 39.9498 179.144 40.1005 179.463 40.3108C179.782 40.5176 180.038 40.7998 180.231 41.1573C180.427 41.5149 180.526 41.9618 180.526 42.4981V47.9033H178.696V46.7939H178.633C178.517 47.0182 178.354 47.2285 178.144 47.4248C177.937 47.6176 177.676 47.7736 177.36 47.8928C177.048 48.0085 176.682 48.0663 176.261 48.0663ZM176.756 46.6677C177.138 46.6677 177.469 46.5923 177.749 46.4416C178.03 46.2874 178.245 46.0841 178.396 45.8317C178.55 45.5793 178.627 45.3041 178.627 45.0062V44.0545C178.568 44.1036 178.466 44.1491 178.322 44.1912C178.182 44.2333 178.025 44.2701 177.849 44.3016C177.674 44.3332 177.5 44.3612 177.329 44.3857C177.157 44.4103 177.008 44.4313 176.882 44.4488C176.598 44.4874 176.344 44.5505 176.119 44.6381C175.895 44.7258 175.718 44.8484 175.588 45.0062C175.459 45.1604 175.394 45.3602 175.394 45.6056C175.394 45.9561 175.522 46.2208 175.778 46.3995C176.034 46.5783 176.36 46.6677 176.756 46.6677ZM188.016 43.1711V47.9033H186.112V37.135H187.973V41.1994H188.068C188.257 40.7437 188.55 40.3844 188.946 40.1215C189.346 39.8551 189.854 39.7219 190.471 39.7219C191.032 39.7219 191.521 39.8393 191.938 40.0742C192.355 40.3091 192.678 40.6526 192.905 41.1048C193.137 41.5569 193.252 42.109 193.252 42.761V47.9033H191.349V43.0555C191.349 42.5121 191.209 42.0898 190.928 41.7883C190.652 41.4833 190.262 41.3309 189.761 41.3309C189.425 41.3309 189.123 41.4045 188.857 41.5517C188.594 41.6954 188.387 41.904 188.236 42.1774C188.089 42.4508 188.016 42.7821 188.016 43.1711ZM198.768 48.0611C197.958 48.0611 197.259 47.8928 196.67 47.5563C196.085 47.2163 195.634 46.7361 195.319 46.1156C195.003 45.4917 194.846 44.7573 194.846 43.9125C194.846 43.0818 195.003 42.3527 195.319 41.7252C195.638 41.0942 196.083 40.6035 196.654 40.253C197.226 39.8989 197.897 39.7219 198.668 39.7219C199.166 39.7219 199.636 39.8025 200.077 39.9638C200.523 40.1215 200.915 40.3669 201.255 40.6999C201.599 41.0329 201.869 41.457 202.065 41.9723C202.261 42.4841 202.359 43.094 202.359 43.8021V44.3857H195.74V43.1028H200.535C200.531 42.7382 200.452 42.414 200.298 42.1301C200.144 41.8426 199.928 41.6165 199.651 41.4518C199.378 41.287 199.059 41.2047 198.694 41.2047C198.305 41.2047 197.964 41.2993 197.669 41.4886C197.375 41.6744 197.145 41.9197 196.98 42.2247C196.819 42.5262 196.737 42.8574 196.733 43.2185V44.3384C196.733 44.8081 196.819 45.2112 196.991 45.5477C197.163 45.8808 197.403 46.1366 197.711 46.3154C198.02 46.4907 198.381 46.5783 198.794 46.5783C199.071 46.5783 199.322 46.5398 199.546 46.4626C199.771 46.382 199.965 46.2646 200.13 46.1104C200.295 45.9561 200.419 45.7651 200.503 45.5372L202.28 45.737C202.168 46.2067 201.954 46.6169 201.639 46.9674C201.327 47.3144 200.927 47.5843 200.44 47.7771C199.953 47.9664 199.396 48.0611 198.768 48.0611ZM205.873 37.135V47.9033H203.97V37.135H205.873ZM207.83 50.9319V39.8271H209.702V41.1626H209.812C209.911 40.9663 210.049 40.7577 210.228 40.5369C210.407 40.3126 210.648 40.1215 210.953 39.9638C211.258 39.8025 211.648 39.7219 212.121 39.7219C212.745 39.7219 213.307 39.8814 213.809 40.2004C214.313 40.5159 214.713 40.9838 215.007 41.6043C215.305 42.2212 215.454 42.9784 215.454 43.8757C215.454 44.7626 215.309 45.5162 215.018 46.1366C214.727 46.7571 214.331 47.2303 213.83 47.5563C213.328 47.8823 212.76 48.0453 212.126 48.0453C211.663 48.0453 211.279 47.9682 210.974 47.8139C210.67 47.6597 210.424 47.4739 210.238 47.2566C210.056 47.0358 209.914 46.8272 209.812 46.6309H209.734V50.9319H207.83ZM209.697 43.8652C209.697 44.3875 209.77 44.8449 209.918 45.2375C210.068 45.6301 210.284 45.9368 210.564 46.1577C210.848 46.375 211.192 46.4837 211.595 46.4837C212.016 46.4837 212.368 46.3715 212.652 46.1472C212.936 45.9193 213.15 45.6091 213.293 45.2165C213.44 44.8204 213.514 44.37 213.514 43.8652C213.514 43.3639 213.442 42.9188 213.299 42.5297C213.155 42.1406 212.941 41.8356 212.657 41.6148C212.373 41.3939 212.019 41.2835 211.595 41.2835C211.188 41.2835 210.843 41.3904 210.559 41.6043C210.275 41.8181 210.06 42.1178 209.912 42.5034C209.769 42.889 209.697 43.3429 209.697 43.8652ZM222.424 47.9033L220.142 39.8271H222.082L223.502 45.5057H223.575L225.026 39.8271H226.946L228.397 45.4741H228.476L229.874 39.8271H231.82L229.533 47.9033H227.55L226.036 42.4455H225.926L224.411 47.9033H222.424ZM233.149 47.9033V39.8271H235.052V47.9033H233.149ZM234.106 38.6808C233.804 38.6808 233.545 38.5809 233.327 38.3811C233.11 38.1778 233.001 37.9342 233.001 37.6503C233.001 37.3628 233.11 37.1192 233.327 36.9194C233.545 36.7161 233.804 36.6145 234.106 36.6145C234.411 36.6145 234.67 36.7161 234.884 36.9194C235.101 37.1192 235.21 37.3628 235.21 37.6503C235.21 37.9342 235.101 38.1778 234.884 38.3811C234.67 38.5809 234.411 38.6808 234.106 38.6808ZM241.042 39.8271V41.2993H236.399V39.8271H241.042ZM237.546 37.8921H239.449V45.4741C239.449 45.73 239.488 45.9263 239.565 46.063C239.645 46.1962 239.75 46.2874 239.88 46.3364C240.01 46.3855 240.154 46.4101 240.311 46.4101C240.431 46.4101 240.539 46.4013 240.637 46.3838C240.739 46.3662 240.816 46.3505 240.869 46.3364L241.189 47.8245C241.088 47.8595 240.942 47.8981 240.753 47.9401C240.567 47.9822 240.339 48.0067 240.069 48.0137C239.593 48.0278 239.163 47.9559 238.781 47.7982C238.399 47.6369 238.096 47.388 237.872 47.0515C237.651 46.715 237.542 46.2944 237.546 45.7896V37.8921ZM244.711 43.1711V47.9033H242.808V37.135H244.669V41.1994H244.764C244.953 40.7437 245.246 40.3844 245.642 40.1215C246.041 39.8551 246.549 39.7219 247.166 39.7219C247.727 39.7219 248.216 39.8393 248.633 40.0742C249.051 40.3091 249.373 40.6526 249.601 41.1048C249.832 41.5569 249.948 42.109 249.948 42.761V47.9033H248.045V43.0555C248.045 42.5121 247.904 42.0898 247.624 41.7883C247.347 41.4833 246.958 41.3309 246.457 41.3309C246.12 41.3309 245.819 41.4045 245.552 41.5517C245.289 41.6954 245.083 41.904 244.932 42.1774C244.785 42.4508 244.711 42.7821 244.711 43.1711ZM262.775 39.8271L259.899 47.9033H257.795L254.919 39.8271H256.949L258.805 45.8264H258.889L260.75 39.8271H262.775ZM264.092 47.9033V39.8271H265.995V47.9033H264.092ZM265.049 38.6808C264.747 38.6808 264.488 38.5809 264.271 38.3811C264.053 38.1778 263.945 37.9342 263.945 37.6503C263.945 37.3628 264.053 37.1192 264.271 36.9194C264.488 36.7161 264.747 36.6145 265.049 36.6145C265.354 36.6145 265.613 36.7161 265.827 36.9194C266.044 37.1192 266.153 37.3628 266.153 37.6503C266.153 37.9342 266.044 38.1778 265.827 38.3811C265.613 38.5809 265.354 38.6808 265.049 38.6808ZM274.336 41.9618L272.601 42.1511C272.551 41.9758 272.466 41.8111 272.343 41.6568C272.224 41.5026 272.062 41.3782 271.859 41.2835C271.656 41.1889 271.407 41.1416 271.113 41.1416C270.716 41.1416 270.383 41.2274 270.114 41.3992C269.847 41.571 269.716 41.7936 269.719 42.067C269.716 42.3018 269.802 42.4929 269.977 42.6401C270.156 42.7873 270.45 42.9082 270.86 43.0029L272.238 43.2973C273.002 43.4621 273.57 43.7232 273.941 44.0808C274.316 44.4383 274.506 44.9063 274.509 45.4847C274.506 45.9929 274.357 46.4416 274.062 46.8307C273.771 47.2163 273.366 47.5177 272.848 47.7351C272.329 47.9524 271.733 48.0611 271.06 48.0611C270.071 48.0611 269.276 47.8542 268.673 47.4406C268.07 47.0235 267.711 46.4434 267.595 45.7002L269.451 45.5215C269.535 45.886 269.714 46.1612 269.987 46.347C270.261 46.5327 270.617 46.6256 271.055 46.6256C271.507 46.6256 271.87 46.5327 272.143 46.347C272.42 46.1612 272.559 45.9316 272.559 45.6582C272.559 45.4268 272.469 45.2358 272.29 45.085C272.115 44.9343 271.842 44.8186 271.47 44.738L270.093 44.4488C269.318 44.2876 268.745 44.0159 268.373 43.6338C268.002 43.2483 267.818 42.761 267.821 42.1721C267.818 41.6744 267.953 41.2432 268.226 40.8787C268.503 40.5106 268.887 40.2267 269.377 40.0269C269.872 39.8236 270.441 39.7219 271.086 39.7219C272.033 39.7219 272.778 39.9235 273.321 40.3266C273.868 40.7297 274.206 41.2748 274.336 41.9618ZM278.403 48.0663C277.891 48.0663 277.43 47.9752 277.02 47.7929C276.613 47.6071 276.291 47.3337 276.052 46.9727C275.818 46.6116 275.7 46.1664 275.7 45.6371C275.7 45.1814 275.784 44.8046 275.953 44.5067C276.121 44.2087 276.35 43.9704 276.641 43.7916C276.932 43.6128 277.26 43.4779 277.625 43.3867C277.993 43.2921 278.373 43.2237 278.766 43.1817C279.239 43.1326 279.623 43.0888 279.917 43.0502C280.211 43.0081 280.425 42.9451 280.558 42.8609C280.695 42.7733 280.764 42.6383 280.764 42.4561V42.4245C280.764 42.0284 280.646 41.7217 280.411 41.5044C280.176 41.287 279.838 41.1784 279.396 41.1784C278.93 41.1784 278.56 41.28 278.287 41.4833C278.017 41.6866 277.835 41.9268 277.74 42.2037L275.963 41.9513C276.103 41.4606 276.335 41.0504 276.657 40.7209C276.98 40.3879 277.374 40.139 277.84 39.9743C278.306 39.806 278.822 39.7219 279.386 39.7219C279.775 39.7219 280.162 39.7675 280.548 39.8586C280.934 39.9498 281.286 40.1005 281.605 40.3108C281.924 40.5176 282.18 40.7998 282.373 41.1573C282.569 41.5149 282.667 41.9618 282.667 42.4981V47.9033H280.837V46.7939H280.774C280.658 47.0182 280.495 47.2285 280.285 47.4248C280.078 47.6176 279.817 47.7736 279.502 47.8928C279.19 48.0085 278.823 48.0663 278.403 48.0663ZM278.897 46.6677C279.279 46.6677 279.61 46.5923 279.891 46.4416C280.171 46.2874 280.387 46.0841 280.537 45.8317C280.692 45.5793 280.769 45.3041 280.769 45.0062V44.0545C280.709 44.1036 280.608 44.1491 280.464 44.1912C280.324 44.2333 280.166 44.2701 279.991 44.3016C279.815 44.3332 279.642 44.3612 279.47 44.3857C279.298 44.4103 279.149 44.4313 279.023 44.4488C278.739 44.4874 278.485 44.5505 278.261 44.6381C278.036 44.7258 277.859 44.8484 277.73 45.0062C277.6 45.1604 277.535 45.3602 277.535 45.6056C277.535 45.9561 277.663 46.2208 277.919 46.3995C278.175 46.5783 278.501 46.6677 278.897 46.6677ZM288.254 47.9033V39.8271H290.099V41.1731H290.183C290.33 40.7069 290.583 40.3476 290.94 40.0952C291.301 39.8393 291.713 39.7114 292.176 39.7114C292.281 39.7114 292.399 39.7167 292.528 39.7272C292.661 39.7342 292.772 39.7465 292.86 39.764V41.5149C292.779 41.4868 292.651 41.4623 292.476 41.4413C292.304 41.4167 292.137 41.4045 291.976 41.4045C291.629 41.4045 291.317 41.4798 291.04 41.6306C290.767 41.7778 290.551 41.9828 290.394 42.2457C290.236 42.5086 290.157 42.8118 290.157 43.1554V47.9033H288.254ZM297.367 48.0611C296.557 48.0611 295.858 47.8928 295.269 47.5563C294.684 47.2163 294.233 46.7361 293.918 46.1156C293.602 45.4917 293.444 44.7573 293.444 43.9125C293.444 43.0818 293.602 42.3527 293.918 41.7252C294.237 41.0942 294.682 40.6035 295.253 40.253C295.825 39.8989 296.496 39.7219 297.267 39.7219C297.765 39.7219 298.234 39.8025 298.676 39.9638C299.121 40.1215 299.514 40.3669 299.854 40.6999C300.197 41.0329 300.467 41.457 300.664 41.9723C300.86 42.4841 300.958 43.094 300.958 43.8021V44.3857H294.338V43.1028H299.134C299.13 42.7382 299.051 42.414 298.897 42.1301C298.743 41.8426 298.527 41.6165 298.25 41.4518C297.977 41.287 297.658 41.2047 297.293 41.2047C296.904 41.2047 296.562 41.2993 296.268 41.4886C295.974 41.6744 295.744 41.9197 295.579 42.2247C295.418 42.5262 295.336 42.8574 295.332 43.2185V44.3384C295.332 44.8081 295.418 45.2112 295.59 45.5477C295.761 45.8808 296.002 46.1366 296.31 46.3154C296.619 46.4907 296.98 46.5783 297.393 46.5783C297.67 46.5783 297.921 46.5398 298.145 46.4626C298.369 46.382 298.564 46.2646 298.729 46.1104C298.893 45.9561 299.018 45.7651 299.102 45.5372L300.879 45.737C300.767 46.2067 300.553 46.6169 300.238 46.9674C299.926 47.3144 299.526 47.5843 299.039 47.7771C298.552 47.9664 297.994 48.0611 297.367 48.0611ZM306.659 39.8271V41.2993H301.885V39.8271H306.659ZM303.078 47.9033V39.0647C303.078 38.5213 303.191 38.0692 303.415 37.7081C303.643 37.3471 303.948 37.0772 304.33 36.8984C304.712 36.7196 305.136 36.6302 305.602 36.6302C305.932 36.6302 306.224 36.6565 306.48 36.7091C306.736 36.7617 306.925 36.809 307.048 36.8511L306.67 38.3233C306.589 38.2988 306.487 38.2742 306.365 38.2497C306.242 38.2216 306.105 38.2076 305.955 38.2076C305.6 38.2076 305.35 38.2935 305.203 38.4653C305.059 38.6335 304.987 38.8754 304.987 39.1909V47.9033H303.078ZM313.297 44.5067V39.8271H315.201V47.9033H313.355V46.4679H313.271C313.089 46.9201 312.789 47.2899 312.372 47.5773C311.958 47.8648 311.448 48.0085 310.842 48.0085C310.313 48.0085 309.845 47.8911 309.438 47.6562C309.035 47.4178 308.719 47.0726 308.491 46.6204C308.264 46.1647 308.15 45.6143 308.15 44.9694V39.8271H310.053V44.6749C310.053 45.1867 310.193 45.5933 310.474 45.8948C310.754 46.1962 311.122 46.347 311.578 46.347C311.858 46.347 312.13 46.2786 312.393 46.1419C312.656 46.0052 312.871 45.8019 313.04 45.532C313.211 45.2586 313.297 44.9168 313.297 44.5067ZM323.541 41.9618L321.806 42.1511C321.757 41.9758 321.671 41.8111 321.548 41.6568C321.429 41.5026 321.268 41.3782 321.065 41.2835C320.861 41.1889 320.612 41.1416 320.318 41.1416C319.922 41.1416 319.589 41.2274 319.319 41.3992C319.053 41.571 318.921 41.7936 318.925 42.067C318.921 42.3018 319.007 42.4929 319.182 42.6401C319.361 42.7873 319.655 42.9082 320.066 43.0029L321.443 43.2973C322.207 43.4621 322.775 43.7232 323.147 44.0808C323.522 44.4383 323.711 44.9063 323.715 45.4847C323.711 45.9929 323.562 46.4416 323.268 46.8307C322.977 47.2163 322.572 47.5177 322.053 47.7351C321.534 47.9524 320.938 48.0611 320.265 48.0611C319.277 48.0611 318.481 47.8542 317.878 47.4406C317.275 47.0235 316.916 46.4434 316.8 45.7002L318.656 45.5215C318.741 45.886 318.919 46.1612 319.193 46.347C319.466 46.5327 319.822 46.6256 320.26 46.6256C320.712 46.6256 321.075 46.5327 321.349 46.347C321.625 46.1612 321.764 45.9316 321.764 45.6582C321.764 45.4268 321.675 45.2358 321.496 45.085C321.321 44.9343 321.047 44.8186 320.676 44.738L319.298 44.4488C318.523 44.2876 317.95 44.0159 317.579 43.6338C317.207 43.2483 317.023 42.761 317.026 42.1721C317.023 41.6744 317.158 41.2432 317.431 40.8787C317.708 40.5106 318.092 40.2267 318.583 40.0269C319.077 39.8236 319.647 39.7219 320.292 39.7219C321.238 39.7219 321.983 39.9235 322.526 40.3266C323.073 40.7297 323.411 41.2748 323.541 41.9618ZM327.608 48.0663C327.096 48.0663 326.635 47.9752 326.225 47.7929C325.819 47.6071 325.496 47.3337 325.258 46.9727C325.023 46.6116 324.906 46.1664 324.906 45.6371C324.906 45.1814 324.99 44.8046 325.158 44.5067C325.326 44.2087 325.556 43.9704 325.847 43.7916C326.138 43.6128 326.465 43.4779 326.83 43.3867C327.198 43.2921 327.578 43.2237 327.971 43.1817C328.444 43.1326 328.828 43.0888 329.122 43.0502C329.417 43.0081 329.631 42.9451 329.764 42.8609C329.901 42.7733 329.969 42.6383 329.969 42.4561V42.4245C329.969 42.0284 329.852 41.7217 329.617 41.5044C329.382 41.287 329.044 41.1784 328.602 41.1784C328.136 41.1784 327.766 41.28 327.492 41.4833C327.223 41.6866 327.04 41.9268 326.946 42.2037L325.168 41.9513C325.309 41.4606 325.54 41.0504 325.863 40.7209C326.185 40.3879 326.579 40.139 327.046 39.9743C327.512 39.806 328.027 39.7219 328.591 39.7219C328.98 39.7219 329.368 39.7675 329.753 39.8586C330.139 39.9498 330.491 40.1005 330.81 40.3108C331.129 40.5176 331.385 40.7998 331.578 41.1573C331.774 41.5149 331.872 41.9618 331.872 42.4981V47.9033H330.043V46.7939H329.98C329.864 47.0182 329.701 47.2285 329.491 47.4248C329.284 47.6176 329.023 47.7736 328.707 47.8928C328.395 48.0085 328.029 48.0663 327.608 48.0663ZM328.102 46.6677C328.484 46.6677 328.816 46.5923 329.096 46.4416C329.377 46.2874 329.592 46.0841 329.743 45.8317C329.897 45.5793 329.974 45.3041 329.974 45.0062V44.0545C329.915 44.1036 329.813 44.1491 329.669 44.1912C329.529 44.2333 329.371 44.2701 329.196 44.3016C329.021 44.3332 328.847 44.3612 328.676 44.3857C328.504 44.4103 328.355 44.4313 328.229 44.4488C327.945 44.4874 327.691 44.5505 327.466 44.6381C327.242 44.7258 327.065 44.8484 326.935 45.0062C326.805 45.1604 326.741 45.3602 326.741 45.6056C326.741 45.9561 326.869 46.2208 327.124 46.3995C327.38 46.5783 327.706 46.6677 328.102 46.6677ZM335.69 37.135V47.9033H333.786V37.135H335.69ZM344.03 41.9618L342.295 42.1511C342.246 41.9758 342.16 41.8111 342.037 41.6568C341.918 41.5026 341.757 41.3782 341.554 41.2835C341.35 41.1889 341.101 41.1416 340.807 41.1416C340.411 41.1416 340.078 41.2274 339.808 41.3992C339.542 41.571 339.41 41.7936 339.414 42.067C339.41 42.3018 339.496 42.4929 339.671 42.6401C339.85 42.7873 340.144 42.9082 340.555 43.0029L341.932 43.2973C342.696 43.4621 343.264 43.7232 343.636 44.0808C344.011 44.4383 344.2 44.9063 344.204 45.4847C344.2 45.9929 344.051 46.4416 343.757 46.8307C343.466 47.2163 343.061 47.5177 342.542 47.7351C342.023 47.9524 341.427 48.0611 340.754 48.0611C339.766 48.0611 338.97 47.8542 338.367 47.4406C337.764 47.0235 337.405 46.4434 337.289 45.7002L339.145 45.5215C339.23 45.886 339.408 46.1612 339.682 46.347C339.955 46.5327 340.311 46.6256 340.749 46.6256C341.201 46.6256 341.564 46.5327 341.838 46.347C342.114 46.1612 342.253 45.9316 342.253 45.6582C342.253 45.4268 342.164 45.2358 341.985 45.085C341.81 44.9343 341.536 44.8186 341.165 44.738L339.787 44.4488C339.012 44.2876 338.439 44.0159 338.068 43.6338C337.696 43.2483 337.512 42.761 337.516 42.1721C337.512 41.6744 337.647 41.2432 337.92 40.8787C338.197 40.5106 338.581 40.2267 339.072 40.0269C339.566 39.8236 340.136 39.7219 340.781 39.7219C341.727 39.7219 342.472 39.9235 343.015 40.3266C343.562 40.7297 343.9 41.2748 344.03 41.9618ZM347.592 44.738V44.6013C347.596 43.9669 347.656 43.4621 347.771 43.087C347.89 42.7119 348.059 42.4105 348.276 42.1826C348.493 41.9513 348.758 41.7392 349.07 41.5464C349.284 41.4132 349.475 41.2678 349.643 41.11C349.815 40.9488 349.95 40.77 350.048 40.5737C350.146 40.3739 350.195 40.1513 350.195 39.9059C350.195 39.629 350.13 39.3889 350.001 39.1856C349.871 38.9823 349.696 38.8246 349.475 38.7124C349.257 38.6002 349.014 38.5441 348.744 38.5441C348.495 38.5441 348.258 38.5985 348.034 38.7071C347.813 38.8123 347.629 38.9735 347.482 39.1909C347.338 39.4047 347.258 39.6763 347.24 40.0058H345.368C345.386 39.3398 345.547 38.7825 345.852 38.3338C346.16 37.8851 346.567 37.5486 347.072 37.3243C347.58 37.0999 348.141 36.9878 348.754 36.9878C349.424 36.9878 350.013 37.1052 350.521 37.3401C351.033 37.5749 351.431 37.9097 351.715 38.3443C352.002 38.7755 352.146 39.2873 352.146 39.8797C352.146 40.2793 352.081 40.6368 351.951 40.9523C351.825 41.2678 351.645 41.5482 351.41 41.7936C351.175 42.0389 350.896 42.258 350.574 42.4508C350.29 42.6261 350.057 42.8083 349.874 42.9976C349.696 43.1869 349.562 43.4095 349.475 43.6654C349.391 43.9178 349.347 44.2297 349.343 44.6013V44.738H347.592ZM348.507 48.019C348.192 48.019 347.92 47.9068 347.692 47.6825C347.464 47.4581 347.351 47.1847 347.351 46.8622C347.351 46.5468 347.464 46.2769 347.692 46.0525C347.92 45.8282 348.192 45.716 348.507 45.716C348.819 45.716 349.089 45.8282 349.317 46.0525C349.548 46.2769 349.664 46.5468 349.664 46.8622C349.664 47.0761 349.61 47.2706 349.501 47.4459C349.396 47.6211 349.256 47.7614 349.08 47.8665C348.909 47.9682 348.718 48.019 348.507 48.019Z" fill="#1B1139"/>
<rect opacity="0.8" x="46.0708" y="39.0725" width="14.8065" height="2.46774" rx="1.23387" fill="#1B1139"/>
<rect opacity="0.8" x="54.7085" y="32.9033" width="14.8065" height="2.46774" rx="1.23387" transform="rotate(90 54.7085 32.9033)" fill="#1B1139"/>
<defs>
<filter id="filter0_d_160_726" x="4.673e-05" y="0" width="488.626" height="117.27" filterUnits="userSpaceOnUse" color-interpolation-filters="sRGB">
<feFlood flood-opacity="0" result="BackgroundImageFix"/>
<feColorMatrix in="SourceAlpha" type="matrix" values="0 0 0 0 0 0 0 0 0 0 0 0 0 0 0 0 0 0 127 0" result="hardAlpha"/>
<feMorphology radius="12.1197" operator="erode" in="SourceAlpha" result="effect1_dropShadow_160_726"/>
<feOffset dy="20.1995"/>
<feGaussianBlur stdDeviation="13.4663"/>
<feColorMatrix type="matrix" values="0 0 0 0 0.583333 0 0 0 0 0.583333 0 0 0 0 0.583333 0 0 0 0.25 0"/>
<feBlend mode="normal" in2="BackgroundImageFix" result="effect1_dropShadow_160_726"/>
<feBlend mode="normal" in="SourceGraphic" in2="effect1_dropShadow_160_726" result="shape"/>
</filter>
</defs>
</svg>
