<svg width="387" height="19" viewBox="0 0 387 19" fill="none" xmlns="http://www.w3.org/2000/svg">
<path opacity="0.88" d="M31.0344 15H27.3854V4.23167H31.108C32.1771 4.23167 33.0955 4.44725 33.8632 4.8784C34.6343 5.30605 35.2267 5.92123 35.6404 6.72395C36.054 7.52667 36.2608 8.48712 36.2608 9.60532C36.2608 10.727 36.0522 11.691 35.6351 12.4972C35.2215 13.3034 34.6238 13.9221 33.8421 14.3533C33.064 14.7844 32.128 15 31.0344 15ZM29.3361 13.3122H30.9397C31.6899 13.3122 32.3156 13.1755 32.8168 12.9021C33.3181 12.6251 33.6949 12.2133 33.9473 11.6664C34.1997 11.1161 34.3259 10.4291 34.3259 9.60532C34.3259 8.78157 34.1997 8.09803 33.9473 7.55471C33.6949 7.00788 33.3216 6.59951 32.8274 6.3296C32.3366 6.05619 31.7267 5.91948 30.9976 5.91948H29.3361V13.3122ZM41.553 15.1577C40.7643 15.1577 40.0807 14.9842 39.5024 14.6372C38.924 14.2902 38.4753 13.8047 38.1563 13.1807C37.8408 12.5568 37.6831 11.8277 37.6831 10.9934C37.6831 10.1592 37.8408 9.4283 38.1563 8.80085C38.4753 8.1734 38.924 7.68616 39.5024 7.33913C40.0807 6.99211 40.7643 6.81859 41.553 6.81859C42.3417 6.81859 43.0252 6.99211 43.6036 7.33913C44.1819 7.68616 44.6289 8.1734 44.9444 8.80085C45.2633 9.4283 45.4228 10.1592 45.4228 10.9934C45.4228 11.8277 45.2633 12.5568 44.9444 13.1807C44.6289 13.8047 44.1819 14.2902 43.6036 14.6372C43.0252 14.9842 42.3417 15.1577 41.553 15.1577ZM41.5635 13.6329C41.9911 13.6329 42.3487 13.5155 42.6361 13.2806C42.9235 13.0423 43.1374 12.7233 43.2776 12.3237C43.4213 11.9241 43.4932 11.4789 43.4932 10.9882C43.4932 10.4939 43.4213 10.047 43.2776 9.64738C43.1374 9.24427 42.9235 8.92354 42.6361 8.68517C42.3487 8.44681 41.9911 8.32763 41.5635 8.32763C41.1253 8.32763 40.7608 8.44681 40.4698 8.68517C40.1824 8.92354 39.9668 9.24427 39.8231 9.64738C39.6829 10.047 39.6128 10.4939 39.6128 10.9882C39.6128 11.4789 39.6829 11.9241 39.8231 12.3237C39.9668 12.7233 40.1824 13.0423 40.4698 13.2806C40.7608 13.5155 41.1253 13.6329 41.5635 13.6329ZM52.7459 4.23167V15H50.7952V4.23167H52.7459ZM60.3502 10.2678V15H58.4468V6.92375H60.2661V8.29608H60.3607C60.5465 7.8439 60.8427 7.4846 61.2493 7.2182C61.6594 6.9518 62.166 6.81859 62.7689 6.81859C63.3262 6.81859 63.8117 6.93777 64.2253 7.17614C64.6425 7.4145 64.965 7.75977 65.1928 8.21196C65.4242 8.66414 65.5381 9.21272 65.5346 9.8577V15H63.6312V10.1521C63.6312 9.61233 63.491 9.18994 63.2106 8.88498C62.9336 8.58001 62.5498 8.42753 62.0591 8.42753C61.7261 8.42753 61.4299 8.50115 61.1705 8.64837C60.9146 8.79209 60.713 9.00065 60.5658 9.27407C60.4221 9.54748 60.3502 9.87873 60.3502 10.2678ZM71.0449 15.1577C70.2352 15.1577 69.5359 14.9895 68.947 14.653C68.3616 14.313 67.9112 13.8327 67.5957 13.2123C67.2802 12.5883 67.1225 11.854 67.1225 11.0092C67.1225 10.1784 67.2802 9.44933 67.5957 8.82188C67.9147 8.19092 68.3599 7.70018 68.9312 7.34965C69.5026 6.99561 70.1739 6.81859 70.945 6.81859C71.4428 6.81859 71.9125 6.89922 72.3542 7.06046C72.7993 7.2182 73.1919 7.46357 73.532 7.79658C73.8755 8.12958 74.1454 8.55372 74.3417 9.06901C74.538 9.58078 74.6361 10.1907 74.6361 10.8988V11.4824H68.0163V10.1995H72.8116C72.8081 9.83492 72.7292 9.51068 72.575 9.22675C72.4208 8.93931 72.2052 8.71322 71.9283 8.54847C71.6549 8.38372 71.3359 8.30134 70.9713 8.30134C70.5822 8.30134 70.2405 8.39599 69.946 8.58527C69.6516 8.77105 69.422 9.01643 69.2572 9.32139C69.096 9.62285 69.0136 9.9541 69.0101 10.3151V11.4351C69.0101 11.9048 69.096 12.3079 69.2677 12.6444C69.4395 12.9774 69.6796 13.2333 69.9881 13.4121C70.2965 13.5874 70.6576 13.675 71.0712 13.675C71.3481 13.675 71.5988 13.6364 71.8231 13.5593C72.0475 13.4787 72.242 13.3613 72.4067 13.207C72.5715 13.0528 72.6959 12.8618 72.7801 12.6339L74.5573 12.8337C74.4451 13.3034 74.2313 13.7135 73.9158 14.0641C73.6038 14.4111 73.2042 14.681 72.717 14.8738C72.2297 15.0631 71.6724 15.1577 71.0449 15.1577ZM79.8218 15.1577C79.0121 15.1577 78.3128 14.9895 77.7239 14.653C77.1385 14.313 76.6881 13.8327 76.3726 13.2123C76.0571 12.5883 75.8994 11.854 75.8994 11.0092C75.8994 10.1784 76.0571 9.44933 76.3726 8.82188C76.6916 8.19092 77.1367 7.70018 77.7081 7.34965C78.2795 6.99561 78.9507 6.81859 79.7219 6.81859C80.2197 6.81859 80.6894 6.89922 81.131 7.06046C81.5762 7.2182 81.9688 7.46357 82.3088 7.79658C82.6523 8.12958 82.9223 8.55372 83.1186 9.06901C83.3149 9.58078 83.413 10.1907 83.413 10.8988V11.4824H76.7932V10.1995H81.5885C81.585 9.83492 81.5061 9.51068 81.3519 9.22675C81.1976 8.93931 80.9821 8.71322 80.7051 8.54847C80.4317 8.38372 80.1127 8.30134 79.7482 8.30134C79.3591 8.30134 79.0173 8.39599 78.7229 8.58527C78.4284 8.77105 78.1988 9.01643 78.0341 9.32139C77.8728 9.62285 77.7905 9.9541 77.787 10.3151V11.4351C77.787 11.9048 77.8728 12.3079 78.0446 12.6444C78.2164 12.9774 78.4565 13.2333 78.765 13.4121C79.0734 13.5874 79.4345 13.675 79.8481 13.675C80.125 13.675 80.3756 13.6364 80.6 13.5593C80.8243 13.4787 81.0189 13.3613 81.1836 13.207C81.3484 13.0528 81.4728 12.8618 81.5569 12.6339L83.3341 12.8337C83.222 13.3034 83.0081 13.7135 82.6927 14.0641C82.3807 14.4111 81.9811 14.681 81.4938 14.8738C81.0066 15.0631 80.4493 15.1577 79.8218 15.1577ZM88.0203 15.142C87.3858 15.142 86.818 14.979 86.3167 14.653C85.8155 14.327 85.4194 13.8538 85.1284 13.2333C84.8375 12.6129 84.692 11.8592 84.692 10.9724C84.692 10.075 84.8392 9.31788 85.1337 8.70095C85.4316 8.08051 85.833 7.61255 86.3377 7.29707C86.8425 6.97809 87.4051 6.81859 88.0256 6.81859C88.4988 6.81859 88.8879 6.89922 89.1928 7.06046C89.4978 7.2182 89.7397 7.40924 89.9184 7.63358C90.0972 7.85441 90.2357 8.06298 90.3338 8.25928H90.4127V4.23167H92.3213V15H90.4495V13.7276H90.3338C90.2357 13.9239 90.0937 14.1324 89.9079 14.3533C89.7221 14.5706 89.4768 14.7564 89.1718 14.9106C88.8668 15.0648 88.483 15.142 88.0203 15.142ZM88.5514 13.5803C88.9545 13.5803 89.298 13.4717 89.5819 13.2544C89.8658 13.0335 90.0814 12.7268 90.2286 12.3342C90.3759 11.9416 90.4495 11.4842 90.4495 10.9619C90.4495 10.4396 90.3759 9.98565 90.2286 9.60006C90.0849 9.21448 89.8711 8.91477 89.5872 8.70095C89.3067 8.48712 88.9615 8.38021 88.5514 8.38021C88.1272 8.38021 87.7732 8.49063 87.4892 8.71146C87.2053 8.9323 86.9915 9.23726 86.8478 9.62635C86.7041 10.0154 86.6322 10.4606 86.6322 10.9619C86.6322 11.4666 86.7041 11.9171 86.8478 12.3132C86.995 12.7058 87.2106 13.016 87.4945 13.2438C87.7819 13.4682 88.1342 13.5803 88.5514 13.5803ZM100.346 15.163C99.8345 15.163 99.3736 15.0719 98.9635 14.8896C98.5568 14.7038 98.2344 14.4304 97.996 14.0693C97.7611 13.7083 97.6437 13.2631 97.6437 12.7338C97.6437 12.2781 97.7278 11.9013 97.8961 11.6033C98.0643 11.3054 98.2939 11.067 98.5849 10.8883C98.8758 10.7095 99.2036 10.5745 99.5681 10.4834C99.9362 10.3888 100.317 10.3204 100.709 10.2783C101.182 10.2293 101.566 10.1854 101.861 10.1469C102.155 10.1048 102.369 10.0417 102.502 9.9576C102.639 9.86997 102.707 9.73502 102.707 9.55274V9.52119C102.707 9.12509 102.59 8.81838 102.355 8.60105C102.12 8.38372 101.782 8.27505 101.34 8.27505C100.874 8.27505 100.504 8.37671 100.231 8.58002C99.9607 8.78332 99.7784 9.02344 99.6838 9.30036L97.9066 9.04797C98.0468 8.55723 98.2782 8.14711 98.6007 7.81761C98.9231 7.4846 99.3175 7.23573 99.7837 7.07098C100.25 6.90272 100.765 6.81859 101.33 6.81859C101.719 6.81859 102.106 6.86416 102.492 6.9553C102.877 7.04644 103.229 7.19717 103.548 7.40749C103.867 7.6143 104.123 7.89648 104.316 8.25402C104.512 8.61156 104.611 9.05849 104.611 9.5948V15H102.781V13.8906H102.718C102.602 14.1149 102.439 14.3252 102.229 14.5215C102.022 14.7143 101.761 14.8703 101.445 14.9895C101.133 15.1052 100.767 15.163 100.346 15.163ZM100.841 13.7644C101.223 13.7644 101.554 13.689 101.834 13.5383C102.115 13.384 102.33 13.1807 102.481 12.9284C102.635 12.676 102.712 12.4008 102.712 12.1029V11.1512C102.653 11.2002 102.551 11.2458 102.407 11.2879C102.267 11.3299 102.109 11.3667 101.934 11.3983C101.759 11.4298 101.585 11.4579 101.414 11.4824C101.242 11.507 101.093 11.528 100.967 11.5455C100.683 11.5841 100.429 11.6472 100.204 11.7348C99.98 11.8224 99.803 11.9451 99.6733 12.1029C99.5436 12.2571 99.4787 12.4569 99.4787 12.7023C99.4787 13.0528 99.6067 13.3174 99.8626 13.4962C100.118 13.675 100.444 13.7644 100.841 13.7644ZM110.197 6.92375H112.101V15.4627C112.101 16.0446 111.99 16.5248 111.769 16.9034C111.548 17.282 111.229 17.5641 110.812 17.7499C110.395 17.9357 109.889 18.0286 109.293 18.0286C109.223 18.0286 109.158 18.0268 109.098 18.0233C109.039 18.0233 108.974 18.0216 108.904 18.0181V16.467C108.956 16.4705 109.004 16.4722 109.046 16.4722C109.088 16.4757 109.131 16.4775 109.177 16.4775C109.542 16.4775 109.803 16.3881 109.961 16.2093C110.118 16.0341 110.197 15.7764 110.197 15.4364V6.92375ZM111.144 5.77752C110.839 5.77752 110.577 5.67761 110.36 5.47781C110.146 5.2745 110.039 5.03088 110.039 4.74695C110.039 4.45952 110.146 4.2159 110.36 4.01609C110.577 3.81279 110.839 3.71113 111.144 3.71113C111.445 3.71113 111.703 3.81279 111.916 4.01609C112.134 4.2159 112.242 4.45952 112.242 4.74695C112.242 5.03088 112.134 5.2745 111.916 5.47781C111.703 5.67761 111.445 5.77752 111.144 5.77752ZM117.581 15.1577C116.792 15.1577 116.108 14.9842 115.53 14.6372C114.952 14.2902 114.503 13.8047 114.184 13.1807C113.868 12.5568 113.711 11.8277 113.711 10.9934C113.711 10.1592 113.868 9.4283 114.184 8.80085C114.503 8.1734 114.952 7.68616 115.53 7.33913C116.108 6.99211 116.792 6.81859 117.581 6.81859C118.369 6.81859 119.053 6.99211 119.631 7.33913C120.21 7.68616 120.657 8.1734 120.972 8.80085C121.291 9.4283 121.45 10.1592 121.45 10.9934C121.45 11.8277 121.291 12.5568 120.972 13.1807C120.657 13.8047 120.21 14.2902 119.631 14.6372C119.053 14.9842 118.369 15.1577 117.581 15.1577ZM117.591 13.6329C118.019 13.6329 118.376 13.5155 118.664 13.2806C118.951 13.0423 119.165 12.7233 119.305 12.3237C119.449 11.9241 119.521 11.4789 119.521 10.9882C119.521 10.4939 119.449 10.047 119.305 9.64738C119.165 9.24427 118.951 8.92354 118.664 8.68517C118.376 8.44681 118.019 8.32763 117.591 8.32763C117.153 8.32763 116.788 8.44681 116.497 8.68517C116.21 8.92354 115.994 9.24427 115.851 9.64738C115.711 10.047 115.64 10.4939 115.64 10.9882C115.64 11.4789 115.711 11.9241 115.851 12.3237C115.994 12.7233 116.21 13.0423 116.497 13.2806C116.788 13.5155 117.153 13.6329 117.591 13.6329ZM123.15 15V4.23167H125.054V8.25928H125.132C125.231 8.06298 125.369 7.85441 125.548 7.63358C125.727 7.40924 125.968 7.2182 126.273 7.06046C126.578 6.89922 126.967 6.81859 127.441 6.81859C128.065 6.81859 128.627 6.97809 129.128 7.29707C129.633 7.61255 130.033 8.08051 130.327 8.70095C130.625 9.31788 130.774 10.075 130.774 10.9724C130.774 11.8592 130.629 12.6129 130.338 13.2333C130.047 13.8538 129.651 14.327 129.149 14.653C128.648 14.979 128.08 15.142 127.446 15.142C126.983 15.142 126.599 15.0648 126.294 14.9106C125.989 14.7564 125.744 14.5706 125.558 14.3533C125.376 14.1324 125.234 13.9239 125.132 13.7276H125.022V15H123.15ZM125.017 10.9619C125.017 11.4842 125.09 11.9416 125.238 12.3342C125.388 12.7268 125.604 13.0335 125.884 13.2544C126.168 13.4717 126.512 13.5803 126.915 13.5803C127.335 13.5803 127.688 13.4682 127.972 13.2438C128.256 13.016 128.469 12.7058 128.613 12.3132C128.76 11.9171 128.834 11.4666 128.834 10.9619C128.834 10.4606 128.762 10.0154 128.618 9.62635C128.475 9.23726 128.261 8.9323 127.977 8.71146C127.693 8.49063 127.339 8.38021 126.915 8.38021C126.508 8.38021 126.163 8.48712 125.879 8.70095C125.595 8.91477 125.38 9.21448 125.232 9.60006C125.089 9.98565 125.017 10.4396 125.017 10.9619ZM139.588 15.1577C138.799 15.1577 138.116 14.9842 137.537 14.6372C136.959 14.2902 136.51 13.8047 136.191 13.1807C135.876 12.5568 135.718 11.8277 135.718 10.9934C135.718 10.1592 135.876 9.4283 136.191 8.80085C136.51 8.1734 136.959 7.68616 137.537 7.33913C138.116 6.99211 138.799 6.81859 139.588 6.81859C140.377 6.81859 141.06 6.99211 141.638 7.33913C142.217 7.68616 142.664 8.1734 142.979 8.80085C143.298 9.4283 143.458 10.1592 143.458 10.9934C143.458 11.8277 143.298 12.5568 142.979 13.1807C142.664 13.8047 142.217 14.2902 141.638 14.6372C141.06 14.9842 140.377 15.1577 139.588 15.1577ZM139.598 13.6329C140.026 13.6329 140.384 13.5155 140.671 13.2806C140.958 13.0423 141.172 12.7233 141.312 12.3237C141.456 11.9241 141.528 11.4789 141.528 10.9882C141.528 10.4939 141.456 10.047 141.312 9.64738C141.172 9.24427 140.958 8.92354 140.671 8.68517C140.384 8.44681 140.026 8.32763 139.598 8.32763C139.16 8.32763 138.796 8.44681 138.505 8.68517C138.217 8.92354 138.002 9.24427 137.858 9.64738C137.718 10.047 137.648 10.4939 137.648 10.9882C137.648 11.4789 137.718 11.9241 137.858 12.3237C138.002 12.7233 138.217 13.0423 138.505 13.2806C138.796 13.5155 139.16 13.6329 139.598 13.6329ZM149.164 6.92375V8.39599H144.39V6.92375H149.164ZM145.583 15V6.16135C145.583 5.61802 145.695 5.16584 145.92 4.80479C146.148 4.44374 146.453 4.17383 146.835 3.99506C147.217 3.81629 147.641 3.72691 148.107 3.72691C148.437 3.72691 148.729 3.7532 148.985 3.80578C149.241 3.85836 149.43 3.90568 149.553 3.94774L149.174 5.41997C149.094 5.39544 148.992 5.3709 148.87 5.34636C148.747 5.31832 148.61 5.3043 148.459 5.3043C148.105 5.3043 147.855 5.39018 147.707 5.56194C147.564 5.73019 147.492 5.97206 147.492 6.28754V15H145.583ZM154.745 6.92375V8.39599H149.971V6.92375H154.745ZM151.165 15V6.16135C151.165 5.61802 151.277 5.16584 151.501 4.80479C151.729 4.44374 152.034 4.17383 152.416 3.99506C152.798 3.81629 153.222 3.72691 153.688 3.72691C154.018 3.72691 154.311 3.7532 154.567 3.80578C154.822 3.85836 155.012 3.90568 155.134 3.94774L154.756 5.41997C154.675 5.39544 154.574 5.3709 154.451 5.34636C154.328 5.31832 154.191 5.3043 154.041 5.3043C153.687 5.3043 153.436 5.39018 153.289 5.56194C153.145 5.73019 153.073 5.97206 153.073 6.28754V15H151.165ZM159.508 15.1577C158.698 15.1577 157.999 14.9895 157.41 14.653C156.824 14.313 156.374 13.8327 156.058 13.2123C155.743 12.5883 155.585 11.854 155.585 11.0092C155.585 10.1784 155.743 9.44933 156.058 8.82188C156.377 8.19092 156.823 7.70018 157.394 7.34965C157.965 6.99561 158.637 6.81859 159.408 6.81859C159.906 6.81859 160.375 6.89922 160.817 7.06046C161.262 7.2182 161.655 7.46357 161.995 7.79658C162.338 8.12958 162.608 8.55372 162.804 9.06901C163.001 9.58078 163.099 10.1907 163.099 10.8988V11.4824H156.479V10.1995H161.274C161.271 9.83492 161.192 9.51068 161.038 9.22675C160.884 8.93931 160.668 8.71322 160.391 8.54847C160.118 8.38372 159.799 8.30134 159.434 8.30134C159.045 8.30134 158.703 8.39599 158.409 8.58527C158.114 8.77105 157.885 9.01643 157.72 9.32139C157.559 9.62285 157.476 9.9541 157.473 10.3151V11.4351C157.473 11.9048 157.559 12.3079 157.731 12.6444C157.902 12.9774 158.142 13.2333 158.451 13.4121C158.759 13.5874 159.12 13.675 159.534 13.675C159.811 13.675 160.062 13.6364 160.286 13.5593C160.51 13.4787 160.705 13.3613 160.87 13.207C161.034 13.0528 161.159 12.8618 161.243 12.6339L163.02 12.8337C162.908 13.3034 162.694 13.7135 162.379 14.0641C162.067 14.4111 161.667 14.681 161.18 14.8738C160.693 15.0631 160.135 15.1577 159.508 15.1577ZM164.709 15V6.92375H166.555V8.26979H166.639C166.786 7.80359 167.038 7.44429 167.396 7.19191C167.757 6.93602 168.169 6.80808 168.632 6.80808C168.737 6.80808 168.854 6.81334 168.984 6.82385C169.117 6.83086 169.228 6.84313 169.315 6.86066V8.61156C169.235 8.58352 169.107 8.55898 168.931 8.53795C168.76 8.51341 168.593 8.50115 168.432 8.50115C168.085 8.50115 167.773 8.57651 167.496 8.72724C167.222 8.87446 167.007 9.07952 166.849 9.34242C166.691 9.60532 166.613 9.90853 166.613 10.2521V15H164.709ZM178.343 6.92375V8.39599H173.569V6.92375H178.343ZM174.762 15V6.16135C174.762 5.61802 174.875 5.16584 175.099 4.80479C175.327 4.44374 175.632 4.17383 176.014 3.99506C176.396 3.81629 176.82 3.72691 177.286 3.72691C177.616 3.72691 177.908 3.7532 178.164 3.80578C178.42 3.85836 178.609 3.90568 178.732 3.94774L178.354 5.41997C178.273 5.39544 178.171 5.3709 178.049 5.34636C177.926 5.31832 177.789 5.3043 177.639 5.3043C177.284 5.3043 177.034 5.39018 176.887 5.56194C176.743 5.73019 176.671 5.97206 176.671 6.28754V15H174.762ZM183.053 15.1577C182.264 15.1577 181.581 14.9842 181.002 14.6372C180.424 14.2902 179.975 13.8047 179.656 13.1807C179.341 12.5568 179.183 11.8277 179.183 10.9934C179.183 10.1592 179.341 9.4283 179.656 8.80085C179.975 8.1734 180.424 7.68616 181.002 7.33913C181.581 6.99211 182.264 6.81859 183.053 6.81859C183.842 6.81859 184.525 6.99211 185.104 7.33913C185.682 7.68616 186.129 8.1734 186.444 8.80085C186.763 9.4283 186.923 10.1592 186.923 10.9934C186.923 11.8277 186.763 12.5568 186.444 13.1807C186.129 13.8047 185.682 14.2902 185.104 14.6372C184.525 14.9842 183.842 15.1577 183.053 15.1577ZM183.063 13.6329C183.491 13.6329 183.849 13.5155 184.136 13.2806C184.423 13.0423 184.637 12.7233 184.778 12.3237C184.921 11.9241 184.993 11.4789 184.993 10.9882C184.993 10.4939 184.921 10.047 184.778 9.64738C184.637 9.24427 184.423 8.92354 184.136 8.68517C183.849 8.44681 183.491 8.32763 183.063 8.32763C182.625 8.32763 182.261 8.44681 181.97 8.68517C181.682 8.92354 181.467 9.24427 181.323 9.64738C181.183 10.047 181.113 10.4939 181.113 10.9882C181.113 11.4789 181.183 11.9241 181.323 12.3237C181.467 12.7233 181.682 13.0423 181.97 13.2806C182.261 13.5155 182.625 13.6329 183.063 13.6329ZM188.538 15V6.92375H190.384V8.26979H190.468C190.615 7.80359 190.868 7.44429 191.225 7.19191C191.586 6.93602 191.998 6.80808 192.461 6.80808C192.566 6.80808 192.683 6.81334 192.813 6.82385C192.946 6.83086 193.057 6.84313 193.144 6.86066V8.61156C193.064 8.58352 192.936 8.55898 192.76 8.53795C192.589 8.51341 192.422 8.50115 192.261 8.50115C191.914 8.50115 191.602 8.57651 191.325 8.72724C191.052 8.87446 190.836 9.07952 190.678 9.34242C190.521 9.60532 190.442 9.90853 190.442 10.2521V15H188.538ZM198.081 15V6.92375H199.985V15H198.081ZM199.038 5.77752C198.737 5.77752 198.478 5.67761 198.26 5.47781C198.043 5.2745 197.934 5.03088 197.934 4.74695C197.934 4.45952 198.043 4.2159 198.26 4.01609C198.478 3.81279 198.737 3.71113 199.038 3.71113C199.343 3.71113 199.603 3.81279 199.817 4.01609C200.034 4.2159 200.143 4.45952 200.143 4.74695C200.143 5.03088 200.034 5.2745 199.817 5.47781C199.603 5.67761 199.343 5.77752 199.038 5.77752ZM201.942 15V6.92375H203.761V8.29608H203.856C204.024 7.83338 204.303 7.47234 204.692 7.21294C205.081 6.95004 205.546 6.81859 206.085 6.81859C206.632 6.81859 207.093 6.9518 207.468 7.2182C207.847 7.4811 208.113 7.84039 208.268 8.29608H208.352C208.53 7.8474 208.832 7.48986 209.256 7.22346C209.684 6.95355 210.19 6.81859 210.776 6.81859C211.519 6.81859 212.125 7.05345 212.595 7.52316C213.065 7.99287 213.299 8.67816 213.299 9.57903V15H211.391V9.87348C211.391 9.37222 211.258 9.00591 210.991 8.77456C210.725 8.5397 210.399 8.42228 210.013 8.42228C209.554 8.42228 209.195 8.56599 208.935 8.85343C208.679 9.13736 208.551 9.50717 208.551 9.96286V15H206.685V9.79461C206.685 9.37747 206.559 9.04447 206.306 8.79559C206.057 8.54671 205.731 8.42228 205.328 8.42228C205.055 8.42228 204.806 8.49238 204.582 8.63259C204.357 8.7693 204.179 8.96385 204.045 9.21623C203.912 9.46511 203.846 9.75605 203.846 10.0891V15H201.942ZM215.23 15V6.92375H217.05V8.29608H217.144C217.313 7.83338 217.591 7.47234 217.98 7.21294C218.369 6.95004 218.834 6.81859 219.374 6.81859C219.92 6.81859 220.381 6.9518 220.757 7.2182C221.135 7.4811 221.401 7.84039 221.556 8.29608H221.64C221.819 7.8474 222.12 7.48986 222.544 7.22346C222.972 6.95355 223.478 6.81859 224.064 6.81859C224.807 6.81859 225.413 7.05345 225.883 7.52316C226.353 7.99287 226.588 8.67816 226.588 9.57903V15H224.679V9.87348C224.679 9.37222 224.546 9.00591 224.279 8.77456C224.013 8.5397 223.687 8.42228 223.301 8.42228C222.842 8.42228 222.483 8.56599 222.223 8.85343C221.968 9.13736 221.84 9.50717 221.84 9.96286V15H219.973V9.79461C219.973 9.37747 219.847 9.04447 219.594 8.79559C219.346 8.54671 219.02 8.42228 218.617 8.42228C218.343 8.42228 218.094 8.49238 217.87 8.63259C217.646 8.7693 217.467 8.96385 217.334 9.21623C217.2 9.46511 217.134 9.75605 217.134 10.0891V15H215.23ZM228.519 15V6.92375H230.422V15H228.519ZM229.476 5.77752C229.174 5.77752 228.915 5.67761 228.697 5.47781C228.48 5.2745 228.371 5.03088 228.371 4.74695C228.371 4.45952 228.48 4.2159 228.697 4.01609C228.915 3.81279 229.174 3.71113 229.476 3.71113C229.781 3.71113 230.04 3.81279 230.254 4.01609C230.471 4.2159 230.58 4.45952 230.58 4.74695C230.58 5.03088 230.471 5.2745 230.254 5.47781C230.04 5.67761 229.781 5.77752 229.476 5.77752ZM235.892 18.1968C235.208 18.1968 234.621 18.104 234.13 17.9182C233.639 17.7359 233.245 17.4905 232.947 17.1821C232.649 16.8736 232.442 16.5318 232.327 16.1568L234.041 15.7414C234.118 15.8991 234.23 16.0551 234.377 16.2093C234.525 16.3671 234.723 16.4968 234.971 16.5984C235.224 16.7036 235.541 16.7562 235.923 16.7562C236.463 16.7562 236.91 16.6247 237.264 16.3618C237.618 16.1024 237.795 15.6748 237.795 15.0789V13.5488H237.7C237.602 13.7451 237.458 13.9467 237.269 14.1535C237.083 14.3603 236.836 14.5338 236.528 14.674C236.223 14.8142 235.839 14.8843 235.376 14.8843C234.756 14.8843 234.193 14.7389 233.688 14.4479C233.187 14.1535 232.788 13.7153 232.49 13.1334C232.195 12.548 232.048 11.8154 232.048 10.9356C232.048 10.0487 232.195 9.30036 232.49 8.69043C232.788 8.077 233.189 7.61255 233.694 7.29707C234.199 6.97809 234.761 6.81859 235.382 6.81859C235.855 6.81859 236.244 6.89922 236.549 7.06046C236.857 7.2182 237.103 7.40924 237.285 7.63358C237.467 7.85441 237.606 8.06298 237.7 8.25928H237.805V6.92375H239.683V15.1314C239.683 15.822 239.518 16.3934 239.188 16.8455C238.859 17.2977 238.408 17.636 237.837 17.8603C237.266 18.0847 236.617 18.1968 235.892 18.1968ZM235.907 13.3911C236.31 13.3911 236.654 13.2929 236.938 13.0966C237.222 12.9003 237.437 12.6181 237.585 12.2501C237.732 11.882 237.805 11.4404 237.805 10.9251C237.805 10.4168 237.732 9.97163 237.585 9.58955C237.441 9.20747 237.227 8.91127 236.943 8.70095C236.663 8.48712 236.317 8.38021 235.907 8.38021C235.483 8.38021 235.129 8.49063 234.845 8.71146C234.561 8.9323 234.347 9.23551 234.204 9.62109C234.06 10.0032 233.988 10.4378 233.988 10.9251C233.988 11.4193 234.06 11.8522 234.204 12.2238C234.351 12.5918 234.567 12.8793 234.851 13.0861C235.138 13.2894 235.49 13.3911 235.907 13.3911ZM241.633 15V6.92375H243.479V8.26979H243.563C243.71 7.80359 243.963 7.44429 244.32 7.19191C244.681 6.93602 245.093 6.80808 245.556 6.80808C245.661 6.80808 245.778 6.81334 245.908 6.82385C246.041 6.83086 246.152 6.84313 246.239 6.86066V8.61156C246.159 8.58352 246.031 8.55898 245.855 8.53795C245.684 8.51341 245.517 8.50115 245.356 8.50115C245.009 8.50115 244.697 8.57651 244.42 8.72724C244.147 8.87446 243.931 9.07952 243.773 9.34242C243.616 9.60532 243.537 9.90853 243.537 10.2521V15H241.633ZM249.683 15.163C249.171 15.163 248.711 15.0719 248.3 14.8896C247.894 14.7038 247.571 14.4304 247.333 14.0693C247.098 13.7083 246.981 13.2631 246.981 12.7338C246.981 12.2781 247.065 11.9013 247.233 11.6033C247.401 11.3054 247.631 11.067 247.922 10.8883C248.213 10.7095 248.541 10.5745 248.905 10.4834C249.273 10.3888 249.653 10.3204 250.046 10.2783C250.519 10.2293 250.903 10.1854 251.198 10.1469C251.492 10.1048 251.706 10.0417 251.839 9.9576C251.976 9.86997 252.044 9.73502 252.044 9.55274V9.52119C252.044 9.12509 251.927 8.81838 251.692 8.60105C251.457 8.38372 251.119 8.27505 250.677 8.27505C250.211 8.27505 249.841 8.37671 249.568 8.58002C249.298 8.78332 249.115 9.02344 249.021 9.30036L247.244 9.04797C247.384 8.55723 247.615 8.14711 247.938 7.81761C248.26 7.4846 248.654 7.23573 249.121 7.07098C249.587 6.90272 250.102 6.81859 250.666 6.81859C251.056 6.81859 251.443 6.86416 251.829 6.9553C252.214 7.04644 252.566 7.19717 252.885 7.40749C253.204 7.6143 253.46 7.89648 253.653 8.25402C253.849 8.61156 253.947 9.05849 253.947 9.5948V15H252.118V13.8906H252.055C251.939 14.1149 251.776 14.3252 251.566 14.5215C251.359 14.7143 251.098 14.8703 250.782 14.9895C250.47 15.1052 250.104 15.163 249.683 15.163ZM250.177 13.7644C250.56 13.7644 250.891 13.689 251.171 13.5383C251.452 13.384 251.667 13.1807 251.818 12.9284C251.972 12.676 252.049 12.4008 252.049 12.1029V11.1512C251.99 11.2002 251.888 11.2458 251.744 11.2879C251.604 11.3299 251.446 11.3667 251.271 11.3983C251.096 11.4298 250.922 11.4579 250.751 11.4824C250.579 11.507 250.43 11.528 250.304 11.5455C250.02 11.5841 249.766 11.6472 249.541 11.7348C249.317 11.8224 249.14 11.9451 249.01 12.1029C248.881 12.2571 248.816 12.4569 248.816 12.7023C248.816 13.0528 248.944 13.3174 249.2 13.4962C249.455 13.675 249.781 13.7644 250.177 13.7644ZM259.894 6.92375V8.39599H255.251V6.92375H259.894ZM256.398 4.98882H258.301V12.5708C258.301 12.8267 258.34 13.023 258.417 13.1597C258.497 13.2929 258.603 13.384 258.732 13.4331C258.862 13.4822 259.006 13.5067 259.163 13.5067C259.283 13.5067 259.391 13.498 259.489 13.4804C259.591 13.4629 259.668 13.4471 259.721 13.4331L260.041 14.9211C259.94 14.9562 259.794 14.9947 259.605 15.0368C259.419 15.0789 259.191 15.1034 258.922 15.1104C258.445 15.1244 258.015 15.0526 257.633 14.8948C257.251 14.7336 256.948 14.4847 256.724 14.1482C256.503 13.8117 256.394 13.3911 256.398 12.8863V4.98882ZM261.486 15V6.92375H263.389V15H261.486ZM262.443 5.77752C262.142 5.77752 261.882 5.67761 261.665 5.47781C261.448 5.2745 261.339 5.03088 261.339 4.74695C261.339 4.45952 261.448 4.2159 261.665 4.01609C261.882 3.81279 262.142 3.71113 262.443 3.71113C262.748 3.71113 263.007 3.81279 263.221 4.01609C263.439 4.2159 263.547 4.45952 263.547 4.74695C263.547 5.03088 263.439 5.2745 263.221 5.47781C263.007 5.67761 262.748 5.77752 262.443 5.77752ZM268.87 15.1577C268.081 15.1577 267.397 14.9842 266.819 14.6372C266.241 14.2902 265.792 13.8047 265.473 13.1807C265.157 12.5568 265 11.8277 265 10.9934C265 10.1592 265.157 9.4283 265.473 8.80085C265.792 8.1734 266.241 7.68616 266.819 7.33913C267.397 6.99211 268.081 6.81859 268.87 6.81859C269.658 6.81859 270.342 6.99211 270.92 7.33913C271.499 7.68616 271.946 8.1734 272.261 8.80085C272.58 9.4283 272.739 10.1592 272.739 10.9934C272.739 11.8277 272.58 12.5568 272.261 13.1807C271.946 13.8047 271.499 14.2902 270.92 14.6372C270.342 14.9842 269.658 15.1577 268.87 15.1577ZM268.88 13.6329C269.308 13.6329 269.665 13.5155 269.953 13.2806C270.24 13.0423 270.454 12.7233 270.594 12.3237C270.738 11.9241 270.81 11.4789 270.81 10.9882C270.81 10.4939 270.738 10.047 270.594 9.64738C270.454 9.24427 270.24 8.92354 269.953 8.68517C269.665 8.44681 269.308 8.32763 268.88 8.32763C268.442 8.32763 268.077 8.44681 267.786 8.68517C267.499 8.92354 267.283 9.24427 267.14 9.64738C267 10.047 266.929 10.4939 266.929 10.9882C266.929 11.4789 267 11.9241 267.14 12.3237C267.283 12.7233 267.499 13.0423 267.786 13.2806C268.077 13.5155 268.442 13.6329 268.88 13.6329ZM276.258 10.2678V15H274.355V6.92375H276.174V8.29608H276.269C276.455 7.8439 276.751 7.4846 277.157 7.2182C277.568 6.9518 278.074 6.81859 278.677 6.81859C279.234 6.81859 279.72 6.93777 280.133 7.17614C280.551 7.4145 280.873 7.75977 281.101 8.21196C281.332 8.66414 281.446 9.21272 281.443 9.8577V15H279.539V10.1521C279.539 9.61233 279.399 9.18994 279.119 8.88498C278.842 8.58001 278.458 8.42753 277.967 8.42753C277.634 8.42753 277.338 8.50115 277.079 8.64837C276.823 8.79209 276.621 9.00065 276.474 9.27407C276.33 9.54748 276.258 9.87873 276.258 10.2678ZM285.197 11.8347V11.698C285.2 11.0635 285.26 10.5588 285.376 10.1837C285.495 9.80863 285.663 9.50717 285.88 9.27933C286.098 9.04797 286.362 8.8359 286.674 8.64311C286.888 8.50991 287.079 8.36444 287.248 8.2067C287.419 8.04545 287.554 7.86668 287.652 7.67039C287.751 7.47058 287.8 7.248 287.8 7.00262C287.8 6.7257 287.735 6.48559 287.605 6.28228C287.475 6.07897 287.3 5.92123 287.079 5.80906C286.862 5.69689 286.618 5.64081 286.348 5.64081C286.1 5.64081 285.863 5.69514 285.639 5.80381C285.418 5.90896 285.234 6.07021 285.086 6.28754C284.943 6.50136 284.862 6.77302 284.845 7.10252H282.973C282.99 6.43651 283.152 5.87917 283.457 5.43049C283.765 4.98181 284.172 4.6453 284.676 4.42096C285.185 4.19662 285.745 4.08445 286.359 4.08445C287.028 4.08445 287.617 4.20188 288.126 4.43673C288.637 4.67159 289.035 5.00635 289.319 5.441C289.607 5.87216 289.75 6.38393 289.75 6.97633C289.75 7.37594 289.685 7.73348 289.556 8.04896C289.43 8.36444 289.249 8.64486 289.014 8.89024C288.779 9.13561 288.501 9.35469 288.178 9.54748C287.894 9.72275 287.661 9.90502 287.479 10.0943C287.3 10.2836 287.167 10.5062 287.079 10.7621C286.995 11.0145 286.951 11.3264 286.948 11.698V11.8347H285.197ZM286.112 15.1157C285.796 15.1157 285.525 15.0035 285.297 14.7792C285.069 14.5548 284.955 14.2814 284.955 13.9589C284.955 13.6434 285.069 13.3735 285.297 13.1492C285.525 12.9249 285.796 12.8127 286.112 12.8127C286.424 12.8127 286.694 12.9249 286.922 13.1492C287.153 13.3735 287.269 13.6434 287.269 13.9589C287.269 14.1727 287.214 14.3673 287.106 14.5426C287 14.7178 286.86 14.858 286.685 14.9632C286.513 15.0648 286.322 15.1157 286.112 15.1157Z" fill="#1B1139"/>
<rect opacity="0.8" y="6.9917" width="14.8065" height="2.46774" rx="1.23387" fill="#1B1139"/>
<rect opacity="0.8" x="8.6377" y="0.82251" width="14.8065" height="2.46774" rx="1.23387" transform="rotate(90 8.6377 0.82251)" fill="#1B1139"/>
</svg>
