<svg width="22" height="22" viewBox="0 0 22 22" fill="none" xmlns="http://www.w3.org/2000/svg">
<path fill-rule="evenodd" clip-rule="evenodd" d="M18.25 16L18.343 15.999C19.304 15.975 20.22 15.583 20.902 14.902C21.605 14.198 22 13.245 22 12.25V10C22 4.52 17.592 0.07 12.129 0.00100005L12 0H11C4.929 0 0 4.929 0 11C0 17.071 4.929 22 11 22C11.552 22 12 21.552 12 21C12 20.448 11.552 20 11 20C6.033 20 2 15.967 2 11C2 6.033 6.033 2 11 2H12C16.418 2 20 5.582 20 10V12.25C20 12.714 19.816 13.159 19.487 13.487C19.159 13.816 18.714 14 18.25 14M18.25 14C17.786 14 17.341 13.816 17.013 13.487C16.684 13.159 16.5 12.714 16.5 12.25V7C16.5 6.465 16.08 6.028 15.551 6.001L15.5 6C14.948 6 14.5 6.448 14.5 7C14.5 7 14.5 9.935 14.5 12.25C14.5 13.245 14.895 14.198 15.598 14.902C16.302 15.605 17.255 16 18.25 16" fill="white"/>
</svg>
