<svg width="154" height="20" viewBox="0 0 154 20" fill="none" xmlns="http://www.w3.org/2000/svg">
<path d="M1.12465 15V3.59764H5.48961C6.31361 3.59764 6.99842 3.72755 7.54404 3.98736C8.09338 4.24347 8.50352 4.59423 8.77448 5.03963C9.04914 5.48504 9.18647 5.98983 9.18647 6.55401C9.18647 7.01797 9.09739 7.41513 8.91923 7.74547C8.74107 8.0721 8.50167 8.33749 8.20102 8.54163C7.90037 8.74577 7.56446 8.89239 7.19329 8.98147V9.09282C7.59786 9.11509 7.98574 9.23943 8.35691 9.46584C8.73179 9.68855 9.03801 10.004 9.27556 10.4123C9.51311 10.8206 9.63188 11.3143 9.63188 11.8933C9.63188 12.4835 9.48898 13.0142 9.20318 13.4856C8.91738 13.9533 8.48682 14.3226 7.9115 14.5936C7.33619 14.8645 6.61241 15 5.74015 15H1.12465ZM3.19021 13.2741H5.41167C6.16143 13.2741 6.70149 13.1312 7.03183 12.8454C7.36588 12.5558 7.53291 12.1847 7.53291 11.7318C7.53291 11.3941 7.4494 11.0897 7.28237 10.8188C7.11534 10.5441 6.87779 10.3288 6.56972 10.1729C6.26165 10.0133 5.89419 9.93352 5.46734 9.93352H3.19021V13.2741ZM3.19021 8.44698H5.23351C5.58983 8.44698 5.91089 8.38203 6.1967 8.25212C6.4825 8.11849 6.70705 7.93105 6.87037 7.68979C7.0374 7.44482 7.12091 7.15531 7.12091 6.82125C7.12091 6.37956 6.96502 6.01581 6.65324 5.73001C6.34516 5.44421 5.88677 5.30131 5.27805 5.30131H3.19021V8.44698ZM15.07 15.167C14.2349 15.167 13.5111 14.9833 12.8986 14.6158C12.2862 14.2484 11.8111 13.7343 11.4734 13.0736C11.1393 12.4129 10.9723 11.6409 10.9723 10.7575C10.9723 9.87413 11.1393 9.10024 11.4734 8.43585C11.8111 7.77145 12.2862 7.25552 12.8986 6.88806C13.5111 6.52061 14.2349 6.33688 15.07 6.33688C15.9051 6.33688 16.6289 6.52061 17.2413 6.88806C17.8538 7.25552 18.327 7.77145 18.6611 8.43585C18.9988 9.10024 19.1677 9.87413 19.1677 10.7575C19.1677 11.6409 18.9988 12.4129 18.6611 13.0736C18.327 13.7343 17.8538 14.2484 17.2413 14.6158C16.6289 14.9833 15.9051 15.167 15.07 15.167ZM15.0811 13.5524C15.534 13.5524 15.9126 13.4281 16.2169 13.1794C16.5213 12.927 16.7477 12.5892 16.8962 12.1661C17.0483 11.743 17.1244 11.2716 17.1244 10.752C17.1244 10.2286 17.0483 9.75536 16.8962 9.33222C16.7477 8.90538 16.5213 8.56576 16.2169 8.31336C15.9126 8.06096 15.534 7.93477 15.0811 7.93477C14.6172 7.93477 14.2311 8.06096 13.9231 8.31336C13.6187 8.56576 13.3904 8.90538 13.2383 9.33222C13.0898 9.75536 13.0156 10.2286 13.0156 10.752C13.0156 11.2716 13.0898 11.743 13.2383 12.1661C13.3904 12.5892 13.6187 12.927 13.9231 13.1794C14.2311 13.4281 14.6172 13.5524 15.0811 13.5524ZM24.6086 15.167C23.7735 15.167 23.0497 14.9833 22.4373 14.6158C21.8248 14.2484 21.3497 13.7343 21.012 13.0736C20.6779 12.4129 20.5109 11.6409 20.5109 10.7575C20.5109 9.87413 20.6779 9.10024 21.012 8.43585C21.3497 7.77145 21.8248 7.25552 22.4373 6.88806C23.0497 6.52061 23.7735 6.33688 24.6086 6.33688C25.4438 6.33688 26.1675 6.52061 26.78 6.88806C27.3924 7.25552 27.8656 7.77145 28.1997 8.43585C28.5375 9.10024 28.7063 9.87413 28.7063 10.7575C28.7063 11.6409 28.5375 12.4129 28.1997 13.0736C27.8656 13.7343 27.3924 14.2484 26.78 14.6158C26.1675 14.9833 25.4438 15.167 24.6086 15.167ZM24.6198 13.5524C25.0726 13.5524 25.4512 13.4281 25.7555 13.1794C26.0599 12.927 26.2863 12.5892 26.4348 12.1661C26.587 11.743 26.663 11.2716 26.663 10.752C26.663 10.2286 26.587 9.75536 26.4348 9.33222C26.2863 8.90538 26.0599 8.56576 25.7555 8.31336C25.4512 8.06096 25.0726 7.93477 24.6198 7.93477C24.1558 7.93477 23.7698 8.06096 23.4617 8.31336C23.1573 8.56576 22.9291 8.90538 22.7769 9.33222C22.6284 9.75536 22.5542 10.2286 22.5542 10.752C22.5542 11.2716 22.6284 11.743 22.7769 12.1661C22.9291 12.5892 23.1573 12.927 23.4617 13.1794C23.7698 13.4281 24.1558 13.5524 24.6198 13.5524ZM32.2543 12.3164L32.2487 9.88341H32.5716L35.6449 6.44823H38L34.2196 10.6573H33.8021L32.2543 12.3164ZM30.417 15V3.59764H32.4324V15H30.417ZM35.7841 15L33.0003 11.1083L34.3588 9.68855L38.1949 15H35.7841ZM53.0811 7.44482H50.9989C50.9395 7.10334 50.83 6.80084 50.6704 6.53731C50.5108 6.27006 50.3122 6.04365 50.0746 5.85807C49.8371 5.67248 49.5661 5.53329 49.2618 5.4405C48.9611 5.34399 48.6364 5.29574 48.2875 5.29574C47.6676 5.29574 47.1183 5.45163 46.6395 5.76342C46.1606 6.07149 45.7858 6.52432 45.5148 7.1219C45.2439 7.71577 45.1084 8.44141 45.1084 9.29882C45.1084 10.1711 45.2439 10.906 45.5148 11.5036C45.7895 12.0974 46.1644 12.5466 46.6395 12.8509C47.1183 13.1516 47.6657 13.3019 48.2819 13.3019C48.6234 13.3019 48.9426 13.2574 49.2395 13.1683C49.5402 13.0755 49.8093 12.94 50.0468 12.7618C50.2881 12.5837 50.4904 12.3647 50.6537 12.1049C50.8207 11.845 50.9358 11.5481 50.9989 11.2141L53.0811 11.2252C53.0032 11.7671 52.8343 12.2756 52.5745 12.7507C52.3184 13.2258 51.9825 13.6452 51.5667 14.009C51.151 14.369 50.6648 14.6511 50.108 14.8552C49.5513 15.0557 48.9333 15.1559 48.254 15.1559C47.2519 15.1559 46.3574 14.9239 45.5705 14.4599C44.7836 13.996 44.1637 13.326 43.7109 12.4501C43.2581 11.5741 43.0317 10.5237 43.0317 9.29882C43.0317 8.07024 43.2599 7.01983 43.7165 6.14758C44.173 5.27162 44.7947 4.60165 45.5816 4.13769C46.3685 3.67373 47.2593 3.44174 48.254 3.44174C48.8887 3.44174 49.4789 3.53082 50.0245 3.70899C50.5702 3.88715 51.0564 4.14882 51.4832 4.49401C51.9101 4.83549 52.2608 5.25491 52.5355 5.75228C52.8139 6.24594 52.9958 6.81012 53.0811 7.44482ZM58.6139 15.167C57.7788 15.167 57.055 14.9833 56.4425 14.6158C55.8301 14.2484 55.355 13.7343 55.0172 13.0736C54.6832 12.4129 54.5162 11.6409 54.5162 10.7575C54.5162 9.87413 54.6832 9.10024 55.0172 8.43585C55.355 7.77145 55.8301 7.25552 56.4425 6.88806C57.055 6.52061 57.7788 6.33688 58.6139 6.33688C59.449 6.33688 60.1728 6.52061 60.7852 6.88806C61.3977 7.25552 61.8709 7.77145 62.205 8.43585C62.5427 9.10024 62.7116 9.87413 62.7116 10.7575C62.7116 11.6409 62.5427 12.4129 62.205 13.0736C61.8709 13.7343 61.3977 14.2484 60.7852 14.6158C60.1728 14.9833 59.449 15.167 58.6139 15.167ZM58.625 13.5524C59.0778 13.5524 59.4564 13.4281 59.7608 13.1794C60.0652 12.927 60.2916 12.5892 60.44 12.1661C60.5922 11.743 60.6683 11.2716 60.6683 10.752C60.6683 10.2286 60.5922 9.75536 60.44 9.33222C60.2916 8.90538 60.0652 8.56576 59.7608 8.31336C59.4564 8.06096 59.0778 7.93477 58.625 7.93477C58.1611 7.93477 57.775 8.06096 57.467 8.31336C57.1626 8.56576 56.9343 8.90538 56.7822 9.33222C56.6337 9.75536 56.5595 10.2286 56.5595 10.752C56.5595 11.2716 56.6337 11.743 56.7822 12.1661C56.9343 12.5892 57.1626 12.927 57.467 13.1794C57.775 13.4281 58.1611 13.5524 58.625 13.5524ZM66.4377 9.9892V15H64.4222V6.44823H66.3486V7.90136H66.4488C66.6456 7.42255 66.9592 7.0421 67.3898 6.76001C67.824 6.47792 68.3604 6.33688 68.9988 6.33688C69.5889 6.33688 70.103 6.46307 70.541 6.71547C70.9827 6.96787 71.3242 7.33347 71.5654 7.81228C71.8104 8.29109 71.931 8.87197 71.9273 9.55493V15H69.9119V9.86671C69.9119 9.29511 69.7634 8.84785 69.4665 8.52493C69.1732 8.20201 68.7668 8.04055 68.2472 8.04055C67.8945 8.04055 67.5809 8.1185 67.3062 8.27439C67.0353 8.42657 66.8219 8.64741 66.666 8.93693C66.5138 9.22644 66.4377 9.5772 66.4377 9.9892ZM80.7352 8.70866L78.8979 8.90909C78.8459 8.7235 78.755 8.54905 78.6251 8.38574C78.4989 8.22242 78.3282 8.09066 78.1129 7.99044C77.8976 7.89022 77.6341 7.84012 77.3223 7.84012C76.9029 7.84012 76.5502 7.93105 76.2644 8.11293C75.9824 8.2948 75.8432 8.53049 75.8469 8.82001C75.8432 9.06869 75.9341 9.27098 76.1197 9.42687C76.309 9.58276 76.6208 9.71082 77.055 9.81103L78.5137 10.1228C79.3229 10.2973 79.9242 10.5738 80.3176 10.9524C80.7148 11.331 80.9152 11.8265 80.9189 12.4389C80.9152 12.9771 80.7575 13.4522 80.4457 13.8642C80.1376 14.2725 79.7089 14.5917 79.1596 14.8218C78.6102 15.052 77.9793 15.167 77.2666 15.167C76.2199 15.167 75.3773 14.948 74.7389 14.5101C74.1005 14.0684 73.7201 13.4541 73.5976 12.6672L75.5629 12.4779C75.652 12.8639 75.8413 13.1553 76.1308 13.352C76.4203 13.5487 76.7971 13.6471 77.261 13.6471C77.7398 13.6471 78.124 13.5487 78.4135 13.352C78.7067 13.1553 78.8534 12.9122 78.8534 12.6227C78.8534 12.3777 78.7587 12.1754 78.5694 12.0158C78.3838 11.8562 78.0943 11.7337 77.7009 11.6483L76.2422 11.3421C75.4219 11.1714 74.815 10.8837 74.4216 10.4791C74.0281 10.0709 73.8333 9.55493 73.837 8.93136C73.8333 8.4043 73.9762 7.94776 74.2657 7.56174C74.5589 7.17201 74.9653 6.87136 75.485 6.65979C76.0083 6.44452 76.6115 6.33688 77.2944 6.33688C78.2966 6.33688 79.0853 6.5503 79.6607 6.97715C80.2397 7.40399 80.5979 7.98116 80.7352 8.70866ZM88.0315 11.4034V6.44823H90.0469V15H88.0927V13.4801H88.0036C87.8106 13.9589 87.4933 14.3505 87.0516 14.6548C86.6136 14.9592 86.0736 15.1114 85.4314 15.1114C84.871 15.1114 84.3754 14.987 83.9449 14.7383C83.518 14.4859 83.184 14.1203 82.9427 13.6415C82.7015 13.159 82.5808 12.5763 82.5808 11.8933V6.44823H84.5963V11.5815C84.5963 12.1234 84.7448 12.554 85.0417 12.8732C85.3386 13.1924 85.7284 13.352 86.2109 13.352C86.5078 13.352 86.7955 13.2796 87.0739 13.1349C87.3522 12.9901 87.5805 12.7748 87.7587 12.489C87.9405 12.1995 88.0315 11.8376 88.0315 11.4034ZM94.1349 3.59764V15H92.1195V3.59764H94.1349ZM100.478 6.44823V8.00714H95.5616V6.44823H100.478ZM96.7753 4.39936H98.7908V12.4278C98.7908 12.6987 98.8316 12.9066 98.9133 13.0514C98.9987 13.1924 99.11 13.2889 99.2473 13.3409C99.3847 13.3928 99.5369 13.4188 99.7039 13.4188C99.8301 13.4188 99.9451 13.4095 100.049 13.391C100.157 13.3724 100.238 13.3557 100.294 13.3409L100.634 14.9165C100.526 14.9536 100.372 14.9944 100.172 15.039C99.9748 15.0835 99.7336 15.1095 99.4478 15.1169C98.943 15.1318 98.4883 15.0557 98.0837 14.8886C97.6791 14.7179 97.3581 14.4544 97.1205 14.0981C96.8867 13.7417 96.7716 13.2963 96.7753 12.7618V4.39936ZM104.624 15.1726C104.082 15.1726 103.594 15.0761 103.16 14.8831C102.729 14.6864 102.388 14.3968 102.136 14.0145C101.887 13.6322 101.762 13.1608 101.762 12.6004C101.762 12.1179 101.852 11.7189 102.03 11.4034C102.208 11.0879 102.451 10.8355 102.759 10.6462C103.067 10.4569 103.414 10.314 103.8 10.2175C104.19 10.1172 104.593 10.0449 105.008 10.0003C105.509 9.94837 105.916 9.90197 106.228 9.86114C106.539 9.8166 106.766 9.74979 106.907 9.66071C107.052 9.56792 107.124 9.42502 107.124 9.23201V9.1986C107.124 8.77918 107 8.4544 106.751 8.22428C106.502 7.99415 106.144 7.87909 105.676 7.87909C105.183 7.87909 104.791 7.98673 104.502 8.20201C104.216 8.41729 104.023 8.67154 103.923 8.96476L102.041 8.69752C102.189 8.17788 102.434 7.74361 102.776 7.39471C103.117 7.0421 103.535 6.77857 104.028 6.60412C104.522 6.42596 105.068 6.33688 105.665 6.33688C106.077 6.33688 106.487 6.38513 106.896 6.48163C107.304 6.57814 107.677 6.73774 108.015 6.96044C108.353 7.17943 108.624 7.47823 108.828 7.85682C109.036 8.23541 109.139 8.70866 109.139 9.27655V15H107.202V13.8252H107.135C107.013 14.0628 106.84 14.2855 106.617 14.4934C106.398 14.6975 106.122 14.8627 105.788 14.9889C105.457 15.1114 105.07 15.1726 104.624 15.1726ZM105.148 13.6916C105.552 13.6916 105.903 13.6118 106.2 13.4522C106.497 13.2889 106.725 13.0736 106.885 12.8064C107.048 12.5391 107.13 12.2478 107.13 11.9323V10.9245C107.067 10.9765 106.959 11.0248 106.807 11.0693C106.658 11.1138 106.491 11.1528 106.306 11.1862C106.12 11.2196 105.936 11.2493 105.754 11.2753C105.573 11.3013 105.415 11.3236 105.281 11.3421C104.981 11.3829 104.711 11.4498 104.474 11.5425C104.236 11.6353 104.049 11.7652 103.912 11.9323C103.774 12.0956 103.706 12.3072 103.706 12.567C103.706 12.9381 103.841 13.2184 104.112 13.4077C104.383 13.597 104.728 13.6916 105.148 13.6916ZM115.436 6.44823V8.00714H110.52V6.44823H115.436ZM111.734 4.39936H113.749V12.4278C113.749 12.6987 113.79 12.9066 113.872 13.0514C113.957 13.1924 114.069 13.2889 114.206 13.3409C114.343 13.3928 114.495 13.4188 114.663 13.4188C114.789 13.4188 114.904 13.4095 115.008 13.391C115.115 13.3724 115.197 13.3557 115.253 13.3409L115.592 14.9165C115.485 14.9536 115.331 14.9944 115.13 15.039C114.933 15.0835 114.692 15.1095 114.406 15.1169C113.902 15.1318 113.447 15.0557 113.042 14.8886C112.638 14.7179 112.317 14.4544 112.079 14.0981C111.845 13.7417 111.73 13.2963 111.734 12.7618V4.39936ZM117.122 15V6.44823H119.137V15H117.122ZM118.135 5.2345C117.816 5.2345 117.541 5.12872 117.311 4.91715C117.081 4.70187 116.966 4.4439 116.966 4.14326C116.966 3.8389 117.081 3.58093 117.311 3.36937C117.541 3.15409 117.816 3.04645 118.135 3.04645C118.458 3.04645 118.733 3.15409 118.959 3.36937C119.189 3.58093 119.304 3.8389 119.304 4.14326C119.304 4.4439 119.189 4.70187 118.959 4.91715C118.733 5.12872 118.458 5.2345 118.135 5.2345ZM124.94 15.167C124.105 15.167 123.381 14.9833 122.769 14.6158C122.156 14.2484 121.681 13.7343 121.344 13.0736C121.01 12.4129 120.843 11.6409 120.843 10.7575C120.843 9.87413 121.01 9.10024 121.344 8.43585C121.681 7.77145 122.156 7.25552 122.769 6.88806C123.381 6.52061 124.105 6.33688 124.94 6.33688C125.775 6.33688 126.499 6.52061 127.112 6.88806C127.724 7.25552 128.197 7.77145 128.531 8.43585C128.869 9.10024 129.038 9.87413 129.038 10.7575C129.038 11.6409 128.869 12.4129 128.531 13.0736C128.197 13.7343 127.724 14.2484 127.112 14.6158C126.499 14.9833 125.775 15.167 124.94 15.167ZM124.951 13.5524C125.404 13.5524 125.783 13.4281 126.087 13.1794C126.392 12.927 126.618 12.5892 126.766 12.1661C126.919 11.743 126.995 11.2716 126.995 10.752C126.995 10.2286 126.919 9.75536 126.766 9.33222C126.618 8.90538 126.392 8.56576 126.087 8.31336C125.783 8.06096 125.404 7.93477 124.951 7.93477C124.487 7.93477 124.101 8.06096 123.793 8.31336C123.489 8.56576 123.261 8.90538 123.109 9.33222C122.96 9.75536 122.886 10.2286 122.886 10.752C122.886 11.2716 122.96 11.743 123.109 12.1661C123.261 12.5892 123.489 12.927 123.793 13.1794C124.101 13.4281 124.487 13.5524 124.951 13.5524ZM132.764 9.9892V15H130.749V6.44823H132.675V7.90136H132.775C132.972 7.42255 133.286 7.0421 133.716 6.76001C134.15 6.47792 134.687 6.33688 135.325 6.33688C135.915 6.33688 136.429 6.46307 136.867 6.71547C137.309 6.96787 137.651 7.33347 137.892 7.81228C138.137 8.29109 138.257 8.87197 138.254 9.55493V15H136.238V9.86671C136.238 9.29511 136.09 8.84785 135.793 8.52493C135.5 8.20201 135.093 8.04055 134.574 8.04055C134.221 8.04055 133.907 8.1185 133.633 8.27439C133.362 8.42657 133.148 8.64741 132.992 8.93693C132.84 9.22644 132.764 9.5772 132.764 9.9892Z" fill="white"/>
<path d="M153.953 8.08663C154.002 7.75237 153.779 7.44263 153.454 7.39481L148.164 6.61561C147.84 6.5678 147.536 6.80001 147.487 7.13427C147.438 7.46854 147.661 7.77827 147.986 7.82609L152.688 8.51871L151.975 13.3606C151.926 13.6949 152.149 14.0046 152.474 14.0524C152.798 14.1002 153.101 13.868 153.15 13.5338L153.953 8.08663ZM146 13.6431L146.353 14.1323L153.718 8.48924L153.365 8.00005L153.012 7.51086L145.647 13.1539L146 13.6431Z" fill="white"/>
</svg>
