<svg width="117" height="44" viewBox="0 0 117 44" fill="none" xmlns="http://www.w3.org/2000/svg">
<rect width="117" height="44" rx="22" fill="white"/>
<path d="M28.732 28.168C28.0787 28.168 27.472 28.0467 26.912 27.804C26.352 27.552 25.876 27.2113 25.484 26.782C25.092 26.3527 24.8027 25.858 24.616 25.298L26.016 24.71C26.268 25.354 26.6367 25.8487 27.122 26.194C27.6073 26.5393 28.1673 26.712 28.802 26.712C29.1753 26.712 29.502 26.656 29.782 26.544C30.062 26.4227 30.2767 26.2547 30.426 26.04C30.5847 25.8253 30.664 25.578 30.664 25.298C30.664 24.9153 30.5567 24.612 30.342 24.388C30.1273 24.164 29.81 23.9867 29.39 23.856L27.43 23.24C26.646 22.9973 26.0487 22.6287 25.638 22.134C25.2273 21.63 25.022 21.042 25.022 20.37C25.022 19.782 25.1667 19.2687 25.456 18.83C25.7453 18.382 26.142 18.032 26.646 17.78C27.1593 17.528 27.7427 17.402 28.396 17.402C29.0213 17.402 29.5907 17.514 30.104 17.738C30.6173 17.9527 31.056 18.2513 31.42 18.634C31.7933 19.0167 32.064 19.46 32.232 19.964L30.86 20.566C30.6547 20.0153 30.3327 19.5907 29.894 19.292C29.4647 18.9933 28.9653 18.844 28.396 18.844C28.0507 18.844 27.7473 18.9047 27.486 19.026C27.2247 19.138 27.0193 19.306 26.87 19.53C26.73 19.7447 26.66 19.9967 26.66 20.286C26.66 20.622 26.7673 20.9207 26.982 21.182C27.1967 21.4433 27.5233 21.6393 27.962 21.77L29.782 22.344C30.6127 22.596 31.238 22.96 31.658 23.436C32.078 23.9027 32.288 24.486 32.288 25.186C32.288 25.7647 32.134 26.278 31.826 26.726C31.5273 27.174 31.112 27.5287 30.58 27.79C30.048 28.042 29.432 28.168 28.732 28.168ZM36.6905 28.168C36.1211 28.168 35.6218 28.042 35.1925 27.79C34.7631 27.5287 34.4271 27.1693 34.1845 26.712C33.9511 26.2453 33.8345 25.7087 33.8345 25.102V20.426H35.4165V24.962C35.4165 25.3073 35.4865 25.6107 35.6265 25.872C35.7665 26.1333 35.9625 26.3387 36.2145 26.488C36.4665 26.628 36.7558 26.698 37.0825 26.698C37.4185 26.698 37.7125 26.6233 37.9645 26.474C38.2165 26.3247 38.4125 26.1147 38.5525 25.844C38.7018 25.5733 38.7765 25.256 38.7765 24.892V20.426H40.3445V28H38.8465V26.516L39.0145 26.712C38.8371 27.1787 38.5431 27.538 38.1325 27.79C37.7218 28.042 37.2411 28.168 36.6905 28.168ZM46.2376 28.168C45.6496 28.168 45.1129 28.0467 44.6276 27.804C44.1516 27.5613 43.7829 27.2113 43.5216 26.754L43.7036 26.46V28H42.1916V17.402H43.7736V21.994L43.5216 21.63C43.8016 21.2007 44.1749 20.8647 44.6416 20.622C45.1082 20.3793 45.6402 20.258 46.2376 20.258C46.9562 20.258 47.6002 20.4307 48.1696 20.776C48.7482 21.1213 49.2009 21.5927 49.5276 22.19C49.8636 22.7873 50.0316 23.4593 50.0316 24.206C50.0316 24.9527 49.8636 25.6247 49.5276 26.222C49.2009 26.8193 48.7529 27.2953 48.1836 27.65C47.6142 27.9953 46.9656 28.168 46.2376 28.168ZM46.0836 26.698C46.5316 26.698 46.9282 26.5907 47.2736 26.376C47.6189 26.1613 47.8896 25.8673 48.0856 25.494C48.2909 25.1113 48.3936 24.682 48.3936 24.206C48.3936 23.73 48.2909 23.3053 48.0856 22.932C47.8896 22.5587 47.6189 22.2647 47.2736 22.05C46.9282 21.8353 46.5316 21.728 46.0836 21.728C45.6449 21.728 45.2482 21.8353 44.8936 22.05C44.5482 22.2647 44.2729 22.5587 44.0676 22.932C43.8716 23.3053 43.7736 23.73 43.7736 24.206C43.7736 24.682 43.8716 25.1113 44.0676 25.494C44.2729 25.8673 44.5482 26.1613 44.8936 26.376C45.2482 26.5907 45.6449 26.698 46.0836 26.698ZM54.3705 28.168C53.5958 28.168 52.9145 27.9767 52.3265 27.594C51.7478 27.2113 51.3418 26.698 51.1085 26.054L52.3265 25.48C52.5318 25.9093 52.8118 26.25 53.1665 26.502C53.5305 26.754 53.9318 26.88 54.3705 26.88C54.7438 26.88 55.0472 26.796 55.2805 26.628C55.5138 26.46 55.6305 26.2313 55.6305 25.942C55.6305 25.7553 55.5792 25.606 55.4765 25.494C55.3738 25.3727 55.2432 25.2747 55.0845 25.2C54.9352 25.1253 54.7812 25.0693 54.6225 25.032L53.4325 24.696C52.7792 24.5093 52.2892 24.2293 51.9625 23.856C51.6452 23.4733 51.4865 23.03 51.4865 22.526C51.4865 22.0687 51.6032 21.672 51.8365 21.336C52.0698 20.9907 52.3918 20.7247 52.8025 20.538C53.2132 20.3513 53.6752 20.258 54.1885 20.258C54.8792 20.258 55.4952 20.4307 56.0365 20.776C56.5778 21.112 56.9605 21.5833 57.1845 22.19L55.9665 22.764C55.8172 22.4 55.5792 22.1107 55.2525 21.896C54.9352 21.6813 54.5758 21.574 54.1745 21.574C53.8292 21.574 53.5538 21.658 53.3485 21.826C53.1432 21.9847 53.0405 22.1947 53.0405 22.456C53.0405 22.6333 53.0872 22.7827 53.1805 22.904C53.2738 23.016 53.3952 23.1093 53.5445 23.184C53.6938 23.2493 53.8478 23.3053 54.0065 23.352L55.2385 23.716C55.8638 23.8933 56.3445 24.1733 56.6805 24.556C57.0165 24.9293 57.1845 25.3773 57.1845 25.9C57.1845 26.348 57.0632 26.7447 56.8205 27.09C56.5872 27.426 56.2605 27.692 55.8405 27.888C55.4205 28.0747 54.9305 28.168 54.3705 28.168ZM62.3325 28.168C61.5765 28.168 60.9045 27.9953 60.3165 27.65C59.7379 27.2953 59.2759 26.8193 58.9305 26.222C58.5945 25.6247 58.4265 24.948 58.4265 24.192C58.4265 23.4453 58.5945 22.7733 58.9305 22.176C59.2665 21.5787 59.7285 21.112 60.3165 20.776C60.9045 20.4307 61.5765 20.258 62.3325 20.258C62.8459 20.258 63.3265 20.3513 63.7745 20.538C64.2225 20.7153 64.6099 20.9627 64.9365 21.28C65.2725 21.5973 65.5199 21.966 65.6785 22.386L64.2925 23.03C64.1339 22.638 63.8772 22.3253 63.5225 22.092C63.1772 21.8493 62.7805 21.728 62.3325 21.728C61.9032 21.728 61.5159 21.8353 61.1705 22.05C60.8345 22.2553 60.5685 22.5493 60.3725 22.932C60.1765 23.3053 60.0785 23.73 60.0785 24.206C60.0785 24.682 60.1765 25.1113 60.3725 25.494C60.5685 25.8673 60.8345 26.1613 61.1705 26.376C61.5159 26.5907 61.9032 26.698 62.3325 26.698C62.7899 26.698 63.1865 26.5813 63.5225 26.348C63.8679 26.1053 64.1245 25.7833 64.2925 25.382L65.6785 26.04C65.5292 26.4413 65.2865 26.8053 64.9505 27.132C64.6239 27.4493 64.2365 27.7013 63.7885 27.888C63.3405 28.0747 62.8552 28.168 62.3325 28.168ZM67.2248 28V20.426H68.7368V21.952L68.5968 21.728C68.7648 21.2333 69.0354 20.8787 69.4088 20.664C69.7821 20.44 70.2301 20.328 70.7528 20.328H71.2148V21.77H70.5568C70.0341 21.77 69.6094 21.9333 69.2828 22.26C68.9654 22.5773 68.8068 23.0347 68.8068 23.632V28H67.2248ZM72.297 28V20.426H73.879V28H72.297ZM72.297 19.39V17.57H73.879V19.39H72.297ZM79.7747 28.168C79.1867 28.168 78.65 28.0467 78.1647 27.804C77.6887 27.5613 77.32 27.2113 77.0587 26.754L77.2407 26.46V28H75.7287V17.402H77.3107V21.994L77.0587 21.63C77.3387 21.2007 77.712 20.8647 78.1787 20.622C78.6454 20.3793 79.1774 20.258 79.7747 20.258C80.4934 20.258 81.1374 20.4307 81.7067 20.776C82.2854 21.1213 82.738 21.5927 83.0647 22.19C83.4007 22.7873 83.5687 23.4593 83.5687 24.206C83.5687 24.9527 83.4007 25.6247 83.0647 26.222C82.738 26.8193 82.29 27.2953 81.7207 27.65C81.1514 27.9953 80.5027 28.168 79.7747 28.168ZM79.6207 26.698C80.0687 26.698 80.4654 26.5907 80.8107 26.376C81.156 26.1613 81.4267 25.8673 81.6227 25.494C81.828 25.1113 81.9307 24.682 81.9307 24.206C81.9307 23.73 81.828 23.3053 81.6227 22.932C81.4267 22.5587 81.156 22.2647 80.8107 22.05C80.4654 21.8353 80.0687 21.728 79.6207 21.728C79.182 21.728 78.7854 21.8353 78.4307 22.05C78.0854 22.2647 77.81 22.5587 77.6047 22.932C77.4087 23.3053 77.3107 23.73 77.3107 24.206C77.3107 24.682 77.4087 25.1113 77.6047 25.494C77.81 25.8673 78.0854 26.1613 78.4307 26.376C78.7854 26.5907 79.182 26.698 79.6207 26.698ZM88.6636 28.168C87.9076 28.168 87.2356 27.9953 86.6476 27.65C86.0689 27.2953 85.6163 26.8193 85.2896 26.222C84.9629 25.6153 84.7996 24.9387 84.7996 24.192C84.7996 23.4267 84.9629 22.75 85.2896 22.162C85.6256 21.574 86.0736 21.112 86.6336 20.776C87.1936 20.4307 87.8283 20.258 88.5376 20.258C89.1069 20.258 89.6156 20.356 90.0636 20.552C90.5116 20.748 90.8896 21.0187 91.1976 21.364C91.5056 21.7 91.7389 22.0873 91.8976 22.526C92.0656 22.9647 92.1496 23.4313 92.1496 23.926C92.1496 24.0473 92.1449 24.1733 92.1356 24.304C92.1263 24.4347 92.1076 24.556 92.0796 24.668H86.0456V23.408H91.1836L90.4276 23.982C90.5209 23.5247 90.4883 23.1187 90.3296 22.764C90.1803 22.4 89.9469 22.1153 89.6296 21.91C89.3216 21.6953 88.9576 21.588 88.5376 21.588C88.1176 21.588 87.7443 21.6953 87.4176 21.91C87.0909 22.1153 86.8389 22.414 86.6616 22.806C86.4843 23.1887 86.4143 23.6553 86.4516 24.206C86.4049 24.7193 86.4749 25.1673 86.6616 25.55C86.8576 25.9327 87.1283 26.2313 87.4736 26.446C87.8283 26.6607 88.2296 26.768 88.6776 26.768C89.1349 26.768 89.5223 26.6653 89.8396 26.46C90.1663 26.2547 90.4229 25.9887 90.6096 25.662L91.8976 26.292C91.7483 26.6467 91.5149 26.9687 91.1976 27.258C90.8896 27.538 90.5163 27.762 90.0776 27.93C89.6483 28.0887 89.1769 28.168 88.6636 28.168Z" fill="#3A3A3A"/>
</svg>
