<svg width="24" height="24" viewBox="0 0 24 24" fill="none" xmlns="http://www.w3.org/2000/svg">
<path d="M11.9113 2.15991C2.86732 2.15991 2.15967 2.86805 2.15967 11.9115V12.0883C2.15967 21.1318 2.86732 21.8399 11.9113 21.8399H12.0881C21.132 21.8399 21.8397 21.1318 21.8397 12.0883V11.9999C21.8397 2.8743 21.1253 2.15991 11.9997 2.15991H11.9113ZM17.9008 5.11191C18.4444 5.11044 18.8862 5.54937 18.8877 6.09303C18.8891 6.63669 18.4502 7.07844 17.9065 7.07991C17.3629 7.08139 16.9211 6.64245 16.9197 6.09879C16.9182 5.55513 17.3571 5.11339 17.9008 5.11191ZM11.9881 7.07991C14.705 7.07352 16.9133 9.27156 16.9197 11.9884C16.9261 14.7052 14.728 16.9135 12.0112 16.9199C9.29437 16.9263 7.08606 14.7283 7.07967 12.0114C7.07327 9.29462 9.27131 7.08631 11.9881 7.07991ZM11.9929 9.04791C10.3625 9.05185 9.04373 10.3771 9.04767 12.0076C9.0516 13.6376 10.3764 14.9558 12.0064 14.9519C13.6369 14.948 14.9556 13.6232 14.9517 11.9932C14.9477 10.3627 13.6229 9.04398 11.9929 9.04791Z" fill="white"/>
</svg>
