<svg width="24" height="24" viewBox="0 0 24 24" fill="none" xmlns="http://www.w3.org/2000/svg">
<path d="M5.20041 1.92017C3.38891 1.92017 1.92041 3.38867 1.92041 5.20017V18.3202C1.92041 20.1317 3.38891 21.6002 5.20041 21.6002H18.3204C20.1319 21.6002 21.6004 20.1317 21.6004 18.3202V5.20017C21.6004 3.38867 20.1319 1.92017 18.3204 1.92017H5.20041ZM6.17782 6.13731H9.89711L12.5383 9.89046L15.7433 6.13731H16.9147L13.0673 10.6418L17.8116 17.383H14.0932L11.0283 13.0286L7.30898 17.383H6.13755L10.4993 12.2772L6.17782 6.13731ZM7.97157 7.07445L14.5819 16.4459H16.0178L9.40749 7.07445H7.97157Z" fill="white"/>
</svg>
