<svg width="24" height="24" viewBox="0 0 24 24" fill="none" xmlns="http://www.w3.org/2000/svg">
<path d="M19.4968 2.15991H4.50252C3.20927 2.15991 2.15967 3.20951 2.15967 4.50277V19.4971C2.15967 20.7903 3.20927 21.8399 4.50252 21.8399H19.4968C20.7901 21.8399 21.8397 20.7903 21.8397 19.4971V4.50277C21.8397 3.20951 20.7901 2.15991 19.4968 2.15991ZM8.2511 9.65705V18.5599H5.43967V9.65705H8.2511ZM5.43967 7.06585C5.43967 6.40985 6.00195 5.90848 6.84538 5.90848C7.68881 5.90848 8.2183 6.40985 8.2511 7.06585C8.2511 7.72185 7.7263 8.25134 6.84538 8.25134C6.00195 8.25134 5.43967 7.72185 5.43967 7.06585ZM18.5597 18.5599H15.7482C15.7482 18.5599 15.7482 14.2209 15.7482 13.8742C15.7482 12.9371 15.2797 11.9999 14.1082 11.9812H14.0708C12.9368 11.9812 12.4682 12.9464 12.4682 13.8742C12.4682 14.3006 12.4682 18.5599 12.4682 18.5599H9.65681V9.65705H12.4682V10.8566C12.4682 10.8566 13.3726 9.65705 15.1906 9.65705C17.0509 9.65705 18.5597 10.9363 18.5597 13.5275V18.5599Z" fill="white"/>
</svg>
