<svg width="89" height="164" viewBox="0 0 89 164" fill="none" xmlns="http://www.w3.org/2000/svg">
<path d="M6.752 19.192C5.89867 19.192 5.10933 19.0373 4.384 18.728C3.66933 18.4187 3.04 17.9867 2.496 17.432C1.96267 16.8773 1.54667 16.2267 1.248 15.48C0.949333 14.7333 0.8 13.9173 0.8 13.032C0.8 12.1467 0.944 11.3307 1.232 10.584C1.53067 9.82667 1.94667 9.176 2.48 8.632C3.024 8.07733 3.65867 7.65067 4.384 7.352C5.10933 7.04267 5.89867 6.888 6.752 6.888C7.60533 6.888 8.368 7.032 9.04 7.32C9.72267 7.608 10.2987 7.992 10.768 8.472C11.2373 8.94133 11.5733 9.45867 11.776 10.024L9.824 10.936C9.6 10.3387 9.22133 9.848 8.688 9.464C8.15467 9.06933 7.50933 8.872 6.752 8.872C6.00533 8.872 5.344 9.048 4.768 9.4C4.20267 9.752 3.76 10.2373 3.44 10.856C3.13067 11.4747 2.976 12.2 2.976 13.032C2.976 13.864 3.13067 14.5947 3.44 15.224C3.76 15.8427 4.20267 16.328 4.768 16.68C5.344 17.032 6.00533 17.208 6.752 17.208C7.50933 17.208 8.15467 17.016 8.688 16.632C9.22133 16.2373 9.6 15.7413 9.824 15.144L11.776 16.056C11.5733 16.6213 11.2373 17.144 10.768 17.624C10.2987 18.0933 9.72267 18.472 9.04 18.76C8.368 19.048 7.60533 19.192 6.752 19.192ZM17.4664 19.192C16.613 19.192 15.8344 18.9947 15.1304 18.6C14.437 18.2053 13.8824 17.6667 13.4664 16.984C13.061 16.3013 12.8584 15.5227 12.8584 14.648C12.8584 13.7733 13.061 12.9947 13.4664 12.312C13.8824 11.6293 14.437 11.0907 15.1304 10.696C15.8237 10.3013 16.6024 10.104 17.4664 10.104C18.3197 10.104 19.093 10.3013 19.7864 10.696C20.4797 11.0907 21.029 11.6293 21.4344 12.312C21.8504 12.984 22.0584 13.7627 22.0584 14.648C22.0584 15.5227 21.8504 16.3013 21.4344 16.984C21.0184 17.6667 20.4637 18.2053 19.7704 18.6C19.077 18.9947 18.309 19.192 17.4664 19.192ZM17.4664 17.272C17.9357 17.272 18.3464 17.16 18.6984 16.936C19.061 16.712 19.3437 16.4027 19.5464 16.008C19.7597 15.6027 19.8664 15.1493 19.8664 14.648C19.8664 14.136 19.7597 13.688 19.5464 13.304C19.3437 12.9093 19.061 12.6 18.6984 12.376C18.3464 12.1413 17.9357 12.024 17.4664 12.024C16.9864 12.024 16.565 12.1413 16.2024 12.376C15.8397 12.6 15.5517 12.9093 15.3384 13.304C15.1357 13.688 15.0344 14.136 15.0344 14.648C15.0344 15.1493 15.1357 15.6027 15.3384 16.008C15.5517 16.4027 15.8397 16.712 16.2024 16.936C16.565 17.16 16.9864 17.272 17.4664 17.272ZM23.6479 19V10.296H25.6159V12.312L25.3919 11.976C25.5519 11.3467 25.8719 10.8773 26.3519 10.568C26.8319 10.2587 27.3972 10.104 28.0479 10.104C28.7625 10.104 29.3919 10.2907 29.9359 10.664C30.4799 11.0373 30.8319 11.528 30.9919 12.136L30.3999 12.184C30.6665 11.4907 31.0665 10.9733 31.5999 10.632C32.1332 10.28 32.7465 10.104 33.4399 10.104C34.0585 10.104 34.6079 10.2427 35.0879 10.52C35.5785 10.7973 35.9625 11.1867 36.2399 11.688C36.5172 12.1787 36.6559 12.7493 36.6559 13.4V19H34.5599V13.896C34.5599 13.512 34.4905 13.1813 34.3519 12.904C34.2132 12.6267 34.0212 12.4133 33.7759 12.264C33.5305 12.104 33.2319 12.024 32.8799 12.024C32.5492 12.024 32.2559 12.104 31.9999 12.264C31.7439 12.4133 31.5465 12.6267 31.4079 12.904C31.2692 13.1813 31.1999 13.512 31.1999 13.896V19H29.1039V13.896C29.1039 13.512 29.0345 13.1813 28.8959 12.904C28.7572 12.6267 28.5599 12.4133 28.3039 12.264C28.0585 12.104 27.7652 12.024 27.4239 12.024C27.0932 12.024 26.7999 12.104 26.5439 12.264C26.2879 12.4133 26.0905 12.6267 25.9519 12.904C25.8132 13.1813 25.7439 13.512 25.7439 13.896V19H23.6479ZM38.4291 22.2V10.296H40.3971V12.024L40.2051 11.592C40.5038 11.1227 40.9091 10.76 41.4211 10.504C41.9331 10.2373 42.5251 10.104 43.1971 10.104C44.0185 10.104 44.7598 10.3067 45.4211 10.712C46.0825 11.1173 46.6051 11.6613 46.9891 12.344C47.3838 13.0267 47.5811 13.7947 47.5811 14.648C47.5811 15.4907 47.3891 16.2587 47.0051 16.952C46.6211 17.6453 46.0985 18.1947 45.4371 18.6C44.7758 18.9947 44.0238 19.192 43.1811 19.192C42.5518 19.192 41.9705 19.0693 41.4371 18.824C40.9145 18.568 40.4985 18.2053 40.1891 17.736L40.5251 17.32V22.2H38.4291ZM42.9411 17.272C43.4211 17.272 43.8478 17.16 44.2211 16.936C44.5945 16.712 44.8825 16.4027 45.0851 16.008C45.2985 15.6133 45.4051 15.16 45.4051 14.648C45.4051 14.136 45.2985 13.688 45.0851 13.304C44.8825 12.9093 44.5945 12.6 44.2211 12.376C43.8478 12.1413 43.4211 12.024 42.9411 12.024C42.4825 12.024 42.0665 12.136 41.6931 12.36C41.3305 12.584 41.0425 12.8987 40.8291 13.304C40.6265 13.6987 40.5251 14.1467 40.5251 14.648C40.5251 15.16 40.6265 15.6133 40.8291 16.008C41.0425 16.4027 41.3305 16.712 41.6931 16.936C42.0665 17.16 42.4825 17.272 42.9411 17.272ZM51.8191 19.192C51.2111 19.192 50.6831 19.0907 50.2351 18.888C49.7871 18.6853 49.4405 18.3973 49.1951 18.024C48.9498 17.64 48.8271 17.1973 48.8271 16.696C48.8271 16.216 48.9338 15.7893 49.1471 15.416C49.3605 15.032 49.6911 14.712 50.1391 14.456C50.5871 14.2 51.1525 14.0187 51.8351 13.912L54.6831 13.448V15.048L52.2351 15.464C51.8191 15.5387 51.5098 15.672 51.3071 15.864C51.1045 16.056 51.0031 16.3067 51.0031 16.616C51.0031 16.9147 51.1151 17.1547 51.3391 17.336C51.5738 17.5067 51.8618 17.592 52.2031 17.592C52.6405 17.592 53.0245 17.5013 53.3551 17.32C53.6965 17.128 53.9578 16.8667 54.1391 16.536C54.3311 16.2053 54.4271 15.8427 54.4271 15.448V13.208C54.4271 12.8347 54.2778 12.5253 53.9791 12.28C53.6911 12.024 53.3071 11.896 52.8271 11.896C52.3791 11.896 51.9791 12.0187 51.6271 12.264C51.2858 12.4987 51.0351 12.8133 50.8751 13.208L49.1631 12.376C49.3338 11.9173 49.6005 11.5227 49.9631 11.192C50.3365 10.8507 50.7738 10.584 51.2751 10.392C51.7765 10.2 52.3205 10.104 52.9071 10.104C53.6218 10.104 54.2511 10.2373 54.7951 10.504C55.3391 10.76 55.7605 11.1227 56.0591 11.592C56.3685 12.0507 56.5231 12.5893 56.5231 13.208V19H54.5391V17.512L54.9871 17.48C54.7631 17.8533 54.4965 18.168 54.1871 18.424C53.8778 18.6693 53.5258 18.8613 53.1311 19C52.7365 19.128 52.2991 19.192 51.8191 19.192ZM58.4604 19V10.296H60.4284V12.008L60.2684 11.704C60.471 11.1813 60.8017 10.7867 61.2604 10.52C61.7297 10.2427 62.2737 10.104 62.8924 10.104C63.5324 10.104 64.0977 10.2427 64.5884 10.52C65.0897 10.7973 65.479 11.1867 65.7564 11.688C66.0337 12.1787 66.1724 12.7493 66.1724 13.4V19H64.0764V13.896C64.0764 13.512 64.0017 13.1813 63.8524 12.904C63.703 12.6267 63.495 12.4133 63.2284 12.264C62.9724 12.104 62.6684 12.024 62.3164 12.024C61.975 12.024 61.671 12.104 61.4044 12.264C61.1377 12.4133 60.9297 12.6267 60.7804 12.904C60.631 13.1813 60.5564 13.512 60.5564 13.896V19H58.4604ZM68.8445 22.52C68.6098 22.52 68.3805 22.4987 68.1565 22.456C67.9325 22.424 67.7298 22.36 67.5485 22.264V20.52C67.6872 20.552 67.8525 20.584 68.0445 20.616C68.2472 20.648 68.4338 20.664 68.6045 20.664C69.0845 20.664 69.4312 20.552 69.6445 20.328C69.8685 20.1147 70.0658 19.8267 70.2365 19.464L70.8125 18.12L70.7805 19.88L66.9885 10.296H69.2445L71.9005 17.368H71.1005L73.7405 10.296H76.0125L72.2205 19.88C71.9965 20.4347 71.7245 20.9093 71.4045 21.304C71.0845 21.6987 70.7112 21.9973 70.2845 22.2C69.8685 22.4133 69.3885 22.52 68.8445 22.52Z" fill="white"/>
<path d="M0.176 59L4.528 47.08H5.904L10.256 59H8.912L7.888 56.088H2.56L1.52 59H0.176ZM2.976 54.888H7.44L5.024 48.04H5.408L2.976 54.888ZM16.0055 59.192C15.2695 59.192 14.6028 59.0267 14.0055 58.696C13.4188 58.3547 12.9762 57.8747 12.6775 57.256L12.8695 57.08V59H11.6695V46.888H12.8695V52.344L12.6775 52.008C13.0188 51.464 13.4722 51.032 14.0375 50.712C14.6135 50.392 15.2695 50.232 16.0055 50.232C16.8162 50.232 17.5362 50.4293 18.1655 50.824C18.8055 51.208 19.3068 51.736 19.6695 52.408C20.0428 53.08 20.2295 53.848 20.2295 54.712C20.2295 55.5653 20.0428 56.3333 19.6695 57.016C19.3068 57.688 18.8055 58.2213 18.1655 58.616C17.5362 59 16.8162 59.192 16.0055 59.192ZM15.9415 57.992C16.5175 57.992 17.0295 57.848 17.4775 57.56C17.9362 57.272 18.2935 56.8827 18.5495 56.392C18.8162 55.8907 18.9495 55.3307 18.9495 54.712C18.9495 54.0827 18.8162 53.5227 18.5495 53.032C18.2935 52.5413 17.9362 52.152 17.4775 51.864C17.0295 51.576 16.5175 51.432 15.9415 51.432C15.3655 51.432 14.8428 51.576 14.3735 51.864C13.9148 52.152 13.5468 52.5467 13.2695 53.048C13.0028 53.5387 12.8695 54.0933 12.8695 54.712C12.8695 55.3307 13.0028 55.8907 13.2695 56.392C13.5468 56.8827 13.9148 57.272 14.3735 57.56C14.8428 57.848 15.3655 57.992 15.9415 57.992ZM26.3574 59.192C25.5467 59.192 24.8107 59 24.1494 58.616C23.488 58.2213 22.96 57.688 22.5654 57.016C22.1814 56.3333 21.9894 55.56 21.9894 54.696C21.9894 53.8427 22.1814 53.08 22.5654 52.408C22.9494 51.736 23.4667 51.208 24.1174 50.824C24.7787 50.4293 25.5254 50.232 26.3574 50.232C27.1894 50.232 27.9307 50.424 28.5814 50.808C29.2427 51.192 29.76 51.72 30.1334 52.392C30.5174 53.064 30.7094 53.832 30.7094 54.696C30.7094 55.5707 30.512 56.3493 30.1174 57.032C29.7227 57.704 29.1947 58.232 28.5334 58.616C27.8827 59 27.1574 59.192 26.3574 59.192ZM26.3574 57.992C26.9334 57.992 27.4507 57.848 27.9094 57.56C28.3787 57.272 28.7467 56.8773 29.0134 56.376C29.2907 55.8747 29.4294 55.3147 29.4294 54.696C29.4294 54.0773 29.2907 53.5227 29.0134 53.032C28.7467 52.5413 28.3787 52.152 27.9094 51.864C27.4507 51.576 26.9334 51.432 26.3574 51.432C25.7814 51.432 25.2587 51.576 24.7894 51.864C24.3307 52.152 23.9627 52.5413 23.6854 53.032C23.408 53.5227 23.2694 54.0773 23.2694 54.696C23.2694 55.3147 23.408 55.8747 23.6854 56.376C23.9627 56.8773 24.3307 57.272 24.7894 57.56C25.2587 57.848 25.7814 57.992 26.3574 57.992ZM35.8658 59.192C35.2684 59.192 34.7244 59.0533 34.2338 58.776C33.7431 58.488 33.3538 58.0933 33.0658 57.592C32.7884 57.08 32.6497 56.4933 32.6497 55.832V50.424H33.8498V55.688C33.8498 56.1467 33.9404 56.552 34.1218 56.904C34.3138 57.2453 34.5751 57.512 34.9058 57.704C35.2471 57.896 35.6364 57.992 36.0738 57.992C36.5111 57.992 36.9004 57.896 37.2418 57.704C37.5831 57.5013 37.8498 57.2187 38.0418 56.856C38.2338 56.4827 38.3298 56.04 38.3298 55.528V50.424H39.5298V59H38.3298V57.336L38.6018 57.4C38.3991 57.9547 38.0524 58.392 37.5618 58.712C37.0711 59.032 36.5058 59.192 35.8658 59.192ZM45.2776 59.096C44.5096 59.096 43.9176 58.872 43.5016 58.424C43.0856 57.976 42.8776 57.336 42.8776 56.504V51.624H41.2936V50.424H41.6936C42.0563 50.424 42.3443 50.3067 42.5576 50.072C42.771 49.8267 42.8776 49.5227 42.8776 49.16V48.44H44.0776V50.424H45.9656V51.624H44.0776V56.504C44.0776 56.792 44.1203 57.048 44.2056 57.272C44.291 57.4853 44.435 57.656 44.6376 57.784C44.851 57.912 45.1336 57.976 45.4856 57.976C45.571 57.976 45.6723 57.9707 45.7896 57.96C45.907 57.9493 46.0083 57.9387 46.0936 57.928V59C45.9656 59.032 45.8216 59.0533 45.6616 59.064C45.5016 59.0853 45.3736 59.096 45.2776 59.096ZM53.9595 59.192C53.3622 59.192 52.8182 59.0533 52.3275 58.776C51.8368 58.488 51.4475 58.0933 51.1595 57.592C50.8822 57.08 50.7435 56.4933 50.7435 55.832V50.424H51.9435V55.688C51.9435 56.1467 52.0342 56.552 52.2155 56.904C52.4075 57.2453 52.6688 57.512 52.9995 57.704C53.3408 57.896 53.7302 57.992 54.1675 57.992C54.6048 57.992 54.9942 57.896 55.3355 57.704C55.6768 57.5013 55.9435 57.2187 56.1355 56.856C56.3275 56.4827 56.4235 56.04 56.4235 55.528V50.424H57.6235V59H56.4235V57.336L56.6955 57.4C56.4928 57.9547 56.1462 58.392 55.6555 58.712C55.1648 59.032 54.5995 59.192 53.9595 59.192ZM63.0674 59.192C62.246 59.192 61.526 58.984 60.9074 58.568C60.2887 58.152 59.8407 57.5867 59.5634 56.872L60.5714 56.392C60.8167 56.9147 61.158 57.3307 61.5954 57.64C62.0434 57.9493 62.534 58.104 63.0674 58.104C63.5794 58.104 64.0114 57.9813 64.3634 57.736C64.7154 57.48 64.8914 57.1493 64.8914 56.744C64.8914 56.4453 64.806 56.2107 64.6354 56.04C64.4647 55.8587 64.2674 55.72 64.0434 55.624C63.8194 55.528 63.622 55.4587 63.4514 55.416L62.2194 55.064C61.43 54.84 60.8594 54.5253 60.5074 54.12C60.1554 53.7147 59.9794 53.2453 59.9794 52.712C59.9794 52.2107 60.1074 51.7733 60.3634 51.4C60.6194 51.0267 60.966 50.7387 61.4034 50.536C61.8407 50.3333 62.326 50.232 62.8594 50.232C63.5847 50.232 64.2407 50.424 64.8274 50.808C65.4247 51.1813 65.846 51.704 66.0914 52.376L65.0674 52.856C64.854 52.376 64.5447 52.0027 64.1394 51.736C63.7447 51.4587 63.302 51.32 62.8114 51.32C62.3314 51.32 61.9474 51.4427 61.6594 51.688C61.3714 51.9333 61.2274 52.2427 61.2274 52.616C61.2274 52.904 61.302 53.1333 61.4514 53.304C61.6007 53.4747 61.7714 53.6027 61.9634 53.688C62.166 53.7733 62.342 53.8373 62.4914 53.88L63.9154 54.296C64.6087 54.4987 65.1474 54.8133 65.5314 55.24C65.926 55.6667 66.1234 56.168 66.1234 56.744C66.1234 57.2133 65.99 57.6347 65.7234 58.008C65.4674 58.3813 65.11 58.6747 64.6514 58.888C64.1927 59.0907 63.6647 59.192 63.0674 59.192ZM5.424 91.192C4.66667 91.192 3.97867 91.048 3.36 90.76C2.74133 90.472 2.21867 90.088 1.792 89.608C1.36533 89.1173 1.06133 88.5787 0.88 87.992L2.032 87.56C2.30933 88.3707 2.74133 88.9893 3.328 89.416C3.91467 89.832 4.61333 90.04 5.424 90.04C5.936 90.04 6.384 89.96 6.768 89.8C7.16267 89.6293 7.46667 89.3947 7.68 89.096C7.89333 88.7973 8 88.4507 8 88.056C8 87.4693 7.84 87.016 7.52 86.696C7.2 86.376 6.74133 86.1307 6.144 85.96L4 85.32C3.15733 85.0747 2.50667 84.664 2.048 84.088C1.6 83.512 1.376 82.856 1.376 82.12C1.376 81.4907 1.53067 80.936 1.84 80.456C2.14933 79.9653 2.57067 79.5813 3.104 79.304C3.648 79.0267 4.26133 78.888 4.944 78.888C5.65867 78.888 6.29867 79.0213 6.864 79.288C7.44 79.544 7.92533 79.8853 8.32 80.312C8.71467 80.7387 8.99733 81.2133 9.168 81.736L8.048 82.184C7.792 81.48 7.392 80.9467 6.848 80.584C6.31467 80.2213 5.68533 80.04 4.96 80.04C4.50133 80.04 4.096 80.12 3.744 80.28C3.40267 80.44 3.136 80.6693 2.944 80.968C2.752 81.2667 2.656 81.6187 2.656 82.024C2.656 82.5147 2.81067 82.9573 3.12 83.352C3.42933 83.736 3.904 84.024 4.544 84.216L6.432 84.776C7.37067 85.0533 8.08 85.4533 8.56 85.976C9.04 86.4987 9.28 87.1547 9.28 87.944C9.28 88.584 9.11467 89.1493 8.784 89.64C8.464 90.12 8.01067 90.4987 7.424 90.776C6.848 91.0533 6.18133 91.192 5.424 91.192ZM15.4798 91.192C14.6798 91.192 13.9544 91 13.3038 90.616C12.6638 90.2213 12.1571 89.6827 11.7838 89C11.4104 88.3173 11.2238 87.544 11.2238 86.68C11.2238 85.816 11.4051 85.0533 11.7678 84.392C12.1304 83.72 12.6211 83.192 13.2398 82.808C13.8691 82.424 14.5731 82.232 15.3518 82.232C15.9704 82.232 16.5198 82.3493 16.9998 82.584C17.4904 82.808 17.9064 83.1173 18.2478 83.512C18.5891 83.896 18.8504 84.3333 19.0318 84.824C19.2131 85.304 19.3038 85.8 19.3038 86.312C19.3038 86.4187 19.2984 86.5413 19.2878 86.68C19.2771 86.808 19.2611 86.9413 19.2398 87.08H11.9918V85.96H18.5518L17.9758 86.44C18.0718 85.8533 18.0024 85.3307 17.7678 84.872C17.5438 84.4027 17.2184 84.0347 16.7918 83.768C16.3651 83.4907 15.8851 83.352 15.3518 83.352C14.8184 83.352 14.3224 83.4907 13.8638 83.768C13.4158 84.0453 13.0638 84.4347 12.8078 84.936C12.5518 85.4267 12.4504 86.0133 12.5038 86.696C12.4504 87.3787 12.5571 87.976 12.8238 88.488C13.1011 88.9893 13.4744 89.3787 13.9438 89.656C14.4238 89.9333 14.9358 90.072 15.4798 90.072C16.1091 90.072 16.6371 89.9227 17.0638 89.624C17.4904 89.3253 17.8371 88.952 18.1038 88.504L19.1278 89.048C18.9571 89.432 18.6958 89.7893 18.3438 90.12C17.9918 90.44 17.5704 90.7013 17.0798 90.904C16.5998 91.096 16.0664 91.192 15.4798 91.192ZM21.4195 91V82.424H22.6195V83.832L22.4595 83.624C22.6622 83.2187 22.9662 82.8987 23.3715 82.664C23.7875 82.4293 24.2888 82.312 24.8755 82.312H25.4195V83.512H24.6675C24.0488 83.512 23.5528 83.704 23.1795 84.088C22.8062 84.472 22.6195 85.016 22.6195 85.72V91H21.4195ZM29.1138 91L25.7698 82.424H27.1138L29.9298 89.944H29.4978L32.3298 82.424H33.6898L30.3138 91H29.1138ZM35.0914 91V82.424H36.2914V91H35.0914ZM35.0914 80.84V79.08H36.2914V80.84H35.0914ZM42.6676 91.192C41.825 91.192 41.0836 90.9947 40.4436 90.6C39.8036 90.2053 39.3023 89.672 38.9396 89C38.577 88.3173 38.3956 87.5493 38.3956 86.696C38.3956 85.8427 38.577 85.08 38.9396 84.408C39.3023 83.736 39.8036 83.208 40.4436 82.824C41.0836 82.4293 41.825 82.232 42.6676 82.232C43.201 82.232 43.7023 82.328 44.1716 82.52C44.641 82.712 45.057 82.9733 45.4196 83.304C45.7823 83.624 46.0543 83.9973 46.2356 84.424L45.1476 84.984C44.9343 84.5253 44.609 84.152 44.1716 83.864C43.7343 83.576 43.233 83.432 42.6676 83.432C42.1023 83.432 41.5903 83.576 41.1316 83.864C40.6836 84.1413 40.3263 84.5307 40.0596 85.032C39.8036 85.5227 39.6756 86.0827 39.6756 86.712C39.6756 87.3307 39.8036 87.8907 40.0596 88.392C40.3263 88.8827 40.6836 89.272 41.1316 89.56C41.5903 89.848 42.1023 89.992 42.6676 89.992C43.233 89.992 43.729 89.848 44.1556 89.56C44.593 89.272 44.9236 88.888 45.1476 88.408L46.2356 89C46.0543 89.416 45.7823 89.7893 45.4196 90.12C45.057 90.4507 44.641 90.712 44.1716 90.904C43.7023 91.096 43.201 91.192 42.6676 91.192ZM52.2454 91.192C51.4454 91.192 50.72 91 50.0694 90.616C49.4294 90.2213 48.9227 89.6827 48.5494 89C48.176 88.3173 47.9894 87.544 47.9894 86.68C47.9894 85.816 48.1707 85.0533 48.5334 84.392C48.896 83.72 49.3867 83.192 50.0054 82.808C50.6347 82.424 51.3387 82.232 52.1174 82.232C52.736 82.232 53.2854 82.3493 53.7654 82.584C54.256 82.808 54.672 83.1173 55.0134 83.512C55.3547 83.896 55.616 84.3333 55.7974 84.824C55.9787 85.304 56.0694 85.8 56.0694 86.312C56.0694 86.4187 56.064 86.5413 56.0534 86.68C56.0427 86.808 56.0267 86.9413 56.0054 87.08H48.7574V85.96H55.3174L54.7414 86.44C54.8374 85.8533 54.768 85.3307 54.5334 84.872C54.3094 84.4027 53.984 84.0347 53.5574 83.768C53.1307 83.4907 52.6507 83.352 52.1174 83.352C51.584 83.352 51.088 83.4907 50.6294 83.768C50.1814 84.0453 49.8294 84.4347 49.5734 84.936C49.3174 85.4267 49.216 86.0133 49.2694 86.696C49.216 87.3787 49.3227 87.976 49.5894 88.488C49.8667 88.9893 50.24 89.3787 50.7094 89.656C51.1894 89.9333 51.7014 90.072 52.2454 90.072C52.8747 90.072 53.4027 89.9227 53.8294 89.624C54.256 89.3253 54.6027 88.952 54.8694 88.504L55.8934 89.048C55.7227 89.432 55.4614 89.7893 55.1094 90.12C54.7574 90.44 54.336 90.7013 53.8454 90.904C53.3654 91.096 52.832 91.192 52.2454 91.192ZM61.1611 91.192C60.3398 91.192 59.6198 90.984 59.0011 90.568C58.3825 90.152 57.9345 89.5867 57.6571 88.872L58.6651 88.392C58.9105 88.9147 59.2518 89.3307 59.6891 89.64C60.1371 89.9493 60.6278 90.104 61.1611 90.104C61.6731 90.104 62.1051 89.9813 62.4571 89.736C62.8091 89.48 62.9851 89.1493 62.9851 88.744C62.9851 88.4453 62.8998 88.2107 62.7291 88.04C62.5585 87.8587 62.3611 87.72 62.1371 87.624C61.9131 87.528 61.7158 87.4587 61.5451 87.416L60.3131 87.064C59.5238 86.84 58.9531 86.5253 58.6011 86.12C58.2491 85.7147 58.0731 85.2453 58.0731 84.712C58.0731 84.2107 58.2011 83.7733 58.4571 83.4C58.7131 83.0267 59.0598 82.7387 59.4971 82.536C59.9345 82.3333 60.4198 82.232 60.9531 82.232C61.6785 82.232 62.3345 82.424 62.9211 82.808C63.5185 83.1813 63.9398 83.704 64.1851 84.376L63.1611 84.856C62.9478 84.376 62.6385 84.0027 62.2331 83.736C61.8385 83.4587 61.3958 83.32 60.9051 83.32C60.4251 83.32 60.0411 83.4427 59.7531 83.688C59.4651 83.9333 59.3211 84.2427 59.3211 84.616C59.3211 84.904 59.3958 85.1333 59.5451 85.304C59.6945 85.4747 59.8651 85.6027 60.0571 85.688C60.2598 85.7733 60.4358 85.8373 60.5851 85.88L62.0091 86.296C62.7025 86.4987 63.2411 86.8133 63.6251 87.24C64.0198 87.6667 64.2171 88.168 64.2171 88.744C64.2171 89.2133 64.0838 89.6347 63.8171 90.008C63.5611 90.3813 63.2038 90.6747 62.7451 90.888C62.2865 91.0907 61.7585 91.192 61.1611 91.192ZM6.848 123.192C6.00533 123.192 5.232 123.043 4.528 122.744C3.824 122.435 3.21067 122.008 2.688 121.464C2.176 120.909 1.776 120.259 1.488 119.512C1.2 118.765 1.056 117.944 1.056 117.048C1.056 116.152 1.2 115.331 1.488 114.584C1.776 113.837 2.176 113.187 2.688 112.632C3.21067 112.077 3.824 111.651 4.528 111.352C5.232 111.043 6.00533 110.888 6.848 110.888C7.65867 110.888 8.384 111.032 9.024 111.32C9.67467 111.608 10.2187 111.981 10.656 112.44C11.104 112.888 11.424 113.363 11.616 113.864L10.416 114.392C10.1173 113.699 9.65867 113.144 9.04 112.728C8.432 112.301 7.70133 112.088 6.848 112.088C5.97333 112.088 5.19467 112.296 4.512 112.712C3.82933 113.128 3.296 113.709 2.912 114.456C2.528 115.192 2.336 116.056 2.336 117.048C2.336 118.029 2.528 118.893 2.912 119.64C3.296 120.387 3.82933 120.968 4.512 121.384C5.19467 121.789 5.97333 121.992 6.848 121.992C7.70133 121.992 8.432 121.784 9.04 121.368C9.65867 120.952 10.1173 120.397 10.416 119.704L11.616 120.232C11.424 120.723 11.104 121.197 10.656 121.656C10.2187 122.104 9.67467 122.472 9.024 122.76C8.384 123.048 7.65867 123.192 6.848 123.192ZM17.5918 123.192C16.7811 123.192 16.0451 123 15.3838 122.616C14.7224 122.221 14.1944 121.688 13.7998 121.016C13.4158 120.333 13.2238 119.56 13.2238 118.696C13.2238 117.843 13.4158 117.08 13.7998 116.408C14.1838 115.736 14.7011 115.208 15.3518 114.824C16.0131 114.429 16.7598 114.232 17.5918 114.232C18.4238 114.232 19.1651 114.424 19.8158 114.808C20.4771 115.192 20.9944 115.72 21.3678 116.392C21.7518 117.064 21.9438 117.832 21.9438 118.696C21.9438 119.571 21.7464 120.349 21.3518 121.032C20.9571 121.704 20.4291 122.232 19.7678 122.616C19.1171 123 18.3918 123.192 17.5918 123.192ZM17.5918 121.992C18.1678 121.992 18.6851 121.848 19.1438 121.56C19.6131 121.272 19.9811 120.877 20.2478 120.376C20.5251 119.875 20.6638 119.315 20.6638 118.696C20.6638 118.077 20.5251 117.523 20.2478 117.032C19.9811 116.541 19.6131 116.152 19.1438 115.864C18.6851 115.576 18.1678 115.432 17.5918 115.432C17.0158 115.432 16.4931 115.576 16.0238 115.864C15.5651 116.152 15.1971 116.541 14.9198 117.032C14.6424 117.523 14.5038 118.077 14.5038 118.696C14.5038 119.315 14.6424 119.875 14.9198 120.376C15.1971 120.877 15.5651 121.272 16.0238 121.56C16.4931 121.848 17.0158 121.992 17.5918 121.992ZM24.0601 123V114.424H25.2601V116.056L25.0681 115.816C25.3028 115.315 25.6495 114.925 26.1081 114.648C26.5775 114.371 27.0895 114.232 27.6441 114.232C28.3055 114.232 28.9028 114.419 29.4361 114.792C29.9695 115.165 30.3481 115.651 30.5721 116.248L30.2361 116.264C30.4495 115.603 30.8175 115.101 31.3401 114.76C31.8735 114.408 32.4601 114.232 33.1001 114.232C33.6761 114.232 34.2041 114.371 34.6841 114.648C35.1748 114.925 35.5641 115.309 35.8521 115.8C36.1508 116.28 36.3001 116.824 36.3001 117.432V123H35.1001V117.896C35.1001 117.373 35.0041 116.931 34.8121 116.568C34.6308 116.205 34.3801 115.928 34.0601 115.736C33.7401 115.533 33.3721 115.432 32.9561 115.432C32.5508 115.432 32.1828 115.533 31.8521 115.736C31.5215 115.928 31.2601 116.211 31.0681 116.584C30.8761 116.947 30.7801 117.384 30.7801 117.896V123H29.5801V117.896C29.5801 117.373 29.4841 116.931 29.2921 116.568C29.1108 116.205 28.8601 115.928 28.5401 115.736C28.2201 115.533 27.8521 115.432 27.4361 115.432C27.0201 115.432 26.6468 115.533 26.3161 115.736C25.9961 115.928 25.7401 116.211 25.5481 116.584C25.3561 116.947 25.2601 117.384 25.2601 117.896V123H24.0601ZM38.5914 123V114.424H39.7914V116.056L39.5994 115.816C39.834 115.315 40.1807 114.925 40.6394 114.648C41.1087 114.371 41.6207 114.232 42.1754 114.232C42.8367 114.232 43.434 114.419 43.9674 114.792C44.5007 115.165 44.8794 115.651 45.1034 116.248L44.7674 116.264C44.9807 115.603 45.3487 115.101 45.8714 114.76C46.4047 114.408 46.9914 114.232 47.6314 114.232C48.2074 114.232 48.7354 114.371 49.2154 114.648C49.706 114.925 50.0954 115.309 50.3834 115.8C50.682 116.28 50.8314 116.824 50.8314 117.432V123H49.6314V117.896C49.6314 117.373 49.5354 116.931 49.3434 116.568C49.162 116.205 48.9114 115.928 48.5914 115.736C48.2714 115.533 47.9034 115.432 47.4874 115.432C47.082 115.432 46.714 115.533 46.3834 115.736C46.0527 115.928 45.7914 116.211 45.5994 116.584C45.4074 116.947 45.3114 117.384 45.3114 117.896V123H44.1114V117.896C44.1114 117.373 44.0154 116.931 43.8234 116.568C43.642 116.205 43.3914 115.928 43.0714 115.736C42.7514 115.533 42.3834 115.432 41.9674 115.432C41.5514 115.432 41.178 115.533 40.8474 115.736C40.5274 115.928 40.2714 116.211 40.0794 116.584C39.8874 116.947 39.7914 117.384 39.7914 117.896V123H38.5914ZM56.1626 123.192C55.5653 123.192 55.0213 123.053 54.5306 122.776C54.04 122.488 53.6506 122.093 53.3626 121.592C53.0853 121.08 52.9466 120.493 52.9466 119.832V114.424H54.1466V119.688C54.1466 120.147 54.2373 120.552 54.4186 120.904C54.6106 121.245 54.872 121.512 55.2026 121.704C55.544 121.896 55.9333 121.992 56.3706 121.992C56.808 121.992 57.1973 121.896 57.5386 121.704C57.88 121.501 58.1466 121.219 58.3386 120.856C58.5306 120.483 58.6266 120.04 58.6266 119.528V114.424H59.8266V123H58.6266V121.336L58.8986 121.4C58.696 121.955 58.3493 122.392 57.8586 122.712C57.368 123.032 56.8026 123.192 56.1626 123.192ZM62.2945 123V114.424H63.4945V116.088L63.2225 116.024C63.4358 115.469 63.7825 115.032 64.2625 114.712C64.7532 114.392 65.3185 114.232 65.9585 114.232C66.5665 114.232 67.1105 114.371 67.5905 114.648C68.0812 114.925 68.4652 115.309 68.7425 115.8C69.0305 116.28 69.1745 116.824 69.1745 117.432V123H67.9745V117.896C67.9745 117.373 67.8785 116.931 67.6865 116.568C67.5052 116.205 67.2438 115.928 66.9025 115.736C66.5718 115.533 66.1878 115.432 65.7505 115.432C65.3132 115.432 64.9238 115.533 64.5825 115.736C64.2412 115.928 63.9745 116.211 63.7825 116.584C63.5905 116.947 63.4945 117.384 63.4945 117.896V123H62.2945ZM71.4664 123V114.424H72.6664V123H71.4664ZM71.4664 112.84V111.08H72.6664V112.84H71.4664ZM78.4026 123.096C77.6346 123.096 77.0426 122.872 76.6266 122.424C76.2106 121.976 76.0026 121.336 76.0026 120.504V115.624H74.4186V114.424H74.8186C75.1813 114.424 75.4693 114.307 75.6826 114.072C75.896 113.827 76.0026 113.523 76.0026 113.16V112.44H77.2026V114.424H79.0906V115.624H77.2026V120.504C77.2026 120.792 77.2453 121.048 77.3306 121.272C77.416 121.485 77.56 121.656 77.7626 121.784C77.976 121.912 78.2586 121.976 78.6106 121.976C78.696 121.976 78.7973 121.971 78.9146 121.96C79.032 121.949 79.1333 121.939 79.2186 121.928V123C79.0906 123.032 78.9466 123.053 78.7866 123.064C78.6266 123.085 78.4986 123.096 78.4026 123.096ZM81.5018 126.52C81.3311 126.52 81.1551 126.504 80.9738 126.472C80.8031 126.451 80.6324 126.408 80.4618 126.344V125.224C80.5684 125.235 80.7018 125.251 80.8618 125.272C81.0324 125.304 81.2031 125.32 81.3738 125.32C81.8964 125.32 82.2964 125.208 82.5738 124.984C82.8511 124.771 83.1231 124.355 83.3898 123.736L83.9338 122.456L83.9018 123.512L80.2698 114.424H81.5658L84.5418 121.928H84.2057L87.1658 114.424H88.4938L84.5738 124.088C84.4031 124.504 84.1844 124.899 83.9178 125.272C83.6618 125.645 83.3364 125.944 82.9418 126.168C82.5471 126.403 82.0671 126.52 81.5018 126.52ZM3.472 155V144.28H0.176V143.08H8.016V144.28H4.752V155H3.472ZM12.1985 155.192C11.3985 155.192 10.6732 155 10.0225 154.616C9.3825 154.221 8.87583 153.683 8.5025 153C8.12917 152.317 7.9425 151.544 7.9425 150.68C7.9425 149.816 8.12383 149.053 8.4865 148.392C8.84917 147.72 9.33983 147.192 9.9585 146.808C10.5878 146.424 11.2918 146.232 12.0705 146.232C12.6892 146.232 13.2385 146.349 13.7185 146.584C14.2092 146.808 14.6252 147.117 14.9665 147.512C15.3078 147.896 15.5692 148.333 15.7505 148.824C15.9318 149.304 16.0225 149.8 16.0225 150.312C16.0225 150.419 16.0172 150.541 16.0065 150.68C15.9958 150.808 15.9798 150.941 15.9585 151.08H8.7105V149.96H15.2705L14.6945 150.44C14.7905 149.853 14.7212 149.331 14.4865 148.872C14.2625 148.403 13.9372 148.035 13.5105 147.768C13.0838 147.491 12.6038 147.352 12.0705 147.352C11.5372 147.352 11.0412 147.491 10.5825 147.768C10.1345 148.045 9.7825 148.435 9.5265 148.936C9.2705 149.427 9.16917 150.013 9.2225 150.696C9.16917 151.379 9.27583 151.976 9.5425 152.488C9.81983 152.989 10.1932 153.379 10.6625 153.656C11.1425 153.933 11.6545 154.072 12.1985 154.072C12.8278 154.072 13.3558 153.923 13.7825 153.624C14.2092 153.325 14.5558 152.952 14.8225 152.504L15.8465 153.048C15.6758 153.432 15.4145 153.789 15.0625 154.12C14.7105 154.44 14.2892 154.701 13.7985 154.904C13.3185 155.096 12.7852 155.192 12.1985 155.192ZM21.1143 155.192C20.2929 155.192 19.5729 154.984 18.9543 154.568C18.3356 154.152 17.8876 153.587 17.6103 152.872L18.6183 152.392C18.8636 152.915 19.2049 153.331 19.6423 153.64C20.0903 153.949 20.5809 154.104 21.1143 154.104C21.6263 154.104 22.0583 153.981 22.4103 153.736C22.7623 153.48 22.9383 153.149 22.9383 152.744C22.9383 152.445 22.8529 152.211 22.6823 152.04C22.5116 151.859 22.3143 151.72 22.0903 151.624C21.8663 151.528 21.6689 151.459 21.4983 151.416L20.2663 151.064C19.4769 150.84 18.9063 150.525 18.5543 150.12C18.2023 149.715 18.0263 149.245 18.0263 148.712C18.0263 148.211 18.1543 147.773 18.4103 147.4C18.6663 147.027 19.0129 146.739 19.4503 146.536C19.8876 146.333 20.3729 146.232 20.9062 146.232C21.6316 146.232 22.2876 146.424 22.8743 146.808C23.4716 147.181 23.8929 147.704 24.1383 148.376L23.1143 148.856C22.9009 148.376 22.5916 148.003 22.1863 147.736C21.7916 147.459 21.3489 147.32 20.8583 147.32C20.3783 147.32 19.9943 147.443 19.7063 147.688C19.4183 147.933 19.2743 148.243 19.2743 148.616C19.2743 148.904 19.3489 149.133 19.4983 149.304C19.6476 149.475 19.8183 149.603 20.0103 149.688C20.2129 149.773 20.3889 149.837 20.5383 149.88L21.9623 150.296C22.6556 150.499 23.1943 150.813 23.5783 151.24C23.9729 151.667 24.1703 152.168 24.1703 152.744C24.1703 153.213 24.0369 153.635 23.7703 154.008C23.5143 154.381 23.1569 154.675 22.6983 154.888C22.2396 155.091 21.7116 155.192 21.1143 155.192ZM29.5589 155.096C28.7909 155.096 28.1989 154.872 27.7829 154.424C27.3669 153.976 27.1589 153.336 27.1589 152.504V147.624H25.5749V146.424H25.9749C26.3375 146.424 26.6255 146.307 26.8389 146.072C27.0522 145.827 27.1589 145.523 27.1589 145.16V144.44H28.3589V146.424H30.2469V147.624H28.3589V152.504C28.3589 152.792 28.4015 153.048 28.4869 153.272C28.5722 153.485 28.7162 153.656 28.9189 153.784C29.1322 153.912 29.4149 153.976 29.7669 153.976C29.8522 153.976 29.9535 153.971 30.0709 153.96C30.1882 153.949 30.2895 153.939 30.3749 153.928V155C30.2469 155.032 30.1029 155.053 29.9429 155.064C29.7829 155.085 29.6549 155.096 29.5589 155.096ZM32.482 155V146.424H33.682V155H32.482ZM32.482 144.84V143.08H33.682V144.84H32.482ZM36.1383 155V146.424H37.3383V148.056L37.1463 147.816C37.3809 147.315 37.7276 146.925 38.1863 146.648C38.6556 146.371 39.1676 146.232 39.7223 146.232C40.3836 146.232 40.9809 146.419 41.5143 146.792C42.0476 147.165 42.4263 147.651 42.6503 148.248L42.3143 148.264C42.5276 147.603 42.8956 147.101 43.4183 146.76C43.9516 146.408 44.5383 146.232 45.1783 146.232C45.7543 146.232 46.2823 146.371 46.7623 146.648C47.2529 146.925 47.6423 147.309 47.9303 147.8C48.2289 148.28 48.3783 148.824 48.3783 149.432V155H47.1783V149.896C47.1783 149.373 47.0823 148.931 46.8903 148.568C46.7089 148.205 46.4583 147.928 46.1383 147.736C45.8183 147.533 45.4503 147.432 45.0343 147.432C44.6289 147.432 44.2609 147.533 43.9303 147.736C43.5996 147.928 43.3383 148.211 43.1463 148.584C42.9543 148.947 42.8583 149.384 42.8583 149.896V155H41.6583V149.896C41.6583 149.373 41.5623 148.931 41.3703 148.568C41.1889 148.205 40.9383 147.928 40.6183 147.736C40.2983 147.533 39.9303 147.432 39.5143 147.432C39.0983 147.432 38.7249 147.533 38.3943 147.736C38.0743 147.928 37.8183 148.211 37.6263 148.584C37.4343 148.947 37.3383 149.384 37.3383 149.896V155H36.1383ZM54.6855 155.192C53.8748 155.192 53.1388 155 52.4775 154.616C51.8162 154.221 51.2882 153.688 50.8935 153.016C50.5095 152.333 50.3175 151.56 50.3175 150.696C50.3175 149.843 50.5095 149.08 50.8935 148.408C51.2775 147.736 51.7948 147.208 52.4455 146.824C53.1068 146.429 53.8535 146.232 54.6855 146.232C55.5175 146.232 56.2588 146.424 56.9095 146.808C57.5708 147.192 58.0882 147.72 58.4615 148.392C58.8455 149.064 59.0375 149.832 59.0375 150.696C59.0375 151.571 58.8402 152.349 58.4455 153.032C58.0508 153.704 57.5228 154.232 56.8615 154.616C56.2108 155 55.4855 155.192 54.6855 155.192ZM54.6855 153.992C55.2615 153.992 55.7788 153.848 56.2375 153.56C56.7068 153.272 57.0748 152.877 57.3415 152.376C57.6188 151.875 57.7575 151.315 57.7575 150.696C57.7575 150.077 57.6188 149.523 57.3415 149.032C57.0748 148.541 56.7068 148.152 56.2375 147.864C55.7788 147.576 55.2615 147.432 54.6855 147.432C54.1095 147.432 53.5868 147.576 53.1175 147.864C52.6588 148.152 52.2908 148.541 52.0135 149.032C51.7362 149.523 51.5975 150.077 51.5975 150.696C51.5975 151.315 51.7362 151.875 52.0135 152.376C52.2908 152.877 52.6588 153.272 53.1175 153.56C53.5868 153.848 54.1095 153.992 54.6855 153.992ZM61.1539 155V146.424H62.3539V148.088L62.0819 148.024C62.2952 147.469 62.6419 147.032 63.1219 146.712C63.6125 146.392 64.1779 146.232 64.8179 146.232C65.4259 146.232 65.9699 146.371 66.4499 146.648C66.9405 146.925 67.3245 147.309 67.6019 147.8C67.8899 148.28 68.0339 148.824 68.0339 149.432V155H66.8339V149.896C66.8339 149.373 66.7379 148.931 66.5459 148.568C66.3645 148.205 66.1032 147.928 65.7619 147.736C65.4312 147.533 65.0472 147.432 64.6099 147.432C64.1725 147.432 63.7832 147.533 63.4419 147.736C63.1005 147.928 62.8339 148.211 62.6419 148.584C62.4499 148.947 62.3539 149.384 62.3539 149.896V155H61.1539ZM70.3258 155V146.424H71.5258V155H70.3258ZM70.3258 144.84V143.08H71.5258V144.84H70.3258ZM76.462 155.192C75.918 155.192 75.4327 155.091 75.006 154.888C74.5793 154.675 74.2433 154.387 73.998 154.024C73.7527 153.661 73.63 153.245 73.63 152.776C73.63 152.328 73.726 151.923 73.918 151.56C74.11 151.187 74.4087 150.872 74.814 150.616C75.2193 150.36 75.7367 150.179 76.366 150.072L79.726 149.512V150.6L76.654 151.112C76.0353 151.219 75.5873 151.416 75.31 151.704C75.0433 151.992 74.91 152.333 74.91 152.728C74.91 153.112 75.0593 153.437 75.358 153.704C75.6673 153.971 76.062 154.104 76.542 154.104C77.1287 154.104 77.6407 153.981 78.078 153.736C78.5153 153.48 78.8567 153.139 79.102 152.712C79.3473 152.285 79.47 151.811 79.47 151.288V149.112C79.47 148.6 79.2833 148.184 78.91 147.864C78.5367 147.544 78.0513 147.384 77.454 147.384C76.9313 147.384 76.4727 147.517 76.078 147.784C75.6833 148.04 75.39 148.376 75.198 148.792L74.11 148.2C74.27 147.837 74.5207 147.507 74.862 147.208C75.214 146.909 75.614 146.675 76.062 146.504C76.51 146.323 76.974 146.232 77.454 146.232C78.0833 146.232 78.638 146.355 79.118 146.6C79.6087 146.845 79.9873 147.187 80.254 147.624C80.5313 148.051 80.67 148.547 80.67 149.112V155H79.47V153.288L79.646 153.464C79.4967 153.784 79.262 154.077 78.942 154.344C78.6327 154.6 78.2647 154.808 77.838 154.968C77.422 155.117 76.9633 155.192 76.462 155.192ZM83.1383 155V142.888H84.3383V155H83.1383Z" fill="white"/>
</svg>
