<svg width="21" height="31" viewBox="0 0 21 31" fill="none" xmlns="http://www.w3.org/2000/svg">
<path d="M20.5 17C20.8 17 21 16.8 21 16.5V12.5C21 12.2 20.8 12 20.5 12C20.2 12 20 12.2 20 12.5V16H18.5C18.2 16 18 16.2 18 16.5C18 16.8 18.2 17 18.5 17H20.5ZM0.5 23.75C0.8 23.75 1 23.55 1 23.25V1.5C1 1.2 1.2 1 1.5 1H10.3L13.65 4.35C13.85 4.55 14.15 4.55 14.35 4.35C14.55 4.15 14.55 3.85 14.35 3.65L12.55 1.85L18.85 4.35C18.05 4.8 17.4 5.5 17.1 6.4L15.8 5.1C15.6 4.9 15.3 4.9 15.1 5.1C14.9 5.3 14.9 5.6 15.1 5.8L17.1 7.8C17.2 7.9 17.4 8 17.65 7.9C17.85 7.85 17.95 7.65 17.95 7.45C17.95 6.25 18.8 5.25 19.95 5V8.4C19.95 8.7 20.15 8.9 20.45 8.9C20.75 8.9 20.95 8.7 20.95 8.4V4.5C20.95 4.15 20.65 4.05 20.65 4.05L10.65 0H1.5C0.65 0 0 0.65 0 1.5V23.25C0 23.55 0.2 23.75 0.5 23.75ZM0.5 27.1C0.8 27.1 1 26.9 1 26.6V25.5C1 25.2 0.8 25 0.5 25C0.2 25 0 25.2 0 25.5V26.6C0 26.9 0.2 27.1 0.5 27.1ZM20.5 24.1C20.2 24.1 20 24.3 20 24.6V29.5C20 29.8 19.8 30 19.5 30H1.5C1.2 30 1 29.8 1 29.5V28.5C1 28.2 0.8 28 0.5 28C0.2 28 0 28.2 0 28.5V29.5C0 30.35 0.65 31 1.5 31H19.5C20.35 31 21 30.35 21 29.5V24.6C21 24.35 20.8 24.1 20.5 24.1Z" fill="#FF0000"/>
</svg>
