<svg width="27" height="26" viewBox="0 0 27 26" fill="none" xmlns="http://www.w3.org/2000/svg">
<path d="M25.6078 13.77L24.2241 13.5886C24.203 13.5844 24.1861 13.5802 24.165 13.5802L23.4141 13.4831L25.3041 12.6478C25.6669 12.4917 25.8694 12.0994 25.7892 11.7112C25.612 10.9055 25.5909 9.97312 25.5614 8.78766L25.5572 7.80047V7.79625C25.5614 7.75828 25.5614 7.72453 25.5614 7.68656C25.5614 7.65281 25.5614 7.61906 25.5572 7.58531V7.57266L25.5487 6.34922C25.5487 5.00344 25.0256 3.74625 24.0806 2.80547C23.1356 1.85625 21.8784 1.33734 20.5369 1.33734C17.7736 1.33734 15.525 3.58594 15.525 6.34922V10.7831C14.3902 10.2811 13.1794 10.2178 12.0741 10.6059C11.2092 10.9139 10.4709 11.4792 9.93937 12.2555L9.09984 11.6395C8.81297 11.4159 8.65266 11.0827 8.65266 10.7198V9.53437C9.77906 8.96062 10.3402 7.96078 10.3275 6.55172H10.8169C11.4075 6.55172 11.8884 6.07078 11.8884 5.48016C11.8884 5.00344 11.572 4.59844 11.1375 4.45922C11.4033 3.11344 11.2345 1.92375 10.6608 1.17281C10.1039 0.43875 9.16313 0 8.13797 0H5.75016C5.41266 0 5.09625 0.126562 4.85156 0.358594L4.65328 0.548437C4.07953 0.485156 3.50578 0.662344 3.06281 1.04203C2.59031 1.44703 2.32453 2.02922 2.32453 2.64516V4.32844C1.92797 4.51406 1.65375 4.91906 1.65375 5.38312C1.65375 6.02437 2.18109 6.55172 2.82234 6.55172H3.13875C3.25266 7.44187 3.51 8.15906 3.91078 8.7075C4.15969 9.04922 4.46766 9.32344 4.83047 9.53437V10.6312C4.83047 10.9561 4.61109 11.2472 4.30312 11.34L1.24453 12.247C0.502031 12.4706 0 13.1414 0 13.9134V16.0102C0 16.3561 0.2025 16.6556 0.497812 16.7864V23.0555C0.497812 23.1736 0.590625 23.2664 0.704531 23.2664H2.835C2.83922 23.2664 2.83922 23.2664 2.84344 23.2664H8.50078C8.41219 23.7853 8.42062 24.3928 8.53453 25.0973C8.58094 25.3758 8.82563 25.5825 9.1125 25.5825H18.1027C18.3853 25.5825 18.6342 25.3716 18.6806 25.0973C18.7945 24.3886 18.803 23.7853 18.7144 23.2622H26.4052C26.5233 23.2622 26.6161 23.1694 26.6161 23.0555V17.9887C26.8566 17.7103 27 17.3433 27 16.9509V15.3605C27 14.5631 26.4009 13.8797 25.6078 13.77ZM16.6809 6.84703H17.145C17.5542 6.84703 17.9044 6.55594 17.9761 6.15094L17.9972 6.02437C18.0689 5.63203 18.4444 5.36625 18.8367 5.42953L22.5619 6.04969C22.7517 6.07922 22.9247 6.18891 23.0302 6.35344L23.123 6.49266C23.3128 6.77953 23.6208 6.95672 23.9625 6.98625L24.5405 7.03266C24.8358 7.05797 25.0763 7.28156 25.1311 7.56422C25.1311 7.56844 25.1353 7.57266 25.1311 7.58109L25.1353 7.78781C25.0847 8.10422 24.8147 8.34469 24.4856 8.34469H24.1734C23.9372 8.34469 23.7389 8.53453 23.7263 8.775C23.6461 10.0237 23.1188 10.8759 22.1063 11.3737C22.0936 11.378 22.0852 11.3864 22.0725 11.3906C21.1402 11.8336 20.018 11.8294 19.0603 11.3737C17.9423 10.8422 17.3939 9.91406 17.3813 8.53453C17.3813 8.42062 17.2884 8.32781 17.1745 8.32781H16.6809C16.2717 8.32781 15.9384 7.99453 15.9384 7.58531C15.9384 7.18031 16.2717 6.84703 16.6809 6.84703ZM16.6809 8.74125H16.972C17.0395 10.1672 17.6808 11.1755 18.8831 11.7492C19.4231 12.0066 20.0095 12.1331 20.5917 12.1331C21.0642 12.1331 21.5367 12.0487 21.9797 11.88V12.5719C21.9797 13.0528 22.2455 13.4831 22.6505 13.7025C22.6716 13.7194 22.6927 13.7278 22.7138 13.7362C22.8361 13.7995 22.9711 13.8417 23.1103 13.8586L23.8908 13.9641C23.2622 15.7781 21.3595 16.6978 18.2292 16.6767C18.3178 13.6814 17.9297 12.0783 15.9384 10.9941V8.47125C16.1367 8.64 16.3983 8.74125 16.6809 8.74125ZM12.5508 19.8492V19.6762C12.8292 19.7648 13.1245 19.807 13.4241 19.807C13.8291 19.807 14.2509 19.7311 14.6644 19.575L14.6602 19.8492C14.6602 20.4019 14.9555 20.9208 15.4322 21.2034C15.5039 21.2456 15.5841 21.2752 15.66 21.3089C15.1242 21.7434 14.3944 21.9923 13.6055 21.9712C12.8292 21.9628 12.1036 21.7097 11.5973 21.2836C11.6564 21.2583 11.7197 21.2372 11.7745 21.2034C12.2555 20.9208 12.5508 20.4019 12.5508 19.8492ZM14.812 19.0603C14.8078 19.0603 14.8036 19.0645 14.7994 19.0687C14.7952 19.0687 14.7952 19.0687 14.7952 19.073C13.9809 19.4569 13.1245 19.4991 12.4242 19.1869C12.3905 19.1742 12.3567 19.1616 12.3272 19.1447C11.4328 18.7017 10.9266 17.8411 10.7663 16.5122C10.7578 16.4109 10.665 16.3308 10.5638 16.3308H9.99C9.82547 16.3308 9.66937 16.2675 9.55125 16.1536C9.43312 16.0355 9.36984 15.8794 9.36984 15.7148C9.36984 15.3731 9.64828 15.0947 9.99 15.0947H11.032C11.3822 15.0947 11.6648 14.812 11.6648 14.4619V13.7278C11.6648 13.6561 11.6986 13.5928 11.7577 13.5506C11.8125 13.5127 11.8842 13.5 11.9517 13.5211L14.9259 14.5252C15.2845 14.6475 15.6136 14.8627 15.8752 15.1411C16.2591 15.5545 16.4742 16.0692 16.4827 16.5839C16.4911 17.2167 16.3223 17.7525 15.9637 18.1997C15.9553 18.2081 15.9427 18.2208 15.9342 18.2334C15.6642 18.5583 15.2888 18.8325 14.812 19.0603ZM3.53109 6.31969C3.51844 6.21422 3.42984 6.13406 3.32438 6.13406H2.82234C2.40891 6.13406 2.07141 5.79656 2.07141 5.38312C2.07141 5.05406 2.28234 4.77562 2.57344 4.67437C2.58609 4.66594 2.59875 4.66172 2.61141 4.66172C2.67891 4.64062 2.75063 4.62797 2.82234 4.62797H3.4425C3.93187 4.62797 4.33266 4.22719 4.33266 3.73781V3.64078C4.33266 3.48047 4.40016 3.33281 4.5225 3.23156C4.64484 3.13031 4.80516 3.08812 4.96125 3.11344L8.96062 3.84328C9.15469 3.88125 9.315 4.00781 9.39516 4.18922L9.41203 4.22719C9.57234 4.59422 9.93516 4.83047 10.3359 4.83047H10.8169C11.1797 4.83047 11.4708 5.12156 11.4708 5.48016C11.4708 5.84297 11.1797 6.13406 10.8169 6.13406H10.1123C10.0575 6.13406 10.0027 6.15937 9.96469 6.20156C9.9225 6.23953 9.90141 6.29859 9.90562 6.35344C9.97734 7.74984 9.47109 8.68641 8.37 9.21375C8.35312 9.21797 8.34047 9.22641 8.32781 9.23062C8.16328 9.31078 7.98609 9.37406 7.79625 9.43312C7.06641 9.6525 6.33656 9.66094 5.67844 9.45844C5.49281 9.39937 5.31984 9.32766 5.15953 9.23906C5.14687 9.23062 5.12578 9.22219 5.10891 9.21375H5.10469C4.19766 8.7075 3.67875 7.75828 3.53109 6.31969ZM4.42125 11.7366C4.90641 11.5973 5.24391 11.1417 5.24391 10.6312V9.74109C5.34516 9.78328 5.44641 9.82125 5.55609 9.855C5.91047 9.96469 6.28594 10.0195 6.66563 10.0195C7.07484 10.0195 7.49672 9.95625 7.91438 9.82969C8.02406 9.79594 8.13375 9.75797 8.235 9.72V10.7198C8.235 11.1712 8.42484 11.5931 8.76234 11.8969L7.33641 12.9558C6.98625 13.2131 6.53484 13.2342 6.16781 13.0022L4.24828 11.7872H4.2525L4.42125 11.7366ZM3.04594 22.8487V14.4956C3.04594 14.3775 2.95312 14.2847 2.835 14.2847C2.72109 14.2847 2.62828 14.3775 2.62828 14.4956V16.4531H0.860625C0.835312 16.4531 0.81 16.4489 0.784688 16.4447C0.767812 16.4362 0.750938 16.432 0.734062 16.432C0.544219 16.3814 0.417656 16.2084 0.417656 16.0102V13.9134C0.417656 13.3228 0.797344 12.8123 1.36688 12.6436L3.71672 11.9433L5.94844 13.3566C6.18891 13.5084 6.45469 13.5802 6.72047 13.5802C7.02422 13.5802 7.32375 13.4831 7.58531 13.2891L9.10828 12.1584L9.72 12.6056C9.27281 13.3945 9.05344 14.2973 9.07875 15.2339C8.99859 15.3773 8.95641 15.5419 8.95641 15.7148C8.95641 15.9891 9.06609 16.2506 9.26016 16.4447C9.45844 16.6387 9.71578 16.7484 9.99422 16.7484H10.3823C10.5848 18.1027 11.1755 19.0308 12.1416 19.5117V19.8492C12.1416 20.2584 11.9222 20.6381 11.572 20.8448C11.4412 20.925 11.2809 20.9756 11.0995 20.9967C10.1419 21.1191 9.43312 21.4819 8.99438 22.0683C8.82562 22.2961 8.69906 22.5577 8.60625 22.8445H3.04594V22.8487ZM18.2714 25.0298C18.2588 25.11 18.187 25.1691 18.1027 25.1691H9.1125C9.02812 25.1691 8.95641 25.11 8.94375 25.0298C8.74969 23.8275 8.87625 22.9162 9.31922 22.3214C9.69047 21.8278 10.3022 21.5241 11.1375 21.4144C11.7155 22.0134 12.6267 22.3762 13.6055 22.3847C13.6223 22.3847 13.635 22.3847 13.6519 22.3847C14.6391 22.3847 15.5377 22.0345 16.1494 21.427C16.9467 21.5452 17.5373 21.8405 17.8959 22.3214C18.3389 22.9162 18.4655 23.8275 18.2714 25.0298ZM18.225 22.0725C17.7863 21.4819 17.0775 21.1233 16.1198 21.0009C15.9384 20.9798 15.7781 20.925 15.6473 20.8491C15.2972 20.6423 15.0778 20.2584 15.0778 19.8534L15.082 19.3936C15.082 19.3936 15.082 19.3936 15.0862 19.3936C15.5461 19.1616 15.9173 18.8831 16.2 18.5583H16.9467C17.2041 18.5583 17.453 18.4823 17.6723 18.3305C17.9888 18.1027 18.1786 17.7525 18.1997 17.3644C18.2039 17.2758 18.2081 17.1872 18.2123 17.1028C18.2123 17.1028 18.2123 17.1028 18.2123 17.0986C18.2377 17.0986 18.2588 17.0986 18.2841 17.0986C21.6295 17.0986 23.6545 16.0608 24.3084 14.0189H24.3127L25.5487 14.1834C26.1352 14.2636 26.5823 14.7698 26.5823 15.3605V16.9509C26.5823 17.2589 26.4642 17.5373 26.2702 17.7483C26.2575 17.7652 26.2448 17.7778 26.2322 17.7905C26.2322 17.7905 26.2322 17.7947 26.228 17.7947C26.0128 18.0056 25.7217 18.1406 25.3927 18.1406H24.5784V16.8877C24.5784 16.7737 24.4856 16.6767 24.3717 16.6767C24.2578 16.6767 24.165 16.7737 24.165 16.8877V22.8445H18.6131C18.5203 22.5577 18.3938 22.2961 18.225 22.0725Z" fill="#FF0000"/>
</svg>
