<svg width="34" height="41" viewBox="0 0 34 41" fill="none" xmlns="http://www.w3.org/2000/svg">
<path d="M31.5714 3.2381H30.7619V2.42857C30.7619 1.09286 29.669 0 28.3333 0H2.42857C1.09286 0 0 1.09286 0 2.42857V34.8095C0 36.1452 1.09286 37.2381 2.42857 37.2381H3.2381V38.0476C3.2381 39.3833 4.32286 40.4762 5.66667 40.4762H30.7619C30.8671 40.4762 30.9724 40.4519 31.0614 40.4195C32.729 40.1281 34 38.6871 34 36.9386V5.66667C34 4.33095 32.9071 3.2381 31.5714 3.2381ZM5.59381 38.841C5.18095 38.8005 4.85714 38.4686 4.85714 38.0476V37.2381H10.8071L5.59381 38.841ZM11.05 38.8571L26.1395 34.2186L27.03 37.7967C27.1271 38.1852 27.289 38.5414 27.4914 38.8571H11.05ZM28.1552 35.619L27.4995 32.9962C27.4429 32.7776 27.3052 32.5914 27.111 32.4862C26.9167 32.381 26.69 32.3486 26.4795 32.4133L16.069 35.619H2.42857C1.98333 35.619 1.61905 35.2548 1.61905 34.8095V2.42857C1.61905 1.98333 1.98333 1.61905 2.42857 1.61905H28.3333C28.7786 1.61905 29.1429 1.98333 29.1429 2.42857V34.8095C29.1429 35.2548 28.7786 35.619 28.3333 35.619H28.1552ZM32.381 36.9386C32.381 37.999 31.5229 38.8571 30.4624 38.8571C29.58 38.8571 28.819 38.2581 28.6005 37.4081L28.5519 37.2138C29.7905 37.1005 30.7619 36.0724 30.7619 34.8095V4.85714H31.5714C32.0167 4.85714 32.381 5.22143 32.381 5.66667V36.9386Z" fill="#FF0000"/>
</svg>
