<svg width="9" height="9" viewBox="0 0 9 9" fill="none" xmlns="http://www.w3.org/2000/svg">
<path d="M0.237393 8.24682C0.542583 8.55201 1.06554 8.56334 1.38206 8.24682L4.24211 5.38677L7.10216 8.24682C7.40249 8.54715 7.93596 8.55768 8.24682 8.24682C8.56334 7.9303 8.56334 7.41868 8.24682 7.10215L5.38677 4.24211L8.24682 1.38206C8.56334 1.06553 8.56334 0.553917 8.24682 0.237393C7.9303 -0.079131 7.41868 -0.079131 7.10216 0.237393L4.24211 3.09744L1.38206 0.237393C1.06554 -0.079131 0.553917 -0.079131 0.237393 0.237393C-0.079131 0.553917 -0.079131 1.06553 0.237393 1.38206L3.09744 4.24211L0.237393 7.10215C-0.079131 7.41868 -0.079131 7.9303 0.237393 8.24682Z" fill="#FF0000"/>
</svg>
