<svg width="57" height="59" viewBox="0 0 57 59" fill="none" xmlns="http://www.w3.org/2000/svg">
<path d="M56.8998 1.40891C56.8594 0.66402 56.2832 0.0712971 55.5577 0.0297958C55.5546 0.0297958 55.5525 0.0297958 55.5484 0.0287317C55.366 0.0202186 54.8592 0 54.0829 0C51.5323 0 46.3866 0.220276 40.5911 1.68985C33.2794 3.5457 27.3647 6.75194 23.0108 11.2245C21.1277 13.158 19.456 15.4161 18.0413 17.936L17.9387 18.119L17.8703 18.2403L17.7728 18.1414L15.7115 16.0248C15.4482 15.7535 15.0803 15.597 14.7051 15.597C14.4927 15.597 14.2885 15.6439 14.0988 15.7364L0.813317 22.1968C0.301339 22.4469 -0.0178795 22.9853 0.000775586 23.5685L0.700341 44.3872C0.720033 44.9682 1.07241 45.4811 1.59994 45.694C1.76472 45.7621 1.94091 45.7961 2.12125 45.7961C2.5016 45.7961 2.85812 45.644 3.12654 45.3673L14.6326 33.5532L14.7072 33.4777L14.7818 33.5532L18.4361 37.3054L18.5097 37.382L18.4361 37.4586L6.9301 49.2727C6.66167 49.5472 6.51348 49.9133 6.51348 50.3049C6.51348 50.6965 6.66064 51.0615 6.9301 51.3371C7.19749 51.6127 7.55402 51.7649 7.93437 51.7649C8.31473 51.7649 8.67124 51.6137 8.94071 51.3371L20.4467 39.522L20.5214 39.4464L20.596 39.522L24.2493 43.2741L24.3229 43.3507L24.2493 43.4274L12.7443 55.2414C12.3422 55.6521 12.2178 56.2672 12.4251 56.8078C12.6334 57.3494 13.1329 57.7123 13.6998 57.7325L33.9748 58.4498C33.9924 58.4508 34.0069 58.4508 34.0204 58.4508H34.0245C34.5707 58.4508 35.0744 58.1231 35.3086 57.6155L41.6016 43.9754C41.8576 43.4188 41.7446 42.7538 41.3218 42.3185L39.2604 40.203L39.164 40.1041L39.2822 40.0328L39.4594 39.9274C41.9156 38.4759 44.1149 36.7595 45.997 34.8249C48.7662 31.9805 51.0618 28.4433 52.8195 24.3112C54.2145 21.0358 55.2779 17.3795 55.9795 13.4422C57.1278 6.99669 56.9268 1.9612 56.8998 1.40785V1.40891ZM13.4241 30.6098L13.4148 30.6535L13.4086 30.6843L13.3868 30.7067L3.60121 40.7543L3.43125 40.9277L3.42295 40.6808L2.87988 24.4953L2.8778 24.4251L2.93999 24.3953L14.3455 18.849L14.4129 18.816L14.4647 18.8692L16.4629 20.9209L16.5136 20.973L16.4836 21.0411L16.439 21.1433C15.1756 23.9909 14.1621 27.1759 13.4262 30.6098H13.4241ZM38.5712 43.7243L33.1685 55.4351L33.1395 55.4989L33.0711 55.4968L17.3075 54.9381L17.0671 54.9296L17.236 54.7551L27.0216 44.7086L27.0424 44.6873L27.0714 44.6809L27.1159 44.6703C30.4635 43.9137 33.5654 42.8729 36.3367 41.5768L36.4342 41.5311L36.5015 41.5002L36.5523 41.5524L38.5515 43.604L38.6033 43.6572L38.5712 43.7264V43.7243ZM54.085 3.02746V3.19028C54.0715 5.01953 53.9357 8.72484 53.1657 13.0016C52.5304 16.5388 51.5759 19.8525 50.328 22.848C48.6854 26.7917 46.5514 30.1267 43.9863 32.7615C41.8524 34.9526 39.2656 36.835 36.2963 38.3578L36.2797 38.3663H36.2766L36.2735 38.3685C36.1968 38.3993 36.1201 38.4398 36.0455 38.4855L36.0434 38.4876H36.0403L36.0268 38.4962C33.3239 39.8529 30.2645 40.9362 26.9294 41.7215L26.8444 41.7418L26.7884 41.7545L26.748 41.713L22.6045 37.4597L22.5309 37.3831L22.6045 37.3065L28.5171 31.2356C28.7856 30.961 28.9338 30.5949 28.9338 30.2033C28.9338 29.8117 28.7866 29.4468 28.5171 29.1711C28.2508 28.8955 27.8943 28.7434 27.5129 28.7434C27.1315 28.7434 26.776 28.8945 26.5076 29.1711L20.595 35.242L20.5203 35.3176L20.4457 35.242L16.3022 30.9887L16.2618 30.9461L16.2753 30.8887L16.295 30.8014C17.0567 27.3845 18.1117 24.2431 19.4342 21.4647L19.4363 21.4615L19.4383 21.4583L19.4456 21.4455C19.4933 21.3615 19.5326 21.2827 19.5606 21.2071V21.204L19.5627 21.2008L19.5689 21.1869C21.0541 18.1361 22.8875 15.4789 25.0214 13.2879C28.968 9.23669 34.3769 6.30394 41.099 4.57046C46.5328 3.16899 51.4028 2.93488 53.8207 2.91999H53.9793L54.086 2.91786V3.02746H54.085Z" fill="white"/>
<path d="M39.3984 11.4629C37.6977 11.4629 36.0996 12.1429 34.8974 13.3783C33.6931 14.6127 33.0319 16.2536 33.0319 17.9999C33.0319 19.7461 33.6941 21.387 34.8974 22.6214C36.0985 23.8569 37.6977 24.5358 39.3984 24.5358C41.0991 24.5358 42.6973 23.8558 43.9005 22.6214C45.1007 21.3881 45.7608 19.7472 45.7608 17.9999C45.7608 16.2526 45.0996 14.6095 43.8995 13.3783C42.6973 12.1418 41.0991 11.4629 39.3984 11.4629ZM41.8899 20.557C41.2245 21.2402 40.3395 21.6169 39.3984 21.6169C38.4574 21.6169 37.5733 21.2402 36.9069 20.557C36.2416 19.8738 35.8757 18.965 35.8757 17.9999C35.8757 17.0347 36.2426 16.1249 36.908 15.4417C37.2396 15.1022 37.6231 14.8373 38.0501 14.6564C38.476 14.4744 38.93 14.3829 39.3984 14.3829C40.3384 14.3829 41.2235 14.7585 41.8899 15.4417C43.2631 16.8517 43.2631 19.147 41.8899 20.557Z" fill="white"/>
</svg>
