<svg width="24" height="24" viewBox="0 0 24 24" fill="none" xmlns="http://www.w3.org/2000/svg">
<path fill-rule="evenodd" clip-rule="evenodd" d="M11.5 6C8.189 6 5.5 8.689 5.5 12C5.5 15.311 8.189 18 11.5 18C14.811 18 17.5 15.311 17.5 12C17.5 8.689 14.811 6 11.5 6ZM11.5 8C13.708 8 15.5 9.792 15.5 12C15.5 14.208 13.708 16 11.5 16C9.292 16 7.5 14.208 7.5 12C7.5 9.792 9.292 8 11.5 8Z" fill="white"/>
<path fill-rule="evenodd" clip-rule="evenodd" d="M19.25 17L19.343 16.999C20.304 16.975 21.22 16.583 21.902 15.902C22.605 15.198 23 14.245 23 13.25V11C23 5.52 18.592 1.07 13.129 1.001L13 1H12C5.929 1 1 5.929 1 12C1 18.071 5.929 23 12 23C12.552 23 13 22.552 13 22C13 21.448 12.552 21 12 21C7.033 21 3 16.967 3 12C3 7.033 7.033 3 12 3H13C17.418 3 21 6.582 21 11V13.25C21 13.714 20.816 14.159 20.487 14.487C20.159 14.816 19.714 15 19.25 15M19.25 15C18.786 15 18.341 14.816 18.013 14.487C17.684 14.159 17.5 13.714 17.5 13.25V8C17.5 7.465 17.08 7.028 16.551 7.001L16.5 7C15.948 7 15.5 7.448 15.5 8C15.5 8 15.5 10.935 15.5 13.25C15.5 14.245 15.895 15.198 16.598 15.902C17.302 16.605 18.255 17 19.25 17" fill="white"/>
</svg>
