<svg width="23" height="24" viewBox="0 0 23 24" fill="none" xmlns="http://www.w3.org/2000/svg">
<path d="M21.0186 3.04933L1.11145 10.2524C0.791242 10.3682 0.72021 10.6518 1.10018 10.8069L5.38017 12.5678L7.91705 13.6108L20.3015 4.27299C20.4684 4.14796 20.6601 4.38297 20.5394 4.51727L11.6649 14.3726V14.3749L11.1552 14.9572L11.8306 15.3299L17.4478 18.4348C17.7759 18.6154 18.201 18.4661 18.2957 18.0482L21.5722 3.54829C21.6613 3.1512 21.4053 2.90925 21.0186 3.04933ZM7.8945 19.8681C7.8945 20.1528 8.05122 20.2327 8.2677 20.0313C8.5507 19.7662 11.4811 17.0665 11.4811 17.0665L7.8945 15.1632V19.8681Z" fill="white"/>
</svg>
