<svg width="21" height="22" viewBox="0 0 21 22" fill="none" xmlns="http://www.w3.org/2000/svg">
<path d="M8.39181 4.8803C8.1222 1.69422 4.88694 0.130906 4.75002 0.0670974C4.62202 0.00528095 4.47858 -0.0144694 4.33926 0.0105398C0.604308 0.647176 0.042512 2.88048 0.0199273 2.97329C-0.0108002 3.10263 -0.00591302 3.2382 0.0340427 3.36484C4.48888 17.5652 13.7472 20.1973 16.7905 21.063C17.0248 21.1297 17.2182 21.1834 17.365 21.2327C17.5325 21.2889 17.7145 21.2781 17.8746 21.2023C17.9677 21.1587 20.1669 20.0943 20.7047 16.6225C20.7286 16.471 20.7048 16.3155 20.637 16.1788C20.589 16.0831 19.4386 13.8338 16.2485 13.0391C16.1402 13.0107 16.0269 13.0097 15.9182 13.0362C15.8096 13.0627 15.7088 13.116 15.6246 13.1914C14.6181 14.0745 13.2278 15.0157 12.6279 15.1129C8.60636 13.0928 6.36059 9.21638 6.2759 8.48113C6.22649 8.06783 7.14823 6.61618 8.2083 5.43572C8.27493 5.36143 8.32568 5.27363 8.35729 5.17797C8.38889 5.08231 8.40065 4.98091 8.39181 4.8803Z" fill="white"/>
</svg>
