<svg width="24" height="36" viewBox="0 0 24 36" fill="none" xmlns="http://www.w3.org/2000/svg">
<mask id="path-1-outside-1_152_113" maskUnits="userSpaceOnUse" x="-0.700195" y="-0.700012" width="25" height="37" fill="black">
<rect fill="white" x="-0.700195" y="-0.700012" width="25" height="37"/>
<path d="M6.31629 12.8041C9.64321 12.8041 12.3357 9.99071 12.3357 6.55207C12.3357 3.10479 9.63535 0.299988 6.31629 0.299988C2.99884 0.299988 0.299805 3.10471 0.299805 6.55207C0.299805 9.94791 2.9388 12.8041 6.31629 12.8041ZM6.31629 12.3915C4.55918 12.3915 2.86349 11.5293 1.78209 9.99578L1.92446 9.57203C2.1877 8.78762 2.9024 8.26069 3.70279 8.26069H4.58779C4.71834 8.26069 4.8437 8.33043 4.91565 8.44368L5.65828 9.59398C5.97073 10.0795 6.66109 10.0804 6.97415 9.59462L7.72044 8.44249C7.79301 8.3286 7.91524 8.26077 8.0477 8.26077H8.9356C9.73522 8.26077 10.4486 8.7877 10.7112 9.57251L10.8536 9.99459C9.75804 11.5484 8.04899 12.3915 6.31629 12.3915ZM6.31629 0.71264C9.41629 0.71264 11.9384 3.33224 11.9384 6.55207C11.9384 7.65395 11.6427 8.68539 11.1299 9.56577L11.0862 9.43643C10.7684 8.48639 9.90423 7.84811 8.9356 7.84811H8.0477C7.78133 7.84811 7.53519 7.9853 7.38984 8.21361L6.64416 9.36471C6.48797 9.60698 6.14447 9.60698 5.98843 9.36448L5.24641 8.2152C5.10038 7.9853 4.85416 7.84811 4.58779 7.84811H3.70279C2.73362 7.84811 1.86823 8.48623 1.54929 9.43628L1.50557 9.56656C0.992762 8.68594 0.697099 7.65427 0.697099 6.55207C0.697099 3.33224 3.21782 0.71264 6.31629 0.71264ZM0.427302 15.4447C0.427302 16.0518 0.902804 16.5456 1.48726 16.5456H22.3614C22.9458 16.5456 23.4213 16.0517 23.4213 15.4447C23.4213 14.8376 22.9458 14.3437 22.3614 14.3437H1.48726C0.902728 14.3437 0.427302 14.8376 0.427302 15.4447ZM23.024 15.4447C23.024 15.8243 22.7268 16.1329 22.3614 16.1329H1.48726C1.12179 16.1329 0.824596 15.8243 0.824596 15.4447C0.824596 15.0651 1.12179 14.7564 1.48726 14.7564H22.3614C22.7268 14.7564 23.024 15.0651 23.024 15.4447ZM22.3614 18.0826H1.48726C0.902728 18.0826 0.427302 18.5766 0.427302 19.1837C0.427302 19.7909 0.902804 20.2847 1.48726 20.2847H22.3614C22.9458 20.2847 23.4213 19.7908 23.4213 19.1837C23.4213 18.5767 22.9459 18.0826 22.3614 18.0826ZM22.3614 19.872H1.48726C1.12179 19.872 0.824596 19.5633 0.824596 19.1837C0.824596 18.8041 1.12179 18.4952 1.48726 18.4952H22.3614C22.7268 18.4952 23.024 18.8041 23.024 19.1837C23.024 19.5633 22.7268 19.872 22.3614 19.872ZM17.2718 22.9227C17.2718 22.3155 16.7963 21.8217 16.2118 21.8217H1.48726C0.902728 21.8217 0.427302 22.3156 0.427302 22.9227C0.427302 23.5297 0.902804 24.0236 1.48726 24.0236H16.2119C16.7963 24.0236 17.2718 23.5297 17.2718 22.9227ZM16.2118 23.6109H1.48726C1.12179 23.6109 0.824596 23.3023 0.824596 22.9227C0.824596 22.543 1.12179 22.2344 1.48726 22.2344H16.2119C16.5774 22.2344 16.8745 22.543 16.8745 22.9227C16.8745 23.3023 16.5773 23.6109 16.2118 23.6109ZM13.2645 25.5607H1.48726C0.902728 25.5607 0.427302 26.0546 0.427302 26.6616C0.427302 27.2687 0.902804 27.7626 1.48726 27.7626H13.2645C13.849 27.7626 14.3244 27.2687 14.3244 26.6616C14.3244 26.0546 13.849 25.5607 13.2645 25.5607ZM13.2645 27.35H1.48726C1.12179 27.35 0.824596 27.0413 0.824596 26.6617C0.824596 26.2821 1.12179 25.9734 1.48726 25.9734H13.2645C13.63 25.9734 13.9271 26.2821 13.9271 26.6617C13.9271 27.0413 13.63 27.35 13.2645 27.35ZM13.2645 29.2998H1.48726C0.902728 29.2998 0.427302 29.7937 0.427302 30.4007C0.427302 31.0078 0.902804 31.5017 1.48726 31.5017H13.2645C13.849 31.5017 14.3244 31.0078 14.3244 30.4007C14.3244 29.7937 13.849 29.2998 13.2645 29.2998ZM13.2645 31.0891H1.48726C1.12179 31.0891 0.824596 30.7804 0.824596 30.4008C0.824596 30.0212 1.12179 29.7125 1.48726 29.7125H13.2645C13.63 29.7125 13.9271 30.0212 13.9271 30.4008C13.9271 30.7804 13.63 31.0891 13.2645 31.0891ZM13.2641 33.0389H1.48726C0.902728 33.0389 0.427302 33.5327 0.427302 34.1398C0.427302 34.7469 0.902804 35.2407 1.48726 35.2407H13.2641C13.8486 35.2407 14.3241 34.7469 14.3241 34.1398C14.3241 33.5327 13.8486 33.0389 13.2641 33.0389ZM13.2641 34.8282H1.48726C1.12179 34.8282 0.824596 34.5195 0.824596 34.1399C0.824596 33.7603 1.12179 33.4516 1.48726 33.4516H13.2641C13.6296 33.4516 13.9268 33.7603 13.9268 34.1399C13.9268 34.5195 13.6296 34.8282 13.2641 34.8282Z"/>
</mask>
<path d="M6.31629 12.8041C9.64321 12.8041 12.3357 9.99071 12.3357 6.55207C12.3357 3.10479 9.63535 0.299988 6.31629 0.299988C2.99884 0.299988 0.299805 3.10471 0.299805 6.55207C0.299805 9.94791 2.9388 12.8041 6.31629 12.8041ZM6.31629 12.3915C4.55918 12.3915 2.86349 11.5293 1.78209 9.99578L1.92446 9.57203C2.1877 8.78762 2.9024 8.26069 3.70279 8.26069H4.58779C4.71834 8.26069 4.8437 8.33043 4.91565 8.44368L5.65828 9.59398C5.97073 10.0795 6.66109 10.0804 6.97415 9.59462L7.72044 8.44249C7.79301 8.3286 7.91524 8.26077 8.0477 8.26077H8.9356C9.73522 8.26077 10.4486 8.7877 10.7112 9.57251L10.8536 9.99459C9.75804 11.5484 8.04899 12.3915 6.31629 12.3915ZM6.31629 0.71264C9.41629 0.71264 11.9384 3.33224 11.9384 6.55207C11.9384 7.65395 11.6427 8.68539 11.1299 9.56577L11.0862 9.43643C10.7684 8.48639 9.90423 7.84811 8.9356 7.84811H8.0477C7.78133 7.84811 7.53519 7.9853 7.38984 8.21361L6.64416 9.36471C6.48797 9.60698 6.14447 9.60698 5.98843 9.36448L5.24641 8.2152C5.10038 7.9853 4.85416 7.84811 4.58779 7.84811H3.70279C2.73362 7.84811 1.86823 8.48623 1.54929 9.43628L1.50557 9.56656C0.992762 8.68594 0.697099 7.65427 0.697099 6.55207C0.697099 3.33224 3.21782 0.71264 6.31629 0.71264ZM0.427302 15.4447C0.427302 16.0518 0.902804 16.5456 1.48726 16.5456H22.3614C22.9458 16.5456 23.4213 16.0517 23.4213 15.4447C23.4213 14.8376 22.9458 14.3437 22.3614 14.3437H1.48726C0.902728 14.3437 0.427302 14.8376 0.427302 15.4447ZM23.024 15.4447C23.024 15.8243 22.7268 16.1329 22.3614 16.1329H1.48726C1.12179 16.1329 0.824596 15.8243 0.824596 15.4447C0.824596 15.0651 1.12179 14.7564 1.48726 14.7564H22.3614C22.7268 14.7564 23.024 15.0651 23.024 15.4447ZM22.3614 18.0826H1.48726C0.902728 18.0826 0.427302 18.5766 0.427302 19.1837C0.427302 19.7909 0.902804 20.2847 1.48726 20.2847H22.3614C22.9458 20.2847 23.4213 19.7908 23.4213 19.1837C23.4213 18.5767 22.9459 18.0826 22.3614 18.0826ZM22.3614 19.872H1.48726C1.12179 19.872 0.824596 19.5633 0.824596 19.1837C0.824596 18.8041 1.12179 18.4952 1.48726 18.4952H22.3614C22.7268 18.4952 23.024 18.8041 23.024 19.1837C23.024 19.5633 22.7268 19.872 22.3614 19.872ZM17.2718 22.9227C17.2718 22.3155 16.7963 21.8217 16.2118 21.8217H1.48726C0.902728 21.8217 0.427302 22.3156 0.427302 22.9227C0.427302 23.5297 0.902804 24.0236 1.48726 24.0236H16.2119C16.7963 24.0236 17.2718 23.5297 17.2718 22.9227ZM16.2118 23.6109H1.48726C1.12179 23.6109 0.824596 23.3023 0.824596 22.9227C0.824596 22.543 1.12179 22.2344 1.48726 22.2344H16.2119C16.5774 22.2344 16.8745 22.543 16.8745 22.9227C16.8745 23.3023 16.5773 23.6109 16.2118 23.6109ZM13.2645 25.5607H1.48726C0.902728 25.5607 0.427302 26.0546 0.427302 26.6616C0.427302 27.2687 0.902804 27.7626 1.48726 27.7626H13.2645C13.849 27.7626 14.3244 27.2687 14.3244 26.6616C14.3244 26.0546 13.849 25.5607 13.2645 25.5607ZM13.2645 27.35H1.48726C1.12179 27.35 0.824596 27.0413 0.824596 26.6617C0.824596 26.2821 1.12179 25.9734 1.48726 25.9734H13.2645C13.63 25.9734 13.9271 26.2821 13.9271 26.6617C13.9271 27.0413 13.63 27.35 13.2645 27.35ZM13.2645 29.2998H1.48726C0.902728 29.2998 0.427302 29.7937 0.427302 30.4007C0.427302 31.0078 0.902804 31.5017 1.48726 31.5017H13.2645C13.849 31.5017 14.3244 31.0078 14.3244 30.4007C14.3244 29.7937 13.849 29.2998 13.2645 29.2998ZM13.2645 31.0891H1.48726C1.12179 31.0891 0.824596 30.7804 0.824596 30.4008C0.824596 30.0212 1.12179 29.7125 1.48726 29.7125H13.2645C13.63 29.7125 13.9271 30.0212 13.9271 30.4008C13.9271 30.7804 13.63 31.0891 13.2645 31.0891ZM13.2641 33.0389H1.48726C0.902728 33.0389 0.427302 33.5327 0.427302 34.1398C0.427302 34.7469 0.902804 35.2407 1.48726 35.2407H13.2641C13.8486 35.2407 14.3241 34.7469 14.3241 34.1398C14.3241 33.5327 13.8486 33.0389 13.2641 33.0389ZM13.2641 34.8282H1.48726C1.12179 34.8282 0.824596 34.5195 0.824596 34.1399C0.824596 33.7603 1.12179 33.4516 1.48726 33.4516H13.2641C13.6296 33.4516 13.9268 33.7603 13.9268 34.1399C13.9268 34.5195 13.6296 34.8282 13.2641 34.8282Z" fill="#FF0000"/>
<path d="M6.31629 12.8041C9.64321 12.8041 12.3357 9.99071 12.3357 6.55207C12.3357 3.10479 9.63535 0.299988 6.31629 0.299988C2.99884 0.299988 0.299805 3.10471 0.299805 6.55207C0.299805 9.94791 2.9388 12.8041 6.31629 12.8041ZM6.31629 12.3915C4.55918 12.3915 2.86349 11.5293 1.78209 9.99578L1.92446 9.57203C2.1877 8.78762 2.9024 8.26069 3.70279 8.26069H4.58779C4.71834 8.26069 4.8437 8.33043 4.91565 8.44368L5.65828 9.59398C5.97073 10.0795 6.66109 10.0804 6.97415 9.59462L7.72044 8.44249C7.79301 8.3286 7.91524 8.26077 8.0477 8.26077H8.9356C9.73522 8.26077 10.4486 8.7877 10.7112 9.57251L10.8536 9.99459C9.75804 11.5484 8.04899 12.3915 6.31629 12.3915ZM6.31629 0.71264C9.41629 0.71264 11.9384 3.33224 11.9384 6.55207C11.9384 7.65395 11.6427 8.68539 11.1299 9.56577L11.0862 9.43643C10.7684 8.48639 9.90423 7.84811 8.9356 7.84811H8.0477C7.78133 7.84811 7.53519 7.9853 7.38984 8.21361L6.64416 9.36471C6.48797 9.60698 6.14447 9.60698 5.98843 9.36448L5.24641 8.2152C5.10038 7.9853 4.85416 7.84811 4.58779 7.84811H3.70279C2.73362 7.84811 1.86823 8.48623 1.54929 9.43628L1.50557 9.56656C0.992762 8.68594 0.697099 7.65427 0.697099 6.55207C0.697099 3.33224 3.21782 0.71264 6.31629 0.71264ZM0.427302 15.4447C0.427302 16.0518 0.902804 16.5456 1.48726 16.5456H22.3614C22.9458 16.5456 23.4213 16.0517 23.4213 15.4447C23.4213 14.8376 22.9458 14.3437 22.3614 14.3437H1.48726C0.902728 14.3437 0.427302 14.8376 0.427302 15.4447ZM23.024 15.4447C23.024 15.8243 22.7268 16.1329 22.3614 16.1329H1.48726C1.12179 16.1329 0.824596 15.8243 0.824596 15.4447C0.824596 15.0651 1.12179 14.7564 1.48726 14.7564H22.3614C22.7268 14.7564 23.024 15.0651 23.024 15.4447ZM22.3614 18.0826H1.48726C0.902728 18.0826 0.427302 18.5766 0.427302 19.1837C0.427302 19.7909 0.902804 20.2847 1.48726 20.2847H22.3614C22.9458 20.2847 23.4213 19.7908 23.4213 19.1837C23.4213 18.5767 22.9459 18.0826 22.3614 18.0826ZM22.3614 19.872H1.48726C1.12179 19.872 0.824596 19.5633 0.824596 19.1837C0.824596 18.8041 1.12179 18.4952 1.48726 18.4952H22.3614C22.7268 18.4952 23.024 18.8041 23.024 19.1837C23.024 19.5633 22.7268 19.872 22.3614 19.872ZM17.2718 22.9227C17.2718 22.3155 16.7963 21.8217 16.2118 21.8217H1.48726C0.902728 21.8217 0.427302 22.3156 0.427302 22.9227C0.427302 23.5297 0.902804 24.0236 1.48726 24.0236H16.2119C16.7963 24.0236 17.2718 23.5297 17.2718 22.9227ZM16.2118 23.6109H1.48726C1.12179 23.6109 0.824596 23.3023 0.824596 22.9227C0.824596 22.543 1.12179 22.2344 1.48726 22.2344H16.2119C16.5774 22.2344 16.8745 22.543 16.8745 22.9227C16.8745 23.3023 16.5773 23.6109 16.2118 23.6109ZM13.2645 25.5607H1.48726C0.902728 25.5607 0.427302 26.0546 0.427302 26.6616C0.427302 27.2687 0.902804 27.7626 1.48726 27.7626H13.2645C13.849 27.7626 14.3244 27.2687 14.3244 26.6616C14.3244 26.0546 13.849 25.5607 13.2645 25.5607ZM13.2645 27.35H1.48726C1.12179 27.35 0.824596 27.0413 0.824596 26.6617C0.824596 26.2821 1.12179 25.9734 1.48726 25.9734H13.2645C13.63 25.9734 13.9271 26.2821 13.9271 26.6617C13.9271 27.0413 13.63 27.35 13.2645 27.35ZM13.2645 29.2998H1.48726C0.902728 29.2998 0.427302 29.7937 0.427302 30.4007C0.427302 31.0078 0.902804 31.5017 1.48726 31.5017H13.2645C13.849 31.5017 14.3244 31.0078 14.3244 30.4007C14.3244 29.7937 13.849 29.2998 13.2645 29.2998ZM13.2645 31.0891H1.48726C1.12179 31.0891 0.824596 30.7804 0.824596 30.4008C0.824596 30.0212 1.12179 29.7125 1.48726 29.7125H13.2645C13.63 29.7125 13.9271 30.0212 13.9271 30.4008C13.9271 30.7804 13.63 31.0891 13.2645 31.0891ZM13.2641 33.0389H1.48726C0.902728 33.0389 0.427302 33.5327 0.427302 34.1398C0.427302 34.7469 0.902804 35.2407 1.48726 35.2407H13.2641C13.8486 35.2407 14.3241 34.7469 14.3241 34.1398C14.3241 33.5327 13.8486 33.0389 13.2641 33.0389ZM13.2641 34.8282H1.48726C1.12179 34.8282 0.824596 34.5195 0.824596 34.1399C0.824596 33.7603 1.12179 33.4516 1.48726 33.4516H13.2641C13.6296 33.4516 13.9268 33.7603 13.9268 34.1399C13.9268 34.5195 13.6296 34.8282 13.2641 34.8282Z" stroke="#FF0000" stroke-width="0.6" mask="url(#path-1-outside-1_152_113)"/>
</svg>
