<svg width="35" height="42" viewBox="0 0 35 42" fill="none" xmlns="http://www.w3.org/2000/svg">
<path d="M21.1182 0.149597C21.1641 0.149633 21.2113 0.162729 21.248 0.177917C21.2852 0.193297 21.3302 0.218725 21.3662 0.256042L28.8936 8.06952L28.8994 8.07635L28.9053 8.08417C28.9396 8.1301 28.993 8.20998 28.9932 8.31952V25.2043C32.1515 26.2135 34.4501 29.2665 34.4502 32.8654C34.4502 36.9814 31.4037 40.7528 26.7256 40.8898C25.4069 40.9285 22.8525 40.9345 18.792 40.9279L1.82129 40.8898C0.894217 40.8897 0.149414 40.1082 0.149414 39.1594V1.883C0.149414 0.933106 0.894045 0.149692 1.82129 0.149597H21.1182ZM1.82129 0.862488C1.28976 0.862583 0.84668 1.31521 0.84668 1.883V39.1594C0.84668 39.7259 1.2895 40.1778 1.82129 40.1779H23.5508C20.865 38.9175 18.9932 36.114 18.9932 32.8654C18.9933 28.4497 22.4563 24.848 26.7246 24.8478C27.2634 24.8478 27.7885 24.91 28.2959 25.0197V8.67694H22.4414C21.5139 8.67694 20.7686 7.89475 20.7686 6.9455V0.862488H1.82129ZM26.7246 25.5607C22.8514 25.5609 19.6905 28.8326 19.6904 32.8654C19.6904 36.8431 22.7874 40.1779 26.7402 40.1779C30.6026 40.1693 33.7529 36.8974 33.7529 32.8654C33.7528 28.8323 30.594 25.5607 26.7246 25.5607ZM21.4658 6.94647C21.4661 7.51321 21.9093 7.96405 22.4414 7.96405H27.8125L21.4658 1.37616V6.94647Z" fill="#FF0000" stroke="#FF0000" stroke-width="0.3"/>
</svg>
