<svg width="498" height="104" viewBox="0 0 498 104" fill="none" xmlns="http://www.w3.org/2000/svg">
<g filter="url(#filter0_d_154_185)">
<rect x="18.0078" width="461" height="61" rx="4.91124" fill="white"/>
</g>
<path d="M103.48 25.9376V23.456H107.687V40H105.064V25.9849L103.48 25.9376ZM115.891 31.8935C115.891 31.6729 115.852 31.468 115.773 31.279C115.694 31.0741 115.576 30.9008 115.419 30.759C115.277 30.6172 115.103 30.5069 114.899 30.4281C114.694 30.3494 114.465 30.31 114.213 30.31C114.04 30.31 113.851 30.3257 113.646 30.3572C113.457 30.3887 113.252 30.4518 113.032 30.5463C112.811 30.6251 112.575 30.7354 112.322 30.8772V40.0236H109.723V28.1592H112.322V28.7028C112.464 28.6241 112.653 28.5295 112.89 28.4192C113.142 28.2932 113.418 28.1829 113.717 28.0883C114.032 27.9938 114.355 27.9465 114.686 27.9465C115.064 27.9465 115.434 27.9859 115.797 28.0647C116.159 28.1435 116.498 28.2695 116.813 28.4429C117.144 28.6162 117.427 28.8525 117.664 29.1519C117.916 29.4355 118.113 29.7979 118.255 30.2391C118.396 30.6802 118.467 31.2081 118.467 31.8226V40.0236H115.891V31.8935ZM126.949 32.0825C126.949 31.6256 126.902 31.2475 126.808 30.9481C126.713 30.6487 126.563 30.4124 126.359 30.2391C126.154 30.0657 125.894 29.9397 125.579 29.8609C125.264 29.7821 124.878 29.7427 124.421 29.7427L124.633 27.9465C125.531 27.9465 126.288 28.0253 126.902 28.1829C127.532 28.3404 128.037 28.6083 128.415 28.9864C128.809 29.3488 129.092 29.8373 129.266 30.4518C129.455 31.0663 129.549 31.8304 129.549 32.7443V40C129.297 40.0315 129.037 40.063 128.769 40.0945C128.501 40.126 128.226 40.1497 127.942 40.1654C127.674 40.197 127.391 40.2127 127.091 40.2127C126.808 40.2285 126.516 40.2363 126.217 40.2363C125.917 40.2521 125.61 40.26 125.295 40.26C124.618 40.26 123.987 40.197 123.404 40.0709C122.821 39.9449 122.301 39.7321 121.844 39.4328C121.403 39.1177 121.057 38.708 120.805 38.2038C120.552 37.6996 120.426 37.0694 120.426 36.3131V34.0205C120.426 33.4218 120.513 32.9018 120.686 32.4607C120.86 32.0195 121.096 31.6571 121.395 31.3735C121.695 31.0899 122.034 30.8772 122.412 30.7354C122.806 30.5936 123.215 30.5227 123.641 30.5227C124.035 30.5227 124.444 30.5857 124.87 30.7117C125.295 30.822 125.689 30.9954 126.051 31.2317C126.43 31.4523 126.729 31.7359 126.949 32.0825ZM126.949 34.0205C126.871 33.9575 126.69 33.863 126.406 33.7369C126.138 33.6109 125.823 33.4927 125.461 33.3824C125.098 33.2564 124.736 33.1933 124.373 33.1933C124.2 33.1933 124.035 33.217 123.877 33.2642C123.719 33.2958 123.578 33.3588 123.452 33.4533C123.341 33.5321 123.247 33.6503 123.168 33.8078C123.105 33.9496 123.073 34.1308 123.073 34.3514V35.8876C123.073 36.187 123.097 36.4549 123.144 36.6912C123.207 36.9275 123.318 37.1324 123.475 37.3057C123.649 37.479 123.893 37.6129 124.208 37.7075C124.539 37.802 124.972 37.8493 125.508 37.8493C125.587 37.8493 125.681 37.8493 125.791 37.8493C125.917 37.8335 126.044 37.8256 126.17 37.8256C126.311 37.8099 126.437 37.802 126.548 37.802C126.674 37.7863 126.768 37.7784 126.831 37.7784C126.91 37.7626 126.949 37.7547 126.949 37.7547V34.0205ZM140.629 40C140.377 40.0315 140.117 40.063 139.849 40.0945C139.597 40.126 139.329 40.1497 139.045 40.1654C138.778 40.197 138.502 40.2127 138.218 40.2127C137.935 40.2285 137.643 40.2363 137.344 40.2363C137.06 40.2521 136.761 40.26 136.446 40.26C135.784 40.26 135.154 40.1812 134.555 40.0236C133.956 39.8818 133.428 39.6534 132.971 39.3382C132.514 39.0231 132.152 38.6213 131.884 38.1329C131.632 37.6287 131.506 37.0221 131.506 36.3131V31.4917C131.506 30.8772 131.609 30.3494 131.813 29.9082C132.018 29.467 132.286 29.1046 132.617 28.821C132.964 28.5216 133.35 28.3011 133.775 28.1592C134.2 28.0174 134.626 27.9465 135.051 27.9465C135.603 27.9465 136.107 27.9938 136.564 28.0883C137.037 28.1829 137.525 28.3404 138.029 28.561V23.456H140.629V40ZM138.029 31.2317C137.887 31.1529 137.619 31.0426 137.226 30.9008C136.832 30.7433 136.359 30.6645 135.808 30.6645C135.618 30.6645 135.429 30.6881 135.24 30.7354C135.051 30.7669 134.87 30.8299 134.697 30.9245C134.539 31.0032 134.405 31.1214 134.295 31.279C134.2 31.4208 134.153 31.602 134.153 31.8226V35.864C134.153 36.1634 134.185 36.4391 134.248 36.6912C134.311 36.9275 134.421 37.1324 134.579 37.3057C134.752 37.4633 134.996 37.5893 135.311 37.6838C135.642 37.7784 136.075 37.8256 136.611 37.8256C136.69 37.8256 136.784 37.8256 136.895 37.8256C137.021 37.8099 137.147 37.802 137.273 37.802C137.415 37.7863 137.541 37.7784 137.651 37.7784C137.761 37.7784 137.848 37.7784 137.911 37.7784C137.99 37.7626 138.029 37.7547 138.029 37.7547V31.2317ZM155.349 31.9171C155.349 31.6807 155.302 31.468 155.207 31.279C155.112 31.0741 154.979 30.9087 154.805 30.7826C154.632 30.6408 154.435 30.5305 154.214 30.4518C153.994 30.373 153.757 30.3336 153.505 30.3336C153.364 30.3336 153.182 30.3572 152.962 30.4045C152.757 30.436 152.528 30.499 152.276 30.5936C152.04 30.6724 151.796 30.7748 151.544 30.9008C151.575 31.0426 151.591 31.1923 151.591 31.3499C151.607 31.5074 151.615 31.6729 151.615 31.8462V40H149.015V31.9171C149.015 31.6807 148.968 31.468 148.873 31.279C148.778 31.0741 148.652 30.9087 148.495 30.7826C148.337 30.6408 148.148 30.5305 147.928 30.4518C147.707 30.373 147.471 30.3336 147.219 30.3336C147.045 30.3336 146.856 30.3572 146.651 30.4045C146.447 30.436 146.234 30.499 146.013 30.5936C145.793 30.6724 145.564 30.7748 145.328 30.9008V40H142.704V28.1592H145.328V28.7265C145.454 28.6477 145.635 28.5531 145.871 28.4429C146.124 28.3168 146.399 28.2065 146.699 28.112C147.014 28.0174 147.337 27.9702 147.668 27.9702C148.046 27.9702 148.416 28.0096 148.778 28.0883C149.141 28.1514 149.488 28.2695 149.818 28.4429C150.165 28.6004 150.464 28.821 150.716 29.1046C151 28.9155 151.299 28.7343 151.615 28.561C151.945 28.3877 152.308 28.2459 152.702 28.1356C153.096 28.0253 153.521 27.9702 153.978 27.9702C154.451 27.9702 154.915 28.0332 155.372 28.1592C155.845 28.2695 156.271 28.4744 156.649 28.7737C157.043 29.0573 157.358 29.4513 157.594 29.9554C157.83 30.4596 157.949 31.0899 157.949 31.8462V40H155.349V31.9171ZM159.971 40V28.1592H162.595V40H159.971ZM161.295 23.2197C161.689 23.2197 162.02 23.3457 162.287 23.5978C162.571 23.8499 162.713 24.1808 162.713 24.5905C162.713 24.9844 162.571 25.3231 162.287 25.6067C162.02 25.8746 161.689 26.0085 161.295 26.0085C160.901 26.0085 160.562 25.8746 160.279 25.6067C160.011 25.3231 159.877 24.9844 159.877 24.5905C159.877 24.1808 160.011 23.8499 160.279 23.5978C160.562 23.3457 160.901 23.2197 161.295 23.2197ZM171.362 30.8772C171.188 30.7826 170.991 30.7039 170.771 30.6408C170.55 30.5621 170.314 30.5069 170.062 30.4754C169.825 30.4281 169.573 30.4045 169.305 30.4045C169.164 30.4045 169.006 30.4124 168.833 30.4281C168.675 30.4439 168.518 30.4833 168.36 30.5463C168.202 30.5936 168.069 30.6724 167.958 30.7826C167.864 30.8772 167.816 31.0111 167.816 31.1844C167.816 31.4208 167.911 31.6256 168.1 31.7989C168.305 31.9722 168.573 32.1298 168.904 32.2716C169.234 32.4134 169.597 32.5631 169.991 32.7207C170.385 32.8625 170.771 33.0358 171.149 33.2406C171.543 33.4454 171.905 33.6897 172.236 33.9733C172.567 34.2569 172.827 34.6114 173.016 35.0368C173.221 35.4465 173.323 35.9428 173.323 36.5258C173.323 37.156 173.205 37.7075 172.969 38.1802C172.732 38.6528 172.409 39.0546 172 39.3855C171.606 39.7006 171.149 39.937 170.629 40.0945C170.125 40.2679 169.597 40.3545 169.045 40.3545C168.179 40.3545 167.352 40.1733 166.564 39.8109C165.776 39.4485 165.106 38.9601 164.555 38.3456L166.091 36.7385C166.343 36.9591 166.611 37.1639 166.895 37.353C167.194 37.5263 167.501 37.6681 167.816 37.7784C168.132 37.8729 168.447 37.9202 168.762 37.9202C168.967 37.9202 169.171 37.8966 169.376 37.8493C169.597 37.802 169.794 37.7232 169.967 37.6129C170.14 37.5026 170.282 37.3608 170.393 37.1875C170.503 37.0142 170.558 36.8094 170.558 36.573C170.558 36.2579 170.456 35.9979 170.251 35.7931C170.062 35.5883 169.802 35.4071 169.471 35.2495C169.156 35.0762 168.801 34.9108 168.407 34.7532C168.029 34.5956 167.643 34.4302 167.249 34.2569C166.871 34.0678 166.517 33.8393 166.186 33.5715C165.871 33.3036 165.611 32.9806 165.406 32.6025C165.217 32.2243 165.122 31.7674 165.122 31.2317C165.122 30.6487 165.232 30.1445 165.453 29.7191C165.674 29.2937 165.973 28.9471 166.351 28.6792C166.745 28.3956 167.178 28.1908 167.651 28.0647C168.124 27.9229 168.604 27.852 169.093 27.852C169.439 27.852 169.794 27.8835 170.156 27.9465C170.534 28.0096 170.897 28.1041 171.243 28.2301C171.59 28.3562 171.897 28.5138 172.165 28.7028L171.362 30.8772ZM181.748 30.8772C181.574 30.7826 181.377 30.7039 181.157 30.6408C180.936 30.5621 180.7 30.5069 180.448 30.4754C180.211 30.4281 179.959 30.4045 179.692 30.4045C179.55 30.4045 179.392 30.4124 179.219 30.4281C179.061 30.4439 178.904 30.4833 178.746 30.5463C178.589 30.5936 178.455 30.6724 178.344 30.7826C178.25 30.8772 178.203 31.0111 178.203 31.1844C178.203 31.4208 178.297 31.6256 178.486 31.7989C178.691 31.9722 178.959 32.1298 179.29 32.2716C179.621 32.4134 179.983 32.5631 180.377 32.7207C180.771 32.8625 181.157 33.0358 181.535 33.2406C181.929 33.4454 182.291 33.6897 182.622 33.9733C182.953 34.2569 183.213 34.6114 183.402 35.0368C183.607 35.4465 183.709 35.9428 183.709 36.5258C183.709 37.156 183.591 37.7075 183.355 38.1802C183.118 38.6528 182.795 39.0546 182.386 39.3855C181.992 39.7006 181.535 39.937 181.015 40.0945C180.511 40.2679 179.983 40.3545 179.432 40.3545C178.565 40.3545 177.738 40.1733 176.95 39.8109C176.162 39.4485 175.492 38.9601 174.941 38.3456L176.477 36.7385C176.729 36.9591 176.997 37.1639 177.281 37.353C177.58 37.5263 177.887 37.6681 178.203 37.7784C178.518 37.8729 178.833 37.9202 179.148 37.9202C179.353 37.9202 179.558 37.8966 179.762 37.8493C179.983 37.802 180.18 37.7232 180.353 37.6129C180.527 37.5026 180.668 37.3608 180.779 37.1875C180.889 37.0142 180.944 36.8094 180.944 36.573C180.944 36.2579 180.842 35.9979 180.637 35.7931C180.448 35.5883 180.188 35.4071 179.857 35.2495C179.542 35.0762 179.187 34.9108 178.793 34.7532C178.415 34.5956 178.029 34.4302 177.635 34.2569C177.257 34.0678 176.903 33.8393 176.572 33.5715C176.257 33.3036 175.997 32.9806 175.792 32.6025C175.603 32.2243 175.508 31.7674 175.508 31.2317C175.508 30.6487 175.619 30.1445 175.839 29.7191C176.06 29.2937 176.359 28.9471 176.737 28.6792C177.131 28.3956 177.564 28.1908 178.037 28.0647C178.51 27.9229 178.99 27.852 179.479 27.852C179.825 27.852 180.18 27.8835 180.542 27.9465C180.92 28.0096 181.283 28.1041 181.63 28.2301C181.976 28.3562 182.283 28.5138 182.551 28.7028L181.748 30.8772ZM185.637 40V28.1592H188.26V40H185.637ZM186.96 23.2197C187.354 23.2197 187.685 23.3457 187.953 23.5978C188.236 23.8499 188.378 24.1808 188.378 24.5905C188.378 24.9844 188.236 25.3231 187.953 25.6067C187.685 25.8746 187.354 26.0085 186.96 26.0085C186.566 26.0085 186.227 25.8746 185.944 25.6067C185.676 25.3231 185.542 24.9844 185.542 24.5905C185.542 24.1808 185.676 23.8499 185.944 23.5978C186.227 23.3457 186.566 23.2197 186.96 23.2197ZM193.036 28.561C193.367 28.4192 193.69 28.3011 194.005 28.2065C194.32 28.112 194.635 28.049 194.95 28.0174C195.281 27.9702 195.628 27.9465 195.99 27.9465C196.431 27.9465 196.857 28.0174 197.267 28.1592C197.692 28.3011 198.07 28.5216 198.401 28.821C198.748 29.1046 199.015 29.4749 199.205 29.9318C199.409 30.373 199.512 30.8929 199.512 31.4917V36.3131C199.512 37.0851 199.378 37.7311 199.11 38.2511C198.858 38.7553 198.503 39.157 198.046 39.4564C197.605 39.74 197.085 39.9449 196.487 40.0709C195.904 40.197 195.273 40.26 194.596 40.26C194.312 40.26 194.029 40.2521 193.745 40.2363C193.477 40.2206 193.201 40.2048 192.918 40.1891C192.65 40.1733 192.374 40.1497 192.091 40.1182C191.823 40.1024 191.547 40.0788 191.263 40.0473C190.98 40.0315 190.696 40.0158 190.413 40V23.456H193.036V28.561ZM193.036 37.7547C193.036 37.7547 193.091 37.7626 193.201 37.7784C193.312 37.7784 193.438 37.7863 193.58 37.802C193.737 37.802 193.895 37.8099 194.052 37.8256C194.21 37.8256 194.336 37.8256 194.43 37.8256C194.982 37.8256 195.423 37.7784 195.754 37.6838C196.085 37.5893 196.329 37.4633 196.487 37.3057C196.66 37.1324 196.77 36.9275 196.817 36.6912C196.88 36.4391 196.912 36.1634 196.912 35.864V31.8226C196.912 31.602 196.857 31.4208 196.747 31.279C196.652 31.1214 196.518 31.0032 196.345 30.9245C196.187 30.8299 196.014 30.7669 195.825 30.7354C195.636 30.6881 195.455 30.6645 195.281 30.6645C194.919 30.6645 194.58 30.7039 194.265 30.7826C193.95 30.8457 193.682 30.9245 193.461 31.019C193.257 31.0978 193.115 31.1687 193.036 31.2317V37.7547ZM201.493 40V28.1592H204.116V40H201.493ZM202.816 23.2197C203.21 23.2197 203.541 23.3457 203.809 23.5978C204.093 23.8499 204.234 24.1808 204.234 24.5905C204.234 24.9844 204.093 25.3231 203.809 25.6067C203.541 25.8746 203.21 26.0085 202.816 26.0085C202.422 26.0085 202.084 25.8746 201.8 25.6067C201.532 25.3231 201.398 24.9844 201.398 24.5905C201.398 24.1808 201.532 23.8499 201.8 23.5978C202.084 23.3457 202.422 23.2197 202.816 23.2197ZM206.269 40V23.456H208.892V40H206.269ZM211.048 40V28.1592H213.671V40H211.048ZM212.372 23.2197C212.765 23.2197 213.096 23.3457 213.364 23.5978C213.648 23.8499 213.79 24.1808 213.79 24.5905C213.79 24.9844 213.648 25.3231 213.364 25.6067C213.096 25.8746 212.765 26.0085 212.372 26.0085C211.978 26.0085 211.639 25.8746 211.355 25.6067C211.087 25.3231 210.954 24.9844 210.954 24.5905C210.954 24.1808 211.087 23.8499 211.355 23.5978C211.639 23.3457 211.978 23.2197 212.372 23.2197ZM218.494 36.8803C218.494 37.2269 218.564 37.5026 218.706 37.7075C218.848 37.8966 219.045 38.0305 219.297 38.1093C219.565 38.188 219.88 38.2274 220.243 38.2274L219.463 40.3072C218.265 40.2757 217.359 39.9764 216.745 39.4091C216.146 38.8262 215.847 37.9832 215.847 36.8803V23.456H218.494V28.1829H220.762L220.219 30.5699H218.494V36.8803ZM232.556 29.7427C232.099 29.8373 231.792 30.0421 231.634 30.3572C231.492 30.6566 231.421 31.0111 231.421 31.4208V41.3944C231.421 42.1507 231.28 42.7967 230.996 43.3324C230.728 43.8839 230.326 44.3093 229.791 44.6087C229.255 44.908 228.609 45.0577 227.853 45.0577L227.167 42.9543C227.404 42.9543 227.624 42.8991 227.829 42.7888C228.034 42.6943 228.207 42.5604 228.349 42.3871C228.506 42.2137 228.625 42.0168 228.703 41.7962C228.782 41.5914 228.822 41.3708 228.822 41.1344V39.3382C228.727 39.4485 228.554 39.5667 228.302 39.6928C228.05 39.8188 227.758 39.9212 227.427 40C227.112 40.0945 226.789 40.1418 226.458 40.1418C225.985 40.1418 225.521 40.0788 225.064 39.9527C224.623 39.8267 224.213 39.6219 223.835 39.3382C223.472 39.0389 223.181 38.6371 222.96 38.1329C222.755 37.6287 222.653 36.9985 222.653 36.2422V28.112H225.3V36.1713C225.3 36.3918 225.339 36.6045 225.418 36.8094C225.497 36.9985 225.607 37.1639 225.749 37.3057C225.891 37.4475 226.064 37.5578 226.269 37.6366C226.474 37.7154 226.694 37.7547 226.931 37.7547C227.199 37.7547 227.443 37.7075 227.663 37.6129C227.9 37.5026 228.105 37.3608 228.278 37.1875C228.451 37.0142 228.585 36.8094 228.68 36.573C228.774 36.3367 228.822 36.0846 228.822 35.8167V30.7117C228.822 30.2706 228.916 29.8373 229.105 29.4119C229.294 28.9707 229.601 28.6083 230.027 28.3247C230.452 28.0411 231.02 27.8993 231.729 27.8993L232.556 29.7427Z" fill="black"/>
<path d="M432.557 31.5303C432.85 31.2374 432.85 30.7626 432.557 30.4697L427.784 25.6967C427.491 25.4038 427.016 25.4038 426.723 25.6967C426.431 25.9896 426.431 26.4645 426.723 26.7574L430.966 31L426.723 35.2426C426.431 35.5355 426.431 36.0104 426.723 36.3033C427.016 36.5962 427.491 36.5962 427.784 36.3033L432.557 31.5303ZM431.008 31V31.75H432.027V31V30.25H431.008V31Z" fill="black"/>
<path d="M69.4079 18.5333C68.2871 18.5333 67.1915 18.8657 66.2596 19.4883C65.3278 20.111 64.6015 20.996 64.1726 22.0315C63.7437 23.0669 63.6314 24.2063 63.8501 25.3055C64.0687 26.4047 64.6084 27.4144 65.4009 28.2069C66.1934 28.9994 67.2031 29.5391 68.3024 29.7578C69.4016 29.9764 70.541 29.8642 71.5764 29.4353C72.6119 29.0064 73.4969 28.2801 74.1195 27.3482C74.7422 26.4163 75.0745 25.3208 75.0745 24.2C75.0729 22.6976 74.4753 21.2572 73.413 20.1949C72.3506 19.1325 70.9103 18.535 69.4079 18.5333ZM72.3987 20.8C72.1028 21.0615 71.773 21.2822 71.4184 21.4562C71.3219 20.94 71.173 20.4349 70.9741 19.9489C71.4974 20.1423 71.9804 20.4309 72.3987 20.8ZM69.4079 19.6667C69.6079 19.6667 70.0669 20.4033 70.3355 21.8245C69.7237 21.9526 69.092 21.9526 68.4802 21.8245C68.7488 20.4033 69.2078 19.6667 69.4079 19.6667ZM64.8745 24.2C64.8744 23.2898 65.1496 22.4009 65.6639 21.65C66.1266 22.0552 66.6534 22.3808 67.2228 22.6133C67.114 23.667 67.114 24.729 67.2228 25.7827C66.6533 26.0165 66.1267 26.3434 65.6645 26.75C65.1497 25.9992 64.8744 25.1103 64.8745 24.2ZM66.417 27.6C66.713 27.3384 67.0427 27.1177 67.3973 26.9438C67.4939 27.46 67.6427 27.9651 67.8416 28.4511C67.3183 28.2576 66.8354 27.9691 66.417 27.6ZM67.3968 21.4613C67.042 21.2858 66.7124 21.0634 66.417 20.8C66.8355 20.4313 67.3184 20.1431 67.8416 19.95C67.6427 20.4367 67.4936 20.9423 67.3968 21.459V21.4613ZM69.4079 28.7333C69.2078 28.7333 68.7488 27.9967 68.4802 26.5755C69.092 26.4474 69.7237 26.4474 70.3355 26.5755C70.0669 27.9967 69.6079 28.7333 69.4079 28.7333ZM70.4845 25.4421C69.7718 25.305 69.0394 25.305 68.3267 25.4421C68.2932 25.0591 68.27 24.6488 68.27 24.2C68.27 23.7512 68.291 23.3415 68.3267 22.959C69.0388 23.1025 69.7724 23.1025 70.4845 22.959C70.518 23.3415 70.5412 23.7523 70.5412 24.2C70.5412 24.6477 70.5202 25.0591 70.4845 25.4421ZM70.9719 28.4489C71.1708 27.9626 71.3198 27.4573 71.4167 26.941C71.7722 27.1156 72.1025 27.3372 72.3987 27.6C71.9803 27.9687 71.4973 28.2568 70.9741 28.45L70.9719 28.4489ZM73.1518 26.75C72.6891 26.3448 72.1623 26.0192 71.5929 25.7867C71.7017 24.733 71.7017 23.6709 71.5929 22.6173C72.1624 22.3835 72.689 22.0566 73.1513 21.65C73.6657 22.4017 73.9409 23.2914 73.9409 24.2023C73.9409 25.1131 73.6657 26.0028 73.1513 26.7545L73.1518 26.75Z" fill="#FF0000"/>
<path d="M82.4411 14H56.3745C56.2242 14 56.0801 14.0597 55.9738 14.166C55.8675 14.2722 55.8078 14.4164 55.8078 14.5667V17.4C54.9279 17.3968 54.0718 17.6851 53.3731 18.2199C52.6744 18.7547 52.1726 19.5059 51.946 20.3562C51.7194 21.2064 51.7809 22.1077 52.1208 22.9193C52.4606 23.7309 53.0598 24.407 53.8246 24.8421C54.5894 25.2771 55.4768 25.4465 56.3481 25.3239C57.2194 25.2013 58.0255 24.7935 58.6405 24.1642C59.2555 23.5349 59.6447 22.7197 59.7474 21.8458C59.85 20.9719 59.6603 20.0887 59.2078 19.334V17.4H79.6078V44.6H60.9078V42.9H77.9078V41.7667H60.9078V38.3667H77.9078V37.2333H60.9078V36.6667H62.0411C62.1914 36.6667 62.3356 36.607 62.4418 36.5007C62.5481 36.3944 62.6078 36.2503 62.6078 36.1V29.3C62.6069 28.5488 62.3081 27.8287 61.777 27.2975C61.2458 26.7664 60.5257 26.4676 59.7745 26.4667H51.8411C51.09 26.4676 50.3698 26.7664 49.8387 27.2975C49.3075 27.8287 49.0087 28.5488 49.0078 29.3V36.1C49.0078 36.2503 49.0675 36.3944 49.1738 36.5007C49.2801 36.607 49.4242 36.6667 49.5745 36.6667H50.7078V47.4333C50.7078 47.5836 50.7675 47.7278 50.8738 47.834C50.9801 47.9403 51.1242 48 51.2745 48H82.4411C82.5914 48 82.7356 47.9403 82.8418 47.834C82.9481 47.7278 83.0078 47.5836 83.0078 47.4333V14.5667C83.0078 14.4164 82.9481 14.2722 82.8418 14.166C82.7356 14.0597 82.5914 14 82.4411 14ZM55.8078 24.2C55.2474 24.2 54.6996 24.0338 54.2337 23.7225C53.7678 23.4112 53.4046 22.9687 53.1902 22.4509C52.9757 21.9332 52.9196 21.3635 53.0289 20.8139C53.1382 20.2643 53.4081 19.7594 53.8043 19.3632C54.2006 18.9669 54.7054 18.6971 55.2551 18.5878C55.8047 18.4784 56.3744 18.5346 56.8921 18.749C57.4098 18.9635 57.8523 19.3266 58.1636 19.7926C58.475 20.2585 58.6411 20.8063 58.6411 21.3667C58.6402 22.1178 58.3414 22.838 57.8103 23.3691C57.2791 23.9003 56.559 24.1991 55.8078 24.2ZM55.7579 27.6H55.8577L56.3643 33.1046L55.8078 34.5366L55.2513 33.1046L55.7579 27.6ZM59.7745 36.1V46.8667H51.8411V36.1C51.8411 35.9497 51.7814 35.8056 51.6752 35.6993C51.5689 35.593 51.4248 35.5333 51.2745 35.5333H50.1411V29.3C50.1411 28.8491 50.3203 28.4167 50.6391 28.0979C50.9579 27.7791 51.3903 27.6 51.8411 27.6H54.6178L54.1078 33.1335C54.0998 33.2209 54.1122 33.309 54.1441 33.3908L55.2774 36.3051C55.3188 36.4115 55.3914 36.503 55.4856 36.5674C55.5798 36.6319 55.6914 36.6664 55.8055 36.6664C55.9197 36.6664 56.0312 36.6319 56.1255 36.5674C56.2197 36.503 56.2923 36.4115 56.3337 36.3051L57.467 33.3908C57.5004 33.3093 57.5144 33.2213 57.5078 33.1335L56.9978 27.6H59.7745C60.2253 27.6 60.6577 27.7791 60.9766 28.0979C61.2954 28.4167 61.4745 28.8491 61.4745 29.3V35.5333H60.3411C60.1909 35.5333 60.0467 35.593 59.9405 35.6993C59.8342 35.8056 59.7745 35.9497 59.7745 36.1ZM81.8745 46.8667H60.9078V45.7333H80.1745C80.3248 45.7333 80.4689 45.6736 80.5752 45.5674C80.6814 45.4611 80.7411 45.317 80.7411 45.1667V16.8333C80.7411 16.683 80.6814 16.5389 80.5752 16.4326C80.4689 16.3264 80.3248 16.2667 80.1745 16.2667H58.6411C58.4909 16.2667 58.3467 16.3264 58.2405 16.4326C58.1342 16.5389 58.0745 16.683 58.0745 16.8333V18.1163C57.7284 17.8747 57.3457 17.6902 56.9411 17.57V15.1333H81.8745V46.8667Z" fill="#FF0000"/>
<path d="M77.908 32.7H66.5747V33.8333H77.908V32.7Z" fill="#FF0000"/>
<defs>
<filter id="filter0_d_154_185" x="-7.53403e-05" y="0" width="497.016" height="103.564" filterUnits="userSpaceOnUse" color-interpolation-filters="sRGB">
<feFlood flood-opacity="0" result="BackgroundImageFix"/>
<feColorMatrix in="SourceAlpha" type="matrix" values="0 0 0 0 0 0 0 0 0 0 0 0 0 0 0 0 0 0 127 0" result="hardAlpha"/>
<feMorphology radius="14.7337" operator="erode" in="SourceAlpha" result="effect1_dropShadow_154_185"/>
<feOffset dy="24.5562"/>
<feGaussianBlur stdDeviation="16.3708"/>
<feColorMatrix type="matrix" values="0 0 0 0 0.583333 0 0 0 0 0.583333 0 0 0 0 0.583333 0 0 0 0.25 0"/>
<feBlend mode="normal" in2="BackgroundImageFix" result="effect1_dropShadow_154_185"/>
<feBlend mode="normal" in="SourceGraphic" in2="effect1_dropShadow_154_185" result="shape"/>
</filter>
</defs>
</svg>
