<svg width="18" height="11" viewBox="0 0 18 11" fill="none" xmlns="http://www.w3.org/2000/svg">
<path d="M15.9472 0H1.31596C0.967178 0.000747667 0.632891 0.139632 0.386262 0.386262C0.139632 0.632891 0.000747667 0.967178 0 1.31596V3.21208C0 3.3622 0.0596321 3.50616 0.165779 3.61231C0.271925 3.71846 0.415892 3.77809 0.566006 3.77809C0.71612 3.77809 0.860086 3.71846 0.966233 3.61231C1.07238 3.50616 1.13201 3.3622 1.13201 3.21208V1.31596C1.13274 1.2674 1.15236 1.22104 1.1867 1.1867C1.22104 1.15236 1.2674 1.13274 1.31596 1.13201H15.9472C15.9958 1.13274 16.0421 1.15236 16.0765 1.1867C16.1108 1.22104 16.1304 1.2674 16.1312 1.31596V8.82969C16.1312 8.9798 16.1908 9.12377 16.2969 9.22991C16.4031 9.33606 16.5471 9.39569 16.6972 9.39569C16.8473 9.39569 16.9912 9.33606 17.0974 9.22991C17.2035 9.12377 17.2632 8.9798 17.2632 8.82969V1.31596C17.2624 0.967178 17.1235 0.632891 16.8769 0.386262C16.6303 0.139632 16.296 0.000747667 15.9472 0ZM14.1162 9.01364H1.31596C1.29181 9.01364 1.26789 9.00888 1.24557 8.99964C1.22325 8.99039 1.20297 8.97684 1.18589 8.95976C1.16881 8.94268 1.15526 8.9224 1.14601 8.90008C1.13677 8.87777 1.13201 8.85384 1.13201 8.82969V5.71666C1.13201 5.56654 1.07238 5.42258 0.966233 5.31643C0.860086 5.21028 0.71612 5.15065 0.566006 5.15065C0.415892 5.15065 0.271925 5.21028 0.165779 5.31643C0.0596321 5.42258 0 5.56654 0 5.71666V8.82969C0.000747667 9.17847 0.139632 9.51276 0.386262 9.75939C0.632891 10.006 0.967178 10.1449 1.31596 10.1457H14.1162C14.2663 10.1457 14.4103 10.086 14.5164 9.97987C14.6226 9.87373 14.6822 9.72976 14.6822 9.57965C14.6822 9.42953 14.6226 9.28557 14.5164 9.17942C14.4103 9.07327 14.2663 9.01364 14.1162 9.01364Z" fill="#FF0000"/>
</svg>
