<svg width="24" height="35" viewBox="0 0 24 35" fill="none" xmlns="http://www.w3.org/2000/svg">
<path d="M8.0456 9.69988H7.29567V8.72722C8.11056 8.28873 8.69069 7.47008 8.79916 6.51019C9.45752 5.78695 9.82204 4.86227 9.82204 3.88646C9.82204 1.74347 8.07857 0 5.93558 0C3.78854 0 2.04192 1.74347 2.04192 3.88646C2.04192 4.86304 2.407 5.78828 3.06627 6.5118C3.17537 7.47182 3.75627 8.29034 4.57178 8.72827V9.69981H3.81829C1.71281 9.69981 0 11.4126 0 13.5181V21.0686C0 21.4862 0.163508 21.8796 0.458184 22.1743C0.749089 22.4702 1.14211 22.6332 1.56453 22.6332C1.91585 22.6332 2.237 22.5126 2.49843 22.3162L3.25597 33.0664C3.32728 33.8552 3.97845 34.4501 4.77063 34.4501C5.23601 34.4501 5.6534 34.2398 5.93258 33.9095C6.21168 34.2398 6.62907 34.4501 7.09452 34.4501C7.8867 34.4501 8.53787 33.8553 8.60967 33.0594L9.36651 22.3187C9.63255 22.5195 9.95433 22.6332 10.2992 22.6332C11.162 22.6332 11.8639 21.9312 11.8639 21.0686V13.5182C11.864 11.4127 10.1512 9.69988 8.0456 9.69988ZM5.93558 0.717729C7.68289 0.717729 9.10431 2.13915 9.10431 3.88646C9.10431 4.34639 9.00576 4.79284 8.81886 5.2022V5.0167C8.81886 4.29569 8.38617 3.67644 7.76832 3.39699C7.75553 3.39119 7.74443 3.38246 7.73144 3.37694C7.7042 3.36535 7.67381 3.36046 7.64588 3.35026C7.56479 3.32058 7.4837 3.29068 7.39765 3.27308C7.28555 3.25003 7.16939 3.23872 7.0508 3.23795C7.04737 3.23795 7.04423 3.23697 7.04088 3.23697C7.04032 3.23697 7.03976 3.23676 7.03913 3.23676H4.82602C3.84456 3.23676 3.0463 4.03523 3.0463 5.0167V5.20521C2.85855 4.79522 2.75965 4.34751 2.75965 3.88646C2.75965 2.13915 4.18442 0.717729 5.93558 0.717729ZM3.77206 6.34264C3.77164 6.33649 3.77352 6.33062 3.77283 6.32434C3.76724 6.27719 3.76444 6.23005 3.76444 6.18311V5.01684C3.76444 4.43105 4.24086 3.95463 4.82665 3.95463H7.04095C7.0429 3.95463 7.04479 3.95519 7.04675 3.95519C7.11743 3.95561 7.18658 3.96245 7.25335 3.97614C7.30245 3.98627 7.34855 4.00359 7.39492 4.02022C7.41378 4.02699 7.43418 4.03041 7.45248 4.03817C7.45806 4.04054 7.46281 4.04438 7.46833 4.04683C7.83928 4.21208 8.09945 4.58394 8.09945 5.01684V6.18311C8.09945 6.23005 8.0968 6.27719 8.09121 6.32434C8.08995 6.33516 8.09275 6.34536 8.09247 6.35612C8.02814 7.16974 7.51415 7.85814 6.79838 8.17125C6.79628 8.17216 6.79398 8.17223 6.79195 8.17321C6.66476 8.22929 6.53275 8.2712 6.39844 8.30109C6.38943 8.30312 6.38084 8.30612 6.37176 8.30801C6.34878 8.31283 6.32531 8.31485 6.30213 8.3189C6.18178 8.33972 6.05886 8.35278 5.93265 8.35278C5.85798 8.35278 5.78415 8.34894 5.71145 8.34153C5.70656 8.34098 5.70167 8.33986 5.69671 8.3393C5.62938 8.33197 5.56282 8.32219 5.49751 8.30878C5.42669 8.29425 5.35628 8.27609 5.28658 8.25437C5.26018 8.24613 5.23503 8.23516 5.20912 8.22594C5.16756 8.21127 5.12594 8.19724 5.08501 8.17991C4.35561 7.86903 3.83226 7.16911 3.77206 6.34264ZM5.48061 9.03146C5.53152 9.03957 5.58209 9.04948 5.63336 9.05486C5.66521 9.05815 5.69797 9.05801 5.73009 9.06024C5.86504 9.06974 5.99991 9.06967 6.13436 9.06031C6.16739 9.05801 6.20099 9.05807 6.23368 9.05465C6.28501 9.04927 6.33537 9.0395 6.38622 9.03132C6.43881 9.02301 6.49148 9.0154 6.54309 9.00422C6.55462 9.00171 6.56649 9.00087 6.57801 8.99822V10.0194C6.57801 10.1943 6.5118 10.3557 6.38615 10.4789C6.26825 10.5993 6.10684 10.6655 5.93195 10.6655C5.57783 10.6655 5.28958 10.3757 5.28958 10.0194V8.99913C5.30181 9.00192 5.31445 9.00276 5.32667 9.00541C5.37724 9.01617 5.42906 9.02329 5.48061 9.03146ZM7.89425 33.0019C7.8566 33.4184 7.51275 33.7324 7.09452 33.7324C6.6517 33.7324 6.29144 33.3721 6.29144 32.9293V23.7681C6.29144 23.5699 6.13073 23.4092 5.93258 23.4092C5.73443 23.4092 5.57371 23.5699 5.57371 23.7681V32.9293C5.57371 33.3721 5.21345 33.7324 4.77063 33.7324C4.3524 33.7324 4.00855 33.4184 3.97146 33.0089L3.15567 21.4318H8.70962L7.89425 33.0019ZM11.1462 21.0686C11.1462 21.5356 10.7662 21.9155 10.2992 21.9155C10.0709 21.9155 9.85976 21.8288 9.70261 21.6688C9.5412 21.5076 9.45235 21.2945 9.45235 21.0687V13.6116C9.45235 13.4134 9.29164 13.2527 9.09349 13.2527C8.89534 13.2527 8.73462 13.4134 8.73462 13.6116V20.7141H3.1292V13.6116C3.1292 13.4134 2.96849 13.2527 2.77034 13.2527C2.57219 13.2527 2.41147 13.4134 2.41147 13.6116V21.0686C2.41147 21.5356 2.03159 21.9155 1.5646 21.9155C1.33614 21.9155 1.125 21.8288 0.967774 21.669C0.806572 21.5078 0.717729 21.2945 0.717729 21.0686V13.5182C0.717729 11.8085 2.1087 10.4176 3.81829 10.4176H4.63786C4.80905 10.9746 5.32101 11.3831 5.93188 11.3831C6.30122 11.3831 6.64472 11.2402 6.89351 10.9862C7.05576 10.8273 7.16618 10.631 7.23072 10.4176H8.0456C9.75527 10.4176 11.1462 11.8086 11.1462 13.5182L11.1462 21.0686ZM21.5735 17.9494H21.3217V11.6759H21.3907C22.1149 11.6759 22.704 11.0868 22.704 10.3626C22.704 9.63835 22.1149 9.04927 21.3907 9.04927H15.0263C14.3021 9.04927 13.713 9.63835 13.713 10.3626C13.713 11.0868 14.3021 11.6759 15.0263 11.6759H15.0953V17.9494H14.8436C13.6783 17.9494 12.7303 18.8974 12.7303 20.0627V32.0953V33.2078C12.7303 33.8928 13.2877 34.4501 13.9727 34.4501C14.6576 34.4501 15.215 33.8928 15.215 33.2078V32.4542H21.2019V33.2078C21.2019 33.8928 21.7593 34.4501 22.4442 34.4501C23.1292 34.4501 23.6866 33.8928 23.6866 33.2078V32.0953V20.0627C23.6867 18.8974 22.7387 17.9494 21.5735 17.9494ZM14.4308 10.3626C14.4308 10.0342 14.6981 9.767 15.0264 9.767H21.3908C21.7191 9.767 21.9863 10.0342 21.9863 10.3626C21.9863 10.6909 21.7191 10.9581 21.3908 10.9581H20.9629H15.4544H15.0265C14.698 10.9581 14.4308 10.6909 14.4308 10.3626ZM15.8131 11.6759H20.604V17.9494H15.8131V11.6759ZM13.4481 20.0627C13.4481 19.2933 14.0742 18.6672 14.8436 18.6672H15.4543H20.9628H21.5735C22.3429 18.6672 22.969 19.2933 22.969 20.0627V31.7364H21.5609H14.8563H13.4482L13.4481 20.0627ZM14.4974 33.2078C14.4974 33.4971 14.2621 33.7324 13.9728 33.7324C13.6835 33.7324 13.4482 33.4971 13.4482 33.2078V32.4542H14.4974V33.2078ZM22.969 33.2078C22.969 33.4971 22.7337 33.7324 22.4444 33.7324C22.1551 33.7324 21.9198 33.4971 21.9198 33.2078V32.4542H22.969V33.2078Z" fill="#FF0000"/>
</svg>
