<svg width="372" height="107" viewBox="0 0 372 107" fill="none" xmlns="http://www.w3.org/2000/svg">
<rect width="372" height="52" rx="26" fill="#851114"/>
<rect x="0.5" y="0.5" width="371" height="51" rx="25.5" stroke="white" stroke-opacity="0.2"/>
<path fill-rule="evenodd" clip-rule="evenodd" d="M27.5 20C24.189 20 21.5 22.689 21.5 26C21.5 29.311 24.189 32 27.5 32C30.811 32 33.5 29.311 33.5 26C33.5 22.689 30.811 20 27.5 20ZM27.5 22C29.708 22 31.5 23.792 31.5 26C31.5 28.208 29.708 30 27.5 30C25.292 30 23.5 28.208 23.5 26C23.5 23.792 25.292 22 27.5 22Z" fill="white"/>
<path fill-rule="evenodd" clip-rule="evenodd" d="M35.25 31L35.343 30.999C36.304 30.975 37.22 30.583 37.902 29.902C38.605 29.198 39 28.245 39 27.25V25C39 19.52 34.592 15.07 29.129 15.001L29 15H28C21.929 15 17 19.929 17 26C17 32.071 21.929 37 28 37C28.552 37 29 36.552 29 36C29 35.448 28.552 35 28 35C23.033 35 19 30.967 19 26C19 21.033 23.033 17 28 17H29C33.418 17 37 20.582 37 25V27.25C37 27.714 36.816 28.159 36.487 28.487C36.159 28.816 35.714 29 35.25 29M35.25 29C34.786 29 34.341 28.816 34.013 28.487C33.684 28.159 33.5 27.714 33.5 27.25V22C33.5 21.465 33.08 21.028 32.551 21.001L32.5 21C31.948 21 31.5 21.448 31.5 22C31.5 22 31.5 24.935 31.5 27.25C31.5 28.245 31.895 29.198 32.598 29.902C33.302 30.605 34.255 31 35.25 31" fill="white"/>
<path d="M45.162 32V21.57H51.952V22.83H46.534V26.134H51.672V27.394H46.534V30.74H51.952V32H45.162ZM53.4982 32V24.454H54.7722V25.924L54.5622 25.798C54.7489 25.322 55.0476 24.9533 55.4582 24.692C55.8782 24.4213 56.3682 24.286 56.9282 24.286C57.4696 24.286 57.9502 24.4073 58.3702 24.65C58.7996 24.8927 59.1356 25.2287 59.3782 25.658C59.6302 26.0873 59.7562 26.5727 59.7562 27.114V32H58.4402V27.534C58.4402 27.114 58.3656 26.7593 58.2162 26.47C58.0669 26.1807 57.8522 25.9567 57.5722 25.798C57.3016 25.63 56.9889 25.546 56.6342 25.546C56.2796 25.546 55.9622 25.63 55.6822 25.798C55.4116 25.9567 55.1969 26.1853 55.0382 26.484C54.8796 26.7733 54.8002 27.1233 54.8002 27.534V32H53.4982ZM64.6853 32.084C63.948 32.084 63.3787 31.874 62.9773 31.454C62.5853 31.034 62.3893 30.4413 62.3893 29.676V25.7H61.0173V24.454H61.2973C61.6333 24.454 61.8993 24.3513 62.0953 24.146C62.2913 23.9407 62.3893 23.67 62.3893 23.334V22.718H63.6913V24.454H65.3853V25.7H63.6913V29.634C63.6913 29.886 63.7287 30.1053 63.8033 30.292C63.8873 30.4787 64.0227 30.628 64.2093 30.74C64.396 30.8427 64.6433 30.894 64.9513 30.894C65.0167 30.894 65.096 30.8893 65.1893 30.88C65.292 30.8707 65.3853 30.8613 65.4693 30.852V32C65.348 32.028 65.2127 32.0467 65.0633 32.056C64.914 32.0747 64.788 32.084 64.6853 32.084ZM70.437 32.168C69.709 32.168 69.0604 31.9953 68.491 31.65C67.9217 31.3047 67.4737 30.8333 67.147 30.236C66.8204 29.6293 66.657 28.9527 66.657 28.206C66.657 27.45 66.8157 26.778 67.133 26.19C67.4597 25.602 67.8984 25.14 68.449 24.804C69.009 24.4587 69.6344 24.286 70.325 24.286C70.885 24.286 71.3797 24.3887 71.809 24.594C72.2477 24.79 72.6164 25.0607 72.915 25.406C73.223 25.742 73.4564 26.1293 73.615 26.568C73.783 26.9973 73.867 27.4453 73.867 27.912C73.867 28.0147 73.8577 28.1313 73.839 28.262C73.8297 28.3833 73.8157 28.5 73.797 28.612H67.609V27.492H73.041L72.425 27.996C72.509 27.5107 72.4624 27.0767 72.285 26.694C72.1077 26.3113 71.8464 26.008 71.501 25.784C71.1557 25.56 70.7637 25.448 70.325 25.448C69.8864 25.448 69.485 25.56 69.121 25.784C68.757 26.008 68.4724 26.33 68.267 26.75C68.071 27.1607 67.9917 27.6507 68.029 28.22C67.9917 28.7707 68.0757 29.256 68.281 29.676C68.4957 30.0867 68.7944 30.4087 69.177 30.642C69.569 30.866 69.9937 30.978 70.451 30.978C70.955 30.978 71.3797 30.8613 71.725 30.628C72.0704 30.3947 72.3504 30.096 72.565 29.732L73.657 30.292C73.5077 30.6373 73.2744 30.9547 72.957 31.244C72.649 31.524 72.2804 31.748 71.851 31.916C71.431 32.084 70.9597 32.168 70.437 32.168ZM75.5646 32V24.454H76.8386V25.84L76.6986 25.644C76.876 25.2147 77.1466 24.8973 77.5106 24.692C77.8746 24.4773 78.318 24.37 78.8406 24.37H79.3026V25.602H78.6446C78.1126 25.602 77.6833 25.77 77.3566 26.106C77.03 26.4327 76.8666 26.8993 76.8666 27.506V32H75.5646ZM83.2851 35.08C83.1171 35.08 82.9491 35.066 82.7811 35.038C82.6131 35.01 82.4544 34.9633 82.3051 34.898V33.736C82.4078 33.7547 82.5338 33.7733 82.6831 33.792C82.8418 33.82 82.9958 33.834 83.1451 33.834C83.5838 33.834 83.9151 33.736 84.1391 33.54C84.3724 33.3533 84.5918 33.0267 84.7971 32.56L85.2731 31.426L85.2451 32.56L82.0251 24.454H83.4391L85.9451 30.894H85.5251L88.0171 24.454H89.4591L86.0571 32.896C85.8984 33.2973 85.6931 33.6613 85.4411 33.988C85.1984 34.324 84.8998 34.59 84.5451 34.786C84.1904 34.982 83.7704 35.08 83.2851 35.08ZM94.0647 32.168C93.3367 32.168 92.6787 32 92.0907 31.664C91.5027 31.3187 91.036 30.8473 90.6907 30.25C90.3453 29.6527 90.1727 28.976 90.1727 28.22C90.1727 27.464 90.3407 26.792 90.6767 26.204C91.022 25.616 91.4887 25.1493 92.0767 24.804C92.6647 24.4587 93.3273 24.286 94.0647 24.286C94.7927 24.286 95.4507 24.4587 96.0387 24.804C96.6267 25.14 97.0887 25.602 97.4247 26.19C97.77 26.778 97.9427 27.4547 97.9427 28.22C97.9427 28.9853 97.7653 29.6667 97.4107 30.264C97.056 30.852 96.5847 31.3187 95.9967 31.664C95.418 32 94.774 32.168 94.0647 32.168ZM94.0647 30.908C94.5313 30.908 94.9513 30.7913 95.3247 30.558C95.7073 30.3247 96.006 30.0027 96.2207 29.592C96.4447 29.1813 96.5567 28.724 96.5567 28.22C96.5567 27.7067 96.4447 27.254 96.2207 26.862C96.006 26.4607 95.7073 26.1433 95.3247 25.91C94.9513 25.6673 94.5313 25.546 94.0647 25.546C93.5887 25.546 93.1593 25.6673 92.7767 25.91C92.4033 26.1433 92.1047 26.4607 91.8807 26.862C91.6567 27.254 91.5447 27.7067 91.5447 28.22C91.5447 28.724 91.6567 29.1813 91.8807 29.592C92.1047 30.0027 92.4033 30.3247 92.7767 30.558C93.1593 30.7913 93.5887 30.908 94.0647 30.908ZM102.315 32.168C101.773 32.168 101.283 32.042 100.845 31.79C100.415 31.538 100.079 31.188 99.8368 30.74C99.6035 30.2827 99.4868 29.76 99.4868 29.172V24.454H100.789V29.032C100.789 29.4053 100.863 29.732 101.013 30.012C101.171 30.292 101.386 30.5113 101.657 30.67C101.937 30.8287 102.254 30.908 102.609 30.908C102.963 30.908 103.276 30.8287 103.547 30.67C103.827 30.5113 104.041 30.2827 104.191 29.984C104.349 29.6853 104.429 29.3307 104.429 28.92V24.454H105.745V32H104.471V30.53L104.681 30.656C104.503 31.132 104.2 31.5053 103.771 31.776C103.351 32.0373 102.865 32.168 102.315 32.168ZM107.762 32V24.454H109.036V25.84L108.896 25.644C109.073 25.2147 109.344 24.8973 109.708 24.692C110.072 24.4773 110.515 24.37 111.038 24.37H111.5V25.602H110.842C110.31 25.602 109.881 25.77 109.554 26.106C109.227 26.4327 109.064 26.8993 109.064 27.506V32H107.762ZM118.548 32.168C117.82 32.168 117.172 31.9953 116.602 31.65C116.033 31.3047 115.585 30.8333 115.258 30.236C114.932 29.6293 114.768 28.9527 114.768 28.206C114.768 27.45 114.927 26.778 115.244 26.19C115.571 25.602 116.01 25.14 116.56 24.804C117.12 24.4587 117.746 24.286 118.436 24.286C118.996 24.286 119.491 24.3887 119.92 24.594C120.359 24.79 120.728 25.0607 121.026 25.406C121.334 25.742 121.568 26.1293 121.726 26.568C121.894 26.9973 121.978 27.4453 121.978 27.912C121.978 28.0147 121.969 28.1313 121.95 28.262C121.941 28.3833 121.927 28.5 121.908 28.612H115.72V27.492H121.152L120.536 27.996C120.62 27.5107 120.574 27.0767 120.396 26.694C120.219 26.3113 119.958 26.008 119.612 25.784C119.267 25.56 118.875 25.448 118.436 25.448C117.998 25.448 117.596 25.56 117.232 25.784C116.868 26.008 116.584 26.33 116.378 26.75C116.182 27.1607 116.103 27.6507 116.14 28.22C116.103 28.7707 116.187 29.256 116.392 29.676C116.607 30.0867 116.906 30.4087 117.288 30.642C117.68 30.866 118.105 30.978 118.562 30.978C119.066 30.978 119.491 30.8613 119.836 30.628C120.182 30.3947 120.462 30.096 120.676 29.732L121.768 30.292C121.619 30.6373 121.386 30.9547 121.068 31.244C120.76 31.524 120.392 31.748 119.962 31.916C119.542 32.084 119.071 32.168 118.548 32.168ZM123.676 32V24.454H124.95V25.994L124.768 25.756C124.955 25.28 125.253 24.916 125.664 24.664C126.075 24.412 126.537 24.286 127.05 24.286C127.638 24.286 128.165 24.4493 128.632 24.776C129.108 25.1027 129.435 25.532 129.612 26.064L129.248 26.078C129.444 25.49 129.775 25.0467 130.242 24.748C130.709 24.44 131.227 24.286 131.796 24.286C132.319 24.286 132.79 24.4073 133.21 24.65C133.639 24.8927 133.98 25.2287 134.232 25.658C134.484 26.0873 134.61 26.5727 134.61 27.114V32H133.294V27.534C133.294 27.114 133.219 26.7593 133.07 26.47C132.921 26.1807 132.715 25.9567 132.454 25.798C132.202 25.63 131.903 25.546 131.558 25.546C131.222 25.546 130.919 25.63 130.648 25.798C130.387 25.9567 130.177 26.1853 130.018 26.484C129.869 26.7733 129.794 27.1233 129.794 27.534V32H128.478V27.534C128.478 27.114 128.403 26.7593 128.254 26.47C128.105 26.1807 127.899 25.9567 127.638 25.798C127.386 25.63 127.087 25.546 126.742 25.546C126.406 25.546 126.103 25.63 125.832 25.798C125.571 25.9567 125.361 26.1853 125.202 26.484C125.053 26.7733 124.978 27.1233 124.978 27.534V32H123.676ZM138.671 32.168C138.177 32.168 137.738 32.0793 137.355 31.902C136.982 31.7153 136.688 31.4633 136.473 31.146C136.259 30.8193 136.151 30.446 136.151 30.026C136.151 29.6247 136.235 29.2653 136.403 28.948C136.581 28.6213 136.851 28.346 137.215 28.122C137.589 27.898 138.055 27.7393 138.615 27.646L141.415 27.184V28.276L138.909 28.696C138.424 28.78 138.069 28.934 137.845 29.158C137.631 29.382 137.523 29.6573 137.523 29.984C137.523 30.292 137.645 30.5487 137.887 30.754C138.139 30.9593 138.452 31.062 138.825 31.062C139.301 31.062 139.712 30.964 140.057 30.768C140.412 30.5627 140.687 30.2873 140.883 29.942C141.089 29.5967 141.191 29.214 141.191 28.794V26.876C141.191 26.4653 141.037 26.134 140.729 25.882C140.431 25.6207 140.034 25.49 139.539 25.49C139.11 25.49 138.727 25.602 138.391 25.826C138.065 26.0407 137.822 26.33 137.663 26.694L136.529 26.106C136.669 25.7607 136.893 25.4527 137.201 25.182C137.509 24.902 137.869 24.6827 138.279 24.524C138.69 24.3653 139.119 24.286 139.567 24.286C140.146 24.286 140.655 24.398 141.093 24.622C141.532 24.8367 141.873 25.14 142.115 25.532C142.367 25.9147 142.493 26.3627 142.493 26.876V32H141.219V30.572L141.457 30.656C141.299 30.9547 141.084 31.216 140.813 31.44C140.543 31.664 140.225 31.8413 139.861 31.972C139.497 32.1027 139.101 32.168 138.671 32.168ZM144.512 32V24.454H145.814V32H144.512ZM144.512 23.25V21.57H145.814V23.25H144.512ZM147.834 32V21.402H149.136V32H147.834Z" fill="white"/>
<rect x="251" y="4" width="117" height="44" rx="22" fill="white"/>
<path d="M279.732 32.168C279.079 32.168 278.472 32.0467 277.912 31.804C277.352 31.552 276.876 31.2113 276.484 30.782C276.092 30.3527 275.803 29.858 275.616 29.298L277.016 28.71C277.268 29.354 277.637 29.8487 278.122 30.194C278.607 30.5393 279.167 30.712 279.802 30.712C280.175 30.712 280.502 30.656 280.782 30.544C281.062 30.4227 281.277 30.2547 281.426 30.04C281.585 29.8253 281.664 29.578 281.664 29.298C281.664 28.9153 281.557 28.612 281.342 28.388C281.127 28.164 280.81 27.9867 280.39 27.856L278.43 27.24C277.646 26.9973 277.049 26.6287 276.638 26.134C276.227 25.63 276.022 25.042 276.022 24.37C276.022 23.782 276.167 23.2687 276.456 22.83C276.745 22.382 277.142 22.032 277.646 21.78C278.159 21.528 278.743 21.402 279.396 21.402C280.021 21.402 280.591 21.514 281.104 21.738C281.617 21.9527 282.056 22.2513 282.42 22.634C282.793 23.0167 283.064 23.46 283.232 23.964L281.86 24.566C281.655 24.0153 281.333 23.5907 280.894 23.292C280.465 22.9933 279.965 22.844 279.396 22.844C279.051 22.844 278.747 22.9047 278.486 23.026C278.225 23.138 278.019 23.306 277.87 23.53C277.73 23.7447 277.66 23.9967 277.66 24.286C277.66 24.622 277.767 24.9207 277.982 25.182C278.197 25.4433 278.523 25.6393 278.962 25.77L280.782 26.344C281.613 26.596 282.238 26.96 282.658 27.436C283.078 27.9027 283.288 28.486 283.288 29.186C283.288 29.7647 283.134 30.278 282.826 30.726C282.527 31.174 282.112 31.5287 281.58 31.79C281.048 32.042 280.432 32.168 279.732 32.168ZM287.69 32.168C287.121 32.168 286.622 32.042 286.192 31.79C285.763 31.5287 285.427 31.1693 285.184 30.712C284.951 30.2453 284.834 29.7087 284.834 29.102V24.426H286.416V28.962C286.416 29.3073 286.486 29.6107 286.626 29.872C286.766 30.1333 286.962 30.3387 287.214 30.488C287.466 30.628 287.756 30.698 288.082 30.698C288.418 30.698 288.712 30.6233 288.964 30.474C289.216 30.3247 289.412 30.1147 289.552 29.844C289.702 29.5733 289.776 29.256 289.776 28.892V24.426H291.344V32H289.846V30.516L290.014 30.712C289.837 31.1787 289.543 31.538 289.132 31.79C288.722 32.042 288.241 32.168 287.69 32.168ZM297.238 32.168C296.65 32.168 296.113 32.0467 295.628 31.804C295.152 31.5613 294.783 31.2113 294.522 30.754L294.704 30.46V32H293.192V21.402H294.774V25.994L294.522 25.63C294.802 25.2007 295.175 24.8647 295.642 24.622C296.108 24.3793 296.64 24.258 297.238 24.258C297.956 24.258 298.6 24.4307 299.17 24.776C299.748 25.1213 300.201 25.5927 300.528 26.19C300.864 26.7873 301.032 27.4593 301.032 28.206C301.032 28.9527 300.864 29.6247 300.528 30.222C300.201 30.8193 299.753 31.2953 299.184 31.65C298.614 31.9953 297.966 32.168 297.238 32.168ZM297.084 30.698C297.532 30.698 297.928 30.5907 298.274 30.376C298.619 30.1613 298.89 29.8673 299.086 29.494C299.291 29.1113 299.394 28.682 299.394 28.206C299.394 27.73 299.291 27.3053 299.086 26.932C298.89 26.5587 298.619 26.2647 298.274 26.05C297.928 25.8353 297.532 25.728 297.084 25.728C296.645 25.728 296.248 25.8353 295.894 26.05C295.548 26.2647 295.273 26.5587 295.068 26.932C294.872 27.3053 294.774 27.73 294.774 28.206C294.774 28.682 294.872 29.1113 295.068 29.494C295.273 29.8673 295.548 30.1613 295.894 30.376C296.248 30.5907 296.645 30.698 297.084 30.698ZM305.37 32.168C304.596 32.168 303.914 31.9767 303.326 31.594C302.748 31.2113 302.342 30.698 302.108 30.054L303.326 29.48C303.532 29.9093 303.812 30.25 304.166 30.502C304.53 30.754 304.932 30.88 305.37 30.88C305.744 30.88 306.047 30.796 306.28 30.628C306.514 30.46 306.63 30.2313 306.63 29.942C306.63 29.7553 306.579 29.606 306.476 29.494C306.374 29.3727 306.243 29.2747 306.084 29.2C305.935 29.1253 305.781 29.0693 305.622 29.032L304.432 28.696C303.779 28.5093 303.289 28.2293 302.962 27.856C302.645 27.4733 302.486 27.03 302.486 26.526C302.486 26.0687 302.603 25.672 302.836 25.336C303.07 24.9907 303.392 24.7247 303.802 24.538C304.213 24.3513 304.675 24.258 305.188 24.258C305.879 24.258 306.495 24.4307 307.036 24.776C307.578 25.112 307.96 25.5833 308.184 26.19L306.966 26.764C306.817 26.4 306.579 26.1107 306.252 25.896C305.935 25.6813 305.576 25.574 305.174 25.574C304.829 25.574 304.554 25.658 304.348 25.826C304.143 25.9847 304.04 26.1947 304.04 26.456C304.04 26.6333 304.087 26.7827 304.18 26.904C304.274 27.016 304.395 27.1093 304.544 27.184C304.694 27.2493 304.848 27.3053 305.006 27.352L306.238 27.716C306.864 27.8933 307.344 28.1733 307.68 28.556C308.016 28.9293 308.184 29.3773 308.184 29.9C308.184 30.348 308.063 30.7447 307.82 31.09C307.587 31.426 307.26 31.692 306.84 31.888C306.42 32.0747 305.93 32.168 305.37 32.168ZM313.333 32.168C312.577 32.168 311.905 31.9953 311.317 31.65C310.738 31.2953 310.276 30.8193 309.931 30.222C309.595 29.6247 309.427 28.948 309.427 28.192C309.427 27.4453 309.595 26.7733 309.931 26.176C310.267 25.5787 310.729 25.112 311.317 24.776C311.905 24.4307 312.577 24.258 313.333 24.258C313.846 24.258 314.327 24.3513 314.775 24.538C315.223 24.7153 315.61 24.9627 315.937 25.28C316.273 25.5973 316.52 25.966 316.679 26.386L315.293 27.03C315.134 26.638 314.877 26.3253 314.523 26.092C314.177 25.8493 313.781 25.728 313.333 25.728C312.903 25.728 312.516 25.8353 312.171 26.05C311.835 26.2553 311.569 26.5493 311.373 26.932C311.177 27.3053 311.079 27.73 311.079 28.206C311.079 28.682 311.177 29.1113 311.373 29.494C311.569 29.8673 311.835 30.1613 312.171 30.376C312.516 30.5907 312.903 30.698 313.333 30.698C313.79 30.698 314.187 30.5813 314.523 30.348C314.868 30.1053 315.125 29.7833 315.293 29.382L316.679 30.04C316.529 30.4413 316.287 30.8053 315.951 31.132C315.624 31.4493 315.237 31.7013 314.789 31.888C314.341 32.0747 313.855 32.168 313.333 32.168ZM318.225 32V24.426H319.737V25.952L319.597 25.728C319.765 25.2333 320.035 24.8787 320.409 24.664C320.782 24.44 321.23 24.328 321.753 24.328H322.215V25.77H321.557C321.034 25.77 320.609 25.9333 320.283 26.26C319.965 26.5773 319.807 27.0347 319.807 27.632V32H318.225ZM323.297 32V24.426H324.879V32H323.297ZM323.297 23.39V21.57H324.879V23.39H323.297ZM330.775 32.168C330.187 32.168 329.65 32.0467 329.165 31.804C328.689 31.5613 328.32 31.2113 328.059 30.754L328.241 30.46V32H326.729V21.402H328.311V25.994L328.059 25.63C328.339 25.2007 328.712 24.8647 329.179 24.622C329.645 24.3793 330.177 24.258 330.775 24.258C331.493 24.258 332.137 24.4307 332.707 24.776C333.285 25.1213 333.738 25.5927 334.065 26.19C334.401 26.7873 334.569 27.4593 334.569 28.206C334.569 28.9527 334.401 29.6247 334.065 30.222C333.738 30.8193 333.29 31.2953 332.721 31.65C332.151 31.9953 331.503 32.168 330.775 32.168ZM330.621 30.698C331.069 30.698 331.465 30.5907 331.811 30.376C332.156 30.1613 332.427 29.8673 332.623 29.494C332.828 29.1113 332.931 28.682 332.931 28.206C332.931 27.73 332.828 27.3053 332.623 26.932C332.427 26.5587 332.156 26.2647 331.811 26.05C331.465 25.8353 331.069 25.728 330.621 25.728C330.182 25.728 329.785 25.8353 329.431 26.05C329.085 26.2647 328.81 26.5587 328.605 26.932C328.409 27.3053 328.311 27.73 328.311 28.206C328.311 28.682 328.409 29.1113 328.605 29.494C328.81 29.8673 329.085 30.1613 329.431 30.376C329.785 30.5907 330.182 30.698 330.621 30.698ZM339.664 32.168C338.908 32.168 338.236 31.9953 337.648 31.65C337.069 31.2953 336.616 30.8193 336.29 30.222C335.963 29.6153 335.8 28.9387 335.8 28.192C335.8 27.4267 335.963 26.75 336.29 26.162C336.626 25.574 337.074 25.112 337.634 24.776C338.194 24.4307 338.828 24.258 339.538 24.258C340.107 24.258 340.616 24.356 341.064 24.552C341.512 24.748 341.89 25.0187 342.198 25.364C342.506 25.7 342.739 26.0873 342.898 26.526C343.066 26.9647 343.15 27.4313 343.15 27.926C343.15 28.0473 343.145 28.1733 343.136 28.304C343.126 28.4347 343.108 28.556 343.08 28.668H337.046V27.408H342.184L341.428 27.982C341.521 27.5247 341.488 27.1187 341.33 26.764C341.18 26.4 340.947 26.1153 340.63 25.91C340.322 25.6953 339.958 25.588 339.538 25.588C339.118 25.588 338.744 25.6953 338.418 25.91C338.091 26.1153 337.839 26.414 337.662 26.806C337.484 27.1887 337.414 27.6553 337.452 28.206C337.405 28.7193 337.475 29.1673 337.662 29.55C337.858 29.9327 338.128 30.2313 338.474 30.446C338.828 30.6607 339.23 30.768 339.678 30.768C340.135 30.768 340.522 30.6653 340.84 30.46C341.166 30.2547 341.423 29.9887 341.61 29.662L342.898 30.292C342.748 30.6467 342.515 30.9687 342.198 31.258C341.89 31.538 341.516 31.762 341.078 31.93C340.648 32.0887 340.177 32.168 339.664 32.168Z" fill="#3A3A3A"/>
<path d="M4.746 81.168C4.08333 81.168 3.48133 81.042 2.94 80.79C2.39867 80.538 1.94133 80.202 1.568 79.782C1.19467 79.3527 0.928667 78.8813 0.77 78.368L1.778 77.99C2.02067 78.6993 2.39867 79.2407 2.912 79.614C3.42533 79.978 4.03667 80.16 4.746 80.16C5.194 80.16 5.586 80.09 5.922 79.95C6.26733 79.8007 6.53333 79.5953 6.72 79.334C6.90667 79.0727 7 78.7693 7 78.424C7 77.9107 6.86 77.514 6.58 77.234C6.3 76.954 5.89867 76.7393 5.376 76.59L3.5 76.03C2.76267 75.8153 2.19333 75.456 1.792 74.952C1.4 74.448 1.204 73.874 1.204 73.23C1.204 72.6793 1.33933 72.194 1.61 71.774C1.88067 71.3447 2.24933 71.0087 2.716 70.766C3.192 70.5233 3.72867 70.402 4.326 70.402C4.95133 70.402 5.51133 70.5187 6.006 70.752C6.51 70.976 6.93467 71.2747 7.28 71.648C7.62533 72.0213 7.87267 72.4367 8.022 72.894L7.042 73.286C6.818 72.67 6.468 72.2033 5.992 71.886C5.52533 71.5687 4.97467 71.41 4.34 71.41C3.93867 71.41 3.584 71.48 3.276 71.62C2.97733 71.76 2.744 71.9607 2.576 72.222C2.408 72.4833 2.324 72.7913 2.324 73.146C2.324 73.5753 2.45933 73.9627 2.73 74.308C3.00067 74.644 3.416 74.896 3.976 75.064L5.628 75.554C6.44933 75.7967 7.07 76.1467 7.49 76.604C7.91 77.0613 8.12 77.6353 8.12 78.326C8.12 78.886 7.97533 79.3807 7.686 79.81C7.406 80.23 7.00933 80.5613 6.496 80.804C5.992 81.0467 5.40867 81.168 4.746 81.168ZM12.9988 81.084C12.3268 81.084 11.8088 80.888 11.4448 80.496C11.0808 80.104 10.8988 79.544 10.8988 78.816V74.546H9.51278V73.496H9.86278C10.1801 73.496 10.4321 73.3933 10.6188 73.188C10.8054 72.9733 10.8988 72.7073 10.8988 72.39V71.76H11.9488V73.496H13.6008V74.546H11.9488V78.816C11.9488 79.068 11.9861 79.292 12.0608 79.488C12.1354 79.6747 12.2614 79.824 12.4388 79.936C12.6254 80.048 12.8728 80.104 13.1808 80.104C13.2554 80.104 13.3441 80.0993 13.4468 80.09C13.5494 80.0807 13.6381 80.0713 13.7128 80.062V81C13.6008 81.028 13.4748 81.0467 13.3348 81.056C13.1948 81.0747 13.0828 81.084 12.9988 81.084ZM17.5898 81.168C17.1138 81.168 16.6891 81.0793 16.3158 80.902C15.9425 80.7153 15.6485 80.4633 15.4338 80.146C15.2191 79.8287 15.1118 79.4647 15.1118 79.054C15.1118 78.662 15.1958 78.3073 15.3638 77.99C15.5318 77.6633 15.7931 77.388 16.1478 77.164C16.5025 76.94 16.9551 76.7813 17.5058 76.688L20.4458 76.198V77.15L17.7578 77.598C17.2165 77.6913 16.8245 77.864 16.5818 78.116C16.3485 78.368 16.2318 78.6667 16.2318 79.012C16.2318 79.348 16.3625 79.6327 16.6238 79.866C16.8945 80.0993 17.2398 80.216 17.6598 80.216C18.1731 80.216 18.6211 80.1087 19.0038 79.894C19.3865 79.67 19.6851 79.3713 19.8998 78.998C20.1145 78.6247 20.2218 78.2093 20.2218 77.752V75.848C20.2218 75.4 20.0585 75.036 19.7318 74.756C19.4051 74.476 18.9805 74.336 18.4578 74.336C18.0005 74.336 17.5991 74.4527 17.2538 74.686C16.9085 74.91 16.6518 75.204 16.4838 75.568L15.5318 75.05C15.6718 74.7327 15.8911 74.4433 16.1898 74.182C16.4978 73.9207 16.8478 73.7153 17.2398 73.566C17.6318 73.4073 18.0378 73.328 18.4578 73.328C19.0085 73.328 19.4938 73.4353 19.9138 73.65C20.3431 73.8647 20.6745 74.1633 20.9078 74.546C21.1505 74.9193 21.2718 75.3533 21.2718 75.848V81H20.2218V79.502L20.3758 79.656C20.2451 79.936 20.0398 80.1927 19.7598 80.426C19.4891 80.65 19.1671 80.832 18.7938 80.972C18.4298 81.1027 18.0285 81.168 17.5898 81.168ZM23.5855 84.08C23.4362 84.08 23.2822 84.066 23.1235 84.038C22.9742 84.0193 22.8248 83.982 22.6755 83.926V82.946C22.7688 82.9553 22.8855 82.9693 23.0255 82.988C23.1748 83.016 23.3242 83.03 23.4735 83.03C23.9308 83.03 24.2808 82.932 24.5235 82.736C24.7662 82.5493 25.0042 82.1853 25.2375 81.644L25.7135 80.524L25.6855 81.448L22.5075 73.496H23.6415L26.2455 80.062H25.9515L28.5415 73.496H29.7035L26.2735 81.952C26.1242 82.316 25.9328 82.6613 25.6995 82.988C25.4755 83.3147 25.1908 83.576 24.8455 83.772C24.5002 83.9773 24.0802 84.08 23.5855 84.08ZM35.4863 81.168C35.0103 81.168 34.5856 81.0793 34.2123 80.902C33.8389 80.7153 33.5449 80.4633 33.3303 80.146C33.1156 79.8287 33.0083 79.4647 33.0083 79.054C33.0083 78.662 33.0923 78.3073 33.2603 77.99C33.4283 77.6633 33.6896 77.388 34.0443 77.164C34.3989 76.94 34.8516 76.7813 35.4023 76.688L38.3423 76.198V77.15L35.6543 77.598C35.1129 77.6913 34.7209 77.864 34.4783 78.116C34.2449 78.368 34.1283 78.6667 34.1283 79.012C34.1283 79.348 34.2589 79.6327 34.5203 79.866C34.7909 80.0993 35.1363 80.216 35.5563 80.216C36.0696 80.216 36.5176 80.1087 36.9003 79.894C37.2829 79.67 37.5816 79.3713 37.7963 78.998C38.0109 78.6247 38.1183 78.2093 38.1183 77.752V75.848C38.1183 75.4 37.9549 75.036 37.6283 74.756C37.3016 74.476 36.8769 74.336 36.3543 74.336C35.8969 74.336 35.4956 74.4527 35.1503 74.686C34.8049 74.91 34.5483 75.204 34.3803 75.568L33.4283 75.05C33.5683 74.7327 33.7876 74.4433 34.0863 74.182C34.3943 73.9207 34.7443 73.7153 35.1363 73.566C35.5283 73.4073 35.9343 73.328 36.3543 73.328C36.9049 73.328 37.3903 73.4353 37.8103 73.65C38.2396 73.8647 38.5709 74.1633 38.8043 74.546C39.0469 74.9193 39.1683 75.3533 39.1683 75.848V81H38.1183V79.502L38.2723 79.656C38.1416 79.936 37.9363 80.1927 37.6563 80.426C37.3856 80.65 37.0636 80.832 36.6903 80.972C36.3263 81.1027 35.9249 81.168 35.4863 81.168ZM41.328 81V70.402H42.378V74.952L42.14 74.896C42.3267 74.4107 42.63 74.028 43.05 73.748C43.4793 73.468 43.974 73.328 44.534 73.328C45.066 73.328 45.542 73.4493 45.962 73.692C46.3913 73.9347 46.7273 74.2707 46.97 74.7C47.222 75.12 47.348 75.596 47.348 76.128V81H46.298V76.534C46.298 76.0767 46.214 75.6893 46.046 75.372C45.878 75.0547 45.6447 74.812 45.346 74.644C45.0567 74.4667 44.7253 74.378 44.352 74.378C43.9787 74.378 43.6427 74.4667 43.344 74.644C43.0453 74.812 42.8073 75.0593 42.63 75.386C42.462 75.7033 42.378 76.086 42.378 76.534V81H41.328ZM52.7694 81.168C52.0694 81.168 51.4347 81 50.8654 80.664C50.3054 80.3187 49.8621 79.8473 49.5354 79.25C49.2087 78.6527 49.0454 77.976 49.0454 77.22C49.0454 76.464 49.2041 75.7967 49.5214 75.218C49.8387 74.63 50.2681 74.168 50.8094 73.832C51.3601 73.496 51.9761 73.328 52.6574 73.328C53.1987 73.328 53.6794 73.4307 54.0994 73.636C54.5287 73.832 54.8927 74.1027 55.1914 74.448C55.4901 74.784 55.7187 75.1667 55.8774 75.596C56.0361 76.016 56.1154 76.45 56.1154 76.898C56.1154 76.9913 56.1107 77.0987 56.1014 77.22C56.0921 77.332 56.0781 77.4487 56.0594 77.57H49.7174V76.59H55.4574L54.9534 77.01C55.0374 76.4967 54.9767 76.0393 54.7714 75.638C54.5754 75.2273 54.2907 74.9053 53.9174 74.672C53.5441 74.4293 53.1241 74.308 52.6574 74.308C52.1907 74.308 51.7567 74.4293 51.3554 74.672C50.9634 74.9147 50.6554 75.2553 50.4314 75.694C50.2074 76.1233 50.1187 76.6367 50.1654 77.234C50.1187 77.8313 50.2121 78.354 50.4454 78.802C50.6881 79.2407 51.0147 79.5813 51.4254 79.824C51.8454 80.0667 52.2934 80.188 52.7694 80.188C53.3201 80.188 53.7821 80.0573 54.1554 79.796C54.5287 79.5347 54.8321 79.208 55.0654 78.816L55.9614 79.292C55.8121 79.628 55.5834 79.9407 55.2754 80.23C54.9674 80.51 54.5987 80.7387 54.1694 80.916C53.7494 81.084 53.2827 81.168 52.7694 81.168ZM60 81.168C59.524 81.168 59.0993 81.0793 58.726 80.902C58.3526 80.7153 58.0586 80.4633 57.844 80.146C57.6293 79.8287 57.522 79.4647 57.522 79.054C57.522 78.662 57.606 78.3073 57.774 77.99C57.942 77.6633 58.2033 77.388 58.558 77.164C58.9126 76.94 59.3653 76.7813 59.916 76.688L62.856 76.198V77.15L60.168 77.598C59.6266 77.6913 59.2346 77.864 58.992 78.116C58.7586 78.368 58.642 78.6667 58.642 79.012C58.642 79.348 58.7726 79.6327 59.034 79.866C59.3046 80.0993 59.65 80.216 60.07 80.216C60.5833 80.216 61.0313 80.1087 61.414 79.894C61.7966 79.67 62.0953 79.3713 62.31 78.998C62.5246 78.6247 62.632 78.2093 62.632 77.752V75.848C62.632 75.4 62.4686 75.036 62.142 74.756C61.8153 74.476 61.3906 74.336 60.868 74.336C60.4106 74.336 60.0093 74.4527 59.664 74.686C59.3186 74.91 59.062 75.204 58.894 75.568L57.942 75.05C58.082 74.7327 58.3013 74.4433 58.6 74.182C58.908 73.9207 59.258 73.7153 59.65 73.566C60.042 73.4073 60.448 73.328 60.868 73.328C61.4186 73.328 61.904 73.4353 62.324 73.65C62.7533 73.8647 63.0846 74.1633 63.318 74.546C63.5606 74.9193 63.682 75.3533 63.682 75.848V81H62.632V79.502L62.786 79.656C62.6553 79.936 62.45 80.1927 62.17 80.426C61.8993 80.65 61.5773 80.832 61.204 80.972C60.84 81.1027 60.4386 81.168 60 81.168ZM69.2297 81.168C68.5297 81.168 67.8997 81 67.3397 80.664C66.7797 80.3187 66.3363 79.852 66.0097 79.264C65.6923 78.6667 65.5337 77.9947 65.5337 77.248C65.5337 76.492 65.6923 75.82 66.0097 75.232C66.3363 74.644 66.775 74.182 67.3257 73.846C67.8857 73.5007 68.5203 73.328 69.2297 73.328C69.8737 73.328 70.4477 73.468 70.9517 73.748C71.4557 74.028 71.8523 74.406 72.1417 74.882L71.9737 75.176V70.402H73.0237V81H71.9737V79.32L72.1417 79.474C71.8803 80.0153 71.4883 80.4353 70.9657 80.734C70.4523 81.0233 69.8737 81.168 69.2297 81.168ZM69.2857 80.118C69.7897 80.118 70.2423 79.992 70.6437 79.74C71.0543 79.488 71.3763 79.1473 71.6097 78.718C71.8523 78.2793 71.9737 77.7893 71.9737 77.248C71.9737 76.7067 71.8523 76.2213 71.6097 75.792C71.3763 75.3533 71.0543 75.008 70.6437 74.756C70.2423 74.504 69.7897 74.378 69.2857 74.378C68.791 74.378 68.343 74.504 67.9417 74.756C67.5403 75.008 67.223 75.3487 66.9897 75.778C66.7657 76.2073 66.6537 76.6973 66.6537 77.248C66.6537 77.7893 66.7657 78.2793 66.9897 78.718C67.223 79.1473 67.5357 79.488 67.9277 79.74C68.329 79.992 68.7817 80.118 69.2857 80.118ZM79.2105 81L76.6345 73.496H77.8245L79.9525 80.062H79.5325L81.5345 73.496H82.5845L84.5865 80.062H84.1665L86.3085 73.496H87.4845L84.9085 81H83.8585L81.9125 74.574H82.2065L80.2605 81H79.2105ZM88.7147 81V73.496H89.7647V81H88.7147ZM88.7147 72.11V70.57H89.7647V72.11H88.7147ZM94.7839 81.084C94.1119 81.084 93.5939 80.888 93.2299 80.496C92.8659 80.104 92.6839 79.544 92.6839 78.816V74.546H91.2979V73.496H91.6479C91.9653 73.496 92.2173 73.3933 92.4039 73.188C92.5906 72.9733 92.6839 72.7073 92.6839 72.39V71.76H93.7339V73.496H95.3859V74.546H93.7339V78.816C93.7339 79.068 93.7713 79.292 93.8459 79.488C93.9206 79.6747 94.0466 79.824 94.2239 79.936C94.4106 80.048 94.6579 80.104 94.9659 80.104C95.0406 80.104 95.1293 80.0993 95.2319 80.09C95.3346 80.0807 95.4233 80.0713 95.4979 80.062V81C95.3859 81.028 95.2599 81.0467 95.1199 81.056C94.9799 81.0747 94.8679 81.084 94.7839 81.084ZM97.3417 81V70.402H98.3917V74.952L98.1537 74.896C98.3403 74.4107 98.6437 74.028 99.0637 73.748C99.493 73.468 99.9877 73.328 100.548 73.328C101.08 73.328 101.556 73.4493 101.976 73.692C102.405 73.9347 102.741 74.2707 102.984 74.7C103.236 75.12 103.362 75.596 103.362 76.128V81H102.312V76.534C102.312 76.0767 102.228 75.6893 102.06 75.372C101.892 75.0547 101.658 74.812 101.36 74.644C101.07 74.4667 100.739 74.378 100.366 74.378C99.9923 74.378 99.6563 74.4667 99.3577 74.644C99.059 74.812 98.821 75.0593 98.6437 75.386C98.4757 75.7033 98.3917 76.086 98.3917 76.534V81H97.3417ZM110.616 81.084C109.944 81.084 109.426 80.888 109.062 80.496C108.698 80.104 108.516 79.544 108.516 78.816V74.546H107.13V73.496H107.48C107.797 73.496 108.049 73.3933 108.236 73.188C108.423 72.9733 108.516 72.7073 108.516 72.39V71.76H109.566V73.496H111.218V74.546H109.566V78.816C109.566 79.068 109.603 79.292 109.678 79.488C109.753 79.6747 109.879 79.824 110.056 79.936C110.243 80.048 110.49 80.104 110.798 80.104C110.873 80.104 110.961 80.0993 111.064 80.09C111.167 80.0807 111.255 80.0713 111.33 80.062V81C111.218 81.028 111.092 81.0467 110.952 81.056C110.812 81.0747 110.7 81.084 110.616 81.084ZM113.174 81V70.402H114.224V74.952L113.986 74.896C114.172 74.4107 114.476 74.028 114.896 73.748C115.325 73.468 115.82 73.328 116.38 73.328C116.912 73.328 117.388 73.4493 117.808 73.692C118.237 73.9347 118.573 74.2707 118.816 74.7C119.068 75.12 119.194 75.596 119.194 76.128V81H118.144V76.534C118.144 76.0767 118.06 75.6893 117.892 75.372C117.724 75.0547 117.49 74.812 117.192 74.644C116.902 74.4667 116.571 74.378 116.198 74.378C115.824 74.378 115.488 74.4667 115.19 74.644C114.891 74.812 114.653 75.0593 114.476 75.386C114.308 75.7033 114.224 76.086 114.224 76.534V81H113.174ZM124.615 81.168C123.915 81.168 123.28 81 122.711 80.664C122.151 80.3187 121.708 79.8473 121.381 79.25C121.054 78.6527 120.891 77.976 120.891 77.22C120.891 76.464 121.05 75.7967 121.367 75.218C121.684 74.63 122.114 74.168 122.655 73.832C123.206 73.496 123.822 73.328 124.503 73.328C125.044 73.328 125.525 73.4307 125.945 73.636C126.374 73.832 126.738 74.1027 127.037 74.448C127.336 74.784 127.564 75.1667 127.723 75.596C127.882 76.016 127.961 76.45 127.961 76.898C127.961 76.9913 127.956 77.0987 127.947 77.22C127.938 77.332 127.924 77.4487 127.905 77.57H121.563V76.59H127.303L126.799 77.01C126.883 76.4967 126.822 76.0393 126.617 75.638C126.421 75.2273 126.136 74.9053 125.763 74.672C125.39 74.4293 124.97 74.308 124.503 74.308C124.036 74.308 123.602 74.4293 123.201 74.672C122.809 74.9147 122.501 75.2553 122.277 75.694C122.053 76.1233 121.964 76.6367 122.011 77.234C121.964 77.8313 122.058 78.354 122.291 78.802C122.534 79.2407 122.86 79.5813 123.271 79.824C123.691 80.0667 124.139 80.188 124.615 80.188C125.166 80.188 125.628 80.0573 126.001 79.796C126.374 79.5347 126.678 79.208 126.911 78.816L127.807 79.292C127.658 79.628 127.429 79.9407 127.121 80.23C126.813 80.51 126.444 80.7387 126.015 80.916C125.595 81.084 125.128 81.168 124.615 81.168ZM132.191 81V70.402H133.241V81H132.191ZM137.561 81.168C137.085 81.168 136.66 81.0793 136.287 80.902C135.913 80.7153 135.619 80.4633 135.405 80.146C135.19 79.8287 135.083 79.4647 135.083 79.054C135.083 78.662 135.167 78.3073 135.335 77.99C135.503 77.6633 135.764 77.388 136.119 77.164C136.473 76.94 136.926 76.7813 137.477 76.688L140.417 76.198V77.15L137.729 77.598C137.187 77.6913 136.795 77.864 136.553 78.116C136.319 78.368 136.203 78.6667 136.203 79.012C136.203 79.348 136.333 79.6327 136.595 79.866C136.865 80.0993 137.211 80.216 137.631 80.216C138.144 80.216 138.592 80.1087 138.975 79.894C139.357 79.67 139.656 79.3713 139.871 78.998C140.085 78.6247 140.193 78.2093 140.193 77.752V75.848C140.193 75.4 140.029 75.036 139.703 74.756C139.376 74.476 138.951 74.336 138.428 74.336C137.971 74.336 137.57 74.4527 137.225 74.686C136.879 74.91 136.623 75.204 136.455 75.568L135.503 75.05C135.643 74.7327 135.862 74.4433 136.16 74.182C136.469 73.9207 136.819 73.7153 137.211 73.566C137.603 73.4073 138.009 73.328 138.428 73.328C138.979 73.328 139.465 73.4353 139.885 73.65C140.314 73.8647 140.645 74.1633 140.879 74.546C141.121 74.9193 141.243 75.3533 141.243 75.848V81H140.193V79.502L140.347 79.656C140.216 79.936 140.011 80.1927 139.731 80.426C139.46 80.65 139.138 80.832 138.765 80.972C138.401 81.1027 137.999 81.168 137.561 81.168ZM146.136 81.084C145.464 81.084 144.946 80.888 144.582 80.496C144.218 80.104 144.035 79.544 144.035 78.816V74.546H142.649V73.496H143C143.317 73.496 143.569 73.3933 143.756 73.188C143.942 72.9733 144.035 72.7073 144.035 72.39V71.76H145.086V73.496H146.738V74.546H145.086V78.816C145.086 79.068 145.123 79.292 145.198 79.488C145.272 79.6747 145.398 79.824 145.576 79.936C145.762 80.048 146.01 80.104 146.318 80.104C146.392 80.104 146.481 80.0993 146.584 80.09C146.686 80.0807 146.775 80.0713 146.85 80.062V81C146.738 81.028 146.612 81.0467 146.472 81.056C146.332 81.0747 146.22 81.084 146.136 81.084ZM151.836 81.168C151.136 81.168 150.501 81 149.932 80.664C149.372 80.3187 148.928 79.8473 148.602 79.25C148.275 78.6527 148.112 77.976 148.112 77.22C148.112 76.464 148.27 75.7967 148.588 75.218C148.905 74.63 149.334 74.168 149.876 73.832C150.426 73.496 151.042 73.328 151.724 73.328C152.265 73.328 152.746 73.4307 153.166 73.636C153.595 73.832 153.959 74.1027 154.258 74.448C154.556 74.784 154.785 75.1667 154.944 75.596C155.102 76.016 155.182 76.45 155.182 76.898C155.182 76.9913 155.177 77.0987 155.168 77.22C155.158 77.332 155.144 77.4487 155.126 77.57H148.784V76.59H154.524L154.02 77.01C154.104 76.4967 154.043 76.0393 153.838 75.638C153.642 75.2273 153.357 74.9053 152.984 74.672C152.61 74.4293 152.19 74.308 151.724 74.308C151.257 74.308 150.823 74.4293 150.422 74.672C150.03 74.9147 149.722 75.2553 149.498 75.694C149.274 76.1233 149.185 76.6367 149.232 77.234C149.185 77.8313 149.278 78.354 149.512 78.802C149.754 79.2407 150.081 79.5813 150.492 79.824C150.912 80.0667 151.36 80.188 151.836 80.188C152.386 80.188 152.848 80.0573 153.222 79.796C153.595 79.5347 153.898 79.208 154.132 78.816L155.028 79.292C154.878 79.628 154.65 79.9407 154.342 80.23C154.034 80.51 153.665 80.7387 153.236 80.916C152.816 81.084 152.349 81.168 151.836 81.168ZM159.637 81.168C158.918 81.168 158.288 80.986 157.747 80.622C157.206 80.258 156.814 79.7633 156.571 79.138L157.453 78.718C157.668 79.1753 157.966 79.5393 158.349 79.81C158.741 80.0807 159.17 80.216 159.637 80.216C160.085 80.216 160.463 80.1087 160.771 79.894C161.079 79.67 161.233 79.3807 161.233 79.026C161.233 78.7647 161.158 78.5593 161.009 78.41C160.86 78.2513 160.687 78.13 160.491 78.046C160.295 77.962 160.122 77.9013 159.973 77.864L158.895 77.556C158.204 77.36 157.705 77.0847 157.397 76.73C157.089 76.3753 156.935 75.9647 156.935 75.498C156.935 75.0593 157.047 74.6767 157.271 74.35C157.495 74.0233 157.798 73.7713 158.181 73.594C158.564 73.4167 158.988 73.328 159.455 73.328C160.09 73.328 160.664 73.496 161.177 73.832C161.7 74.1587 162.068 74.616 162.283 75.204L161.387 75.624C161.2 75.204 160.93 74.8773 160.575 74.644C160.23 74.4013 159.842 74.28 159.413 74.28C158.993 74.28 158.657 74.3873 158.405 74.602C158.153 74.8167 158.027 75.0873 158.027 75.414C158.027 75.666 158.092 75.8667 158.223 76.016C158.354 76.1653 158.503 76.2773 158.671 76.352C158.848 76.4267 159.002 76.4827 159.133 76.52L160.379 76.884C160.986 77.0613 161.457 77.3367 161.793 77.71C162.138 78.0833 162.311 78.522 162.311 79.026C162.311 79.4367 162.194 79.8053 161.961 80.132C161.737 80.4587 161.424 80.7153 161.023 80.902C160.622 81.0793 160.16 81.168 159.637 81.168ZM167.026 81.084C166.354 81.084 165.836 80.888 165.472 80.496C165.108 80.104 164.926 79.544 164.926 78.816V74.546H163.54V73.496H163.89C164.207 73.496 164.459 73.3933 164.646 73.188C164.833 72.9733 164.926 72.7073 164.926 72.39V71.76H165.976V73.496H167.628V74.546H165.976V78.816C165.976 79.068 166.013 79.292 166.088 79.488C166.163 79.6747 166.289 79.824 166.466 79.936C166.653 80.048 166.9 80.104 167.208 80.104C167.283 80.104 167.371 80.0993 167.474 80.09C167.577 80.0807 167.665 80.0713 167.74 80.062V81C167.628 81.028 167.502 81.0467 167.362 81.056C167.222 81.0747 167.11 81.084 167.026 81.084ZM174.623 81.168C174.1 81.168 173.624 81.0467 173.195 80.804C172.765 80.552 172.425 80.2067 172.173 79.768C171.93 79.32 171.809 78.8067 171.809 78.228V73.496H172.859V78.102C172.859 78.5033 172.938 78.858 173.097 79.166C173.265 79.4647 173.493 79.698 173.783 79.866C174.081 80.034 174.422 80.118 174.805 80.118C175.187 80.118 175.528 80.034 175.827 79.866C176.125 79.6887 176.359 79.4413 176.527 79.124C176.695 78.7973 176.779 78.41 176.779 77.962V73.496H177.829V81H176.779V79.544L177.017 79.6C176.839 80.0853 176.536 80.468 176.107 80.748C175.677 81.028 175.183 81.168 174.623 81.168ZM179.988 83.8V73.496H181.038V75.176L180.87 74.882C181.169 74.406 181.565 74.028 182.06 73.748C182.564 73.468 183.138 73.328 183.782 73.328C184.491 73.328 185.121 73.5007 185.672 73.846C186.232 74.182 186.671 74.644 186.988 75.232C187.315 75.82 187.478 76.492 187.478 77.248C187.478 77.9947 187.315 78.6667 186.988 79.264C186.671 79.852 186.232 80.3187 185.672 80.664C185.121 81 184.491 81.168 183.782 81.168C183.138 81.168 182.555 81.0233 182.032 80.734C181.519 80.4353 181.131 80.0153 180.87 79.474L181.038 79.32V83.8H179.988ZM183.726 80.118C184.23 80.118 184.678 79.992 185.07 79.74C185.471 79.488 185.784 79.1473 186.008 78.718C186.241 78.2793 186.358 77.7893 186.358 77.248C186.358 76.6973 186.241 76.2073 186.008 75.778C185.784 75.3487 185.471 75.008 185.07 74.756C184.678 74.504 184.23 74.378 183.726 74.378C183.222 74.378 182.765 74.504 182.354 74.756C181.953 75.008 181.631 75.3533 181.388 75.792C181.155 76.2213 181.038 76.7067 181.038 77.248C181.038 77.7893 181.155 78.2793 181.388 78.718C181.631 79.1473 181.953 79.488 182.354 79.74C182.765 79.992 183.222 80.118 183.726 80.118ZM192.714 81.168C192.014 81.168 191.384 81 190.824 80.664C190.264 80.3187 189.821 79.852 189.494 79.264C189.177 78.6667 189.018 77.9947 189.018 77.248C189.018 76.492 189.177 75.82 189.494 75.232C189.821 74.644 190.259 74.182 190.81 73.846C191.37 73.5007 192.005 73.328 192.714 73.328C193.358 73.328 193.932 73.468 194.436 73.748C194.94 74.028 195.337 74.406 195.626 74.882L195.458 75.176V70.402H196.508V81H195.458V79.32L195.626 79.474C195.365 80.0153 194.973 80.4353 194.45 80.734C193.937 81.0233 193.358 81.168 192.714 81.168ZM192.77 80.118C193.274 80.118 193.727 79.992 194.128 79.74C194.539 79.488 194.861 79.1473 195.094 78.718C195.337 78.2793 195.458 77.7893 195.458 77.248C195.458 76.7067 195.337 76.2213 195.094 75.792C194.861 75.3533 194.539 75.008 194.128 74.756C193.727 74.504 193.274 74.378 192.77 74.378C192.275 74.378 191.827 74.504 191.426 74.756C191.025 75.008 190.707 75.3487 190.474 75.778C190.25 76.2073 190.138 76.6973 190.138 77.248C190.138 77.7893 190.25 78.2793 190.474 78.718C190.707 79.1473 191.02 79.488 191.412 79.74C191.813 79.992 192.266 80.118 192.77 80.118ZM200.834 81.168C200.358 81.168 199.933 81.0793 199.56 80.902C199.187 80.7153 198.893 80.4633 198.678 80.146C198.463 79.8287 198.356 79.4647 198.356 79.054C198.356 78.662 198.44 78.3073 198.608 77.99C198.776 77.6633 199.037 77.388 199.392 77.164C199.747 76.94 200.199 76.7813 200.75 76.688L203.69 76.198V77.15L201.002 77.598C200.461 77.6913 200.069 77.864 199.826 78.116C199.593 78.368 199.476 78.6667 199.476 79.012C199.476 79.348 199.607 79.6327 199.868 79.866C200.139 80.0993 200.484 80.216 200.904 80.216C201.417 80.216 201.865 80.1087 202.248 79.894C202.631 79.67 202.929 79.3713 203.144 78.998C203.359 78.6247 203.466 78.2093 203.466 77.752V75.848C203.466 75.4 203.303 75.036 202.976 74.756C202.649 74.476 202.225 74.336 201.702 74.336C201.245 74.336 200.843 74.4527 200.498 74.686C200.153 74.91 199.896 75.204 199.728 75.568L198.776 75.05C198.916 74.7327 199.135 74.4433 199.434 74.182C199.742 73.9207 200.092 73.7153 200.484 73.566C200.876 73.4073 201.282 73.328 201.702 73.328C202.253 73.328 202.738 73.4353 203.158 73.65C203.587 73.8647 203.919 74.1633 204.152 74.546C204.395 74.9193 204.516 75.3533 204.516 75.848V81H203.466V79.502L203.62 79.656C203.489 79.936 203.284 80.1927 203.004 80.426C202.733 80.65 202.411 80.832 202.038 80.972C201.674 81.1027 201.273 81.168 200.834 81.168ZM209.409 81.084C208.737 81.084 208.219 80.888 207.855 80.496C207.491 80.104 207.309 79.544 207.309 78.816V74.546H205.923V73.496H206.273C206.59 73.496 206.842 73.3933 207.029 73.188C207.216 72.9733 207.309 72.7073 207.309 72.39V71.76H208.359V73.496H210.011V74.546H208.359V78.816C208.359 79.068 208.396 79.292 208.471 79.488C208.546 79.6747 208.672 79.824 208.849 79.936C209.036 80.048 209.283 80.104 209.591 80.104C209.666 80.104 209.754 80.0993 209.857 80.09C209.96 80.0807 210.048 80.0713 210.123 80.062V81C210.011 81.028 209.885 81.0467 209.745 81.056C209.605 81.0747 209.493 81.084 209.409 81.084ZM215.109 81.168C214.409 81.168 213.775 81 213.205 80.664C212.645 80.3187 212.202 79.8473 211.875 79.25C211.549 78.6527 211.385 77.976 211.385 77.22C211.385 76.464 211.544 75.7967 211.861 75.218C212.179 74.63 212.608 74.168 213.149 73.832C213.7 73.496 214.316 73.328 214.997 73.328C215.539 73.328 216.019 73.4307 216.439 73.636C216.869 73.832 217.233 74.1027 217.531 74.448C217.83 74.784 218.059 75.1667 218.217 75.596C218.376 76.016 218.455 76.45 218.455 76.898C218.455 76.9913 218.451 77.0987 218.441 77.22C218.432 77.332 218.418 77.4487 218.399 77.57H212.057V76.59H217.797L217.293 77.01C217.377 76.4967 217.317 76.0393 217.111 75.638C216.915 75.2273 216.631 74.9053 216.257 74.672C215.884 74.4293 215.464 74.308 214.997 74.308C214.531 74.308 214.097 74.4293 213.695 74.672C213.303 74.9147 212.995 75.2553 212.771 75.694C212.547 76.1233 212.459 76.6367 212.505 77.234C212.459 77.8313 212.552 78.354 212.785 78.802C213.028 79.2407 213.355 79.5813 213.765 79.824C214.185 80.0667 214.633 80.188 215.109 80.188C215.66 80.188 216.122 80.0573 216.495 79.796C216.869 79.5347 217.172 79.208 217.405 78.816L218.301 79.292C218.152 79.628 217.923 79.9407 217.615 80.23C217.307 80.51 216.939 80.7387 216.509 80.916C216.089 81.084 215.623 81.168 215.109 81.168ZM222.911 81.168C222.192 81.168 221.562 80.986 221.021 80.622C220.479 80.258 220.087 79.7633 219.845 79.138L220.727 78.718C220.941 79.1753 221.24 79.5393 221.623 79.81C222.015 80.0807 222.444 80.216 222.911 80.216C223.359 80.216 223.737 80.1087 224.045 79.894C224.353 79.67 224.507 79.3807 224.507 79.026C224.507 78.7647 224.432 78.5593 224.283 78.41C224.133 78.2513 223.961 78.13 223.765 78.046C223.569 77.962 223.396 77.9013 223.247 77.864L222.169 77.556C221.478 77.36 220.979 77.0847 220.671 76.73C220.363 76.3753 220.209 75.9647 220.209 75.498C220.209 75.0593 220.321 74.6767 220.545 74.35C220.769 74.0233 221.072 73.7713 221.455 73.594C221.837 73.4167 222.262 73.328 222.729 73.328C223.363 73.328 223.937 73.496 224.451 73.832C224.973 74.1587 225.342 74.616 225.557 75.204L224.661 75.624C224.474 75.204 224.203 74.8773 223.849 74.644C223.503 74.4013 223.116 74.28 222.687 74.28C222.267 74.28 221.931 74.3873 221.679 74.602C221.427 74.8167 221.301 75.0873 221.301 75.414C221.301 75.666 221.366 75.8667 221.497 76.016C221.627 76.1653 221.777 76.2773 221.945 76.352C222.122 76.4267 222.276 76.4827 222.407 76.52L223.653 76.884C224.259 77.0613 224.731 77.3367 225.067 77.71C225.412 78.0833 225.585 78.522 225.585 79.026C225.585 79.4367 225.468 79.8053 225.235 80.132C225.011 80.4587 224.698 80.7153 224.297 80.902C223.895 81.0793 223.433 81.168 222.911 81.168ZM227.472 82.82V82.33C227.752 82.2553 227.957 82.1107 228.088 81.896C228.218 81.6813 228.284 81.3827 228.284 81H227.752V79.46H228.872V80.636C228.872 81.2427 228.755 81.728 228.522 82.092C228.288 82.4653 227.938 82.708 227.472 82.82ZM233.582 81V73.496H234.632V81H233.582ZM233.582 72.11V70.57H234.632V72.11H233.582ZM236.781 81V73.496H237.831V74.952L237.593 74.896C237.78 74.4107 238.083 74.028 238.503 73.748C238.932 73.468 239.427 73.328 239.987 73.328C240.519 73.328 240.995 73.4493 241.415 73.692C241.844 73.9347 242.18 74.2707 242.423 74.7C242.675 75.12 242.801 75.596 242.801 76.128V81H241.751V76.534C241.751 76.0767 241.667 75.6893 241.499 75.372C241.34 75.0547 241.112 74.812 240.813 74.644C240.524 74.4667 240.188 74.378 239.805 74.378C239.422 74.378 239.082 74.4667 238.783 74.644C238.484 74.812 238.251 75.0593 238.083 75.386C237.915 75.7033 237.831 76.086 237.831 76.534V81H236.781ZM247.411 81.168C246.692 81.168 246.062 80.986 245.521 80.622C244.979 80.258 244.587 79.7633 244.345 79.138L245.227 78.718C245.441 79.1753 245.74 79.5393 246.123 79.81C246.515 80.0807 246.944 80.216 247.411 80.216C247.859 80.216 248.237 80.1087 248.545 79.894C248.853 79.67 249.007 79.3807 249.007 79.026C249.007 78.7647 248.932 78.5593 248.783 78.41C248.633 78.2513 248.461 78.13 248.265 78.046C248.069 77.962 247.896 77.9013 247.747 77.864L246.669 77.556C245.978 77.36 245.479 77.0847 245.171 76.73C244.863 76.3753 244.709 75.9647 244.709 75.498C244.709 75.0593 244.821 74.6767 245.045 74.35C245.269 74.0233 245.572 73.7713 245.955 73.594C246.337 73.4167 246.762 73.328 247.229 73.328C247.863 73.328 248.437 73.496 248.951 73.832C249.473 74.1587 249.842 74.616 250.057 75.204L249.161 75.624C248.974 75.204 248.703 74.8773 248.349 74.644C248.003 74.4013 247.616 74.28 247.187 74.28C246.767 74.28 246.431 74.3873 246.179 74.602C245.927 74.8167 245.801 75.0873 245.801 75.414C245.801 75.666 245.866 75.8667 245.997 76.016C246.127 76.1653 246.277 76.2773 246.445 76.352C246.622 76.4267 246.776 76.4827 246.907 76.52L248.153 76.884C248.759 77.0613 249.231 77.3367 249.567 77.71C249.912 78.0833 250.085 78.522 250.085 79.026C250.085 79.4367 249.968 79.8053 249.735 80.132C249.511 80.4587 249.198 80.7153 248.797 80.902C248.395 81.0793 247.933 81.168 247.411 81.168ZM251.93 81V73.496H252.98V81H251.93ZM251.93 72.11V70.57H252.98V72.11H251.93ZM258.685 84.08C258.171 84.08 257.695 84.0007 257.257 83.842C256.827 83.6833 256.454 83.464 256.137 83.184C255.829 82.9133 255.591 82.596 255.423 82.232L256.389 81.714C256.538 82.0687 256.804 82.3767 257.187 82.638C257.569 82.8993 258.059 83.03 258.657 83.03C259.114 83.03 259.534 82.9413 259.917 82.764C260.299 82.5867 260.607 82.3253 260.841 81.98C261.074 81.6347 261.191 81.21 261.191 80.706V79.04L261.359 79.194C261.097 79.7353 260.71 80.1553 260.197 80.454C259.683 80.7433 259.123 80.888 258.517 80.888C257.817 80.888 257.187 80.72 256.627 80.384C256.067 80.048 255.623 79.5953 255.297 79.026C254.979 78.4473 254.821 77.808 254.821 77.108C254.821 76.3987 254.979 75.7593 255.297 75.19C255.623 74.6207 256.062 74.168 256.613 73.832C257.173 73.496 257.807 73.328 258.517 73.328C259.123 73.328 259.674 73.468 260.169 73.748C260.673 74.028 261.069 74.406 261.359 74.882L261.191 75.176V73.496H262.241V80.706C262.241 81.35 262.087 81.924 261.779 82.428C261.48 82.9413 261.06 83.3427 260.519 83.632C259.987 83.9307 259.375 84.08 258.685 84.08ZM258.573 79.838C259.058 79.838 259.497 79.7167 259.889 79.474C260.281 79.222 260.593 78.8907 260.827 78.48C261.069 78.06 261.191 77.6027 261.191 77.108C261.191 76.6133 261.069 76.1607 260.827 75.75C260.593 75.33 260.281 74.9987 259.889 74.756C259.497 74.504 259.058 74.378 258.573 74.378C258.078 74.378 257.63 74.504 257.229 74.756C256.827 74.9987 256.51 75.3253 256.277 75.736C256.053 76.1467 255.941 76.604 255.941 77.108C255.941 77.6027 256.053 78.06 256.277 78.48C256.51 78.8907 256.823 79.222 257.215 79.474C257.616 79.7167 258.069 79.838 258.573 79.838ZM264.398 81V70.402H265.448V74.952L265.21 74.896C265.397 74.4107 265.7 74.028 266.12 73.748C266.55 73.468 267.044 73.328 267.604 73.328C268.136 73.328 268.612 73.4493 269.032 73.692C269.462 73.9347 269.798 74.2707 270.04 74.7C270.292 75.12 270.418 75.596 270.418 76.128V81H269.368V76.534C269.368 76.0767 269.284 75.6893 269.116 75.372C268.948 75.0547 268.715 74.812 268.416 74.644C268.127 74.4667 267.796 74.378 267.422 74.378C267.049 74.378 266.713 74.4667 266.414 74.644C266.116 74.812 265.878 75.0593 265.7 75.386C265.532 75.7033 265.448 76.086 265.448 76.534V81H264.398ZM275.294 81.084C274.622 81.084 274.104 80.888 273.74 80.496C273.376 80.104 273.194 79.544 273.194 78.816V74.546H271.808V73.496H272.158C272.475 73.496 272.727 73.3933 272.914 73.188C273.1 72.9733 273.194 72.7073 273.194 72.39V71.76H274.244V73.496H275.896V74.546H274.244V78.816C274.244 79.068 274.281 79.292 274.356 79.488C274.43 79.6747 274.556 79.824 274.734 79.936C274.92 80.048 275.168 80.104 275.476 80.104C275.55 80.104 275.639 80.0993 275.742 80.09C275.844 80.0807 275.933 80.0713 276.008 80.062V81C275.896 81.028 275.77 81.0467 275.63 81.056C275.49 81.0747 275.378 81.084 275.294 81.084ZM280.455 81.168C279.737 81.168 279.107 80.986 278.565 80.622C278.024 80.258 277.632 79.7633 277.389 79.138L278.271 78.718C278.486 79.1753 278.785 79.5393 279.167 79.81C279.559 80.0807 279.989 80.216 280.455 80.216C280.903 80.216 281.281 80.1087 281.589 79.894C281.897 79.67 282.051 79.3807 282.051 79.026C282.051 78.7647 281.977 78.5593 281.827 78.41C281.678 78.2513 281.505 78.13 281.309 78.046C281.113 77.962 280.941 77.9013 280.791 77.864L279.713 77.556C279.023 77.36 278.523 77.0847 278.215 76.73C277.907 76.3753 277.753 75.9647 277.753 75.498C277.753 75.0593 277.865 74.6767 278.089 74.35C278.313 74.0233 278.617 73.7713 278.999 73.594C279.382 73.4167 279.807 73.328 280.273 73.328C280.908 73.328 281.482 73.496 281.995 73.832C282.518 74.1587 282.887 74.616 283.101 75.204L282.205 75.624C282.019 75.204 281.748 74.8773 281.393 74.644C281.048 74.4013 280.661 74.28 280.231 74.28C279.811 74.28 279.475 74.3873 279.223 74.602C278.971 74.8167 278.845 75.0873 278.845 75.414C278.845 75.666 278.911 75.8667 279.041 76.016C279.172 76.1653 279.321 76.2773 279.489 76.352C279.667 76.4267 279.821 76.4827 279.951 76.52L281.197 76.884C281.804 77.0613 282.275 77.3367 282.611 77.71C282.957 78.0833 283.129 78.522 283.129 79.026C283.129 79.4367 283.013 79.8053 282.779 80.132C282.555 80.4587 282.243 80.7153 281.841 80.902C281.44 81.0793 280.978 81.168 280.455 81.168ZM285.016 82.82V82.33C285.296 82.2553 285.502 82.1107 285.632 81.896C285.763 81.6813 285.828 81.3827 285.828 81H285.296V79.46H286.416V80.636C286.416 81.2427 286.3 81.728 286.066 82.092C285.833 82.4653 285.483 82.708 285.016 82.82ZM293.297 81.168C292.821 81.168 292.396 81.0793 292.023 80.902C291.649 80.7153 291.355 80.4633 291.141 80.146C290.926 79.8287 290.819 79.4647 290.819 79.054C290.819 78.662 290.903 78.3073 291.071 77.99C291.239 77.6633 291.5 77.388 291.855 77.164C292.209 76.94 292.662 76.7813 293.213 76.688L296.153 76.198V77.15L293.465 77.598C292.923 77.6913 292.531 77.864 292.289 78.116C292.055 78.368 291.939 78.6667 291.939 79.012C291.939 79.348 292.069 79.6327 292.331 79.866C292.601 80.0993 292.947 80.216 293.367 80.216C293.88 80.216 294.328 80.1087 294.711 79.894C295.093 79.67 295.392 79.3713 295.607 78.998C295.821 78.6247 295.929 78.2093 295.929 77.752V75.848C295.929 75.4 295.765 75.036 295.439 74.756C295.112 74.476 294.687 74.336 294.165 74.336C293.707 74.336 293.306 74.4527 292.961 74.686C292.615 74.91 292.359 75.204 292.191 75.568L291.239 75.05C291.379 74.7327 291.598 74.4433 291.897 74.182C292.205 73.9207 292.555 73.7153 292.947 73.566C293.339 73.4073 293.745 73.328 294.165 73.328C294.715 73.328 295.201 73.4353 295.621 73.65C296.05 73.8647 296.381 74.1633 296.615 74.546C296.857 74.9193 296.979 75.3533 296.979 75.848V81H295.929V79.502L296.083 79.656C295.952 79.936 295.747 80.1927 295.467 80.426C295.196 80.65 294.874 80.832 294.501 80.972C294.137 81.1027 293.735 81.168 293.297 81.168ZM299.139 81V73.496H300.189V74.952L299.951 74.896C300.137 74.4107 300.441 74.028 300.861 73.748C301.29 73.468 301.785 73.328 302.345 73.328C302.877 73.328 303.353 73.4493 303.773 73.692C304.202 73.9347 304.538 74.2707 304.781 74.7C305.033 75.12 305.159 75.596 305.159 76.128V81H304.109V76.534C304.109 76.0767 304.025 75.6893 303.857 75.372C303.698 75.0547 303.469 74.812 303.171 74.644C302.881 74.4667 302.545 74.378 302.163 74.378C301.78 74.378 301.439 74.4667 301.141 74.644C300.842 74.812 300.609 75.0593 300.441 75.386C300.273 75.7033 300.189 76.086 300.189 76.534V81H299.139ZM310.552 81.168C309.852 81.168 309.222 81 308.662 80.664C308.102 80.3187 307.659 79.852 307.332 79.264C307.015 78.6667 306.856 77.9947 306.856 77.248C306.856 76.492 307.015 75.82 307.332 75.232C307.659 74.644 308.097 74.182 308.648 73.846C309.208 73.5007 309.843 73.328 310.552 73.328C311.196 73.328 311.77 73.468 312.274 73.748C312.778 74.028 313.175 74.406 313.464 74.882L313.296 75.176V70.402H314.346V81H313.296V79.32L313.464 79.474C313.203 80.0153 312.811 80.4353 312.288 80.734C311.775 81.0233 311.196 81.168 310.552 81.168ZM310.608 80.118C311.112 80.118 311.565 79.992 311.966 79.74C312.377 79.488 312.699 79.1473 312.932 78.718C313.175 78.2793 313.296 77.7893 313.296 77.248C313.296 76.7067 313.175 76.2213 312.932 75.792C312.699 75.3533 312.377 75.008 311.966 74.756C311.565 74.504 311.112 74.378 310.608 74.378C310.113 74.378 309.665 74.504 309.264 74.756C308.863 75.008 308.545 75.3487 308.312 75.778C308.088 76.2073 307.976 76.6973 307.976 77.248C307.976 77.7893 308.088 78.2793 308.312 78.718C308.545 79.1473 308.858 79.488 309.25 79.74C309.651 79.992 310.104 80.118 310.608 80.118ZM4.494 102.168C3.794 102.168 3.15933 102 2.59 101.664C2.03 101.319 1.58667 100.847 1.26 100.25C0.933333 99.6527 0.77 98.976 0.77 98.22C0.77 97.464 0.928667 96.7967 1.246 96.218C1.56333 95.63 1.99267 95.168 2.534 94.832C3.08467 94.496 3.70067 94.328 4.382 94.328C4.92333 94.328 5.404 94.4307 5.824 94.636C6.25333 94.832 6.61733 95.1027 6.916 95.448C7.21467 95.784 7.44333 96.1667 7.602 96.596C7.76067 97.016 7.84 97.45 7.84 97.898C7.84 97.9913 7.83533 98.0987 7.826 98.22C7.81667 98.332 7.80267 98.4487 7.784 98.57H1.442V97.59H7.182L6.678 98.01C6.762 97.4967 6.70133 97.0393 6.496 96.638C6.3 96.2273 6.01533 95.9053 5.642 95.672C5.26867 95.4293 4.84867 95.308 4.382 95.308C3.91533 95.308 3.48133 95.4293 3.08 95.672C2.688 95.9147 2.38 96.2553 2.156 96.694C1.932 97.1233 1.84333 97.6367 1.89 98.234C1.84333 98.8313 1.93667 99.354 2.17 99.802C2.41267 100.241 2.73933 100.581 3.15 100.824C3.57 101.067 4.018 101.188 4.494 101.188C5.04467 101.188 5.50667 101.057 5.88 100.796C6.25333 100.535 6.55667 100.208 6.79 99.816L7.686 100.292C7.53667 100.628 7.308 100.941 7 101.23C6.692 101.51 6.32333 101.739 5.894 101.916C5.474 102.084 5.00733 102.168 4.494 102.168ZM11.5566 102L8.63056 94.496H9.80656L12.2706 101.076H11.8926L14.3706 94.496H15.5606L12.6066 102H11.5566ZM20.0663 102.168C19.3663 102.168 18.7316 102 18.1623 101.664C17.6023 101.319 17.1589 100.847 16.8323 100.25C16.5056 99.6527 16.3423 98.976 16.3423 98.22C16.3423 97.464 16.5009 96.7967 16.8183 96.218C17.1356 95.63 17.5649 95.168 18.1063 94.832C18.6569 94.496 19.2729 94.328 19.9543 94.328C20.4956 94.328 20.9763 94.4307 21.3963 94.636C21.8256 94.832 22.1896 95.1027 22.4883 95.448C22.7869 95.784 23.0156 96.1667 23.1743 96.596C23.3329 97.016 23.4123 97.45 23.4123 97.898C23.4123 97.9913 23.4076 98.0987 23.3983 98.22C23.3889 98.332 23.3749 98.4487 23.3563 98.57H17.0143V97.59H22.7543L22.2503 98.01C22.3343 97.4967 22.2736 97.0393 22.0683 96.638C21.8723 96.2273 21.5876 95.9053 21.2143 95.672C20.8409 95.4293 20.4209 95.308 19.9543 95.308C19.4876 95.308 19.0536 95.4293 18.6523 95.672C18.2603 95.9147 17.9523 96.2553 17.7283 96.694C17.5043 97.1233 17.4156 97.6367 17.4623 98.234C17.4156 98.8313 17.5089 99.354 17.7423 99.802C17.9849 100.241 18.3116 100.581 18.7223 100.824C19.1423 101.067 19.5903 101.188 20.0663 101.188C20.6169 101.188 21.0789 101.057 21.4523 100.796C21.8256 100.535 22.1289 100.208 22.3623 99.816L23.2583 100.292C23.1089 100.628 22.8803 100.941 22.5723 101.23C22.2643 101.51 21.8956 101.739 21.4663 101.916C21.0463 102.084 20.5796 102.168 20.0663 102.168ZM25.2635 102V94.496H26.3135V95.952L26.0755 95.896C26.2622 95.4107 26.5655 95.028 26.9855 94.748C27.4149 94.468 27.9095 94.328 28.4695 94.328C29.0015 94.328 29.4775 94.4493 29.8975 94.692C30.3269 94.9347 30.6629 95.2707 30.9055 95.7C31.1575 96.12 31.2835 96.596 31.2835 97.128V102H30.2335V97.534C30.2335 97.0767 30.1495 96.6893 29.9815 96.372C29.8229 96.0547 29.5942 95.812 29.2955 95.644C29.0062 95.4667 28.6702 95.378 28.2875 95.378C27.9049 95.378 27.5642 95.4667 27.2655 95.644C26.9669 95.812 26.7335 96.0593 26.5655 96.386C26.3975 96.7033 26.3135 97.086 26.3135 97.534V102H25.2635ZM36.1589 102.084C35.4869 102.084 34.9689 101.888 34.6049 101.496C34.2409 101.104 34.0589 100.544 34.0589 99.816V95.546H32.6729V94.496H33.0229C33.3403 94.496 33.5923 94.3933 33.7789 94.188C33.9656 93.9733 34.0589 93.7073 34.0589 93.39V92.76H35.1089V94.496H36.7609V95.546H35.1089V99.816C35.1089 100.068 35.1463 100.292 35.2209 100.488C35.2956 100.675 35.4216 100.824 35.5989 100.936C35.7856 101.048 36.0329 101.104 36.3409 101.104C36.4156 101.104 36.5043 101.099 36.6069 101.09C36.7096 101.081 36.7983 101.071 36.8729 101.062V102C36.7609 102.028 36.6349 102.047 36.4949 102.056C36.3549 102.075 36.2429 102.084 36.1589 102.084ZM41.3207 102.168C40.602 102.168 39.972 101.986 39.4307 101.622C38.8893 101.258 38.4973 100.763 38.2547 100.138L39.1367 99.718C39.3513 100.175 39.65 100.539 40.0327 100.81C40.4247 101.081 40.854 101.216 41.3207 101.216C41.7687 101.216 42.1467 101.109 42.4547 100.894C42.7627 100.67 42.9167 100.381 42.9167 100.026C42.9167 99.7647 42.842 99.5593 42.6927 99.41C42.5433 99.2513 42.3707 99.13 42.1747 99.046C41.9787 98.962 41.806 98.9013 41.6567 98.864L40.5787 98.556C39.888 98.36 39.3887 98.0847 39.0807 97.73C38.7727 97.3753 38.6187 96.9647 38.6187 96.498C38.6187 96.0593 38.7307 95.6767 38.9547 95.35C39.1787 95.0233 39.482 94.7713 39.8647 94.594C40.2473 94.4167 40.672 94.328 41.1387 94.328C41.7733 94.328 42.3473 94.496 42.8607 94.832C43.3833 95.1587 43.752 95.616 43.9667 96.204L43.0707 96.624C42.884 96.204 42.6133 95.8773 42.2587 95.644C41.9133 95.4013 41.526 95.28 41.0967 95.28C40.6767 95.28 40.3407 95.3873 40.0887 95.602C39.8367 95.8167 39.7107 96.0873 39.7107 96.414C39.7107 96.666 39.776 96.8667 39.9067 97.016C40.0373 97.1653 40.1867 97.2773 40.3547 97.352C40.532 97.4267 40.686 97.4827 40.8167 97.52L42.0627 97.884C42.6693 98.0613 43.1407 98.3367 43.4767 98.71C43.822 99.0833 43.9947 99.522 43.9947 100.026C43.9947 100.437 43.878 100.805 43.6447 101.132C43.4207 101.459 43.108 101.715 42.7067 101.902C42.3053 102.079 41.8433 102.168 41.3207 102.168ZM48.9886 102V95.546H47.4906V94.496H48.9886V93.824C48.9886 93.3013 49.1053 92.8627 49.3386 92.508C49.572 92.144 49.88 91.8687 50.2626 91.682C50.6453 91.4953 51.056 91.402 51.4946 91.402C51.588 91.402 51.6953 91.4113 51.8166 91.43C51.938 91.4393 52.036 91.4533 52.1106 91.472V92.424C52.0453 92.4053 51.9566 92.396 51.8446 92.396C51.7326 92.3867 51.6533 92.382 51.6066 92.382C51.1586 92.382 50.7853 92.4893 50.4866 92.704C50.188 92.9187 50.0386 93.292 50.0386 93.824V94.496H51.8726V95.546H50.0386V102H48.9886ZM53.578 102V94.496H54.628V95.728L54.488 95.546C54.6653 95.1913 54.9313 94.9113 55.286 94.706C55.65 94.5007 56.0887 94.398 56.602 94.398H57.078V95.448H56.42C55.8787 95.448 55.4447 95.616 55.118 95.952C54.7913 96.288 54.628 96.764 54.628 97.38V102H53.578ZM61.8225 102.168C61.1131 102.168 60.4691 102 59.8905 101.664C59.3118 101.319 58.8498 100.852 58.5045 100.264C58.1685 99.6667 58.0005 98.99 58.0005 98.234C58.0005 97.4873 58.1685 96.82 58.5045 96.232C58.8405 95.644 59.2931 95.182 59.8625 94.846C60.4411 94.5007 61.0945 94.328 61.8225 94.328C62.5505 94.328 63.1991 94.496 63.7685 94.832C64.3471 95.168 64.7998 95.63 65.1265 96.218C65.4625 96.806 65.6305 97.478 65.6305 98.234C65.6305 98.9993 65.4578 99.6807 65.1125 100.278C64.7671 100.866 64.3051 101.328 63.7265 101.664C63.1571 102 62.5225 102.168 61.8225 102.168ZM61.8225 101.118C62.3265 101.118 62.7791 100.992 63.1805 100.74C63.5911 100.488 63.9131 100.143 64.1465 99.704C64.3891 99.2653 64.5105 98.7753 64.5105 98.234C64.5105 97.6927 64.3891 97.2073 64.1465 96.778C63.9131 96.3487 63.5911 96.008 63.1805 95.756C62.7791 95.504 62.3265 95.378 61.8225 95.378C61.3185 95.378 60.8611 95.504 60.4505 95.756C60.0491 96.008 59.7271 96.3487 59.4845 96.778C59.2418 97.2073 59.1205 97.6927 59.1205 98.234C59.1205 98.7753 59.2418 99.2653 59.4845 99.704C59.7271 100.143 60.0491 100.488 60.4505 100.74C60.8611 100.992 61.3185 101.118 61.8225 101.118ZM67.4823 102V94.496H68.5323V95.924L68.3643 95.714C68.5696 95.2753 68.873 94.9347 69.2743 94.692C69.685 94.4493 70.133 94.328 70.6183 94.328C71.197 94.328 71.7196 94.4913 72.1863 94.818C72.653 95.1447 72.9843 95.5693 73.1803 96.092L72.8863 96.106C73.073 95.5273 73.395 95.0887 73.8523 94.79C74.319 94.482 74.8323 94.328 75.3923 94.328C75.8963 94.328 76.3583 94.4493 76.7783 94.692C77.2076 94.9347 77.5483 95.2707 77.8003 95.7C78.0616 96.12 78.1923 96.596 78.1923 97.128V102H77.1423V97.534C77.1423 97.0767 77.0583 96.6893 76.8903 96.372C76.7316 96.0547 76.5123 95.812 76.2323 95.644C75.9523 95.4667 75.6303 95.378 75.2663 95.378C74.9116 95.378 74.5896 95.4667 74.3003 95.644C74.011 95.812 73.7823 96.0593 73.6143 96.386C73.4463 96.7033 73.3623 97.086 73.3623 97.534V102H72.3123V97.534C72.3123 97.0767 72.2283 96.6893 72.0603 96.372C71.9016 96.0547 71.6823 95.812 71.4023 95.644C71.1223 95.4667 70.8003 95.378 70.4363 95.378C70.0723 95.378 69.7456 95.4667 69.4563 95.644C69.1763 95.812 68.9523 96.0593 68.7843 96.386C68.6163 96.7033 68.5323 97.086 68.5323 97.534V102H67.4823ZM82.73 102V91.57H83.71L87.63 97.254H87.084L90.99 91.57H91.97V102H90.85V93.082L91.214 93.222L87.378 98.78H87.322L83.5 93.222L83.85 93.082V102H82.73ZM96.4492 102.168C95.9732 102.168 95.5485 102.079 95.1752 101.902C94.8018 101.715 94.5078 101.463 94.2932 101.146C94.0785 100.829 93.9712 100.465 93.9712 100.054C93.9712 99.662 94.0552 99.3073 94.2232 98.99C94.3912 98.6633 94.6525 98.388 95.0072 98.164C95.3618 97.94 95.8145 97.7813 96.3652 97.688L99.3052 97.198V98.15L96.6172 98.598C96.0758 98.6913 95.6838 98.864 95.4412 99.116C95.2078 99.368 95.0912 99.6667 95.0912 100.012C95.0912 100.348 95.2218 100.633 95.4832 100.866C95.7538 101.099 96.0992 101.216 96.5192 101.216C97.0325 101.216 97.4805 101.109 97.8632 100.894C98.2458 100.67 98.5445 100.371 98.7592 99.998C98.9738 99.6247 99.0812 99.2093 99.0812 98.752V96.848C99.0812 96.4 98.9178 96.036 98.5912 95.756C98.2645 95.476 97.8398 95.336 97.3172 95.336C96.8598 95.336 96.4585 95.4527 96.1132 95.686C95.7678 95.91 95.5112 96.204 95.3432 96.568L94.3912 96.05C94.5312 95.7327 94.7505 95.4433 95.0492 95.182C95.3572 94.9207 95.7072 94.7153 96.0992 94.566C96.4912 94.4073 96.8972 94.328 97.3172 94.328C97.8678 94.328 98.3532 94.4353 98.7732 94.65C99.2025 94.8647 99.5338 95.1633 99.7672 95.546C100.01 95.9193 100.131 96.3533 100.131 96.848V102H99.0812V100.502L99.2352 100.656C99.1045 100.936 98.8992 101.193 98.6192 101.426C98.3485 101.65 98.0265 101.832 97.6532 101.972C97.2892 102.103 96.8878 102.168 96.4492 102.168ZM105.721 102.168C104.984 102.168 104.335 101.995 103.775 101.65C103.215 101.305 102.776 100.838 102.459 100.25C102.142 99.6527 101.983 98.9807 101.983 98.234C101.983 97.4873 102.142 96.82 102.459 96.232C102.776 95.644 103.215 95.182 103.775 94.846C104.335 94.5007 104.984 94.328 105.721 94.328C106.188 94.328 106.626 94.412 107.037 94.58C107.448 94.748 107.812 94.9767 108.129 95.266C108.446 95.546 108.684 95.8727 108.843 96.246L107.891 96.736C107.704 96.3347 107.42 96.008 107.037 95.756C106.654 95.504 106.216 95.378 105.721 95.378C105.226 95.378 104.778 95.504 104.377 95.756C103.985 95.9987 103.672 96.3393 103.439 96.778C103.215 97.2073 103.103 97.6973 103.103 98.248C103.103 98.7893 103.215 99.2793 103.439 99.718C103.672 100.147 103.985 100.488 104.377 100.74C104.778 100.992 105.226 101.118 105.721 101.118C106.216 101.118 106.65 100.992 107.023 100.74C107.406 100.488 107.695 100.152 107.891 99.732L108.843 100.25C108.684 100.614 108.446 100.941 108.129 101.23C107.812 101.519 107.448 101.748 107.037 101.916C106.626 102.084 106.188 102.168 105.721 102.168ZM112.719 102.168C112.243 102.168 111.818 102.079 111.445 101.902C111.071 101.715 110.777 101.463 110.563 101.146C110.348 100.829 110.241 100.465 110.241 100.054C110.241 99.662 110.325 99.3073 110.493 98.99C110.661 98.6633 110.922 98.388 111.277 98.164C111.631 97.94 112.084 97.7813 112.635 97.688L115.575 97.198V98.15L112.887 98.598C112.345 98.6913 111.953 98.864 111.711 99.116C111.477 99.368 111.361 99.6667 111.361 100.012C111.361 100.348 111.491 100.633 111.753 100.866C112.023 101.099 112.369 101.216 112.789 101.216C113.302 101.216 113.75 101.109 114.133 100.894C114.515 100.67 114.814 100.371 115.029 99.998C115.243 99.6247 115.351 99.2093 115.351 98.752V96.848C115.351 96.4 115.187 96.036 114.861 95.756C114.534 95.476 114.109 95.336 113.587 95.336C113.129 95.336 112.728 95.4527 112.383 95.686C112.037 95.91 111.781 96.204 111.613 96.568L110.661 96.05C110.801 95.7327 111.02 95.4433 111.319 95.182C111.627 94.9207 111.977 94.7153 112.369 94.566C112.761 94.4073 113.167 94.328 113.587 94.328C114.137 94.328 114.623 94.4353 115.043 94.65C115.472 94.8647 115.803 95.1633 116.037 95.546C116.279 95.9193 116.401 96.3533 116.401 96.848V102H115.351V100.502L115.505 100.656C115.374 100.936 115.169 101.193 114.889 101.426C114.618 101.65 114.296 101.832 113.923 101.972C113.559 102.103 113.157 102.168 112.719 102.168ZM121.294 102.084C120.622 102.084 120.104 101.888 119.74 101.496C119.376 101.104 119.194 100.544 119.194 99.816V95.546H117.808V94.496H118.158C118.475 94.496 118.727 94.3933 118.914 94.188C119.1 93.9733 119.194 93.7073 119.194 93.39V92.76H120.244V94.496H121.896V95.546H120.244V99.816C120.244 100.068 120.281 100.292 120.356 100.488C120.43 100.675 120.556 100.824 120.734 100.936C120.92 101.048 121.168 101.104 121.476 101.104C121.55 101.104 121.639 101.099 121.742 101.09C121.844 101.081 121.933 101.071 122.008 101.062V102C121.896 102.028 121.77 102.047 121.63 102.056C121.49 102.075 121.378 102.084 121.294 102.084ZM126.384 102V91.57H127.364L131.284 97.254H130.738L134.644 91.57H135.624V102H134.504V93.082L134.868 93.222L131.032 98.78H130.976L127.154 93.222L127.504 93.082V102H126.384ZM141.349 102.168C140.649 102.168 140.015 102 139.445 101.664C138.885 101.319 138.442 100.847 138.115 100.25C137.789 99.6527 137.625 98.976 137.625 98.22C137.625 97.464 137.784 96.7967 138.101 96.218C138.419 95.63 138.848 95.168 139.389 94.832C139.94 94.496 140.556 94.328 141.237 94.328C141.779 94.328 142.259 94.4307 142.679 94.636C143.109 94.832 143.473 95.1027 143.771 95.448C144.07 95.784 144.299 96.1667 144.457 96.596C144.616 97.016 144.695 97.45 144.695 97.898C144.695 97.9913 144.691 98.0987 144.681 98.22C144.672 98.332 144.658 98.4487 144.639 98.57H138.297V97.59H144.037L143.533 98.01C143.617 97.4967 143.557 97.0393 143.351 96.638C143.155 96.2273 142.871 95.9053 142.497 95.672C142.124 95.4293 141.704 95.308 141.237 95.308C140.771 95.308 140.337 95.4293 139.935 95.672C139.543 95.9147 139.235 96.2553 139.011 96.694C138.787 97.1233 138.699 97.6367 138.745 98.234C138.699 98.8313 138.792 99.354 139.025 99.802C139.268 100.241 139.595 100.581 140.005 100.824C140.425 101.067 140.873 101.188 141.349 101.188C141.9 101.188 142.362 101.057 142.735 100.796C143.109 100.535 143.412 100.208 143.645 99.816L144.541 100.292C144.392 100.628 144.163 100.941 143.855 101.23C143.547 101.51 143.179 101.739 142.749 101.916C142.329 102.084 141.863 102.168 141.349 102.168ZM150.103 105.08C149.589 105.08 149.113 105.001 148.675 104.842C148.245 104.683 147.872 104.464 147.555 104.184C147.247 103.913 147.009 103.596 146.841 103.232L147.807 102.714C147.956 103.069 148.222 103.377 148.605 103.638C148.987 103.899 149.477 104.03 150.075 104.03C150.532 104.03 150.952 103.941 151.335 103.764C151.717 103.587 152.025 103.325 152.259 102.98C152.492 102.635 152.609 102.21 152.609 101.706V100.04L152.777 100.194C152.515 100.735 152.128 101.155 151.615 101.454C151.101 101.743 150.541 101.888 149.935 101.888C149.235 101.888 148.605 101.72 148.045 101.384C147.485 101.048 147.041 100.595 146.715 100.026C146.397 99.4473 146.239 98.808 146.239 98.108C146.239 97.3987 146.397 96.7593 146.715 96.19C147.041 95.6207 147.48 95.168 148.031 94.832C148.591 94.496 149.225 94.328 149.935 94.328C150.541 94.328 151.092 94.468 151.587 94.748C152.091 95.028 152.487 95.406 152.777 95.882L152.609 96.176V94.496H153.659V101.706C153.659 102.35 153.505 102.924 153.197 103.428C152.898 103.941 152.478 104.343 151.937 104.632C151.405 104.931 150.793 105.08 150.103 105.08ZM149.991 100.838C150.476 100.838 150.915 100.717 151.307 100.474C151.699 100.222 152.011 99.8907 152.245 99.48C152.487 99.06 152.609 98.6027 152.609 98.108C152.609 97.6133 152.487 97.1607 152.245 96.75C152.011 96.33 151.699 95.9987 151.307 95.756C150.915 95.504 150.476 95.378 149.991 95.378C149.496 95.378 149.048 95.504 148.647 95.756C148.245 95.9987 147.928 96.3253 147.695 96.736C147.471 97.1467 147.359 97.604 147.359 98.108C147.359 98.6027 147.471 99.06 147.695 99.48C147.928 99.8907 148.241 100.222 148.633 100.474C149.034 100.717 149.487 100.838 149.991 100.838ZM157.986 102.168C157.51 102.168 157.086 102.079 156.712 101.902C156.339 101.715 156.045 101.463 155.83 101.146C155.616 100.829 155.508 100.465 155.508 100.054C155.508 99.662 155.592 99.3073 155.76 98.99C155.928 98.6633 156.19 98.388 156.544 98.164C156.899 97.94 157.352 97.7813 157.902 97.688L160.842 97.198V98.15L158.154 98.598C157.613 98.6913 157.221 98.864 156.978 99.116C156.745 99.368 156.628 99.6667 156.628 100.012C156.628 100.348 156.759 100.633 157.02 100.866C157.291 101.099 157.636 101.216 158.056 101.216C158.57 101.216 159.018 101.109 159.4 100.894C159.783 100.67 160.082 100.371 160.296 99.998C160.511 99.6247 160.618 99.2093 160.618 98.752V96.848C160.618 96.4 160.455 96.036 160.128 95.756C159.802 95.476 159.377 95.336 158.854 95.336C158.397 95.336 157.996 95.4527 157.65 95.686C157.305 95.91 157.048 96.204 156.88 96.568L155.928 96.05C156.068 95.7327 156.288 95.4433 156.586 95.182C156.894 94.9207 157.244 94.7153 157.636 94.566C158.028 94.4073 158.434 94.328 158.854 94.328C159.405 94.328 159.89 94.4353 160.31 94.65C160.74 94.8647 161.071 95.1633 161.304 95.546C161.547 95.9193 161.668 96.3533 161.668 96.848V102H160.618V100.502L160.772 100.656C160.642 100.936 160.436 101.193 160.156 101.426C159.886 101.65 159.564 101.832 159.19 101.972C158.826 102.103 158.425 102.168 157.986 102.168ZM166.561 102.084C165.889 102.084 165.371 101.888 165.007 101.496C164.643 101.104 164.461 100.544 164.461 99.816V95.546H163.075V94.496H163.425C163.743 94.496 163.995 94.3933 164.181 94.188C164.368 93.9733 164.461 93.7073 164.461 93.39V92.76H165.511V94.496H167.163V95.546H165.511V99.816C165.511 100.068 165.549 100.292 165.623 100.488C165.698 100.675 165.824 100.824 166.001 100.936C166.188 101.048 166.435 101.104 166.743 101.104C166.818 101.104 166.907 101.099 167.009 101.09C167.112 101.081 167.201 101.071 167.275 101.062V102C167.163 102.028 167.037 102.047 166.897 102.056C166.757 102.075 166.645 102.084 166.561 102.084ZM169.119 102V94.496H170.169V95.728L170.029 95.546C170.206 95.1913 170.472 94.9113 170.827 94.706C171.191 94.5007 171.63 94.398 172.143 94.398H172.619V95.448H171.961C171.42 95.448 170.986 95.616 170.659 95.952C170.332 96.288 170.169 96.764 170.169 97.38V102H169.119ZM177.363 102.168C176.654 102.168 176.01 102 175.431 101.664C174.853 101.319 174.391 100.852 174.045 100.264C173.709 99.6667 173.541 98.99 173.541 98.234C173.541 97.4873 173.709 96.82 174.045 96.232C174.381 95.644 174.834 95.182 175.403 94.846C175.982 94.5007 176.635 94.328 177.363 94.328C178.091 94.328 178.74 94.496 179.309 94.832C179.888 95.168 180.341 95.63 180.667 96.218C181.003 96.806 181.171 97.478 181.171 98.234C181.171 98.9993 180.999 99.6807 180.653 100.278C180.308 100.866 179.846 101.328 179.267 101.664C178.698 102 178.063 102.168 177.363 102.168ZM177.363 101.118C177.867 101.118 178.32 100.992 178.721 100.74C179.132 100.488 179.454 100.143 179.687 99.704C179.93 99.2653 180.051 98.7753 180.051 98.234C180.051 97.6927 179.93 97.2073 179.687 96.778C179.454 96.3487 179.132 96.008 178.721 95.756C178.32 95.504 177.867 95.378 177.363 95.378C176.859 95.378 176.402 95.504 175.991 95.756C175.59 96.008 175.268 96.3487 175.025 96.778C174.783 97.2073 174.661 97.6927 174.661 98.234C174.661 98.7753 174.783 99.2653 175.025 99.704C175.268 100.143 175.59 100.488 175.991 100.74C176.402 100.992 176.859 101.118 177.363 101.118ZM183.023 102V94.496H184.073V95.952L183.835 95.896C184.022 95.4107 184.325 95.028 184.745 94.748C185.175 94.468 185.669 94.328 186.229 94.328C186.761 94.328 187.237 94.4493 187.657 94.692C188.087 94.9347 188.423 95.2707 188.665 95.7C188.917 96.12 189.043 96.596 189.043 97.128V102H187.993V97.534C187.993 97.0767 187.909 96.6893 187.741 96.372C187.583 96.0547 187.354 95.812 187.055 95.644C186.766 95.4667 186.43 95.378 186.047 95.378C185.665 95.378 185.324 95.4667 185.025 95.644C184.727 95.812 184.493 96.0593 184.325 96.386C184.157 96.7033 184.073 97.086 184.073 97.534V102H183.023ZM193.653 102.168C192.934 102.168 192.304 101.986 191.763 101.622C191.221 101.258 190.829 100.763 190.587 100.138L191.469 99.718C191.683 100.175 191.982 100.539 192.365 100.81C192.757 101.081 193.186 101.216 193.653 101.216C194.101 101.216 194.479 101.109 194.787 100.894C195.095 100.67 195.249 100.381 195.249 100.026C195.249 99.7647 195.174 99.5593 195.025 99.41C194.875 99.2513 194.703 99.13 194.507 99.046C194.311 98.962 194.138 98.9013 193.989 98.864L192.911 98.556C192.22 98.36 191.721 98.0847 191.413 97.73C191.105 97.3753 190.951 96.9647 190.951 96.498C190.951 96.0593 191.063 95.6767 191.287 95.35C191.511 95.0233 191.814 94.7713 192.197 94.594C192.579 94.4167 193.004 94.328 193.471 94.328C194.105 94.328 194.679 94.496 195.193 94.832C195.715 95.1587 196.084 95.616 196.299 96.204L195.403 96.624C195.216 96.204 194.945 95.8773 194.591 95.644C194.245 95.4013 193.858 95.28 193.429 95.28C193.009 95.28 192.673 95.3873 192.421 95.602C192.169 95.8167 192.043 96.0873 192.043 96.414C192.043 96.666 192.108 96.8667 192.239 97.016C192.369 97.1653 192.519 97.2773 192.687 97.352C192.864 97.4267 193.018 97.4827 193.149 97.52L194.395 97.884C195.001 98.0613 195.473 98.3367 195.809 98.71C196.154 99.0833 196.327 99.522 196.327 100.026C196.327 100.437 196.21 100.805 195.977 101.132C195.753 101.459 195.44 101.715 195.039 101.902C194.637 102.079 194.175 102.168 193.653 102.168ZM198.536 102V100.46H199.656V102H198.536Z" fill="white"/>
</svg>
