<svg width="22" height="23" viewBox="0 0 22 23" fill="none" xmlns="http://www.w3.org/2000/svg">
<path d="M8.6744 5.0656C8.39571 1.75855 5.0515 0.135876 4.90997 0.0696451C4.77767 0.00548146 4.6294 -0.0150188 4.48538 0.01094C0.624657 0.671749 0.0439436 2.98985 0.0205983 3.08618C-0.0111639 3.22043 -0.00611214 3.36115 0.0351891 3.4926C4.64004 18.2321 14.2101 20.9641 17.3559 21.8628C17.5981 21.932 17.798 21.9877 17.9498 22.0389C18.1229 22.0973 18.3111 22.086 18.4765 22.0073C18.5728 21.9621 20.846 20.8573 21.4019 17.2537C21.4266 17.0964 21.4021 16.935 21.3319 16.7931C21.2823 16.6937 20.0931 14.3591 16.7956 13.5342C16.6838 13.5047 16.5666 13.5036 16.4543 13.5312C16.3419 13.5587 16.2378 13.614 16.1507 13.6922C15.1104 14.6089 13.6732 15.5859 13.0531 15.6867C8.89618 13.5899 6.57478 9.56633 6.48724 8.80316C6.43617 8.37416 7.38895 6.8674 8.48472 5.64212C8.55359 5.565 8.60605 5.47387 8.63871 5.37457C8.67138 5.27528 8.68354 5.17003 8.6744 5.0656Z" fill="white"/>
</svg>
