<svg width="387" height="19" viewBox="0 0 387 19" fill="none" xmlns="http://www.w3.org/2000/svg">
<path opacity="0.88" d="M29.6515 15L26.6124 4.23167H28.7104L30.6506 12.1449H30.7505L32.8221 4.23167H34.7307L36.8076 12.1502H36.9023L38.8425 4.23167H40.9404L37.9013 15H35.9769L33.8211 7.44429H33.737L31.576 15H29.6515ZM44.1123 10.2678V15H42.2089V4.23167H44.0702V8.29608H44.1649C44.3541 7.84039 44.6468 7.4811 45.0429 7.2182C45.4425 6.9518 45.9508 6.81859 46.5678 6.81859C47.1286 6.81859 47.6176 6.93602 48.0347 7.17088C48.4519 7.40573 48.7743 7.74925 49.0022 8.20144C49.2335 8.65363 49.3492 9.20571 49.3492 9.8577V15H47.4458V10.1521C47.4458 9.60882 47.3056 9.18643 47.0252 8.88498C46.7483 8.58001 46.3592 8.42753 45.8579 8.42753C45.5214 8.42753 45.22 8.50115 44.9536 8.64837C44.6907 8.79209 44.4838 9.00065 44.3331 9.27407C44.1859 9.54748 44.1123 9.87873 44.1123 10.2678ZM53.6134 15.163C53.1017 15.163 52.6407 15.0719 52.2306 14.8896C51.824 14.7038 51.5015 14.4304 51.2631 14.0693C51.0283 13.7083 50.9108 13.2631 50.9108 12.7338C50.9108 12.2781 50.995 11.9013 51.1632 11.6033C51.3315 11.3054 51.5611 11.067 51.852 10.8883C52.143 10.7095 52.4707 10.5745 52.8353 10.4834C53.2033 10.3888 53.5836 10.3204 53.9762 10.2783C54.4495 10.2293 54.8333 10.1854 55.1277 10.1469C55.4222 10.1048 55.636 10.0417 55.7692 9.9576C55.9059 9.86997 55.9743 9.73502 55.9743 9.55274V9.52119C55.9743 9.12509 55.8568 8.81838 55.622 8.60105C55.3871 8.38372 55.0489 8.27505 54.6072 8.27505C54.141 8.27505 53.7712 8.37671 53.4978 8.58002C53.2279 8.78332 53.0456 9.02344 52.9509 9.30036L51.1737 9.04797C51.314 8.55723 51.5453 8.14711 51.8678 7.81761C52.1903 7.4846 52.5846 7.23573 53.0508 7.07098C53.517 6.90272 54.0323 6.81859 54.5967 6.81859C54.9858 6.81859 55.3731 6.86416 55.7587 6.9553C56.1443 7.04644 56.4966 7.19717 56.8155 7.40749C57.1345 7.6143 57.3904 7.89648 57.5832 8.25402C57.7795 8.61156 57.8777 9.05849 57.8777 9.5948V15H56.0479V13.8906H55.9848C55.8691 14.1149 55.7061 14.3252 55.4958 14.5215C55.289 14.7143 55.0278 14.8703 54.7124 14.9895C54.4004 15.1052 54.0341 15.163 53.6134 15.163ZM54.1077 13.7644C54.4898 13.7644 54.821 13.689 55.1014 13.5383C55.3819 13.384 55.5974 13.1807 55.7482 12.9284C55.9024 12.676 55.9795 12.4008 55.9795 12.1029V11.1512C55.9199 11.2002 55.8183 11.2458 55.6746 11.2879C55.5343 11.3299 55.3766 11.3667 55.2013 11.3983C55.0261 11.4298 54.8526 11.4579 54.6808 11.4824C54.509 11.507 54.3601 11.528 54.2339 11.5455C53.9499 11.5841 53.6958 11.6472 53.4715 11.7348C53.2471 11.8224 53.0701 11.9451 52.9404 12.1029C52.8107 12.2571 52.7459 12.4569 52.7459 12.7023C52.7459 13.0528 52.8738 13.3174 53.1297 13.4962C53.3856 13.675 53.7116 13.7644 54.1077 13.7644ZM63.8244 6.92375V8.39599H59.1816V6.92375H63.8244ZM60.3279 4.98882H62.2313V12.5708C62.2313 12.8267 62.2698 13.023 62.3469 13.1597C62.4276 13.2929 62.5327 13.384 62.6624 13.4331C62.7921 13.4822 62.9358 13.5067 63.0936 13.5067C63.2127 13.5067 63.3214 13.498 63.4196 13.4804C63.5212 13.4629 63.5983 13.4471 63.6509 13.4331L63.9716 14.9211C63.87 14.9562 63.7245 14.9947 63.5352 15.0368C63.3495 15.0789 63.1216 15.1034 62.8517 15.1104C62.375 15.1244 61.9456 15.0526 61.5635 14.8948C61.1814 14.7336 60.8782 14.4847 60.6539 14.1482C60.433 13.8117 60.3244 13.3911 60.3279 12.8863V4.98882ZM69.089 15V6.92375H70.9924V15H69.089ZM70.0459 5.77752C69.7445 5.77752 69.4851 5.67761 69.2677 5.47781C69.0504 5.2745 68.9417 5.03088 68.9417 4.74695C68.9417 4.45952 69.0504 4.2159 69.2677 4.01609C69.4851 3.81279 69.7445 3.71113 70.0459 3.71113C70.3509 3.71113 70.6103 3.81279 70.8241 4.01609C71.0414 4.2159 71.1501 4.45952 71.1501 4.74695C71.1501 5.03088 71.0414 5.2745 70.8241 5.47781C70.6103 5.67761 70.3509 5.77752 70.0459 5.77752ZM72.9496 15V6.92375H74.7689V8.29608H74.8635C75.0318 7.83338 75.3105 7.47234 75.6996 7.21294C76.0886 6.95004 76.5531 6.81859 77.0929 6.81859C77.6397 6.81859 78.1007 6.9518 78.4758 7.2182C78.8543 7.4811 79.1207 7.84039 79.275 8.29608H79.3591C79.5379 7.8474 79.8393 7.48986 80.2635 7.22346C80.6911 6.95355 81.1976 6.81859 81.783 6.81859C82.5262 6.81859 83.1326 7.05345 83.6023 7.52316C84.072 7.99287 84.3069 8.67816 84.3069 9.57903V15H82.3982V9.87348C82.3982 9.37222 82.265 9.00591 81.9986 8.77456C81.7322 8.5397 81.4062 8.42228 81.0206 8.42228C80.5614 8.42228 80.2021 8.56599 79.9427 8.85343C79.6868 9.13736 79.5589 9.50717 79.5589 9.96286V15H77.6923V9.79461C77.6923 9.37747 77.5661 9.04447 77.3137 8.79559C77.0649 8.54671 76.7389 8.42228 76.3358 8.42228C76.0624 8.42228 75.8135 8.49238 75.5891 8.63259C75.3648 8.7693 75.186 8.96385 75.0528 9.21623C74.9196 9.46511 74.853 9.75605 74.853 10.0891V15H72.9496ZM86.2378 15V6.92375H88.0571V8.29608H88.1517C88.32 7.83338 88.5987 7.47234 88.9878 7.21294C89.3769 6.95004 89.8413 6.81859 90.3811 6.81859C90.928 6.81859 91.3889 6.9518 91.764 7.2182C92.1425 7.4811 92.409 7.84039 92.5632 8.29608H92.6473C92.8261 7.8474 93.1275 7.48986 93.5517 7.22346C93.9793 6.95355 94.4859 6.81859 95.0712 6.81859C95.8144 6.81859 96.4208 7.05345 96.8905 7.52316C97.3602 7.99287 97.5951 8.67816 97.5951 9.57903V15H95.6864V9.87348C95.6864 9.37222 95.5532 9.00591 95.2868 8.77456C95.0204 8.5397 94.6944 8.42228 94.3088 8.42228C93.8496 8.42228 93.4903 8.56599 93.2309 8.85343C92.9751 9.13736 92.8471 9.50717 92.8471 9.96286V15H90.9805V9.79461C90.9805 9.37747 90.8543 9.04447 90.602 8.79559C90.3531 8.54671 90.0271 8.42228 89.624 8.42228C89.3506 8.42228 89.1017 8.49238 88.8773 8.63259C88.653 8.7693 88.4742 8.96385 88.341 9.21623C88.2078 9.46511 88.1412 9.75605 88.1412 10.0891V15H86.2378ZM99.5261 15V6.92375H101.429V15H99.5261ZM100.483 5.77752C100.182 5.77752 99.9222 5.67761 99.7048 5.47781C99.4875 5.2745 99.3788 5.03088 99.3788 4.74695C99.3788 4.45952 99.4875 4.2159 99.7048 4.01609C99.9222 3.81279 100.182 3.71113 100.483 3.71113C100.788 3.71113 101.047 3.81279 101.261 4.01609C101.479 4.2159 101.587 4.45952 101.587 4.74695C101.587 5.03088 101.479 5.2745 101.261 5.47781C101.047 5.67761 100.788 5.77752 100.483 5.77752ZM106.899 18.1968C106.216 18.1968 105.628 18.104 105.138 17.9182C104.647 17.7359 104.253 17.4905 103.955 17.1821C103.657 16.8736 103.45 16.5318 103.334 16.1568L105.048 15.7414C105.125 15.8991 105.238 16.0551 105.385 16.2093C105.532 16.3671 105.73 16.4968 105.979 16.5984C106.231 16.7036 106.549 16.7562 106.931 16.7562C107.47 16.7562 107.917 16.6247 108.271 16.3618C108.625 16.1024 108.802 15.6748 108.802 15.0789V13.5488H108.708C108.61 13.7451 108.466 13.9467 108.277 14.1535C108.091 14.3603 107.844 14.5338 107.535 14.674C107.23 14.8142 106.846 14.8843 106.384 14.8843C105.763 14.8843 105.201 14.7389 104.696 14.4479C104.195 14.1535 103.795 13.7153 103.497 13.1334C103.203 12.548 103.055 11.8154 103.055 10.9356C103.055 10.0487 103.203 9.30036 103.497 8.69043C103.795 8.077 104.196 7.61255 104.701 7.29707C105.206 6.97809 105.769 6.81859 106.389 6.81859C106.862 6.81859 107.251 6.89922 107.556 7.06046C107.865 7.2182 108.11 7.40924 108.292 7.63358C108.475 7.85441 108.613 8.06298 108.708 8.25928H108.813V6.92375H110.69V15.1314C110.69 15.822 110.525 16.3934 110.196 16.8455C109.866 17.2977 109.416 17.636 108.844 17.8603C108.273 18.0847 107.625 18.1968 106.899 18.1968ZM106.915 13.3911C107.318 13.3911 107.661 13.2929 107.945 13.0966C108.229 12.9003 108.445 12.6181 108.592 12.2501C108.739 11.882 108.813 11.4404 108.813 10.9251C108.813 10.4168 108.739 9.97163 108.592 9.58955C108.448 9.20747 108.235 8.91127 107.951 8.70095C107.67 8.48712 107.325 8.38021 106.915 8.38021C106.491 8.38021 106.137 8.49063 105.853 8.71146C105.569 8.9323 105.355 9.23551 105.211 9.62109C105.068 10.0032 104.996 10.4378 104.996 10.9251C104.996 11.4193 105.068 11.8522 105.211 12.2238C105.358 12.5918 105.574 12.8793 105.858 13.0861C106.145 13.2894 106.498 13.3911 106.915 13.3911ZM112.641 15V6.92375H114.486V8.26979H114.57C114.718 7.80359 114.97 7.44429 115.328 7.19191C115.689 6.93602 116.101 6.80808 116.563 6.80808C116.668 6.80808 116.786 6.81334 116.915 6.82385C117.049 6.83086 117.159 6.84313 117.247 6.86066V8.61156C117.166 8.58352 117.038 8.55898 116.863 8.53795C116.691 8.51341 116.525 8.50115 116.363 8.50115C116.016 8.50115 115.704 8.57651 115.427 8.72724C115.154 8.87446 114.938 9.07952 114.781 9.34242C114.623 9.60532 114.544 9.90853 114.544 10.2521V15H112.641ZM120.691 15.163C120.179 15.163 119.718 15.0719 119.308 14.8896C118.901 14.7038 118.579 14.4304 118.34 14.0693C118.106 13.7083 117.988 13.2631 117.988 12.7338C117.988 12.2781 118.072 11.9013 118.24 11.6033C118.409 11.3054 118.638 11.067 118.929 10.8883C119.22 10.7095 119.548 10.5745 119.913 10.4834C120.281 10.3888 120.661 10.3204 121.054 10.2783C121.527 10.2293 121.911 10.1854 122.205 10.1469C122.499 10.1048 122.713 10.0417 122.846 9.9576C122.983 9.86997 123.052 9.73502 123.052 9.55274V9.52119C123.052 9.12509 122.934 8.81838 122.699 8.60105C122.464 8.38372 122.126 8.27505 121.684 8.27505C121.218 8.27505 120.848 8.37671 120.575 8.58002C120.305 8.78332 120.123 9.02344 120.028 9.30036L118.251 9.04797C118.391 8.55723 118.623 8.14711 118.945 7.81761C119.268 7.4846 119.662 7.23573 120.128 7.07098C120.594 6.90272 121.11 6.81859 121.674 6.81859C122.063 6.81859 122.45 6.86416 122.836 6.9553C123.222 7.04644 123.574 7.19717 123.893 7.40749C124.212 7.6143 124.468 7.89648 124.66 8.25402C124.857 8.61156 124.955 9.05849 124.955 9.5948V15H123.125V13.8906H123.062C122.946 14.1149 122.783 14.3252 122.573 14.5215C122.366 14.7143 122.105 14.8703 121.79 14.9895C121.478 15.1052 121.111 15.163 120.691 15.163ZM121.185 13.7644C121.567 13.7644 121.898 13.689 122.179 13.5383C122.459 13.384 122.675 13.1807 122.825 12.9284C122.98 12.676 123.057 12.4008 123.057 12.1029V11.1512C122.997 11.2002 122.896 11.2458 122.752 11.2879C122.612 11.3299 122.454 11.3667 122.279 11.3983C122.103 11.4298 121.93 11.4579 121.758 11.4824C121.586 11.507 121.437 11.528 121.311 11.5455C121.027 11.5841 120.773 11.6472 120.549 11.7348C120.324 11.8224 120.147 11.9451 120.018 12.1029C119.888 12.2571 119.823 12.4569 119.823 12.7023C119.823 13.0528 119.951 13.3174 120.207 13.4962C120.463 13.675 120.789 13.7644 121.185 13.7644ZM130.902 6.92375V8.39599H126.259V6.92375H130.902ZM127.405 4.98882H129.309V12.5708C129.309 12.8267 129.347 13.023 129.424 13.1597C129.505 13.2929 129.61 13.384 129.74 13.4331C129.869 13.4822 130.013 13.5067 130.171 13.5067C130.29 13.5067 130.399 13.498 130.497 13.4804C130.598 13.4629 130.676 13.4471 130.728 13.4331L131.049 14.9211C130.947 14.9562 130.802 14.9947 130.613 15.0368C130.427 15.0789 130.199 15.1034 129.929 15.1104C129.452 15.1244 129.023 15.0526 128.641 14.8948C128.259 14.7336 127.955 14.4847 127.731 14.1482C127.51 13.8117 127.402 13.3911 127.405 12.8863V4.98882ZM132.494 15V6.92375H134.397V15H132.494ZM133.45 5.77752C133.149 5.77752 132.89 5.67761 132.672 5.47781C132.455 5.2745 132.346 5.03088 132.346 4.74695C132.346 4.45952 132.455 4.2159 132.672 4.01609C132.89 3.81279 133.149 3.71113 133.45 3.71113C133.755 3.71113 134.015 3.81279 134.229 4.01609C134.446 4.2159 134.555 4.45952 134.555 4.74695C134.555 5.03088 134.446 5.2745 134.229 5.47781C134.015 5.67761 133.755 5.77752 133.45 5.77752ZM139.877 15.1577C139.088 15.1577 138.405 14.9842 137.826 14.6372C137.248 14.2902 136.799 13.8047 136.48 13.1807C136.165 12.5568 136.007 11.8277 136.007 10.9934C136.007 10.1592 136.165 9.4283 136.48 8.80085C136.799 8.1734 137.248 7.68616 137.826 7.33913C138.405 6.99211 139.088 6.81859 139.877 6.81859C140.666 6.81859 141.349 6.99211 141.928 7.33913C142.506 7.68616 142.953 8.1734 143.268 8.80085C143.587 9.4283 143.747 10.1592 143.747 10.9934C143.747 11.8277 143.587 12.5568 143.268 13.1807C142.953 13.8047 142.506 14.2902 141.928 14.6372C141.349 14.9842 140.666 15.1577 139.877 15.1577ZM139.888 13.6329C140.315 13.6329 140.673 13.5155 140.96 13.2806C141.248 13.0423 141.461 12.7233 141.602 12.3237C141.745 11.9241 141.817 11.4789 141.817 10.9882C141.817 10.4939 141.745 10.047 141.602 9.64738C141.461 9.24427 141.248 8.92354 140.96 8.68517C140.673 8.44681 140.315 8.32763 139.888 8.32763C139.449 8.32763 139.085 8.44681 138.794 8.68517C138.506 8.92354 138.291 9.24427 138.147 9.64738C138.007 10.047 137.937 10.4939 137.937 10.9882C137.937 11.4789 138.007 11.9241 138.147 12.3237C138.291 12.7233 138.506 13.0423 138.794 13.2806C139.085 13.5155 139.449 13.6329 139.888 13.6329ZM147.266 10.2678V15H145.362V6.92375H147.182V8.29608H147.276C147.462 7.8439 147.758 7.4846 148.165 7.2182C148.575 6.9518 149.082 6.81859 149.684 6.81859C150.242 6.81859 150.727 6.93777 151.141 7.17614C151.558 7.4145 151.881 7.75977 152.108 8.21196C152.34 8.66414 152.454 9.21272 152.45 9.8577V15H150.547V10.1521C150.547 9.61233 150.407 9.18994 150.126 8.88498C149.849 8.58001 149.465 8.42753 148.975 8.42753C148.642 8.42753 148.345 8.50115 148.086 8.64837C147.83 8.79209 147.629 9.00065 147.481 9.27407C147.338 9.54748 147.266 9.87873 147.266 10.2678ZM164.441 9.05849L162.706 9.24778C162.657 9.07251 162.571 8.90776 162.448 8.75353C162.329 8.59929 162.168 8.47486 161.964 8.38021C161.761 8.28557 161.512 8.23825 161.218 8.23825C160.822 8.23825 160.489 8.32413 160.219 8.49589C159.952 8.66765 159.821 8.89024 159.824 9.16365C159.821 9.39851 159.907 9.58955 160.082 9.73677C160.261 9.88399 160.555 10.0049 160.965 10.0996L162.343 10.394C163.107 10.5588 163.675 10.8199 164.047 11.1775C164.422 11.535 164.611 12.003 164.615 12.5813C164.611 13.0896 164.462 13.5383 164.168 13.9274C163.877 14.313 163.472 14.6144 162.953 14.8317C162.434 15.0491 161.838 15.1577 161.165 15.1577C160.177 15.1577 159.381 14.9509 158.778 14.5373C158.175 14.1202 157.816 13.54 157.7 12.7969L159.556 12.6181C159.64 12.9827 159.819 13.2579 160.093 13.4436C160.366 13.6294 160.722 13.7223 161.16 13.7223C161.612 13.7223 161.975 13.6294 162.248 13.4436C162.525 13.2579 162.664 13.0283 162.664 12.7548C162.664 12.5235 162.574 12.3325 162.396 12.1817C162.22 12.031 161.947 11.9153 161.575 11.8347L160.198 11.5455C159.423 11.3843 158.85 11.1126 158.478 10.7305C158.107 10.3449 157.923 9.8577 157.926 9.26881C157.923 8.77105 158.058 8.3399 158.331 7.97535C158.608 7.60729 158.992 7.32336 159.483 7.12356C159.977 6.92025 160.547 6.81859 161.192 6.81859C162.138 6.81859 162.883 7.02015 163.426 7.42326C163.973 7.82637 164.311 8.37145 164.441 9.05849ZM169.759 15.1577C168.95 15.1577 168.25 14.9895 167.661 14.653C167.076 14.313 166.626 13.8327 166.31 13.2123C165.995 12.5883 165.837 11.854 165.837 11.0092C165.837 10.1784 165.995 9.44933 166.31 8.82188C166.629 8.19092 167.074 7.70018 167.646 7.34965C168.217 6.99561 168.888 6.81859 169.66 6.81859C170.157 6.81859 170.627 6.89922 171.069 7.06046C171.514 7.2182 171.906 7.46357 172.246 7.79658C172.59 8.12958 172.86 8.55372 173.056 9.06901C173.252 9.58078 173.351 10.1907 173.351 10.8988V11.4824H166.731V10.1995H171.526C171.523 9.83492 171.444 9.51068 171.289 9.22675C171.135 8.93931 170.92 8.71322 170.643 8.54847C170.369 8.38372 170.05 8.30134 169.686 8.30134C169.297 8.30134 168.955 8.39599 168.661 8.58527C168.366 8.77105 168.136 9.01643 167.972 9.32139C167.81 9.62285 167.728 9.9541 167.725 10.3151V11.4351C167.725 11.9048 167.81 12.3079 167.982 12.6444C168.154 12.9774 168.394 13.2333 168.703 13.4121C169.011 13.5874 169.372 13.675 169.786 13.675C170.063 13.675 170.313 13.6364 170.538 13.5593C170.762 13.4787 170.956 13.3613 171.121 13.207C171.286 13.0528 171.41 12.8618 171.495 12.6339L173.272 12.8337C173.16 13.3034 172.946 13.7135 172.63 14.0641C172.318 14.4111 171.919 14.681 171.431 14.8738C170.944 15.0631 170.387 15.1577 169.759 15.1577ZM174.961 15V6.92375H176.806V8.26979H176.891C177.038 7.80359 177.29 7.44429 177.648 7.19191C178.009 6.93602 178.421 6.80808 178.883 6.80808C178.988 6.80808 179.106 6.81334 179.236 6.82385C179.369 6.83086 179.479 6.84313 179.567 6.86066V8.61156C179.486 8.58352 179.358 8.55898 179.183 8.53795C179.011 8.51341 178.845 8.50115 178.684 8.50115C178.336 8.50115 178.025 8.57651 177.748 8.72724C177.474 8.87446 177.259 9.07952 177.101 9.34242C176.943 9.60532 176.864 9.90853 176.864 10.2521V15H174.961ZM188.291 6.92375L185.415 15H183.312L180.436 6.92375H182.465L184.321 12.9231H184.406L186.267 6.92375H188.291ZM189.608 15V6.92375H191.512V15H189.608ZM190.565 5.77752C190.264 5.77752 190.004 5.67761 189.787 5.47781C189.57 5.2745 189.461 5.03088 189.461 4.74695C189.461 4.45952 189.57 4.2159 189.787 4.01609C190.004 3.81279 190.264 3.71113 190.565 3.71113C190.87 3.71113 191.13 3.81279 191.343 4.01609C191.561 4.2159 191.669 4.45952 191.669 4.74695C191.669 5.03088 191.561 5.2745 191.343 5.47781C191.13 5.67761 190.87 5.77752 190.565 5.77752ZM196.992 15.1577C196.186 15.1577 195.493 14.9807 194.915 14.6267C194.34 14.2726 193.897 13.7837 193.585 13.1597C193.276 12.5323 193.122 11.8102 193.122 10.9934C193.122 10.1732 193.28 9.44933 193.595 8.82188C193.911 8.19092 194.356 7.70018 194.931 7.34965C195.509 6.99561 196.193 6.81859 196.981 6.81859C197.637 6.81859 198.217 6.93953 198.722 7.18139C199.23 7.41976 199.635 7.75802 199.936 8.19618C200.238 8.63084 200.409 9.13911 200.452 9.721H198.632C198.559 9.33191 198.383 9.00766 198.106 8.74827C197.833 8.48537 197.467 8.35392 197.008 8.35392C196.618 8.35392 196.277 8.45908 195.982 8.6694C195.688 8.87621 195.458 9.17417 195.293 9.56326C195.132 9.95235 195.052 10.4186 195.052 10.9619C195.052 11.5122 195.132 11.9854 195.293 12.3815C195.455 12.7741 195.681 13.0773 195.972 13.2912C196.266 13.5015 196.611 13.6066 197.008 13.6066C197.288 13.6066 197.539 13.5541 197.759 13.4489C197.984 13.3402 198.171 13.1842 198.322 12.9809C198.473 12.7776 198.576 12.5305 198.632 12.2396H200.452C200.406 12.8109 200.238 13.3174 199.947 13.7591C199.656 14.1973 199.26 14.5408 198.758 14.7897C198.257 15.0351 197.668 15.1577 196.992 15.1577ZM205.59 15.1577C204.78 15.1577 204.081 14.9895 203.492 14.653C202.907 14.313 202.456 13.8327 202.141 13.2123C201.825 12.5883 201.667 11.854 201.667 11.0092C201.667 10.1784 201.825 9.44933 202.141 8.82188C202.46 8.19092 202.905 7.70018 203.476 7.34965C204.048 6.99561 204.719 6.81859 205.49 6.81859C205.988 6.81859 206.457 6.89922 206.899 7.06046C207.344 7.2182 207.737 7.46357 208.077 7.79658C208.42 8.12958 208.69 8.55372 208.887 9.06901C209.083 9.58078 209.181 10.1907 209.181 10.8988V11.4824H202.561V10.1995H207.357C207.353 9.83492 207.274 9.51068 207.12 9.22675C206.966 8.93931 206.75 8.71322 206.473 8.54847C206.2 8.38372 205.881 8.30134 205.516 8.30134C205.127 8.30134 204.785 8.39599 204.491 8.58527C204.197 8.77105 203.967 9.01643 203.802 9.32139C203.641 9.62285 203.559 9.9541 203.555 10.3151V11.4351C203.555 11.9048 203.641 12.3079 203.813 12.6444C203.984 12.9774 204.225 13.2333 204.533 13.4121C204.842 13.5874 205.203 13.675 205.616 13.675C205.893 13.675 206.144 13.6364 206.368 13.5593C206.592 13.4787 206.787 13.3613 206.952 13.207C207.116 13.0528 207.241 12.8618 207.325 12.6339L209.102 12.8337C208.99 13.3034 208.776 13.7135 208.461 14.0641C208.149 14.4111 207.749 14.681 207.262 14.8738C206.775 15.0631 206.217 15.1577 205.59 15.1577ZM217.175 9.05849L215.439 9.24778C215.39 9.07251 215.304 8.90776 215.182 8.75353C215.063 8.59929 214.901 8.47486 214.698 8.38021C214.495 8.28557 214.246 8.23825 213.951 8.23825C213.555 8.23825 213.222 8.32413 212.952 8.49589C212.686 8.66765 212.555 8.89024 212.558 9.16365C212.555 9.39851 212.64 9.58955 212.816 9.73677C212.994 9.88399 213.289 10.0049 213.699 10.0996L215.077 10.394C215.841 10.5588 216.409 10.8199 216.78 11.1775C217.155 11.535 217.345 12.003 217.348 12.5813C217.345 13.0896 217.196 13.5383 216.901 13.9274C216.61 14.313 216.205 14.6144 215.687 14.8317C215.168 15.0491 214.572 15.1577 213.899 15.1577C212.91 15.1577 212.115 14.9509 211.512 14.5373C210.909 14.1202 210.549 13.54 210.434 12.7969L212.29 12.6181C212.374 12.9827 212.553 13.2579 212.826 13.4436C213.1 13.6294 213.455 13.7223 213.894 13.7223C214.346 13.7223 214.709 13.6294 214.982 13.4436C215.259 13.2579 215.397 13.0283 215.397 12.7548C215.397 12.5235 215.308 12.3325 215.129 12.1817C214.954 12.031 214.68 11.9153 214.309 11.8347L212.931 11.5455C212.157 11.3843 211.584 11.1126 211.212 10.7305C210.84 10.3449 210.656 9.8577 210.66 9.26881C210.656 8.77105 210.791 8.3399 211.065 7.97535C211.342 7.60729 211.726 7.32336 212.216 7.12356C212.71 6.92025 213.28 6.81859 213.925 6.81859C214.872 6.81859 215.616 7.02015 216.16 7.42326C216.707 7.82637 217.045 8.37145 217.175 9.05849ZM225.587 15.142C224.953 15.142 224.385 14.979 223.884 14.653C223.382 14.327 222.986 13.8538 222.695 13.2333C222.404 12.6129 222.259 11.8592 222.259 10.9724C222.259 10.075 222.406 9.31788 222.701 8.70095C222.999 8.08051 223.4 7.61255 223.905 7.29707C224.409 6.97809 224.972 6.81859 225.593 6.81859C226.066 6.81859 226.455 6.89922 226.76 7.06046C227.065 7.2182 227.307 7.40924 227.485 7.63358C227.664 7.85441 227.803 8.06298 227.901 8.25928H227.98V4.23167H229.888V15H228.016V13.7276H227.901C227.803 13.9239 227.661 14.1324 227.475 14.3533C227.289 14.5706 227.044 14.7564 226.739 14.9106C226.434 15.0648 226.05 15.142 225.587 15.142ZM226.118 13.5803C226.521 13.5803 226.865 13.4717 227.149 13.2544C227.433 13.0335 227.648 12.7268 227.796 12.3342C227.943 11.9416 228.016 11.4842 228.016 10.9619C228.016 10.4396 227.943 9.98565 227.796 9.60006C227.652 9.21448 227.438 8.91477 227.154 8.70095C226.874 8.48712 226.528 8.38021 226.118 8.38021C225.694 8.38021 225.34 8.49063 225.056 8.71146C224.772 8.9323 224.558 9.23726 224.415 9.62635C224.271 10.0154 224.199 10.4606 224.199 10.9619C224.199 11.4666 224.271 11.9171 224.415 12.3132C224.562 12.7058 224.778 13.016 225.061 13.2438C225.349 13.4682 225.701 13.5803 226.118 13.5803ZM235.439 15.1577C234.651 15.1577 233.967 14.9842 233.389 14.6372C232.81 14.2902 232.362 13.8047 232.043 13.1807C231.727 12.5568 231.57 11.8277 231.57 10.9934C231.57 10.1592 231.727 9.4283 232.043 8.80085C232.362 8.1734 232.81 7.68616 233.389 7.33913C233.967 6.99211 234.651 6.81859 235.439 6.81859C236.228 6.81859 236.912 6.99211 237.49 7.33913C238.068 7.68616 238.515 8.1734 238.831 8.80085C239.15 9.4283 239.309 10.1592 239.309 10.9934C239.309 11.8277 239.15 12.5568 238.831 13.1807C238.515 13.8047 238.068 14.2902 237.49 14.6372C236.912 14.9842 236.228 15.1577 235.439 15.1577ZM235.45 13.6329C235.878 13.6329 236.235 13.5155 236.523 13.2806C236.81 13.0423 237.024 12.7233 237.164 12.3237C237.308 11.9241 237.38 11.4789 237.38 10.9882C237.38 10.4939 237.308 10.047 237.164 9.64738C237.024 9.24427 236.81 8.92354 236.523 8.68517C236.235 8.44681 235.878 8.32763 235.45 8.32763C235.012 8.32763 234.647 8.44681 234.356 8.68517C234.069 8.92354 233.853 9.24427 233.71 9.64738C233.569 10.047 233.499 10.4939 233.499 10.9882C233.499 11.4789 233.569 11.9241 233.71 12.3237C233.853 12.7233 234.069 13.0423 234.356 13.2806C234.647 13.5155 235.012 13.6329 235.45 13.6329ZM244.5 15.1577C243.69 15.1577 242.991 14.9895 242.402 14.653C241.817 14.313 241.366 13.8327 241.051 13.2123C240.735 12.5883 240.578 11.854 240.578 11.0092C240.578 10.1784 240.735 9.44933 241.051 8.82188C241.37 8.19092 241.815 7.70018 242.386 7.34965C242.958 6.99561 243.629 6.81859 244.4 6.81859C244.898 6.81859 245.368 6.89922 245.809 7.06046C246.255 7.2182 246.647 7.46357 246.987 7.79658C247.331 8.12958 247.601 8.55372 247.797 9.06901C247.993 9.58078 248.091 10.1907 248.091 10.8988V11.4824H241.472V10.1995H246.267C246.263 9.83492 246.185 9.51068 246.03 9.22675C245.876 8.93931 245.66 8.71322 245.384 8.54847C245.11 8.38372 244.791 8.30134 244.427 8.30134C244.037 8.30134 243.696 8.39599 243.401 8.58527C243.107 8.77105 242.877 9.01643 242.712 9.32139C242.551 9.62285 242.469 9.9541 242.465 10.3151V11.4351C242.465 11.9048 242.551 12.3079 242.723 12.6444C242.895 12.9774 243.135 13.2333 243.443 13.4121C243.752 13.5874 244.113 13.675 244.526 13.675C244.803 13.675 245.054 13.6364 245.278 13.5593C245.503 13.4787 245.697 13.3613 245.862 13.207C246.027 13.0528 246.151 12.8618 246.235 12.6339L248.013 12.8337C247.9 13.3034 247.687 13.7135 247.371 14.0641C247.059 14.4111 246.659 14.681 246.172 14.8738C245.685 15.0631 245.128 15.1577 244.5 15.1577ZM256.085 9.05849L254.35 9.24778C254.301 9.07251 254.215 8.90776 254.092 8.75353C253.973 8.59929 253.812 8.47486 253.608 8.38021C253.405 8.28557 253.156 8.23825 252.862 8.23825C252.466 8.23825 252.133 8.32413 251.863 8.49589C251.596 8.66765 251.465 8.89024 251.468 9.16365C251.465 9.39851 251.551 9.58955 251.726 9.73677C251.905 9.88399 252.199 10.0049 252.609 10.0996L253.987 10.394C254.751 10.5588 255.319 10.8199 255.69 11.1775C256.066 11.535 256.255 12.003 256.258 12.5813C256.255 13.0896 256.106 13.5383 255.811 13.9274C255.52 14.313 255.116 14.6144 254.597 14.8317C254.078 15.0491 253.482 15.1577 252.809 15.1577C251.821 15.1577 251.025 14.9509 250.422 14.5373C249.819 14.1202 249.46 13.54 249.344 12.7969L251.2 12.6181C251.284 12.9827 251.463 13.2579 251.736 13.4436C252.01 13.6294 252.366 13.7223 252.804 13.7223C253.256 13.7223 253.619 13.6294 253.892 13.4436C254.169 13.2579 254.308 13.0283 254.308 12.7548C254.308 12.5235 254.218 12.3325 254.039 12.1817C253.864 12.031 253.591 11.9153 253.219 11.8347L251.842 11.5455C251.067 11.3843 250.494 11.1126 250.122 10.7305C249.751 10.3449 249.567 9.8577 249.57 9.26881C249.567 8.77105 249.702 8.3399 249.975 7.97535C250.252 7.60729 250.636 7.32336 251.127 7.12356C251.621 6.92025 252.19 6.81859 252.835 6.81859C253.782 6.81859 254.527 7.02015 255.07 7.42326C255.617 7.82637 255.955 8.37145 256.085 9.05849ZM261.385 15V13.7854L266.906 5.8669H261.353V4.23167H269.324V5.44626L263.809 13.3648H269.356V15H261.385ZM271.244 15V4.23167H278.142V5.8669H273.194V8.79033H277.669V10.4256H273.194V15H271.244ZM292.809 7.86493H290.843C290.787 7.54244 290.683 7.25676 290.532 7.00788C290.382 6.7555 290.194 6.54167 289.97 6.36641C289.746 6.19114 289.49 6.05969 289.202 5.97206C288.918 5.88092 288.612 5.83535 288.282 5.83535C287.697 5.83535 287.178 5.98258 286.726 6.27702C286.273 6.56796 285.919 6.99561 285.664 7.55997C285.408 8.12082 285.28 8.80611 285.28 9.61584C285.28 10.4396 285.408 11.1336 285.664 11.698C285.923 12.2588 286.277 12.683 286.726 12.9704C287.178 13.2544 287.695 13.3963 288.277 13.3963C288.599 13.3963 288.901 13.3543 289.181 13.2701C289.465 13.1825 289.719 13.0545 289.944 12.8863C290.171 12.718 290.362 12.5112 290.517 12.2659C290.674 12.0205 290.783 11.7401 290.843 11.4246L292.809 11.4351C292.736 11.9469 292.576 12.4271 292.331 12.8758C292.089 13.3245 291.772 13.7206 291.379 14.0641C290.986 14.4041 290.527 14.6705 290.001 14.8633C289.476 15.0526 288.892 15.1472 288.25 15.1472C287.304 15.1472 286.459 14.9281 285.716 14.49C284.973 14.0518 284.388 13.4191 283.96 12.5918C283.532 11.7646 283.319 10.7726 283.319 9.61584C283.319 8.45558 283.534 7.46357 283.965 6.63982C284.396 5.81257 284.984 5.17986 285.727 4.74169C286.47 4.30353 287.311 4.08445 288.25 4.08445C288.85 4.08445 289.407 4.16858 289.923 4.33683C290.438 4.50509 290.897 4.75221 291.3 5.0782C291.703 5.40069 292.034 5.79679 292.294 6.26651C292.557 6.73271 292.729 7.26552 292.809 7.86493ZM296.835 15.163C296.324 15.163 295.863 15.0719 295.453 14.8896C295.046 14.7038 294.723 14.4304 294.485 14.0693C294.25 13.7083 294.133 13.2631 294.133 12.7338C294.133 12.2781 294.217 11.9013 294.385 11.6033C294.553 11.3054 294.783 11.067 295.074 10.8883C295.365 10.7095 295.693 10.5745 296.057 10.4834C296.425 10.3888 296.806 10.3204 297.198 10.2783C297.671 10.2293 298.055 10.1854 298.35 10.1469C298.644 10.1048 298.858 10.0417 298.991 9.9576C299.128 9.86997 299.196 9.73502 299.196 9.55274V9.52119C299.196 9.12509 299.079 8.81838 298.844 8.60105C298.609 8.38372 298.271 8.27505 297.829 8.27505C297.363 8.27505 296.993 8.37671 296.72 8.58002C296.45 8.78332 296.268 9.02344 296.173 9.30036L294.396 9.04797C294.536 8.55723 294.767 8.14711 295.09 7.81761C295.412 7.4846 295.807 7.23573 296.273 7.07098C296.739 6.90272 297.254 6.81859 297.819 6.81859C298.208 6.81859 298.595 6.86416 298.981 6.9553C299.366 7.04644 299.719 7.19717 300.038 7.40749C300.357 7.6143 300.612 7.89648 300.805 8.25402C301.001 8.61156 301.1 9.05849 301.1 9.5948V15H299.27V13.8906H299.207C299.091 14.1149 298.928 14.3252 298.718 14.5215C298.511 14.7143 298.25 14.8703 297.934 14.9895C297.622 15.1052 297.256 15.163 296.835 15.163ZM297.33 13.7644C297.712 13.7644 298.043 13.689 298.323 13.5383C298.604 13.384 298.819 13.1807 298.97 12.9284C299.124 12.676 299.202 12.4008 299.202 12.1029V11.1512C299.142 11.2002 299.04 11.2458 298.897 11.2879C298.756 11.3299 298.599 11.3667 298.423 11.3983C298.248 11.4298 298.075 11.4579 297.903 11.4824C297.731 11.507 297.582 11.528 297.456 11.5455C297.172 11.5841 296.918 11.6472 296.693 11.7348C296.469 11.8224 296.292 11.9451 296.162 12.1029C296.033 12.2571 295.968 12.4569 295.968 12.7023C295.968 13.0528 296.096 13.3174 296.352 13.4962C296.608 13.675 296.934 13.7644 297.33 13.7644ZM304.917 10.2678V15H303.014V6.92375H304.833V8.29608H304.927C305.113 7.8439 305.409 7.4846 305.816 7.2182C306.226 6.9518 306.733 6.81859 307.336 6.81859C307.893 6.81859 308.378 6.93777 308.792 7.17614C309.209 7.4145 309.532 7.75977 309.76 8.21196C309.991 8.66414 310.105 9.21272 310.101 9.8577V15H308.198V10.1521C308.198 9.61233 308.058 9.18994 307.777 8.88498C307.5 8.58001 307.117 8.42753 306.626 8.42753C306.293 8.42753 305.997 8.50115 305.737 8.64837C305.481 8.79209 305.28 9.00065 305.133 9.27407C304.989 9.54748 304.917 9.87873 304.917 10.2678ZM314.36 15.163C313.848 15.163 313.388 15.0719 312.977 14.8896C312.571 14.7038 312.248 14.4304 312.01 14.0693C311.775 13.7083 311.658 13.2631 311.658 12.7338C311.658 12.2781 311.742 11.9013 311.91 11.6033C312.078 11.3054 312.308 11.067 312.599 10.8883C312.89 10.7095 313.218 10.5745 313.582 10.4834C313.95 10.3888 314.33 10.3204 314.723 10.2783C315.196 10.2293 315.58 10.1854 315.875 10.1469C316.169 10.1048 316.383 10.0417 316.516 9.9576C316.653 9.86997 316.721 9.73502 316.721 9.55274V9.52119C316.721 9.12509 316.604 8.81838 316.369 8.60105C316.134 8.38372 315.796 8.27505 315.354 8.27505C314.888 8.27505 314.518 8.37671 314.245 8.58002C313.975 8.78332 313.792 9.02344 313.698 9.30036L311.921 9.04797C312.061 8.55723 312.292 8.14711 312.615 7.81761C312.937 7.4846 313.331 7.23573 313.798 7.07098C314.264 6.90272 314.779 6.81859 315.344 6.81859C315.733 6.81859 316.12 6.86416 316.506 6.9553C316.891 7.04644 317.243 7.19717 317.562 7.40749C317.881 7.6143 318.137 7.89648 318.33 8.25402C318.526 8.61156 318.624 9.05849 318.624 9.5948V15H316.795V13.8906H316.732C316.616 14.1149 316.453 14.3252 316.243 14.5215C316.036 14.7143 315.775 14.8703 315.459 14.9895C315.147 15.1052 314.781 15.163 314.36 15.163ZM314.855 13.7644C315.237 13.7644 315.568 13.689 315.848 13.5383C316.129 13.384 316.344 13.1807 316.495 12.9284C316.649 12.676 316.726 12.4008 316.726 12.1029V11.1512C316.667 11.2002 316.565 11.2458 316.421 11.2879C316.281 11.3299 316.123 11.3667 315.948 11.3983C315.773 11.4298 315.599 11.4579 315.428 11.4824C315.256 11.507 315.107 11.528 314.981 11.5455C314.697 11.5841 314.443 11.6472 314.218 11.7348C313.994 11.8224 313.817 11.9451 313.687 12.1029C313.558 12.2571 313.493 12.4569 313.493 12.7023C313.493 13.0528 313.621 13.3174 313.877 13.4962C314.132 13.675 314.458 13.7644 314.855 13.7644ZM323.535 15.142C322.901 15.142 322.333 14.979 321.832 14.653C321.331 14.327 320.934 13.8538 320.644 13.2333C320.353 12.6129 320.207 11.8592 320.207 10.9724C320.207 10.075 320.354 9.31788 320.649 8.70095C320.947 8.08051 321.348 7.61255 321.853 7.29707C322.358 6.97809 322.92 6.81859 323.541 6.81859C324.014 6.81859 324.403 6.89922 324.708 7.06046C325.013 7.2182 325.255 7.40924 325.434 7.63358C325.612 7.85441 325.751 8.06298 325.849 8.25928H325.928V4.23167H327.836V15H325.965V13.7276H325.849C325.751 13.9239 325.609 14.1324 325.423 14.3533C325.237 14.5706 324.992 14.7564 324.687 14.9106C324.382 15.0648 323.998 15.142 323.535 15.142ZM324.066 13.5803C324.47 13.5803 324.813 13.4717 325.097 13.2544C325.381 13.0335 325.597 12.7268 325.744 12.3342C325.891 11.9416 325.965 11.4842 325.965 10.9619C325.965 10.4396 325.891 9.98565 325.744 9.60006C325.6 9.21448 325.386 8.91477 325.102 8.70095C324.822 8.48712 324.477 8.38021 324.066 8.38021C323.642 8.38021 323.288 8.49063 323.004 8.71146C322.72 8.9323 322.507 9.23726 322.363 9.62635C322.219 10.0154 322.147 10.4606 322.147 10.9619C322.147 11.4666 322.219 11.9171 322.363 12.3132C322.51 12.7058 322.726 13.016 323.01 13.2438C323.297 13.4682 323.649 13.5803 324.066 13.5803ZM332.189 15.163C331.677 15.163 331.216 15.0719 330.806 14.8896C330.399 14.7038 330.077 14.4304 329.838 14.0693C329.604 13.7083 329.486 13.2631 329.486 12.7338C329.486 12.2781 329.57 11.9013 329.739 11.6033C329.907 11.3054 330.136 11.067 330.427 10.8883C330.718 10.7095 331.046 10.5745 331.411 10.4834C331.779 10.3888 332.159 10.3204 332.552 10.2783C333.025 10.2293 333.409 10.1854 333.703 10.1469C333.997 10.1048 334.211 10.0417 334.344 9.9576C334.481 9.86997 334.55 9.73502 334.55 9.55274V9.52119C334.55 9.12509 334.432 8.81838 334.197 8.60105C333.962 8.38372 333.624 8.27505 333.182 8.27505C332.716 8.27505 332.346 8.37671 332.073 8.58002C331.803 8.78332 331.621 9.02344 331.526 9.30036L329.749 9.04797C329.889 8.55723 330.121 8.14711 330.443 7.81761C330.766 7.4846 331.16 7.23573 331.626 7.07098C332.092 6.90272 332.608 6.81859 333.172 6.81859C333.561 6.81859 333.948 6.86416 334.334 6.9553C334.72 7.04644 335.072 7.19717 335.391 7.40749C335.71 7.6143 335.966 7.89648 336.158 8.25402C336.355 8.61156 336.453 9.05849 336.453 9.5948V15H334.623V13.8906H334.56C334.444 14.1149 334.281 14.3252 334.071 14.5215C333.864 14.7143 333.603 14.8703 333.288 14.9895C332.976 15.1052 332.609 15.163 332.189 15.163ZM332.683 13.7644C333.065 13.7644 333.396 13.689 333.677 13.5383C333.957 13.384 334.173 13.1807 334.323 12.9284C334.478 12.676 334.555 12.4008 334.555 12.1029V11.1512C334.495 11.2002 334.394 11.2458 334.25 11.2879C334.11 11.3299 333.952 11.3667 333.777 11.3983C333.601 11.4298 333.428 11.4579 333.256 11.4824C333.084 11.507 332.935 11.528 332.809 11.5455C332.525 11.5841 332.271 11.6472 332.047 11.7348C331.822 11.8224 331.645 11.9451 331.516 12.1029C331.386 12.2571 331.321 12.4569 331.321 12.7023C331.321 13.0528 331.449 13.3174 331.705 13.4962C331.961 13.675 332.287 13.7644 332.683 13.7644ZM345.562 15.1577C344.774 15.1577 344.09 14.9842 343.512 14.6372C342.933 14.2902 342.485 13.8047 342.166 13.1807C341.85 12.5568 341.693 11.8277 341.693 10.9934C341.693 10.1592 341.85 9.4283 342.166 8.80085C342.485 8.1734 342.933 7.68616 343.512 7.33913C344.09 6.99211 344.774 6.81859 345.562 6.81859C346.351 6.81859 347.035 6.99211 347.613 7.33913C348.191 7.68616 348.638 8.1734 348.954 8.80085C349.273 9.4283 349.432 10.1592 349.432 10.9934C349.432 11.8277 349.273 12.5568 348.954 13.1807C348.638 13.8047 348.191 14.2902 347.613 14.6372C347.035 14.9842 346.351 15.1577 345.562 15.1577ZM345.573 13.6329C346.001 13.6329 346.358 13.5155 346.646 13.2806C346.933 13.0423 347.147 12.7233 347.287 12.3237C347.431 11.9241 347.503 11.4789 347.503 10.9882C347.503 10.4939 347.431 10.047 347.287 9.64738C347.147 9.24427 346.933 8.92354 346.646 8.68517C346.358 8.44681 346.001 8.32763 345.573 8.32763C345.135 8.32763 344.77 8.44681 344.479 8.68517C344.192 8.92354 343.976 9.24427 343.833 9.64738C343.692 10.047 343.622 10.4939 343.622 10.9882C343.622 11.4789 343.692 11.9241 343.833 12.3237C343.976 12.7233 344.192 13.0423 344.479 13.2806C344.77 13.5155 345.135 13.6329 345.573 13.6329ZM355.138 6.92375V8.39599H350.364V6.92375H355.138ZM351.558 15V6.16135C351.558 5.61802 351.67 5.16584 351.894 4.80479C352.122 4.44374 352.427 4.17383 352.809 3.99506C353.191 3.81629 353.615 3.72691 354.082 3.72691C354.411 3.72691 354.704 3.7532 354.96 3.80578C355.216 3.85836 355.405 3.90568 355.528 3.94774L355.149 5.41997C355.068 5.39544 354.967 5.3709 354.844 5.34636C354.721 5.31832 354.585 5.3043 354.434 5.3043C354.08 5.3043 353.829 5.39018 353.682 5.56194C353.538 5.73019 353.466 5.97206 353.466 6.28754V15H351.558ZM360.72 6.92375V8.39599H355.946V6.92375H360.72ZM357.139 15V6.16135C357.139 5.61802 357.251 5.16584 357.476 4.80479C357.703 4.44374 358.008 4.17383 358.391 3.99506C358.773 3.81629 359.197 3.72691 359.663 3.72691C359.992 3.72691 360.285 3.7532 360.541 3.80578C360.797 3.85836 360.986 3.90568 361.109 3.94774L360.73 5.41997C360.65 5.39544 360.548 5.3709 360.425 5.34636C360.303 5.31832 360.166 5.3043 360.015 5.3043C359.661 5.3043 359.411 5.39018 359.263 5.56194C359.12 5.73019 359.048 5.97206 359.048 6.28754V15H357.139ZM365.482 15.1577C364.672 15.1577 363.973 14.9895 363.384 14.653C362.799 14.313 362.348 13.8327 362.033 13.2123C361.717 12.5883 361.56 11.854 361.56 11.0092C361.56 10.1784 361.717 9.44933 362.033 8.82188C362.352 8.19092 362.797 7.70018 363.369 7.34965C363.94 6.99561 364.611 6.81859 365.382 6.81859C365.88 6.81859 366.35 6.89922 366.791 7.06046C367.237 7.2182 367.629 7.46357 367.969 7.79658C368.313 8.12958 368.583 8.55372 368.779 9.06901C368.975 9.58078 369.073 10.1907 369.073 10.8988V11.4824H362.454V10.1995H367.249C367.245 9.83492 367.167 9.51068 367.012 9.22675C366.858 8.93931 366.642 8.71322 366.366 8.54847C366.092 8.38372 365.773 8.30134 365.409 8.30134C365.02 8.30134 364.678 8.39599 364.383 8.58527C364.089 8.77105 363.859 9.01643 363.694 9.32139C363.533 9.62285 363.451 9.9541 363.447 10.3151V11.4351C363.447 11.9048 363.533 12.3079 363.705 12.6444C363.877 12.9774 364.117 13.2333 364.425 13.4121C364.734 13.5874 365.095 13.675 365.508 13.675C365.785 13.675 366.036 13.6364 366.26 13.5593C366.485 13.4787 366.679 13.3613 366.844 13.207C367.009 13.0528 367.133 12.8618 367.217 12.6339L368.995 12.8337C368.882 13.3034 368.669 13.7135 368.353 14.0641C368.041 14.4111 367.641 14.681 367.154 14.8738C366.667 15.0631 366.11 15.1577 365.482 15.1577ZM370.684 15V6.92375H372.529V8.26979H372.613C372.761 7.80359 373.013 7.44429 373.37 7.19191C373.732 6.93602 374.143 6.80808 374.606 6.80808C374.711 6.80808 374.829 6.81334 374.958 6.82385C375.092 6.83086 375.202 6.84313 375.29 6.86066V8.61156C375.209 8.58352 375.081 8.55898 374.906 8.53795C374.734 8.51341 374.568 8.50115 374.406 8.50115C374.059 8.50115 373.747 8.57651 373.47 8.72724C373.197 8.87446 372.981 9.07952 372.824 9.34242C372.666 9.60532 372.587 9.90853 372.587 10.2521V15H370.684ZM378.373 11.8347V11.698C378.377 11.0635 378.437 10.5588 378.552 10.1837C378.671 9.80863 378.84 9.50717 379.057 9.27933C379.274 9.04797 379.539 8.8359 379.851 8.64311C380.065 8.50991 380.256 8.36444 380.424 8.2067C380.596 8.04545 380.731 7.86668 380.829 7.67039C380.927 7.47058 380.976 7.248 380.976 7.00262C380.976 6.7257 380.911 6.48559 380.782 6.28228C380.652 6.07897 380.477 5.92123 380.256 5.80906C380.038 5.69689 379.795 5.64081 379.525 5.64081C379.276 5.64081 379.039 5.69514 378.815 5.80381C378.594 5.90896 378.41 6.07021 378.263 6.28754C378.119 6.50136 378.039 6.77302 378.021 7.10252H376.149C376.167 6.43651 376.328 5.87917 376.633 5.43049C376.942 4.98181 377.348 4.6453 377.853 4.42096C378.361 4.19662 378.922 4.08445 379.535 4.08445C380.205 4.08445 380.794 4.20188 381.302 4.43673C381.814 4.67159 382.212 5.00635 382.496 5.441C382.783 5.87216 382.927 6.38393 382.927 6.97633C382.927 7.37594 382.862 7.73348 382.732 8.04896C382.606 8.36444 382.426 8.64486 382.191 8.89024C381.956 9.13561 381.677 9.35469 381.355 9.54748C381.071 9.72275 380.838 9.90502 380.655 10.0943C380.477 10.2836 380.343 10.5062 380.256 10.7621C380.172 11.0145 380.128 11.3264 380.124 11.698V11.8347H378.373ZM379.288 15.1157C378.973 15.1157 378.701 15.0035 378.473 14.7792C378.246 14.5548 378.132 14.2814 378.132 13.9589C378.132 13.6434 378.246 13.3735 378.473 13.1492C378.701 12.9249 378.973 12.8127 379.288 12.8127C379.6 12.8127 379.87 12.9249 380.098 13.1492C380.329 13.3735 380.445 13.6434 380.445 13.9589C380.445 14.1727 380.391 14.3673 380.282 14.5426C380.177 14.7178 380.037 14.858 379.861 14.9632C379.69 15.0648 379.499 15.1157 379.288 15.1157Z" fill="#1B1139"/>
<rect opacity="0.8" y="6.16943" width="14.8065" height="2.46774" rx="1.23387" fill="#1B1139"/>
<rect opacity="0.8" x="8.6377" width="14.8065" height="2.46774" rx="1.23387" transform="rotate(90 8.6377 0)" fill="#1B1139"/>
</svg>
