<svg width="387" height="19" viewBox="0 0 387 19" fill="none" xmlns="http://www.w3.org/2000/svg">
<path opacity="0.88" d="M36.6026 7.86493H34.6361C34.58 7.54244 34.4766 7.25676 34.3259 7.00788C34.1751 6.7555 33.9876 6.54167 33.7633 6.36641C33.5389 6.19114 33.283 6.05969 32.9956 5.97206C32.7117 5.88092 32.405 5.83535 32.0755 5.83535C31.4901 5.83535 30.9713 5.98258 30.5191 6.27702C30.0669 6.56796 29.7129 6.99561 29.457 7.55997C29.2011 8.12082 29.0732 8.80611 29.0732 9.61584C29.0732 10.4396 29.2011 11.1336 29.457 11.698C29.7164 12.2588 30.0704 12.683 30.5191 12.9704C30.9713 13.2544 31.4883 13.3963 32.0702 13.3963C32.3927 13.3963 32.6942 13.3543 32.9746 13.2701C33.2585 13.1825 33.5126 13.0545 33.737 12.8863C33.9648 12.718 34.1559 12.5112 34.3101 12.2659C34.4678 12.0205 34.5765 11.7401 34.6361 11.4246L36.6026 11.4351C36.529 11.9469 36.3695 12.4271 36.1241 12.8758C35.8822 13.3245 35.565 13.7206 35.1724 14.0641C34.7798 14.4041 34.3206 14.6705 33.7948 14.8633C33.269 15.0526 32.6854 15.1472 32.0439 15.1472C31.0975 15.1472 30.2527 14.9281 29.5096 14.49C28.7664 14.0518 28.1811 13.4191 27.7534 12.5918C27.3258 11.7646 27.1119 10.7726 27.1119 9.61584C27.1119 8.45558 27.3275 7.46357 27.7587 6.63982C28.1898 5.81257 28.777 5.17986 29.5201 4.74169C30.2632 4.30353 31.1045 4.08445 32.0439 4.08445C32.6433 4.08445 33.2007 4.16858 33.716 4.33683C34.2312 4.50509 34.6904 4.75221 35.0935 5.0782C35.4967 5.40069 35.8279 5.79679 36.0873 6.26651C36.3502 6.73271 36.522 7.26552 36.6026 7.86493ZM40.6289 15.163C40.1171 15.163 39.6561 15.0719 39.246 14.8896C38.8394 14.7038 38.5169 14.4304 38.2786 14.0693C38.0437 13.7083 37.9263 13.2631 37.9263 12.7338C37.9263 12.2781 38.0104 11.9013 38.1787 11.6033C38.3469 11.3054 38.5765 11.067 38.8675 10.8883C39.1584 10.7095 39.4861 10.5745 39.8507 10.4834C40.2188 10.3888 40.5991 10.3204 40.9917 10.2783C41.4649 10.2293 41.8487 10.1854 42.1432 10.1469C42.4376 10.1048 42.6514 10.0417 42.7846 9.9576C42.9213 9.86997 42.9897 9.73502 42.9897 9.55274V9.52119C42.9897 9.12509 42.8723 8.81838 42.6374 8.60105C42.4026 8.38372 42.0643 8.27505 41.6226 8.27505C41.1564 8.27505 40.7866 8.37671 40.5132 8.58002C40.2433 8.78332 40.061 9.02344 39.9664 9.30036L38.1892 9.04797C38.3294 8.55723 38.5607 8.14711 38.8832 7.81761C39.2057 7.4846 39.6001 7.23573 40.0663 7.07098C40.5325 6.90272 41.0478 6.81859 41.6121 6.81859C42.0012 6.81859 42.3885 6.86416 42.7741 6.9553C43.1597 7.04644 43.512 7.19717 43.831 7.40749C44.15 7.6143 44.4058 7.89648 44.5986 8.25402C44.7949 8.61156 44.8931 9.05849 44.8931 9.5948V15H43.0633V13.8906H43.0002C42.8845 14.1149 42.7215 14.3252 42.5112 14.5215C42.3044 14.7143 42.0433 14.8703 41.7278 14.9895C41.4158 15.1052 41.0495 15.163 40.6289 15.163ZM41.1231 13.7644C41.5052 13.7644 41.8365 13.689 42.1169 13.5383C42.3973 13.384 42.6129 13.1807 42.7636 12.9284C42.9178 12.676 42.995 12.4008 42.995 12.1029V11.1512C42.9354 11.2002 42.8337 11.2458 42.69 11.2879C42.5498 11.3299 42.392 11.3667 42.2168 11.3983C42.0415 11.4298 41.868 11.4579 41.6962 11.4824C41.5245 11.507 41.3755 11.528 41.2493 11.5455C40.9654 11.5841 40.7112 11.6472 40.4869 11.7348C40.2626 11.8224 40.0855 11.9451 39.9559 12.1029C39.8262 12.2571 39.7613 12.4569 39.7613 12.7023C39.7613 13.0528 39.8893 13.3174 40.1451 13.4962C40.401 13.675 40.727 13.7644 41.1231 13.7644ZM48.7104 10.2678V15H46.807V6.92375H48.6262V8.29608H48.7209C48.9067 7.8439 49.2029 7.4846 49.6095 7.2182C50.0196 6.9518 50.5261 6.81859 51.129 6.81859C51.6864 6.81859 52.1719 6.93777 52.5855 7.17614C53.0026 7.4145 53.3251 7.75977 53.553 8.21196C53.7843 8.66414 53.8982 9.21272 53.8947 9.8577V15H51.9914V10.1521C51.9914 9.61233 51.8511 9.18994 51.5707 8.88498C51.2938 8.58001 50.91 8.42753 50.4192 8.42753C50.0862 8.42753 49.79 8.50115 49.5306 8.64837C49.2747 8.79209 49.0732 9.00065 48.926 9.27407C48.7822 9.54748 48.7104 9.87873 48.7104 10.2678ZM59.3867 15V13.7854L64.9076 5.8669H59.3551V4.23167H67.3262V5.44626L61.8106 13.3648H67.3578V15H59.3867ZM69.2454 15V4.23167H76.1439V5.8669H71.1961V8.79033H75.6706V10.4256H71.1961V15H69.2454ZM90.811 7.86493H88.8445C88.7884 7.54244 88.685 7.25676 88.5343 7.00788C88.3835 6.7555 88.196 6.54167 87.9717 6.36641C87.7473 6.19114 87.4914 6.05969 87.204 5.97206C86.9201 5.88092 86.6133 5.83535 86.2839 5.83535C85.6985 5.83535 85.1797 5.98258 84.7275 6.27702C84.2753 6.56796 83.9213 6.99561 83.6654 7.55997C83.4095 8.12082 83.2815 8.80611 83.2815 9.61584C83.2815 10.4396 83.4095 11.1336 83.6654 11.698C83.9248 12.2588 84.2788 12.683 84.7275 12.9704C85.1797 13.2544 85.6967 13.3963 86.2786 13.3963C86.6011 13.3963 86.9025 13.3543 87.183 13.2701C87.4669 13.1825 87.721 13.0545 87.9454 12.8863C88.1732 12.718 88.3643 12.5112 88.5185 12.2659C88.6762 12.0205 88.7849 11.7401 88.8445 11.4246L90.811 11.4351C90.7374 11.9469 90.5779 12.4271 90.3325 12.8758C90.0906 13.3245 89.7734 13.7206 89.3808 14.0641C88.9882 14.4041 88.529 14.6705 88.0032 14.8633C87.4774 15.0526 86.8938 15.1472 86.2523 15.1472C85.3059 15.1472 84.4611 14.9281 83.718 14.49C82.9748 14.0518 82.3894 13.4191 81.9618 12.5918C81.5341 11.7646 81.3203 10.7726 81.3203 9.61584C81.3203 8.45558 81.5359 7.46357 81.9671 6.63982C82.3982 5.81257 82.9853 5.17986 83.7285 4.74169C84.4716 4.30353 85.3129 4.08445 86.2523 4.08445C86.8517 4.08445 87.4091 4.16858 87.9243 4.33683C88.4396 4.50509 88.8988 4.75221 89.3019 5.0782C89.705 5.40069 90.0363 5.79679 90.2957 6.26651C90.5586 6.73271 90.7303 7.26552 90.811 7.86493ZM94.8373 15.163C94.3255 15.163 93.8645 15.0719 93.4544 14.8896C93.0478 14.7038 92.7253 14.4304 92.4869 14.0693C92.2521 13.7083 92.1347 13.2631 92.1347 12.7338C92.1347 12.2781 92.2188 11.9013 92.387 11.6033C92.5553 11.3054 92.7849 11.067 93.0758 10.8883C93.3668 10.7095 93.6945 10.5745 94.0591 10.4834C94.4271 10.3888 94.8075 10.3204 95.2001 10.2783C95.6733 10.2293 96.0571 10.1854 96.3516 10.1469C96.646 10.1048 96.8598 10.0417 96.993 9.9576C97.1297 9.86997 97.1981 9.73502 97.1981 9.55274V9.52119C97.1981 9.12509 97.0807 8.81838 96.8458 8.60105C96.6109 8.38372 96.2727 8.27505 95.831 8.27505C95.3648 8.27505 94.995 8.37671 94.7216 8.58002C94.4517 8.78332 94.2694 9.02344 94.1748 9.30036L92.3976 9.04797C92.5378 8.55723 92.7691 8.14711 93.0916 7.81761C93.4141 7.4846 93.8084 7.23573 94.2747 7.07098C94.7409 6.90272 95.2561 6.81859 95.8205 6.81859C96.2096 6.81859 96.5969 6.86416 96.9825 6.9553C97.3681 7.04644 97.7204 7.19717 98.0394 7.40749C98.3583 7.6143 98.6142 7.89648 98.807 8.25402C99.0033 8.61156 99.1015 9.05849 99.1015 9.5948V15H97.2717V13.8906H97.2086C97.0929 14.1149 96.9299 14.3252 96.7196 14.5215C96.5128 14.7143 96.2516 14.8703 95.9362 14.9895C95.6242 15.1052 95.2579 15.163 94.8373 15.163ZM95.3315 13.7644C95.7136 13.7644 96.0448 13.689 96.3253 13.5383C96.6057 13.384 96.8213 13.1807 96.972 12.9284C97.1262 12.676 97.2033 12.4008 97.2033 12.1029V11.1512C97.1438 11.2002 97.0421 11.2458 96.8984 11.2879C96.7582 11.3299 96.6004 11.3667 96.4252 11.3983C96.2499 11.4298 96.0764 11.4579 95.9046 11.4824C95.7329 11.507 95.5839 11.528 95.4577 11.5455C95.1738 11.5841 94.9196 11.6472 94.6953 11.7348C94.4709 11.8224 94.2939 11.9451 94.1642 12.1029C94.0345 12.2571 93.9697 12.4569 93.9697 12.7023C93.9697 13.0528 94.0976 13.3174 94.3535 13.4962C94.6094 13.675 94.9354 13.7644 95.3315 13.7644ZM102.919 10.2678V15H101.015V6.92375H102.835V8.29608H102.929C103.115 7.8439 103.411 7.4846 103.818 7.2182C104.228 6.9518 104.735 6.81859 105.337 6.81859C105.895 6.81859 106.38 6.93777 106.794 7.17614C107.211 7.4145 107.534 7.75977 107.761 8.21196C107.993 8.66414 108.107 9.21272 108.103 9.8577V15H106.2V10.1521C106.2 9.61233 106.06 9.18994 105.779 8.88498C105.502 8.58001 105.118 8.42753 104.628 8.42753C104.295 8.42753 103.998 8.50115 103.739 8.64837C103.483 8.79209 103.282 9.00065 103.134 9.27407C102.991 9.54748 102.919 9.87873 102.919 10.2678ZM112.362 15.163C111.85 15.163 111.389 15.0719 110.979 14.8896C110.573 14.7038 110.25 14.4304 110.012 14.0693C109.777 13.7083 109.659 13.2631 109.659 12.7338C109.659 12.2781 109.744 11.9013 109.912 11.6033C110.08 11.3054 110.31 11.067 110.601 10.8883C110.892 10.7095 111.219 10.5745 111.584 10.4834C111.952 10.3888 112.332 10.3204 112.725 10.2783C113.198 10.2293 113.582 10.1854 113.876 10.1469C114.171 10.1048 114.385 10.0417 114.518 9.9576C114.655 9.86997 114.723 9.73502 114.723 9.55274V9.52119C114.723 9.12509 114.605 8.81838 114.371 8.60105C114.136 8.38372 113.798 8.27505 113.356 8.27505C112.89 8.27505 112.52 8.37671 112.246 8.58002C111.976 8.78332 111.794 9.02344 111.7 9.30036L109.922 9.04797C110.063 8.55723 110.294 8.14711 110.616 7.81761C110.939 7.4846 111.333 7.23573 111.799 7.07098C112.266 6.90272 112.781 6.81859 113.345 6.81859C113.734 6.81859 114.122 6.86416 114.507 6.9553C114.893 7.04644 115.245 7.19717 115.564 7.40749C115.883 7.6143 116.139 7.89648 116.332 8.25402C116.528 8.61156 116.626 9.05849 116.626 9.5948V15H114.797V13.8906H114.733C114.618 14.1149 114.455 14.3252 114.244 14.5215C114.038 14.7143 113.776 14.8703 113.461 14.9895C113.149 15.1052 112.783 15.163 112.362 15.163ZM112.856 13.7644C113.238 13.7644 113.57 13.689 113.85 13.5383C114.131 13.384 114.346 13.1807 114.497 12.9284C114.651 12.676 114.728 12.4008 114.728 12.1029V11.1512C114.669 11.2002 114.567 11.2458 114.423 11.2879C114.283 11.3299 114.125 11.3667 113.95 11.3983C113.775 11.4298 113.601 11.4579 113.429 11.4824C113.258 11.507 113.109 11.528 112.983 11.5455C112.699 11.5841 112.444 11.6472 112.22 11.7348C111.996 11.8224 111.819 11.9451 111.689 12.1029C111.559 12.2571 111.495 12.4569 111.495 12.7023C111.495 13.0528 111.622 13.3174 111.878 13.4962C112.134 13.675 112.46 13.7644 112.856 13.7644ZM121.537 15.142C120.903 15.142 120.335 14.979 119.834 14.653C119.332 14.327 118.936 13.8538 118.645 13.2333C118.354 12.6129 118.209 11.8592 118.209 10.9724C118.209 10.075 118.356 9.31788 118.651 8.70095C118.949 8.08051 119.35 7.61255 119.855 7.29707C120.359 6.97809 120.922 6.81859 121.543 6.81859C122.016 6.81859 122.405 6.89922 122.71 7.06046C123.015 7.2182 123.257 7.40924 123.435 7.63358C123.614 7.85441 123.753 8.06298 123.851 8.25928H123.93V4.23167H125.838V15H123.966V13.7276H123.851C123.753 13.9239 123.611 14.1324 123.425 14.3533C123.239 14.5706 122.994 14.7564 122.689 14.9106C122.384 15.0648 122 15.142 121.537 15.142ZM122.068 13.5803C122.471 13.5803 122.815 13.4717 123.099 13.2544C123.383 13.0335 123.598 12.7268 123.746 12.3342C123.893 11.9416 123.966 11.4842 123.966 10.9619C123.966 10.4396 123.893 9.98565 123.746 9.60006C123.602 9.21448 123.388 8.91477 123.104 8.70095C122.824 8.48712 122.478 8.38021 122.068 8.38021C121.644 8.38021 121.29 8.49063 121.006 8.71146C120.722 8.9323 120.508 9.23726 120.365 9.62635C120.221 10.0154 120.149 10.4606 120.149 10.9619C120.149 11.4666 120.221 11.9171 120.365 12.3132C120.512 12.7058 120.728 13.016 121.011 13.2438C121.299 13.4682 121.651 13.5803 122.068 13.5803ZM130.191 15.163C129.679 15.163 129.218 15.0719 128.808 14.8896C128.401 14.7038 128.079 14.4304 127.84 14.0693C127.605 13.7083 127.488 13.2631 127.488 12.7338C127.488 12.2781 127.572 11.9013 127.74 11.6033C127.909 11.3054 128.138 11.067 128.429 10.8883C128.72 10.7095 129.048 10.5745 129.412 10.4834C129.78 10.3888 130.161 10.3204 130.553 10.2783C131.027 10.2293 131.41 10.1854 131.705 10.1469C131.999 10.1048 132.213 10.0417 132.346 9.9576C132.483 9.86997 132.551 9.73502 132.551 9.55274V9.52119C132.551 9.12509 132.434 8.81838 132.199 8.60105C131.964 8.38372 131.626 8.27505 131.184 8.27505C130.718 8.27505 130.348 8.37671 130.075 8.58002C129.805 8.78332 129.623 9.02344 129.528 9.30036L127.751 9.04797C127.891 8.55723 128.122 8.14711 128.445 7.81761C128.767 7.4846 129.162 7.23573 129.628 7.07098C130.094 6.90272 130.609 6.81859 131.174 6.81859C131.563 6.81859 131.95 6.86416 132.336 6.9553C132.721 7.04644 133.074 7.19717 133.393 7.40749C133.712 7.6143 133.968 7.89648 134.16 8.25402C134.357 8.61156 134.455 9.05849 134.455 9.5948V15H132.625V13.8906H132.562C132.446 14.1149 132.283 14.3252 132.073 14.5215C131.866 14.7143 131.605 14.8703 131.289 14.9895C130.978 15.1052 130.611 15.163 130.191 15.163ZM130.685 13.7644C131.067 13.7644 131.398 13.689 131.679 13.5383C131.959 13.384 132.175 13.1807 132.325 12.9284C132.48 12.676 132.557 12.4008 132.557 12.1029V11.1512C132.497 11.2002 132.395 11.2458 132.252 11.2879C132.111 11.3299 131.954 11.3667 131.778 11.3983C131.603 11.4298 131.43 11.4579 131.258 11.4824C131.086 11.507 130.937 11.528 130.811 11.5455C130.527 11.5841 130.273 11.6472 130.049 11.7348C129.824 11.8224 129.647 11.9451 129.518 12.1029C129.388 12.2571 129.323 12.4569 129.323 12.7023C129.323 13.0528 129.451 13.3174 129.707 13.4962C129.963 13.675 130.289 13.7644 130.685 13.7644ZM141.945 10.2678V15H140.041V4.23167H141.903V8.29608H141.997C142.187 7.84039 142.479 7.4811 142.875 7.2182C143.275 6.9518 143.783 6.81859 144.4 6.81859C144.961 6.81859 145.45 6.93602 145.867 7.17088C146.284 7.40573 146.607 7.74925 146.835 8.20144C147.066 8.65363 147.182 9.20571 147.182 9.8577V15H145.278V10.1521C145.278 9.60882 145.138 9.18643 144.858 8.88498C144.581 8.58001 144.192 8.42753 143.69 8.42753C143.354 8.42753 143.052 8.50115 142.786 8.64837C142.523 8.79209 142.316 9.00065 142.166 9.27407C142.018 9.54748 141.945 9.87873 141.945 10.2678ZM152.697 15.1577C151.888 15.1577 151.188 14.9895 150.599 14.653C150.014 14.313 149.564 13.8327 149.248 13.2123C148.933 12.5883 148.775 11.854 148.775 11.0092C148.775 10.1784 148.933 9.44933 149.248 8.82188C149.567 8.19092 150.012 7.70018 150.584 7.34965C151.155 6.99561 151.826 6.81859 152.597 6.81859C153.095 6.81859 153.565 6.89922 154.007 7.06046C154.452 7.2182 154.844 7.46357 155.184 7.79658C155.528 8.12958 155.798 8.55372 155.994 9.06901C156.19 9.58078 156.289 10.1907 156.289 10.8988V11.4824H149.669V10.1995H154.464C154.46 9.83492 154.382 9.51068 154.227 9.22675C154.073 8.93931 153.858 8.71322 153.581 8.54847C153.307 8.38372 152.988 8.30134 152.624 8.30134C152.235 8.30134 151.893 8.39599 151.598 8.58527C151.304 8.77105 151.074 9.01643 150.91 9.32139C150.748 9.62285 150.666 9.9541 150.662 10.3151V11.4351C150.662 11.9048 150.748 12.3079 150.92 12.6444C151.092 12.9774 151.332 13.2333 151.64 13.4121C151.949 13.5874 152.31 13.675 152.724 13.675C153.001 13.675 153.251 13.6364 153.475 13.5593C153.7 13.4787 153.894 13.3613 154.059 13.207C154.224 13.0528 154.348 12.8618 154.432 12.6339L156.21 12.8337C156.097 13.3034 155.884 13.7135 155.568 14.0641C155.256 14.4111 154.857 14.681 154.369 14.8738C153.882 15.0631 153.325 15.1577 152.697 15.1577ZM159.802 4.23167V15H157.899V4.23167H159.802ZM161.759 18.0286V6.92375H163.631V8.25928H163.742C163.84 8.06298 163.978 7.85441 164.157 7.63358C164.336 7.40924 164.578 7.2182 164.883 7.06046C165.188 6.89922 165.577 6.81859 166.05 6.81859C166.674 6.81859 167.236 6.97809 167.738 7.29707C168.242 7.61255 168.642 8.08051 168.937 8.70095C169.235 9.31788 169.383 10.075 169.383 10.9724C169.383 11.8592 169.238 12.6129 168.947 13.2333C168.656 13.8538 168.26 14.327 167.759 14.653C167.258 14.979 166.69 15.142 166.055 15.142C165.592 15.142 165.209 15.0648 164.904 14.9106C164.599 14.7564 164.353 14.5706 164.168 14.3533C163.985 14.1324 163.843 13.9239 163.742 13.7276H163.663V18.0286H161.759ZM163.626 10.9619C163.626 11.4842 163.7 11.9416 163.847 12.3342C163.998 12.7268 164.213 13.0335 164.494 13.2544C164.777 13.4717 165.121 13.5803 165.524 13.5803C165.945 13.5803 166.297 13.4682 166.581 13.2438C166.865 13.016 167.079 12.7058 167.222 12.3132C167.37 11.9171 167.443 11.4666 167.443 10.9619C167.443 10.4606 167.371 10.0154 167.228 9.62635C167.084 9.23726 166.87 8.9323 166.586 8.71146C166.302 8.49063 165.948 8.38021 165.524 8.38021C165.118 8.38021 164.772 8.48712 164.488 8.70095C164.204 8.91477 163.989 9.21448 163.842 9.60006C163.698 9.98565 163.626 10.4396 163.626 10.9619ZM176.353 15L174.071 6.92375H176.011L177.431 12.6024H177.504L178.956 6.92375H180.875L182.326 12.5708H182.405L183.803 6.92375H185.749L183.462 15H181.479L179.965 9.54222H179.855L178.34 15H176.353ZM187.078 15V6.92375H188.981V15H187.078ZM188.035 5.77752C187.733 5.77752 187.474 5.67761 187.257 5.47781C187.039 5.2745 186.931 5.03088 186.931 4.74695C186.931 4.45952 187.039 4.2159 187.257 4.01609C187.474 3.81279 187.733 3.71113 188.035 3.71113C188.34 3.71113 188.599 3.81279 188.813 4.01609C189.03 4.2159 189.139 4.45952 189.139 4.74695C189.139 5.03088 189.03 5.2745 188.813 5.47781C188.599 5.67761 188.34 5.77752 188.035 5.77752ZM194.971 6.92375V8.39599H190.329V6.92375H194.971ZM191.475 4.98882H193.378V12.5708C193.378 12.8267 193.417 13.023 193.494 13.1597C193.575 13.2929 193.68 13.384 193.809 13.4331C193.939 13.4822 194.083 13.5067 194.241 13.5067C194.36 13.5067 194.468 13.498 194.567 13.4804C194.668 13.4629 194.745 13.4471 194.798 13.4331L195.119 14.9211C195.017 14.9562 194.872 14.9947 194.682 15.0368C194.496 15.0789 194.269 15.1034 193.999 15.1104C193.522 15.1244 193.093 15.0526 192.71 14.8948C192.328 14.7336 192.025 14.4847 191.801 14.1482C191.58 13.8117 191.471 13.3911 191.475 12.8863V4.98882ZM198.64 10.2678V15H196.737V4.23167H198.598V8.29608H198.693C198.882 7.84039 199.175 7.4811 199.571 7.2182C199.97 6.9518 200.479 6.81859 201.096 6.81859C201.656 6.81859 202.145 6.93602 202.563 7.17088C202.98 7.40573 203.302 7.74925 203.53 8.20144C203.761 8.65363 203.877 9.20571 203.877 9.8577V15H201.974V10.1521C201.974 9.60882 201.834 9.18643 201.553 8.88498C201.276 8.58001 200.887 8.42753 200.386 8.42753C200.049 8.42753 199.748 8.50115 199.481 8.64837C199.219 8.79209 199.012 9.00065 198.861 9.27407C198.714 9.54748 198.64 9.87873 198.64 10.2678ZM216.704 6.92375L213.828 15H211.725L208.849 6.92375H210.878L212.734 12.9231H212.818L214.68 6.92375H216.704ZM218.021 15V6.92375H219.924V15H218.021ZM218.978 5.77752C218.677 5.77752 218.417 5.67761 218.2 5.47781C217.982 5.2745 217.874 5.03088 217.874 4.74695C217.874 4.45952 217.982 4.2159 218.2 4.01609C218.417 3.81279 218.677 3.71113 218.978 3.71113C219.283 3.71113 219.542 3.81279 219.756 4.01609C219.974 4.2159 220.082 4.45952 220.082 4.74695C220.082 5.03088 219.974 5.2745 219.756 5.47781C219.542 5.67761 219.283 5.77752 218.978 5.77752ZM228.265 9.05849L226.53 9.24778C226.481 9.07251 226.395 8.90776 226.272 8.75353C226.153 8.59929 225.992 8.47486 225.788 8.38021C225.585 8.28557 225.336 8.23825 225.042 8.23825C224.646 8.23825 224.313 8.32413 224.043 8.49589C223.776 8.66765 223.645 8.89024 223.648 9.16365C223.645 9.39851 223.731 9.58955 223.906 9.73677C224.085 9.88399 224.379 10.0049 224.789 10.0996L226.167 10.394C226.931 10.5588 227.499 10.8199 227.871 11.1775C228.246 11.535 228.435 12.003 228.438 12.5813C228.435 13.0896 228.286 13.5383 227.991 13.9274C227.701 14.313 227.296 14.6144 226.777 14.8317C226.258 15.0491 225.662 15.1577 224.989 15.1577C224.001 15.1577 223.205 14.9509 222.602 14.5373C221.999 14.1202 221.64 13.54 221.524 12.7969L223.38 12.6181C223.464 12.9827 223.643 13.2579 223.917 13.4436C224.19 13.6294 224.546 13.7223 224.984 13.7223C225.436 13.7223 225.799 13.6294 226.072 13.4436C226.349 13.2579 226.488 13.0283 226.488 12.7548C226.488 12.5235 226.398 12.3325 226.22 12.1817C226.044 12.031 225.771 11.9153 225.399 11.8347L224.022 11.5455C223.247 11.3843 222.674 11.1126 222.302 10.7305C221.931 10.3449 221.747 9.8577 221.75 9.26881C221.747 8.77105 221.882 8.3399 222.155 7.97535C222.432 7.60729 222.816 7.32336 223.307 7.12356C223.801 6.92025 224.37 6.81859 225.015 6.81859C225.962 6.81859 226.707 7.02015 227.25 7.42326C227.797 7.82637 228.135 8.37145 228.265 9.05849ZM232.332 15.163C231.82 15.163 231.359 15.0719 230.949 14.8896C230.542 14.7038 230.22 14.4304 229.982 14.0693C229.747 13.7083 229.629 13.2631 229.629 12.7338C229.629 12.2781 229.713 11.9013 229.882 11.6033C230.05 11.3054 230.28 11.067 230.571 10.8883C230.861 10.7095 231.189 10.5745 231.554 10.4834C231.922 10.3888 232.302 10.3204 232.695 10.2783C233.168 10.2293 233.552 10.1854 233.846 10.1469C234.141 10.1048 234.354 10.0417 234.488 9.9576C234.624 9.86997 234.693 9.73502 234.693 9.55274V9.52119C234.693 9.12509 234.575 8.81838 234.34 8.60105C234.106 8.38372 233.767 8.27505 233.326 8.27505C232.859 8.27505 232.49 8.37671 232.216 8.58002C231.946 8.78332 231.764 9.02344 231.669 9.30036L229.892 9.04797C230.032 8.55723 230.264 8.14711 230.586 7.81761C230.909 7.4846 231.303 7.23573 231.769 7.07098C232.236 6.90272 232.751 6.81859 233.315 6.81859C233.704 6.81859 234.092 6.86416 234.477 6.9553C234.863 7.04644 235.215 7.19717 235.534 7.40749C235.853 7.6143 236.109 7.89648 236.302 8.25402C236.498 8.61156 236.596 9.05849 236.596 9.5948V15H234.766V13.8906H234.703C234.588 14.1149 234.425 14.3252 234.214 14.5215C234.007 14.7143 233.746 14.8703 233.431 14.9895C233.119 15.1052 232.753 15.163 232.332 15.163ZM232.826 13.7644C233.208 13.7644 233.54 13.689 233.82 13.5383C234.1 13.384 234.316 13.1807 234.467 12.9284C234.621 12.676 234.698 12.4008 234.698 12.1029V11.1512C234.638 11.2002 234.537 11.2458 234.393 11.2879C234.253 11.3299 234.095 11.3667 233.92 11.3983C233.745 11.4298 233.571 11.4579 233.399 11.4824C233.228 11.507 233.079 11.528 232.952 11.5455C232.668 11.5841 232.414 11.6472 232.19 11.7348C231.966 11.8224 231.789 11.9451 231.659 12.1029C231.529 12.2571 231.464 12.4569 231.464 12.7023C231.464 13.0528 231.592 13.3174 231.848 13.4962C232.104 13.675 232.43 13.7644 232.826 13.7644ZM242.183 15V6.92375H244.028V8.26979H244.112C244.26 7.80359 244.512 7.44429 244.87 7.19191C245.231 6.93602 245.642 6.80808 246.105 6.80808C246.21 6.80808 246.328 6.81334 246.457 6.82385C246.591 6.83086 246.701 6.84313 246.789 6.86066V8.61156C246.708 8.58352 246.58 8.55898 246.405 8.53795C246.233 8.51341 246.067 8.50115 245.905 8.50115C245.558 8.50115 245.246 8.57651 244.969 8.72724C244.696 8.87446 244.48 9.07952 244.323 9.34242C244.165 9.60532 244.086 9.90853 244.086 10.2521V15H242.183ZM251.296 15.1577C250.486 15.1577 249.787 14.9895 249.198 14.653C248.613 14.313 248.162 13.8327 247.847 13.2123C247.531 12.5883 247.374 11.854 247.374 11.0092C247.374 10.1784 247.531 9.44933 247.847 8.82188C248.166 8.19092 248.611 7.70018 249.182 7.34965C249.754 6.99561 250.425 6.81859 251.196 6.81859C251.694 6.81859 252.164 6.89922 252.605 7.06046C253.051 7.2182 253.443 7.46357 253.783 7.79658C254.127 8.12958 254.397 8.55372 254.593 9.06901C254.789 9.58078 254.887 10.1907 254.887 10.8988V11.4824H248.268V10.1995H253.063C253.059 9.83492 252.98 9.51068 252.826 9.22675C252.672 8.93931 252.456 8.71322 252.179 8.54847C251.906 8.38372 251.587 8.30134 251.223 8.30134C250.833 8.30134 250.492 8.39599 250.197 8.58527C249.903 8.77105 249.673 9.01643 249.508 9.32139C249.347 9.62285 249.265 9.9541 249.261 10.3151V11.4351C249.261 11.9048 249.347 12.3079 249.519 12.6444C249.691 12.9774 249.931 13.2333 250.239 13.4121C250.548 13.5874 250.909 13.675 251.322 13.675C251.599 13.675 251.85 13.6364 252.074 13.5593C252.299 13.4787 252.493 13.3613 252.658 13.207C252.823 13.0528 252.947 12.8618 253.031 12.6339L254.808 12.8337C254.696 13.3034 254.482 13.7135 254.167 14.0641C253.855 14.4111 253.455 14.681 252.968 14.8738C252.481 15.0631 251.924 15.1577 251.296 15.1577ZM260.588 6.92375V8.39599H255.814V6.92375H260.588ZM257.008 15V6.16135C257.008 5.61802 257.12 5.16584 257.344 4.80479C257.572 4.44374 257.877 4.17383 258.259 3.99506C258.641 3.81629 259.065 3.72691 259.531 3.72691C259.861 3.72691 260.154 3.7532 260.41 3.80578C260.665 3.85836 260.855 3.90568 260.977 3.94774L260.599 5.41997C260.518 5.39544 260.417 5.3709 260.294 5.34636C260.171 5.31832 260.034 5.3043 259.884 5.3043C259.53 5.3043 259.279 5.39018 259.132 5.56194C258.988 5.73019 258.916 5.97206 258.916 6.28754V15H257.008ZM267.226 11.6033V6.92375H269.13V15H267.284V13.5646H267.2C267.018 14.0168 266.718 14.3866 266.301 14.674C265.887 14.9614 265.377 15.1052 264.771 15.1052C264.242 15.1052 263.774 14.9877 263.367 14.7529C262.964 14.5145 262.649 14.1692 262.421 13.7171C262.193 13.2614 262.079 12.711 262.079 12.0661V6.92375H263.982V11.7716C263.982 12.2834 264.123 12.69 264.403 12.9915C264.683 13.2929 265.051 13.4436 265.507 13.4436C265.788 13.4436 266.059 13.3753 266.322 13.2386C266.585 13.1019 266.801 12.8986 266.969 12.6287C267.141 12.3552 267.226 12.0135 267.226 11.6033ZM277.47 9.05849L275.735 9.24778C275.686 9.07251 275.6 8.90776 275.478 8.75353C275.358 8.59929 275.197 8.47486 274.994 8.38021C274.791 8.28557 274.542 8.23825 274.247 8.23825C273.851 8.23825 273.518 8.32413 273.248 8.49589C272.982 8.66765 272.85 8.89024 272.854 9.16365C272.85 9.39851 272.936 9.58955 273.111 9.73677C273.29 9.88399 273.585 10.0049 273.995 10.0996L275.372 10.394C276.137 10.5588 276.704 10.8199 277.076 11.1775C277.451 11.535 277.64 12.003 277.644 12.5813C277.64 13.0896 277.491 13.5383 277.197 13.9274C276.906 14.313 276.501 14.6144 275.982 14.8317C275.464 15.0491 274.868 15.1577 274.195 15.1577C273.206 15.1577 272.41 14.9509 271.807 14.5373C271.205 14.1202 270.845 13.54 270.73 12.7969L272.586 12.6181C272.67 12.9827 272.849 13.2579 273.122 13.4436C273.395 13.6294 273.751 13.7223 274.189 13.7223C274.642 13.7223 275.004 13.6294 275.278 13.4436C275.555 13.2579 275.693 13.0283 275.693 12.7548C275.693 12.5235 275.604 12.3325 275.425 12.1817C275.25 12.031 274.976 11.9153 274.605 11.8347L273.227 11.5455C272.452 11.3843 271.879 11.1126 271.508 10.7305C271.136 10.3449 270.952 9.8577 270.956 9.26881C270.952 8.77105 271.087 8.3399 271.361 7.97535C271.637 7.60729 272.021 7.32336 272.512 7.12356C273.006 6.92025 273.576 6.81859 274.221 6.81859C275.167 6.81859 275.912 7.02015 276.456 7.42326C277.002 7.82637 277.341 8.37145 277.47 9.05849ZM281.537 15.163C281.026 15.163 280.565 15.0719 280.155 14.8896C279.748 14.7038 279.425 14.4304 279.187 14.0693C278.952 13.7083 278.835 13.2631 278.835 12.7338C278.835 12.2781 278.919 11.9013 279.087 11.6033C279.255 11.3054 279.485 11.067 279.776 10.8883C280.067 10.7095 280.395 10.5745 280.759 10.4834C281.127 10.3888 281.508 10.3204 281.9 10.2783C282.373 10.2293 282.757 10.1854 283.052 10.1469C283.346 10.1048 283.56 10.0417 283.693 9.9576C283.83 9.86997 283.898 9.73502 283.898 9.55274V9.52119C283.898 9.12509 283.781 8.81838 283.546 8.60105C283.311 8.38372 282.973 8.27505 282.531 8.27505C282.065 8.27505 281.695 8.37671 281.422 8.58002C281.152 8.78332 280.969 9.02344 280.875 9.30036L279.098 9.04797C279.238 8.55723 279.469 8.14711 279.792 7.81761C280.114 7.4846 280.509 7.23573 280.975 7.07098C281.441 6.90272 281.956 6.81859 282.521 6.81859C282.91 6.81859 283.297 6.86416 283.683 6.9553C284.068 7.04644 284.42 7.19717 284.739 7.40749C285.058 7.6143 285.314 7.89648 285.507 8.25402C285.703 8.61156 285.802 9.05849 285.802 9.5948V15H283.972V13.8906H283.909C283.793 14.1149 283.63 14.3252 283.42 14.5215C283.213 14.7143 282.952 14.8703 282.636 14.9895C282.324 15.1052 281.958 15.163 281.537 15.163ZM282.032 13.7644C282.414 13.7644 282.745 13.689 283.025 13.5383C283.306 13.384 283.521 13.1807 283.672 12.9284C283.826 12.676 283.903 12.4008 283.903 12.1029V11.1512C283.844 11.2002 283.742 11.2458 283.598 11.2879C283.458 11.3299 283.301 11.3667 283.125 11.3983C282.95 11.4298 282.776 11.4579 282.605 11.4824C282.433 11.507 282.284 11.528 282.158 11.5455C281.874 11.5841 281.62 11.6472 281.395 11.7348C281.171 11.8224 280.994 11.9451 280.864 12.1029C280.735 12.2571 280.67 12.4569 280.67 12.7023C280.67 13.0528 280.798 13.3174 281.054 13.4962C281.31 13.675 281.636 13.7644 282.032 13.7644ZM289.619 4.23167V15H287.715V4.23167H289.619ZM297.959 9.05849L296.224 9.24778C296.175 9.07251 296.089 8.90776 295.967 8.75353C295.847 8.59929 295.686 8.47486 295.483 8.38021C295.28 8.28557 295.031 8.23825 294.736 8.23825C294.34 8.23825 294.007 8.32413 293.737 8.49589C293.471 8.66765 293.339 8.89024 293.343 9.16365C293.339 9.39851 293.425 9.58955 293.6 9.73677C293.779 9.88399 294.074 10.0049 294.484 10.0996L295.861 10.394C296.626 10.5588 297.193 10.8199 297.565 11.1775C297.94 11.535 298.129 12.003 298.133 12.5813C298.129 13.0896 297.98 13.5383 297.686 13.9274C297.395 14.313 296.99 14.6144 296.471 14.8317C295.953 15.0491 295.357 15.1577 294.684 15.1577C293.695 15.1577 292.899 14.9509 292.297 14.5373C291.694 14.1202 291.334 13.54 291.219 12.7969L293.075 12.6181C293.159 12.9827 293.338 13.2579 293.611 13.4436C293.884 13.6294 294.24 13.7223 294.678 13.7223C295.131 13.7223 295.493 13.6294 295.767 13.4436C296.044 13.2579 296.182 13.0283 296.182 12.7548C296.182 12.5235 296.093 12.3325 295.914 12.1817C295.739 12.031 295.465 11.9153 295.094 11.8347L293.716 11.5455C292.941 11.3843 292.368 11.1126 291.997 10.7305C291.625 10.3449 291.441 9.8577 291.445 9.26881C291.441 8.77105 291.576 8.3399 291.85 7.97535C292.126 7.60729 292.51 7.32336 293.001 7.12356C293.495 6.92025 294.065 6.81859 294.71 6.81859C295.656 6.81859 296.401 7.02015 296.945 7.42326C297.491 7.82637 297.83 8.37145 297.959 9.05849ZM301.522 11.8347V11.698C301.525 11.0635 301.585 10.5588 301.7 10.1837C301.82 9.80863 301.988 9.50717 302.205 9.27933C302.422 9.04797 302.687 8.8359 302.999 8.64311C303.213 8.50991 303.404 8.36444 303.572 8.2067C303.744 8.04545 303.879 7.86668 303.977 7.67039C304.075 7.47058 304.124 7.248 304.124 7.00262C304.124 6.7257 304.059 6.48559 303.93 6.28228C303.8 6.07897 303.625 5.92123 303.404 5.80906C303.187 5.69689 302.943 5.64081 302.673 5.64081C302.424 5.64081 302.188 5.69514 301.963 5.80381C301.742 5.90896 301.558 6.07021 301.411 6.28754C301.267 6.50136 301.187 6.77302 301.169 7.10252H299.297C299.315 6.43651 299.476 5.87917 299.781 5.43049C300.09 4.98181 300.496 4.6453 301.001 4.42096C301.509 4.19662 302.07 4.08445 302.684 4.08445C303.353 4.08445 303.942 4.20188 304.45 4.43673C304.962 4.67159 305.36 5.00635 305.644 5.441C305.931 5.87216 306.075 6.38393 306.075 6.97633C306.075 7.37594 306.01 7.73348 305.88 8.04896C305.754 8.36444 305.574 8.64486 305.339 8.89024C305.104 9.13561 304.825 9.35469 304.503 9.54748C304.219 9.72275 303.986 9.90502 303.804 10.0943C303.625 10.2836 303.492 10.5062 303.404 10.7621C303.32 11.0145 303.276 11.3264 303.273 11.698V11.8347H301.522ZM302.436 15.1157C302.121 15.1157 301.849 15.0035 301.622 14.7792C301.394 14.5548 301.28 14.2814 301.28 13.9589C301.28 13.6434 301.394 13.3735 301.622 13.1492C301.849 12.9249 302.121 12.8127 302.436 12.8127C302.748 12.8127 303.018 12.9249 303.246 13.1492C303.478 13.3735 303.593 13.6434 303.593 13.9589C303.593 14.1727 303.539 14.3673 303.43 14.5426C303.325 14.7178 303.185 14.858 303.01 14.9632C302.838 15.0648 302.647 15.1157 302.436 15.1157Z" fill="#1B1139"/>
<rect opacity="0.8" y="6.16919" width="14.8065" height="2.46774" rx="1.23387" fill="#1B1139"/>
<rect opacity="0.8" x="8.6377" width="14.8065" height="2.46774" rx="1.23387" transform="rotate(90 8.6377 0)" fill="#1B1139"/>
</svg>
