<svg width="489" height="118" viewBox="0 0 489 118" fill="none" xmlns="http://www.w3.org/2000/svg">
<g filter="url(#filter0_d_160_740)">
<rect x="14.813" width="459" height="82.2581" rx="4.03989" fill="white"/>
</g>
<path opacity="0.88" d="M73.4562 45.4355V34.6672H75.4069V39.2259H80.3967V34.6672H82.3526V45.4355H80.3967V40.8611H75.4069V45.4355H73.4562ZM87.913 45.5933C87.1243 45.5933 86.4407 45.4198 85.8623 45.0727C85.284 44.7257 84.8353 44.2402 84.5163 43.6163C84.2008 42.9923 84.0431 42.2632 84.0431 41.429C84.0431 40.5947 84.2008 39.8638 84.5163 39.2364C84.8353 38.6089 85.284 38.1217 85.8623 37.7747C86.4407 37.4277 87.1243 37.2541 87.913 37.2541C88.7016 37.2541 89.3852 37.4277 89.9636 37.7747C90.5419 38.1217 90.9889 38.6089 91.3043 39.2364C91.6233 39.8638 91.7828 40.5947 91.7828 41.429C91.7828 42.2632 91.6233 42.9923 91.3043 43.6163C90.9889 44.2402 90.5419 44.7257 89.9636 45.0727C89.3852 45.4198 88.7016 45.5933 87.913 45.5933ZM87.9235 44.0685C88.3511 44.0685 88.7087 43.951 88.9961 43.7162C89.2835 43.4778 89.4974 43.1588 89.6376 42.7592C89.7813 42.3596 89.8531 41.9145 89.8531 41.4237C89.8531 40.9295 89.7813 40.4825 89.6376 40.0829C89.4974 39.6798 89.2835 39.3591 88.9961 39.1207C88.7087 38.8824 88.3511 38.7632 87.9235 38.7632C87.4853 38.7632 87.1207 38.8824 86.8298 39.1207C86.5424 39.3591 86.3268 39.6798 86.1831 40.0829C86.0429 40.4825 85.9728 40.9295 85.9728 41.4237C85.9728 41.9145 86.0429 42.3596 86.1831 42.7592C86.3268 43.1588 86.5424 43.4778 86.8298 43.7162C87.1207 43.951 87.4853 44.0685 87.9235 44.0685ZM94.8338 45.4355L92.5518 37.3593H94.492L95.9116 43.0379H95.9853L97.4365 37.3593H99.3556L100.807 43.0064H100.886L102.284 37.3593H104.23L101.943 45.4355H99.9603L98.446 39.9778H98.3356L96.8213 45.4355H94.8338ZM112.228 45.5775C111.594 45.5775 111.026 45.4145 110.525 45.0885C110.024 44.7625 109.628 44.2893 109.337 43.6689C109.046 43.0484 108.9 42.2948 108.9 41.4079C108.9 40.5106 109.047 39.7534 109.342 39.1365C109.64 38.5161 110.041 38.0481 110.546 37.7326C111.051 37.4136 111.613 37.2541 112.234 37.2541C112.707 37.2541 113.096 37.3348 113.401 37.496C113.706 37.6537 113.948 37.8448 114.127 38.0691C114.305 38.29 114.444 38.4985 114.542 38.6948H114.621V34.6672H116.529V45.4355H114.658V44.1631H114.542C114.444 44.3594 114.302 44.568 114.116 44.7888C113.93 45.0061 113.685 45.1919 113.38 45.3462C113.075 45.5004 112.691 45.5775 112.228 45.5775ZM112.76 44.0159C113.163 44.0159 113.506 43.9072 113.79 43.6899C114.074 43.4691 114.29 43.1623 114.437 42.7698C114.584 42.3772 114.658 41.9197 114.658 41.3974C114.658 40.8751 114.584 40.4212 114.437 40.0356C114.293 39.65 114.079 39.3503 113.795 39.1365C113.515 38.9227 113.17 38.8158 112.76 38.8158C112.335 38.8158 111.981 38.9262 111.697 39.147C111.413 39.3678 111.2 39.6728 111.056 40.0619C110.912 40.451 110.84 40.8962 110.84 41.3974C110.84 41.9022 110.912 42.3526 111.056 42.7487C111.203 43.1413 111.419 43.4515 111.703 43.6794C111.99 43.9037 112.342 44.0159 112.76 44.0159ZM122.081 45.5933C121.292 45.5933 120.608 45.4198 120.03 45.0727C119.452 44.7257 119.003 44.2402 118.684 43.6163C118.368 42.9923 118.211 42.2632 118.211 41.429C118.211 40.5947 118.368 39.8638 118.684 39.2364C119.003 38.6089 119.452 38.1217 120.03 37.7747C120.608 37.4277 121.292 37.2541 122.081 37.2541C122.869 37.2541 123.553 37.4277 124.131 37.7747C124.71 38.1217 125.156 38.6089 125.472 39.2364C125.791 39.8638 125.95 40.5947 125.95 41.429C125.95 42.2632 125.791 42.9923 125.472 43.6163C125.156 44.2402 124.71 44.7257 124.131 45.0727C123.553 45.4198 122.869 45.5933 122.081 45.5933ZM122.091 44.0685C122.519 44.0685 122.876 43.951 123.164 43.7162C123.451 43.4778 123.665 43.1588 123.805 42.7592C123.949 42.3596 124.021 41.9145 124.021 41.4237C124.021 40.9295 123.949 40.4825 123.805 40.0829C123.665 39.6798 123.451 39.3591 123.164 39.1207C122.876 38.8824 122.519 38.7632 122.091 38.7632C121.653 38.7632 121.288 38.8824 120.997 39.1207C120.71 39.3591 120.494 39.6798 120.351 40.0829C120.21 40.4825 120.14 40.9295 120.14 41.4237C120.14 41.9145 120.21 42.3596 120.351 42.7592C120.494 43.1588 120.71 43.4778 120.997 43.7162C121.288 43.951 121.653 44.0685 122.091 44.0685ZM133.273 34.6672V45.4355H131.323V34.6672H133.273ZM140.71 42.9012L140.704 40.6035H141.009L143.912 37.3593H146.136L142.566 41.3343H142.171L140.71 42.9012ZM138.974 45.4355V34.6672H140.878V45.4355H138.974ZM144.043 45.4355L141.414 41.7602L142.697 40.4194L146.32 45.4355H144.043ZM149.308 40.7034V45.4355H147.404V37.3593H149.224V38.7316H149.318C149.504 38.2794 149.8 37.9202 150.207 37.6537C150.617 37.3873 151.123 37.2541 151.726 37.2541C152.284 37.2541 152.769 37.3733 153.183 37.6117C153.6 37.85 153.922 38.1953 154.15 38.6475C154.382 39.0997 154.496 39.6483 154.492 40.2932V45.4355H152.589V40.5877C152.589 40.0479 152.448 39.6255 152.168 39.3205C151.891 39.0156 151.507 38.8631 151.017 38.8631C150.684 38.8631 150.387 38.9367 150.128 39.0839C149.872 39.2276 149.67 39.4362 149.523 39.7096C149.38 39.983 149.308 40.3143 149.308 40.7034ZM159.95 45.5933C159.161 45.5933 158.478 45.4198 157.899 45.0727C157.321 44.7257 156.872 44.2402 156.553 43.6163C156.238 42.9923 156.08 42.2632 156.08 41.429C156.08 40.5947 156.238 39.8638 156.553 39.2364C156.872 38.6089 157.321 38.1217 157.899 37.7747C158.478 37.4277 159.161 37.2541 159.95 37.2541C160.739 37.2541 161.422 37.4277 162 37.7747C162.579 38.1217 163.026 38.6089 163.341 39.2364C163.66 39.8638 163.82 40.5947 163.82 41.429C163.82 42.2632 163.66 42.9923 163.341 43.6163C163.026 44.2402 162.579 44.7257 162 45.0727C161.422 45.4198 160.739 45.5933 159.95 45.5933ZM159.96 44.0685C160.388 44.0685 160.746 43.951 161.033 43.7162C161.32 43.4778 161.534 43.1588 161.674 42.7592C161.818 42.3596 161.89 41.9145 161.89 41.4237C161.89 40.9295 161.818 40.4825 161.674 40.0829C161.534 39.6798 161.32 39.3591 161.033 39.1207C160.746 38.8824 160.388 38.7632 159.96 38.7632C159.522 38.7632 159.158 38.8824 158.867 39.1207C158.579 39.3591 158.364 39.6798 158.22 40.0829C158.08 40.4825 158.01 40.9295 158.01 41.4237C158.01 41.9145 158.08 42.3596 158.22 42.7592C158.364 43.1588 158.579 43.4778 158.867 43.7162C159.158 43.951 159.522 44.0685 159.96 44.0685ZM166.871 45.4355L164.589 37.3593H166.529L167.948 43.0379H168.022L169.473 37.3593H171.392L172.844 43.0064H172.923L174.321 37.3593H176.267L173.979 45.4355H171.997L170.483 39.9778H170.372L168.858 45.4355H166.871ZM181.268 45.4355V37.3593H183.172V45.4355H181.268ZM182.225 36.2131C181.924 36.2131 181.664 36.1132 181.447 35.9134C181.23 35.71 181.121 35.4664 181.121 35.1825C181.121 34.8951 181.23 34.6514 181.447 34.4516C181.664 34.2483 181.924 34.1467 182.225 34.1467C182.53 34.1467 182.79 34.2483 183.003 34.4516C183.221 34.6514 183.329 34.8951 183.329 35.1825C183.329 35.4664 183.221 35.71 183.003 35.9134C182.79 36.1132 182.53 36.2131 182.225 36.2131ZM189.22 37.3593V38.8315H184.445V37.3593H189.22ZM185.639 45.4355V36.5969C185.639 36.0536 185.751 35.6014 185.975 35.2403C186.203 34.8793 186.508 34.6094 186.89 34.4306C187.272 34.2518 187.697 34.1625 188.163 34.1625C188.492 34.1625 188.785 34.1887 189.041 34.2413C189.297 34.2939 189.486 34.3412 189.609 34.3833L189.23 35.8555C189.15 35.831 189.048 35.8064 188.925 35.7819C188.802 35.7539 188.666 35.7398 188.515 35.7398C188.161 35.7398 187.91 35.8257 187.763 35.9975C187.619 36.1657 187.548 36.4076 187.548 36.7231V45.4355H185.639ZM196.418 34.6672V45.4355H194.467V34.6672H196.418ZM207.508 48.4641V44.1631H207.429C207.331 44.3594 207.189 44.568 207.003 44.7888C206.818 45.0061 206.572 45.1919 206.267 45.3462C205.962 45.5004 205.578 45.5775 205.116 45.5775C204.481 45.5775 203.913 45.4145 203.412 45.0885C202.911 44.7625 202.515 44.2893 202.224 43.6689C201.933 43.0484 201.787 42.2948 201.787 41.4079C201.787 40.5106 201.935 39.7534 202.229 39.1365C202.527 38.5161 202.928 38.0481 203.433 37.7326C203.938 37.4136 204.501 37.2541 205.121 37.2541C205.594 37.2541 205.983 37.3348 206.288 37.496C206.593 37.6537 206.835 37.8448 207.014 38.0691C207.193 38.29 207.331 38.4985 207.429 38.6948H207.545V37.3593H209.417V48.4641H207.508ZM205.647 44.0159C206.05 44.0159 206.393 43.9072 206.677 43.6899C206.961 43.4691 207.177 43.1623 207.324 42.7698C207.471 42.3772 207.545 41.9197 207.545 41.3974C207.545 40.8751 207.471 40.4212 207.324 40.0356C207.18 39.65 206.967 39.3503 206.683 39.1365C206.402 38.9227 206.057 38.8158 205.647 38.8158C205.223 38.8158 204.869 38.9262 204.585 39.147C204.301 39.3678 204.087 39.6728 203.943 40.0619C203.8 40.451 203.728 40.8962 203.728 41.3974C203.728 41.9022 203.8 42.3526 203.943 42.7487C204.09 43.1413 204.306 43.4515 204.59 43.6794C204.877 43.9037 205.23 44.0159 205.647 44.0159ZM216.52 42.0389V37.3593H218.424V45.4355H216.578V44.0001H216.494C216.312 44.4523 216.012 44.8221 215.595 45.1096C215.181 45.397 214.671 45.5407 214.065 45.5407C213.536 45.5407 213.068 45.4233 212.661 45.1884C212.258 44.9501 211.942 44.6048 211.715 44.1526C211.487 43.6969 211.373 43.1466 211.373 42.5016V37.3593H213.276V42.2072C213.276 42.7189 213.416 43.1255 213.697 43.427C213.977 43.7285 214.345 43.8792 214.801 43.8792C215.081 43.8792 215.353 43.8108 215.616 43.6741C215.879 43.5374 216.094 43.3341 216.263 43.0642C216.434 42.7908 216.52 42.449 216.52 42.0389ZM222.705 45.5985C222.193 45.5985 221.732 45.5074 221.322 45.3251C220.916 45.1393 220.593 44.8659 220.355 44.5049C220.12 44.1438 220.002 43.6987 220.002 43.1694C220.002 42.7137 220.087 42.3368 220.255 42.0389C220.423 41.7409 220.653 41.5026 220.944 41.3238C221.235 41.145 221.562 41.0101 221.927 40.9189C222.295 40.8243 222.675 40.756 223.068 40.7139C223.541 40.6648 223.925 40.621 224.219 40.5824C224.514 40.5404 224.728 40.4773 224.861 40.3932C224.998 40.3055 225.066 40.1706 225.066 39.9883V39.9567C225.066 39.5606 224.948 39.2539 224.714 39.0366C224.479 38.8193 224.14 38.7106 223.699 38.7106C223.233 38.7106 222.863 38.8123 222.589 39.0156C222.319 39.2189 222.137 39.459 222.043 39.7359L220.265 39.4835C220.406 38.9928 220.637 38.5827 220.959 38.2532C221.282 37.9202 221.676 37.6713 222.142 37.5065C222.609 37.3383 223.124 37.2541 223.688 37.2541C224.077 37.2541 224.465 37.2997 224.85 37.3908C225.236 37.482 225.588 37.6327 225.907 37.843C226.226 38.0498 226.482 38.332 226.675 38.6896C226.871 39.0471 226.969 39.494 226.969 40.0304V45.4355H225.139V44.3261H225.076C224.961 44.5505 224.798 44.7608 224.587 44.9571C224.381 45.1499 224.119 45.3059 223.804 45.425C223.492 45.5407 223.126 45.5985 222.705 45.5985ZM223.199 44.1999C223.581 44.1999 223.913 44.1246 224.193 43.9738C224.473 43.8196 224.689 43.6163 224.84 43.3639C224.994 43.1115 225.071 42.8364 225.071 42.5384V41.5867C225.012 41.6358 224.91 41.6814 224.766 41.7234C224.626 41.7655 224.468 41.8023 224.293 41.8338C224.118 41.8654 223.944 41.8934 223.772 41.918C223.601 41.9425 223.452 41.9635 223.325 41.9811C223.042 42.0196 222.787 42.0827 222.563 42.1703C222.339 42.258 222.162 42.3807 222.032 42.5384C221.902 42.6926 221.837 42.8924 221.837 43.1378C221.837 43.4883 221.965 43.753 222.221 43.9318C222.477 44.1105 222.803 44.1999 223.199 44.1999ZM230.787 34.6672V45.4355H228.883V34.6672H230.787ZM232.744 45.4355V37.3593H234.647V45.4355H232.744ZM233.701 36.2131C233.399 36.2131 233.14 36.1132 232.923 35.9134C232.705 35.71 232.597 35.4664 232.597 35.1825C232.597 34.8951 232.705 34.6514 232.923 34.4516C233.14 34.2483 233.399 34.1467 233.701 34.1467C234.006 34.1467 234.265 34.2483 234.479 34.4516C234.696 34.6514 234.805 34.8951 234.805 35.1825C234.805 35.4664 234.696 35.71 234.479 35.9134C234.265 36.1132 234.006 36.2131 233.701 36.2131ZM240.695 37.3593V38.8315H235.921V37.3593H240.695ZM237.115 45.4355V36.5969C237.115 36.0536 237.227 35.6014 237.451 35.2403C237.679 34.8793 237.984 34.6094 238.366 34.4306C238.748 34.2518 239.172 34.1625 239.638 34.1625C239.968 34.1625 240.261 34.1887 240.516 34.2413C240.772 34.2939 240.962 34.3412 241.084 34.3833L240.706 35.8555C240.625 35.831 240.523 35.8064 240.401 35.7819C240.278 35.7539 240.141 35.7398 239.991 35.7398C239.637 35.7398 239.386 35.8257 239.239 35.9975C239.095 36.1657 239.023 36.4076 239.023 36.7231V45.4355H237.115ZM243.369 48.4641C243.109 48.4641 242.869 48.4431 242.649 48.401C242.431 48.3625 242.258 48.3169 242.128 48.2643L242.57 46.7816C242.847 46.8622 243.094 46.9008 243.311 46.8973C243.528 46.8938 243.719 46.8254 243.884 46.6922C244.052 46.5625 244.194 46.3452 244.31 46.0402L244.473 45.6038L241.544 37.3593H243.563L245.425 43.4585H245.509L247.375 37.3593H249.4L246.166 46.4135C246.015 46.8412 245.816 47.2075 245.567 47.5124C245.318 47.8209 245.013 48.0558 244.652 48.217C244.294 48.3818 243.867 48.4641 243.369 48.4641ZM258.48 37.3593V38.8315H253.706V37.3593H258.48ZM254.9 45.4355V36.5969C254.9 36.0536 255.012 35.6014 255.236 35.2403C255.464 34.8793 255.769 34.6094 256.151 34.4306C256.533 34.2518 256.957 34.1625 257.423 34.1625C257.753 34.1625 258.046 34.1887 258.302 34.2413C258.557 34.2939 258.747 34.3412 258.869 34.3833L258.491 35.8555C258.41 35.831 258.309 35.8064 258.186 35.7819C258.063 35.7539 257.926 35.7398 257.776 35.7398C257.422 35.7398 257.171 35.8257 257.024 35.9975C256.88 36.1657 256.808 36.4076 256.808 36.7231V45.4355H254.9ZM263.19 45.5933C262.401 45.5933 261.718 45.4198 261.14 45.0727C260.561 44.7257 260.112 44.2402 259.793 43.6163C259.478 42.9923 259.32 42.2632 259.32 41.429C259.32 40.5947 259.478 39.8638 259.793 39.2364C260.112 38.6089 260.561 38.1217 261.14 37.7747C261.718 37.4277 262.401 37.2541 263.19 37.2541C263.979 37.2541 264.662 37.4277 265.241 37.7747C265.819 38.1217 266.266 38.6089 266.582 39.2364C266.9 39.8638 267.06 40.5947 267.06 41.429C267.06 42.2632 266.9 42.9923 266.582 43.6163C266.266 44.2402 265.819 44.7257 265.241 45.0727C264.662 45.4198 263.979 45.5933 263.19 45.5933ZM263.201 44.0685C263.628 44.0685 263.986 43.951 264.273 43.7162C264.561 43.4778 264.775 43.1588 264.915 42.7592C265.058 42.3596 265.13 41.9145 265.13 41.4237C265.13 40.9295 265.058 40.4825 264.915 40.0829C264.775 39.6798 264.561 39.3591 264.273 39.1207C263.986 38.8824 263.628 38.7632 263.201 38.7632C262.762 38.7632 262.398 38.8824 262.107 39.1207C261.82 39.3591 261.604 39.6798 261.46 40.0829C261.32 40.4825 261.25 40.9295 261.25 41.4237C261.25 41.9145 261.32 42.3596 261.46 42.7592C261.604 43.1588 261.82 43.4778 262.107 43.7162C262.398 43.951 262.762 44.0685 263.201 44.0685ZM268.675 45.4355V37.3593H270.521V38.7053H270.605C270.752 38.2391 271.005 37.8798 271.362 37.6275C271.723 37.3716 272.135 37.2436 272.598 37.2436C272.703 37.2436 272.821 37.2489 272.95 37.2594C273.083 37.2664 273.194 37.2787 273.281 37.2962V39.0471C273.201 39.0191 273.073 38.9945 272.898 38.9735C272.726 38.949 272.559 38.9367 272.398 38.9367C272.051 38.9367 271.739 39.0121 271.462 39.1628C271.189 39.31 270.973 39.5151 270.815 39.778C270.658 40.0409 270.579 40.3441 270.579 40.6876V45.4355H268.675ZM282.252 37.3593V38.8315H277.609V37.3593H282.252ZM278.755 35.4244H280.658V43.0064C280.658 43.2623 280.697 43.4585 280.774 43.5953C280.855 43.7285 280.96 43.8196 281.09 43.8687C281.219 43.9177 281.363 43.9423 281.521 43.9423C281.64 43.9423 281.749 43.9335 281.847 43.916C281.948 43.8985 282.025 43.8827 282.078 43.8687L282.399 45.3567C282.297 45.3917 282.152 45.4303 281.962 45.4724C281.777 45.5144 281.549 45.539 281.279 45.546C280.802 45.56 280.373 45.4881 279.991 45.3304C279.609 45.1691 279.305 44.9203 279.081 44.5838C278.86 44.2472 278.752 43.8266 278.755 43.3218V35.4244ZM285.92 40.7034V45.4355H284.017V34.6672H285.878V38.7316H285.973C286.162 38.2759 286.455 37.9166 286.851 37.6537C287.251 37.3873 287.759 37.2541 288.376 37.2541C288.937 37.2541 289.426 37.3716 289.843 37.6064C290.26 37.8413 290.582 38.1848 290.81 38.637C291.042 39.0892 291.157 39.6413 291.157 40.2932V45.4355H289.254V40.5877C289.254 40.0444 289.114 39.622 288.833 39.3205C288.556 39.0156 288.167 38.8631 287.666 38.8631C287.329 38.8631 287.028 38.9367 286.762 39.0839C286.499 39.2276 286.292 39.4362 286.141 39.7096C285.994 39.983 285.92 40.3143 285.92 40.7034ZM296.673 45.5933C295.863 45.5933 295.164 45.425 294.575 45.0885C293.99 44.7485 293.539 44.2683 293.224 43.6478C292.908 43.0239 292.75 42.2895 292.75 41.4447C292.75 40.614 292.908 39.8849 293.224 39.2574C293.543 38.6265 293.988 38.1357 294.559 37.7852C295.131 37.4312 295.802 37.2541 296.573 37.2541C297.071 37.2541 297.54 37.3348 297.982 37.496C298.427 37.6537 298.82 37.8991 299.16 38.2321C299.503 38.5651 299.773 38.9893 299.97 39.5046C300.166 40.0163 300.264 40.6263 300.264 41.3343V41.918H293.644V40.635H298.44C298.436 40.2705 298.357 39.9462 298.203 39.6623C298.049 39.3749 297.833 39.1488 297.556 38.984C297.283 38.8193 296.964 38.7369 296.599 38.7369C296.21 38.7369 295.868 38.8315 295.574 39.0208C295.28 39.2066 295.05 39.452 294.885 39.7569C294.724 40.0584 294.642 40.3896 294.638 40.7507V41.8706C294.638 42.3404 294.724 42.7435 294.896 43.08C295.067 43.413 295.308 43.6689 295.616 43.8476C295.924 44.0229 296.286 44.1105 296.699 44.1105C296.976 44.1105 297.227 44.072 297.451 43.9949C297.675 43.9142 297.87 43.7968 298.035 43.6426C298.199 43.4883 298.324 43.2973 298.408 43.0695L300.185 43.2693C300.073 43.739 299.859 44.1491 299.544 44.4996C299.232 44.8467 298.832 45.1166 298.345 45.3094C297.858 45.4986 297.3 45.5933 296.673 45.5933ZM311.483 37.6275C311.434 37.1683 311.227 36.8107 310.863 36.5548C310.502 36.2989 310.032 36.171 309.454 36.171C309.047 36.171 308.698 36.2323 308.407 36.355C308.116 36.4777 307.894 36.6442 307.74 36.8545C307.585 37.0649 307.507 37.305 307.503 37.5749C307.503 37.7992 307.554 37.9938 307.655 38.1585C307.761 38.3233 307.903 38.4635 308.081 38.5792C308.26 38.6913 308.458 38.786 308.676 38.8631C308.893 38.9402 309.112 39.005 309.333 39.0576L310.342 39.31C310.749 39.4047 311.14 39.5326 311.515 39.6938C311.893 39.8551 312.232 40.0584 312.53 40.3038C312.831 40.5491 313.069 40.8453 313.245 41.1924C313.42 41.5394 313.508 41.946 313.508 42.4122C313.508 43.0432 313.346 43.5988 313.024 44.079C312.701 44.5557 312.235 44.929 311.625 45.1989C311.019 45.4653 310.284 45.5985 309.422 45.5985C308.584 45.5985 307.857 45.4688 307.24 45.2095C306.627 44.9501 306.146 44.5715 305.799 44.0737C305.456 43.576 305.27 42.9696 305.242 42.2545H307.161C307.189 42.6295 307.305 42.9415 307.508 43.1904C307.712 43.4393 307.976 43.6251 308.302 43.7477C308.632 43.8704 309 43.9318 309.406 43.9318C309.831 43.9318 310.202 43.8687 310.521 43.7425C310.844 43.6128 311.096 43.434 311.278 43.2062C311.46 42.9748 311.553 42.7049 311.557 42.3964C311.553 42.116 311.471 41.8847 311.31 41.7024C311.149 41.5166 310.922 41.3624 310.631 41.2397C310.344 41.1135 310.008 41.0013 309.622 40.9032L308.397 40.5877C307.51 40.3599 306.809 40.0146 306.294 39.5519C305.782 39.0857 305.526 38.467 305.526 37.6958C305.526 37.0613 305.698 36.5058 306.041 36.029C306.388 35.5523 306.86 35.1825 307.456 34.9196C308.052 34.6532 308.726 34.52 309.48 34.52C310.244 34.52 310.914 34.6532 311.489 34.9196C312.067 35.1825 312.521 35.5488 312.85 36.0185C313.18 36.4847 313.35 37.021 313.36 37.6275H311.483ZM319.195 37.3593V38.8315H314.553V37.3593H319.195ZM315.699 35.4244H317.602V43.0064C317.602 43.2623 317.641 43.4585 317.718 43.5953C317.799 43.7285 317.904 43.8196 318.033 43.8687C318.163 43.9177 318.307 43.9423 318.465 43.9423C318.584 43.9423 318.692 43.9335 318.791 43.916C318.892 43.8985 318.969 43.8827 319.022 43.8687L319.343 45.3567C319.241 45.3917 319.096 45.4303 318.906 45.4724C318.72 45.5144 318.493 45.539 318.223 45.546C317.746 45.56 317.317 45.4881 316.934 45.3304C316.552 45.1691 316.249 44.9203 316.025 44.5838C315.804 44.2472 315.695 43.8266 315.699 43.3218V35.4244ZM323.111 45.5985C322.6 45.5985 322.139 45.5074 321.728 45.3251C321.322 45.1393 320.999 44.8659 320.761 44.5049C320.526 44.1438 320.409 43.6987 320.409 43.1694C320.409 42.7137 320.493 42.3368 320.661 42.0389C320.829 41.7409 321.059 41.5026 321.35 41.3238C321.641 41.145 321.969 41.0101 322.333 40.9189C322.701 40.8243 323.081 40.756 323.474 40.7139C323.947 40.6648 324.331 40.621 324.626 40.5824C324.92 40.5404 325.134 40.4773 325.267 40.3932C325.404 40.3055 325.472 40.1706 325.472 39.9883V39.9567C325.472 39.5606 325.355 39.2539 325.12 39.0366C324.885 38.8193 324.547 38.7106 324.105 38.7106C323.639 38.7106 323.269 38.8123 322.996 39.0156C322.726 39.2189 322.543 39.459 322.449 39.7359L320.672 39.4835C320.812 38.9928 321.043 38.5827 321.366 38.2532C321.688 37.9202 322.082 37.6713 322.549 37.5065C323.015 37.3383 323.53 37.2541 324.095 37.2541C324.484 37.2541 324.871 37.2997 325.257 37.3908C325.642 37.482 325.994 37.6327 326.313 37.843C326.632 38.0498 326.888 38.332 327.081 38.6896C327.277 39.0471 327.376 39.494 327.376 40.0304V45.4355H325.546V44.3261H325.483C325.367 44.5505 325.204 44.7608 324.994 44.9571C324.787 45.1499 324.526 45.3059 324.21 45.425C323.898 45.5407 323.532 45.5985 323.111 45.5985ZM323.606 44.1999C323.988 44.1999 324.319 44.1246 324.599 43.9738C324.88 43.8196 325.095 43.6163 325.246 43.3639C325.4 43.1115 325.477 42.8364 325.477 42.5384V41.5867C325.418 41.6358 325.316 41.6814 325.172 41.7234C325.032 41.7655 324.874 41.8023 324.699 41.8338C324.524 41.8654 324.35 41.8934 324.179 41.918C324.007 41.9425 323.858 41.9635 323.732 41.9811C323.448 42.0196 323.194 42.0827 322.969 42.1703C322.745 42.258 322.568 42.3807 322.438 42.5384C322.309 42.6926 322.244 42.8924 322.244 43.1378C322.244 43.4883 322.372 43.753 322.628 43.9318C322.883 44.1105 323.209 44.1999 323.606 44.1999ZM329.289 45.4355V37.3593H331.135V38.7053H331.219C331.366 38.2391 331.619 37.8798 331.976 37.6275C332.337 37.3716 332.749 37.2436 333.212 37.2436C333.317 37.2436 333.434 37.2489 333.564 37.2594C333.697 37.2664 333.808 37.2787 333.895 37.2962V39.0471C333.815 39.0191 333.687 38.9945 333.512 38.9735C333.34 38.949 333.173 38.9367 333.012 38.9367C332.665 38.9367 332.353 39.0121 332.076 39.1628C331.803 39.31 331.587 39.5151 331.429 39.778C331.272 40.0409 331.193 40.3441 331.193 40.6876V45.4355H329.289ZM339.627 37.3593V38.8315H334.984V37.3593H339.627ZM336.13 35.4244H338.033V43.0064C338.033 43.2623 338.072 43.4585 338.149 43.5953C338.23 43.7285 338.335 43.8196 338.465 43.8687C338.594 43.9177 338.738 43.9423 338.896 43.9423C339.015 43.9423 339.124 43.9335 339.222 43.916C339.323 43.8985 339.4 43.8827 339.453 43.8687L339.774 45.3567C339.672 45.3917 339.527 45.4303 339.337 45.4724C339.152 45.5144 338.924 45.539 338.654 45.546C338.177 45.56 337.748 45.4881 337.366 45.3304C336.984 45.1691 336.68 44.9203 336.456 44.5838C336.235 44.2472 336.127 43.8266 336.13 43.3218V35.4244ZM345.853 40.1671V41.7339H341.005V40.1671H345.853ZM354.727 34.6672H356.678V41.7024C356.678 42.4736 356.496 43.1518 356.131 43.7372C355.77 44.3226 355.262 44.7801 354.607 45.1096C353.951 45.4355 353.185 45.5985 352.309 45.5985C351.429 45.5985 350.661 45.4355 350.006 45.1096C349.35 44.7801 348.842 44.3226 348.481 43.7372C348.12 43.1518 347.939 42.4736 347.939 41.7024V34.6672H349.89V41.5394C349.89 41.9881 349.988 42.3877 350.185 42.7382C350.384 43.0887 350.665 43.3639 351.026 43.5637C351.387 43.76 351.815 43.8582 352.309 43.8582C352.803 43.8582 353.231 43.76 353.592 43.5637C353.956 43.3639 354.237 43.0887 354.433 42.7382C354.629 42.3877 354.727 41.9881 354.727 41.5394V34.6672ZM358.714 48.4641V37.3593H360.586V38.6948H360.697C360.795 38.4985 360.933 38.29 361.112 38.0691C361.291 37.8448 361.533 37.6537 361.838 37.496C362.143 37.3348 362.532 37.2541 363.005 37.2541C363.629 37.2541 364.191 37.4136 364.693 37.7326C365.197 38.0481 365.597 38.5161 365.891 39.1365C366.189 39.7534 366.338 40.5106 366.338 41.4079C366.338 42.2948 366.193 43.0484 365.902 43.6689C365.611 44.2893 365.215 44.7625 364.714 45.0885C364.212 45.4145 363.645 45.5775 363.01 45.5775C362.547 45.5775 362.164 45.5004 361.859 45.3462C361.554 45.1919 361.308 45.0061 361.122 44.7888C360.94 44.568 360.798 44.3594 360.697 44.1631H360.618V48.4641H358.714ZM360.581 41.3974C360.581 41.9197 360.655 42.3772 360.802 42.7698C360.952 43.1623 361.168 43.4691 361.448 43.6899C361.732 43.9072 362.076 44.0159 362.479 44.0159C362.9 44.0159 363.252 43.9037 363.536 43.6794C363.82 43.4515 364.034 43.1413 364.177 42.7487C364.325 42.3526 364.398 41.9022 364.398 41.3974C364.398 40.8962 364.326 40.451 364.183 40.0619C364.039 39.6728 363.825 39.3678 363.541 39.147C363.257 38.9262 362.903 38.8158 362.479 38.8158C362.072 38.8158 361.727 38.9227 361.443 39.1365C361.159 39.3503 360.944 39.65 360.796 40.0356C360.653 40.4212 360.581 40.8751 360.581 41.3974ZM373.166 34.6672L375.968 43.1431H376.079L378.876 34.6672H381.021L377.225 45.4355H374.817L371.026 34.6672H373.166ZM382.355 45.4355V37.3593H384.259V45.4355H382.355ZM383.312 36.2131C383.011 36.2131 382.752 36.1132 382.534 35.9134C382.317 35.71 382.208 35.4664 382.208 35.1825C382.208 34.8951 382.317 34.6514 382.534 34.4516C382.752 34.2483 383.011 34.1467 383.312 34.1467C383.617 34.1467 383.877 34.2483 384.091 34.4516C384.308 34.6514 384.417 34.8951 384.417 35.1825C384.417 35.4664 384.308 35.71 384.091 35.9134C383.877 36.1132 383.617 36.2131 383.312 36.2131ZM392.599 39.494L390.864 39.6833C390.815 39.5081 390.729 39.3433 390.607 39.1891C390.487 39.0348 390.326 38.9104 390.123 38.8158C389.92 38.7211 389.671 38.6738 389.376 38.6738C388.98 38.6738 388.647 38.7597 388.377 38.9314C388.111 39.1032 387.979 39.3258 387.983 39.5992C387.979 39.8341 388.065 40.0251 388.24 40.1723C388.419 40.3195 388.714 40.4405 389.124 40.5351L390.501 40.8296C391.266 40.9943 391.833 41.2555 392.205 41.613C392.58 41.9705 392.769 42.4385 392.773 43.0169C392.769 43.5251 392.62 43.9738 392.326 44.3629C392.035 44.7485 391.63 45.05 391.111 45.2673C390.593 45.4846 389.997 45.5933 389.324 45.5933C388.335 45.5933 387.539 45.3865 386.937 44.9728C386.334 44.5557 385.974 43.9756 385.859 43.2325L387.715 43.0537C387.799 43.4182 387.978 43.6934 388.251 43.8792C388.524 44.065 388.88 44.1579 389.318 44.1579C389.771 44.1579 390.133 44.065 390.407 43.8792C390.684 43.6934 390.822 43.4638 390.822 43.1904C390.822 42.959 390.733 42.768 390.554 42.6173C390.379 42.4665 390.105 42.3509 389.734 42.2702L388.356 41.9811C387.581 41.8198 387.008 41.5482 386.637 41.1661C386.265 40.7805 386.081 40.2932 386.085 39.7044C386.081 39.2066 386.216 38.7754 386.49 38.4109C386.767 38.0428 387.15 37.7589 387.641 37.5591C388.135 37.3558 388.705 37.2541 389.35 37.2541C390.296 37.2541 391.041 37.4557 391.585 37.8588C392.131 38.2619 392.47 38.807 392.599 39.494ZM396.666 45.5985C396.155 45.5985 395.694 45.5074 395.284 45.3251C394.877 45.1393 394.554 44.8659 394.316 44.5049C394.081 44.1438 393.964 43.6987 393.964 43.1694C393.964 42.7137 394.048 42.3368 394.216 42.0389C394.384 41.7409 394.614 41.5026 394.905 41.3238C395.196 41.145 395.524 41.0101 395.888 40.9189C396.256 40.8243 396.637 40.756 397.029 40.7139C397.502 40.6648 397.886 40.621 398.181 40.5824C398.475 40.5404 398.689 40.4773 398.822 40.3932C398.959 40.3055 399.027 40.1706 399.027 39.9883V39.9567C399.027 39.5606 398.91 39.2539 398.675 39.0366C398.44 38.8193 398.102 38.7106 397.66 38.7106C397.194 38.7106 396.824 38.8123 396.551 39.0156C396.281 39.2189 396.099 39.459 396.004 39.7359L394.227 39.4835C394.367 38.9928 394.598 38.5827 394.921 38.2532C395.243 37.9202 395.638 37.6713 396.104 37.5065C396.57 37.3383 397.085 37.2541 397.65 37.2541C398.039 37.2541 398.426 37.2997 398.812 37.3908C399.197 37.482 399.55 37.6327 399.868 37.843C400.187 38.0498 400.443 38.332 400.636 38.6896C400.832 39.0471 400.931 39.494 400.931 40.0304V45.4355H399.101V44.3261H399.038C398.922 44.5505 398.759 44.7608 398.549 44.9571C398.342 45.1499 398.081 45.3059 397.765 45.425C397.453 45.5407 397.087 45.5985 396.666 45.5985ZM397.161 44.1999C397.543 44.1999 397.874 44.1246 398.154 43.9738C398.435 43.8196 398.65 43.6163 398.801 43.3639C398.955 43.1115 399.032 42.8364 399.032 42.5384V41.5867C398.973 41.6358 398.871 41.6814 398.728 41.7234C398.587 41.7655 398.43 41.8023 398.254 41.8338C398.079 41.8654 397.906 41.8934 397.734 41.918C397.562 41.9425 397.413 41.9635 397.287 41.9811C397.003 42.0196 396.749 42.0827 396.524 42.1703C396.3 42.258 396.123 42.3807 395.993 42.5384C395.864 42.6926 395.799 42.8924 395.799 43.1378C395.799 43.4883 395.927 43.753 396.183 43.9318C396.439 44.1105 396.765 44.1999 397.161 44.1999ZM404.664 42.2702V42.1335C404.667 41.4991 404.727 40.9943 404.843 40.6192C404.962 40.2442 405.13 39.9427 405.347 39.7149C405.565 39.4835 405.829 39.2714 406.141 39.0787C406.355 38.9455 406.546 38.8 406.714 38.6422C406.886 38.481 407.021 38.3022 407.119 38.1059C407.217 37.9061 407.266 37.6835 407.266 37.4382C407.266 37.1613 407.202 36.9211 407.072 36.7178C406.942 36.5145 406.767 36.3568 406.546 36.2446C406.329 36.1324 406.085 36.0764 405.815 36.0764C405.566 36.0764 405.33 36.1307 405.105 36.2394C404.885 36.3445 404.701 36.5058 404.553 36.7231C404.41 36.9369 404.329 37.2086 404.311 37.5381H402.44C402.457 36.8721 402.618 36.3147 402.923 35.866C403.232 35.4174 403.638 35.0808 404.143 34.8565C404.651 34.6322 405.212 34.52 405.826 34.52C406.495 34.52 407.084 34.6374 407.592 34.8723C408.104 35.1071 408.502 35.4419 408.786 35.8766C409.073 36.3077 409.217 36.8195 409.217 37.4119C409.217 37.8115 409.152 38.169 409.023 38.4845C408.896 38.8 408.716 39.0804 408.481 39.3258C408.246 39.5712 407.968 39.7902 407.645 39.983C407.361 40.1583 407.128 40.3406 406.946 40.5299C406.767 40.7191 406.634 40.9417 406.546 41.1976C406.462 41.45 406.418 41.762 406.415 42.1335V42.2702H404.664ZM405.579 45.5512C405.263 45.5512 404.992 45.4391 404.764 45.2147C404.536 44.9904 404.422 44.717 404.422 44.3945C404.422 44.079 404.536 43.8091 404.764 43.5847C404.992 43.3604 405.263 43.2482 405.579 43.2482C405.891 43.2482 406.161 43.3604 406.388 43.5847C406.62 43.8091 406.735 44.079 406.735 44.3945C406.735 44.6083 406.681 44.8028 406.572 44.9781C406.467 45.1534 406.327 45.2936 406.152 45.3987C405.98 45.5004 405.789 45.5512 405.579 45.5512Z" fill="#1B1139"/>
<rect opacity="0.8" x="46.0708" y="39.0725" width="14.8065" height="2.46774" rx="1.23387" fill="#1B1139"/>
<rect opacity="0.8" x="54.7085" y="32.9033" width="14.8065" height="2.46774" rx="1.23387" transform="rotate(90 54.7085 32.9033)" fill="#1B1139"/>
<defs>
<filter id="filter0_d_160_740" x="4.673e-05" y="0" width="488.626" height="117.27" filterUnits="userSpaceOnUse" color-interpolation-filters="sRGB">
<feFlood flood-opacity="0" result="BackgroundImageFix"/>
<feColorMatrix in="SourceAlpha" type="matrix" values="0 0 0 0 0 0 0 0 0 0 0 0 0 0 0 0 0 0 127 0" result="hardAlpha"/>
<feMorphology radius="12.1197" operator="erode" in="SourceAlpha" result="effect1_dropShadow_160_740"/>
<feOffset dy="20.1995"/>
<feGaussianBlur stdDeviation="13.4663"/>
<feColorMatrix type="matrix" values="0 0 0 0 0.583333 0 0 0 0 0.583333 0 0 0 0 0.583333 0 0 0 0.25 0"/>
<feBlend mode="normal" in2="BackgroundImageFix" result="effect1_dropShadow_160_740"/>
<feBlend mode="normal" in="SourceGraphic" in2="effect1_dropShadow_160_740" result="shape"/>
</filter>
</defs>
</svg>
