<svg width="279" height="19" viewBox="0 0 279 19" fill="none" xmlns="http://www.w3.org/2000/svg">
<path opacity="0.88" d="M29.6515 15L26.6124 4.23167H28.7104L30.6506 12.1449H30.7505L32.8221 4.23167H34.7307L36.8076 12.1502H36.9023L38.8425 4.23167H40.9404L37.9013 15H35.9769L33.8211 7.44429H33.737L31.576 15H29.6515ZM44.1123 10.2678V15H42.2089V4.23167H44.0702V8.29608H44.1649C44.3541 7.84039 44.6468 7.4811 45.0429 7.2182C45.4425 6.9518 45.9508 6.81859 46.5678 6.81859C47.1286 6.81859 47.6176 6.93602 48.0347 7.17088C48.4519 7.40573 48.7743 7.74925 49.0022 8.20144C49.2335 8.65363 49.3492 9.20571 49.3492 9.8577V15H47.4458V10.1521C47.4458 9.60882 47.3056 9.18643 47.0252 8.88498C46.7483 8.58001 46.3592 8.42753 45.8579 8.42753C45.5214 8.42753 45.22 8.50115 44.9536 8.64837C44.6907 8.79209 44.4838 9.00065 44.3331 9.27407C44.1859 9.54748 44.1123 9.87873 44.1123 10.2678ZM53.6134 15.163C53.1017 15.163 52.6407 15.0719 52.2306 14.8896C51.824 14.7038 51.5015 14.4304 51.2631 14.0693C51.0283 13.7083 50.9108 13.2631 50.9108 12.7338C50.9108 12.2781 50.995 11.9013 51.1632 11.6033C51.3315 11.3054 51.5611 11.067 51.852 10.8883C52.143 10.7095 52.4707 10.5745 52.8353 10.4834C53.2033 10.3888 53.5836 10.3204 53.9762 10.2783C54.4495 10.2293 54.8333 10.1854 55.1277 10.1469C55.4222 10.1048 55.636 10.0417 55.7692 9.9576C55.9059 9.86997 55.9743 9.73502 55.9743 9.55274V9.52119C55.9743 9.12509 55.8568 8.81838 55.622 8.60105C55.3871 8.38372 55.0489 8.27505 54.6072 8.27505C54.141 8.27505 53.7712 8.37671 53.4978 8.58002C53.2279 8.78332 53.0456 9.02344 52.9509 9.30036L51.1737 9.04797C51.314 8.55723 51.5453 8.14711 51.8678 7.81761C52.1903 7.4846 52.5846 7.23573 53.0508 7.07098C53.517 6.90272 54.0323 6.81859 54.5967 6.81859C54.9858 6.81859 55.3731 6.86416 55.7587 6.9553C56.1443 7.04644 56.4966 7.19717 56.8155 7.40749C57.1345 7.6143 57.3904 7.89648 57.5832 8.25402C57.7795 8.61156 57.8777 9.05849 57.8777 9.5948V15H56.0479V13.8906H55.9848C55.8691 14.1149 55.7061 14.3252 55.4958 14.5215C55.289 14.7143 55.0278 14.8703 54.7124 14.9895C54.4004 15.1052 54.0341 15.163 53.6134 15.163ZM54.1077 13.7644C54.4898 13.7644 54.821 13.689 55.1014 13.5383C55.3819 13.384 55.5974 13.1807 55.7482 12.9284C55.9024 12.676 55.9795 12.4008 55.9795 12.1029V11.1512C55.9199 11.2002 55.8183 11.2458 55.6746 11.2879C55.5343 11.3299 55.3766 11.3667 55.2013 11.3983C55.0261 11.4298 54.8526 11.4579 54.6808 11.4824C54.509 11.507 54.3601 11.528 54.2339 11.5455C53.9499 11.5841 53.6958 11.6472 53.4715 11.7348C53.2471 11.8224 53.0701 11.9451 52.9404 12.1029C52.8107 12.2571 52.7459 12.4569 52.7459 12.7023C52.7459 13.0528 52.8738 13.3174 53.1297 13.4962C53.3856 13.675 53.7116 13.7644 54.1077 13.7644ZM63.8244 6.92375V8.39599H59.1816V6.92375H63.8244ZM60.3279 4.98882H62.2313V12.5708C62.2313 12.8267 62.2698 13.023 62.3469 13.1597C62.4276 13.2929 62.5327 13.384 62.6624 13.4331C62.7921 13.4822 62.9358 13.5067 63.0936 13.5067C63.2127 13.5067 63.3214 13.498 63.4196 13.4804C63.5212 13.4629 63.5983 13.4471 63.6509 13.4331L63.9716 14.9211C63.87 14.9562 63.7245 14.9947 63.5352 15.0368C63.3495 15.0789 63.1216 15.1034 62.8517 15.1104C62.375 15.1244 61.9456 15.0526 61.5635 14.8948C61.1814 14.7336 60.8782 14.4847 60.6539 14.1482C60.433 13.8117 60.3244 13.3911 60.3279 12.8863V4.98882ZM69.089 15V6.92375H70.9924V15H69.089ZM70.0459 5.77752C69.7445 5.77752 69.4851 5.67761 69.2677 5.47781C69.0504 5.2745 68.9417 5.03088 68.9417 4.74695C68.9417 4.45952 69.0504 4.2159 69.2677 4.01609C69.4851 3.81279 69.7445 3.71113 70.0459 3.71113C70.3509 3.71113 70.6103 3.81279 70.8241 4.01609C71.0414 4.2159 71.1501 4.45952 71.1501 4.74695C71.1501 5.03088 71.0414 5.2745 70.8241 5.47781C70.6103 5.67761 70.3509 5.77752 70.0459 5.77752ZM79.3328 9.05849L77.5977 9.24778C77.5486 9.07251 77.4627 8.90776 77.34 8.75353C77.2209 8.59929 77.0596 8.47486 76.8563 8.38021C76.653 8.28557 76.4041 8.23825 76.1097 8.23825C75.7136 8.23825 75.3806 8.32413 75.1107 8.49589C74.8443 8.66765 74.7128 8.89024 74.7163 9.16365C74.7128 9.39851 74.7987 9.58955 74.974 9.73677C75.1527 9.88399 75.4472 10.0049 75.8573 10.0996L77.2349 10.394C77.999 10.5588 78.5669 10.8199 78.9385 11.1775C79.3135 11.535 79.5028 12.003 79.5063 12.5813C79.5028 13.0896 79.3538 13.5383 79.0594 13.9274C78.7685 14.313 78.3636 14.6144 77.8448 14.8317C77.326 15.0491 76.7301 15.1577 76.0571 15.1577C75.0686 15.1577 74.2729 14.9509 73.67 14.5373C73.0671 14.1202 72.7078 13.54 72.5921 12.7969L74.4482 12.6181C74.5323 12.9827 74.7111 13.2579 74.9845 13.4436C75.2579 13.6294 75.6137 13.7223 76.0518 13.7223C76.504 13.7223 76.8668 13.6294 77.1402 13.4436C77.4172 13.2579 77.5556 13.0283 77.5556 12.7548C77.5556 12.5235 77.4662 12.3325 77.2875 12.1817C77.1122 12.031 76.8388 11.9153 76.4672 11.8347L75.0896 11.5455C74.315 11.3843 73.7418 11.1126 73.3703 10.7305C72.9987 10.3449 72.8147 9.8577 72.8182 9.26881C72.8147 8.77105 72.9496 8.3399 73.223 7.97535C73.5 7.60729 73.8838 7.32336 74.3745 7.12356C74.8688 6.92025 75.4384 6.81859 76.0834 6.81859C77.0298 6.81859 77.7747 7.02015 78.318 7.42326C78.8649 7.82637 79.2031 8.37145 79.3328 9.05849ZM84.8327 15V4.23167H86.7834V13.3648H91.5261V15H84.8327ZM93.2191 4.23167H95.6062L98.8031 12.0345H98.9293L102.126 4.23167H104.513V15H102.641V7.60203H102.542L99.5655 14.9685H98.1669L95.1909 7.58626H95.091V15H93.2191V4.23167ZM108.588 4.23167V15H106.637V4.23167H108.588ZM112.083 15H110.001L113.792 4.23167H116.2L119.997 15H117.915L115.038 6.44002H114.954L112.083 15ZM112.152 10.7778H117.83V12.3447H112.152V10.7778ZM127.328 15.163C126.816 15.163 126.355 15.0719 125.945 14.8896C125.538 14.7038 125.216 14.4304 124.977 14.0693C124.742 13.7083 124.625 13.2631 124.625 12.7338C124.625 12.2781 124.709 11.9013 124.877 11.6033C125.046 11.3054 125.275 11.067 125.566 10.8883C125.857 10.7095 126.185 10.5745 126.549 10.4834C126.917 10.3888 127.298 10.3204 127.69 10.2783C128.164 10.2293 128.547 10.1854 128.842 10.1469C129.136 10.1048 129.35 10.0417 129.483 9.9576C129.62 9.86997 129.688 9.73502 129.688 9.55274V9.52119C129.688 9.12509 129.571 8.81838 129.336 8.60105C129.101 8.38372 128.763 8.27505 128.321 8.27505C127.855 8.27505 127.485 8.37671 127.212 8.58002C126.942 8.78332 126.76 9.02344 126.665 9.30036L124.888 9.04797C125.028 8.55723 125.259 8.14711 125.582 7.81761C125.904 7.4846 126.299 7.23573 126.765 7.07098C127.231 6.90272 127.746 6.81859 128.311 6.81859C128.7 6.81859 129.087 6.86416 129.473 6.9553C129.858 7.04644 130.211 7.19717 130.53 7.40749C130.849 7.6143 131.105 7.89648 131.297 8.25402C131.494 8.61156 131.592 9.05849 131.592 9.5948V15H129.762V13.8906H129.699C129.583 14.1149 129.42 14.3252 129.21 14.5215C129.003 14.7143 128.742 14.8703 128.427 14.9895C128.115 15.1052 127.748 15.163 127.328 15.163ZM127.822 13.7644C128.204 13.7644 128.535 13.689 128.816 13.5383C129.096 13.384 129.312 13.1807 129.462 12.9284C129.617 12.676 129.694 12.4008 129.694 12.1029V11.1512C129.634 11.2002 129.532 11.2458 129.389 11.2879C129.249 11.3299 129.091 11.3667 128.915 11.3983C128.74 11.4298 128.567 11.4579 128.395 11.4824C128.223 11.507 128.074 11.528 127.948 11.5455C127.664 11.5841 127.41 11.6472 127.186 11.7348C126.961 11.8224 126.784 11.9451 126.655 12.1029C126.525 12.2571 126.46 12.4569 126.46 12.7023C126.46 13.0528 126.588 13.3174 126.844 13.4962C127.1 13.675 127.426 13.7644 127.822 13.7644ZM135.409 10.2678V15H133.506V6.92375H135.325V8.29608H135.42C135.605 7.8439 135.902 7.4846 136.308 7.2182C136.718 6.9518 137.225 6.81859 137.828 6.81859C138.385 6.81859 138.871 6.93777 139.284 7.17614C139.701 7.4145 140.024 7.75977 140.252 8.21196C140.483 8.66414 140.597 9.21272 140.593 9.8577V15H138.69V10.1521C138.69 9.61233 138.55 9.18994 138.269 8.88498C137.993 8.58001 137.609 8.42753 137.118 8.42753C136.785 8.42753 136.489 8.50115 136.229 8.64837C135.973 8.79209 135.772 9.00065 135.625 9.27407C135.481 9.54748 135.409 9.87873 135.409 10.2678ZM145.525 15.142C144.891 15.142 144.323 14.979 143.822 14.653C143.321 14.327 142.924 13.8538 142.634 13.2333C142.343 12.6129 142.197 11.8592 142.197 10.9724C142.197 10.075 142.344 9.31788 142.639 8.70095C142.937 8.08051 143.338 7.61255 143.843 7.29707C144.348 6.97809 144.91 6.81859 145.531 6.81859C146.004 6.81859 146.393 6.89922 146.698 7.06046C147.003 7.2182 147.245 7.40924 147.424 7.63358C147.602 7.85441 147.741 8.06298 147.839 8.25928H147.918V4.23167H149.826V15H147.955V13.7276H147.839C147.741 13.9239 147.599 14.1324 147.413 14.3533C147.227 14.5706 146.982 14.7564 146.677 14.9106C146.372 15.0648 145.988 15.142 145.525 15.142ZM146.056 13.5803C146.46 13.5803 146.803 13.4717 147.087 13.2544C147.371 13.0335 147.587 12.7268 147.734 12.3342C147.881 11.9416 147.955 11.4842 147.955 10.9619C147.955 10.4396 147.881 9.98565 147.734 9.60006C147.59 9.21448 147.376 8.91477 147.092 8.70095C146.812 8.48712 146.467 8.38021 146.056 8.38021C145.632 8.38021 145.278 8.49063 144.994 8.71146C144.71 8.9323 144.497 9.23726 144.353 9.62635C144.209 10.0154 144.137 10.4606 144.137 10.9619C144.137 11.4666 144.209 11.9171 144.353 12.3132C144.5 12.7058 144.716 13.016 145 13.2438C145.287 13.4682 145.639 13.5803 146.056 13.5803ZM157.194 15L154.912 6.92375H156.852L158.272 12.6024H158.346L159.797 6.92375H161.716L163.167 12.5708H163.246L164.645 6.92375H166.59L164.303 15H162.321L160.806 9.54222H160.696L159.182 15H157.194ZM169.823 10.2678V15H167.919V4.23167H169.78V8.29608H169.875C170.064 7.84039 170.357 7.4811 170.753 7.2182C171.153 6.9518 171.661 6.81859 172.278 6.81859C172.839 6.81859 173.328 6.93602 173.745 7.17088C174.162 7.40573 174.485 7.74925 174.712 8.20144C174.944 8.65363 175.059 9.20571 175.059 9.8577V15H173.156V10.1521C173.156 9.60882 173.016 9.18643 172.735 8.88498C172.459 8.58001 172.069 8.42753 171.568 8.42753C171.232 8.42753 170.93 8.50115 170.664 8.64837C170.401 8.79209 170.194 9.00065 170.043 9.27407C169.896 9.54748 169.823 9.87873 169.823 10.2678ZM177.894 18.0286C177.634 18.0286 177.394 18.0076 177.173 17.9655C176.956 17.9269 176.782 17.8814 176.653 17.8288L177.094 16.346C177.371 16.4267 177.618 16.4652 177.836 16.4617C178.053 16.4582 178.244 16.3899 178.409 16.2567C178.577 16.127 178.719 15.9096 178.835 15.6047L178.998 15.1683L176.069 6.92375H178.088L179.949 13.023H180.034L181.9 6.92375H183.924L180.691 15.978C180.54 16.4056 180.34 16.7719 180.091 17.0769C179.842 17.3854 179.538 17.6202 179.176 17.7815C178.819 17.9462 178.391 18.0286 177.894 18.0286ZM191.911 15.142C191.277 15.142 190.709 14.979 190.208 14.653C189.706 14.327 189.31 13.8538 189.019 13.2333C188.728 12.6129 188.583 11.8592 188.583 10.9724C188.583 10.075 188.73 9.31788 189.025 8.70095C189.323 8.08051 189.724 7.61255 190.229 7.29707C190.733 6.97809 191.296 6.81859 191.917 6.81859C192.39 6.81859 192.779 6.89922 193.084 7.06046C193.389 7.2182 193.631 7.40924 193.809 7.63358C193.988 7.85441 194.127 8.06298 194.225 8.25928H194.304V4.23167H196.212V15H194.34V13.7276H194.225C194.127 13.9239 193.985 14.1324 193.799 14.3533C193.613 14.5706 193.368 14.7564 193.063 14.9106C192.758 15.0648 192.374 15.142 191.911 15.142ZM192.442 13.5803C192.845 13.5803 193.189 13.4717 193.473 13.2544C193.757 13.0335 193.972 12.7268 194.12 12.3342C194.267 11.9416 194.34 11.4842 194.34 10.9619C194.34 10.4396 194.267 9.98565 194.12 9.60006C193.976 9.21448 193.762 8.91477 193.478 8.70095C193.198 8.48712 192.852 8.38021 192.442 8.38021C192.018 8.38021 191.664 8.49063 191.38 8.71146C191.096 8.9323 190.882 9.23726 190.739 9.62635C190.595 10.0154 190.523 10.4606 190.523 10.9619C190.523 11.4666 190.595 11.9171 190.739 12.3132C190.886 12.7058 191.102 13.016 191.385 13.2438C191.673 13.4682 192.025 13.5803 192.442 13.5803ZM201.763 15.1577C200.975 15.1577 200.291 14.9842 199.713 14.6372C199.134 14.2902 198.686 13.8047 198.367 13.1807C198.051 12.5568 197.894 11.8277 197.894 10.9934C197.894 10.1592 198.051 9.4283 198.367 8.80085C198.686 8.1734 199.134 7.68616 199.713 7.33913C200.291 6.99211 200.975 6.81859 201.763 6.81859C202.552 6.81859 203.236 6.99211 203.814 7.33913C204.392 7.68616 204.839 8.1734 205.155 8.80085C205.474 9.4283 205.633 10.1592 205.633 10.9934C205.633 11.8277 205.474 12.5568 205.155 13.1807C204.839 13.8047 204.392 14.2902 203.814 14.6372C203.236 14.9842 202.552 15.1577 201.763 15.1577ZM201.774 13.6329C202.202 13.6329 202.559 13.5155 202.847 13.2806C203.134 13.0423 203.348 12.7233 203.488 12.3237C203.632 11.9241 203.704 11.4789 203.704 10.9882C203.704 10.4939 203.632 10.047 203.488 9.64738C203.348 9.24427 203.134 8.92354 202.847 8.68517C202.559 8.44681 202.202 8.32763 201.774 8.32763C201.336 8.32763 200.971 8.44681 200.68 8.68517C200.393 8.92354 200.177 9.24427 200.034 9.64738C199.893 10.047 199.823 10.4939 199.823 10.9882C199.823 11.4789 199.893 11.9241 200.034 12.3237C200.177 12.7233 200.393 13.0423 200.68 13.2806C200.971 13.5155 201.336 13.6329 201.774 13.6329ZM212.956 4.23167V15H211.006V4.23167H212.956ZM220.561 10.2678V15H218.657V6.92375H220.477V8.29608H220.571C220.757 7.8439 221.053 7.4846 221.46 7.2182C221.87 6.9518 222.376 6.81859 222.979 6.81859C223.537 6.81859 224.022 6.93777 224.436 7.17614C224.853 7.4145 225.175 7.75977 225.403 8.21196C225.635 8.66414 225.749 9.21272 225.745 9.8577V15H223.842V10.1521C223.842 9.61233 223.701 9.18994 223.421 8.88498C223.144 8.58001 222.76 8.42753 222.269 8.42753C221.936 8.42753 221.64 8.50115 221.381 8.64837C221.125 8.79209 220.923 9.00065 220.776 9.27407C220.633 9.54748 220.561 9.87873 220.561 10.2678ZM231.255 15.1577C230.446 15.1577 229.746 14.9895 229.157 14.653C228.572 14.313 228.122 13.8327 227.806 13.2123C227.491 12.5883 227.333 11.854 227.333 11.0092C227.333 10.1784 227.491 9.44933 227.806 8.82188C228.125 8.19092 228.57 7.70018 229.142 7.34965C229.713 6.99561 230.384 6.81859 231.155 6.81859C231.653 6.81859 232.123 6.89922 232.565 7.06046C233.01 7.2182 233.402 7.46357 233.742 7.79658C234.086 8.12958 234.356 8.55372 234.552 9.06901C234.748 9.58078 234.847 10.1907 234.847 10.8988V11.4824H228.227V10.1995H233.022C233.019 9.83492 232.94 9.51068 232.785 9.22675C232.631 8.93931 232.416 8.71322 232.139 8.54847C231.865 8.38372 231.546 8.30134 231.182 8.30134C230.793 8.30134 230.451 8.39599 230.156 8.58527C229.862 8.77105 229.632 9.01643 229.468 9.32139C229.306 9.62285 229.224 9.9541 229.221 10.3151V11.4351C229.221 11.9048 229.306 12.3079 229.478 12.6444C229.65 12.9774 229.89 13.2333 230.199 13.4121C230.507 13.5874 230.868 13.675 231.282 13.675C231.559 13.675 231.809 13.6364 232.034 13.5593C232.258 13.4787 232.452 13.3613 232.617 13.207C232.782 13.0528 232.906 12.8618 232.991 12.6339L234.768 12.8337C234.656 13.3034 234.442 13.7135 234.126 14.0641C233.814 14.4111 233.415 14.681 232.927 14.8738C232.44 15.0631 231.883 15.1577 231.255 15.1577ZM240.032 15.1577C239.223 15.1577 238.523 14.9895 237.934 14.653C237.349 14.313 236.898 13.8327 236.583 13.2123C236.268 12.5883 236.11 11.854 236.11 11.0092C236.11 10.1784 236.268 9.44933 236.583 8.82188C236.902 8.19092 237.347 7.70018 237.919 7.34965C238.49 6.99561 239.161 6.81859 239.932 6.81859C240.43 6.81859 240.9 6.89922 241.341 7.06046C241.787 7.2182 242.179 7.46357 242.519 7.79658C242.863 8.12958 243.133 8.55372 243.329 9.06901C243.525 9.58078 243.623 10.1907 243.623 10.8988V11.4824H237.004V10.1995H241.799C241.795 9.83492 241.717 9.51068 241.562 9.22675C241.408 8.93931 241.193 8.71322 240.916 8.54847C240.642 8.38372 240.323 8.30134 239.959 8.30134C239.57 8.30134 239.228 8.39599 238.933 8.58527C238.639 8.77105 238.409 9.01643 238.245 9.32139C238.083 9.62285 238.001 9.9541 237.997 10.3151V11.4351C237.997 11.9048 238.083 12.3079 238.255 12.6444C238.427 12.9774 238.667 13.2333 238.975 13.4121C239.284 13.5874 239.645 13.675 240.059 13.675C240.335 13.675 240.586 13.6364 240.81 13.5593C241.035 13.4787 241.229 13.3613 241.394 13.207C241.559 13.0528 241.683 12.8618 241.767 12.6339L243.545 12.8337C243.432 13.3034 243.219 13.7135 242.903 14.0641C242.591 14.4111 242.192 14.681 241.704 14.8738C241.217 15.0631 240.66 15.1577 240.032 15.1577ZM248.231 15.142C247.596 15.142 247.028 14.979 246.527 14.653C246.026 14.327 245.63 13.8538 245.339 13.2333C245.048 12.6129 244.902 11.8592 244.902 10.9724C244.902 10.075 245.05 9.31788 245.344 8.70095C245.642 8.08051 246.043 7.61255 246.548 7.29707C247.053 6.97809 247.616 6.81859 248.236 6.81859C248.709 6.81859 249.098 6.89922 249.403 7.06046C249.708 7.2182 249.95 7.40924 250.129 7.63358C250.308 7.85441 250.446 8.06298 250.544 8.25928H250.623V4.23167H252.532V15H250.66V13.7276H250.544C250.446 13.9239 250.304 14.1324 250.118 14.3533C249.933 14.5706 249.687 14.7564 249.382 14.9106C249.077 15.0648 248.693 15.142 248.231 15.142ZM248.762 13.5803C249.165 13.5803 249.508 13.4717 249.792 13.2544C250.076 13.0335 250.292 12.7268 250.439 12.3342C250.586 11.9416 250.66 11.4842 250.66 10.9619C250.66 10.4396 250.586 9.98565 250.439 9.60006C250.295 9.21448 250.082 8.91477 249.798 8.70095C249.517 8.48712 249.172 8.38021 248.762 8.38021C248.338 8.38021 247.984 8.49063 247.7 8.71146C247.416 8.9323 247.202 9.23726 247.058 9.62635C246.914 10.0154 246.843 10.4606 246.843 10.9619C246.843 11.4666 246.914 11.9171 247.058 12.3132C247.205 12.7058 247.421 13.016 247.705 13.2438C247.992 13.4682 248.345 13.5803 248.762 13.5803ZM258.233 15V6.92375H260.136V15H258.233ZM259.19 5.77752C258.888 5.77752 258.629 5.67761 258.411 5.47781C258.194 5.2745 258.085 5.03088 258.085 4.74695C258.085 4.45952 258.194 4.2159 258.411 4.01609C258.629 3.81279 258.888 3.71113 259.19 3.71113C259.495 3.71113 259.754 3.81279 259.968 4.01609C260.185 4.2159 260.294 4.45952 260.294 4.74695C260.294 5.03088 260.185 5.2745 259.968 5.47781C259.754 5.67761 259.495 5.77752 259.19 5.77752ZM266.126 6.92375V8.39599H261.483V6.92375H266.126ZM262.63 4.98882H264.533V12.5708C264.533 12.8267 264.572 13.023 264.649 13.1597C264.729 13.2929 264.835 13.384 264.964 13.4331C265.094 13.4822 265.238 13.5067 265.395 13.5067C265.515 13.5067 265.623 13.498 265.721 13.4804C265.823 13.4629 265.9 13.4471 265.953 13.4331L266.273 14.9211C266.172 14.9562 266.026 14.9947 265.837 15.0368C265.651 15.0789 265.423 15.1034 265.154 15.1104C264.677 15.1244 264.247 15.0526 263.865 14.8948C263.483 14.7336 263.18 14.4847 262.956 14.1482C262.735 13.8117 262.626 13.3911 262.63 12.8863V4.98882ZM269.537 11.8347V11.698C269.541 11.0635 269.6 10.5588 269.716 10.1837C269.835 9.80863 270.004 9.50717 270.221 9.27933C270.438 9.04797 270.703 8.8359 271.015 8.64311C271.229 8.50991 271.42 8.36444 271.588 8.2067C271.76 8.04545 271.895 7.86668 271.993 7.67039C272.091 7.47058 272.14 7.248 272.14 7.00262C272.14 6.7257 272.075 6.48559 271.946 6.28228C271.816 6.07897 271.641 5.92123 271.42 5.80906C271.202 5.69689 270.959 5.64081 270.689 5.64081C270.44 5.64081 270.203 5.69514 269.979 5.80381C269.758 5.90896 269.574 6.07021 269.427 6.28754C269.283 6.50136 269.203 6.77302 269.185 7.10252H267.313C267.331 6.43651 267.492 5.87917 267.797 5.43049C268.105 4.98181 268.512 4.6453 269.017 4.42096C269.525 4.19662 270.086 4.08445 270.699 4.08445C271.369 4.08445 271.958 4.20188 272.466 4.43673C272.978 4.67159 273.376 5.00635 273.66 5.441C273.947 5.87216 274.091 6.38393 274.091 6.97633C274.091 7.37594 274.026 7.73348 273.896 8.04896C273.77 8.36444 273.589 8.64486 273.355 8.89024C273.12 9.13561 272.841 9.35469 272.519 9.54748C272.235 9.72275 272.002 9.90502 271.819 10.0943C271.641 10.2836 271.507 10.5062 271.42 10.7621C271.336 11.0145 271.292 11.3264 271.288 11.698V11.8347H269.537ZM270.452 15.1157C270.137 15.1157 269.865 15.0035 269.637 14.7792C269.409 14.5548 269.295 14.2814 269.295 13.9589C269.295 13.6434 269.409 13.3735 269.637 13.1492C269.865 12.9249 270.137 12.8127 270.452 12.8127C270.764 12.8127 271.034 12.9249 271.262 13.1492C271.493 13.3735 271.609 13.6434 271.609 13.9589C271.609 14.1727 271.555 14.3673 271.446 14.5426C271.341 14.7178 271.201 14.858 271.025 14.9632C270.854 15.0648 270.663 15.1157 270.452 15.1157Z" fill="#1B1139"/>
<rect opacity="0.8" y="6.99219" width="14.8065" height="2.46774" rx="1.23387" fill="#1B1139"/>
<rect opacity="0.8" x="8.6377" y="0.822754" width="14.8065" height="2.46774" rx="1.23387" transform="rotate(90 8.6377 0.822754)" fill="#1B1139"/>
</svg>
