<svg width="190" height="43" viewBox="0 0 190 43" fill="none" xmlns="http://www.w3.org/2000/svg">
<rect width="190" height="43" rx="9.09998" fill="#C0181C"/>
<path d="M19.1246 27V15.5976H23.4896C24.3136 15.5976 24.9984 15.7275 25.544 15.9874C26.0934 16.2435 26.5035 16.5942 26.7745 17.0396C27.0491 17.485 27.1865 17.9898 27.1865 18.554C27.1865 19.018 27.0974 19.4151 26.9192 19.7455C26.7411 20.0721 26.5017 20.3375 26.201 20.5416C25.9004 20.7458 25.5645 20.8924 25.1933 20.9815V21.0928C25.5979 21.1151 25.9857 21.2394 26.3569 21.4658C26.7318 21.6885 27.038 22.004 27.2756 22.4123C27.5131 22.8206 27.6319 23.3143 27.6319 23.8933C27.6319 24.4835 27.489 25.0142 27.2032 25.4856C26.9174 25.9533 26.4868 26.3226 25.9115 26.5936C25.3362 26.8645 24.6124 27 23.7402 27H19.1246ZM21.1902 25.2741H23.4117C24.1614 25.2741 24.7015 25.1312 25.0318 24.8454C25.3659 24.5558 25.5329 24.1847 25.5329 23.7318C25.5329 23.3941 25.4494 23.0897 25.2824 22.8188C25.1153 22.5441 24.8778 22.3288 24.5697 22.1729C24.2616 22.0133 23.8942 21.9335 23.4673 21.9335H21.1902V25.2741ZM21.1902 20.447H23.2335C23.5898 20.447 23.9109 20.382 24.1967 20.2521C24.4825 20.1185 24.7071 19.9311 24.8704 19.6898C25.0374 19.4448 25.1209 19.1553 25.1209 18.8213C25.1209 18.3796 24.965 18.0158 24.6532 17.73C24.3452 17.4442 23.8868 17.3013 23.278 17.3013H21.1902V20.447ZM33.07 27.167C32.2349 27.167 31.5111 26.9833 30.8986 26.6158C30.2862 26.2484 29.8111 25.7343 29.4734 25.0736C29.1393 24.4129 28.9723 23.6409 28.9723 22.7575C28.9723 21.8741 29.1393 21.1002 29.4734 20.4358C29.8111 19.7715 30.2862 19.2555 30.8986 18.8881C31.5111 18.5206 32.2349 18.3369 33.07 18.3369C33.9051 18.3369 34.6289 18.5206 35.2413 18.8881C35.8538 19.2555 36.327 19.7715 36.6611 20.4358C36.9988 21.1002 37.1677 21.8741 37.1677 22.7575C37.1677 23.6409 36.9988 24.4129 36.6611 25.0736C36.327 25.7343 35.8538 26.2484 35.2413 26.6158C34.6289 26.9833 33.9051 27.167 33.07 27.167ZM33.0811 25.5524C33.534 25.5524 33.9126 25.4281 34.2169 25.1794C34.5213 24.927 34.7477 24.5892 34.8962 24.1661C35.0483 23.743 35.1244 23.2716 35.1244 22.752C35.1244 22.2286 35.0483 21.7554 34.8962 21.3322C34.7477 20.9054 34.5213 20.5658 34.2169 20.3134C33.9126 20.061 33.534 19.9348 33.0811 19.9348C32.6172 19.9348 32.2311 20.061 31.9231 20.3134C31.6187 20.5658 31.3904 20.9054 31.2383 21.3322C31.0898 21.7554 31.0156 22.2286 31.0156 22.752C31.0156 23.2716 31.0898 23.743 31.2383 24.1661C31.3904 24.5892 31.6187 24.927 31.9231 25.1794C32.2311 25.4281 32.6172 25.5524 33.0811 25.5524ZM42.6086 27.167C41.7735 27.167 41.0497 26.9833 40.4373 26.6158C39.8248 26.2484 39.3497 25.7343 39.012 25.0736C38.6779 24.4129 38.5109 23.6409 38.5109 22.7575C38.5109 21.8741 38.6779 21.1002 39.012 20.4358C39.3497 19.7715 39.8248 19.2555 40.4373 18.8881C41.0497 18.5206 41.7735 18.3369 42.6086 18.3369C43.4438 18.3369 44.1675 18.5206 44.78 18.8881C45.3924 19.2555 45.8656 19.7715 46.1997 20.4358C46.5375 21.1002 46.7063 21.8741 46.7063 22.7575C46.7063 23.6409 46.5375 24.4129 46.1997 25.0736C45.8656 25.7343 45.3924 26.2484 44.78 26.6158C44.1675 26.9833 43.4438 27.167 42.6086 27.167ZM42.6198 25.5524C43.0726 25.5524 43.4512 25.4281 43.7555 25.1794C44.0599 24.927 44.2863 24.5892 44.4348 24.1661C44.587 23.743 44.663 23.2716 44.663 22.752C44.663 22.2286 44.587 21.7554 44.4348 21.3322C44.2863 20.9054 44.0599 20.5658 43.7555 20.3134C43.4512 20.061 43.0726 19.9348 42.6198 19.9348C42.1558 19.9348 41.7698 20.061 41.4617 20.3134C41.1573 20.5658 40.9291 20.9054 40.7769 21.3322C40.6284 21.7554 40.5542 22.2286 40.5542 22.752C40.5542 23.2716 40.6284 23.743 40.7769 24.1661C40.9291 24.5892 41.1573 24.927 41.4617 25.1794C41.7698 25.4281 42.1558 25.5524 42.6198 25.5524ZM50.2543 24.3164L50.2487 21.8834H50.5716L53.6449 18.4482H56L52.2196 22.6573H51.8021L50.2543 24.3164ZM48.417 27V15.5976H50.4324V27H48.417ZM53.7841 27L51.0003 23.1083L52.3588 21.6885L56.1949 27H53.7841ZM71.0811 19.4448H68.9989C68.9395 19.1033 68.83 18.8008 68.6704 18.5373C68.5108 18.2701 68.3122 18.0437 68.0746 17.8581C67.8371 17.6725 67.5661 17.5333 67.2618 17.4405C66.9611 17.344 66.6364 17.2957 66.2875 17.2957C65.6676 17.2957 65.1183 17.4516 64.6395 17.7634C64.1606 18.0715 63.7858 18.5243 63.5148 19.1219C63.2439 19.7158 63.1084 20.4414 63.1084 21.2988C63.1084 22.1711 63.2439 22.906 63.5148 23.5036C63.7895 24.0974 64.1644 24.5466 64.6395 24.8509C65.1183 25.1516 65.6657 25.3019 66.2819 25.3019C66.6234 25.3019 66.9426 25.2574 67.2395 25.1683C67.5402 25.0755 67.8093 24.94 68.0468 24.7618C68.2881 24.5837 68.4904 24.3647 68.6537 24.1049C68.8207 23.845 68.9358 23.5481 68.9989 23.2141L71.0811 23.2252C71.0032 23.7671 70.8343 24.2756 70.5745 24.7507C70.3184 25.2258 69.9825 25.6452 69.5667 26.009C69.151 26.369 68.6648 26.6511 68.108 26.8552C67.5513 27.0557 66.9333 27.1559 66.254 27.1559C65.2519 27.1559 64.3574 26.9239 63.5705 26.4599C62.7836 25.996 62.1637 25.326 61.7109 24.4501C61.2581 23.5741 61.0317 22.5237 61.0317 21.2988C61.0317 20.0702 61.2599 19.0198 61.7165 18.1476C62.173 17.2716 62.7947 16.6017 63.5816 16.1377C64.3685 15.6737 65.2593 15.4417 66.254 15.4417C66.8887 15.4417 67.4789 15.5308 68.0245 15.709C68.5702 15.8871 69.0564 16.1488 69.4832 16.494C69.9101 16.8355 70.2608 17.2549 70.5355 17.7523C70.8139 18.2459 70.9958 18.8101 71.0811 19.4448ZM76.6139 27.167C75.7788 27.167 75.055 26.9833 74.4425 26.6158C73.8301 26.2484 73.355 25.7343 73.0172 25.0736C72.6832 24.4129 72.5162 23.6409 72.5162 22.7575C72.5162 21.8741 72.6832 21.1002 73.0172 20.4358C73.355 19.7715 73.8301 19.2555 74.4425 18.8881C75.055 18.5206 75.7788 18.3369 76.6139 18.3369C77.449 18.3369 78.1728 18.5206 78.7852 18.8881C79.3977 19.2555 79.8709 19.7715 80.205 20.4358C80.5427 21.1002 80.7116 21.8741 80.7116 22.7575C80.7116 23.6409 80.5427 24.4129 80.205 25.0736C79.8709 25.7343 79.3977 26.2484 78.7852 26.6158C78.1728 26.9833 77.449 27.167 76.6139 27.167ZM76.625 25.5524C77.0778 25.5524 77.4564 25.4281 77.7608 25.1794C78.0652 24.927 78.2916 24.5892 78.44 24.1661C78.5922 23.743 78.6683 23.2716 78.6683 22.752C78.6683 22.2286 78.5922 21.7554 78.44 21.3322C78.2916 20.9054 78.0652 20.5658 77.7608 20.3134C77.4564 20.061 77.0778 19.9348 76.625 19.9348C76.1611 19.9348 75.775 20.061 75.467 20.3134C75.1626 20.5658 74.9343 20.9054 74.7822 21.3322C74.6337 21.7554 74.5595 22.2286 74.5595 22.752C74.5595 23.2716 74.6337 23.743 74.7822 24.1661C74.9343 24.5892 75.1626 24.927 75.467 25.1794C75.775 25.4281 76.1611 25.5524 76.625 25.5524ZM84.4377 21.9892V27H82.4222V18.4482H84.3486V19.9014H84.4488C84.6456 19.4225 84.9592 19.0421 85.3898 18.76C85.824 18.4779 86.3604 18.3369 86.9988 18.3369C87.5889 18.3369 88.103 18.4631 88.541 18.7155C88.9827 18.9679 89.3242 19.3335 89.5654 19.8123C89.8104 20.2911 89.931 20.872 89.9273 21.5549V27H87.9119V21.8667C87.9119 21.2951 87.7634 20.8478 87.4665 20.5249C87.1732 20.202 86.7668 20.0405 86.2472 20.0405C85.8945 20.0405 85.5809 20.1185 85.3062 20.2744C85.0353 20.4266 84.8219 20.6474 84.666 20.9369C84.5138 21.2264 84.4377 21.5772 84.4377 21.9892ZM98.7352 20.7087L96.8979 20.9091C96.8459 20.7235 96.755 20.5491 96.6251 20.3857C96.4989 20.2224 96.3282 20.0907 96.1129 19.9904C95.8976 19.8902 95.6341 19.8401 95.3223 19.8401C94.9029 19.8401 94.5502 19.9311 94.2644 20.1129C93.9824 20.2948 93.8432 20.5305 93.8469 20.82C93.8432 21.0687 93.9341 21.271 94.1197 21.4269C94.309 21.5828 94.6208 21.7108 95.055 21.811L96.5137 22.1228C97.3229 22.2973 97.9242 22.5738 98.3176 22.9524C98.7148 23.331 98.9152 23.8265 98.9189 24.4389C98.9152 24.9771 98.7575 25.4522 98.4457 25.8642C98.1376 26.2725 97.7089 26.5917 97.1596 26.8218C96.6102 27.052 95.9793 27.167 95.2666 27.167C94.2199 27.167 93.3773 26.948 92.7389 26.5101C92.1005 26.0684 91.7201 25.4541 91.5976 24.6672L93.5629 24.4779C93.652 24.8639 93.8413 25.1553 94.1308 25.352C94.4203 25.5487 94.7971 25.6471 95.261 25.6471C95.7398 25.6471 96.124 25.5487 96.4135 25.352C96.7067 25.1553 96.8534 24.9122 96.8534 24.6227C96.8534 24.3777 96.7587 24.1754 96.5694 24.0158C96.3838 23.8562 96.0943 23.7337 95.7009 23.6483L94.2422 23.3421C93.4219 23.1714 92.815 22.8837 92.4216 22.4791C92.0281 22.0709 91.8333 21.5549 91.837 20.9314C91.8333 20.4043 91.9762 19.9478 92.2657 19.5617C92.5589 19.172 92.9653 18.8714 93.485 18.6598C94.0083 18.4445 94.6115 18.3369 95.2944 18.3369C96.2966 18.3369 97.0853 18.5503 97.6607 18.9771C98.2397 19.404 98.5979 19.9812 98.7352 20.7087ZM106.031 23.4034V18.4482H108.047V27H106.093V25.4801H106.004C105.811 25.9589 105.493 26.3505 105.052 26.6548C104.614 26.9592 104.074 27.1114 103.431 27.1114C102.871 27.1114 102.375 26.987 101.945 26.7383C101.518 26.4859 101.184 26.1203 100.943 25.6415C100.701 25.159 100.581 24.5763 100.581 23.8933V18.4482H102.596V23.5815C102.596 24.1234 102.745 24.554 103.042 24.8732C103.339 25.1924 103.728 25.352 104.211 25.352C104.508 25.352 104.795 25.2796 105.074 25.1349C105.352 24.9901 105.581 24.7748 105.759 24.489C105.941 24.1995 106.031 23.8376 106.031 23.4034ZM112.135 15.5976V27H110.119V15.5976H112.135ZM118.478 18.4482V20.0071H113.562V18.4482H118.478ZM114.775 16.3994H116.791V24.4278C116.791 24.6987 116.832 24.9066 116.913 25.0514C116.999 25.1924 117.11 25.2889 117.247 25.3409C117.385 25.3928 117.537 25.4188 117.704 25.4188C117.83 25.4188 117.945 25.4095 118.049 25.391C118.157 25.3724 118.238 25.3557 118.294 25.3409L118.634 26.9165C118.526 26.9536 118.372 26.9944 118.172 27.039C117.975 27.0835 117.734 27.1095 117.448 27.1169C116.943 27.1318 116.488 27.0557 116.084 26.8886C115.679 26.7179 115.358 26.4544 115.121 26.0981C114.887 25.7417 114.772 25.2963 114.775 24.7618V16.3994ZM122.624 27.1726C122.082 27.1726 121.594 27.0761 121.16 26.8831C120.729 26.6864 120.388 26.3968 120.136 26.0145C119.887 25.6322 119.762 25.1608 119.762 24.6004C119.762 24.1179 119.852 23.7189 120.03 23.4034C120.208 23.0879 120.451 22.8355 120.759 22.6462C121.067 22.4569 121.414 22.314 121.8 22.2175C122.19 22.1172 122.593 22.0449 123.008 22.0003C123.509 21.9484 123.916 21.902 124.228 21.8611C124.539 21.8166 124.766 21.7498 124.907 21.6607C125.052 21.5679 125.124 21.425 125.124 21.232V21.1986C125.124 20.7792 125 20.4544 124.751 20.2243C124.502 19.9942 124.144 19.8791 123.676 19.8791C123.183 19.8791 122.791 19.9867 122.502 20.202C122.216 20.4173 122.023 20.6715 121.923 20.9648L120.041 20.6975C120.189 20.1779 120.434 19.7436 120.776 19.3947C121.117 19.0421 121.535 18.7786 122.028 18.6041C122.522 18.426 123.068 18.3369 123.665 18.3369C124.077 18.3369 124.487 18.3851 124.896 18.4816C125.304 18.5781 125.677 18.7377 126.015 18.9604C126.353 19.1794 126.624 19.4782 126.828 19.8568C127.036 20.2354 127.139 20.7087 127.139 21.2765V27H125.202V25.8252H125.135C125.013 26.0628 124.84 26.2855 124.617 26.4934C124.398 26.6975 124.122 26.8627 123.788 26.9889C123.457 27.1114 123.07 27.1726 122.624 27.1726ZM123.148 25.6916C123.552 25.6916 123.903 25.6118 124.2 25.4522C124.497 25.2889 124.725 25.0736 124.885 24.8064C125.048 24.5391 125.13 24.2478 125.13 23.9323V22.9245C125.067 22.9765 124.959 23.0248 124.807 23.0693C124.658 23.1138 124.491 23.1528 124.306 23.1862C124.12 23.2196 123.936 23.2493 123.754 23.2753C123.573 23.3013 123.415 23.3236 123.281 23.3421C122.981 23.3829 122.711 23.4498 122.474 23.5425C122.236 23.6353 122.049 23.7652 121.912 23.9323C121.774 24.0956 121.706 24.3072 121.706 24.567C121.706 24.9381 121.841 25.2184 122.112 25.4077C122.383 25.597 122.728 25.6916 123.148 25.6916ZM133.436 18.4482V20.0071H128.52V18.4482H133.436ZM129.734 16.3994H131.749V24.4278C131.749 24.6987 131.79 24.9066 131.872 25.0514C131.957 25.1924 132.069 25.2889 132.206 25.3409C132.343 25.3928 132.495 25.4188 132.663 25.4188C132.789 25.4188 132.904 25.4095 133.008 25.391C133.115 25.3724 133.197 25.3557 133.253 25.3409L133.592 26.9165C133.485 26.9536 133.331 26.9944 133.13 27.039C132.933 27.0835 132.692 27.1095 132.406 27.1169C131.902 27.1318 131.447 27.0557 131.042 26.8886C130.638 26.7179 130.317 26.4544 130.079 26.0981C129.845 25.7417 129.73 25.2963 129.734 24.7618V16.3994ZM135.122 27V18.4482H137.137V27H135.122ZM136.135 17.2345C135.816 17.2345 135.541 17.1287 135.311 16.9171C135.081 16.7019 134.966 16.4439 134.966 16.1433C134.966 15.8389 135.081 15.5809 135.311 15.3694C135.541 15.1541 135.816 15.0464 136.135 15.0464C136.458 15.0464 136.733 15.1541 136.959 15.3694C137.189 15.5809 137.304 15.8389 137.304 16.1433C137.304 16.4439 137.189 16.7019 136.959 16.9171C136.733 17.1287 136.458 17.2345 136.135 17.2345ZM142.94 27.167C142.105 27.167 141.381 26.9833 140.769 26.6158C140.156 26.2484 139.681 25.7343 139.344 25.0736C139.01 24.4129 138.843 23.6409 138.843 22.7575C138.843 21.8741 139.01 21.1002 139.344 20.4358C139.681 19.7715 140.156 19.2555 140.769 18.8881C141.381 18.5206 142.105 18.3369 142.94 18.3369C143.775 18.3369 144.499 18.5206 145.112 18.8881C145.724 19.2555 146.197 19.7715 146.531 20.4358C146.869 21.1002 147.038 21.8741 147.038 22.7575C147.038 23.6409 146.869 24.4129 146.531 25.0736C146.197 25.7343 145.724 26.2484 145.112 26.6158C144.499 26.9833 143.775 27.167 142.94 27.167ZM142.951 25.5524C143.404 25.5524 143.783 25.4281 144.087 25.1794C144.392 24.927 144.618 24.5892 144.766 24.1661C144.919 23.743 144.995 23.2716 144.995 22.752C144.995 22.2286 144.919 21.7554 144.766 21.3322C144.618 20.9054 144.392 20.5658 144.087 20.3134C143.783 20.061 143.404 19.9348 142.951 19.9348C142.487 19.9348 142.101 20.061 141.793 20.3134C141.489 20.5658 141.261 20.9054 141.109 21.3322C140.96 21.7554 140.886 22.2286 140.886 22.752C140.886 23.2716 140.96 23.743 141.109 24.1661C141.261 24.5892 141.489 24.927 141.793 25.1794C142.101 25.4281 142.487 25.5524 142.951 25.5524ZM150.764 21.9892V27H148.749V18.4482H150.675V19.9014H150.775C150.972 19.4225 151.286 19.0421 151.716 18.76C152.15 18.4779 152.687 18.3369 153.325 18.3369C153.915 18.3369 154.429 18.4631 154.867 18.7155C155.309 18.9679 155.651 19.3335 155.892 19.8123C156.137 20.2911 156.257 20.872 156.254 21.5549V27H154.238V21.8667C154.238 21.2951 154.09 20.8478 153.793 20.5249C153.5 20.202 153.093 20.0405 152.574 20.0405C152.221 20.0405 151.907 20.1185 151.633 20.2744C151.362 20.4266 151.148 20.6474 150.992 20.9369C150.84 21.2264 150.764 21.5772 150.764 21.9892Z" fill="white"/>
<path d="M171.953 20.0866C172.002 19.7524 171.779 19.4426 171.454 19.3948L166.164 18.6156C165.84 18.5678 165.536 18.8 165.487 19.1343C165.438 19.4685 165.661 19.7783 165.986 19.8261L170.688 20.5187L169.975 25.3606C169.926 25.6949 170.149 26.0046 170.474 26.0524C170.798 26.1002 171.101 25.868 171.15 25.5338L171.953 20.0866ZM164 25.6431L164.353 26.1323L171.718 20.4892L171.365 20.0001L171.012 19.5109L163.647 25.1539L164 25.6431Z" fill="white"/>
</svg>
