<svg width="134" height="132" viewBox="0 0 134 132" fill="none" xmlns="http://www.w3.org/2000/svg">
<path d="M7.024 19.192C6.14933 19.192 5.33333 19.0373 4.576 18.728C3.81867 18.4187 3.15733 17.9867 2.592 17.432C2.02667 16.8773 1.584 16.2267 1.264 15.48C0.954667 14.7227 0.8 13.9067 0.8 13.032C0.8 12.1467 0.954667 11.3307 1.264 10.584C1.57333 9.83733 2.01067 9.18667 2.576 8.632C3.14133 8.07733 3.80267 7.65067 4.56 7.352C5.31733 7.04267 6.13867 6.888 7.024 6.888C7.90933 6.888 8.73067 7.04267 9.488 7.352C10.2453 7.66133 10.9067 8.09333 11.472 8.648C12.0373 9.192 12.4747 9.83733 12.784 10.584C13.104 11.3307 13.264 12.1467 13.264 13.032C13.264 13.9067 13.104 14.7227 12.784 15.48C12.464 16.2267 12.0213 16.8773 11.456 17.432C10.8907 17.9867 10.2293 18.4187 9.472 18.728C8.72533 19.0373 7.90933 19.192 7.024 19.192ZM7.024 17.208C7.61067 17.208 8.14933 17.1067 8.64 16.904C9.13067 16.6907 9.55733 16.3973 9.92 16.024C10.2933 15.6507 10.576 15.208 10.768 14.696C10.9707 14.184 11.072 13.6293 11.072 13.032C11.072 12.4347 10.9707 11.8853 10.768 11.384C10.576 10.872 10.2933 10.4293 9.92 10.056C9.55733 9.672 9.13067 9.37867 8.64 9.176C8.14933 8.97333 7.61067 8.872 7.024 8.872C6.448 8.872 5.91467 8.97333 5.424 9.176C4.93333 9.37867 4.50133 9.672 4.128 10.056C3.76533 10.4293 3.48267 10.872 3.28 11.384C3.07733 11.8853 2.976 12.4347 2.976 13.032C2.976 13.6293 3.07733 14.184 3.28 14.696C3.48267 15.208 3.76533 15.6507 4.128 16.024C4.50133 16.3973 4.93333 16.6907 5.424 16.904C5.91467 17.1067 6.448 17.208 7.024 17.208ZM18.1269 19.192C17.4549 19.192 16.8682 19.0427 16.3669 18.744C15.8762 18.4453 15.4975 18.0293 15.2309 17.496C14.9749 16.9627 14.8469 16.3387 14.8469 15.624V10.296H16.9429V15.448C16.9429 15.8107 17.0122 16.1307 17.1509 16.408C17.3002 16.6747 17.5082 16.888 17.7749 17.048C18.0522 17.1973 18.3615 17.272 18.7029 17.272C19.0442 17.272 19.3482 17.1973 19.6149 17.048C19.8815 16.888 20.0895 16.6693 20.2389 16.392C20.3882 16.1147 20.4629 15.784 20.4629 15.4V10.296H22.5589V19H20.5749V17.288L20.7509 17.592C20.5482 18.1253 20.2122 18.5253 19.7429 18.792C19.2842 19.0587 18.7455 19.192 18.1269 19.192ZM24.5073 19V10.296H26.4753V12.232L26.3153 11.944C26.5179 11.2933 26.8326 10.84 27.2593 10.584C27.6966 10.328 28.2193 10.2 28.8273 10.2H29.3393V12.056H28.5873C27.9899 12.056 27.5099 12.2427 27.1473 12.616C26.7846 12.9787 26.6033 13.4907 26.6033 14.152V19H24.5073ZM37.5274 19.192C36.6634 19.192 35.8847 18.9947 35.1914 18.6C34.5087 18.1947 33.97 17.6507 33.5754 16.968C33.1807 16.2747 32.9834 15.496 32.9834 14.632C32.9834 13.768 33.1807 12.9947 33.5754 12.312C33.97 11.6293 34.5087 11.0907 35.1914 10.696C35.8847 10.3013 36.6634 10.104 37.5274 10.104C38.146 10.104 38.722 10.216 39.2554 10.44C39.7887 10.6533 40.2474 10.952 40.6314 11.336C41.026 11.7093 41.3087 12.1573 41.4794 12.68L39.6394 13.48C39.4794 13.0427 39.2074 12.6907 38.8234 12.424C38.45 12.1573 38.018 12.024 37.5274 12.024C37.0687 12.024 36.658 12.136 36.2954 12.36C35.9434 12.584 35.666 12.8933 35.4634 13.288C35.2607 13.6827 35.1594 14.136 35.1594 14.648C35.1594 15.16 35.2607 15.6133 35.4634 16.008C35.666 16.4027 35.9434 16.712 36.2954 16.936C36.658 17.16 37.0687 17.272 37.5274 17.272C38.0287 17.272 38.466 17.1387 38.8394 16.872C39.2127 16.6053 39.4794 16.248 39.6394 15.8L41.4794 16.632C41.3087 17.1227 41.0314 17.5653 40.6474 17.96C40.2634 18.344 39.8047 18.648 39.2714 18.872C38.738 19.0853 38.1567 19.192 37.5274 19.192ZM47.3258 19.192C46.4724 19.192 45.6938 18.9947 44.9898 18.6C44.2964 18.2053 43.7418 17.6667 43.3258 16.984C42.9204 16.3013 42.7178 15.5227 42.7178 14.648C42.7178 13.7733 42.9204 12.9947 43.3258 12.312C43.7418 11.6293 44.2964 11.0907 44.9898 10.696C45.6831 10.3013 46.4618 10.104 47.3258 10.104C48.1791 10.104 48.9524 10.3013 49.6458 10.696C50.3391 11.0907 50.8884 11.6293 51.2938 12.312C51.7098 12.984 51.9178 13.7627 51.9178 14.648C51.9178 15.5227 51.7098 16.3013 51.2938 16.984C50.8778 17.6667 50.3231 18.2053 49.6298 18.6C48.9364 18.9947 48.1684 19.192 47.3258 19.192ZM47.3258 17.272C47.7951 17.272 48.2058 17.16 48.5578 16.936C48.9204 16.712 49.2031 16.4027 49.4058 16.008C49.6191 15.6027 49.7258 15.1493 49.7258 14.648C49.7258 14.136 49.6191 13.688 49.4058 13.304C49.2031 12.9093 48.9204 12.6 48.5578 12.376C48.2058 12.1413 47.7951 12.024 47.3258 12.024C46.8458 12.024 46.4244 12.1413 46.0618 12.376C45.6991 12.6 45.4111 12.9093 45.1978 13.304C44.9951 13.688 44.8938 14.136 44.8938 14.648C44.8938 15.1493 44.9951 15.6027 45.1978 16.008C45.4111 16.4027 45.6991 16.712 46.0618 16.936C46.4244 17.16 46.8458 17.272 47.3258 17.272ZM53.5073 19V10.296H55.4753V12.312L55.2513 11.976C55.4113 11.3467 55.7313 10.8773 56.2113 10.568C56.6913 10.2587 57.2566 10.104 57.9073 10.104C58.6219 10.104 59.2513 10.2907 59.7953 10.664C60.3393 11.0373 60.6913 11.528 60.8513 12.136L60.2593 12.184C60.5259 11.4907 60.9259 10.9733 61.4593 10.632C61.9926 10.28 62.6059 10.104 63.2993 10.104C63.9179 10.104 64.4673 10.2427 64.9473 10.52C65.4379 10.7973 65.8219 11.1867 66.0993 11.688C66.3766 12.1787 66.5153 12.7493 66.5153 13.4V19H64.4193V13.896C64.4193 13.512 64.3499 13.1813 64.2113 12.904C64.0726 12.6267 63.8806 12.4133 63.6353 12.264C63.3899 12.104 63.0913 12.024 62.7393 12.024C62.4086 12.024 62.1153 12.104 61.8593 12.264C61.6033 12.4133 61.4059 12.6267 61.2673 12.904C61.1286 13.1813 61.0593 13.512 61.0593 13.896V19H58.9633V13.896C58.9633 13.512 58.8939 13.1813 58.7553 12.904C58.6166 12.6267 58.4193 12.4133 58.1633 12.264C57.9179 12.104 57.6246 12.024 57.2833 12.024C56.9526 12.024 56.6593 12.104 56.4033 12.264C56.1473 12.4133 55.9499 12.6267 55.8113 12.904C55.6726 13.1813 55.6033 13.512 55.6033 13.896V19H53.5073ZM68.2885 19V10.296H70.2565V12.312L70.0325 11.976C70.1925 11.3467 70.5125 10.8773 70.9925 10.568C71.4725 10.2587 72.0378 10.104 72.6885 10.104C73.4032 10.104 74.0325 10.2907 74.5765 10.664C75.1205 11.0373 75.4725 11.528 75.6325 12.136L75.0405 12.184C75.3072 11.4907 75.7072 10.9733 76.2405 10.632C76.7738 10.28 77.3872 10.104 78.0805 10.104C78.6992 10.104 79.2485 10.2427 79.7285 10.52C80.2192 10.7973 80.6032 11.1867 80.8805 11.688C81.1578 12.1787 81.2965 12.7493 81.2965 13.4V19H79.2005V13.896C79.2005 13.512 79.1312 13.1813 78.9925 12.904C78.8538 12.6267 78.6618 12.4133 78.4165 12.264C78.1712 12.104 77.8725 12.024 77.5205 12.024C77.1898 12.024 76.8965 12.104 76.6405 12.264C76.3845 12.4133 76.1872 12.6267 76.0485 12.904C75.9098 13.1813 75.8405 13.512 75.8405 13.896V19H73.7445V13.896C73.7445 13.512 73.6752 13.1813 73.5365 12.904C73.3978 12.6267 73.2005 12.4133 72.9445 12.264C72.6992 12.104 72.4058 12.024 72.0645 12.024C71.7338 12.024 71.4405 12.104 71.1845 12.264C70.9285 12.4133 70.7312 12.6267 70.5925 12.904C70.4538 13.1813 70.3845 13.512 70.3845 13.896V19H68.2885ZM86.1738 19.192C85.5018 19.192 84.9151 19.0427 84.4138 18.744C83.9231 18.4453 83.5444 18.0293 83.2778 17.496C83.0218 16.9627 82.8938 16.3387 82.8938 15.624V10.296H84.9898V15.448C84.9898 15.8107 85.0591 16.1307 85.1978 16.408C85.3471 16.6747 85.5551 16.888 85.8218 17.048C86.0991 17.1973 86.4084 17.272 86.7498 17.272C87.0911 17.272 87.3951 17.1973 87.6618 17.048C87.9284 16.888 88.1364 16.6693 88.2858 16.392C88.4351 16.1147 88.5098 15.784 88.5098 15.4V10.296H90.6058V19H88.6218V17.288L88.7978 17.592C88.5951 18.1253 88.2591 18.5253 87.7898 18.792C87.3311 19.0587 86.7924 19.192 86.1738 19.192ZM92.5541 19V10.296H94.5221V12.008L94.3621 11.704C94.5648 11.1813 94.8955 10.7867 95.3541 10.52C95.8235 10.2427 96.3675 10.104 96.9861 10.104C97.6261 10.104 98.1915 10.2427 98.6821 10.52C99.1835 10.7973 99.5728 11.1867 99.8501 11.688C100.127 12.1787 100.266 12.7493 100.266 13.4V19H98.1701V13.896C98.1701 13.512 98.0955 13.1813 97.9461 12.904C97.7968 12.6267 97.5888 12.4133 97.3221 12.264C97.0661 12.104 96.7621 12.024 96.4101 12.024C96.0688 12.024 95.7648 12.104 95.4981 12.264C95.2315 12.4133 95.0235 12.6267 94.8741 12.904C94.7248 13.1813 94.6501 13.512 94.6501 13.896V19H92.5541ZM102.039 19V10.296H104.135V19H102.039ZM102.039 9.32V7.08H104.135V9.32H102.039ZM110.038 19.096C109.056 19.096 108.294 18.8293 107.75 18.296C107.216 17.752 106.95 16.9893 106.95 16.008V12.168H105.446V10.296H105.606C106.032 10.296 106.363 10.184 106.598 9.96C106.832 9.736 106.95 9.41067 106.95 8.984V8.312H109.046V10.296H111.046V12.168H109.046V15.896C109.046 16.184 109.094 16.4293 109.19 16.632C109.296 16.8347 109.456 16.9893 109.67 17.096C109.894 17.2027 110.176 17.256 110.518 17.256C110.592 17.256 110.678 17.2507 110.774 17.24C110.88 17.2293 110.982 17.2187 111.078 17.208V19C110.928 19.0213 110.758 19.0427 110.566 19.064C110.374 19.0853 110.198 19.096 110.038 19.096ZM112.679 19V10.296H114.775V19H112.679ZM112.679 9.32V7.08H114.775V9.32H112.679ZM120.838 19.192C119.942 19.192 119.158 18.9893 118.486 18.584C117.814 18.1787 117.292 17.6293 116.918 16.936C116.545 16.2427 116.358 15.4747 116.358 14.632C116.358 13.7573 116.545 12.984 116.918 12.312C117.302 11.6293 117.82 11.0907 118.47 10.696C119.132 10.3013 119.868 10.104 120.678 10.104C121.361 10.104 121.958 10.216 122.47 10.44C122.993 10.664 123.436 10.9733 123.798 11.368C124.161 11.7627 124.438 12.216 124.63 12.728C124.822 13.2293 124.918 13.7733 124.918 14.36C124.918 14.5093 124.908 14.664 124.886 14.824C124.876 14.984 124.849 15.1227 124.806 15.24H118.086V13.64H123.622L122.63 14.392C122.726 13.9013 122.7 13.464 122.55 13.08C122.412 12.696 122.177 12.392 121.846 12.168C121.526 11.944 121.137 11.832 120.678 11.832C120.241 11.832 119.852 11.944 119.51 12.168C119.169 12.3813 118.908 12.7013 118.726 13.128C118.556 13.544 118.492 14.0507 118.534 14.648C118.492 15.1813 118.561 15.656 118.742 16.072C118.934 16.4773 119.212 16.792 119.574 17.016C119.948 17.24 120.374 17.352 120.854 17.352C121.334 17.352 121.74 17.2507 122.07 17.048C122.412 16.8453 122.678 16.5733 122.87 16.232L124.566 17.064C124.396 17.48 124.129 17.848 123.766 18.168C123.404 18.488 122.972 18.7387 122.47 18.92C121.98 19.1013 121.436 19.192 120.838 19.192ZM129.819 19.192C128.891 19.192 128.081 18.9733 127.387 18.536C126.705 18.088 126.235 17.4853 125.979 16.728L127.547 15.976C127.771 16.4667 128.081 16.8507 128.475 17.128C128.881 17.4053 129.329 17.544 129.819 17.544C130.203 17.544 130.507 17.4587 130.731 17.288C130.955 17.1173 131.067 16.8933 131.067 16.616C131.067 16.4453 131.019 16.3067 130.923 16.2C130.838 16.0827 130.715 15.9867 130.555 15.912C130.406 15.8267 130.241 15.7573 130.059 15.704L128.635 15.304C127.899 15.0907 127.339 14.7653 126.955 14.328C126.582 13.8907 126.395 13.3733 126.395 12.776C126.395 12.2427 126.529 11.7787 126.795 11.384C127.073 10.9787 127.451 10.664 127.931 10.44C128.422 10.216 128.982 10.104 129.611 10.104C130.433 10.104 131.158 10.3013 131.787 10.696C132.417 11.0907 132.865 11.6453 133.131 12.36L131.531 13.112C131.382 12.7173 131.131 12.4027 130.779 12.168C130.427 11.9333 130.033 11.816 129.595 11.816C129.243 11.816 128.966 11.896 128.763 12.056C128.561 12.216 128.459 12.424 128.459 12.68C128.459 12.84 128.502 12.9787 128.587 13.096C128.673 13.2133 128.79 13.3093 128.939 13.384C129.099 13.4587 129.281 13.528 129.483 13.592L130.875 14.008C131.59 14.2213 132.139 14.5413 132.523 14.968C132.918 15.3947 133.115 15.9173 133.115 16.536C133.115 17.0587 132.977 17.5227 132.699 17.928C132.422 18.3227 132.038 18.632 131.547 18.856C131.057 19.08 130.481 19.192 129.819 19.192Z" fill="white"/>
<path d="M0.352 59V58.136L7.168 48.28H0.752V47.08H8.848V47.944L2.048 57.8H8.992V59H0.352ZM10.7518 59V47.08H18.1118V48.28H12.0318V52.424H17.6318V53.624H12.0318V59H10.7518ZM28.2074 59.192C27.3647 59.192 26.5914 59.0427 25.8874 58.744C25.1834 58.4347 24.57 58.008 24.0474 57.464C23.5354 56.9093 23.1354 56.2587 22.8474 55.512C22.5594 54.7653 22.4154 53.944 22.4154 53.048C22.4154 52.152 22.5594 51.3307 22.8474 50.584C23.1354 49.8373 23.5354 49.1867 24.0474 48.632C24.57 48.0773 25.1834 47.6507 25.8874 47.352C26.5914 47.0427 27.3647 46.888 28.2074 46.888C29.018 46.888 29.7434 47.032 30.3834 47.32C31.034 47.608 31.578 47.9813 32.0154 48.44C32.4634 48.888 32.7834 49.3627 32.9754 49.864L31.7754 50.392C31.4767 49.6987 31.018 49.144 30.3994 48.728C29.7914 48.3013 29.0607 48.088 28.2074 48.088C27.3327 48.088 26.554 48.296 25.8714 48.712C25.1887 49.128 24.6554 49.7093 24.2714 50.456C23.8874 51.192 23.6954 52.056 23.6954 53.048C23.6954 54.0293 23.8874 54.8933 24.2714 55.64C24.6554 56.3867 25.1887 56.968 25.8714 57.384C26.554 57.7893 27.3327 57.992 28.2074 57.992C29.0607 57.992 29.7914 57.784 30.3994 57.368C31.018 56.952 31.4767 56.3973 31.7754 55.704L32.9754 56.232C32.7834 56.7227 32.4634 57.1973 32.0154 57.656C31.578 58.104 31.034 58.472 30.3834 58.76C29.7434 59.048 29.018 59.192 28.2074 59.192ZM38.9511 59.192C38.1405 59.192 37.4045 59 36.7431 58.616C36.0818 58.2213 35.5538 57.688 35.1591 57.016C34.7751 56.3333 34.5831 55.56 34.5831 54.696C34.5831 53.8427 34.7751 53.08 35.1591 52.408C35.5431 51.736 36.0605 51.208 36.7111 50.824C37.3725 50.4293 38.1191 50.232 38.9511 50.232C39.7831 50.232 40.5245 50.424 41.1751 50.808C41.8365 51.192 42.3538 51.72 42.7271 52.392C43.1111 53.064 43.3031 53.832 43.3031 54.696C43.3031 55.5707 43.1058 56.3493 42.7111 57.032C42.3165 57.704 41.7885 58.232 41.1271 58.616C40.4765 59 39.7511 59.192 38.9511 59.192ZM38.9511 57.992C39.5271 57.992 40.0445 57.848 40.5031 57.56C40.9725 57.272 41.3405 56.8773 41.6071 56.376C41.8845 55.8747 42.0231 55.3147 42.0231 54.696C42.0231 54.0773 41.8845 53.5227 41.6071 53.032C41.3405 52.5413 40.9725 52.152 40.5031 51.864C40.0445 51.576 39.5271 51.432 38.9511 51.432C38.3751 51.432 37.8525 51.576 37.3831 51.864C36.9245 52.152 36.5565 52.5413 36.2791 53.032C36.0018 53.5227 35.8631 54.0773 35.8631 54.696C35.8631 55.3147 36.0018 55.8747 36.2791 56.376C36.5565 56.8773 36.9245 57.272 37.3831 57.56C37.8525 57.848 38.3751 57.992 38.9511 57.992ZM45.4195 59V50.424H46.6195V52.056L46.4275 51.816C46.6622 51.3147 47.0088 50.9253 47.4675 50.648C47.9368 50.3707 48.4488 50.232 49.0035 50.232C49.6648 50.232 50.2622 50.4187 50.7955 50.792C51.3288 51.1653 51.7075 51.6507 51.9315 52.248L51.5955 52.264C51.8088 51.6027 52.1768 51.1013 52.6995 50.76C53.2328 50.408 53.8195 50.232 54.4595 50.232C55.0355 50.232 55.5635 50.3707 56.0435 50.648C56.5342 50.9253 56.9235 51.3093 57.2115 51.8C57.5102 52.28 57.6595 52.824 57.6595 53.432V59H56.4595V53.896C56.4595 53.3733 56.3635 52.9307 56.1715 52.568C55.9902 52.2053 55.7395 51.928 55.4195 51.736C55.0995 51.5333 54.7315 51.432 54.3155 51.432C53.9102 51.432 53.5422 51.5333 53.2115 51.736C52.8808 51.928 52.6195 52.2107 52.4275 52.584C52.2355 52.9467 52.1395 53.384 52.1395 53.896V59H50.9395V53.896C50.9395 53.3733 50.8435 52.9307 50.6515 52.568C50.4702 52.2053 50.2195 51.928 49.8995 51.736C49.5795 51.5333 49.2115 51.432 48.7955 51.432C48.3795 51.432 48.0062 51.5333 47.6755 51.736C47.3555 51.928 47.0995 52.2107 46.9075 52.584C46.7155 52.9467 46.6195 53.384 46.6195 53.896V59H45.4195ZM59.9508 59V50.424H61.1508V52.056L60.9588 51.816C61.1934 51.3147 61.5401 50.9253 61.9988 50.648C62.4681 50.3707 62.9801 50.232 63.5348 50.232C64.1961 50.232 64.7934 50.4187 65.3268 50.792C65.8601 51.1653 66.2388 51.6507 66.4628 52.248L66.1268 52.264C66.3401 51.6027 66.7081 51.1013 67.2308 50.76C67.7641 50.408 68.3508 50.232 68.9908 50.232C69.5668 50.232 70.0948 50.3707 70.5748 50.648C71.0654 50.9253 71.4548 51.3093 71.7428 51.8C72.0414 52.28 72.1908 52.824 72.1908 53.432V59H70.9908V53.896C70.9908 53.3733 70.8948 52.9307 70.7028 52.568C70.5214 52.2053 70.2708 51.928 69.9508 51.736C69.6308 51.5333 69.2628 51.432 68.8468 51.432C68.4414 51.432 68.0734 51.5333 67.7428 51.736C67.4121 51.928 67.1508 52.2107 66.9588 52.584C66.7668 52.9467 66.6708 53.384 66.6708 53.896V59H65.4708V53.896C65.4708 53.3733 65.3748 52.9307 65.1828 52.568C65.0014 52.2053 64.7508 51.928 64.4308 51.736C64.1108 51.5333 63.7428 51.432 63.3268 51.432C62.9108 51.432 62.5374 51.5333 62.2068 51.736C61.8868 51.928 61.6308 52.2107 61.4388 52.584C61.2468 52.9467 61.1508 53.384 61.1508 53.896V59H59.9508ZM77.522 59.192C76.9247 59.192 76.3807 59.0533 75.89 58.776C75.3993 58.488 75.01 58.0933 74.722 57.592C74.4447 57.08 74.306 56.4933 74.306 55.832V50.424H75.506V55.688C75.506 56.1467 75.5967 56.552 75.778 56.904C75.97 57.2453 76.2313 57.512 76.562 57.704C76.9033 57.896 77.2927 57.992 77.73 57.992C78.1673 57.992 78.5567 57.896 78.898 57.704C79.2393 57.5013 79.506 57.2187 79.698 56.856C79.89 56.4827 79.986 56.04 79.986 55.528V50.424H81.186V59H79.986V57.336L80.258 57.4C80.0553 57.9547 79.7087 58.392 79.218 58.712C78.7273 59.032 78.162 59.192 77.522 59.192ZM83.6539 59V50.424H84.8539V52.088L84.5819 52.024C84.7952 51.4693 85.1419 51.032 85.6219 50.712C86.1125 50.392 86.6779 50.232 87.3179 50.232C87.9259 50.232 88.4699 50.3707 88.9499 50.648C89.4405 50.9253 89.8245 51.3093 90.1019 51.8C90.3899 52.28 90.5339 52.824 90.5339 53.432V59H89.3339V53.896C89.3339 53.3733 89.2379 52.9307 89.0459 52.568C88.8645 52.2053 88.6032 51.928 88.2619 51.736C87.9312 51.5333 87.5472 51.432 87.1099 51.432C86.6725 51.432 86.2832 51.5333 85.9419 51.736C85.6005 51.928 85.3339 52.2107 85.1419 52.584C84.9499 52.9467 84.8539 53.384 84.8539 53.896V59H83.6539ZM92.8258 59V50.424H94.0258V59H92.8258ZM92.8258 48.84V47.08H94.0258V48.84H92.8258ZM99.762 59.096C98.994 59.096 98.402 58.872 97.986 58.424C97.57 57.976 97.362 57.336 97.362 56.504V51.624H95.778V50.424H96.178C96.5407 50.424 96.8287 50.3067 97.042 50.072C97.2553 49.8267 97.362 49.5227 97.362 49.16V48.44H98.562V50.424H100.45V51.624H98.562V56.504C98.562 56.792 98.6047 57.048 98.69 57.272C98.7753 57.4853 98.9193 57.656 99.122 57.784C99.3353 57.912 99.618 57.976 99.97 57.976C100.055 57.976 100.157 57.9707 100.274 57.96C100.391 57.9493 100.493 57.9387 100.578 57.928V59C100.45 59.032 100.306 59.0533 100.146 59.064C99.986 59.0853 99.858 59.096 99.762 59.096ZM102.685 59V50.424H103.885V59H102.685ZM102.685 48.84V47.08H103.885V48.84H102.685ZM110.245 59.192C109.445 59.192 108.72 59 108.069 58.616C107.429 58.2213 106.923 57.6827 106.549 57C106.176 56.3173 105.989 55.544 105.989 54.68C105.989 53.816 106.171 53.0533 106.533 52.392C106.896 51.72 107.387 51.192 108.005 50.808C108.635 50.424 109.339 50.232 110.117 50.232C110.736 50.232 111.285 50.3493 111.765 50.584C112.256 50.808 112.672 51.1173 113.013 51.512C113.355 51.896 113.616 52.3333 113.797 52.824C113.979 53.304 114.069 53.8 114.069 54.312C114.069 54.4187 114.064 54.5413 114.053 54.68C114.043 54.808 114.027 54.9413 114.005 55.08H106.757V53.96H113.317L112.741 54.44C112.837 53.8533 112.768 53.3307 112.533 52.872C112.309 52.4027 111.984 52.0347 111.557 51.768C111.131 51.4907 110.651 51.352 110.117 51.352C109.584 51.352 109.088 51.4907 108.629 51.768C108.181 52.0453 107.829 52.4347 107.573 52.936C107.317 53.4267 107.216 54.0133 107.269 54.696C107.216 55.3787 107.323 55.976 107.589 56.488C107.867 56.9893 108.24 57.3787 108.709 57.656C109.189 57.9333 109.701 58.072 110.245 58.072C110.875 58.072 111.403 57.9227 111.829 57.624C112.256 57.3253 112.603 56.952 112.869 56.504L113.893 57.048C113.723 57.432 113.461 57.7893 113.109 58.12C112.757 58.44 112.336 58.7013 111.845 58.904C111.365 59.096 110.832 59.192 110.245 59.192ZM119.161 59.192C118.34 59.192 117.62 58.984 117.001 58.568C116.382 58.152 115.934 57.5867 115.657 56.872L116.665 56.392C116.91 56.9147 117.252 57.3307 117.689 57.64C118.137 57.9493 118.628 58.104 119.161 58.104C119.673 58.104 120.105 57.9813 120.457 57.736C120.809 57.48 120.985 57.1493 120.985 56.744C120.985 56.4453 120.9 56.2107 120.729 56.04C120.558 55.8587 120.361 55.72 120.137 55.624C119.913 55.528 119.716 55.4587 119.545 55.416L118.313 55.064C117.524 54.84 116.953 54.5253 116.601 54.12C116.249 53.7147 116.073 53.2453 116.073 52.712C116.073 52.2107 116.201 51.7733 116.457 51.4C116.713 51.0267 117.06 50.7387 117.497 50.536C117.934 50.3333 118.42 50.232 118.953 50.232C119.678 50.232 120.334 50.424 120.921 50.808C121.518 51.1813 121.94 51.704 122.185 52.376L121.161 52.856C120.948 52.376 120.638 52.0027 120.233 51.736C119.838 51.4587 119.396 51.32 118.905 51.32C118.425 51.32 118.041 51.4427 117.753 51.688C117.465 51.9333 117.321 52.2427 117.321 52.616C117.321 52.904 117.396 53.1333 117.545 53.304C117.694 53.4747 117.865 53.6027 118.057 53.688C118.26 53.7733 118.436 53.8373 118.585 53.88L120.009 54.296C120.702 54.4987 121.241 54.8133 121.625 55.24C122.02 55.6667 122.217 56.168 122.217 56.744C122.217 57.2133 122.084 57.6347 121.817 58.008C121.561 58.3813 121.204 58.6747 120.745 58.888C120.286 59.0907 119.758 59.192 119.161 59.192ZM0.352 91V90.136L7.168 80.28H0.752V79.08H8.848V79.944L2.048 89.8H8.992V91H0.352ZM10.7518 91V79.08H18.1118V80.28H12.0318V84.424H17.6318V85.624H12.0318V91H10.7518ZM22.7674 91V79.08H30.1274V80.28H24.0474V84.424H29.6474V85.624H24.0474V91H22.7674ZM35.5918 91.192C34.7811 91.192 34.0451 91 33.3838 90.616C32.7224 90.2213 32.1944 89.688 31.7998 89.016C31.4158 88.3333 31.2238 87.56 31.2238 86.696C31.2238 85.8427 31.4158 85.08 31.7998 84.408C32.1838 83.736 32.7011 83.208 33.3518 82.824C34.0131 82.4293 34.7598 82.232 35.5918 82.232C36.4238 82.232 37.1651 82.424 37.8158 82.808C38.4771 83.192 38.9944 83.72 39.3678 84.392C39.7518 85.064 39.9438 85.832 39.9438 86.696C39.9438 87.5707 39.7464 88.3493 39.3518 89.032C38.9571 89.704 38.4291 90.232 37.7678 90.616C37.1171 91 36.3918 91.192 35.5918 91.192ZM35.5918 89.992C36.1678 89.992 36.6851 89.848 37.1438 89.56C37.6131 89.272 37.9811 88.8773 38.2478 88.376C38.5251 87.8747 38.6638 87.3147 38.6638 86.696C38.6638 86.0773 38.5251 85.5227 38.2478 85.032C37.9811 84.5413 37.6131 84.152 37.1438 83.864C36.6851 83.576 36.1678 83.432 35.5918 83.432C35.0158 83.432 34.4931 83.576 34.0238 83.864C33.5651 84.152 33.1971 84.5413 32.9198 85.032C32.6424 85.5227 32.5038 86.0773 32.5038 86.696C32.5038 87.3147 32.6424 87.8747 32.9198 88.376C33.1971 88.8773 33.5651 89.272 34.0238 89.56C34.4931 89.848 35.0158 89.992 35.5918 89.992ZM42.0601 91V82.424H43.2601V83.832L43.1001 83.624C43.3028 83.2187 43.6068 82.8987 44.0121 82.664C44.4281 82.4293 44.9295 82.312 45.5161 82.312H46.0601V83.512H45.3081C44.6895 83.512 44.1935 83.704 43.8201 84.088C43.4468 84.472 43.2601 85.016 43.2601 85.72V91H42.0601ZM50.5064 91.192C49.909 91.192 49.365 91.0533 48.8744 90.776C48.3837 90.488 47.9944 90.0933 47.7064 89.592C47.429 89.08 47.2904 88.4933 47.2904 87.832V82.424H48.4904V87.688C48.4904 88.1467 48.581 88.552 48.7624 88.904C48.9544 89.2453 49.2157 89.512 49.5464 89.704C49.8877 89.896 50.277 89.992 50.7144 89.992C51.1517 89.992 51.541 89.896 51.8824 89.704C52.2237 89.5013 52.4904 89.2187 52.6824 88.856C52.8744 88.4827 52.9704 88.04 52.9704 87.528V82.424H54.1704V91H52.9704V89.336L53.2424 89.4C53.0397 89.9547 52.693 90.392 52.2024 90.712C51.7117 91.032 51.1464 91.192 50.5064 91.192ZM56.6383 91V82.424H57.8383V84.056L57.6463 83.816C57.8809 83.3147 58.2276 82.9253 58.6863 82.648C59.1556 82.3707 59.6676 82.232 60.2223 82.232C60.8836 82.232 61.4809 82.4187 62.0143 82.792C62.5476 83.1653 62.9263 83.6507 63.1503 84.248L62.8143 84.264C63.0276 83.6027 63.3956 83.1013 63.9183 82.76C64.4516 82.408 65.0383 82.232 65.6783 82.232C66.2543 82.232 66.7823 82.3707 67.2623 82.648C67.7529 82.9253 68.1423 83.3093 68.4303 83.8C68.7289 84.28 68.8783 84.824 68.8783 85.432V91H67.6783V85.896C67.6783 85.3733 67.5823 84.9307 67.3903 84.568C67.2089 84.2053 66.9583 83.928 66.6383 83.736C66.3183 83.5333 65.9503 83.432 65.5343 83.432C65.1289 83.432 64.7609 83.5333 64.4303 83.736C64.0996 83.928 63.8383 84.2107 63.6463 84.584C63.4543 84.9467 63.3583 85.384 63.3583 85.896V91H62.1583V85.896C62.1583 85.3733 62.0623 84.9307 61.8703 84.568C61.6889 84.2053 61.4383 83.928 61.1183 83.736C60.7983 83.5333 60.4303 83.432 60.0143 83.432C59.5983 83.432 59.2249 83.5333 58.8943 83.736C58.5743 83.928 58.3183 84.2107 58.1263 84.584C57.9343 84.9467 57.8383 85.384 57.8383 85.896V91H56.6383ZM0.352 123V122.136L7.168 112.28H0.752V111.08H8.848V111.944L2.048 121.8H8.992V123H0.352ZM10.7518 123V111.08H18.1118V112.28H12.0318V116.424H17.6318V117.624H12.0318V123H10.7518ZM28.2074 123.192C27.3647 123.192 26.5914 123.043 25.8874 122.744C25.1834 122.435 24.57 122.008 24.0474 121.464C23.5354 120.909 23.1354 120.259 22.8474 119.512C22.5594 118.765 22.4154 117.944 22.4154 117.048C22.4154 116.152 22.5594 115.331 22.8474 114.584C23.1354 113.837 23.5354 113.187 24.0474 112.632C24.57 112.077 25.1834 111.651 25.8874 111.352C26.5914 111.043 27.3647 110.888 28.2074 110.888C29.018 110.888 29.7434 111.032 30.3834 111.32C31.034 111.608 31.578 111.981 32.0154 112.44C32.4634 112.888 32.7834 113.363 32.9754 113.864L31.7754 114.392C31.4767 113.699 31.018 113.144 30.3994 112.728C29.7914 112.301 29.0607 112.088 28.2074 112.088C27.3327 112.088 26.554 112.296 25.8714 112.712C25.1887 113.128 24.6554 113.709 24.2714 114.456C23.8874 115.192 23.6954 116.056 23.6954 117.048C23.6954 118.029 23.8874 118.893 24.2714 119.64C24.6554 120.387 25.1887 120.968 25.8714 121.384C26.554 121.789 27.3327 121.992 28.2074 121.992C29.0607 121.992 29.7914 121.784 30.3994 121.368C31.018 120.952 31.4767 120.397 31.7754 119.704L32.9754 120.232C32.7834 120.723 32.4634 121.197 32.0154 121.656C31.578 122.104 31.034 122.472 30.3834 122.76C29.7434 123.048 29.018 123.192 28.2074 123.192ZM35.0914 123V110.888H36.2914V116.088L36.0194 116.024C36.2327 115.469 36.5794 115.032 37.0594 114.712C37.55 114.392 38.1154 114.232 38.7554 114.232C39.3634 114.232 39.9074 114.371 40.3874 114.648C40.878 114.925 41.262 115.309 41.5394 115.8C41.8274 116.28 41.9714 116.824 41.9714 117.432V123H40.7714V117.896C40.7714 117.373 40.6754 116.931 40.4834 116.568C40.2914 116.205 40.0247 115.928 39.6834 115.736C39.3527 115.533 38.974 115.432 38.5474 115.432C38.1207 115.432 37.7367 115.533 37.3954 115.736C37.054 115.928 36.782 116.211 36.5794 116.584C36.3874 116.947 36.2914 117.384 36.2914 117.896V123H35.0914ZM46.7433 123.192C46.1993 123.192 45.7139 123.091 45.2873 122.888C44.8606 122.675 44.5246 122.387 44.2793 122.024C44.0339 121.661 43.9113 121.245 43.9113 120.776C43.9113 120.328 44.0073 119.923 44.1993 119.56C44.3913 119.187 44.6899 118.872 45.0953 118.616C45.5006 118.36 46.0179 118.179 46.6473 118.072L50.0073 117.512V118.6L46.9353 119.112C46.3166 119.219 45.8686 119.416 45.5913 119.704C45.3246 119.992 45.1913 120.333 45.1913 120.728C45.1913 121.112 45.3406 121.437 45.6393 121.704C45.9486 121.971 46.3433 122.104 46.8233 122.104C47.4099 122.104 47.9219 121.981 48.3593 121.736C48.7966 121.48 49.1379 121.139 49.3833 120.712C49.6286 120.285 49.7513 119.811 49.7513 119.288V117.112C49.7513 116.6 49.5646 116.184 49.1913 115.864C48.8179 115.544 48.3326 115.384 47.7352 115.384C47.2126 115.384 46.7539 115.517 46.3593 115.784C45.9646 116.04 45.6713 116.376 45.4793 116.792L44.3913 116.2C44.5513 115.837 44.8019 115.507 45.1432 115.208C45.4953 114.909 45.8953 114.675 46.3433 114.504C46.7913 114.323 47.2553 114.232 47.7352 114.232C48.3646 114.232 48.9193 114.355 49.3993 114.6C49.8899 114.845 50.2686 115.187 50.5353 115.624C50.8126 116.051 50.9513 116.547 50.9513 117.112V123H49.7513V121.288L49.9273 121.464C49.7779 121.784 49.5433 122.077 49.2233 122.344C48.9139 122.6 48.5459 122.808 48.1193 122.968C47.7033 123.117 47.2446 123.192 46.7433 123.192ZM56.5433 123.096C55.7753 123.096 55.1833 122.872 54.7673 122.424C54.3513 121.976 54.1432 121.336 54.1432 120.504V115.624H52.5592V114.424H52.9593C53.3219 114.424 53.6099 114.307 53.8233 114.072C54.0366 113.827 54.1432 113.523 54.1432 113.16V112.44H55.3433V114.424H57.2313V115.624H55.3433V120.504C55.3433 120.792 55.3859 121.048 55.4713 121.272C55.5566 121.485 55.7006 121.656 55.9033 121.784C56.1166 121.912 56.3993 121.976 56.7513 121.976C56.8366 121.976 56.9379 121.971 57.0553 121.96C57.1726 121.949 57.2739 121.939 57.3593 121.928V123C57.2313 123.032 57.0873 123.053 56.9273 123.064C56.7673 123.085 56.6393 123.096 56.5433 123.096Z" fill="white"/>
</svg>
