<svg width="27" height="31" viewBox="0 0 27 31" fill="none" xmlns="http://www.w3.org/2000/svg">
<path d="M20.5 10C17.3 10 14.6 12.35 14.1 15.4L13.85 15.15C13.65 14.95 13.35 14.95 13.15 15.15C12.95 15.35 12.95 15.65 13.15 15.85L14.15 16.85C14.25 16.95 14.45 17.05 14.7 16.95C14.9 16.9 15 16.7 15 16.5C15 13.45 17.45 11 20.5 11C23.55 11 26 13.45 26 16.5C26 16.8 26.2 17 26.5 17C26.8 17 27 16.8 27 16.5C27 12.9 24.1 10 20.5 10ZM26.3 18.2C26.05 18.1 25.75 18.25 25.65 18.5C24.85 20.6 22.75 22 20.5 22C19.15 22 17.85 21.5 16.85 20.6C16.65 20.4 16.35 20.45 16.15 20.65C15.95 20.85 16 21.15 16.2 21.35C17.4 22.45 18.95 23.05 20.55 23.05C23.2 23.05 25.65 21.4 26.6 18.9C26.65 18.6 26.55 18.3 26.3 18.2Z" fill="#FF0000"/>
<path d="M20.5 17C20.8 17 21 16.8 21 16.5V12.5C21 12.2 20.8 12 20.5 12C20.2 12 20 12.2 20 12.5V16H18.5C18.2 16 18 16.2 18 16.5C18 16.8 18.2 17 18.5 17H20.5ZM0.5 23.75C0.8 23.75 1 23.55 1 23.25V1.5C1 1.2 1.2 1 1.5 1H10.3L13.65 4.35C13.85 4.55 14.15 4.55 14.35 4.35C14.55 4.15 14.55 3.85 14.35 3.65L12.55 1.85L18.85 4.35C18.05 4.8 17.4 5.5 17.1 6.4L15.8 5.1C15.6 4.9 15.3 4.9 15.1 5.1C14.9 5.3 14.9 5.6 15.1 5.8L17.1 7.8C17.2 7.9 17.4 8 17.65 7.9C17.85 7.85 17.95 7.65 17.95 7.45C17.95 6.25 18.8 5.25 19.95 5V8.4C19.95 8.7 20.15 8.9 20.45 8.9C20.75 8.9 20.95 8.7 20.95 8.4V4.5C20.95 4.15 20.65 4.05 20.65 4.05L10.65 0H1.5C0.65 0 0 0.65 0 1.5V23.25C0 23.55 0.2 23.75 0.5 23.75ZM0.5 27.1C0.8 27.1 1 26.9 1 26.6V25.5C1 25.2 0.8 25 0.5 25C0.2 25 0 25.2 0 25.5V26.6C0 26.9 0.2 27.1 0.5 27.1ZM20.5 24.1C20.2 24.1 20 24.3 20 24.6V29.5C20 29.8 19.8 30 19.5 30H1.5C1.2 30 1 29.8 1 29.5V28.5C1 28.2 0.8 28 0.5 28C0.2 28 0 28.2 0 28.5V29.5C0 30.35 0.65 31 1.5 31H19.5C20.35 31 21 30.35 21 29.5V24.6C21 24.35 20.8 24.1 20.5 24.1Z" fill="#FF0000"/>
<path d="M2.5 4C2.8 4 3 3.8 3 3.5V3H3.5C3.8 3 4 2.8 4 2.5C4 2.2 3.8 2 3.5 2H2.5C2.2 2 2 2.2 2 2.5V3.5C2 3.8 2.2 4 2.5 4ZM18.5 27C18.2 27 18 27.2 18 27.5V28H17.5C17.2 28 17 28.2 17 28.5C17 28.8 17.2 29 17.5 29H18.5C18.8 29 19 28.8 19 28.5V27.5C19 27.2 18.8 27 18.5 27ZM6.5 3C6.8 3 7 2.8 7 2.5C7 2.2 6.8 2 6.5 2H5.5C5.2 2 5 2.2 5 2.5C5 2.8 5.2 3 5.5 3H6.5ZM2.5 6H12.5C12.8 6 13 5.8 13 5.5C13 5.2 12.8 5 12.5 5H2.5C2.2 5 2 5.2 2 5.5C2 5.8 2.2 6 2.5 6ZM18.5 25H2.5C2.2 25 2 25.2 2 25.5C2 25.8 2.2 26 2.5 26H18.5C18.8 26 19 25.8 19 25.5C19 25.2 18.8 25 18.5 25ZM17 9.5C17 9.2 16.8 9 16.5 9H2.5C2.2 9 2 9.2 2 9.5C2 9.8 2.2 10 2.5 10H16.5C16.8 10 17 9.8 17 9.5ZM14 13.5C14 13.2 13.8 13 13.5 13H2.5C2.2 13 2 13.2 2 13.5C2 13.8 2.2 14 2.5 14H13.5C13.8 14 14 13.8 14 13.5ZM12.5 17H2.5C2.2 17 2 17.2 2 17.5C2 17.8 2.2 18 2.5 18H12.5C12.8 18 13 17.8 13 17.5C13 17.2 12.8 17 12.5 17ZM14.5 21H2.5C2.2 21 2 21.2 2 21.5C2 21.8 2.2 22 2.5 22H14.5C14.8 22 15 21.8 15 21.5C15 21.2 14.8 21 14.5 21Z" fill="#FF0000"/>
</svg>
