<svg width="27" height="43" viewBox="0 0 27 43" fill="none" xmlns="http://www.w3.org/2000/svg">
<path d="M26.5857 3.342H25.1886V1.87991C25.1886 1.75807 25.1399 1.64435 25.0505 1.56312C24.9693 1.48189 24.8475 1.44128 24.7256 1.4494L24.1164 1.49814V0.425938C24.1083 0.295974 24.0596 0.190379 23.9621 0.101029C23.8646 0.0279239 23.7509 -0.0126898 23.6209 0.0035557L0.422383 3.342H0.389892L0.365523 3.35013C0.316787 3.35013 0.268051 3.36637 0.227437 3.39074C0.129964 3.43135 0.0649819 3.5207 0.0243682 3.61005C0.0243682 3.61818 0.0162455 3.63442 0.0162455 3.64254C0.0162455 3.65067 0.00812274 3.65879 0.00812274 3.67504C0.00812274 3.6994 0 3.72377 0 3.75626V42.4693C0 42.7048 0.186823 42.8916 0.422383 42.8916H26.5776C26.8132 42.8916 27 42.7048 27 42.4693V3.76439C27 3.53695 26.8132 3.342 26.5776 3.342H26.5857ZM24.3357 3.342H11.4125L24.3357 2.34291V3.342ZM15.4982 37.3113V38.8628C15.4982 39.0252 15.3601 39.1633 15.1977 39.1633H12.0217C11.8511 39.1633 11.7211 39.0252 11.7211 38.8628V37.3113C11.7211 37.1489 11.8511 37.0108 12.0217 37.0108H15.1977C15.3601 37.0108 15.4982 37.1489 15.4982 37.3113ZM13.102 10.4332C13.1507 10.425 13.2076 10.4169 13.2563 10.4169H13.4188C13.4188 10.4169 13.4431 10.4169 13.4513 10.4169C17.8213 10.4332 21.3628 13.9828 21.3628 18.361C21.3628 22.7391 17.8051 26.305 13.4188 26.305C13.3457 26.305 13.2563 26.305 13.1832 26.2969C8.97563 26.175 5.5722 22.7554 5.47473 18.5397V18.5153C5.46661 18.4503 5.46661 18.3691 5.46661 18.296C5.46661 18.1985 5.47473 18.1173 5.48285 18.036C5.65343 13.9178 8.98375 10.5956 13.102 10.4413V10.4332ZM8.65072 7.4115C8.65072 7.18406 8.84567 6.98911 9.0731 6.98911H17.9269C18.1543 6.98911 18.3493 7.18406 18.3493 7.4115C18.3493 7.63893 18.1543 7.83388 17.9269 7.83388H9.0731C8.84567 7.83388 8.65072 7.64706 8.65072 7.4115ZM22.2482 31.8691V33.6642H4.8574V31.8691H22.2482ZM23.2717 1.56312L13.3944 2.33478L23.2717 0.913303V1.56312Z" fill="#FF0000"/>
</svg>
