<svg width="15" height="14" viewBox="0 0 15 14" fill="none" xmlns="http://www.w3.org/2000/svg">
<path d="M2.98105 4.06949C1.37274 4.63809 0.243682 5.52347 0 6.51444H2.6074C2.63989 5.66155 2.76986 4.83303 2.98105 4.06949ZM3.29783 3.09476C3.76895 1.8926 4.43502 0.869134 5.27978 0.121842C3.02166 0.706679 1.19404 2.38809 0.389891 4.55686C1.11282 3.94765 2.11191 3.43592 3.29783 3.09476ZM7.0343 2.57491C7.91155 2.57491 8.74819 2.64801 9.54422 2.79422C8.94314 1.51895 8.04964 0.527978 6.96931 0C5.8565 0.519856 4.93863 1.52708 4.32942 2.83484C5.18231 2.66426 6.09206 2.57491 7.04242 2.57491H7.0343ZM13.7193 4.57311C12.8989 2.30686 10.9495 0.576715 8.55325 0.0568597C9.40614 0.796029 10.0884 1.82762 10.5596 3.02978C11.8511 3.37906 12.9477 3.91516 13.7193 4.56498V4.57311ZM9.91787 3.74459C9.03249 3.54152 8.05776 3.4278 7.0343 3.4278C5.93773 3.4278 4.88177 3.55776 3.94765 3.79332C3.66336 4.63809 3.5009 5.56408 3.45217 6.53881L10.4215 6.55505C10.389 5.55596 10.2103 4.59747 9.91787 3.74459ZM10.8845 4.00451C11.1119 4.80054 11.2419 5.66155 11.2744 6.56318H14.1011C13.8736 5.50722 12.6309 4.5731 10.8764 4.00451H10.8845ZM0.324909 9.25993C1.08032 11.5099 2.94043 13.2644 5.26354 13.8736C4.3944 13.0857 3.71209 12.0135 3.2491 10.7626C2.06318 10.4052 1.04783 9.88538 0.324909 9.25993ZM7.0343 11.2906C6.07581 11.2906 5.14982 11.1931 4.28881 11.0226C4.89801 12.3872 5.82401 13.4513 6.93682 13.9955C8.05776 13.4594 8.98375 12.4116 9.58484 11.0551C8.78881 11.2094 7.91967 11.2906 7.02617 11.2906H7.0343ZM2.94856 9.74729C2.75361 9 2.63177 8.20397 2.6074 7.37545H0.00812254C0.276173 8.32581 1.39711 9.18682 2.94856 9.74729ZM3.91516 10.0478C4.86552 10.2996 5.9296 10.4377 7.0343 10.4377C8.06588 10.4377 9.05686 10.3159 9.95848 10.0966C10.2265 9.27617 10.389 8.36643 10.4296 7.39982L3.46029 7.38357C3.49278 8.31769 3.65523 9.21931 3.92329 10.0397L3.91516 10.0478ZM10.917 9.82852C12.5496 9.27617 13.7437 8.40704 14.0605 7.42419H11.2744C11.2419 8.26083 11.12 9.0731 10.917 9.82852ZM8.52888 13.9386C10.9982 13.4106 12.9964 11.5912 13.7843 9.22744C13.0208 9.90975 11.9161 10.4621 10.6083 10.8195C10.1372 12.0948 9.4305 13.1751 8.537 13.9386H8.52888Z" fill="#FF0000"/>
</svg>
