<svg width="34" height="41" viewBox="0 0 34 41" fill="none" xmlns="http://www.w3.org/2000/svg">
<path d="M31.5714 3.2381H30.7619V2.42857C30.7619 1.09286 29.669 0 28.3333 0H2.42857C1.09286 0 0 1.09286 0 2.42857V34.8095C0 36.1452 1.09286 37.2381 2.42857 37.2381H3.2381V38.0476C3.2381 39.3833 4.32286 40.4762 5.66667 40.4762H30.7619C30.8671 40.4762 30.9724 40.4519 31.0614 40.4195C32.729 40.1281 34 38.6871 34 36.9386V5.66667C34 4.33095 32.9071 3.2381 31.5714 3.2381ZM5.59381 38.841C5.18095 38.8005 4.85714 38.4686 4.85714 38.0476V37.2381H10.8071L5.59381 38.841ZM11.05 38.8571L26.1395 34.2186L27.03 37.7967C27.1271 38.1852 27.289 38.5414 27.4914 38.8571H11.05ZM28.1552 35.619L27.4995 32.9962C27.4429 32.7776 27.3052 32.5914 27.111 32.4862C26.9167 32.381 26.69 32.3486 26.4795 32.4133L16.069 35.619H2.42857C1.98333 35.619 1.61905 35.2548 1.61905 34.8095V2.42857C1.61905 1.98333 1.98333 1.61905 2.42857 1.61905H28.3333C28.7786 1.61905 29.1429 1.98333 29.1429 2.42857V34.8095C29.1429 35.2548 28.7786 35.619 28.3333 35.619H28.1552ZM32.381 36.9386C32.381 37.999 31.5229 38.8571 30.4624 38.8571C29.58 38.8571 28.819 38.2581 28.6005 37.4081L28.5519 37.2138C29.7905 37.1005 30.7619 36.0724 30.7619 34.8095V4.85714H31.5714C32.0167 4.85714 32.381 5.22143 32.381 5.66667V36.9386Z" fill="#FF0000"/>
<path d="M8.90495 14.5714C12.0297 14.5714 14.5716 12.0287 14.5716 8.90477C14.5716 5.78081 12.0297 3.2381 8.90495 3.2381C5.78019 3.2381 3.23828 5.78081 3.23828 8.90477C3.23828 12.0287 5.78019 14.5714 8.90495 14.5714ZM6.49338 12.1364C7.18147 11.6207 8.0258 11.3333 8.90495 11.3333C9.78895 11.3333 10.6187 11.6256 11.3084 12.1429C10.6341 12.6448 9.80757 12.9524 8.90495 12.9524C8.00233 12.9524 7.16933 12.6423 6.49338 12.1364ZM8.09542 8.90477C8.09542 8.45791 8.4589 8.09524 8.90495 8.09524C9.351 8.09524 9.71447 8.45791 9.71447 8.90477C9.71447 9.35162 9.351 9.71429 8.90495 9.71429C8.4589 9.71429 8.09542 9.35162 8.09542 8.90477ZM8.90495 4.85715C11.1368 4.85715 12.9526 6.67291 12.9526 8.90477C12.9526 9.64224 12.7397 10.3255 12.3932 10.9213C11.9658 10.5845 11.4979 10.3133 10.9976 10.115C11.2048 9.75719 11.3327 9.34757 11.3327 8.90477C11.3327 7.56581 10.2431 6.47619 8.90414 6.47619C7.56519 6.47619 6.47557 7.56581 6.47557 8.90477C6.47557 9.35 6.60509 9.76286 6.81476 10.1223C6.31366 10.3214 5.84414 10.591 5.41833 10.9261C5.07023 10.3287 4.85652 9.64386 4.85652 8.90477C4.85652 6.67291 6.67309 4.85715 8.90495 4.85715ZM17.0002 4.85715H23.4764C23.9232 4.85715 24.2859 4.49529 24.2859 4.04762C24.2859 3.59996 23.9232 3.2381 23.4764 3.2381H17.0002C16.5533 3.2381 16.1907 3.59996 16.1907 4.04762C16.1907 4.49529 16.5533 4.85715 17.0002 4.85715ZM17.0002 8.09524H26.7145C27.1613 8.09524 27.524 7.73338 27.524 7.28572C27.524 6.83805 27.1613 6.47619 26.7145 6.47619H17.0002C16.5533 6.47619 16.1907 6.83805 16.1907 7.28572C16.1907 7.73338 16.5533 8.09524 17.0002 8.09524ZM17.0002 11.3333H26.7145C27.1613 11.3333 27.524 10.9715 27.524 10.5238C27.524 10.0761 27.1613 9.71429 26.7145 9.71429H17.0002C16.5533 9.71429 16.1907 10.0761 16.1907 10.5238C16.1907 10.9715 16.5533 11.3333 17.0002 11.3333ZM17.0002 14.5714H26.7145C27.1613 14.5714 27.524 14.2096 27.524 13.7619C27.524 13.3142 27.1613 12.9524 26.7145 12.9524H17.0002C16.5533 12.9524 16.1907 13.3142 16.1907 13.7619C16.1907 14.2096 16.5533 14.5714 17.0002 14.5714ZM6.47638 25.0952C6.47638 30.005 10.4714 34 15.3811 34C20.2909 34 24.2859 30.005 24.2859 25.0952C24.2859 20.1855 20.2909 16.1905 15.3811 16.1905C10.4714 16.1905 6.47638 20.1855 6.47638 25.0952ZM15.3811 17.8095C19.398 17.8095 22.6669 21.0776 22.6669 25.0952C22.6669 29.1129 19.398 32.381 15.3811 32.381C11.3643 32.381 8.09542 29.1129 8.09542 25.0952C8.09542 21.0776 11.3643 17.8095 15.3811 17.8095Z" fill="#FF0000"/>
<path d="M11.3761 29.1C11.6813 29.4052 12.2042 29.4165 12.5207 29.1L15.3808 26.2399L18.2408 29.1C18.5412 29.4003 19.0746 29.4108 19.3855 29.1C19.702 28.7834 19.702 28.2718 19.3855 27.9553L16.5254 25.0953L19.3855 22.2352C19.702 21.9187 19.702 21.4071 19.3855 21.0905C19.069 20.774 18.5574 20.774 18.2408 21.0905L15.3808 23.9506L12.5207 21.0905C12.2042 20.774 11.6926 20.774 11.3761 21.0905C11.0595 21.4071 11.0595 21.9187 11.3761 22.2352L14.2361 25.0953L11.3761 27.9553C11.0595 28.2718 11.0595 28.7834 11.3761 29.1Z" fill="#FF0000"/>
</svg>
