<svg width="25" height="31" viewBox="0 0 25 31" fill="none" xmlns="http://www.w3.org/2000/svg">
<path d="M5.66667 11.3333C8.79143 11.3333 11.3333 8.79062 11.3333 5.66667C11.3333 2.54271 8.79143 0 5.66667 0C2.5419 0 0 2.54271 0 5.66667C0 8.79062 2.5419 11.3333 5.66667 11.3333ZM3.2551 8.89829C3.94319 8.38262 4.78752 8.09524 5.66667 8.09524C6.55067 8.09524 7.38043 8.38748 8.07014 8.90476C7.39581 9.40667 6.56929 9.71429 5.66667 9.71429C4.76405 9.71429 3.93105 9.40424 3.2551 8.89829ZM4.85714 5.66667C4.85714 5.21981 5.22062 4.85714 5.66667 4.85714C6.11271 4.85714 6.47619 5.21981 6.47619 5.66667C6.47619 6.11352 6.11271 6.47619 5.66667 6.47619C5.22062 6.47619 4.85714 6.11352 4.85714 5.66667ZM5.66667 1.61905C7.89852 1.61905 9.71429 3.43481 9.71429 5.66667C9.71429 6.40414 9.50138 7.08738 9.15491 7.68319C8.72748 7.34643 8.25957 7.07524 7.75928 6.87691C7.96652 6.5191 8.09443 6.10948 8.09443 5.66667C8.09443 4.32771 7.00481 3.2381 5.66586 3.2381C4.32691 3.2381 3.23729 4.32771 3.23729 5.66667C3.23729 6.1119 3.36681 6.52476 3.57648 6.88419C3.07538 7.08333 2.60586 7.3529 2.18005 7.68805C1.83195 7.09062 1.61824 6.40576 1.61824 5.66667C1.61824 3.43481 3.43481 1.61905 5.66667 1.61905ZM13.7619 1.61905H20.2381C20.685 1.61905 21.0476 1.25719 21.0476 0.809524C21.0476 0.361857 20.685 0 20.2381 0H13.7619C13.315 0 12.9524 0.361857 12.9524 0.809524C12.9524 1.25719 13.315 1.61905 13.7619 1.61905ZM13.7619 4.85714H23.4762C23.923 4.85714 24.2857 4.49529 24.2857 4.04762C24.2857 3.59995 23.923 3.2381 23.4762 3.2381H13.7619C13.315 3.2381 12.9524 3.59995 12.9524 4.04762C12.9524 4.49529 13.315 4.85714 13.7619 4.85714ZM13.7619 8.09524H23.4762C23.923 8.09524 24.2857 7.73338 24.2857 7.28571C24.2857 6.83805 23.923 6.47619 23.4762 6.47619H13.7619C13.315 6.47619 12.9524 6.83805 12.9524 7.28571C12.9524 7.73338 13.315 8.09524 13.7619 8.09524ZM13.7619 11.3333H23.4762C23.923 11.3333 24.2857 10.9715 24.2857 10.5238C24.2857 10.0761 23.923 9.71429 23.4762 9.71429H13.7619C13.315 9.71429 12.9524 10.0761 12.9524 10.5238C12.9524 10.9715 13.315 11.3333 13.7619 11.3333ZM3.2381 21.8571C3.2381 26.7669 7.2331 30.7619 12.1429 30.7619C17.0526 30.7619 21.0476 26.7669 21.0476 21.8571C21.0476 16.9474 17.0526 12.9524 12.1429 12.9524C7.2331 12.9524 3.2381 16.9474 3.2381 21.8571ZM12.1429 14.5714C16.1597 14.5714 19.4286 17.8395 19.4286 21.8571C19.4286 25.8748 16.1597 29.1429 12.1429 29.1429C8.126 29.1429 4.85714 25.8748 4.85714 21.8571C4.85714 17.8395 8.126 14.5714 12.1429 14.5714Z" fill="#FF0000"/>
</svg>
