<svg width="24" height="24" viewBox="0 0 24 24" fill="none" xmlns="http://www.w3.org/2000/svg">
<path d="M22.2423 3.0492L1.17613 10.2523C0.837278 10.3681 0.76211 10.6517 1.1642 10.8068L5.69338 12.5677L8.37796 13.6107L21.4835 4.27287C21.6601 4.14784 21.8629 4.38285 21.7352 4.51714L12.344 14.3725V14.3748L11.8047 14.9571L12.5194 15.3298L18.4636 18.4347C18.8108 18.6153 19.2606 18.466 19.3609 18.0481L22.8281 3.54816C22.9224 3.15108 22.6516 2.90912 22.2423 3.0492ZM8.3541 19.8679C8.3541 20.1527 8.51995 20.2326 8.74903 20.0312C9.04851 19.7661 12.1495 17.0663 12.1495 17.0663L8.3541 15.1631V19.8679Z" fill="white"/>
</svg>
