<svg width="17" height="16" viewBox="0 0 17 16" fill="none" xmlns="http://www.w3.org/2000/svg">
<g clip-path="url(#clip0_94_483)">
<path d="M13.9182 2.34667C13.1716 1.6 12.3093 1.02222 11.3316 0.613333C10.3538 0.204444 9.33156 -3.8743e-07 8.26489 -3.8743e-07C7.19823 -3.8743e-07 6.176 0.204444 5.19823 0.613333C4.22045 1.02222 3.35823 1.6 2.61156 2.34667C1.86489 3.09333 1.28711 3.95556 0.878226 4.93333C0.469337 5.91111 0.264893 6.93333 0.264893 8C0.264893 9.06667 0.469337 10.0889 0.878226 11.0667C1.28711 12.0444 1.86489 12.9067 2.61156 13.6533C3.35823 14.4 4.22045 14.9778 5.19823 15.3867C6.176 15.7956 7.19823 16 8.26489 16C9.33156 16 10.3538 15.7956 11.3316 15.3867C12.3093 14.9778 13.1716 14.4 13.9182 13.6533C14.6649 12.9067 15.2427 12.0444 15.6516 11.0667C16.0604 10.0889 16.2649 9.06667 16.2649 8C16.2649 6.93333 16.0604 5.91111 15.6516 4.93333C15.2427 3.95556 14.6649 3.09333 13.9182 2.34667ZM3.73156 13.44C3.83823 12.6933 4.10489 12.0089 4.53156 11.3867C4.95823 10.7644 5.50045 10.2756 6.15823 9.92C6.816 9.56444 7.51823 9.38667 8.26489 9.38667C8.86934 9.38667 9.44712 9.50222 9.99823 9.73333C10.5493 9.96444 11.0382 10.2933 11.4649 10.72C12.2116 11.4667 12.656 12.3733 12.7982 13.44C12.1582 13.9378 11.456 14.3289 10.6916 14.6133C9.92712 14.8978 9.11823 15.04 8.26489 15.04C7.41156 15.04 6.60267 14.8978 5.83823 14.6133C5.07378 14.3289 4.37156 13.9378 3.73156 13.44ZM8.26489 8.42667C7.58934 8.42667 7.01156 8.18667 6.53156 7.70667C6.05156 7.22667 5.81156 6.65778 5.81156 6C5.81156 5.34222 6.05156 4.77333 6.53156 4.29333C7.01156 3.81333 7.58934 3.57333 8.26489 3.57333C8.94045 3.57333 9.51823 3.81333 9.99823 4.29333C10.4782 4.77333 10.7182 5.34222 10.7182 6C10.7182 6.65778 10.4782 7.22667 9.99823 7.70667C9.51823 8.18667 8.94045 8.42667 8.26489 8.42667ZM13.5982 12.64C13.3493 11.6444 12.8693 10.7911 12.1582 10.08C11.5893 9.47556 10.9138 9.04889 10.1316 8.8C10.5938 8.48 10.9582 8.07111 11.2249 7.57333C11.4916 7.07556 11.6249 6.53333 11.6249 5.94667C11.6249 5.36 11.4738 4.80889 11.1716 4.29333C10.8693 3.77778 10.4604 3.36889 9.94489 3.06667C9.42934 2.76444 8.86934 2.61333 8.26489 2.61333C7.66045 2.61333 7.10045 2.76444 6.58489 3.06667C6.06934 3.36889 5.66045 3.77778 5.35823 4.29333C5.056 4.80889 4.90489 5.36 4.90489 5.94667C4.90489 6.53333 5.03823 7.07556 5.30489 7.57333C5.57156 8.07111 5.936 8.48 6.39823 8.8C5.68711 9.04889 5.06489 9.42222 4.53156 9.92C3.71378 10.6667 3.18045 11.5733 2.93156 12.64C2.39823 12 1.98045 11.28 1.67823 10.48C1.376 9.68 1.22489 8.85333 1.22489 8C1.22489 6.72 1.536 5.53778 2.15823 4.45333C2.78045 3.36889 3.63378 2.51556 4.71823 1.89333C5.80267 1.27111 6.98489 0.96 8.26489 0.96C9.54489 0.96 10.7271 1.27111 11.8116 1.89333C12.896 2.51556 13.7493 3.36889 14.3716 4.45333C14.9938 5.53778 15.3049 6.72 15.3049 8C15.3049 8.85333 15.1538 9.68 14.8516 10.48C14.5493 11.28 14.1316 12 13.5982 12.64Z" fill="#6D757F"/>
</g>
<defs>
<clipPath id="clip0_94_483">
<rect width="16.53" height="16" fill="white" transform="matrix(1 0 0 -1 0 16)"/>
</clipPath>
</defs>
</svg>
