<svg width="17" height="16" viewBox="0 0 17 16" fill="none" xmlns="http://www.w3.org/2000/svg">
<g clip-path="url(#clip0_94_529)">
<path d="M14.1849 1.22667H12.7449V0.48C12.7449 0.337777 12.7004 0.222222 12.6116 0.133333C12.5227 0.0444441 12.4071 -3.8743e-07 12.2649 -3.8743e-07C12.1227 -3.8743e-07 12.0071 0.0444441 11.9182 0.133333C11.8293 0.222222 11.7849 0.337777 11.7849 0.48V1.22667H4.74489V0.48C4.74489 0.337777 4.70045 0.222222 4.61156 0.133333C4.52267 0.0444441 4.40711 -3.8743e-07 4.26489 -3.8743e-07C4.12267 -3.8743e-07 4.00711 0.0444441 3.91823 0.133333C3.82934 0.222222 3.78489 0.337777 3.78489 0.48V1.22667H2.34489C1.776 1.22667 1.28711 1.43111 0.878226 1.84C0.469337 2.24889 0.264893 2.73778 0.264893 3.30667V13.92C0.264893 14.4889 0.469337 14.9778 0.878226 15.3867C1.28711 15.7956 1.776 16 2.34489 16H14.1849C14.7538 16 15.2427 15.7956 15.6516 15.3867C16.0604 14.9778 16.2649 14.4889 16.2649 13.92V3.30667C16.2649 2.73778 16.0604 2.24889 15.6516 1.84C15.2427 1.43111 14.7538 1.22667 14.1849 1.22667ZM2.34489 2.24H3.78489V2.77333C3.78489 2.88 3.82934 2.98667 3.91823 3.09333C4.00711 3.2 4.12267 3.25333 4.26489 3.25333C4.40711 3.25333 4.52267 3.2 4.61156 3.09333C4.70045 2.98667 4.74489 2.88 4.74489 2.77333V2.24H11.7849V2.77333C11.7849 2.88 11.8293 2.98667 11.9182 3.09333C12.0071 3.2 12.1227 3.25333 12.2649 3.25333C12.4071 3.25333 12.5227 3.2 12.6116 3.09333C12.7004 2.98667 12.7449 2.88 12.7449 2.77333V2.24H14.1849C14.5049 2.24 14.7627 2.34667 14.9582 2.56C15.1538 2.77333 15.2516 3.02222 15.2516 3.30667V4.48H1.27823V3.30667C1.27823 3.02222 1.376 2.77333 1.57156 2.56C1.76711 2.34667 2.02489 2.24 2.34489 2.24ZM14.1849 14.9867H2.34489C2.02489 14.9867 1.76711 14.8889 1.57156 14.6933C1.376 14.4978 1.27823 14.24 1.27823 13.92V5.49333H15.2516V13.92C15.2516 14.24 15.1538 14.4978 14.9582 14.6933C14.7627 14.8889 14.5049 14.9867 14.1849 14.9867Z" fill="#6D757F"/>
</g>
<defs>
<clipPath id="clip0_94_529">
<rect width="16.53" height="16" fill="white" transform="matrix(1 0 0 -1 0 16)"/>
</clipPath>
</defs>
</svg>
