<svg width="26" height="18" viewBox="0 0 26 18" fill="none" xmlns="http://www.w3.org/2000/svg">
<path d="M7.76593 8.70063L0 14.1586V3.24266L7.76593 8.70063ZM17.6555 8.70063L25.4214 14.1586V3.24266L17.6555 8.70063ZM16.5208 9.50042L13.0486 11.9399C12.9463 12.0102 12.8285 12.047 12.7107 12.047C12.5929 12.047 12.4751 12.0102 12.3728 11.9399L8.90059 9.50042L0.514629 15.3934L0.0279016 15.7348C0.17981 16.6784 0.942452 17.4013 1.8601 17.4013H23.5613C24.479 17.4013 25.2416 16.6818 25.3935 15.7348L24.9037 15.3934L16.5208 9.50042ZM12.7107 10.578L24.9037 2.00784L25.3935 1.66651C25.2416 0.719475 24.479 0 23.5613 0H1.8601C0.942452 0 0.17981 0.722821 0.0279016 1.66651L0.514629 2.00784L12.7107 10.578Z" fill="white"/>
</svg>
