<svg width="470" height="22" viewBox="0 0 470 22" fill="none" xmlns="http://www.w3.org/2000/svg">
<path opacity="0.88" d="M36.0462 18L32.3516 4.90909H34.902L37.2607 14.5291H37.3821L39.9006 4.90909H42.2209L44.7457 14.5355H44.8608L47.2195 4.90909H49.7699L46.0753 18H43.7358L41.1151 8.81463H41.0128L38.3857 18H36.0462ZM53.6259 12.2472V18H51.312V4.90909H53.5748V9.85014H53.6898C53.9199 9.29616 54.2757 8.85937 54.7573 8.53977C55.2431 8.21591 55.861 8.05398 56.611 8.05398C57.2928 8.05398 57.8873 8.19673 58.3944 8.48224C58.9015 8.76776 59.2935 9.18537 59.5705 9.73509C59.8517 10.2848 59.9924 10.956 59.9924 11.7486V18H57.6784V12.1065C57.6784 11.446 57.508 10.9325 57.1671 10.5661C56.8304 10.1953 56.3574 10.0099 55.748 10.0099C55.339 10.0099 54.9725 10.0994 54.6486 10.2784C54.329 10.4531 54.0776 10.7067 53.8944 11.0391C53.7154 11.3714 53.6259 11.7741 53.6259 12.2472ZM65.1763 18.1982C64.5542 18.1982 63.9938 18.0874 63.4952 17.8658C63.0009 17.6399 62.6088 17.3075 62.3191 16.8686C62.0336 16.4297 61.8908 15.8885 61.8908 15.245C61.8908 14.6911 61.9931 14.233 62.1976 13.8707C62.4022 13.5085 62.6813 13.2188 63.035 13.0014C63.3887 12.7841 63.7871 12.62 64.2303 12.5092C64.6777 12.3942 65.1401 12.3111 65.6174 12.2599C66.1926 12.2003 66.6593 12.147 67.0172 12.1001C67.3752 12.049 67.6351 11.9723 67.7971 11.87C67.9632 11.7635 68.0463 11.5994 68.0463 11.3778V11.3395C68.0463 10.858 67.9036 10.4851 67.6181 10.2209C67.3326 9.95668 66.9213 9.82457 66.3844 9.82457C65.8176 9.82457 65.3681 9.94815 65.0357 10.1953C64.7076 10.4425 64.486 10.7344 64.3709 11.071L62.2104 10.7642C62.3809 10.1676 62.6621 9.66903 63.0542 9.26847C63.4462 8.86364 63.9256 8.56108 64.4924 8.3608C65.0591 8.15625 65.6855 8.05398 66.3716 8.05398C66.8446 8.05398 67.3155 8.10938 67.7843 8.22017C68.253 8.33097 68.6813 8.5142 69.0691 8.76989C69.4569 9.02131 69.7679 9.36435 70.0023 9.79901C70.2409 10.2337 70.3603 10.777 70.3603 11.429V18H68.1358V16.6513H68.0591C67.9185 16.924 67.7203 17.1797 67.4647 17.4183C67.2132 17.6527 66.8958 17.8423 66.5123 17.9872C66.133 18.1278 65.6877 18.1982 65.1763 18.1982ZM65.7772 16.4979C66.2417 16.4979 66.6444 16.4062 66.9853 16.223C67.3262 16.0355 67.5882 15.7884 67.7715 15.4815C67.959 15.1747 68.0527 14.8402 68.0527 14.478V13.321C67.9803 13.3807 67.8567 13.4361 67.682 13.4872C67.5115 13.5384 67.3198 13.5831 67.1067 13.6214C66.8936 13.6598 66.6827 13.6939 66.4739 13.7237C66.2651 13.7536 66.084 13.7791 65.9306 13.8004C65.5854 13.8473 65.2765 13.924 65.0037 14.0305C64.731 14.1371 64.5158 14.2862 64.3581 14.478C64.2005 14.6655 64.1216 14.9084 64.1216 15.2067C64.1216 15.6328 64.2772 15.9545 64.5882 16.1719C64.8993 16.3892 65.2956 16.4979 65.7772 16.4979ZM77.5897 8.18182V9.97159H71.9455V8.18182H77.5897ZM73.339 5.82955H75.6529V15.0469C75.6529 15.358 75.6998 15.5966 75.7935 15.7628C75.8915 15.9247 76.0194 16.0355 76.177 16.0952C76.3347 16.1548 76.5094 16.1847 76.7012 16.1847C76.8461 16.1847 76.9782 16.174 77.0975 16.1527C77.2211 16.1314 77.3148 16.1122 77.3787 16.0952L77.7686 17.9041C77.6451 17.9467 77.4682 17.9936 77.2381 18.0447C77.0123 18.0959 76.7353 18.1257 76.4071 18.1342C75.8276 18.1513 75.3056 18.0639 74.8411 17.8722C74.3766 17.6761 74.008 17.3736 73.7353 16.9645C73.4668 16.5554 73.3347 16.044 73.339 15.4304V5.82955ZM83.9897 18V8.18182H86.3036V18H83.9897ZM85.1531 6.78835C84.7866 6.78835 84.4712 6.6669 84.207 6.42401C83.9428 6.17685 83.8107 5.88068 83.8107 5.53551C83.8107 5.18608 83.9428 4.88991 84.207 4.64702C84.4712 4.39986 84.7866 4.27628 85.1531 4.27628C85.5238 4.27628 85.8391 4.39986 86.0991 4.64702C86.3633 4.88991 86.4954 5.18608 86.4954 5.53551C86.4954 5.88068 86.3633 6.17685 86.0991 6.42401C85.8391 6.6669 85.5238 6.78835 85.1531 6.78835ZM88.6831 18V8.18182H90.8947V9.85014H91.0098C91.2143 9.28764 91.5531 8.84872 92.0261 8.53338C92.4991 8.21378 93.0637 8.05398 93.72 8.05398C94.3848 8.05398 94.9451 8.21591 95.4011 8.53977C95.8613 8.85937 96.1852 9.29616 96.3727 9.85014H96.475C96.6923 9.30469 97.0588 8.87003 97.5744 8.54616C98.0943 8.21804 98.71 8.05398 99.4217 8.05398C100.325 8.05398 101.062 8.33949 101.633 8.91051C102.204 9.48153 102.49 10.3146 102.49 11.4098V18H100.17V11.7678C100.17 11.1584 100.008 10.7131 99.6838 10.4318C99.3599 10.1463 98.9636 10.0036 98.4949 10.0036C97.9366 10.0036 97.4998 10.1783 97.1845 10.5277C96.8734 10.8729 96.7179 11.3224 96.7179 11.8764V18H94.4487V11.6719C94.4487 11.1648 94.2953 10.7599 93.9885 10.4574C93.6859 10.1548 93.2896 10.0036 92.7995 10.0036C92.4672 10.0036 92.1646 10.0888 91.8919 10.2592C91.6191 10.4254 91.4018 10.6619 91.2399 10.9688C91.0779 11.2713 90.997 11.625 90.997 12.0298V18H88.6831ZM104.837 18V8.18182H107.049V9.85014H107.164C107.369 9.28764 107.707 8.84872 108.18 8.53338C108.653 8.21378 109.218 8.05398 109.874 8.05398C110.539 8.05398 111.099 8.21591 111.555 8.53977C112.016 8.85937 112.339 9.29616 112.527 9.85014H112.629C112.847 9.30469 113.213 8.87003 113.729 8.54616C114.249 8.21804 114.864 8.05398 115.576 8.05398C116.479 8.05398 117.217 8.33949 117.788 8.91051C118.359 9.48153 118.644 10.3146 118.644 11.4098V18H116.324V11.7678C116.324 11.1584 116.162 10.7131 115.838 10.4318C115.514 10.1463 115.118 10.0036 114.649 10.0036C114.091 10.0036 113.654 10.1783 113.339 10.5277C113.028 10.8729 112.872 11.3224 112.872 11.8764V18H110.603V11.6719C110.603 11.1648 110.45 10.7599 110.143 10.4574C109.84 10.1548 109.444 10.0036 108.954 10.0036C108.621 10.0036 108.319 10.0888 108.046 10.2592C107.773 10.4254 107.556 10.6619 107.394 10.9688C107.232 11.2713 107.151 11.625 107.151 12.0298V18H104.837ZM120.992 18V8.18182H123.306V18H120.992ZM122.155 6.78835C121.789 6.78835 121.473 6.6669 121.209 6.42401C120.945 6.17685 120.813 5.88068 120.813 5.53551C120.813 5.18608 120.945 4.88991 121.209 4.64702C121.473 4.39986 121.789 4.27628 122.155 4.27628C122.526 4.27628 122.841 4.39986 123.101 4.64702C123.365 4.88991 123.497 5.18608 123.497 5.53551C123.497 5.88068 123.365 6.17685 123.101 6.42401C122.841 6.6669 122.526 6.78835 122.155 6.78835ZM129.955 21.8864C129.124 21.8864 128.41 21.7734 127.814 21.5476C127.217 21.326 126.738 21.0277 126.375 20.6527C126.013 20.2777 125.762 19.8622 125.621 19.4062L127.705 18.9013C127.799 19.093 127.935 19.2827 128.114 19.4702C128.293 19.6619 128.534 19.8196 128.836 19.9432C129.143 20.071 129.529 20.1349 129.993 20.1349C130.65 20.1349 131.193 19.9751 131.623 19.6555C132.054 19.3402 132.269 18.8203 132.269 18.0959V16.2358H132.154C132.034 16.4744 131.86 16.7195 131.63 16.9709C131.404 17.2223 131.103 17.4332 130.728 17.6037C130.358 17.7741 129.891 17.8594 129.328 17.8594C128.574 17.8594 127.89 17.6825 127.277 17.3288C126.667 16.9709 126.181 16.4382 125.819 15.7308C125.461 15.0192 125.282 14.1286 125.282 13.0589C125.282 11.9808 125.461 11.071 125.819 10.3295C126.181 9.58381 126.669 9.01918 127.283 8.63565C127.897 8.24787 128.581 8.05398 129.335 8.05398C129.91 8.05398 130.383 8.15199 130.754 8.34801C131.129 8.53977 131.427 8.77202 131.649 9.04474C131.87 9.31321 132.039 9.56676 132.154 9.8054H132.282V8.18182H134.564V18.1598C134.564 18.9993 134.363 19.6939 133.963 20.2436C133.562 20.7933 133.015 21.2045 132.32 21.4773C131.625 21.75 130.837 21.8864 129.955 21.8864ZM129.974 16.044C130.464 16.044 130.882 15.9247 131.227 15.6861C131.572 15.4474 131.834 15.1044 132.013 14.657C132.192 14.2095 132.282 13.6726 132.282 13.0462C132.282 12.4283 132.192 11.8871 132.013 11.4226C131.838 10.9581 131.578 10.598 131.233 10.3423C130.892 10.0824 130.473 9.95241 129.974 9.95241C129.458 9.95241 129.028 10.0866 128.683 10.3551C128.338 10.6236 128.078 10.9922 127.903 11.4609C127.728 11.9254 127.641 12.4538 127.641 13.0462C127.641 13.647 127.728 14.1733 127.903 14.625C128.082 15.0724 128.344 15.4219 128.689 15.6733C129.039 15.9205 129.467 16.044 129.974 16.044ZM136.935 18V8.18182H139.179V9.81818H139.281C139.46 9.25142 139.767 8.81463 140.201 8.50781C140.64 8.19673 141.141 8.04119 141.703 8.04119C141.831 8.04119 141.974 8.04758 142.132 8.06037C142.294 8.06889 142.428 8.08381 142.534 8.10511V10.2337C142.436 10.1996 142.281 10.1697 142.068 10.1442C141.859 10.1143 141.657 10.0994 141.461 10.0994C141.039 10.0994 140.659 10.1911 140.323 10.3743C139.99 10.5533 139.728 10.8026 139.537 11.1222C139.345 11.4418 139.249 11.8104 139.249 12.228V18H136.935ZM146.721 18.1982C146.099 18.1982 145.539 18.0874 145.04 17.8658C144.546 17.6399 144.154 17.3075 143.864 16.8686C143.578 16.4297 143.436 15.8885 143.436 15.245C143.436 14.6911 143.538 14.233 143.743 13.8707C143.947 13.5085 144.226 13.2188 144.58 13.0014C144.934 12.7841 145.332 12.62 145.775 12.5092C146.223 12.3942 146.685 12.3111 147.162 12.2599C147.738 12.2003 148.204 12.147 148.562 12.1001C148.92 12.049 149.18 11.9723 149.342 11.87C149.508 11.7635 149.591 11.5994 149.591 11.3778V11.3395C149.591 10.858 149.449 10.4851 149.163 10.2209C148.877 9.95668 148.466 9.82457 147.929 9.82457C147.363 9.82457 146.913 9.94815 146.581 10.1953C146.252 10.4425 146.031 10.7344 145.916 11.071L143.755 10.7642C143.926 10.1676 144.207 9.66903 144.599 9.26847C144.991 8.86364 145.471 8.56108 146.037 8.3608C146.604 8.15625 147.23 8.05398 147.917 8.05398C148.39 8.05398 148.86 8.10938 149.329 8.22017C149.798 8.33097 150.226 8.5142 150.614 8.76989C151.002 9.02131 151.313 9.36435 151.547 9.79901C151.786 10.2337 151.905 10.777 151.905 11.429V18H149.681V16.6513H149.604C149.463 16.924 149.265 17.1797 149.01 17.4183C148.758 17.6527 148.441 17.8423 148.057 17.9872C147.678 18.1278 147.233 18.1982 146.721 18.1982ZM147.322 16.4979C147.787 16.4979 148.189 16.4062 148.53 16.223C148.871 16.0355 149.133 15.7884 149.316 15.4815C149.504 15.1747 149.598 14.8402 149.598 14.478V13.321C149.525 13.3807 149.402 13.4361 149.227 13.4872C149.056 13.5384 148.865 13.5831 148.652 13.6214C148.439 13.6598 148.228 13.6939 148.019 13.7237C147.81 13.7536 147.629 13.7791 147.475 13.8004C147.13 13.8473 146.821 13.924 146.549 14.0305C146.276 14.1371 146.061 14.2862 145.903 14.478C145.745 14.6655 145.667 14.9084 145.667 15.2067C145.667 15.6328 145.822 15.9545 146.133 16.1719C146.444 16.3892 146.841 16.4979 147.322 16.4979ZM159.135 8.18182V9.97159H153.49V8.18182H159.135ZM154.884 5.82955H157.198V15.0469C157.198 15.358 157.245 15.5966 157.338 15.7628C157.436 15.9247 157.564 16.0355 157.722 16.0952C157.88 16.1548 158.054 16.1847 158.246 16.1847C158.391 16.1847 158.523 16.174 158.642 16.1527C158.766 16.1314 158.86 16.1122 158.924 16.0952L159.314 17.9041C159.19 17.9467 159.013 17.9936 158.783 18.0447C158.557 18.0959 158.28 18.1257 157.952 18.1342C157.373 18.1513 156.85 18.0639 156.386 17.8722C155.922 17.6761 155.553 17.3736 155.28 16.9645C155.012 16.5554 154.88 16.044 154.884 15.4304V5.82955ZM161.07 18V8.18182H163.384V18H161.07ZM162.233 6.78835C161.867 6.78835 161.551 6.6669 161.287 6.42401C161.023 6.17685 160.891 5.88068 160.891 5.53551C160.891 5.18608 161.023 4.88991 161.287 4.64702C161.551 4.39986 161.867 4.27628 162.233 4.27628C162.604 4.27628 162.919 4.39986 163.179 4.64702C163.443 4.88991 163.575 5.18608 163.575 5.53551C163.575 5.88068 163.443 6.17685 163.179 6.42401C162.919 6.6669 162.604 6.78835 162.233 6.78835ZM170.046 18.1918C169.087 18.1918 168.256 17.9808 167.553 17.5589C166.85 17.1371 166.304 16.5469 165.917 15.7884C165.533 15.0298 165.341 14.1435 165.341 13.1293C165.341 12.1151 165.533 11.2266 165.917 10.4638C166.304 9.70099 166.85 9.10866 167.553 8.68679C168.256 8.26491 169.087 8.05398 170.046 8.05398C171.005 8.05398 171.836 8.26491 172.539 8.68679C173.242 9.10866 173.785 9.70099 174.169 10.4638C174.556 11.2266 174.75 12.1151 174.75 13.1293C174.75 14.1435 174.556 15.0298 174.169 15.7884C173.785 16.5469 173.242 17.1371 172.539 17.5589C171.836 17.9808 171.005 18.1918 170.046 18.1918ZM170.059 16.3381C170.578 16.3381 171.013 16.1953 171.363 15.9098C171.712 15.62 171.972 15.2322 172.142 14.7464C172.317 14.2607 172.404 13.7195 172.404 13.1229C172.404 12.522 172.317 11.9787 172.142 11.4929C171.972 11.0028 171.712 10.6129 171.363 10.3232C171.013 10.0334 170.578 9.88849 170.059 9.88849C169.526 9.88849 169.083 10.0334 168.729 10.3232C168.38 10.6129 168.118 11.0028 167.943 11.4929C167.772 11.9787 167.687 12.522 167.687 13.1229C167.687 13.7195 167.772 14.2607 167.943 14.7464C168.118 15.2322 168.38 15.62 168.729 15.9098C169.083 16.1953 169.526 16.3381 170.059 16.3381ZM179.028 12.2472V18H176.714V8.18182H178.926V9.85014H179.041C179.267 9.30043 179.627 8.86364 180.121 8.53977C180.62 8.21591 181.236 8.05398 181.969 8.05398C182.646 8.05398 183.236 8.19886 183.739 8.48864C184.246 8.77841 184.638 9.19815 184.915 9.74787C185.197 10.2976 185.335 10.9645 185.331 11.7486V18H183.017V12.1065C183.017 11.4503 182.846 10.9368 182.506 10.5661C182.169 10.1953 181.702 10.0099 181.106 10.0099C180.701 10.0099 180.341 10.0994 180.025 10.2784C179.714 10.4531 179.469 10.7067 179.29 11.0391C179.116 11.3714 179.028 11.7741 179.028 12.2472ZM199.908 10.777L197.798 11.0071C197.739 10.794 197.634 10.5938 197.485 10.4062C197.34 10.2188 197.144 10.0675 196.897 9.95241C196.65 9.83736 196.347 9.77983 195.99 9.77983C195.508 9.77983 195.103 9.88423 194.775 10.093C194.451 10.3018 194.291 10.5724 194.296 10.9048C194.291 11.1903 194.396 11.4226 194.609 11.6016C194.826 11.7805 195.184 11.9276 195.683 12.0426L197.357 12.4006C198.286 12.6009 198.977 12.9183 199.428 13.353C199.884 13.7876 200.115 14.3565 200.119 15.0597C200.115 15.6776 199.933 16.223 199.575 16.696C199.222 17.1648 198.73 17.5312 198.099 17.7955C197.468 18.0597 196.744 18.1918 195.926 18.1918C194.724 18.1918 193.757 17.9403 193.024 17.4375C192.291 16.9304 191.854 16.2251 191.713 15.3217L193.97 15.1044C194.072 15.5476 194.289 15.8821 194.622 16.108C194.954 16.3338 195.387 16.4467 195.919 16.4467C196.469 16.4467 196.91 16.3338 197.242 16.108C197.579 15.8821 197.747 15.603 197.747 15.2706C197.747 14.9893 197.639 14.7571 197.421 14.5739C197.208 14.3906 196.876 14.25 196.424 14.152L194.749 13.8004C193.808 13.6044 193.111 13.2741 192.659 12.8097C192.208 12.3409 191.984 11.7486 191.988 11.0327C191.984 10.4276 192.148 9.90341 192.48 9.46023C192.817 9.01278 193.284 8.66761 193.88 8.42472C194.481 8.17756 195.173 8.05398 195.958 8.05398C197.108 8.05398 198.014 8.29901 198.674 8.78906C199.339 9.27912 199.75 9.94176 199.908 10.777ZM206.373 18.1918C205.389 18.1918 204.539 17.9872 203.823 17.5781C203.111 17.1648 202.564 16.581 202.18 15.8267C201.797 15.0682 201.605 14.1754 201.605 13.1484C201.605 12.1385 201.797 11.2521 202.18 10.4893C202.568 9.7223 203.109 9.12571 203.804 8.69957C204.498 8.26918 205.314 8.05398 206.252 8.05398C206.857 8.05398 207.428 8.15199 207.965 8.34801C208.506 8.53977 208.983 8.83807 209.397 9.2429C209.814 9.64773 210.143 10.1634 210.381 10.7898C210.62 11.4119 210.739 12.1534 210.739 13.0142V13.7237H202.692V12.1641H208.521C208.517 11.7209 208.421 11.3267 208.233 10.9815C208.046 10.6321 207.784 10.3572 207.447 10.157C207.115 9.95668 206.727 9.85653 206.284 9.85653C205.811 9.85653 205.395 9.97159 205.037 10.2017C204.68 10.4276 204.4 10.7259 204.2 11.0966C204.004 11.4631 203.904 11.8658 203.9 12.3047V13.6662C203.9 14.2372 204.004 14.7273 204.213 15.1364C204.422 15.5412 204.714 15.8523 205.089 16.0696C205.464 16.2827 205.903 16.3892 206.405 16.3892C206.742 16.3892 207.047 16.3423 207.319 16.2486C207.592 16.1506 207.829 16.0078 208.029 15.8203C208.229 15.6328 208.381 15.4006 208.483 15.1236L210.643 15.3665C210.507 15.9375 210.247 16.4361 209.863 16.8622C209.484 17.2841 208.998 17.6122 208.406 17.8466C207.814 18.0767 207.136 18.1918 206.373 18.1918ZM212.697 18V8.18182H214.94V9.81818H215.043C215.222 9.25142 215.528 8.81463 215.963 8.50781C216.402 8.19673 216.903 8.04119 217.465 8.04119C217.593 8.04119 217.736 8.04758 217.893 8.06037C218.055 8.06889 218.19 8.08381 218.296 8.10511V10.2337C218.198 10.1996 218.043 10.1697 217.83 10.1442C217.621 10.1143 217.418 10.0994 217.222 10.0994C216.8 10.0994 216.421 10.1911 216.085 10.3743C215.752 10.5533 215.49 10.8026 215.298 11.1222C215.107 11.4418 215.011 11.8104 215.011 12.228V18H212.697ZM228.902 8.18182L225.406 18H222.849L219.352 8.18182H221.82L224.076 15.4751H224.178L226.441 8.18182H228.902ZM230.503 18V8.18182H232.817V18H230.503ZM231.667 6.78835C231.3 6.78835 230.985 6.6669 230.721 6.42401C230.456 6.17685 230.324 5.88068 230.324 5.53551C230.324 5.18608 230.456 4.88991 230.721 4.64702C230.985 4.39986 231.3 4.27628 231.667 4.27628C232.037 4.27628 232.353 4.39986 232.613 4.64702C232.877 4.88991 233.009 5.18608 233.009 5.53551C233.009 5.88068 232.877 6.17685 232.613 6.42401C232.353 6.6669 232.037 6.78835 231.667 6.78835ZM239.479 18.1918C238.499 18.1918 237.658 17.9766 236.955 17.5462C236.256 17.1158 235.717 16.5213 235.337 15.7628C234.962 15 234.775 14.1222 234.775 13.1293C234.775 12.1321 234.967 11.2521 235.35 10.4893C235.734 9.7223 236.275 9.12571 236.974 8.69957C237.677 8.26918 238.508 8.05398 239.467 8.05398C240.263 8.05398 240.969 8.20099 241.582 8.49503C242.2 8.7848 242.692 9.19602 243.059 9.72869C243.425 10.2571 243.634 10.875 243.685 11.5824H241.474C241.384 11.1094 241.171 10.7152 240.835 10.3999C240.502 10.0803 240.057 9.92045 239.499 9.92045C239.026 9.92045 238.61 10.0483 238.252 10.304C237.894 10.5554 237.615 10.9176 237.415 11.3906C237.219 11.8636 237.121 12.4304 237.121 13.0909C237.121 13.7599 237.219 14.3352 237.415 14.8168C237.611 15.294 237.886 15.6626 238.239 15.9226C238.597 16.1783 239.017 16.3061 239.499 16.3061C239.839 16.3061 240.144 16.2422 240.413 16.1143C240.685 15.9822 240.913 15.7926 241.097 15.5455C241.28 15.2983 241.406 14.9979 241.474 14.6442H243.685C243.63 15.3388 243.425 15.9545 243.072 16.4915C242.718 17.0241 242.237 17.4418 241.627 17.7443C241.018 18.0426 240.302 18.1918 239.479 18.1918ZM249.932 18.1918C248.948 18.1918 248.097 17.9872 247.382 17.5781C246.67 17.1648 246.122 16.581 245.739 15.8267C245.355 15.0682 245.164 14.1754 245.164 13.1484C245.164 12.1385 245.355 11.2521 245.739 10.4893C246.127 9.7223 246.668 9.12571 247.362 8.69957C248.057 8.26918 248.873 8.05398 249.811 8.05398C250.416 8.05398 250.987 8.15199 251.524 8.34801C252.065 8.53977 252.542 8.83807 252.955 9.2429C253.373 9.64773 253.701 10.1634 253.94 10.7898C254.178 11.4119 254.298 12.1534 254.298 13.0142V13.7237H246.25V12.1641H252.08C252.075 11.7209 251.98 11.3267 251.792 10.9815C251.605 10.6321 251.343 10.3572 251.006 10.157C250.673 9.95668 250.286 9.85653 249.843 9.85653C249.369 9.85653 248.954 9.97159 248.596 10.2017C248.238 10.4276 247.959 10.7259 247.759 11.0966C247.563 11.4631 247.463 11.8658 247.458 12.3047V13.6662C247.458 14.2372 247.563 14.7273 247.771 15.1364C247.98 15.5412 248.272 15.8523 248.647 16.0696C249.022 16.2827 249.461 16.3892 249.964 16.3892C250.301 16.3892 250.605 16.3423 250.878 16.2486C251.151 16.1506 251.387 16.0078 251.588 15.8203C251.788 15.6328 251.939 15.4006 252.041 15.1236L254.202 15.3665C254.066 15.9375 253.806 16.4361 253.422 16.8622C253.043 17.2841 252.557 17.6122 251.965 17.8466C251.372 18.0767 250.695 18.1918 249.932 18.1918ZM264.015 10.777L261.906 11.0071C261.846 10.794 261.742 10.5938 261.593 10.4062C261.448 10.2188 261.252 10.0675 261.005 9.95241C260.757 9.83736 260.455 9.77983 260.097 9.77983C259.615 9.77983 259.211 9.88423 258.882 10.093C258.559 10.3018 258.399 10.5724 258.403 10.9048C258.399 11.1903 258.503 11.4226 258.716 11.6016C258.934 11.7805 259.292 11.9276 259.79 12.0426L261.465 12.4006C262.394 12.6009 263.084 12.9183 263.536 13.353C263.992 13.7876 264.222 14.3565 264.226 15.0597C264.222 15.6776 264.041 16.223 263.683 16.696C263.329 17.1648 262.837 17.5312 262.206 17.7955C261.576 18.0597 260.851 18.1918 260.033 18.1918C258.831 18.1918 257.864 17.9403 257.131 17.4375C256.398 16.9304 255.961 16.2251 255.821 15.3217L258.077 15.1044C258.179 15.5476 258.397 15.8821 258.729 16.108C259.061 16.3338 259.494 16.4467 260.027 16.4467C260.576 16.4467 261.017 16.3338 261.35 16.108C261.686 15.8821 261.855 15.603 261.855 15.2706C261.855 14.9893 261.746 14.7571 261.529 14.5739C261.316 14.3906 260.983 14.25 260.532 14.152L258.857 13.8004C257.915 13.6044 257.218 13.2741 256.767 12.8097C256.315 12.3409 256.091 11.7486 256.096 11.0327C256.091 10.4276 256.255 9.90341 256.588 9.46023C256.924 9.01278 257.391 8.66761 257.988 8.42472C258.588 8.17756 259.281 8.05398 260.065 8.05398C261.216 8.05398 262.121 8.29901 262.782 8.78906C263.446 9.27912 263.858 9.94176 264.015 10.777ZM274.243 18.1726C273.471 18.1726 272.781 17.9744 272.172 17.5781C271.562 17.1818 271.081 16.6065 270.727 15.8523C270.373 15.098 270.196 14.1818 270.196 13.1037C270.196 12.0128 270.375 11.0923 270.733 10.3423C271.096 9.58807 271.583 9.01918 272.197 8.63565C272.811 8.24787 273.495 8.05398 274.249 8.05398C274.824 8.05398 275.297 8.15199 275.668 8.34801C276.039 8.53977 276.333 8.77202 276.55 9.04474C276.767 9.31321 276.936 9.56676 277.055 9.8054H277.151V4.90909H279.471V18H277.196V16.4531H277.055C276.936 16.6918 276.763 16.9453 276.537 17.2138C276.311 17.478 276.013 17.7038 275.642 17.8913C275.272 18.0788 274.805 18.1726 274.243 18.1726ZM274.888 16.2741C275.378 16.2741 275.796 16.142 276.141 15.8778C276.486 15.6094 276.748 15.2365 276.927 14.7592C277.106 14.282 277.196 13.7259 277.196 13.0909C277.196 12.456 277.106 11.9041 276.927 11.4354C276.752 10.9666 276.493 10.6023 276.147 10.3423C275.806 10.0824 275.387 9.95241 274.888 9.95241C274.373 9.95241 273.942 10.0866 273.597 10.3551C273.252 10.6236 272.992 10.9943 272.817 11.4673C272.642 11.9403 272.555 12.4815 272.555 13.0909C272.555 13.7045 272.642 14.2521 272.817 14.7337C272.996 15.2109 273.258 15.5881 273.603 15.8651C273.953 16.1378 274.381 16.2741 274.888 16.2741ZM286.22 18.1918C285.261 18.1918 284.43 17.9808 283.727 17.5589C283.024 17.1371 282.478 16.5469 282.09 15.7884C281.707 15.0298 281.515 14.1435 281.515 13.1293C281.515 12.1151 281.707 11.2266 282.09 10.4638C282.478 9.70099 283.024 9.10866 283.727 8.68679C284.43 8.26491 285.261 8.05398 286.22 8.05398C287.178 8.05398 288.009 8.26491 288.713 8.68679C289.416 9.10866 289.959 9.70099 290.343 10.4638C290.73 11.2266 290.924 12.1151 290.924 13.1293C290.924 14.1435 290.73 15.0298 290.343 15.7884C289.959 16.5469 289.416 17.1371 288.713 17.5589C288.009 17.9808 287.178 18.1918 286.22 18.1918ZM286.232 16.3381C286.752 16.3381 287.187 16.1953 287.536 15.9098C287.886 15.62 288.146 15.2322 288.316 14.7464C288.491 14.2607 288.578 13.7195 288.578 13.1229C288.578 12.522 288.491 11.9787 288.316 11.4929C288.146 11.0028 287.886 10.6129 287.536 10.3232C287.187 10.0334 286.752 9.88849 286.232 9.88849C285.7 9.88849 285.257 10.0334 284.903 10.3232C284.553 10.6129 284.291 11.0028 284.117 11.4929C283.946 11.9787 283.861 12.522 283.861 13.1229C283.861 13.7195 283.946 14.2607 284.117 14.7464C284.291 15.2322 284.553 15.62 284.903 15.9098C285.257 16.1953 285.7 16.3381 286.232 16.3381ZM297.235 18.1918C296.25 18.1918 295.4 17.9872 294.684 17.5781C293.973 17.1648 293.425 16.581 293.042 15.8267C292.658 15.0682 292.466 14.1754 292.466 13.1484C292.466 12.1385 292.658 11.2521 293.042 10.4893C293.429 9.7223 293.971 9.12571 294.665 8.69957C295.36 8.26918 296.176 8.05398 297.113 8.05398C297.718 8.05398 298.289 8.15199 298.826 8.34801C299.368 8.53977 299.845 8.83807 300.258 9.2429C300.676 9.64773 301.004 10.1634 301.243 10.7898C301.481 11.4119 301.6 12.1534 301.6 13.0142V13.7237H293.553V12.1641H299.382C299.378 11.7209 299.282 11.3267 299.095 10.9815C298.907 10.6321 298.645 10.3572 298.309 10.157C297.976 9.95668 297.588 9.85653 297.145 9.85653C296.672 9.85653 296.257 9.97159 295.899 10.2017C295.541 10.4276 295.262 10.7259 295.061 11.0966C294.865 11.4631 294.765 11.8658 294.761 12.3047V13.6662C294.761 14.2372 294.865 14.7273 295.074 15.1364C295.283 15.5412 295.575 15.8523 295.95 16.0696C296.325 16.2827 296.764 16.3892 297.267 16.3892C297.603 16.3892 297.908 16.3423 298.181 16.2486C298.453 16.1506 298.69 16.0078 298.89 15.8203C299.091 15.6328 299.242 15.4006 299.344 15.1236L301.505 15.3665C301.368 15.9375 301.108 16.4361 300.725 16.8622C300.346 17.2841 299.86 17.6122 299.267 17.8466C298.675 18.0767 297.998 18.1918 297.235 18.1918ZM311.318 10.777L309.209 11.0071C309.149 10.794 309.045 10.5938 308.895 10.4062C308.751 10.2188 308.555 10.0675 308.307 9.95241C308.06 9.83736 307.758 9.77983 307.4 9.77983C306.918 9.77983 306.513 9.88423 306.185 10.093C305.861 10.3018 305.702 10.5724 305.706 10.9048C305.702 11.1903 305.806 11.4226 306.019 11.6016C306.236 11.7805 306.594 11.9276 307.093 12.0426L308.768 12.4006C309.697 12.6009 310.387 12.9183 310.839 13.353C311.295 13.7876 311.525 14.3565 311.529 15.0597C311.525 15.6776 311.344 16.223 310.986 16.696C310.632 17.1648 310.14 17.5312 309.509 17.7955C308.878 18.0597 308.154 18.1918 307.336 18.1918C306.134 18.1918 305.167 17.9403 304.434 17.4375C303.701 16.9304 303.264 16.2251 303.123 15.3217L305.38 15.1044C305.482 15.5476 305.699 15.8821 306.032 16.108C306.364 16.3338 306.797 16.4467 307.329 16.4467C307.879 16.4467 308.32 16.3338 308.653 16.108C308.989 15.8821 309.157 15.603 309.157 15.2706C309.157 14.9893 309.049 14.7571 308.831 14.5739C308.618 14.3906 308.286 14.25 307.834 14.152L306.16 13.8004C305.218 13.6044 304.521 13.2741 304.069 12.8097C303.618 12.3409 303.394 11.7486 303.398 11.0327C303.394 10.4276 303.558 9.90341 303.89 9.46023C304.227 9.01278 304.694 8.66761 305.29 8.42472C305.891 8.17756 306.584 8.05398 307.368 8.05398C308.518 8.05398 309.424 8.29901 310.084 8.78906C310.749 9.27912 311.16 9.94176 311.318 10.777ZM317.761 18V16.5234L324.473 6.89702H317.723V4.90909H327.413V6.38565L320.708 16.0121H327.452V18H317.761ZM329.746 18V4.90909H338.133V6.89702H332.118V10.451H337.557V12.4389H332.118V18H329.746ZM355.963 9.32599H353.573C353.504 8.93395 353.379 8.58665 353.195 8.28409C353.012 7.97727 352.784 7.71733 352.512 7.50426C352.239 7.29119 351.928 7.13139 351.578 7.02486C351.233 6.91406 350.86 6.85866 350.46 6.85866C349.748 6.85866 349.117 7.03764 348.568 7.3956C348.018 7.74929 347.588 8.26918 347.276 8.95526C346.965 9.63707 346.81 10.4702 346.81 11.4545C346.81 12.456 346.965 13.2997 347.276 13.9858C347.592 14.6676 348.022 15.1832 348.568 15.5327C349.117 15.8778 349.746 16.0504 350.453 16.0504C350.845 16.0504 351.212 15.9993 351.553 15.897C351.898 15.7905 352.207 15.6349 352.48 15.4304C352.757 15.2259 352.989 14.9744 353.176 14.6761C353.368 14.3778 353.5 14.0369 353.573 13.6534L355.963 13.6662C355.874 14.2884 355.68 14.8722 355.382 15.4176C355.088 15.9631 354.702 16.4446 354.225 16.8622C353.747 17.2756 353.189 17.5994 352.55 17.8338C351.911 18.0639 351.201 18.179 350.421 18.179C349.271 18.179 348.244 17.9126 347.34 17.38C346.437 16.8473 345.725 16.0781 345.205 15.0724C344.686 14.0668 344.426 12.8608 344.426 11.4545C344.426 10.044 344.688 8.83807 345.212 7.83665C345.736 6.83097 346.45 6.06179 347.353 5.52912C348.257 4.99645 349.279 4.73011 350.421 4.73011C351.15 4.73011 351.828 4.83239 352.454 5.03693C353.08 5.24148 353.639 5.5419 354.129 5.93821C354.619 6.33026 355.021 6.81179 355.337 7.38281C355.656 7.94957 355.865 8.5973 355.963 9.32599ZM360.858 18.1982C360.236 18.1982 359.675 18.0874 359.177 17.8658C358.683 17.6399 358.29 17.3075 358.001 16.8686C357.715 16.4297 357.572 15.8885 357.572 15.245C357.572 14.6911 357.675 14.233 357.879 13.8707C358.084 13.5085 358.363 13.2188 358.717 13.0014C359.07 12.7841 359.469 12.62 359.912 12.5092C360.359 12.3942 360.822 12.3111 361.299 12.2599C361.874 12.2003 362.341 12.147 362.699 12.1001C363.057 12.049 363.317 11.9723 363.479 11.87C363.645 11.7635 363.728 11.5994 363.728 11.3778V11.3395C363.728 10.858 363.585 10.4851 363.3 10.2209C363.014 9.95668 362.603 9.82457 362.066 9.82457C361.499 9.82457 361.05 9.94815 360.717 10.1953C360.389 10.4425 360.168 10.7344 360.053 11.071L357.892 10.7642C358.063 10.1676 358.344 9.66903 358.736 9.26847C359.128 8.86364 359.607 8.56108 360.174 8.3608C360.741 8.15625 361.367 8.05398 362.053 8.05398C362.526 8.05398 362.997 8.10938 363.466 8.22017C363.935 8.33097 364.363 8.5142 364.751 8.76989C365.138 9.02131 365.45 9.36435 365.684 9.79901C365.923 10.2337 366.042 10.777 366.042 11.429V18H363.817V16.6513H363.741C363.6 16.924 363.402 17.1797 363.146 17.4183C362.895 17.6527 362.577 17.8423 362.194 17.9872C361.815 18.1278 361.369 18.1982 360.858 18.1982ZM361.459 16.4979C361.923 16.4979 362.326 16.4062 362.667 16.223C363.008 16.0355 363.27 15.7884 363.453 15.4815C363.641 15.1747 363.734 14.8402 363.734 14.478V13.321C363.662 13.3807 363.538 13.4361 363.364 13.4872C363.193 13.5384 363.001 13.5831 362.788 13.6214C362.575 13.6598 362.364 13.6939 362.156 13.7237C361.947 13.7536 361.766 13.7791 361.612 13.8004C361.267 13.8473 360.958 13.924 360.685 14.0305C360.413 14.1371 360.197 14.2862 360.04 14.478C359.882 14.6655 359.803 14.9084 359.803 15.2067C359.803 15.6328 359.959 15.9545 360.27 16.1719C360.581 16.3892 360.977 16.4979 361.459 16.4979ZM370.683 12.2472V18H368.369V8.18182H370.58V9.85014H370.695C370.921 9.30043 371.281 8.86364 371.776 8.53977C372.274 8.21591 372.89 8.05398 373.623 8.05398C374.3 8.05398 374.891 8.19886 375.393 8.48864C375.901 8.77841 376.293 9.19815 376.57 9.74787C376.851 10.2976 376.989 10.9645 376.985 11.7486V18H374.671V12.1065C374.671 11.4503 374.501 10.9368 374.16 10.5661C373.823 10.1953 373.357 10.0099 372.76 10.0099C372.355 10.0099 371.995 10.0994 371.68 10.2784C371.369 10.4531 371.124 10.7067 370.945 11.0391C370.77 11.3714 370.683 11.7741 370.683 12.2472ZM382.163 18.1982C381.54 18.1982 380.98 18.0874 380.482 17.8658C379.987 17.6399 379.595 17.3075 379.305 16.8686C379.02 16.4297 378.877 15.8885 378.877 15.245C378.877 14.6911 378.979 14.233 379.184 13.8707C379.388 13.5085 379.668 13.2188 380.021 13.0014C380.375 12.7841 380.773 12.62 381.217 12.5092C381.664 12.3942 382.126 12.3111 382.604 12.2599C383.179 12.2003 383.646 12.147 384.004 12.1001C384.362 12.049 384.621 11.9723 384.783 11.87C384.95 11.7635 385.033 11.5994 385.033 11.3778V11.3395C385.033 10.858 384.89 10.4851 384.604 10.2209C384.319 9.95668 383.908 9.82457 383.371 9.82457C382.804 9.82457 382.354 9.94815 382.022 10.1953C381.694 10.4425 381.472 10.7344 381.357 11.071L379.197 10.7642C379.367 10.1676 379.648 9.66903 380.04 9.26847C380.433 8.86364 380.912 8.56108 381.479 8.3608C382.045 8.15625 382.672 8.05398 383.358 8.05398C383.831 8.05398 384.302 8.10938 384.771 8.22017C385.239 8.33097 385.668 8.5142 386.055 8.76989C386.443 9.02131 386.754 9.36435 386.989 9.79901C387.227 10.2337 387.347 10.777 387.347 11.429V18H385.122V16.6513H385.045C384.905 16.924 384.707 17.1797 384.451 17.4183C384.2 17.6527 383.882 17.8423 383.499 17.9872C383.119 18.1278 382.674 18.1982 382.163 18.1982ZM382.763 16.4979C383.228 16.4979 383.631 16.4062 383.972 16.223C384.313 16.0355 384.575 15.7884 384.758 15.4815C384.945 15.1747 385.039 14.8402 385.039 14.478V13.321C384.967 13.3807 384.843 13.4361 384.668 13.4872C384.498 13.5384 384.306 13.5831 384.093 13.6214C383.88 13.6598 383.669 13.6939 383.46 13.7237C383.251 13.7536 383.07 13.7791 382.917 13.8004C382.572 13.8473 382.263 13.924 381.99 14.0305C381.717 14.1371 381.502 14.2862 381.344 14.478C381.187 14.6655 381.108 14.9084 381.108 15.2067C381.108 15.6328 381.263 15.9545 381.575 16.1719C381.886 16.3892 382.282 16.4979 382.763 16.4979ZM393.317 18.1726C392.545 18.1726 391.855 17.9744 391.246 17.5781C390.636 17.1818 390.155 16.6065 389.801 15.8523C389.447 15.098 389.271 14.1818 389.271 13.1037C389.271 12.0128 389.45 11.0923 389.808 10.3423C390.17 9.58807 390.658 9.01918 391.271 8.63565C391.885 8.24787 392.569 8.05398 393.323 8.05398C393.898 8.05398 394.371 8.15199 394.742 8.34801C395.113 8.53977 395.407 8.77202 395.624 9.04474C395.842 9.31321 396.01 9.56676 396.129 9.8054H396.225V4.90909H398.545V18H396.27V16.4531H396.129C396.01 16.6918 395.837 16.9453 395.612 17.2138C395.386 17.478 395.087 17.7038 394.717 17.8913C394.346 18.0788 393.879 18.1726 393.317 18.1726ZM393.962 16.2741C394.452 16.2741 394.87 16.142 395.215 15.8778C395.56 15.6094 395.822 15.2365 396.001 14.7592C396.18 14.282 396.27 13.7259 396.27 13.0909C396.27 12.456 396.18 11.9041 396.001 11.4354C395.827 10.9666 395.567 10.6023 395.222 10.3423C394.881 10.0824 394.461 9.95241 393.962 9.95241C393.447 9.95241 393.016 10.0866 392.671 10.3551C392.326 10.6236 392.066 10.9943 391.891 11.4673C391.717 11.9403 391.629 12.4815 391.629 13.0909C391.629 13.7045 391.717 14.2521 391.891 14.7337C392.07 15.2109 392.332 15.5881 392.678 15.8651C393.027 16.1378 393.455 16.2741 393.962 16.2741ZM403.836 18.1982C403.214 18.1982 402.654 18.0874 402.155 17.8658C401.661 17.6399 401.269 17.3075 400.979 16.8686C400.694 16.4297 400.551 15.8885 400.551 15.245C400.551 14.6911 400.653 14.233 400.858 13.8707C401.062 13.5085 401.341 13.2188 401.695 13.0014C402.049 12.7841 402.447 12.62 402.89 12.5092C403.338 12.3942 403.8 12.3111 404.278 12.2599C404.853 12.2003 405.319 12.147 405.677 12.1001C406.035 12.049 406.295 11.9723 406.457 11.87C406.623 11.7635 406.706 11.5994 406.706 11.3778V11.3395C406.706 10.858 406.564 10.4851 406.278 10.2209C405.993 9.95668 405.581 9.82457 405.045 9.82457C404.478 9.82457 404.028 9.94815 403.696 10.1953C403.368 10.4425 403.146 10.7344 403.031 11.071L400.871 10.7642C401.041 10.1676 401.322 9.66903 401.714 9.26847C402.106 8.86364 402.586 8.56108 403.153 8.3608C403.719 8.15625 404.346 8.05398 405.032 8.05398C405.505 8.05398 405.976 8.10938 406.444 8.22017C406.913 8.33097 407.341 8.5142 407.729 8.76989C408.117 9.02131 408.428 9.36435 408.662 9.79901C408.901 10.2337 409.02 10.777 409.02 11.429V18H406.796V16.6513H406.719C406.579 16.924 406.381 17.1797 406.125 17.4183C405.873 17.6527 405.556 17.8423 405.172 17.9872C404.793 18.1278 404.348 18.1982 403.836 18.1982ZM404.437 16.4979C404.902 16.4979 405.305 16.4062 405.645 16.223C405.986 16.0355 406.248 15.7884 406.432 15.4815C406.619 15.1747 406.713 14.8402 406.713 14.478V13.321C406.64 13.3807 406.517 13.4361 406.342 13.4872C406.172 13.5384 405.98 13.5831 405.767 13.6214C405.554 13.6598 405.343 13.6939 405.134 13.7237C404.925 13.7536 404.744 13.7791 404.591 13.8004C404.246 13.8473 403.937 13.924 403.664 14.0305C403.391 14.1371 403.176 14.2862 403.018 14.478C402.861 14.6655 402.782 14.9084 402.782 15.2067C402.782 15.6328 402.937 15.9545 403.248 16.1719C403.559 16.3892 403.956 16.4979 404.437 16.4979ZM420.095 18.1918C419.136 18.1918 418.305 17.9808 417.602 17.5589C416.899 17.1371 416.353 16.5469 415.965 15.7884C415.582 15.0298 415.39 14.1435 415.39 13.1293C415.39 12.1151 415.582 11.2266 415.965 10.4638C416.353 9.70099 416.899 9.10866 417.602 8.68679C418.305 8.26491 419.136 8.05398 420.095 8.05398C421.053 8.05398 421.884 8.26491 422.588 8.68679C423.291 9.10866 423.834 9.70099 424.218 10.4638C424.605 11.2266 424.799 12.1151 424.799 13.1293C424.799 14.1435 424.605 15.0298 424.218 15.7884C423.834 16.5469 423.291 17.1371 422.588 17.5589C421.884 17.9808 421.053 18.1918 420.095 18.1918ZM420.107 16.3381C420.627 16.3381 421.062 16.1953 421.411 15.9098C421.761 15.62 422.021 15.2322 422.191 14.7464C422.366 14.2607 422.453 13.7195 422.453 13.1229C422.453 12.522 422.366 11.9787 422.191 11.4929C422.021 11.0028 421.761 10.6129 421.411 10.3232C421.062 10.0334 420.627 9.88849 420.107 9.88849C419.575 9.88849 419.132 10.0334 418.778 10.3232C418.428 10.6129 418.166 11.0028 417.992 11.4929C417.821 11.9787 417.736 12.522 417.736 13.1229C417.736 13.7195 417.821 14.2607 417.992 14.7464C418.166 15.2322 418.428 15.62 418.778 15.9098C419.132 16.1953 419.575 16.3381 420.107 16.3381ZM431.736 8.18182V9.97159H425.932V8.18182H431.736ZM427.383 18V7.25497C427.383 6.59446 427.52 6.04474 427.792 5.60582C428.069 5.1669 428.44 4.83878 428.904 4.62145C429.369 4.40412 429.885 4.29545 430.451 4.29545C430.852 4.29545 431.208 4.32741 431.519 4.39134C431.83 4.45526 432.06 4.51278 432.209 4.56392L431.749 6.35369C431.651 6.32386 431.527 6.29403 431.378 6.2642C431.229 6.23011 431.063 6.21307 430.88 6.21307C430.449 6.21307 430.145 6.31747 429.966 6.52628C429.791 6.73082 429.703 7.02486 429.703 7.40838V18H427.383ZM438.521 8.18182V9.97159H432.717V8.18182H438.521ZM434.168 18V7.25497C434.168 6.59446 434.305 6.04474 434.577 5.60582C434.854 5.1669 435.225 4.83878 435.69 4.62145C436.154 4.40412 436.67 4.29545 437.237 4.29545C437.637 4.29545 437.993 4.32741 438.304 4.39134C438.615 4.45526 438.845 4.51278 438.994 4.56392L438.534 6.35369C438.436 6.32386 438.312 6.29403 438.163 6.2642C438.014 6.23011 437.848 6.21307 437.665 6.21307C437.234 6.21307 436.93 6.31747 436.751 6.52628C436.576 6.73082 436.489 7.02486 436.489 7.40838V18H434.168ZM444.311 18.1918C443.327 18.1918 442.476 17.9872 441.76 17.5781C441.049 17.1648 440.501 16.581 440.118 15.8267C439.734 15.0682 439.542 14.1754 439.542 13.1484C439.542 12.1385 439.734 11.2521 440.118 10.4893C440.506 9.7223 441.047 9.12571 441.741 8.69957C442.436 8.26918 443.252 8.05398 444.189 8.05398C444.795 8.05398 445.366 8.15199 445.903 8.34801C446.444 8.53977 446.921 8.83807 447.334 9.2429C447.752 9.64773 448.08 10.1634 448.319 10.7898C448.557 11.4119 448.677 12.1534 448.677 13.0142V13.7237H440.629V12.1641H446.459C446.454 11.7209 446.358 11.3267 446.171 10.9815C445.983 10.6321 445.721 10.3572 445.385 10.157C445.052 9.95668 444.665 9.85653 444.221 9.85653C443.748 9.85653 443.333 9.97159 442.975 10.2017C442.617 10.4276 442.338 10.7259 442.138 11.0966C441.942 11.4631 441.841 11.8658 441.837 12.3047V13.6662C441.837 14.2372 441.942 14.7273 442.15 15.1364C442.359 15.5412 442.651 15.8523 443.026 16.0696C443.401 16.2827 443.84 16.3892 444.343 16.3892C444.68 16.3892 444.984 16.3423 445.257 16.2486C445.53 16.1506 445.766 16.0078 445.966 15.8203C446.167 15.6328 446.318 15.4006 446.42 15.1236L448.581 15.3665C448.444 15.9375 448.184 16.4361 447.801 16.8622C447.422 17.2841 446.936 17.6122 446.344 17.8466C445.751 18.0767 445.074 18.1918 444.311 18.1918ZM450.634 18V8.18182H452.878V9.81818H452.98C453.159 9.25142 453.466 8.81463 453.901 8.50781C454.339 8.19673 454.84 8.04119 455.403 8.04119C455.531 8.04119 455.673 8.04758 455.831 8.06037C455.993 8.06889 456.127 8.08381 456.234 8.10511V10.2337C456.136 10.1996 455.98 10.1697 455.767 10.1442C455.558 10.1143 455.356 10.0994 455.16 10.0994C454.738 10.0994 454.359 10.1911 454.022 10.3743C453.69 10.5533 453.428 10.8026 453.236 11.1222C453.044 11.4418 452.948 11.8104 452.948 12.228V18H450.634ZM459.983 14.152V13.9858C459.987 13.2145 460.059 12.6009 460.2 12.1449C460.345 11.6889 460.549 11.3224 460.814 11.0455C461.078 10.7642 461.4 10.5064 461.779 10.272C462.039 10.1101 462.271 9.93324 462.475 9.74148C462.684 9.54545 462.848 9.32812 462.968 9.08949C463.087 8.84659 463.147 8.57599 463.147 8.2777C463.147 7.94105 463.068 7.64915 462.91 7.40199C462.752 7.15483 462.539 6.96307 462.271 6.8267C462.007 6.69034 461.711 6.62216 461.382 6.62216C461.08 6.62216 460.792 6.68821 460.52 6.82031C460.251 6.94815 460.027 7.14418 459.848 7.40838C459.674 7.66832 459.576 7.99858 459.554 8.39915H457.279C457.3 7.58949 457.496 6.91193 457.867 6.36648C458.242 5.82102 458.736 5.41193 459.35 5.1392C459.968 4.86648 460.65 4.73011 461.395 4.73011C462.209 4.73011 462.925 4.87287 463.543 5.15838C464.165 5.44389 464.649 5.85085 464.994 6.37926C465.343 6.90341 465.518 7.52557 465.518 8.24574C465.518 8.73153 465.439 9.16619 465.282 9.54972C465.128 9.93324 464.909 10.2741 464.623 10.5724C464.338 10.8707 463.999 11.1371 463.607 11.3714C463.262 11.5845 462.978 11.8061 462.757 12.0362C462.539 12.2663 462.377 12.5369 462.271 12.848C462.169 13.1548 462.115 13.5341 462.111 13.9858V14.152H459.983ZM461.095 18.1406C460.711 18.1406 460.381 18.0043 460.104 17.7315C459.827 17.4588 459.689 17.1264 459.689 16.7344C459.689 16.3509 459.827 16.0227 460.104 15.75C460.381 15.4773 460.711 15.3409 461.095 15.3409C461.474 15.3409 461.802 15.4773 462.079 15.75C462.36 16.0227 462.501 16.3509 462.501 16.7344C462.501 16.9943 462.435 17.2308 462.303 17.4439C462.175 17.657 462.005 17.8274 461.792 17.9553C461.583 18.0788 461.35 18.1406 461.095 18.1406Z" fill="#1B1139"/>
<rect opacity="0.8" y="7.5" width="18" height="3" rx="1.5" fill="#1B1139"/>
<rect opacity="0.8" x="10.5" width="18" height="3" rx="1.5" transform="rotate(90 10.5 0)" fill="#1B1139"/>
</svg>
