<svg width="470" height="22" viewBox="0 0 470 22" fill="none" xmlns="http://www.w3.org/2000/svg">
<path opacity="0.88" d="M44.4964 9.32599H42.1058C42.0376 8.93395 41.9119 8.58665 41.7287 8.28409C41.5455 7.97727 41.3175 7.71733 41.0447 7.50426C40.772 7.29119 40.4609 7.13139 40.1115 7.02486C39.7663 6.91406 39.3935 6.85866 38.9929 6.85866C38.2813 6.85866 37.6506 7.03764 37.1009 7.3956C36.5511 7.74929 36.1207 8.26918 35.8097 8.95526C35.4986 9.63707 35.343 10.4702 35.343 11.4545C35.343 12.456 35.4986 13.2997 35.8097 13.9858C36.125 14.6676 36.5554 15.1832 37.1009 15.5327C37.6506 15.8778 38.2791 16.0504 38.9865 16.0504C39.3786 16.0504 39.745 15.9993 40.0859 15.897C40.4311 15.7905 40.7401 15.6349 41.0128 15.4304C41.2898 15.2259 41.522 14.9744 41.7095 14.6761C41.9013 14.3778 42.0334 14.0369 42.1058 13.6534L44.4964 13.6662C44.407 14.2884 44.2131 14.8722 43.9148 15.4176C43.6207 15.9631 43.2351 16.4446 42.7578 16.8622C42.2805 17.2756 41.7223 17.5994 41.0831 17.8338C40.4439 18.0639 39.7344 18.179 38.9545 18.179C37.804 18.179 36.777 17.9126 35.8736 17.38C34.9702 16.8473 34.2585 16.0781 33.7386 15.0724C33.2188 14.0668 32.9588 12.8608 32.9588 11.4545C32.9588 10.044 33.2209 8.83807 33.745 7.83665C34.2692 6.83097 34.983 6.06179 35.8864 5.52912C36.7898 4.99645 37.8125 4.73011 38.9545 4.73011C39.6832 4.73011 40.3608 4.83239 40.9872 5.03693C41.6136 5.24148 42.1719 5.5419 42.6619 5.93821C43.152 6.33026 43.5547 6.81179 43.87 7.38281C44.1896 7.94957 44.3984 8.5973 44.4964 9.32599ZM49.3912 18.1982C48.769 18.1982 48.2086 18.0874 47.71 17.8658C47.2157 17.6399 46.8237 17.3075 46.5339 16.8686C46.2484 16.4297 46.1056 15.8885 46.1056 15.245C46.1056 14.6911 46.2079 14.233 46.4125 13.8707C46.617 13.5085 46.8961 13.2188 47.2498 13.0014C47.6035 12.7841 48.002 12.62 48.4451 12.5092C48.8926 12.3942 49.3549 12.3111 49.8322 12.2599C50.4075 12.2003 50.8741 12.147 51.2321 12.1001C51.59 12.049 51.85 11.9723 52.0119 11.87C52.1781 11.7635 52.2612 11.5994 52.2612 11.3778V11.3395C52.2612 10.858 52.1184 10.4851 51.8329 10.2209C51.5474 9.95668 51.1362 9.82457 50.5993 9.82457C50.0325 9.82457 49.5829 9.94815 49.2505 10.1953C48.9224 10.4425 48.7008 10.7344 48.5858 11.071L46.4252 10.7642C46.5957 10.1676 46.877 9.66903 47.269 9.26847C47.661 8.86364 48.1404 8.56108 48.7072 8.3608C49.274 8.15625 49.9004 8.05398 50.5865 8.05398C51.0595 8.05398 51.5304 8.10938 51.9991 8.22017C52.4679 8.33097 52.8961 8.5142 53.2839 8.76989C53.6717 9.02131 53.9828 9.36435 54.2172 9.79901C54.4558 10.2337 54.5751 10.777 54.5751 11.429V18H52.3507V16.6513H52.274C52.1333 16.924 51.9352 17.1797 51.6795 17.4183C51.4281 17.6527 51.1106 17.8423 50.7271 17.9872C50.3478 18.1278 49.9025 18.1982 49.3912 18.1982ZM49.992 16.4979C50.4565 16.4979 50.8592 16.4062 51.2001 16.223C51.541 16.0355 51.8031 15.7884 51.9863 15.4815C52.1738 15.1747 52.2676 14.8402 52.2676 14.478V13.321C52.1951 13.3807 52.0716 13.4361 51.8968 13.4872C51.7264 13.5384 51.5346 13.5831 51.3216 13.6214C51.1085 13.6598 50.8975 13.6939 50.6887 13.7237C50.4799 13.7536 50.2988 13.7791 50.1454 13.8004C49.8002 13.8473 49.4913 13.924 49.2186 14.0305C48.9458 14.1371 48.7306 14.2862 48.573 14.478C48.4153 14.6655 48.3365 14.9084 48.3365 15.2067C48.3365 15.6328 48.492 15.9545 48.8031 16.1719C49.1142 16.3892 49.5105 16.4979 49.992 16.4979ZM59.2157 12.2472V18H56.9018V8.18182H59.1135V9.85014H59.2285C59.4544 9.30043 59.8145 8.86364 60.3088 8.53977C60.8074 8.21591 61.4231 8.05398 62.1561 8.05398C62.8336 8.05398 63.4238 8.19886 63.9267 8.48864C64.4338 8.77841 64.8258 9.19815 65.1028 9.74787C65.3841 10.2976 65.5225 10.9645 65.5183 11.7486V18H63.2044V12.1065C63.2044 11.4503 63.0339 10.9368 62.693 10.5661C62.3564 10.1953 61.8897 10.0099 61.2931 10.0099C60.8883 10.0099 60.5282 10.0994 60.2129 10.2784C59.9018 10.4531 59.6568 10.7067 59.4778 11.0391C59.3031 11.3714 59.2157 11.7741 59.2157 12.2472ZM72.1948 18V16.5234L78.9064 6.89702H72.1564V4.90909H81.8468V6.38565L75.1415 16.0121H81.8851V18H72.1948ZM84.1799 18V4.90909H92.5662V6.89702H86.5513V10.451H91.9909V12.4389H86.5513V18H84.1799ZM110.397 9.32599H108.006C107.938 8.93395 107.812 8.58665 107.629 8.28409C107.446 7.97727 107.218 7.71733 106.945 7.50426C106.672 7.29119 106.361 7.13139 106.012 7.02486C105.667 6.91406 105.294 6.85866 104.893 6.85866C104.182 6.85866 103.551 7.03764 103.001 7.3956C102.452 7.74929 102.021 8.26918 101.71 8.95526C101.399 9.63707 101.243 10.4702 101.243 11.4545C101.243 12.456 101.399 13.2997 101.71 13.9858C102.025 14.6676 102.456 15.1832 103.001 15.5327C103.551 15.8778 104.18 16.0504 104.887 16.0504C105.279 16.0504 105.645 15.9993 105.986 15.897C106.331 15.7905 106.64 15.6349 106.913 15.4304C107.19 15.2259 107.422 14.9744 107.61 14.6761C107.802 14.3778 107.934 14.0369 108.006 13.6534L110.397 13.6662C110.307 14.2884 110.113 14.8722 109.815 15.4176C109.521 15.9631 109.135 16.4446 108.658 16.8622C108.181 17.2756 107.623 17.5994 106.983 17.8338C106.344 18.0639 105.635 18.179 104.855 18.179C103.704 18.179 102.677 17.9126 101.774 17.38C100.871 16.8473 100.159 16.0781 99.639 15.0724C99.1191 14.0668 98.8592 12.8608 98.8592 11.4545C98.8592 10.044 99.1213 8.83807 99.6454 7.83665C100.17 6.83097 100.883 6.06179 101.787 5.52912C102.69 4.99645 103.713 4.73011 104.855 4.73011C105.584 4.73011 106.261 4.83239 106.888 5.03693C107.514 5.24148 108.072 5.5419 108.562 5.93821C109.052 6.33026 109.455 6.81179 109.77 7.38281C110.09 7.94957 110.299 8.5973 110.397 9.32599ZM115.292 18.1982C114.669 18.1982 114.109 18.0874 113.61 17.8658C113.116 17.6399 112.724 17.3075 112.434 16.8686C112.149 16.4297 112.006 15.8885 112.006 15.245C112.006 14.6911 112.108 14.233 112.313 13.8707C112.517 13.5085 112.797 13.2188 113.15 13.0014C113.504 12.7841 113.902 12.62 114.346 12.5092C114.793 12.3942 115.255 12.3111 115.733 12.2599C116.308 12.2003 116.775 12.147 117.132 12.1001C117.49 12.049 117.75 11.9723 117.912 11.87C118.078 11.7635 118.162 11.5994 118.162 11.3778V11.3395C118.162 10.858 118.019 10.4851 117.733 10.2209C117.448 9.95668 117.037 9.82457 116.5 9.82457C115.933 9.82457 115.483 9.94815 115.151 10.1953C114.823 10.4425 114.601 10.7344 114.486 11.071L112.326 10.7642C112.496 10.1676 112.777 9.66903 113.169 9.26847C113.561 8.86364 114.041 8.56108 114.608 8.3608C115.174 8.15625 115.801 8.05398 116.487 8.05398C116.96 8.05398 117.431 8.10938 117.9 8.22017C118.368 8.33097 118.797 8.5142 119.184 8.76989C119.572 9.02131 119.883 9.36435 120.118 9.79901C120.356 10.2337 120.475 10.777 120.475 11.429V18H118.251V16.6513H118.174C118.034 16.924 117.836 17.1797 117.58 17.4183C117.328 17.6527 117.011 17.8423 116.627 17.9872C116.248 18.1278 115.803 18.1982 115.292 18.1982ZM115.892 16.4979C116.357 16.4979 116.76 16.4062 117.1 16.223C117.441 16.0355 117.703 15.7884 117.887 15.4815C118.074 15.1747 118.168 14.8402 118.168 14.478V13.321C118.096 13.3807 117.972 13.4361 117.797 13.4872C117.627 13.5384 117.435 13.5831 117.222 13.6214C117.009 13.6598 116.798 13.6939 116.589 13.7237C116.38 13.7536 116.199 13.7791 116.046 13.8004C115.701 13.8473 115.392 13.924 115.119 14.0305C114.846 14.1371 114.631 14.2862 114.473 14.478C114.316 14.6655 114.237 14.9084 114.237 15.2067C114.237 15.6328 114.392 15.9545 114.703 16.1719C115.015 16.3892 115.411 16.4979 115.892 16.4979ZM125.116 12.2472V18H122.802V8.18182H125.014V9.85014H125.129C125.355 9.30043 125.715 8.86364 126.209 8.53977C126.708 8.21591 127.324 8.05398 128.056 8.05398C128.734 8.05398 129.324 8.19886 129.827 8.48864C130.334 8.77841 130.726 9.19815 131.003 9.74787C131.284 10.2976 131.423 10.9645 131.419 11.7486V18H129.105V12.1065C129.105 11.4503 128.934 10.9368 128.593 10.5661C128.257 10.1953 127.79 10.0099 127.194 10.0099C126.789 10.0099 126.429 10.0994 126.113 10.2784C125.802 10.4531 125.557 10.7067 125.378 11.0391C125.203 11.3714 125.116 11.7741 125.116 12.2472ZM136.596 18.1982C135.974 18.1982 135.414 18.0874 134.915 17.8658C134.421 17.6399 134.029 17.3075 133.739 16.8686C133.453 16.4297 133.311 15.8885 133.311 15.245C133.311 14.6911 133.413 14.233 133.618 13.8707C133.822 13.5085 134.101 13.2188 134.455 13.0014C134.809 12.7841 135.207 12.62 135.65 12.5092C136.098 12.3942 136.56 12.3111 137.037 12.2599C137.613 12.2003 138.079 12.147 138.437 12.1001C138.795 12.049 139.055 11.9723 139.217 11.87C139.383 11.7635 139.466 11.5994 139.466 11.3778V11.3395C139.466 10.858 139.324 10.4851 139.038 10.2209C138.752 9.95668 138.341 9.82457 137.804 9.82457C137.238 9.82457 136.788 9.94815 136.456 10.1953C136.127 10.4425 135.906 10.7344 135.791 11.071L133.63 10.7642C133.801 10.1676 134.082 9.66903 134.474 9.26847C134.866 8.86364 135.346 8.56108 135.912 8.3608C136.479 8.15625 137.105 8.05398 137.792 8.05398C138.265 8.05398 138.735 8.10938 139.204 8.22017C139.673 8.33097 140.101 8.5142 140.489 8.76989C140.877 9.02131 141.188 9.36435 141.422 9.79901C141.661 10.2337 141.78 10.777 141.78 11.429V18H139.556V16.6513H139.479C139.338 16.924 139.14 17.1797 138.885 17.4183C138.633 17.6527 138.316 17.8423 137.932 17.9872C137.553 18.1278 137.108 18.1982 136.596 18.1982ZM137.197 16.4979C137.662 16.4979 138.064 16.4062 138.405 16.223C138.746 16.0355 139.008 15.7884 139.191 15.4815C139.379 15.1747 139.473 14.8402 139.473 14.478V13.321C139.4 13.3807 139.277 13.4361 139.102 13.4872C138.931 13.5384 138.74 13.5831 138.527 13.6214C138.314 13.6598 138.103 13.6939 137.894 13.7237C137.685 13.7536 137.504 13.7791 137.35 13.8004C137.005 13.8473 136.696 13.924 136.424 14.0305C136.151 14.1371 135.936 14.2862 135.778 14.478C135.62 14.6655 135.542 14.9084 135.542 15.2067C135.542 15.6328 135.697 15.9545 136.008 16.1719C136.319 16.3892 136.716 16.4979 137.197 16.4979ZM147.75 18.1726C146.979 18.1726 146.289 17.9744 145.679 17.5781C145.07 17.1818 144.588 16.6065 144.235 15.8523C143.881 15.098 143.704 14.1818 143.704 13.1037C143.704 12.0128 143.883 11.0923 144.241 10.3423C144.603 9.58807 145.091 9.01918 145.705 8.63565C146.319 8.24787 147.002 8.05398 147.757 8.05398C148.332 8.05398 148.805 8.15199 149.176 8.34801C149.547 8.53977 149.841 8.77202 150.058 9.04474C150.275 9.31321 150.444 9.56676 150.563 9.8054H150.659V4.90909H152.979V18H150.703V16.4531H150.563C150.444 16.6918 150.271 16.9453 150.045 17.2138C149.819 17.478 149.521 17.7038 149.15 17.8913C148.779 18.0788 148.313 18.1726 147.75 18.1726ZM148.396 16.2741C148.886 16.2741 149.304 16.142 149.649 15.8778C149.994 15.6094 150.256 15.2365 150.435 14.7592C150.614 14.282 150.703 13.7259 150.703 13.0909C150.703 12.456 150.614 11.9041 150.435 11.4354C150.26 10.9666 150 10.6023 149.655 10.3423C149.314 10.0824 148.895 9.95241 148.396 9.95241C147.88 9.95241 147.45 10.0866 147.105 10.3551C146.76 10.6236 146.5 10.9943 146.325 11.4673C146.15 11.9403 146.063 12.4815 146.063 13.0909C146.063 13.7045 146.15 14.2521 146.325 14.7337C146.504 15.2109 146.766 15.5881 147.111 15.8651C147.461 16.1378 147.889 16.2741 148.396 16.2741ZM158.27 18.1982C157.648 18.1982 157.088 18.0874 156.589 17.8658C156.095 17.6399 155.703 17.3075 155.413 16.8686C155.127 16.4297 154.985 15.8885 154.985 15.245C154.985 14.6911 155.087 14.233 155.291 13.8707C155.496 13.5085 155.775 13.2188 156.129 13.0014C156.482 12.7841 156.881 12.62 157.324 12.5092C157.771 12.3942 158.234 12.3111 158.711 12.2599C159.286 12.2003 159.753 12.147 160.111 12.1001C160.469 12.049 160.729 11.9723 160.891 11.87C161.057 11.7635 161.14 11.5994 161.14 11.3778V11.3395C161.14 10.858 160.997 10.4851 160.712 10.2209C160.426 9.95668 160.015 9.82457 159.478 9.82457C158.911 9.82457 158.462 9.94815 158.129 10.1953C157.801 10.4425 157.58 10.7344 157.465 11.071L155.304 10.7642C155.475 10.1676 155.756 9.66903 156.148 9.26847C156.54 8.86364 157.019 8.56108 157.586 8.3608C158.153 8.15625 158.779 8.05398 159.465 8.05398C159.938 8.05398 160.409 8.10938 160.878 8.22017C161.347 8.33097 161.775 8.5142 162.163 8.76989C162.551 9.02131 162.862 9.36435 163.096 9.79901C163.335 10.2337 163.454 10.777 163.454 11.429V18H161.23V16.6513H161.153C161.012 16.924 160.814 17.1797 160.558 17.4183C160.307 17.6527 159.99 17.8423 159.606 17.9872C159.227 18.1278 158.781 18.1982 158.27 18.1982ZM158.871 16.4979C159.335 16.4979 159.738 16.4062 160.079 16.223C160.42 16.0355 160.682 15.7884 160.865 15.4815C161.053 15.1747 161.146 14.8402 161.146 14.478V13.321C161.074 13.3807 160.95 13.4361 160.776 13.4872C160.605 13.5384 160.414 13.5831 160.2 13.6214C159.987 13.6598 159.776 13.6939 159.568 13.7237C159.359 13.7536 159.178 13.7791 159.024 13.8004C158.679 13.8473 158.37 13.924 158.097 14.0305C157.825 14.1371 157.61 14.2862 157.452 14.478C157.294 14.6655 157.215 14.9084 157.215 15.2067C157.215 15.6328 157.371 15.9545 157.682 16.1719C157.993 16.3892 158.389 16.4979 158.871 16.4979ZM172.559 12.2472V18H170.246V4.90909H172.508V9.85014H172.623C172.854 9.29616 173.209 8.85937 173.691 8.53977C174.177 8.21591 174.795 8.05398 175.545 8.05398C176.226 8.05398 176.821 8.19673 177.328 8.48224C177.835 8.76776 178.227 9.18537 178.504 9.73509C178.785 10.2848 178.926 10.956 178.926 11.7486V18H176.612V12.1065C176.612 11.446 176.442 10.9325 176.101 10.5661C175.764 10.1953 175.291 10.0099 174.682 10.0099C174.273 10.0099 173.906 10.0994 173.582 10.2784C173.263 10.4531 173.011 10.7067 172.828 11.0391C172.649 11.3714 172.559 11.7741 172.559 12.2472ZM185.631 18.1918C184.647 18.1918 183.797 17.9872 183.081 17.5781C182.369 17.1648 181.822 16.581 181.438 15.8267C181.055 15.0682 180.863 14.1754 180.863 13.1484C180.863 12.1385 181.055 11.2521 181.438 10.4893C181.826 9.7223 182.367 9.12571 183.062 8.69957C183.756 8.26918 184.572 8.05398 185.51 8.05398C186.115 8.05398 186.686 8.15199 187.223 8.34801C187.764 8.53977 188.241 8.83807 188.655 9.2429C189.072 9.64773 189.4 10.1634 189.639 10.7898C189.878 11.4119 189.997 12.1534 189.997 13.0142V13.7237H181.949V12.1641H187.779C187.775 11.7209 187.679 11.3267 187.491 10.9815C187.304 10.6321 187.042 10.3572 186.705 10.157C186.373 9.95668 185.985 9.85653 185.542 9.85653C185.069 9.85653 184.653 9.97159 184.295 10.2017C183.937 10.4276 183.658 10.7259 183.458 11.0966C183.262 11.4631 183.162 11.8658 183.157 12.3047V13.6662C183.157 14.2372 183.262 14.7273 183.471 15.1364C183.68 15.5412 183.971 15.8523 184.346 16.0696C184.721 16.2827 185.16 16.3892 185.663 16.3892C186 16.3892 186.305 16.3423 186.577 16.2486C186.85 16.1506 187.086 16.0078 187.287 15.8203C187.487 15.6328 187.638 15.4006 187.741 15.1236L189.901 15.3665C189.765 15.9375 189.505 16.4361 189.121 16.8622C188.742 17.2841 188.256 17.6122 187.664 17.8466C187.072 18.0767 186.394 18.1918 185.631 18.1918ZM194.268 4.90909V18H191.955V4.90909H194.268ZM196.648 21.6818V8.18182H198.923V9.8054H199.058C199.177 9.56676 199.345 9.31321 199.563 9.04474C199.78 8.77202 200.074 8.53977 200.445 8.34801C200.816 8.15199 201.289 8.05398 201.864 8.05398C202.622 8.05398 203.306 8.24787 203.916 8.63565C204.529 9.01918 205.015 9.58807 205.373 10.3423C205.735 11.0923 205.916 12.0128 205.916 13.1037C205.916 14.1818 205.74 15.098 205.386 15.8523C205.032 16.6065 204.551 17.1818 203.941 17.5781C203.332 17.9744 202.642 18.1726 201.87 18.1726C201.308 18.1726 200.841 18.0788 200.47 17.8913C200.1 17.7038 199.801 17.478 199.575 17.2138C199.354 16.9453 199.181 16.6918 199.058 16.4531H198.962V21.6818H196.648ZM198.917 13.0909C198.917 13.7259 199.007 14.282 199.186 14.7592C199.369 15.2365 199.631 15.6094 199.972 15.8778C200.317 16.142 200.735 16.2741 201.225 16.2741C201.736 16.2741 202.164 16.1378 202.509 15.8651C202.855 15.5881 203.115 15.2109 203.289 14.7337C203.468 14.2521 203.558 13.7045 203.558 13.0909C203.558 12.4815 203.47 11.9403 203.296 11.4673C203.121 10.9943 202.861 10.6236 202.516 10.3551C202.171 10.0866 201.74 9.95241 201.225 9.95241C200.73 9.95241 200.311 10.0824 199.965 10.3423C199.62 10.6023 199.358 10.9666 199.179 11.4354C199.004 11.9041 198.917 12.456 198.917 13.0909ZM214.389 18L211.615 8.18182H213.974L215.699 15.0852H215.789L217.553 8.18182H219.886L221.65 15.0469H221.746L223.447 8.18182H225.812L223.031 18H220.621L218.78 11.3651H218.646L216.805 18H214.389ZM227.427 18V8.18182H229.741V18H227.427ZM228.591 6.78835C228.224 6.78835 227.909 6.6669 227.645 6.42401C227.38 6.17685 227.248 5.88068 227.248 5.53551C227.248 5.18608 227.38 4.88991 227.645 4.64702C227.909 4.39986 228.224 4.27628 228.591 4.27628C228.961 4.27628 229.277 4.39986 229.537 4.64702C229.801 4.88991 229.933 5.18608 229.933 5.53551C229.933 5.88068 229.801 6.17685 229.537 6.42401C229.277 6.6669 228.961 6.78835 228.591 6.78835ZM237.023 8.18182V9.97159H231.379V8.18182H237.023ZM232.773 5.82955H235.086V15.0469C235.086 15.358 235.133 15.5966 235.227 15.7628C235.325 15.9247 235.453 16.0355 235.611 16.0952C235.768 16.1548 235.943 16.1847 236.135 16.1847C236.28 16.1847 236.412 16.174 236.531 16.1527C236.655 16.1314 236.748 16.1122 236.812 16.0952L237.202 17.9041C237.079 17.9467 236.902 17.9936 236.672 18.0447C236.446 18.0959 236.169 18.1257 235.841 18.1342C235.261 18.1513 234.739 18.0639 234.275 17.8722C233.81 17.6761 233.442 17.3736 233.169 16.9645C232.9 16.5554 232.768 16.044 232.773 15.4304V5.82955ZM241.483 12.2472V18H239.169V4.90909H241.432V9.85014H241.547C241.777 9.29616 242.133 8.85937 242.615 8.53977C243.1 8.21591 243.718 8.05398 244.468 8.05398C245.15 8.05398 245.745 8.19673 246.252 8.48224C246.759 8.76776 247.151 9.18537 247.428 9.73509C247.709 10.2848 247.85 10.956 247.85 11.7486V18H245.536V12.1065C245.536 11.446 245.365 10.9325 245.025 10.5661C244.688 10.1953 244.215 10.0099 243.605 10.0099C243.196 10.0099 242.83 10.0994 242.506 10.2784C242.186 10.4531 241.935 10.7067 241.752 11.0391C241.573 11.3714 241.483 11.7741 241.483 12.2472ZM263.443 8.18182L259.947 18H257.39L253.893 8.18182H256.361L258.617 15.4751H258.719L260.982 8.18182H263.443ZM265.044 18V8.18182H267.358V18H265.044ZM266.208 6.78835C265.841 6.78835 265.526 6.6669 265.262 6.42401C264.998 6.17685 264.865 5.88068 264.865 5.53551C264.865 5.18608 264.998 4.88991 265.262 4.64702C265.526 4.39986 265.841 4.27628 266.208 4.27628C266.578 4.27628 266.894 4.39986 267.154 4.64702C267.418 4.88991 267.55 5.18608 267.55 5.53551C267.55 5.88068 267.418 6.17685 267.154 6.42401C266.894 6.6669 266.578 6.78835 266.208 6.78835ZM277.498 10.777L275.388 11.0071C275.329 10.794 275.224 10.5938 275.075 10.4062C274.93 10.2188 274.734 10.0675 274.487 9.95241C274.24 9.83736 273.937 9.77983 273.579 9.77983C273.098 9.77983 272.693 9.88423 272.365 10.093C272.041 10.3018 271.881 10.5724 271.885 10.9048C271.881 11.1903 271.986 11.4226 272.199 11.6016C272.416 11.7805 272.774 11.9276 273.273 12.0426L274.947 12.4006C275.876 12.6009 276.567 12.9183 277.018 13.353C277.474 13.7876 277.704 14.3565 277.709 15.0597C277.704 15.6776 277.523 16.223 277.165 16.696C276.812 17.1648 276.319 17.5312 275.689 17.7955C275.058 18.0597 274.334 18.1918 273.515 18.1918C272.314 18.1918 271.346 17.9403 270.613 17.4375C269.881 16.9304 269.444 16.2251 269.303 15.3217L271.559 15.1044C271.662 15.5476 271.879 15.8821 272.211 16.108C272.544 16.3338 272.976 16.4467 273.509 16.4467C274.059 16.4467 274.5 16.3338 274.832 16.108C275.169 15.8821 275.337 15.603 275.337 15.2706C275.337 14.9893 275.229 14.7571 275.011 14.5739C274.798 14.3906 274.466 14.25 274.014 14.152L272.339 13.8004C271.398 13.6044 270.701 13.2741 270.249 12.8097C269.797 12.3409 269.574 11.7486 269.578 11.0327C269.574 10.4276 269.738 9.90341 270.07 9.46023C270.407 9.01278 270.873 8.66761 271.47 8.42472C272.071 8.17756 272.763 8.05398 273.547 8.05398C274.698 8.05398 275.604 8.29901 276.264 8.78906C276.929 9.27912 277.34 9.94176 277.498 10.777ZM282.442 18.1982C281.82 18.1982 281.259 18.0874 280.761 17.8658C280.267 17.6399 279.874 17.3075 279.585 16.8686C279.299 16.4297 279.156 15.8885 279.156 15.245C279.156 14.6911 279.259 14.233 279.463 13.8707C279.668 13.5085 279.947 13.2188 280.301 13.0014C280.654 12.7841 281.053 12.62 281.496 12.5092C281.943 12.3942 282.406 12.3111 282.883 12.2599C283.458 12.2003 283.925 12.147 284.283 12.1001C284.641 12.049 284.901 11.9723 285.063 11.87C285.229 11.7635 285.312 11.5994 285.312 11.3778V11.3395C285.312 10.858 285.169 10.4851 284.884 10.2209C284.598 9.95668 284.187 9.82457 283.65 9.82457C283.083 9.82457 282.634 9.94815 282.301 10.1953C281.973 10.4425 281.752 10.7344 281.637 11.071L279.476 10.7642C279.646 10.1676 279.928 9.66903 280.32 9.26847C280.712 8.86364 281.191 8.56108 281.758 8.3608C282.325 8.15625 282.951 8.05398 283.637 8.05398C284.11 8.05398 284.581 8.10938 285.05 8.22017C285.519 8.33097 285.947 8.5142 286.335 8.76989C286.722 9.02131 287.034 9.36435 287.268 9.79901C287.507 10.2337 287.626 10.777 287.626 11.429V18H285.401V16.6513H285.325C285.184 16.924 284.986 17.1797 284.73 17.4183C284.479 17.6527 284.161 17.8423 283.778 17.9872C283.399 18.1278 282.953 18.1982 282.442 18.1982ZM283.043 16.4979C283.507 16.4979 283.91 16.4062 284.251 16.223C284.592 16.0355 284.854 15.7884 285.037 15.4815C285.225 15.1747 285.318 14.8402 285.318 14.478V13.321C285.246 13.3807 285.122 13.4361 284.948 13.4872C284.777 13.5384 284.585 13.5831 284.372 13.6214C284.159 13.6598 283.948 13.6939 283.74 13.7237C283.531 13.7536 283.35 13.7791 283.196 13.8004C282.851 13.8473 282.542 13.924 282.269 14.0305C281.997 14.1371 281.781 14.2862 281.624 14.478C281.466 14.6655 281.387 14.9084 281.387 15.2067C281.387 15.6328 281.543 15.9545 281.854 16.1719C282.165 16.3892 282.561 16.4979 283.043 16.4979ZM294.417 18V8.18182H296.661V9.81818H296.763C296.942 9.25142 297.249 8.81463 297.684 8.50781C298.123 8.19673 298.623 8.04119 299.186 8.04119C299.314 8.04119 299.456 8.04758 299.614 8.06037C299.776 8.06889 299.91 8.08381 300.017 8.10511V10.2337C299.919 10.1996 299.763 10.1697 299.55 10.1442C299.341 10.1143 299.139 10.0994 298.943 10.0994C298.521 10.0994 298.142 10.1911 297.805 10.3743C297.473 10.5533 297.211 10.8026 297.019 11.1222C296.827 11.4418 296.731 11.8104 296.731 12.228V18H294.417ZM305.496 18.1918C304.512 18.1918 303.662 17.9872 302.946 17.5781C302.234 17.1648 301.687 16.581 301.303 15.8267C300.92 15.0682 300.728 14.1754 300.728 13.1484C300.728 12.1385 300.92 11.2521 301.303 10.4893C301.691 9.7223 302.232 9.12571 302.927 8.69957C303.621 8.26918 304.438 8.05398 305.375 8.05398C305.98 8.05398 306.551 8.15199 307.088 8.34801C307.629 8.53977 308.107 8.83807 308.52 9.2429C308.938 9.64773 309.266 10.1634 309.504 10.7898C309.743 11.4119 309.862 12.1534 309.862 13.0142V13.7237H301.815V12.1641H307.644C307.64 11.7209 307.544 11.3267 307.357 10.9815C307.169 10.6321 306.907 10.3572 306.57 10.157C306.238 9.95668 305.85 9.85653 305.407 9.85653C304.934 9.85653 304.518 9.97159 304.161 10.2017C303.803 10.4276 303.523 10.7259 303.323 11.0966C303.127 11.4631 303.027 11.8658 303.023 12.3047V13.6662C303.023 14.2372 303.127 14.7273 303.336 15.1364C303.545 15.5412 303.837 15.8523 304.212 16.0696C304.587 16.2827 305.026 16.3892 305.528 16.3892C305.865 16.3892 306.17 16.3423 306.442 16.2486C306.715 16.1506 306.952 16.0078 307.152 15.8203C307.352 15.6328 307.504 15.4006 307.606 15.1236L309.766 15.3665C309.63 15.9375 309.37 16.4361 308.987 16.8622C308.607 17.2841 308.121 17.6122 307.529 17.8466C306.937 18.0767 306.259 18.1918 305.496 18.1918ZM316.793 8.18182V9.97159H310.989V8.18182H316.793ZM312.44 18V7.25497C312.44 6.59446 312.576 6.04474 312.849 5.60582C313.126 5.1669 313.497 4.83878 313.961 4.62145C314.426 4.40412 314.941 4.29545 315.508 4.29545C315.909 4.29545 316.264 4.32741 316.575 4.39134C316.887 4.45526 317.117 4.51278 317.266 4.56392L316.806 6.35369C316.708 6.32386 316.584 6.29403 316.435 6.2642C316.286 6.23011 316.119 6.21307 315.936 6.21307C315.506 6.21307 315.201 6.31747 315.022 6.52628C314.847 6.73082 314.76 7.02486 314.76 7.40838V18H312.44ZM324.863 13.8707V8.18182H327.177V18H324.933V16.255H324.831C324.609 16.8047 324.245 17.2543 323.738 17.6037C323.235 17.9531 322.615 18.1278 321.878 18.1278C321.234 18.1278 320.665 17.9851 320.171 17.6996C319.681 17.4098 319.297 16.9901 319.02 16.4403C318.743 15.8864 318.605 15.2173 318.605 14.4332V8.18182H320.919V14.0753C320.919 14.6974 321.089 15.1918 321.43 15.5582C321.771 15.9247 322.219 16.108 322.773 16.108C323.113 16.108 323.444 16.0249 323.763 15.8587C324.083 15.6925 324.345 15.4453 324.55 15.1172C324.758 14.7848 324.863 14.3693 324.863 13.8707ZM337.316 10.777L335.207 11.0071C335.147 10.794 335.043 10.5938 334.893 10.4062C334.749 10.2188 334.553 10.0675 334.305 9.95241C334.058 9.83736 333.756 9.77983 333.398 9.77983C332.916 9.77983 332.511 9.88423 332.183 10.093C331.859 10.3018 331.7 10.5724 331.704 10.9048C331.7 11.1903 331.804 11.4226 332.017 11.6016C332.234 11.7805 332.592 11.9276 333.091 12.0426L334.766 12.4006C335.695 12.6009 336.385 12.9183 336.837 13.353C337.293 13.7876 337.523 14.3565 337.527 15.0597C337.523 15.6776 337.342 16.223 336.984 16.696C336.63 17.1648 336.138 17.5312 335.507 17.7955C334.876 18.0597 334.152 18.1918 333.334 18.1918C332.132 18.1918 331.165 17.9403 330.432 17.4375C329.699 16.9304 329.262 16.2251 329.121 15.3217L331.378 15.1044C331.48 15.5476 331.697 15.8821 332.03 16.108C332.362 16.3338 332.795 16.4467 333.327 16.4467C333.877 16.4467 334.318 16.3338 334.651 16.108C334.987 15.8821 335.156 15.603 335.156 15.2706C335.156 14.9893 335.047 14.7571 334.83 14.5739C334.616 14.3906 334.284 14.25 333.832 14.152L332.158 13.8004C331.216 13.6044 330.519 13.2741 330.067 12.8097C329.616 12.3409 329.392 11.7486 329.396 11.0327C329.392 10.4276 329.556 9.90341 329.888 9.46023C330.225 9.01278 330.692 8.66761 331.288 8.42472C331.889 8.17756 332.582 8.05398 333.366 8.05398C334.516 8.05398 335.422 8.29901 336.082 8.78906C336.747 9.27912 337.158 9.94176 337.316 10.777ZM342.26 18.1982C341.638 18.1982 341.078 18.0874 340.579 17.8658C340.085 17.6399 339.693 17.3075 339.403 16.8686C339.118 16.4297 338.975 15.8885 338.975 15.245C338.975 14.6911 339.077 14.233 339.282 13.8707C339.486 13.5085 339.765 13.2188 340.119 13.0014C340.473 12.7841 340.871 12.62 341.314 12.5092C341.762 12.3942 342.224 12.3111 342.701 12.2599C343.277 12.2003 343.743 12.147 344.101 12.1001C344.459 12.049 344.719 11.9723 344.881 11.87C345.047 11.7635 345.13 11.5994 345.13 11.3778V11.3395C345.13 10.858 344.988 10.4851 344.702 10.2209C344.417 9.95668 344.005 9.82457 343.468 9.82457C342.902 9.82457 342.452 9.94815 342.12 10.1953C341.792 10.4425 341.57 10.7344 341.455 11.071L339.294 10.7642C339.465 10.1676 339.746 9.66903 340.138 9.26847C340.53 8.86364 341.01 8.56108 341.576 8.3608C342.143 8.15625 342.77 8.05398 343.456 8.05398C343.929 8.05398 344.4 8.10938 344.868 8.22017C345.337 8.33097 345.765 8.5142 346.153 8.76989C346.541 9.02131 346.852 9.36435 347.086 9.79901C347.325 10.2337 347.444 10.777 347.444 11.429V18H345.22V16.6513H345.143C345.002 16.924 344.804 17.1797 344.549 17.4183C344.297 17.6527 343.98 17.8423 343.596 17.9872C343.217 18.1278 342.772 18.1982 342.26 18.1982ZM342.861 16.4979C343.326 16.4979 343.728 16.4062 344.069 16.223C344.41 16.0355 344.672 15.7884 344.855 15.4815C345.043 15.1747 345.137 14.8402 345.137 14.478V13.321C345.064 13.3807 344.941 13.4361 344.766 13.4872C344.596 13.5384 344.404 13.5831 344.191 13.6214C343.978 13.6598 343.767 13.6939 343.558 13.7237C343.349 13.7536 343.168 13.7791 343.015 13.8004C342.669 13.8473 342.36 13.924 342.088 14.0305C341.815 14.1371 341.6 14.2862 341.442 14.478C341.284 14.6655 341.206 14.9084 341.206 15.2067C341.206 15.6328 341.361 15.9545 341.672 16.1719C341.983 16.3892 342.38 16.4979 342.861 16.4979ZM352.085 4.90909V18H349.771V4.90909H352.085ZM362.224 10.777L360.115 11.0071C360.055 10.794 359.951 10.5938 359.802 10.4062C359.657 10.2188 359.461 10.0675 359.214 9.95241C358.966 9.83736 358.664 9.77983 358.306 9.77983C357.824 9.77983 357.42 9.88423 357.091 10.093C356.768 10.3018 356.608 10.5724 356.612 10.9048C356.608 11.1903 356.712 11.4226 356.925 11.6016C357.143 11.7805 357.501 11.9276 357.999 12.0426L359.674 12.4006C360.603 12.6009 361.293 12.9183 361.745 13.353C362.201 13.7876 362.431 14.3565 362.435 15.0597C362.431 15.6776 362.25 16.223 361.892 16.696C361.538 17.1648 361.046 17.5312 360.415 17.7955C359.785 18.0597 359.06 18.1918 358.242 18.1918C357.04 18.1918 356.073 17.9403 355.34 17.4375C354.607 16.9304 354.17 16.2251 354.03 15.3217L356.286 15.1044C356.388 15.5476 356.606 15.8821 356.938 16.108C357.27 16.3338 357.703 16.4467 358.236 16.4467C358.785 16.4467 359.226 16.3338 359.559 16.108C359.895 15.8821 360.064 15.603 360.064 15.2706C360.064 14.9893 359.955 14.7571 359.738 14.5739C359.525 14.3906 359.192 14.25 358.741 14.152L357.066 13.8004C356.124 13.6044 355.427 13.2741 354.976 12.8097C354.524 12.3409 354.3 11.7486 354.305 11.0327C354.3 10.4276 354.464 9.90341 354.797 9.46023C355.133 9.01278 355.6 8.66761 356.197 8.42472C356.797 8.17756 357.49 8.05398 358.274 8.05398C359.425 8.05398 360.33 8.29901 360.991 8.78906C361.655 9.27912 362.067 9.94176 362.224 10.777ZM366.555 14.152V13.9858C366.559 13.2145 366.632 12.6009 366.772 12.1449C366.917 11.6889 367.122 11.3224 367.386 11.0455C367.65 10.7642 367.972 10.5064 368.351 10.272C368.611 10.1101 368.843 9.93324 369.048 9.74148C369.257 9.54545 369.421 9.32812 369.54 9.08949C369.659 8.84659 369.719 8.57599 369.719 8.2777C369.719 7.94105 369.64 7.64915 369.482 7.40199C369.325 7.15483 369.112 6.96307 368.843 6.8267C368.579 6.69034 368.283 6.62216 367.955 6.62216C367.652 6.62216 367.365 6.68821 367.092 6.82031C366.823 6.94815 366.6 7.14418 366.421 7.40838C366.246 7.66832 366.148 7.99858 366.127 8.39915H363.851C363.872 7.58949 364.068 6.91193 364.439 6.36648C364.814 5.82102 365.308 5.41193 365.922 5.1392C366.54 4.86648 367.222 4.73011 367.968 4.73011C368.781 4.73011 369.497 4.87287 370.115 5.15838C370.737 5.44389 371.221 5.85085 371.566 6.37926C371.916 6.90341 372.09 7.52557 372.09 8.24574C372.09 8.73153 372.012 9.16619 371.854 9.54972C371.7 9.93324 371.481 10.2741 371.195 10.5724C370.91 10.8707 370.571 11.1371 370.179 11.3714C369.834 11.5845 369.551 11.8061 369.329 12.0362C369.112 12.2663 368.95 12.5369 368.843 12.848C368.741 13.1548 368.688 13.5341 368.683 13.9858V14.152H366.555ZM367.667 18.1406C367.284 18.1406 366.953 18.0043 366.676 17.7315C366.399 17.4588 366.261 17.1264 366.261 16.7344C366.261 16.3509 366.399 16.0227 366.676 15.75C366.953 15.4773 367.284 15.3409 367.667 15.3409C368.046 15.3409 368.374 15.4773 368.651 15.75C368.933 16.0227 369.073 16.3509 369.073 16.7344C369.073 16.9943 369.007 17.2308 368.875 17.4439C368.747 17.657 368.577 17.8274 368.364 17.9553C368.155 18.0788 367.923 18.1406 367.667 18.1406Z" fill="#1B1139"/>
<rect opacity="0.8" y="7.5" width="18" height="3" rx="1.5" fill="#1B1139"/>
<rect opacity="0.8" x="10.5" width="18" height="3" rx="1.5" transform="rotate(90 10.5 0)" fill="#1B1139"/>
</svg>
