<svg width="180" height="24" viewBox="0 0 180 24" fill="none" xmlns="http://www.w3.org/2000/svg">
<path d="M11.9998 1.99976C6.47676 1.99976 1.99976 6.47676 1.99976 11.9998C1.99976 17.0128 5.69276 21.1528 10.5048 21.8758V14.6498H8.03076V12.0208H10.5048V10.2718C10.5048 7.37576 11.9158 6.10476 14.3228 6.10476C15.4758 6.10476 16.0848 6.18976 16.3738 6.22876V8.52276H14.7318C13.7098 8.52276 13.3528 9.49176 13.3528 10.5838V12.0208H16.3478L15.9418 14.6498H13.3538V21.8968C18.2348 21.2358 21.9998 17.0618 21.9998 11.9998C21.9998 6.47676 17.5228 1.99976 11.9998 1.99976Z" fill="white"/>
<path d="M50.9113 2.15991C41.8673 2.15991 41.1597 2.86805 41.1597 11.9115V12.0883C41.1597 21.1318 41.8673 21.8399 50.9113 21.8399H51.0881C60.132 21.8399 60.8397 21.1318 60.8397 12.0883V11.9999C60.8397 2.8743 60.1253 2.15991 50.9997 2.15991H50.9113ZM56.9008 5.11191C57.4444 5.11044 57.8862 5.54937 57.8877 6.09303C57.8891 6.63669 57.4502 7.07844 56.9065 7.07991C56.3629 7.08139 55.9211 6.64245 55.9197 6.09879C55.9182 5.55513 56.3571 5.11339 56.9008 5.11191ZM50.9881 7.07991C53.705 7.07352 55.9133 9.27156 55.9197 11.9884C55.9261 14.7052 53.728 16.9135 51.0112 16.9199C48.2944 16.9263 46.0861 14.7283 46.0797 12.0114C46.0733 9.29462 48.2713 7.08631 50.9881 7.07991ZM50.9929 9.04791C49.3625 9.05185 48.0437 10.3771 48.0477 12.0076C48.0516 13.6376 49.3764 14.9558 51.0064 14.9519C52.6369 14.948 53.9556 13.6232 53.9517 11.9932C53.9477 10.3627 52.6229 9.04398 50.9929 9.04791Z" fill="white"/>
<path d="M89.9997 2.15991C95.4255 2.15991 99.8397 6.57405 99.8397 11.9999C99.8397 17.4258 95.4255 21.8399 89.9997 21.8399C84.5738 21.8399 80.1597 17.4258 80.1597 11.9999C80.1597 6.57405 84.5738 2.15991 89.9997 2.15991ZM87.5397 16.2114C89.8825 16.2114 91.7888 14.3222 91.7888 11.9999C91.7888 11.5061 91.388 11.1054 90.8942 11.1054H87.8331C87.3393 11.1054 86.9385 11.5061 86.9385 11.9999C86.9385 12.4937 87.3393 12.8945 87.8331 12.8945H89.8257C89.4634 13.7886 88.5751 14.4223 87.5397 14.4223C86.1835 14.4223 85.0797 13.3359 85.0797 11.9999C85.0797 10.6639 86.1835 9.57748 87.5397 9.57748C88.0648 9.57748 88.5653 9.73805 88.9879 10.0422C89.3896 10.3316 89.9482 10.239 90.2363 9.83824C90.5252 9.43749 90.4335 8.8784 90.0328 8.58946C89.3037 8.06525 88.4418 7.78794 87.5397 7.78794C85.1969 7.78794 83.2906 9.67722 83.2906 11.9995C83.2906 14.3217 85.1969 16.2114 87.5397 16.2114ZM96.0378 12.8945C96.5316 12.8945 96.9324 12.4937 96.9324 11.9999C96.9324 11.5061 96.5316 11.1054 96.0378 11.1054H95.6134V10.4568C95.6134 9.96303 95.2126 9.56227 94.7188 9.56227C94.2251 9.56227 93.8243 9.96303 93.8243 10.4568V11.1054H93.3542C92.8604 11.1054 92.4597 11.5061 92.4597 11.9999C92.4597 12.4937 92.8604 12.8945 93.3542 12.8945H93.8243V13.543C93.8243 14.0368 94.2251 14.4375 94.7188 14.4375C95.2126 14.4375 95.6134 14.0368 95.6134 13.543V12.8945H96.0378Z" fill="white"/>
<path d="M122.2 1.92017C120.389 1.92017 118.92 3.38867 118.92 5.20017V18.3202C118.92 20.1317 120.389 21.6002 122.2 21.6002H135.32C137.132 21.6002 138.6 20.1317 138.6 18.3202V5.20017C138.6 3.38867 137.132 1.92017 135.32 1.92017H122.2ZM123.178 6.13731H126.897L129.538 9.89046L132.743 6.13731H133.914L130.067 10.6418L134.811 17.383H131.093L128.028 13.0286L124.309 17.383H123.137L127.499 12.2772L123.178 6.13731ZM124.971 7.07445L131.582 16.4459H133.018L126.407 7.07445H124.971Z" fill="white"/>
<path d="M175.497 2.15991H160.503C159.209 2.15991 158.16 3.20951 158.16 4.50277V19.4971C158.16 20.7903 159.209 21.8399 160.503 21.8399H175.497C176.79 21.8399 177.84 20.7903 177.84 19.4971V4.50277C177.84 3.20951 176.79 2.15991 175.497 2.15991ZM164.251 9.65705V18.5599H161.44V9.65705H164.251ZM161.44 7.06585C161.44 6.40985 162.002 5.90848 162.845 5.90848C163.689 5.90848 164.218 6.40985 164.251 7.06585C164.251 7.72185 163.726 8.25134 162.845 8.25134C162.002 8.25134 161.44 7.72185 161.44 7.06585ZM174.56 18.5599H171.748C171.748 18.5599 171.748 14.2209 171.748 13.8742C171.748 12.9371 171.28 11.9999 170.108 11.9812H170.071C168.937 11.9812 168.468 12.9464 168.468 13.8742C168.468 14.3006 168.468 18.5599 168.468 18.5599H165.657V9.65705H168.468V10.8566C168.468 10.8566 169.373 9.65705 171.191 9.65705C173.051 9.65705 174.56 10.9363 174.56 13.5275V18.5599Z" fill="white"/>
</svg>
