<svg width="23" height="24" viewBox="0 0 23 24" fill="none" xmlns="http://www.w3.org/2000/svg">
<path d="M20.8735 3.04079L1.10368 10.2239C0.785674 10.3394 0.715132 10.6222 1.09248 10.7769L5.34296 12.5329L7.86234 13.5731L20.1614 4.26107C20.3271 4.13639 20.5175 4.37075 20.3976 4.50466L11.5843 14.3327V14.335L11.0782 14.9157L11.7489 15.2874L17.3274 18.3837C17.6532 18.5638 18.0753 18.4149 18.1694 17.9981L21.4233 3.53837C21.5118 3.14239 21.2576 2.9011 20.8735 3.04079ZM7.83994 19.8129C7.83994 20.0969 7.99558 20.1766 8.21057 19.9757C8.49162 19.7113 11.4018 17.0191 11.4018 17.0191L7.83994 15.1211V19.8129Z" fill="white"/>
</svg>
