<svg width="351" height="428" viewBox="0 0 351 428" fill="none" xmlns="http://www.w3.org/2000/svg">
<g filter="url(#filter0_d_119_811)">
<path d="M30.5 51.1212C30.5 40.837 38.837 32.5 49.1212 32.5H298.004C313.43 32.5 325.935 45.0055 325.935 60.4317V377.145C325.935 392.571 313.43 405.077 298.003 405.077H58.4317C43.0054 405.077 30.5 392.571 30.5 377.145V51.1212Z" fill="white"/>
<path d="M49.1211 33H298.004C313.154 33.0002 325.435 45.2817 325.436 60.4316V377.145C325.436 392.295 313.154 404.576 298.004 404.576H58.4316C43.2815 404.576 31 392.295 31 377.145V51.1211C31 41.1131 39.1131 33 49.1211 33Z" stroke="#C0181C"/>
</g>
<defs>
<filter id="filter0_d_119_811" x="0" y="0" width="350.435" height="427.577" filterUnits="userSpaceOnUse" color-interpolation-filters="sRGB">
<feFlood flood-opacity="0" result="BackgroundImageFix"/>
<feColorMatrix in="SourceAlpha" type="matrix" values="0 0 0 0 0 0 0 0 0 0 0 0 0 0 0 0 0 0 127 0" result="hardAlpha"/>
<feMorphology radius="1" operator="erode" in="SourceAlpha" result="effect1_dropShadow_119_811"/>
<feOffset dx="-3" dy="-5"/>
<feGaussianBlur stdDeviation="14.25"/>
<feComposite in2="hardAlpha" operator="out"/>
<feColorMatrix type="matrix" values="0 0 0 0 0 0 0 0 0 0 0 0 0 0 0 0 0 0 0.26 0"/>
<feBlend mode="normal" in2="BackgroundImageFix" result="effect1_dropShadow_119_811"/>
<feBlend mode="normal" in="SourceGraphic" in2="effect1_dropShadow_119_811" result="shape"/>
</filter>
</defs>
</svg>
