<svg width="160" height="43" viewBox="0 0 160 43" fill="none" xmlns="http://www.w3.org/2000/svg">
<rect width="159.959" height="42.8614" rx="9.09998" fill="#C0181C"/>
<path d="M23.966 25.9696V14.5672H31.3819V16.2988H26.0315V19.3943H30.9978V21.1258H26.0315V24.2381H31.4265V25.9696H23.966ZM35.0482 17.4178L36.7741 20.5746L38.5279 17.4178H40.6603L38.0825 21.6937L40.7048 25.9696H38.5836L36.7741 22.8907L34.9814 25.9696H32.8434L35.449 21.6937L32.9102 17.4178H35.0482ZM42.2192 29.1765V17.4178H44.2013V18.832H44.3182C44.4221 18.6241 44.5687 18.4033 44.758 18.1695C44.9473 17.9319 45.2034 17.7296 45.5263 17.5626C45.8493 17.3918 46.2613 17.3065 46.7623 17.3065C47.423 17.3065 48.0187 17.4754 48.5495 17.8131C49.084 18.1472 49.5071 18.6427 49.8189 19.2997C50.1344 19.9529 50.2922 20.7547 50.2922 21.7049C50.2922 22.6439 50.1381 23.4419 49.8301 24.0989C49.522 24.7559 49.1026 25.257 48.5718 25.6021C48.041 25.9473 47.4397 26.1199 46.7679 26.1199C46.278 26.1199 45.8715 26.0383 45.5486 25.875C45.2257 25.7116 44.9659 25.5149 44.7691 25.2848C44.5761 25.051 44.4258 24.8301 44.3182 24.6223H44.2347V29.1765H42.2192ZM44.1957 21.6937C44.1957 22.2468 44.2736 22.7311 44.4295 23.1469C44.5891 23.5626 44.8174 23.8873 45.1143 24.1212C45.415 24.3513 45.7787 24.4664 46.2056 24.4664C46.651 24.4664 47.024 24.3476 47.3247 24.11C47.6253 23.8688 47.8517 23.5403 48.0039 23.1246C48.1598 22.7052 48.2377 22.2282 48.2377 21.6937C48.2377 21.1629 48.1616 20.6916 48.0095 20.2796C47.8573 19.8676 47.6309 19.5446 47.3302 19.3108C47.0296 19.077 46.6547 18.96 46.2056 18.96C45.775 18.96 45.4094 19.0733 45.1088 19.2997C44.8081 19.5261 44.5798 19.8434 44.424 20.2517C44.2718 20.66 44.1957 21.1407 44.1957 21.6937ZM54.0336 14.5672V25.9696H52.0181V14.5672H54.0336ZM59.8364 26.1366C59.0012 26.1366 58.2774 25.9529 57.665 25.5854C57.0526 25.218 56.5775 24.7039 56.2397 24.0432C55.9057 23.3825 55.7386 22.6105 55.7386 21.7271C55.7386 20.8437 55.9057 20.0698 56.2397 19.4055C56.5775 18.7411 57.0526 18.2251 57.665 17.8577C58.2774 17.4902 59.0012 17.3065 59.8364 17.3065C60.6715 17.3065 61.3953 17.4902 62.0077 17.8577C62.6201 18.2251 63.0934 18.7411 63.4274 19.4055C63.7652 20.0698 63.9341 20.8437 63.9341 21.7271C63.9341 22.6105 63.7652 23.3825 63.4274 24.0432C63.0934 24.7039 62.6201 25.218 62.0077 25.5854C61.3953 25.9529 60.6715 26.1366 59.8364 26.1366ZM59.8475 24.522C60.3003 24.522 60.6789 24.3977 60.9833 24.149C61.2876 23.8966 61.514 23.5589 61.6625 23.1357C61.8147 22.7126 61.8908 22.2412 61.8908 21.7216C61.8908 21.1982 61.8147 20.725 61.6625 20.3018C61.514 19.875 61.2876 19.5354 60.9833 19.283C60.6789 19.0306 60.3003 18.9044 59.8475 18.9044C59.3835 18.9044 58.9975 19.0306 58.6894 19.283C58.3851 19.5354 58.1568 19.875 58.0046 20.3018C57.8562 20.725 57.7819 21.1982 57.7819 21.7216C57.7819 22.2412 57.8562 22.7126 58.0046 23.1357C58.1568 23.5589 58.3851 23.8966 58.6894 24.149C58.9975 24.3977 59.3835 24.522 59.8475 24.522ZM65.6447 25.9696V17.4178H67.5989V18.8431H67.688C67.8439 18.3495 68.1111 17.969 68.4897 17.7018C68.872 17.4308 69.3082 17.2953 69.7981 17.2953C69.9095 17.2953 70.0338 17.3009 70.1711 17.312C70.3122 17.3195 70.4291 17.3325 70.5219 17.351V19.205C70.4365 19.1753 70.301 19.1493 70.1155 19.1271C69.9336 19.1011 69.7573 19.0881 69.5865 19.0881C69.2191 19.0881 68.8887 19.1679 68.5955 19.3275C68.306 19.4834 68.0777 19.7005 67.9107 19.9789C67.7437 20.2573 67.6602 20.5784 67.6602 20.9421V25.9696H65.6447ZM75.2947 26.1366C74.4373 26.1366 73.6968 25.9585 73.0732 25.6021C72.4534 25.2421 71.9764 24.7336 71.6424 24.0766C71.3083 23.4159 71.1413 22.6383 71.1413 21.7438C71.1413 20.8642 71.3083 20.0921 71.6424 19.4277C71.9801 18.7596 72.4515 18.24 73.0565 17.8688C73.6615 17.4939 74.3723 17.3065 75.1889 17.3065C75.716 17.3065 76.2133 17.3918 76.681 17.5626C77.1524 17.7296 77.5681 17.9894 77.9281 18.342C78.2919 18.6947 78.5777 19.1438 78.7855 19.6894C78.9934 20.2313 79.0973 20.8771 79.0973 21.6269V22.2449H72.0878V20.8864H77.1654C77.1617 20.5004 77.0782 20.1571 76.9148 19.8564C76.7515 19.5521 76.5233 19.3127 76.23 19.1382C75.9405 18.9638 75.6028 18.8765 75.2167 18.8765C74.8047 18.8765 74.4428 18.9767 74.1311 19.1772C73.8193 19.3739 73.5762 19.6337 73.4017 19.9566C73.231 20.2758 73.1438 20.6266 73.14 21.0089V22.1948C73.14 22.6922 73.231 23.119 73.4129 23.4753C73.5947 23.8279 73.849 24.0989 74.1756 24.2882C74.5022 24.4738 74.8845 24.5666 75.3225 24.5666C75.6157 24.5666 75.8811 24.5258 76.1187 24.4441C76.3562 24.3587 76.5622 24.2344 76.7367 24.0711C76.9111 23.9078 77.0429 23.7055 77.132 23.4642L79.0138 23.6758C78.895 24.1731 78.6686 24.6074 78.3346 24.9786C78.0042 25.346 77.5811 25.6318 77.0652 25.836C76.5492 26.0364 75.9591 26.1366 75.2947 26.1366ZM84.7804 14.5672H87.3081L90.6932 22.8295H90.8268L94.2119 14.5672H96.7395V25.9696H94.7575V18.136H94.6517L91.5005 25.9362H90.0195L86.8683 18.1193H86.7625V25.9696H84.7804V14.5672ZM102.63 26.1366C101.795 26.1366 101.071 25.9529 100.459 25.5854C99.8462 25.218 99.3711 24.7039 99.0334 24.0432C98.6993 23.3825 98.5323 22.6105 98.5323 21.7271C98.5323 20.8437 98.6993 20.0698 99.0334 19.4055C99.3711 18.7411 99.8462 18.2251 100.459 17.8577C101.071 17.4902 101.795 17.3065 102.63 17.3065C103.465 17.3065 104.189 17.4902 104.801 17.8577C105.414 18.2251 105.887 18.7411 106.221 19.4055C106.559 20.0698 106.728 20.8437 106.728 21.7271C106.728 22.6105 106.559 23.3825 106.221 24.0432C105.887 24.7039 105.414 25.218 104.801 25.5854C104.189 25.9529 103.465 26.1366 102.63 26.1366ZM102.641 24.522C103.094 24.522 103.473 24.3977 103.777 24.149C104.081 23.8966 104.308 23.5589 104.456 23.1357C104.608 22.7126 104.684 22.2412 104.684 21.7216C104.684 21.1982 104.608 20.725 104.456 20.3018C104.308 19.875 104.081 19.5354 103.777 19.283C103.473 19.0306 103.094 18.9044 102.641 18.9044C102.177 18.9044 101.791 19.0306 101.483 19.283C101.179 19.5354 100.95 19.875 100.798 20.3018C100.65 20.725 100.576 21.1982 100.576 21.7216C100.576 22.2412 100.65 22.7126 100.798 23.1357C100.95 23.5589 101.179 23.8966 101.483 24.149C101.791 24.3977 102.177 24.522 102.641 24.522ZM108.438 25.9696V17.4178H110.393V18.8431H110.482C110.638 18.3495 110.905 17.969 111.283 17.7018C111.666 17.4308 112.102 17.2953 112.592 17.2953C112.703 17.2953 112.827 17.3009 112.965 17.312C113.106 17.3195 113.223 17.3325 113.316 17.351V19.205C113.23 19.1753 113.095 19.1493 112.909 19.1271C112.727 19.1011 112.551 19.0881 112.38 19.0881C112.013 19.0881 111.682 19.1679 111.389 19.3275C111.1 19.4834 110.871 19.7005 110.704 19.9789C110.537 20.2573 110.454 20.5784 110.454 20.9421V25.9696H108.438ZM118.088 26.1366C117.231 26.1366 116.49 25.9585 115.867 25.6021C115.247 25.2421 114.77 24.7336 114.436 24.0766C114.102 23.4159 113.935 22.6383 113.935 21.7438C113.935 20.8642 114.102 20.0921 114.436 19.4277C114.774 18.7596 115.245 18.24 115.85 17.8688C116.455 17.4939 117.166 17.3065 117.983 17.3065C118.51 17.3065 119.007 17.3918 119.475 17.5626C119.946 17.7296 120.362 17.9894 120.722 18.342C121.086 18.6947 121.371 19.1438 121.579 19.6894C121.787 20.2313 121.891 20.8771 121.891 21.6269V22.2449H114.881V20.8864H119.959C119.955 20.5004 119.872 20.1571 119.709 19.8564C119.545 19.5521 119.317 19.3127 119.024 19.1382C118.734 18.9638 118.396 18.8765 118.01 18.8765C117.598 18.8765 117.237 18.9767 116.925 19.1772C116.613 19.3739 116.37 19.6337 116.195 19.9566C116.025 20.2758 115.937 20.6266 115.934 21.0089V22.1948C115.934 22.6922 116.025 23.119 116.207 23.4753C116.388 23.8279 116.643 24.0989 116.969 24.2882C117.296 24.4738 117.678 24.5666 118.116 24.5666C118.409 24.5666 118.675 24.5258 118.912 24.4441C119.15 24.3587 119.356 24.2344 119.53 24.0711C119.705 23.9078 119.837 23.7055 119.926 23.4642L121.807 23.6758C121.689 24.1731 121.462 24.6074 121.128 24.9786C120.798 25.346 120.375 25.6318 119.859 25.836C119.343 26.0364 118.753 26.1366 118.088 26.1366Z" fill="white"/>
<path d="M138.113 18.4306C138.162 18.0964 137.939 17.7866 137.614 17.7388L132.324 16.9596C132 16.9118 131.697 17.144 131.647 17.4783C131.598 17.8125 131.821 18.1223 132.146 18.1701L136.848 18.8627L136.135 23.7046C136.086 24.0389 136.309 24.3486 136.634 24.3964C136.958 24.4442 137.261 24.212 137.311 23.8778L138.113 18.4306ZM130.16 23.9871L130.513 24.4762L137.878 18.8332L137.525 18.344L137.173 17.8549L129.808 23.4979L130.16 23.9871Z" fill="white"/>
</svg>
