<svg width="160" height="43" viewBox="0 0 160 43" fill="none" xmlns="http://www.w3.org/2000/svg">
<rect width="159.959" height="42.8614" rx="9.09998" fill="#C0181C"/>
<path d="M23.9655 25.9697V14.5674H31.3815V16.2989H26.031V19.3944H30.9973V21.1259H26.031V24.2382H31.426V25.9697H23.9655ZM35.0477 17.418L36.7736 20.5748L38.5274 17.418H40.6598L38.082 21.6938L40.7043 25.9697H38.5831L36.7736 22.8909L34.9809 25.9697H32.8429L35.4486 21.6938L32.9098 17.418H35.0477ZM42.2187 29.1766V17.418H44.2008V18.8321H44.3177C44.4216 18.6243 44.5682 18.4034 44.7575 18.1696C44.9468 17.932 45.2029 17.7297 45.5258 17.5627C45.8488 17.392 46.2608 17.3066 46.7618 17.3066C47.4225 17.3066 48.0183 17.4755 48.549 17.8133C49.0835 18.1473 49.5067 18.6428 49.8184 19.2998C50.1339 19.953 50.2917 20.7548 50.2917 21.705C50.2917 22.644 50.1376 23.4421 49.8296 24.099C49.5215 24.756 49.1021 25.2571 48.5713 25.6023C48.0405 25.9475 47.4392 26.1201 46.7674 26.1201C46.2775 26.1201 45.871 26.0384 45.5481 25.8751C45.2252 25.7118 44.9654 25.515 44.7687 25.2849C44.5756 25.0511 44.4253 24.8302 44.3177 24.6224H44.2342V29.1766H42.2187ZM44.1952 21.6938C44.1952 22.2469 44.2731 22.7313 44.429 23.147C44.5886 23.5627 44.8169 23.8875 45.1138 24.1213C45.4145 24.3514 45.7782 24.4665 46.2051 24.4665C46.6505 24.4665 47.0235 24.3477 47.3242 24.1102C47.6248 23.8689 47.8512 23.5404 48.0034 23.1247C48.1593 22.7053 48.2372 22.2283 48.2372 21.6938C48.2372 21.1631 48.1612 20.6917 48.009 20.2797C47.8568 19.8677 47.6304 19.5448 47.3297 19.3109C47.0291 19.0771 46.6542 18.9602 46.2051 18.9602C45.7745 18.9602 45.4089 19.0734 45.1083 19.2998C44.8076 19.5262 44.5794 19.8436 44.4235 20.2518C44.2713 20.6601 44.1952 21.1408 44.1952 21.6938ZM54.0331 14.5674V25.9697H52.0176V14.5674H54.0331ZM59.8359 26.1368C59.0007 26.1368 58.277 25.953 57.6645 25.5856C57.0521 25.2181 56.577 24.704 56.2392 24.0434C55.9052 23.3827 55.7381 22.6106 55.7381 21.7272C55.7381 20.8439 55.9052 20.07 56.2392 19.4056C56.577 18.7412 57.0521 18.2252 57.6645 17.8578C58.277 17.4903 59.0007 17.3066 59.8359 17.3066C60.671 17.3066 61.3948 17.4903 62.0072 17.8578C62.6197 18.2252 63.0929 18.7412 63.4269 19.4056C63.7647 20.07 63.9336 20.8439 63.9336 21.7272C63.9336 22.6106 63.7647 23.3827 63.4269 24.0434C63.0929 24.704 62.6197 25.2181 62.0072 25.5856C61.3948 25.953 60.671 26.1368 59.8359 26.1368ZM59.847 24.5222C60.2998 24.5222 60.6784 24.3978 60.9828 24.1491C61.2871 23.8967 61.5136 23.559 61.662 23.1358C61.8142 22.7127 61.8903 22.2413 61.8903 21.7217C61.8903 21.1983 61.8142 20.7251 61.662 20.3019C61.5136 19.8751 61.2871 19.5355 60.9828 19.2831C60.6784 19.0307 60.2998 18.9045 59.847 18.9045C59.383 18.9045 58.997 19.0307 58.689 19.2831C58.3846 19.5355 58.1563 19.8751 58.0041 20.3019C57.8557 20.7251 57.7814 21.1983 57.7814 21.7217C57.7814 22.2413 57.8557 22.7127 58.0041 23.1358C58.1563 23.559 58.3846 23.8967 58.689 24.1491C58.997 24.3978 59.383 24.5222 59.847 24.5222ZM65.6442 25.9697V17.418H67.5984V18.8432H67.6875C67.8434 18.3496 68.1107 17.9691 68.4892 17.7019C68.8716 17.4309 69.3077 17.2955 69.7976 17.2955C69.909 17.2955 70.0333 17.301 70.1707 17.3122C70.3117 17.3196 70.4286 17.3326 70.5214 17.3511V19.2051C70.436 19.1754 70.3006 19.1495 70.115 19.1272C69.9331 19.1012 69.7568 19.0882 69.5861 19.0882C69.2186 19.0882 68.8883 19.168 68.595 19.3276C68.3055 19.4835 68.0772 19.7007 67.9102 19.979C67.7432 20.2574 67.6597 20.5785 67.6597 20.9422V25.9697H65.6442ZM75.2942 26.1368C74.4368 26.1368 73.6963 25.9586 73.0727 25.6023C72.4529 25.2422 71.9759 24.7337 71.6419 24.0768C71.3078 23.4161 71.1408 22.6385 71.1408 21.7439C71.1408 20.8643 71.3078 20.0922 71.6419 19.4278C71.9796 18.7597 72.451 18.2401 73.056 17.8689C73.661 17.494 74.3718 17.3066 75.1884 17.3066C75.7155 17.3066 76.2128 17.392 76.6805 17.5627C77.1519 17.7297 77.5676 17.9896 77.9277 18.3422C78.2914 18.6948 78.5772 19.1439 78.7851 19.6895C78.9929 20.2314 79.0968 20.8773 79.0968 21.627V22.245H72.0873V20.8865H77.1649C77.1612 20.5005 77.0777 20.1572 76.9144 19.8565C76.751 19.5522 76.5228 19.3128 76.2295 19.1383C75.94 18.9639 75.6023 18.8767 75.2163 18.8767C74.8043 18.8767 74.4424 18.9769 74.1306 19.1773C73.8188 19.374 73.5757 19.6338 73.4012 19.9568C73.2305 20.276 73.1433 20.6267 73.1396 21.009V22.1949C73.1396 22.6923 73.2305 23.1191 73.4124 23.4755C73.5942 23.8281 73.8485 24.099 74.1751 24.2883C74.5017 24.4739 74.8841 24.5667 75.322 24.5667C75.6153 24.5667 75.8806 24.5259 76.1182 24.4442C76.3557 24.3588 76.5617 24.2345 76.7362 24.0712C76.9106 23.9079 77.0424 23.7056 77.1315 23.4643L79.0133 23.6759C78.8946 24.1733 78.6681 24.6075 78.3341 24.9787C78.0037 25.3462 77.5806 25.632 77.0647 25.8361C76.5488 26.0365 75.9586 26.1368 75.2942 26.1368ZM84.7799 14.5674H87.3076L90.6927 22.8296H90.8263L94.2114 14.5674H96.7391V25.9697H94.757V18.1362H94.6512L91.5 25.9363H90.019L86.8678 18.1195H86.762V25.9697H84.7799V14.5674ZM102.63 26.1368C101.794 26.1368 101.071 25.953 100.458 25.5856C99.8458 25.2181 99.3707 24.704 99.0329 24.0434C98.6988 23.3827 98.5318 22.6106 98.5318 21.7272C98.5318 20.8439 98.6988 20.07 99.0329 19.4056C99.3707 18.7412 99.8458 18.2252 100.458 17.8578C101.071 17.4903 101.794 17.3066 102.63 17.3066C103.465 17.3066 104.188 17.4903 104.801 17.8578C105.413 18.2252 105.887 18.7412 106.221 19.4056C106.558 20.07 106.727 20.8439 106.727 21.7272C106.727 22.6106 106.558 23.3827 106.221 24.0434C105.887 24.704 105.413 25.2181 104.801 25.5856C104.188 25.953 103.465 26.1368 102.63 26.1368ZM102.641 24.5222C103.093 24.5222 103.472 24.3978 103.776 24.1491C104.081 23.8967 104.307 23.559 104.456 23.1358C104.608 22.7127 104.684 22.2413 104.684 21.7217C104.684 21.1983 104.608 20.7251 104.456 20.3019C104.307 19.8751 104.081 19.5355 103.776 19.2831C103.472 19.0307 103.093 18.9045 102.641 18.9045C102.177 18.9045 101.791 19.0307 101.483 19.2831C101.178 19.5355 100.95 19.8751 100.798 20.3019C100.649 20.7251 100.575 21.1983 100.575 21.7217C100.575 22.2413 100.649 22.7127 100.798 23.1358C100.95 23.559 101.178 23.8967 101.483 24.1491C101.791 24.3978 102.177 24.5222 102.641 24.5222ZM108.438 25.9697V17.418H110.392V18.8432H110.481C110.637 18.3496 110.904 17.9691 111.283 17.7019C111.665 17.4309 112.101 17.2955 112.591 17.2955C112.703 17.2955 112.827 17.301 112.964 17.3122C113.105 17.3196 113.222 17.3326 113.315 17.3511V19.2051C113.23 19.1754 113.094 19.1495 112.909 19.1272C112.727 19.1012 112.55 19.0882 112.38 19.0882C112.012 19.0882 111.682 19.168 111.389 19.3276C111.099 19.4835 110.871 19.7007 110.704 19.979C110.537 20.2574 110.453 20.5785 110.453 20.9422V25.9697H108.438ZM118.088 26.1368C117.23 26.1368 116.49 25.9586 115.866 25.6023C115.247 25.2422 114.77 24.7337 114.436 24.0768C114.101 23.4161 113.934 22.6385 113.934 21.7439C113.934 20.8643 114.101 20.0922 114.436 19.4278C114.773 18.7597 115.245 18.2401 115.85 17.8689C116.455 17.494 117.166 17.3066 117.982 17.3066C118.509 17.3066 119.007 17.392 119.474 17.5627C119.946 17.7297 120.361 17.9896 120.721 18.3422C121.085 18.6948 121.371 19.1439 121.579 19.6895C121.787 20.2314 121.891 20.8773 121.891 21.627V22.245H114.881V20.8865H119.959C119.955 20.5005 119.871 20.1572 119.708 19.8565C119.545 19.5522 119.316 19.3128 119.023 19.1383C118.734 18.9639 118.396 18.8767 118.01 18.8767C117.598 18.8767 117.236 18.9769 116.924 19.1773C116.612 19.374 116.369 19.6338 116.195 19.9568C116.024 20.276 115.937 20.6267 115.933 21.009V22.1949C115.933 22.6923 116.024 23.1191 116.206 23.4755C116.388 23.8281 116.642 24.099 116.969 24.2883C117.295 24.4739 117.678 24.5667 118.116 24.5667C118.409 24.5667 118.674 24.5259 118.912 24.4442C119.149 24.3588 119.355 24.2345 119.53 24.0712C119.704 23.9079 119.836 23.7056 119.925 23.4643L121.807 23.6759C121.688 24.1733 121.462 24.6075 121.128 24.9787C120.797 25.3462 120.374 25.632 119.858 25.8361C119.342 26.0365 118.752 26.1368 118.088 26.1368Z" fill="white"/>
<path d="M138.113 18.4309C138.162 18.0966 137.939 17.7869 137.614 17.7391L132.324 16.9599C132 16.912 131.697 17.1442 131.647 17.4785C131.598 17.8128 131.821 18.1225 132.146 18.1703L136.848 18.8629L136.135 23.7048C136.086 24.0391 136.309 24.3488 136.634 24.3967C136.958 24.4445 137.261 24.2123 137.311 23.878L138.113 18.4309ZM130.16 23.9873L130.513 24.4765L137.878 18.8335L137.525 18.3443L137.173 17.8551L129.808 23.4981L130.16 23.9873Z" fill="white"/>
</svg>
