<svg width="160" height="43" viewBox="0 0 160 43" fill="none" xmlns="http://www.w3.org/2000/svg">
<rect width="159.959" height="42.8614" rx="9.09998" fill="#C0181C"/>
<path d="M23.9664 25.9697V14.5674H31.3824V16.2989H26.032V19.3944H30.9983V21.1259H26.032V24.2382H31.427V25.9697H23.9664ZM35.0487 17.418L36.7746 20.5748L38.5284 17.418H40.6608L38.083 21.6938L40.7053 25.9697H38.5841L36.7746 22.8909L34.9819 25.9697H32.8439L35.4495 21.6938L32.9107 17.418H35.0487ZM42.2197 29.1766V17.418H44.2017V18.8321H44.3187C44.4226 18.6243 44.5692 18.4034 44.7585 18.1696C44.9478 17.932 45.2039 17.7297 45.5268 17.5627C45.8497 17.392 46.2617 17.3066 46.7628 17.3066C47.4235 17.3066 48.0192 17.4755 48.55 17.8133C49.0845 18.1473 49.5076 18.6428 49.8194 19.2998C50.1349 19.953 50.2927 20.7548 50.2927 21.705C50.2927 22.644 50.1386 23.4421 49.8305 24.099C49.5225 24.756 49.1031 25.2571 48.5723 25.6023C48.0415 25.9475 47.4402 26.1201 46.7684 26.1201C46.2784 26.1201 45.872 26.0384 45.5491 25.8751C45.2262 25.7118 44.9664 25.515 44.7696 25.2849C44.5766 25.0511 44.4263 24.8302 44.3187 24.6224H44.2351V29.1766H42.2197ZM44.1962 21.6938C44.1962 22.2469 44.2741 22.7313 44.43 23.147C44.5896 23.5627 44.8179 23.8875 45.1148 24.1213C45.4155 24.3514 45.7792 24.4665 46.2061 24.4665C46.6515 24.4665 47.0245 24.3477 47.3251 24.1102C47.6258 23.8689 47.8522 23.5404 48.0044 23.1247C48.1603 22.7053 48.2382 22.2283 48.2382 21.6938C48.2382 21.1631 48.1621 20.6917 48.01 20.2797C47.8578 19.8677 47.6314 19.5448 47.3307 19.3109C47.0301 19.0771 46.6552 18.9602 46.2061 18.9602C45.7755 18.9602 45.4099 19.0734 45.1093 19.2998C44.8086 19.5262 44.5803 19.8436 44.4244 20.2518C44.2723 20.6601 44.1962 21.1408 44.1962 21.6938ZM54.0341 14.5674V25.9697H52.0186V14.5674H54.0341ZM59.8368 26.1368C59.0017 26.1368 58.2779 25.953 57.6655 25.5856C57.0531 25.2181 56.578 24.704 56.2402 24.0434C55.9061 23.3827 55.7391 22.6106 55.7391 21.7272C55.7391 20.8439 55.9061 20.07 56.2402 19.4056C56.578 18.7412 57.0531 18.2252 57.6655 17.8578C58.2779 17.4903 59.0017 17.3066 59.8368 17.3066C60.672 17.3066 61.3958 17.4903 62.0082 17.8578C62.6206 18.2252 63.0939 18.7412 63.4279 19.4056C63.7657 20.07 63.9346 20.8439 63.9346 21.7272C63.9346 22.6106 63.7657 23.3827 63.4279 24.0434C63.0939 24.704 62.6206 25.2181 62.0082 25.5856C61.3958 25.953 60.672 26.1368 59.8368 26.1368ZM59.848 24.5222C60.3008 24.5222 60.6794 24.3978 60.9838 24.1491C61.2881 23.8967 61.5145 23.559 61.663 23.1358C61.8152 22.7127 61.8913 22.2413 61.8913 21.7217C61.8913 21.1983 61.8152 20.7251 61.663 20.3019C61.5145 19.8751 61.2881 19.5355 60.9838 19.2831C60.6794 19.0307 60.3008 18.9045 59.848 18.9045C59.384 18.9045 58.998 19.0307 58.6899 19.2831C58.3856 19.5355 58.1573 19.8751 58.0051 20.3019C57.8567 20.7251 57.7824 21.1983 57.7824 21.7217C57.7824 22.2413 57.8567 22.7127 58.0051 23.1358C58.1573 23.559 58.3856 23.8967 58.6899 24.1491C58.998 24.3978 59.384 24.5222 59.848 24.5222ZM65.6452 25.9697V17.418H67.5994V18.8432H67.6885C67.8444 18.3496 68.1116 17.9691 68.4902 17.7019C68.8725 17.4309 69.3087 17.2955 69.7986 17.2955C69.91 17.2955 70.0343 17.301 70.1716 17.3122C70.3127 17.3196 70.4296 17.3326 70.5224 17.3511V19.2051C70.437 19.1754 70.3015 19.1495 70.116 19.1272C69.9341 19.1012 69.7578 19.0882 69.587 19.0882C69.2196 19.0882 68.8892 19.168 68.596 19.3276C68.3065 19.4835 68.0782 19.7007 67.9112 19.979C67.7442 20.2574 67.6607 20.5785 67.6607 20.9422V25.9697H65.6452ZM75.2952 26.1368C74.4378 26.1368 73.6973 25.9586 73.0737 25.6023C72.4539 25.2422 71.9769 24.7337 71.6429 24.0768C71.3088 23.4161 71.1418 22.6385 71.1418 21.7439C71.1418 20.8643 71.3088 20.0922 71.6429 19.4278C71.9806 18.7597 72.452 18.2401 73.057 17.8689C73.662 17.494 74.3728 17.3066 75.1894 17.3066C75.7165 17.3066 76.2138 17.392 76.6815 17.5627C77.1529 17.7297 77.5686 17.9896 77.9286 18.3422C78.2924 18.6948 78.5782 19.1439 78.786 19.6895C78.9939 20.2314 79.0978 20.8773 79.0978 21.627V22.245H72.0883V20.8865H77.1659C77.1622 20.5005 77.0787 20.1572 76.9153 19.8565C76.752 19.5522 76.5237 19.3128 76.2305 19.1383C75.941 18.9639 75.6032 18.8767 75.2172 18.8767C74.8052 18.8767 74.4433 18.9769 74.1316 19.1773C73.8198 19.374 73.5767 19.6338 73.4022 19.9568C73.2315 20.276 73.1442 20.6267 73.1405 21.009V22.1949C73.1405 22.6923 73.2315 23.1191 73.4133 23.4755C73.5952 23.8281 73.8495 24.099 74.1761 24.2883C74.5027 24.4739 74.885 24.5667 75.323 24.5667C75.6162 24.5667 75.8816 24.5259 76.1192 24.4442C76.3567 24.3588 76.5627 24.2345 76.7372 24.0712C76.9116 23.9079 77.0434 23.7056 77.1325 23.4643L79.0143 23.6759C78.8955 24.1733 78.6691 24.6075 78.3351 24.9787C78.0047 25.3462 77.5816 25.632 77.0657 25.8361C76.5497 26.0365 75.9596 26.1368 75.2952 26.1368ZM84.7809 14.5674H87.3086L90.6937 22.8296H90.8273L94.2124 14.5674H96.74V25.9697H94.758V18.1362H94.6522L91.501 25.9363H90.02L86.8687 18.1195H86.763V25.9697H84.7809V14.5674ZM102.631 26.1368C101.795 26.1368 101.072 25.953 100.459 25.5856C99.8467 25.2181 99.3716 24.704 99.0339 24.0434C98.6998 23.3827 98.5328 22.6106 98.5328 21.7272C98.5328 20.8439 98.6998 20.07 99.0339 19.4056C99.3716 18.7412 99.8467 18.2252 100.459 17.8578C101.072 17.4903 101.795 17.3066 102.631 17.3066C103.466 17.3066 104.189 17.4903 104.802 17.8578C105.414 18.2252 105.888 18.7412 106.222 19.4056C106.559 20.07 106.728 20.8439 106.728 21.7272C106.728 22.6106 106.559 23.3827 106.222 24.0434C105.888 24.704 105.414 25.2181 104.802 25.5856C104.189 25.953 103.466 26.1368 102.631 26.1368ZM102.642 24.5222C103.094 24.5222 103.473 24.3978 103.777 24.1491C104.082 23.8967 104.308 23.559 104.457 23.1358C104.609 22.7127 104.685 22.2413 104.685 21.7217C104.685 21.1983 104.609 20.7251 104.457 20.3019C104.308 19.8751 104.082 19.5355 103.777 19.2831C103.473 19.0307 103.094 18.9045 102.642 18.9045C102.178 18.9045 101.792 19.0307 101.484 19.2831C101.179 19.5355 100.951 19.8751 100.799 20.3019C100.65 20.7251 100.576 21.1983 100.576 21.7217C100.576 22.2413 100.65 22.7127 100.799 23.1358C100.951 23.559 101.179 23.8967 101.484 24.1491C101.792 24.3978 102.178 24.5222 102.642 24.5222ZM108.439 25.9697V17.418H110.393V18.8432H110.482C110.638 18.3496 110.905 17.9691 111.284 17.7019C111.666 17.4309 112.102 17.2955 112.592 17.2955C112.704 17.2955 112.828 17.301 112.965 17.3122C113.106 17.3196 113.223 17.3326 113.316 17.3511V19.2051C113.231 19.1754 113.095 19.1495 112.91 19.1272C112.728 19.1012 112.551 19.0882 112.381 19.0882C112.013 19.0882 111.683 19.168 111.39 19.3276C111.1 19.4835 110.872 19.7007 110.705 19.979C110.538 20.2574 110.454 20.5785 110.454 20.9422V25.9697H108.439ZM118.089 26.1368C117.231 26.1368 116.491 25.9586 115.867 25.6023C115.248 25.2422 114.771 24.7337 114.437 24.0768C114.102 23.4161 113.935 22.6385 113.935 21.7439C113.935 20.8643 114.102 20.0922 114.437 19.4278C114.774 18.7597 115.246 18.2401 115.851 17.8689C116.456 17.494 117.166 17.3066 117.983 17.3066C118.51 17.3066 119.007 17.392 119.475 17.5627C119.947 17.7297 120.362 17.9896 120.722 18.3422C121.086 18.6948 121.372 19.1439 121.58 19.6895C121.788 20.2314 121.891 20.8773 121.891 21.627V22.245H114.882V20.8865H119.96C119.956 20.5005 119.872 20.1572 119.709 19.8565C119.546 19.5522 119.317 19.3128 119.024 19.1383C118.735 18.9639 118.397 18.8767 118.011 18.8767C117.599 18.8767 117.237 18.9769 116.925 19.1773C116.613 19.374 116.37 19.6338 116.196 19.9568C116.025 20.276 115.938 20.6267 115.934 21.009V22.1949C115.934 22.6923 116.025 23.1191 116.207 23.4755C116.389 23.8281 116.643 24.099 116.97 24.2883C117.296 24.4739 117.679 24.5667 118.117 24.5667C118.41 24.5667 118.675 24.5259 118.913 24.4442C119.15 24.3588 119.356 24.2345 119.531 24.0712C119.705 23.9079 119.837 23.7056 119.926 23.4643L121.808 23.6759C121.689 24.1733 121.463 24.6075 121.129 24.9787C120.798 25.3462 120.375 25.632 119.859 25.8361C119.343 26.0365 118.753 26.1368 118.089 26.1368Z" fill="white"/>
<path d="M138.114 18.4309C138.163 18.0966 137.94 17.7869 137.615 17.7391L132.325 16.9599C132.001 16.912 131.698 17.1442 131.648 17.4785C131.599 17.8128 131.822 18.1225 132.147 18.1703L136.849 18.8629L136.136 23.7048C136.087 24.0391 136.31 24.3488 136.635 24.3967C136.959 24.4445 137.262 24.2123 137.312 23.878L138.114 18.4309ZM130.161 23.9873L130.514 24.4765L137.879 18.8335L137.526 18.3443L137.174 17.8551L129.809 23.4981L130.161 23.9873Z" fill="white"/>
</svg>
