<svg width="498" height="104" viewBox="0 0 498 104" fill="none" xmlns="http://www.w3.org/2000/svg">
<g filter="url(#filter0_d_160_389)">
<rect x="18.0078" width="461" height="61" rx="4.91124" fill="white"/>
</g>
<path d="M109.129 23.456C109.744 23.456 110.358 23.5427 110.973 23.716C111.587 23.8893 112.146 24.1887 112.651 24.6141C113.155 25.0395 113.557 25.6383 113.856 26.4103C114.155 27.1666 114.305 28.1277 114.305 29.2937C114.305 30.2233 114.218 31.0269 114.045 31.7044C113.887 32.3819 113.659 32.9491 113.36 33.406C113.076 33.863 112.745 34.2254 112.367 34.4932L114.4 40H111.611L109.98 35.3441C109.885 35.3598 109.791 35.3677 109.696 35.3677C109.602 35.3677 109.507 35.3677 109.413 35.3677C109.318 35.3677 109.224 35.3677 109.129 35.3677H106.6V40H103.977V23.456H109.129ZM108.16 32.8861C108.775 32.8861 109.302 32.8467 109.744 32.7679C110.185 32.6891 110.547 32.5316 110.831 32.2952C111.114 32.0431 111.319 31.6807 111.445 31.2081C111.587 30.7354 111.658 30.0973 111.658 29.2937C111.658 28.5531 111.587 27.9702 111.445 27.5448C111.319 27.1036 111.114 26.7806 110.831 26.5758C110.547 26.3552 110.185 26.2134 109.744 26.1503C109.302 26.0873 108.775 26.0558 108.16 26.0558H106.6V32.8861H108.16ZM118.667 36.4785C118.667 36.6833 118.699 36.8724 118.762 37.0457C118.825 37.2033 118.912 37.3451 119.022 37.4711C119.132 37.5972 119.274 37.6917 119.447 37.7547C119.621 37.8178 119.81 37.8493 120.014 37.8493C120.44 37.8493 120.92 37.7547 121.456 37.5657C122.008 37.3766 122.528 37.156 123.016 36.9039L123.961 39.1728C123.426 39.5194 122.795 39.7952 122.071 40C121.362 40.2048 120.653 40.3072 119.944 40.3072C119.392 40.3072 118.872 40.2363 118.384 40.0945C117.911 39.9527 117.494 39.74 117.131 39.4564C116.784 39.1728 116.509 38.8104 116.304 38.3692C116.115 37.9281 116.02 37.4081 116.02 36.8094V31.9644C116.02 31.0663 116.209 30.3178 116.588 29.7191C116.981 29.1204 117.509 28.6713 118.171 28.372C118.833 28.0726 119.573 27.9229 120.393 27.9229C121.228 27.9229 121.953 28.0726 122.567 28.372C123.197 28.6556 123.686 29.0967 124.032 29.6955C124.379 30.2784 124.552 31.0111 124.552 31.8935V35.5804L118.667 35.8876V36.4785ZM121.929 32.6025C121.929 32.2401 121.889 31.8935 121.811 31.5626C121.732 31.2159 121.582 30.9323 121.362 30.7117C121.141 30.4912 120.81 30.3966 120.369 30.4281C119.896 30.4439 119.534 30.5463 119.282 30.7354C119.045 30.9087 118.88 31.1529 118.786 31.468C118.707 31.7674 118.667 32.1377 118.667 32.5788V33.5006L121.929 33.2879V32.6025ZM131.017 25.6304C130.907 25.5831 130.765 25.5516 130.592 25.5358C130.419 25.5201 130.253 25.5122 130.096 25.5122C129.938 25.5122 129.804 25.5437 129.694 25.6067C129.584 25.654 129.489 25.7328 129.41 25.8431C129.331 25.9376 129.268 26.0479 129.221 26.174C129.19 26.3 129.174 26.4418 129.174 26.5994V28.1592H131.23L130.663 30.6172H129.174V40H126.48V27.0012C126.48 26.3394 126.566 25.7722 126.74 25.2995C126.929 24.8111 127.189 24.4093 127.519 24.0942C127.85 23.7633 128.221 23.5269 128.63 23.3851C129.056 23.2276 129.505 23.1488 129.977 23.1488C130.119 23.1488 130.277 23.1567 130.45 23.1724C130.623 23.1882 130.797 23.2118 130.97 23.2433C131.143 23.2591 131.301 23.2827 131.443 23.3142L131.017 25.6304ZM139.339 39.3855C139.245 39.48 139.071 39.5903 138.819 39.7164C138.583 39.8424 138.299 39.9449 137.968 40.0236C137.653 40.1182 137.33 40.1654 136.999 40.1654C136.637 40.1654 136.275 40.126 135.912 40.0473C135.55 39.9685 135.203 39.8424 134.872 39.6691C134.541 39.4958 134.25 39.2595 133.998 38.9601C133.746 38.6607 133.549 38.2905 133.407 37.8493C133.265 37.4081 133.194 36.8803 133.194 36.2658V28.1592H135.841V36.2185C135.841 36.5809 135.896 36.8803 136.007 37.1166C136.117 37.3372 136.275 37.5026 136.479 37.6129C136.7 37.7075 136.968 37.7547 137.283 37.7547C137.551 37.7547 137.811 37.7075 138.063 37.6129C138.315 37.5184 138.536 37.3845 138.725 37.2112C138.914 37.0378 139.063 36.8409 139.174 36.6203C139.284 36.384 139.339 36.124 139.339 35.8404V28.1592H141.939V40H139.339V39.3855ZM152.715 41.5126C152.715 42.3477 152.566 43.0173 152.266 43.5215C151.967 44.0415 151.541 44.4117 150.99 44.6323C150.438 44.8687 149.785 44.9868 149.028 44.9868L148.39 42.9543C148.579 42.9543 148.776 42.9228 148.981 42.8597C149.186 42.8125 149.375 42.7179 149.548 42.5761C149.722 42.4501 149.855 42.2768 149.95 42.0562C150.06 41.8356 150.115 41.5677 150.115 41.2526V39.7164C149.989 39.8109 149.84 39.8976 149.666 39.9764C149.509 40.0394 149.336 40.0945 149.146 40.1418C148.957 40.1891 148.76 40.2206 148.556 40.2363C148.367 40.2679 148.177 40.2836 147.988 40.2836C146.681 40.2836 145.68 39.9055 144.987 39.1492C144.294 38.3771 143.947 37.2663 143.947 35.8167V31.8226C143.947 31.019 144.089 30.3257 144.372 29.7427C144.672 29.1598 145.097 28.7107 145.649 28.3956C146.216 28.0805 146.901 27.9229 147.705 27.9229C148.004 27.9229 148.288 27.9544 148.556 28.0174C148.839 28.0647 149.107 28.1435 149.359 28.2538C149.627 28.3641 149.879 28.5059 150.115 28.6792V28.1592H152.715V41.5126ZM150.115 30.8535C150.115 30.8535 150.06 30.8299 149.95 30.7826C149.84 30.7196 149.69 30.6566 149.501 30.5936C149.328 30.5148 149.131 30.4439 148.91 30.3809C148.705 30.3178 148.508 30.2863 148.319 30.2863C148.099 30.2863 147.878 30.3178 147.658 30.3809C147.453 30.4281 147.264 30.5148 147.09 30.6408C146.933 30.7669 146.807 30.9481 146.712 31.1844C146.618 31.405 146.57 31.6807 146.57 32.0116V36.2185C146.57 36.5179 146.625 36.8015 146.736 37.0694C146.862 37.3372 147.043 37.5499 147.279 37.7075C147.531 37.865 147.839 37.9359 148.201 37.9202C148.532 37.9044 148.816 37.8572 149.052 37.7784C149.288 37.6996 149.485 37.6051 149.643 37.4948C149.8 37.3687 149.919 37.2348 149.997 37.093C150.076 36.9512 150.115 36.8173 150.115 36.6912V30.8535ZM157.35 36.4785C157.35 36.6833 157.381 36.8724 157.444 37.0457C157.508 37.2033 157.594 37.3451 157.704 37.4711C157.815 37.5972 157.957 37.6917 158.13 37.7547C158.303 37.8178 158.492 37.8493 158.697 37.8493C159.123 37.8493 159.603 37.7547 160.139 37.5657C160.69 37.3766 161.21 37.156 161.699 36.9039L162.644 39.1728C162.108 39.5194 161.478 39.7952 160.753 40C160.044 40.2048 159.335 40.3072 158.626 40.3072C158.075 40.3072 157.555 40.2363 157.066 40.0945C156.594 39.9527 156.176 39.74 155.814 39.4564C155.467 39.1728 155.191 38.8104 154.987 38.3692C154.797 37.9281 154.703 37.4081 154.703 36.8094V31.9644C154.703 31.0663 154.892 30.3178 155.27 29.7191C155.664 29.1204 156.192 28.6713 156.854 28.372C157.515 28.0726 158.256 27.9229 159.075 27.9229C159.91 27.9229 160.635 28.0726 161.25 28.372C161.88 28.6556 162.368 29.0967 162.715 29.6955C163.062 30.2784 163.235 31.0111 163.235 31.8935V35.5804L157.35 35.8876V36.4785ZM160.611 32.6025C160.611 32.2401 160.572 31.8935 160.493 31.5626C160.415 31.2159 160.265 30.9323 160.044 30.7117C159.824 30.4912 159.493 30.3966 159.052 30.4281C158.579 30.4439 158.217 30.5463 157.964 30.7354C157.728 30.9087 157.563 31.1529 157.468 31.468C157.389 31.7674 157.35 32.1377 157.35 32.5788V33.5006L160.611 33.2879V32.6025ZM167.782 36.4785C167.782 36.6833 167.814 36.8724 167.877 37.0457C167.94 37.2033 168.026 37.3451 168.137 37.4711C168.247 37.5972 168.389 37.6917 168.562 37.7547C168.735 37.8178 168.925 37.8493 169.129 37.8493C169.555 37.8493 170.035 37.7547 170.571 37.5657C171.123 37.3766 171.643 37.156 172.131 36.9039L173.076 39.1728C172.541 39.5194 171.91 39.7952 171.186 40C170.477 40.2048 169.768 40.3072 169.058 40.3072C168.507 40.3072 167.987 40.2363 167.499 40.0945C167.026 39.9527 166.608 39.74 166.246 39.4564C165.899 39.1728 165.624 38.8104 165.419 38.3692C165.23 37.9281 165.135 37.4081 165.135 36.8094V31.9644C165.135 31.0663 165.324 30.3178 165.702 29.7191C166.096 29.1204 166.624 28.6713 167.286 28.372C167.948 28.0726 168.688 27.9229 169.508 27.9229C170.343 27.9229 171.067 28.0726 171.682 28.372C172.312 28.6556 172.801 29.0967 173.147 29.6955C173.494 30.2784 173.667 31.0111 173.667 31.8935V35.5804L167.782 35.8876V36.4785ZM171.044 32.6025C171.044 32.2401 171.004 31.8935 170.926 31.5626C170.847 31.2159 170.697 30.9323 170.477 30.7117C170.256 30.4912 169.925 30.3966 169.484 30.4281C169.011 30.4439 168.649 30.5463 168.397 30.7354C168.16 30.9087 167.995 31.1529 167.9 31.468C167.822 31.7674 167.782 32.1377 167.782 32.5788V33.5006L171.044 33.2879V32.6025ZM189.149 26.1976C188.85 26.0716 188.495 25.977 188.085 25.914C187.676 25.8352 187.29 25.7958 186.927 25.7958C186.407 25.7958 185.966 25.8667 185.604 26.0085C185.257 26.1503 184.989 26.3709 184.8 26.6703C184.611 26.9697 184.517 27.3636 184.517 27.852V35.604C184.517 36.0925 184.603 36.4864 184.777 36.7857C184.95 37.0694 185.194 37.2821 185.509 37.4239C185.84 37.5499 186.242 37.6129 186.715 37.6129C187.203 37.6129 187.684 37.5657 188.156 37.4711C188.629 37.3766 189.039 37.2742 189.385 37.1639C189.748 37.0536 189.968 36.9906 190.047 36.9748L190.425 39.4564C189.748 39.7085 189.086 39.9055 188.44 40.0473C187.794 40.2048 187.171 40.2836 186.573 40.2836C185.596 40.2836 184.753 40.1103 184.044 39.7637C183.351 39.4013 182.815 38.8734 182.437 38.1802C182.074 37.4869 181.893 36.6439 181.893 35.6513V27.9229C181.893 26.883 182.09 26.0085 182.484 25.2995C182.894 24.5905 183.437 24.0626 184.115 23.716C184.808 23.3536 185.588 23.1724 186.455 23.1724C187.022 23.1724 187.589 23.2433 188.156 23.3851C188.723 23.5112 189.291 23.716 189.858 23.9996L189.149 26.1976ZM192.351 40V23.456H194.975V40H192.351ZM203.484 32.0825C203.484 31.6256 203.437 31.2475 203.342 30.9481C203.247 30.6487 203.098 30.4124 202.893 30.2391C202.688 30.0657 202.428 29.9397 202.113 29.8609C201.798 29.7821 201.412 29.7427 200.955 29.7427L201.168 27.9465C202.066 27.9465 202.822 28.0253 203.437 28.1829C204.067 28.3404 204.571 28.6083 204.949 28.9864C205.343 29.3488 205.627 29.8373 205.8 30.4518C205.989 31.0663 206.084 31.8304 206.084 32.7443V40C205.831 40.0315 205.571 40.063 205.304 40.0945C205.036 40.126 204.76 40.1497 204.476 40.1654C204.209 40.197 203.925 40.2127 203.626 40.2127C203.342 40.2285 203.051 40.2363 202.751 40.2363C202.452 40.2521 202.145 40.26 201.829 40.26C201.152 40.26 200.522 40.197 199.939 40.0709C199.356 39.9449 198.836 39.7321 198.379 39.4328C197.938 39.1177 197.591 38.708 197.339 38.2038C197.087 37.6996 196.961 37.0694 196.961 36.3131V34.0205C196.961 33.4218 197.047 32.9018 197.221 32.4607C197.394 32.0195 197.63 31.6571 197.93 31.3735C198.229 31.0899 198.568 30.8772 198.946 30.7354C199.34 30.5936 199.75 30.5227 200.175 30.5227C200.569 30.5227 200.979 30.5857 201.404 30.7117C201.829 30.822 202.223 30.9954 202.586 31.2317C202.964 31.4523 203.263 31.7359 203.484 32.0825ZM203.484 34.0205C203.405 33.9575 203.224 33.863 202.94 33.7369C202.672 33.6109 202.357 33.4927 201.995 33.3824C201.632 33.2564 201.27 33.1933 200.908 33.1933C200.734 33.1933 200.569 33.217 200.411 33.2642C200.254 33.2958 200.112 33.3588 199.986 33.4533C199.876 33.5321 199.781 33.6503 199.702 33.8078C199.639 33.9496 199.608 34.1308 199.608 34.3514V35.8876C199.608 36.187 199.631 36.4549 199.679 36.6912C199.742 36.9275 199.852 37.1324 200.01 37.3057C200.183 37.479 200.427 37.6129 200.742 37.7075C201.073 37.802 201.506 37.8493 202.042 37.8493C202.121 37.8493 202.215 37.8493 202.326 37.8493C202.452 37.8335 202.578 37.8256 202.704 37.8256C202.846 37.8099 202.972 37.802 203.082 37.802C203.208 37.7863 203.303 37.7784 203.366 37.7784C203.444 37.7626 203.484 37.7547 203.484 37.7547V34.0205ZM208.117 40V28.1592H210.74V40H208.117ZM209.44 23.2197C209.834 23.2197 210.165 23.3457 210.433 23.5978C210.717 23.8499 210.858 24.1808 210.858 24.5905C210.858 24.9844 210.717 25.3231 210.433 25.6067C210.165 25.8746 209.834 26.0085 209.44 26.0085C209.046 26.0085 208.708 25.8746 208.424 25.6067C208.156 25.3231 208.022 24.9844 208.022 24.5905C208.022 24.1808 208.156 23.8499 208.424 23.5978C208.708 23.3457 209.046 23.2197 209.44 23.2197ZM225.444 31.9171C225.444 31.6807 225.396 31.468 225.302 31.279C225.207 31.0741 225.073 30.9087 224.9 30.7826C224.727 30.6408 224.53 30.5305 224.309 30.4518C224.089 30.373 223.852 30.3336 223.6 30.3336C223.458 30.3336 223.277 30.3572 223.057 30.4045C222.852 30.436 222.623 30.499 222.371 30.5936C222.135 30.6724 221.891 30.7748 221.639 30.9008C221.67 31.0426 221.686 31.1923 221.686 31.3499C221.702 31.5074 221.709 31.6729 221.709 31.8462V40H219.11V31.9171C219.11 31.6807 219.062 31.468 218.968 31.279C218.873 31.0741 218.747 30.9087 218.59 30.7826C218.432 30.6408 218.243 30.5305 218.023 30.4518C217.802 30.373 217.566 30.3336 217.314 30.3336C217.14 30.3336 216.951 30.3572 216.746 30.4045C216.541 30.436 216.329 30.499 216.108 30.5936C215.888 30.6724 215.659 30.7748 215.423 30.9008V40H212.799V28.1592H215.423V28.7265C215.549 28.6477 215.73 28.5531 215.966 28.4429C216.218 28.3168 216.494 28.2065 216.794 28.112C217.109 28.0174 217.432 27.9702 217.763 27.9702C218.141 27.9702 218.511 28.0096 218.873 28.0883C219.236 28.1514 219.582 28.2695 219.913 28.4429C220.26 28.6004 220.559 28.821 220.811 29.1046C221.095 28.9155 221.394 28.7343 221.709 28.561C222.04 28.3877 222.403 28.2459 222.797 28.1356C223.191 28.0253 223.616 27.9702 224.073 27.9702C224.546 27.9702 225.01 28.0332 225.467 28.1592C225.94 28.2695 226.365 28.4744 226.744 28.7737C227.137 29.0573 227.453 29.4513 227.689 29.9554C227.925 30.4596 228.043 31.0899 228.043 31.8462V40H225.444V31.9171ZM247.872 40H244.752L243.807 35.6513H240.002L239.056 40H236.102L240.12 23.456H243.783L247.872 40ZM240.64 32.8861H243.216L241.916 26.8357L240.64 32.8861ZM258.542 35.8167C258.542 37.2663 258.204 38.3771 257.526 39.1492C256.849 39.9055 255.856 40.2836 254.548 40.2836C254.296 40.2836 254.036 40.26 253.768 40.2127C253.516 40.1654 253.272 40.0945 253.036 40C252.815 39.9212 252.61 39.8267 252.421 39.7164V45.0577L249.798 44.5378V28.1592H252.421V28.6792C252.516 28.5847 252.697 28.4822 252.965 28.372C253.233 28.2459 253.532 28.1435 253.863 28.0647C254.209 27.9702 254.532 27.9229 254.832 27.9229C255.635 27.9229 256.313 28.0805 256.864 28.3956C257.416 28.7107 257.833 29.1598 258.117 29.7427C258.401 30.3257 258.542 31.019 258.542 31.8226V35.8167ZM255.943 32.0116C255.943 31.6807 255.895 31.405 255.801 31.1844C255.706 30.9481 255.572 30.7669 255.399 30.6408C255.241 30.5148 255.06 30.4281 254.855 30.3809C254.651 30.3178 254.438 30.2863 254.217 30.2863C253.965 30.2863 253.705 30.3336 253.437 30.4281C253.185 30.5069 252.965 30.5936 252.776 30.6881C252.602 30.7669 252.484 30.822 252.421 30.8535V36.6912C252.421 36.9118 252.484 37.1009 252.61 37.2584C252.752 37.416 252.925 37.542 253.13 37.6366C253.351 37.7311 253.571 37.802 253.792 37.8493C254.028 37.8966 254.241 37.9202 254.43 37.9202C254.761 37.9202 255.037 37.8493 255.257 37.7075C255.478 37.5657 255.643 37.3687 255.754 37.1166C255.88 36.8488 255.943 36.5494 255.943 36.2185V32.0116ZM269.298 35.8167C269.298 37.2663 268.959 38.3771 268.282 39.1492C267.604 39.9055 266.611 40.2836 265.304 40.2836C265.051 40.2836 264.792 40.26 264.524 40.2127C264.272 40.1654 264.027 40.0945 263.791 40C263.57 39.9212 263.366 39.8267 263.177 39.7164V45.0577L260.553 44.5378V28.1592H263.177V28.6792C263.271 28.5847 263.452 28.4822 263.72 28.372C263.988 28.2459 264.287 28.1435 264.618 28.0647C264.965 27.9702 265.288 27.9229 265.587 27.9229C266.391 27.9229 267.068 28.0805 267.62 28.3956C268.171 28.7107 268.589 29.1598 268.872 29.7427C269.156 30.3257 269.298 31.019 269.298 31.8226V35.8167ZM266.698 32.0116C266.698 31.6807 266.651 31.405 266.556 31.1844C266.462 30.9481 266.328 30.7669 266.154 30.6408C265.997 30.5148 265.816 30.4281 265.611 30.3809C265.406 30.3178 265.193 30.2863 264.973 30.2863C264.721 30.2863 264.461 30.3336 264.193 30.4281C263.941 30.5069 263.72 30.5936 263.531 30.6881C263.358 30.7669 263.24 30.822 263.177 30.8535V36.6912C263.177 36.9118 263.24 37.1009 263.366 37.2584C263.507 37.416 263.681 37.542 263.886 37.6366C264.106 37.7311 264.327 37.802 264.547 37.8493C264.784 37.8966 264.996 37.9202 265.185 37.9202C265.516 37.9202 265.792 37.8493 266.013 37.7075C266.233 37.5657 266.399 37.3687 266.509 37.1166C266.635 36.8488 266.698 36.5494 266.698 36.2185V32.0116ZM271.286 40V23.456H273.909V40H271.286ZM276.065 40V28.1592H278.689V40H276.065ZM277.389 23.2197C277.783 23.2197 278.114 23.3457 278.381 23.5978C278.665 23.8499 278.807 24.1808 278.807 24.5905C278.807 24.9844 278.665 25.3231 278.381 25.6067C278.114 25.8746 277.783 26.0085 277.389 26.0085C276.995 26.0085 276.656 25.8746 276.373 25.6067C276.105 25.3231 275.971 24.9844 275.971 24.5905C275.971 24.1808 276.105 23.8499 276.373 23.5978C276.656 23.3457 276.995 23.2197 277.389 23.2197ZM287.67 30.7117C287.386 30.5699 287.071 30.4518 286.725 30.3572C286.394 30.2469 286.055 30.1839 285.708 30.1682C285.251 30.1366 284.834 30.1918 284.456 30.3336C284.093 30.4596 283.802 30.6724 283.581 30.9717C283.376 31.2711 283.274 31.665 283.274 32.1534V35.864C283.274 36.2264 283.329 36.5494 283.439 36.833C283.565 37.1009 283.739 37.3215 283.959 37.4948C284.18 37.6681 284.44 37.802 284.739 37.8966C285.039 37.9753 285.369 38.0147 285.732 38.0147C285.984 38.0147 286.236 38.0068 286.488 37.9911C286.74 37.9596 286.969 37.9281 287.174 37.8966C287.378 37.8493 287.536 37.8178 287.646 37.802C287.772 37.7705 287.835 37.7547 287.835 37.7547L288.308 39.8818C287.82 40.0079 287.315 40.1103 286.795 40.1891C286.275 40.2679 285.748 40.2994 285.212 40.2836C284.314 40.2521 283.518 40.0867 282.825 39.7873C282.147 39.4722 281.62 38.9995 281.241 38.3692C280.863 37.7232 280.674 36.896 280.674 35.8876V32.437C280.674 31.5389 280.847 30.7511 281.194 30.0736C281.541 29.3803 282.045 28.8368 282.707 28.4429C283.384 28.049 284.211 27.8678 285.188 27.8993C285.708 27.915 286.228 27.9938 286.748 28.1356C287.268 28.2774 287.772 28.4586 288.261 28.6792L287.67 30.7117ZM296.059 32.0825C296.059 31.6256 296.012 31.2475 295.917 30.9481C295.823 30.6487 295.673 30.4124 295.468 30.2391C295.263 30.0657 295.003 29.9397 294.688 29.8609C294.373 29.7821 293.987 29.7427 293.53 29.7427L293.743 27.9465C294.641 27.9465 295.397 28.0253 296.012 28.1829C296.642 28.3404 297.146 28.6083 297.524 28.9864C297.918 29.3488 298.202 29.8373 298.375 30.4518C298.564 31.0663 298.659 31.8304 298.659 32.7443V40C298.407 40.0315 298.147 40.063 297.879 40.0945C297.611 40.126 297.335 40.1497 297.052 40.1654C296.784 40.197 296.5 40.2127 296.201 40.2127C295.917 40.2285 295.626 40.2363 295.326 40.2363C295.027 40.2521 294.72 40.26 294.405 40.26C293.727 40.26 293.097 40.197 292.514 40.0709C291.931 39.9449 291.411 39.7321 290.954 39.4328C290.513 39.1177 290.166 38.708 289.914 38.2038C289.662 37.6996 289.536 37.0694 289.536 36.3131V34.0205C289.536 33.4218 289.623 32.9018 289.796 32.4607C289.969 32.0195 290.206 31.6571 290.505 31.3735C290.804 31.0899 291.143 30.8772 291.521 30.7354C291.915 30.5936 292.325 30.5227 292.75 30.5227C293.144 30.5227 293.554 30.5857 293.979 30.7117C294.405 30.822 294.798 30.9954 295.161 31.2317C295.539 31.4523 295.838 31.7359 296.059 32.0825ZM296.059 34.0205C295.98 33.9575 295.799 33.863 295.515 33.7369C295.247 33.6109 294.932 33.4927 294.57 33.3824C294.208 33.2564 293.845 33.1933 293.483 33.1933C293.309 33.1933 293.144 33.217 292.986 33.2642C292.829 33.2958 292.687 33.3588 292.561 33.4533C292.451 33.5321 292.356 33.6503 292.277 33.8078C292.214 33.9496 292.183 34.1308 292.183 34.3514V35.8876C292.183 36.187 292.207 36.4549 292.254 36.6912C292.317 36.9275 292.427 37.1324 292.585 37.3057C292.758 37.479 293.002 37.6129 293.317 37.7075C293.648 37.802 294.082 37.8493 294.617 37.8493C294.696 37.8493 294.791 37.8493 294.901 37.8493C295.027 37.8335 295.153 37.8256 295.279 37.8256C295.421 37.8099 295.547 37.802 295.657 37.802C295.783 37.7863 295.878 37.7784 295.941 37.7784C296.02 37.7626 296.059 37.7547 296.059 37.7547V34.0205ZM303.337 36.8803C303.337 37.2269 303.408 37.5026 303.55 37.7075C303.691 37.8966 303.888 38.0305 304.14 38.1093C304.408 38.188 304.723 38.2274 305.086 38.2274L304.306 40.3072C303.108 40.2757 302.202 39.9764 301.588 39.4091C300.989 38.8262 300.69 37.9832 300.69 36.8803V23.456H303.337V28.1829H305.606L305.062 30.5699H303.337V36.8803ZM307.524 40V28.1592H310.147V40H307.524ZM308.847 23.2197C309.241 23.2197 309.572 23.3457 309.84 23.5978C310.124 23.8499 310.265 24.1808 310.265 24.5905C310.265 24.9844 310.124 25.3231 309.84 25.6067C309.572 25.8746 309.241 26.0085 308.847 26.0085C308.453 26.0085 308.115 25.8746 307.831 25.6067C307.563 25.3231 307.429 24.9844 307.429 24.5905C307.429 24.1808 307.563 23.8499 307.831 23.5978C308.115 23.3457 308.453 23.2197 308.847 23.2197ZM320.9 35.6277C320.9 37.0142 320.546 38.1329 319.837 38.9837C319.128 39.8188 318.049 40.2363 316.599 40.2363C315.559 40.2363 314.708 40.0236 314.046 39.5982C313.4 39.157 312.92 38.5898 312.605 37.8966C312.305 37.1875 312.156 36.4312 312.156 35.6277V32.5079C312.156 31.4996 312.321 30.6566 312.652 29.9791C312.999 29.3016 313.503 28.7895 314.165 28.4429C314.826 28.0805 315.638 27.8993 316.599 27.8993C317.97 27.8993 319.025 28.3089 319.766 29.1282C320.522 29.9318 320.9 31.0584 320.9 32.5079V35.6277ZM318.23 32.3661C318.23 31.988 318.167 31.665 318.041 31.3971C317.915 31.1135 317.726 30.9008 317.473 30.759C317.237 30.6014 316.938 30.5227 316.575 30.5227C316.197 30.5227 315.874 30.5936 315.606 30.7354C315.354 30.8772 315.157 31.082 315.015 31.3499C314.874 31.6177 314.803 31.9565 314.803 32.3661V35.8167C314.803 36.1319 314.858 36.4312 314.968 36.7148C315.094 36.9985 315.291 37.2269 315.559 37.4002C315.827 37.5736 316.166 37.6602 316.575 37.6602C316.969 37.6602 317.284 37.5814 317.521 37.4239C317.773 37.2663 317.954 37.0457 318.064 36.7621C318.175 36.4785 318.23 36.1634 318.23 35.8167V32.3661ZM329.015 31.8935C329.015 31.6729 328.975 31.468 328.897 31.279C328.818 31.0741 328.7 30.9008 328.542 30.759C328.4 30.6172 328.227 30.5069 328.022 30.4281C327.817 30.3494 327.589 30.31 327.337 30.31C327.164 30.31 326.974 30.3257 326.77 30.3572C326.581 30.3887 326.376 30.4518 326.155 30.5463C325.935 30.6251 325.698 30.7354 325.446 30.8772V40.0236H322.846V28.1592H325.446V28.7028C325.588 28.6241 325.777 28.5295 326.013 28.4192C326.265 28.2932 326.541 28.1829 326.841 28.0883C327.156 27.9938 327.479 27.9465 327.81 27.9465C328.188 27.9465 328.558 27.9859 328.92 28.0647C329.283 28.1435 329.621 28.2695 329.937 28.4429C330.267 28.6162 330.551 28.8525 330.787 29.1519C331.04 29.4355 331.236 29.7979 331.378 30.2391C331.52 30.6802 331.591 31.2081 331.591 31.8226V40.0236H329.015V31.8935Z" fill="black"/>
<path d="M432.557 31.5303C432.85 31.2374 432.85 30.7626 432.557 30.4697L427.784 25.6967C427.491 25.4038 427.016 25.4038 426.723 25.6967C426.431 25.9896 426.431 26.4645 426.723 26.7574L430.966 31L426.723 35.2426C426.431 35.5355 426.431 36.0104 426.723 36.3033C427.016 36.5962 427.491 36.5962 427.784 36.3033L432.557 31.5303ZM431.008 31V31.75H432.027V31V30.25H431.008V31Z" fill="black"/>
<defs>
<filter id="filter0_d_160_389" x="-7.53403e-05" y="0" width="497.016" height="103.564" filterUnits="userSpaceOnUse" color-interpolation-filters="sRGB">
<feFlood flood-opacity="0" result="BackgroundImageFix"/>
<feColorMatrix in="SourceAlpha" type="matrix" values="0 0 0 0 0 0 0 0 0 0 0 0 0 0 0 0 0 0 127 0" result="hardAlpha"/>
<feMorphology radius="14.7337" operator="erode" in="SourceAlpha" result="effect1_dropShadow_160_389"/>
<feOffset dy="24.5562"/>
<feGaussianBlur stdDeviation="16.3708"/>
<feColorMatrix type="matrix" values="0 0 0 0 0.583333 0 0 0 0 0.583333 0 0 0 0 0.583333 0 0 0 0.25 0"/>
<feBlend mode="normal" in2="BackgroundImageFix" result="effect1_dropShadow_160_389"/>
<feBlend mode="normal" in="SourceGraphic" in2="effect1_dropShadow_160_389" result="shape"/>
</filter>
</defs>
</svg>
