<svg width="498" height="104" viewBox="0 0 498 104" fill="none" xmlns="http://www.w3.org/2000/svg">
<g filter="url(#filter0_d_160_393)">
<rect x="18.0078" width="461" height="61" rx="4.91124" fill="white"/>
</g>
<path d="M103.48 25.9376V23.456H107.687V40H105.064V25.9849L103.48 25.9376ZM114.853 23.456C115.467 23.456 116.082 23.5427 116.696 23.716C117.311 23.8893 117.87 24.1887 118.375 24.6141C118.879 25.0395 119.28 25.6383 119.58 26.4103C119.879 27.1666 120.029 28.1277 120.029 29.2937C120.029 30.2233 119.942 31.0269 119.769 31.7044C119.611 32.3819 119.383 32.9491 119.084 33.406C118.8 33.863 118.469 34.2254 118.091 34.4932L120.123 40H117.335L115.704 35.3441C115.609 35.3598 115.515 35.3677 115.42 35.3677C115.326 35.3677 115.231 35.3677 115.137 35.3677C115.042 35.3677 114.948 35.3677 114.853 35.3677H112.324V40H109.701V23.456H114.853ZM113.884 32.8861C114.498 32.8861 115.026 32.8467 115.467 32.7679C115.909 32.6891 116.271 32.5316 116.555 32.2952C116.838 32.0431 117.043 31.6807 117.169 31.2081C117.311 30.7354 117.382 30.0973 117.382 29.2937C117.382 28.5531 117.311 27.9702 117.169 27.5448C117.043 27.1036 116.838 26.7806 116.555 26.5758C116.271 26.3552 115.909 26.2134 115.467 26.1503C115.026 26.0873 114.498 26.0558 113.884 26.0558H112.324V32.8861H113.884ZM126.801 23.456C127.715 23.456 128.511 23.6215 129.188 23.9523C129.882 24.2832 130.417 24.7638 130.796 25.394C131.174 26.0085 131.363 26.7569 131.363 27.6393C131.363 28.1277 131.3 28.5768 131.174 28.9864C131.063 29.3961 130.89 29.7664 130.654 30.0973C130.417 30.4281 130.126 30.7196 129.779 30.9717C130.252 31.1765 130.67 31.468 131.032 31.8462C131.41 32.2243 131.702 32.6891 131.906 33.2406C132.127 33.7763 132.237 34.4066 132.237 35.1313C132.237 36.1082 132.04 36.9669 131.646 37.7075C131.253 38.4323 130.677 38.9995 129.921 39.4091C129.181 39.803 128.259 40 127.156 40H121.956V23.456H126.801ZM125.714 30.2154C126.329 30.2154 126.825 30.1524 127.203 30.0263C127.597 29.8845 127.881 29.6561 128.054 29.341C128.243 29.0101 128.338 28.5689 128.338 28.0174C128.338 27.529 128.251 27.143 128.078 26.8594C127.904 26.5758 127.636 26.3709 127.274 26.2449C126.927 26.1188 126.486 26.0558 125.951 26.0558H124.58V30.2154H125.714ZM126.471 37.5893C126.864 37.5893 127.274 37.5263 127.7 37.4002C128.125 37.2584 128.487 37.0063 128.787 36.6439C129.086 36.2815 129.236 35.7616 129.236 35.0841C129.236 34.5484 129.125 34.1072 128.905 33.7606C128.684 33.4139 128.353 33.1539 127.912 32.9806C127.471 32.8073 126.912 32.7207 126.234 32.7207H124.58V37.5893H126.471ZM140.417 32.7443V30.2154H149.304V32.7443H140.417ZM165.341 30.2154V23.456H167.941V40H165.341V32.697H160.354V40H157.731V23.456H160.354V30.2154H165.341ZM172.583 36.4785C172.583 36.6833 172.614 36.8724 172.677 37.0457C172.741 37.2033 172.827 37.3451 172.937 37.4711C173.048 37.5972 173.19 37.6917 173.363 37.7547C173.536 37.8178 173.725 37.8493 173.93 37.8493C174.356 37.8493 174.836 37.7547 175.372 37.5657C175.923 37.3766 176.443 37.156 176.932 36.9039L177.877 39.1728C177.341 39.5194 176.711 39.7952 175.986 40C175.277 40.2048 174.568 40.3072 173.859 40.3072C173.308 40.3072 172.788 40.2363 172.299 40.0945C171.827 39.9527 171.409 39.74 171.047 39.4564C170.7 39.1728 170.424 38.8104 170.22 38.3692C170.03 37.9281 169.936 37.4081 169.936 36.8094V31.9644C169.936 31.0663 170.125 30.3178 170.503 29.7191C170.897 29.1204 171.425 28.6713 172.087 28.372C172.748 28.0726 173.489 27.9229 174.308 27.9229C175.143 27.9229 175.868 28.0726 176.483 28.372C177.113 28.6556 177.601 29.0967 177.948 29.6955C178.295 30.2784 178.468 31.0111 178.468 31.8935V35.5804L172.583 35.8876V36.4785ZM175.844 32.6025C175.844 32.2401 175.805 31.8935 175.726 31.5626C175.648 31.2159 175.498 30.9323 175.277 30.7117C175.057 30.4912 174.726 30.3966 174.285 30.4281C173.812 30.4439 173.45 30.5463 173.197 30.7354C172.961 30.9087 172.796 31.1529 172.701 31.468C172.622 31.7674 172.583 32.1377 172.583 32.5788V33.5006L175.844 33.2879V32.6025ZM186.866 32.0825C186.866 31.6256 186.819 31.2475 186.724 30.9481C186.63 30.6487 186.48 30.4124 186.275 30.2391C186.07 30.0657 185.81 29.9397 185.495 29.8609C185.18 29.7821 184.794 29.7427 184.337 29.7427L184.55 27.9465C185.448 27.9465 186.204 28.0253 186.819 28.1829C187.449 28.3404 187.953 28.6083 188.331 28.9864C188.725 29.3488 189.009 29.8373 189.182 30.4518C189.371 31.0663 189.466 31.8304 189.466 32.7443V40C189.214 40.0315 188.954 40.063 188.686 40.0945C188.418 40.126 188.142 40.1497 187.859 40.1654C187.591 40.197 187.307 40.2127 187.008 40.2127C186.724 40.2285 186.433 40.2363 186.133 40.2363C185.834 40.2521 185.527 40.26 185.212 40.26C184.534 40.26 183.904 40.197 183.321 40.0709C182.738 39.9449 182.218 39.7321 181.761 39.4328C181.32 39.1177 180.973 38.708 180.721 38.2038C180.469 37.6996 180.343 37.0694 180.343 36.3131V34.0205C180.343 33.4218 180.43 32.9018 180.603 32.4607C180.776 32.0195 181.013 31.6571 181.312 31.3735C181.611 31.0899 181.95 30.8772 182.328 30.7354C182.722 30.5936 183.132 30.5227 183.557 30.5227C183.951 30.5227 184.361 30.5857 184.786 30.7117C185.212 30.822 185.605 30.9954 185.968 31.2317C186.346 31.4523 186.645 31.7359 186.866 32.0825ZM186.866 34.0205C186.787 33.9575 186.606 33.863 186.322 33.7369C186.055 33.6109 185.739 33.4927 185.377 33.3824C185.015 33.2564 184.652 33.1933 184.29 33.1933C184.117 33.1933 183.951 33.217 183.794 33.2642C183.636 33.2958 183.494 33.3588 183.368 33.4533C183.258 33.5321 183.163 33.6503 183.084 33.8078C183.021 33.9496 182.99 34.1308 182.99 34.3514V35.8876C182.99 36.187 183.014 36.4549 183.061 36.6912C183.124 36.9275 183.234 37.1324 183.392 37.3057C183.565 37.479 183.809 37.6129 184.124 37.7075C184.455 37.802 184.889 37.8493 185.424 37.8493C185.503 37.8493 185.598 37.8493 185.708 37.8493C185.834 37.8335 185.96 37.8256 186.086 37.8256C186.228 37.8099 186.354 37.802 186.464 37.802C186.59 37.7863 186.685 37.7784 186.748 37.7784C186.827 37.7626 186.866 37.7547 186.866 37.7547V34.0205ZM198.421 30.31C198.421 30.31 198.319 30.2863 198.114 30.2391C197.925 30.176 197.618 30.1445 197.192 30.1445C196.94 30.1445 196.68 30.1603 196.412 30.1918C196.144 30.2075 195.876 30.2469 195.609 30.31C195.357 30.3572 195.104 30.4203 194.852 30.499C194.6 30.5778 194.356 30.6802 194.12 30.8063V40H191.496V28.1592H194.12V28.6319C194.514 28.3641 194.955 28.1592 195.443 28.0174C195.932 27.8756 196.428 27.8047 196.932 27.8047C197.295 27.8047 197.633 27.8441 197.948 27.9229C198.264 27.9859 198.547 28.0647 198.799 28.1592L198.421 30.31ZM200.708 40V28.1592H203.331V40H200.708ZM202.032 23.2197C202.425 23.2197 202.756 23.3457 203.024 23.5978C203.308 23.8499 203.45 24.1808 203.45 24.5905C203.45 24.9844 203.308 25.3231 203.024 25.6067C202.756 25.8746 202.425 26.0085 202.032 26.0085C201.638 26.0085 201.299 25.8746 201.015 25.6067C200.747 25.3231 200.614 24.9844 200.614 24.5905C200.614 24.1808 200.747 23.8499 201.015 23.5978C201.299 23.3457 201.638 23.2197 202.032 23.2197ZM211.559 31.8935C211.559 31.6729 211.52 31.468 211.441 31.279C211.362 31.0741 211.244 30.9008 211.086 30.759C210.945 30.6172 210.771 30.5069 210.567 30.4281C210.362 30.3494 210.133 30.31 209.881 30.31C209.708 30.31 209.519 30.3257 209.314 30.3572C209.125 30.3887 208.92 30.4518 208.699 30.5463C208.479 30.6251 208.242 30.7354 207.99 30.8772V40.0236H205.391V28.1592H207.99V28.7028C208.132 28.6241 208.321 28.5295 208.558 28.4192C208.81 28.2932 209.085 28.1829 209.385 28.0883C209.7 27.9938 210.023 27.9465 210.354 27.9465C210.732 27.9465 211.102 27.9859 211.465 28.0647C211.827 28.1435 212.166 28.2695 212.481 28.4429C212.812 28.6162 213.095 28.8525 213.332 29.1519C213.584 29.4355 213.781 29.7979 213.923 30.2391C214.064 30.6802 214.135 31.2081 214.135 31.8226V40.0236H211.559V31.8935ZM224.887 41.5126C224.887 42.3477 224.738 43.0173 224.438 43.5215C224.139 44.0415 223.714 44.4117 223.162 44.6323C222.611 44.8687 221.957 44.9868 221.2 44.9868L220.562 42.9543C220.751 42.9543 220.948 42.9228 221.153 42.8597C221.358 42.8125 221.547 42.7179 221.72 42.5761C221.894 42.4501 222.028 42.2768 222.122 42.0562C222.232 41.8356 222.288 41.5677 222.288 41.2526V39.7164C222.162 39.8109 222.012 39.8976 221.839 39.9764C221.681 40.0394 221.508 40.0945 221.319 40.1418C221.13 40.1891 220.933 40.2206 220.728 40.2363C220.539 40.2679 220.35 40.2836 220.161 40.2836C218.853 40.2836 217.852 39.9055 217.159 39.1492C216.466 38.3771 216.119 37.2663 216.119 35.8167V31.8226C216.119 31.019 216.261 30.3257 216.544 29.7427C216.844 29.1598 217.269 28.7107 217.821 28.3956C218.388 28.0805 219.073 27.9229 219.877 27.9229C220.176 27.9229 220.46 27.9544 220.728 28.0174C221.011 28.0647 221.279 28.1435 221.531 28.2538C221.799 28.3641 222.051 28.5059 222.288 28.6792V28.1592H224.887V41.5126ZM222.288 30.8535C222.288 30.8535 222.232 30.8299 222.122 30.7826C222.012 30.7196 221.862 30.6566 221.673 30.5936C221.5 30.5148 221.303 30.4439 221.082 30.3809C220.877 30.3178 220.68 30.2863 220.491 30.2863C220.271 30.2863 220.05 30.3178 219.83 30.3809C219.625 30.4281 219.436 30.5148 219.262 30.6408C219.105 30.7669 218.979 30.9481 218.884 31.1844C218.79 31.405 218.742 31.6807 218.742 32.0116V36.2185C218.742 36.5179 218.798 36.8015 218.908 37.0694C219.034 37.3372 219.215 37.5499 219.452 37.7075C219.704 37.865 220.011 37.9359 220.373 37.9202C220.704 37.9044 220.988 37.8572 221.224 37.7784C221.46 37.6996 221.657 37.6051 221.815 37.4948C221.972 37.3687 222.091 37.2348 222.169 37.093C222.248 36.9512 222.288 36.8173 222.288 36.6912V30.8535ZM241.541 26.0558H238.516C238.059 26.0558 237.657 26.1582 237.31 26.363C236.964 26.5521 236.79 26.8751 236.79 27.332C236.79 27.6787 236.853 28.0017 236.979 28.301C237.105 28.5847 237.279 28.8525 237.499 29.1046C237.72 29.3567 237.956 29.5931 238.208 29.8136C238.476 30.0342 238.752 30.2469 239.036 30.4518H239.319V27.9938H241.919V30.4518H244.282L243.739 32.7443H241.919V36.7621C241.919 37.2978 242.092 37.6602 242.439 37.8493C242.786 38.0226 243.227 38.1093 243.762 38.1093L242.959 40.1891C242.234 40.1733 241.62 40.0551 241.115 39.8346C240.627 39.614 240.225 39.291 239.91 38.8656C239.658 39.1019 239.366 39.3146 239.036 39.5037C238.705 39.677 238.366 39.8109 238.019 39.9055C237.688 40 237.358 40.0473 237.027 40.0473C236.664 40.0473 236.302 40.0079 235.94 39.9291C235.577 39.8503 235.23 39.7243 234.9 39.5509C234.569 39.3776 234.277 39.1413 234.025 38.8419C233.773 38.5426 233.568 38.1723 233.411 37.7311C233.269 37.2899 233.198 36.77 233.198 36.1713V33.926C233.198 33.3115 233.269 32.7916 233.411 32.3661C233.552 31.925 233.749 31.5626 234.002 31.279C234.269 30.9954 234.584 30.7905 234.947 30.6645C235.309 30.5227 235.711 30.4518 236.152 30.4518H236.483C236.042 30.1997 235.648 29.9003 235.301 29.5537C234.955 29.1913 234.679 28.7895 234.474 28.3483C234.285 27.8914 234.191 27.3951 234.191 26.8594C234.191 26.1818 234.364 25.5831 234.711 25.0632C235.057 24.5432 235.522 24.1414 236.105 23.8578C236.704 23.5584 237.358 23.4088 238.067 23.4088H242.037L241.541 26.0558ZM239.319 32.6498H237.239C237.05 32.6498 236.869 32.6734 236.696 32.7207C236.522 32.7522 236.365 32.8152 236.223 32.9097C236.097 33.0043 235.995 33.1303 235.916 33.2879C235.837 33.4454 235.798 33.6424 235.798 33.8787V36.1004C235.798 36.3997 235.861 36.6676 235.987 36.9039C236.129 37.1403 236.318 37.3293 236.554 37.4711C236.806 37.5972 237.098 37.6602 237.428 37.6602C237.744 37.6602 238.043 37.5972 238.327 37.4711C238.61 37.3293 238.847 37.1403 239.036 36.9039C239.225 36.6518 239.319 36.3603 239.319 36.0294V32.6498ZM263.982 40H260.862L259.917 35.6513H256.112L255.167 40H252.212L256.23 23.456H259.893L263.982 40ZM256.75 32.8861H259.326L258.026 26.8357L256.75 32.8861ZM274.652 35.8167C274.652 37.2663 274.314 38.3771 273.636 39.1492C272.959 39.9055 271.966 40.2836 270.658 40.2836C270.406 40.2836 270.146 40.26 269.878 40.2127C269.626 40.1654 269.382 40.0945 269.146 40C268.925 39.9212 268.72 39.8267 268.531 39.7164V45.0577L265.908 44.5378V28.1592H268.531V28.6792C268.626 28.5847 268.807 28.4822 269.075 28.372C269.343 28.2459 269.642 28.1435 269.973 28.0647C270.319 27.9702 270.642 27.9229 270.942 27.9229C271.745 27.9229 272.423 28.0805 272.974 28.3956C273.526 28.7107 273.943 29.1598 274.227 29.7427C274.511 30.3257 274.652 31.019 274.652 31.8226V35.8167ZM272.053 32.0116C272.053 31.6807 272.005 31.405 271.911 31.1844C271.816 30.9481 271.682 30.7669 271.509 30.6408C271.351 30.5148 271.17 30.4281 270.965 30.3809C270.761 30.3178 270.548 30.2863 270.327 30.2863C270.075 30.2863 269.815 30.3336 269.547 30.4281C269.295 30.5069 269.075 30.5936 268.886 30.6881C268.712 30.7669 268.594 30.822 268.531 30.8535V36.6912C268.531 36.9118 268.594 37.1009 268.72 37.2584C268.862 37.416 269.035 37.542 269.24 37.6366C269.461 37.7311 269.681 37.802 269.902 37.8493C270.138 37.8966 270.351 37.9202 270.54 37.9202C270.871 37.9202 271.147 37.8493 271.367 37.7075C271.588 37.5657 271.753 37.3687 271.864 37.1166C271.99 36.8488 272.053 36.5494 272.053 36.2185V32.0116ZM285.408 35.8167C285.408 37.2663 285.069 38.3771 284.392 39.1492C283.714 39.9055 282.721 40.2836 281.414 40.2836C281.162 40.2836 280.902 40.26 280.634 40.2127C280.382 40.1654 280.137 40.0945 279.901 40C279.68 39.9212 279.476 39.8267 279.287 39.7164V45.0577L276.663 44.5378V28.1592H279.287V28.6792C279.381 28.5847 279.562 28.4822 279.83 28.372C280.098 28.2459 280.397 28.1435 280.728 28.0647C281.075 27.9702 281.398 27.9229 281.697 27.9229C282.501 27.9229 283.178 28.0805 283.73 28.3956C284.281 28.7107 284.699 29.1598 284.982 29.7427C285.266 30.3257 285.408 31.019 285.408 31.8226V35.8167ZM282.808 32.0116C282.808 31.6807 282.761 31.405 282.666 31.1844C282.572 30.9481 282.438 30.7669 282.264 30.6408C282.107 30.5148 281.926 30.4281 281.721 30.3809C281.516 30.3178 281.303 30.2863 281.083 30.2863C280.831 30.2863 280.571 30.3336 280.303 30.4281C280.051 30.5069 279.83 30.5936 279.641 30.6881C279.468 30.7669 279.35 30.822 279.287 30.8535V36.6912C279.287 36.9118 279.35 37.1009 279.476 37.2584C279.617 37.416 279.791 37.542 279.996 37.6366C280.216 37.7311 280.437 37.802 280.657 37.8493C280.894 37.8966 281.106 37.9202 281.295 37.9202C281.626 37.9202 281.902 37.8493 282.123 37.7075C282.343 37.5657 282.509 37.3687 282.619 37.1166C282.745 36.8488 282.808 36.5494 282.808 36.2185V32.0116ZM290.016 36.4785C290.016 36.6833 290.047 36.8724 290.11 37.0457C290.173 37.2033 290.26 37.3451 290.37 37.4711C290.48 37.5972 290.622 37.6917 290.796 37.7547C290.969 37.8178 291.158 37.8493 291.363 37.8493C291.788 37.8493 292.269 37.7547 292.804 37.5657C293.356 37.3766 293.876 37.156 294.364 36.9039L295.31 39.1728C294.774 39.5194 294.144 39.7952 293.419 40C292.71 40.2048 292.001 40.3072 291.292 40.3072C290.74 40.3072 290.22 40.2363 289.732 40.0945C289.259 39.9527 288.842 39.74 288.479 39.4564C288.133 39.1728 287.857 38.8104 287.652 38.3692C287.463 37.9281 287.369 37.4081 287.369 36.8094V31.9644C287.369 31.0663 287.558 30.3178 287.936 29.7191C288.33 29.1204 288.858 28.6713 289.519 28.372C290.181 28.0726 290.922 27.9229 291.741 27.9229C292.576 27.9229 293.301 28.0726 293.915 28.372C294.545 28.6556 295.034 29.0967 295.381 29.6955C295.727 30.2784 295.901 31.0111 295.901 31.8935V35.5804L290.016 35.8876V36.4785ZM293.277 32.6025C293.277 32.2401 293.238 31.8935 293.159 31.5626C293.08 31.2159 292.93 30.9323 292.71 30.7117C292.489 30.4912 292.158 30.3966 291.717 30.4281C291.245 30.4439 290.882 30.5463 290.63 30.7354C290.394 30.9087 290.228 31.1529 290.134 31.468C290.055 31.7674 290.016 32.1377 290.016 32.5788V33.5006L293.277 33.2879V32.6025ZM304.299 32.0825C304.299 31.6256 304.251 31.2475 304.157 30.9481C304.062 30.6487 303.913 30.4124 303.708 30.2391C303.503 30.0657 303.243 29.9397 302.928 29.8609C302.613 29.7821 302.227 29.7427 301.77 29.7427L301.982 27.9465C302.881 27.9465 303.637 28.0253 304.251 28.1829C304.882 28.3404 305.386 28.6083 305.764 28.9864C306.158 29.3488 306.441 29.8373 306.615 30.4518C306.804 31.0663 306.898 31.8304 306.898 32.7443V40C306.646 40.0315 306.386 40.063 306.118 40.0945C305.851 40.126 305.575 40.1497 305.291 40.1654C305.023 40.197 304.74 40.2127 304.44 40.2127C304.157 40.2285 303.865 40.2363 303.566 40.2363C303.267 40.2521 302.959 40.26 302.644 40.26C301.967 40.26 301.336 40.197 300.753 40.0709C300.17 39.9449 299.651 39.7321 299.194 39.4328C298.752 39.1177 298.406 38.708 298.154 38.2038C297.902 37.6996 297.776 37.0694 297.776 36.3131V34.0205C297.776 33.4218 297.862 32.9018 298.036 32.4607C298.209 32.0195 298.445 31.6571 298.745 31.3735C299.044 31.0899 299.383 30.8772 299.761 30.7354C300.155 30.5936 300.564 30.5227 300.99 30.5227C301.384 30.5227 301.793 30.5857 302.219 30.7117C302.644 30.822 303.038 30.9954 303.401 31.2317C303.779 31.4523 304.078 31.7359 304.299 32.0825ZM304.299 34.0205C304.22 33.9575 304.039 33.863 303.755 33.7369C303.487 33.6109 303.172 33.4927 302.81 33.3824C302.447 33.2564 302.085 33.1933 301.722 33.1933C301.549 33.1933 301.384 33.217 301.226 33.2642C301.069 33.2958 300.927 33.3588 300.801 33.4533C300.69 33.5321 300.596 33.6503 300.517 33.8078C300.454 33.9496 300.423 34.1308 300.423 34.3514V35.8876C300.423 36.187 300.446 36.4549 300.493 36.6912C300.557 36.9275 300.667 37.1324 300.824 37.3057C300.998 37.479 301.242 37.6129 301.557 37.7075C301.888 37.802 302.321 37.8493 302.857 37.8493C302.936 37.8493 303.03 37.8493 303.141 37.8493C303.267 37.8335 303.393 37.8256 303.519 37.8256C303.66 37.8099 303.787 37.802 303.897 37.802C304.023 37.7863 304.117 37.7784 304.18 37.7784C304.259 37.7626 304.299 37.7547 304.299 37.7547V34.0205ZM308.907 40V23.456H311.53V40H308.907ZM320.299 30.8772C320.125 30.7826 319.929 30.7039 319.708 30.6408C319.487 30.5621 319.251 30.5069 318.999 30.4754C318.763 30.4281 318.51 30.4045 318.243 30.4045C318.101 30.4045 317.943 30.4124 317.77 30.4281C317.612 30.4439 317.455 30.4833 317.297 30.5463C317.14 30.5936 317.006 30.6724 316.895 30.7826C316.801 30.8772 316.754 31.0111 316.754 31.1844C316.754 31.4208 316.848 31.6256 317.037 31.7989C317.242 31.9722 317.51 32.1298 317.841 32.2716C318.172 32.4134 318.534 32.5631 318.928 32.7207C319.322 32.8625 319.708 33.0358 320.086 33.2406C320.48 33.4454 320.842 33.6897 321.173 33.9733C321.504 34.2569 321.764 34.6114 321.953 35.0368C322.158 35.4465 322.26 35.9428 322.26 36.5258C322.26 37.156 322.142 37.7075 321.906 38.1802C321.67 38.6528 321.347 39.0546 320.937 39.3855C320.543 39.7006 320.086 39.937 319.566 40.0945C319.062 40.2679 318.534 40.3545 317.983 40.3545C317.116 40.3545 316.289 40.1733 315.501 39.8109C314.713 39.4485 314.044 38.9601 313.492 38.3456L315.028 36.7385C315.28 36.9591 315.548 37.1639 315.832 37.353C316.131 37.5263 316.439 37.6681 316.754 37.7784C317.069 37.8729 317.384 37.9202 317.699 37.9202C317.904 37.9202 318.109 37.8966 318.314 37.8493C318.534 37.802 318.731 37.7232 318.904 37.6129C319.078 37.5026 319.22 37.3608 319.33 37.1875C319.44 37.0142 319.495 36.8094 319.495 36.573C319.495 36.2579 319.393 35.9979 319.188 35.7931C318.999 35.5883 318.739 35.4071 318.408 35.2495C318.093 35.0762 317.738 34.9108 317.345 34.7532C316.966 34.5956 316.58 34.4302 316.186 34.2569C315.808 34.0678 315.454 33.8393 315.123 33.5715C314.808 33.3036 314.548 32.9806 314.343 32.6025C314.154 32.2243 314.059 31.7674 314.059 31.2317C314.059 30.6487 314.17 30.1445 314.39 29.7191C314.611 29.2937 314.91 28.9471 315.288 28.6792C315.682 28.3956 316.116 28.1908 316.588 28.0647C317.061 27.9229 317.541 27.852 318.03 27.852C318.377 27.852 318.731 27.8835 319.093 27.9465C319.472 28.0096 319.834 28.1041 320.181 28.2301C320.527 28.3562 320.835 28.5138 321.102 28.7028L320.299 30.8772Z" fill="black"/>
<path d="M432.557 31.5303C432.85 31.2374 432.85 30.7626 432.557 30.4697L427.784 25.6967C427.491 25.4038 427.016 25.4038 426.723 25.6967C426.431 25.9896 426.431 26.4645 426.723 26.7574L430.966 31L426.723 35.2426C426.431 35.5355 426.431 36.0104 426.723 36.3033C427.016 36.5962 427.491 36.5962 427.784 36.3033L432.557 31.5303ZM431.008 31V31.75H432.027V31V30.25H431.008V31Z" fill="black"/>
<path d="M72.5257 17H54.2042C54.0764 17 53.9537 17.0508 53.8633 17.1412C53.7729 17.2316 53.7221 17.3543 53.7221 17.4821V21.3393H49.865C49.7371 21.3393 49.6144 21.3901 49.524 21.4805C49.4336 21.5709 49.3828 21.6936 49.3828 21.8214V40.1429H46.49C46.3621 40.1429 46.2394 40.1937 46.149 40.2841C46.0586 40.3745 46.0078 40.4971 46.0078 40.625V42.5536C46.0088 43.4484 46.3647 44.3062 46.9974 44.939C47.6301 45.5717 48.488 45.9276 49.3828 45.9286H66.2578C66.8969 45.9278 67.5097 45.6736 67.9616 45.2217C68.4135 44.7697 68.6678 44.157 68.6685 43.5179V41.5893H72.5257C72.6535 41.5893 72.7762 41.5385 72.8666 41.4481C72.957 41.3576 73.0078 41.235 73.0078 41.1071V17.4821C73.0078 17.3543 72.957 17.2316 72.8666 17.1412C72.7762 17.0508 72.6535 17 72.5257 17ZM49.3828 44.9643C48.7437 44.9635 48.1309 44.7093 47.679 44.2574C47.2271 43.8054 46.9729 43.1927 46.9721 42.5536V41.1071H63.8471V43.5179C63.8482 43.6679 63.8633 43.8175 63.8923 43.9647C63.9011 44.0113 63.9152 44.0554 63.9266 44.101C63.9502 44.198 63.9799 44.2934 64.0155 44.3867C64.0348 44.4357 64.0555 44.4831 64.0777 44.5305C64.1181 44.6166 64.1636 44.7004 64.2139 44.7812C64.2399 44.8231 64.2645 44.8653 64.293 44.9056C64.3064 44.9245 64.3165 44.9458 64.3304 44.9643L49.3828 44.9643ZM67.7042 43.5179C67.7042 43.9015 67.5518 44.2694 67.2806 44.5406C67.0093 44.8119 66.6414 44.9643 66.2578 44.9643C65.8742 44.9643 65.5063 44.8119 65.235 44.5406C64.9638 44.2694 64.8114 43.9015 64.8114 43.5179V40.625C64.8114 40.4971 64.7606 40.3745 64.6702 40.2841C64.5797 40.1937 64.4571 40.1429 64.3292 40.1429H50.3471V22.3036H67.7042V43.5179ZM72.0435 40.625H68.6685V21.8214C68.6685 21.6936 68.6177 21.5709 68.5273 21.4805C68.4369 21.3901 68.3143 21.3393 68.1864 21.3393H54.6864V17.9643H72.0435V40.625Z" fill="#FF0000"/>
<path d="M64.3295 24.7142H53.7224C53.5945 24.7142 53.4719 24.765 53.3815 24.8554C53.291 24.9459 53.2402 25.0685 53.2402 25.1964V28.0892C53.2402 28.2171 53.291 28.3397 53.3815 28.4302C53.4719 28.5206 53.5945 28.5714 53.7224 28.5714H64.3295C64.4574 28.5714 64.58 28.5206 64.6704 28.4302C64.7609 28.3397 64.8117 28.2171 64.8117 28.0892V25.1964C64.8117 25.0685 64.7609 24.9459 64.6704 24.8554C64.58 24.765 64.4574 24.7142 64.3295 24.7142ZM63.8474 27.6071H54.2045V25.6785H63.8474V27.6071ZM64.3295 30.4999H55.6509C55.5231 30.4999 55.4004 30.5507 55.31 30.6412C55.2196 30.7316 55.1688 30.8542 55.1688 30.9821C55.1688 31.11 55.2196 31.2326 55.31 31.323C55.4004 31.4134 55.5231 31.4642 55.6509 31.4642H64.3295C64.4574 31.4642 64.58 31.4134 64.6704 31.323C64.7609 31.2326 64.8117 31.11 64.8117 30.9821C64.8117 30.8542 64.7609 30.7316 64.6704 30.6412C64.58 30.5507 64.4574 30.4999 64.3295 30.4999ZM64.3295 33.3928H53.7224C53.5945 33.3928 53.4719 33.4436 53.3815 33.534C53.291 33.6244 53.2402 33.7471 53.2402 33.8749C53.2402 34.0028 53.291 34.1255 53.3815 34.2159C53.4719 34.3063 53.5945 34.3571 53.7224 34.3571H64.3295C64.4574 34.3571 64.58 34.3063 64.6704 34.2159C64.7609 34.1255 64.8117 34.0028 64.8117 33.8749C64.8117 33.7471 64.7609 33.6244 64.6704 33.534C64.58 33.4436 64.4574 33.3928 64.3295 33.3928ZM64.3295 36.2857H53.7224C53.5945 36.2857 53.4719 36.3365 53.3815 36.4269C53.291 36.5173 53.2402 36.6399 53.2402 36.7678C53.2402 36.8957 53.291 37.0183 53.3815 37.1087C53.4719 37.1992 53.5945 37.2499 53.7224 37.2499H64.3295C64.4574 37.2499 64.58 37.1992 64.6704 37.1087C64.7609 37.0183 64.8117 36.8957 64.8117 36.7678C64.8117 36.6399 64.7609 36.5173 64.6704 36.4269C64.58 36.3365 64.4574 36.2857 64.3295 36.2857Z" fill="#FF0000"/>
<defs>
<filter id="filter0_d_160_393" x="-7.53403e-05" y="0" width="497.016" height="103.564" filterUnits="userSpaceOnUse" color-interpolation-filters="sRGB">
<feFlood flood-opacity="0" result="BackgroundImageFix"/>
<feColorMatrix in="SourceAlpha" type="matrix" values="0 0 0 0 0 0 0 0 0 0 0 0 0 0 0 0 0 0 127 0" result="hardAlpha"/>
<feMorphology radius="14.7337" operator="erode" in="SourceAlpha" result="effect1_dropShadow_160_393"/>
<feOffset dy="24.5562"/>
<feGaussianBlur stdDeviation="16.3708"/>
<feColorMatrix type="matrix" values="0 0 0 0 0.583333 0 0 0 0 0.583333 0 0 0 0 0.583333 0 0 0 0.25 0"/>
<feBlend mode="normal" in2="BackgroundImageFix" result="effect1_dropShadow_160_393"/>
<feBlend mode="normal" in="SourceGraphic" in2="effect1_dropShadow_160_393" result="shape"/>
</filter>
</defs>
</svg>
