<svg width="27" height="29" viewBox="0 0 27 29" fill="none" xmlns="http://www.w3.org/2000/svg">
<path d="M26.5179 0H8.19643C8.06856 0 7.94592 0.050797 7.8555 0.141216C7.76508 0.231636 7.71429 0.354271 7.71429 0.482143V4.33929H3.85714C3.72927 4.33929 3.60664 4.39008 3.51622 4.4805C3.4258 4.57092 3.375 4.69356 3.375 4.82143V23.1429H0.482143C0.354271 23.1429 0.231636 23.1937 0.141216 23.2841C0.0507971 23.3745 0 23.4971 0 23.625V25.5536C0.0009954 26.4484 0.356894 27.3062 0.989614 27.939C1.62233 28.5717 2.4802 28.9276 3.375 28.9286H20.25C20.8891 28.9278 21.5019 28.6736 21.9538 28.2217C22.4057 27.7697 22.66 27.157 22.6607 26.5179V24.5893H26.5179C26.6457 24.5893 26.7684 24.5385 26.8588 24.4481C26.9492 24.3576 27 24.235 27 24.1071V0.482143C27 0.354271 26.9492 0.231636 26.8588 0.141216C26.7684 0.050797 26.6457 0 26.5179 0ZM3.375 27.9643C2.73587 27.9635 2.12313 27.7093 1.6712 27.2574C1.21927 26.8054 0.965039 26.1927 0.964286 25.5536V24.1071H17.8393V26.5179C17.8403 26.6679 17.8555 26.8175 17.8845 26.9647C17.8932 27.0113 17.9074 27.0554 17.9188 27.101C17.9424 27.198 17.9721 27.2934 18.0077 27.3867C18.027 27.4357 18.0477 27.4831 18.0699 27.5305C18.1103 27.6166 18.1558 27.7004 18.2061 27.7812C18.2321 27.8231 18.2567 27.8653 18.2852 27.9056C18.2986 27.9245 18.3087 27.9458 18.3226 27.9643L3.375 27.9643ZM21.6964 26.5179C21.6964 26.9015 21.544 27.2694 21.2728 27.5406C21.0015 27.8119 20.6336 27.9643 20.25 27.9643C19.8664 27.9643 19.4985 27.8119 19.2272 27.5406C18.956 27.2694 18.8036 26.9015 18.8036 26.5179V23.625C18.8036 23.4971 18.7528 23.3745 18.6624 23.2841C18.5719 23.1937 18.4493 23.1429 18.3214 23.1429H4.33929V5.30357H21.6964V26.5179ZM26.0357 23.625H22.6607V4.82143C22.6607 4.69356 22.6099 4.57092 22.5195 4.4805C22.4291 4.39008 22.3064 4.33929 22.1786 4.33929H8.67857V0.964286H26.0357V23.625Z" fill="#FF0000"/>
<path d="M18.3217 7.71423H7.71456C7.58669 7.71423 7.46406 7.76503 7.37364 7.85545C7.28322 7.94587 7.23242 8.0685 7.23242 8.19638V11.0892C7.23242 11.2171 7.28322 11.3397 7.37364 11.4302C7.46406 11.5206 7.58669 11.5714 7.71456 11.5714H18.3217C18.4496 11.5714 18.5722 11.5206 18.6626 11.4302C18.7531 11.3397 18.8039 11.2171 18.8039 11.0892V8.19638C18.8039 8.0685 18.7531 7.94587 18.6626 7.85545C18.5722 7.76503 18.4496 7.71423 18.3217 7.71423ZM17.8396 10.6071H8.19671V8.67852H17.8396V10.6071ZM18.3217 13.4999H9.64314C9.51526 13.4999 9.39263 13.5507 9.30221 13.6412C9.21179 13.7316 9.16099 13.8542 9.16099 13.9821C9.16099 14.11 9.21179 14.2326 9.30221 14.323C9.39263 14.4134 9.51526 14.4642 9.64314 14.4642H18.3217C18.4496 14.4642 18.5722 14.4134 18.6626 14.323C18.7531 14.2326 18.8039 14.11 18.8039 13.9821C18.8039 13.8542 18.7531 13.7316 18.6626 13.6412C18.5722 13.5507 18.4496 13.4999 18.3217 13.4999ZM18.3217 16.3928H7.71456C7.58669 16.3928 7.46406 16.4436 7.37364 16.534C7.28322 16.6244 7.23242 16.7471 7.23242 16.8749C7.23242 17.0028 7.28322 17.1255 7.37364 17.2159C7.46406 17.3063 7.58669 17.3571 7.71456 17.3571H18.3217C18.4496 17.3571 18.5722 17.3063 18.6626 17.2159C18.7531 17.1255 18.8039 17.0028 18.8039 16.8749C18.8039 16.7471 18.7531 16.6244 18.6626 16.534C18.5722 16.4436 18.4496 16.3928 18.3217 16.3928ZM18.3217 19.2857H7.71456C7.58669 19.2857 7.46406 19.3365 7.37364 19.4269C7.28322 19.5173 7.23242 19.6399 7.23242 19.7678C7.23242 19.8957 7.28322 20.0183 7.37364 20.1087C7.46406 20.1992 7.58669 20.2499 7.71456 20.2499H18.3217C18.4496 20.2499 18.5722 20.1992 18.6626 20.1087C18.7531 20.0183 18.8039 19.8957 18.8039 19.7678C18.8039 19.6399 18.7531 19.5173 18.6626 19.4269C18.5722 19.3365 18.4496 19.2857 18.3217 19.2857Z" fill="#FF0000"/>
</svg>
