<svg width="12" height="13" viewBox="0 0 12 13" fill="none" xmlns="http://www.w3.org/2000/svg">
<path d="M11.0893 0H0.482143C0.354271 0 0.231635 0.0507967 0.141216 0.141216C0.0507967 0.231635 0 0.354271 0 0.482143V3.375C0 3.50287 0.0507967 3.62551 0.141216 3.71593C0.231635 3.80635 0.354271 3.85714 0.482143 3.85714H11.0893C11.2172 3.85714 11.3398 3.80635 11.4302 3.71593C11.5206 3.62551 11.5714 3.50287 11.5714 3.375V0.482143C11.5714 0.354271 11.5206 0.231635 11.4302 0.141216C11.3398 0.0507967 11.2172 0 11.0893 0ZM10.6071 2.89286H0.964286V0.964286H10.6071V2.89286ZM11.0893 5.78571H2.41071C2.28284 5.78571 2.16021 5.83651 2.06979 5.92693C1.97937 6.01735 1.92857 6.13999 1.92857 6.26786C1.92857 6.39573 1.97937 6.51837 2.06979 6.60878C2.16021 6.6992 2.28284 6.75 2.41071 6.75H11.0893C11.2172 6.75 11.3398 6.6992 11.4302 6.60878C11.5206 6.51837 11.5714 6.39573 11.5714 6.26786C11.5714 6.13999 11.5206 6.01735 11.4302 5.92693C11.3398 5.83651 11.2172 5.78571 11.0893 5.78571ZM11.0893 8.67857H0.482143C0.354271 8.67857 0.231635 8.72937 0.141216 8.81979C0.0507967 8.91021 0 9.03284 0 9.16072C0 9.28859 0.0507967 9.41122 0.141216 9.50164C0.231635 9.59206 0.354271 9.64286 0.482143 9.64286H11.0893C11.2172 9.64286 11.3398 9.59206 11.4302 9.50164C11.5206 9.41122 11.5714 9.28859 11.5714 9.16072C11.5714 9.03284 11.5206 8.91021 11.4302 8.81979C11.3398 8.72937 11.2172 8.67857 11.0893 8.67857ZM11.0893 11.5714H0.482143C0.354271 11.5714 0.231635 11.6222 0.141216 11.7126C0.0507967 11.8031 0 11.9257 0 12.0536C0 12.1814 0.0507967 12.3041 0.141216 12.3945C0.231635 12.4849 0.354271 12.5357 0.482143 12.5357H11.0893C11.2172 12.5357 11.3398 12.4849 11.4302 12.3945C11.5206 12.3041 11.5714 12.1814 11.5714 12.0536C11.5714 11.9257 11.5206 11.8031 11.4302 11.7126C11.3398 11.6222 11.2172 11.5714 11.0893 11.5714Z" fill="#FF0000"/>
</svg>
