<svg width="17" height="27" viewBox="0 0 17 27" fill="none" xmlns="http://www.w3.org/2000/svg">
<path d="M0.5 2C0.8 2 1 1.8 1 1.5V1H1.5C1.8 1 2 0.8 2 0.5C2 0.2 1.8 0 1.5 0H0.5C0.2 0 0 0.2 0 0.5V1.5C0 1.8 0.2 2 0.5 2ZM16.5 25C16.2 25 16 25.2 16 25.5V26H15.5C15.2 26 15 26.2 15 26.5C15 26.8 15.2 27 15.5 27H16.5C16.8 27 17 26.8 17 26.5V25.5C17 25.2 16.8 25 16.5 25ZM4.5 1C4.8 1 5 0.8 5 0.5C5 0.2 4.8 0 4.5 0H3.5C3.2 0 3 0.2 3 0.5C3 0.8 3.2 1 3.5 1H4.5ZM0.5 4H10.5C10.8 4 11 3.8 11 3.5C11 3.2 10.8 3 10.5 3H0.5C0.2 3 0 3.2 0 3.5C0 3.8 0.2 4 0.5 4ZM16.5 23H0.5C0.2 23 0 23.2 0 23.5C0 23.8 0.2 24 0.5 24H16.5C16.8 24 17 23.8 17 23.5C17 23.2 16.8 23 16.5 23ZM15 7.5C15 7.2 14.8 7 14.5 7H0.5C0.2 7 0 7.2 0 7.5C0 7.8 0.2 8 0.5 8H14.5C14.8 8 15 7.8 15 7.5ZM12 11.5C12 11.2 11.8 11 11.5 11H0.5C0.2 11 0 11.2 0 11.5C0 11.8 0.2 12 0.5 12H11.5C11.8 12 12 11.8 12 11.5ZM10.5 15H0.5C0.2 15 0 15.2 0 15.5C0 15.8 0.2 16 0.5 16H10.5C10.8 16 11 15.8 11 15.5C11 15.2 10.8 15 10.5 15ZM12.5 19H0.5C0.2 19 0 19.2 0 19.5C0 19.8 0.2 20 0.5 20H12.5C12.8 20 13 19.8 13 19.5C13 19.2 12.8 19 12.5 19Z" fill="#FF0000"/>
</svg>
