<svg width="27" height="43" viewBox="0 0 27 43" fill="none" xmlns="http://www.w3.org/2000/svg">
<path d="M26.5857 3.342H25.1886V1.87991C25.1886 1.75807 25.1399 1.64435 25.0505 1.56312C24.9693 1.48189 24.8475 1.44128 24.7256 1.4494L24.1164 1.49814V0.425938C24.1083 0.295974 24.0596 0.190379 23.9621 0.101029C23.8646 0.0279239 23.7509 -0.0126898 23.6209 0.0035557L0.422383 3.342H0.389892L0.365523 3.35013C0.316787 3.35013 0.268051 3.36637 0.227437 3.39074C0.129964 3.43135 0.0649819 3.5207 0.0243682 3.61005C0.0243682 3.61818 0.0162455 3.63442 0.0162455 3.64254C0.0162455 3.65067 0.00812274 3.65879 0.00812274 3.67504C0.00812274 3.6994 0 3.72377 0 3.75626V42.4693C0 42.7048 0.186823 42.8916 0.422383 42.8916H26.5776C26.8132 42.8916 27 42.7048 27 42.4693V3.76439C27 3.53695 26.8132 3.342 26.5776 3.342H26.5857ZM24.3357 3.342H11.4125L24.3357 2.34291V3.342ZM15.4982 37.3113V38.8628C15.4982 39.0252 15.3601 39.1633 15.1977 39.1633H12.0217C11.8511 39.1633 11.7211 39.0252 11.7211 38.8628V37.3113C11.7211 37.1489 11.8511 37.0108 12.0217 37.0108H15.1977C15.3601 37.0108 15.4982 37.1489 15.4982 37.3113ZM13.102 10.4332C13.1507 10.425 13.2076 10.4169 13.2563 10.4169H13.4188C13.4188 10.4169 13.4431 10.4169 13.4513 10.4169C17.8213 10.4332 21.3628 13.9828 21.3628 18.361C21.3628 22.7391 17.8051 26.305 13.4188 26.305C13.3457 26.305 13.2563 26.305 13.1832 26.2969C8.97563 26.175 5.5722 22.7554 5.47473 18.5397V18.5153C5.46661 18.4503 5.46661 18.3691 5.46661 18.296C5.46661 18.1985 5.47473 18.1173 5.48285 18.036C5.65343 13.9178 8.98375 10.5956 13.102 10.4413V10.4332ZM8.65072 7.4115C8.65072 7.18406 8.84567 6.98911 9.0731 6.98911H17.9269C18.1543 6.98911 18.3493 7.18406 18.3493 7.4115C18.3493 7.63893 18.1543 7.83388 17.9269 7.83388H9.0731C8.84567 7.83388 8.65072 7.64706 8.65072 7.4115ZM22.2482 31.8691V33.6642H4.8574V31.8691H22.2482ZM23.2717 1.56312L13.3944 2.33478L23.2717 0.913303V1.56312Z" fill="#FF0000"/>
<path d="M9.34921 15.4367C7.74091 16.0053 6.61185 16.8907 6.36816 17.8816H8.97556C9.00806 17.0287 9.13802 16.2002 9.34921 15.4367ZM9.666 14.462C10.1371 13.2598 10.8032 12.2363 11.6479 11.489C9.38982 12.0739 7.56221 13.7553 6.75806 15.924C7.48098 15.3148 8.48008 14.8031 9.666 14.462ZM13.4025 13.9421C14.2797 13.9421 15.1164 14.0152 15.9124 14.1614C15.3113 12.8861 14.4178 11.8952 13.3375 11.3672C12.2247 11.887 11.3068 12.8943 10.6976 14.202C11.5505 14.0314 12.4602 13.9421 13.4106 13.9421H13.4025ZM20.0875 15.9403C19.2671 13.674 17.3176 11.9439 14.9214 11.424C15.7743 12.1632 16.4566 13.1948 16.9277 14.397C18.2192 14.7462 19.3158 15.2824 20.0875 15.9322V15.9403ZM16.286 15.1118C15.4007 14.9087 14.4259 14.795 13.4025 14.795C12.3059 14.795 11.2499 14.9249 10.3158 15.1605C10.0315 16.0053 9.86907 16.9313 9.82033 17.906L16.7896 17.9222C16.7572 16.9231 16.5785 15.9647 16.286 15.1118ZM17.2526 15.3717C17.4801 16.1677 17.61 17.0287 17.6425 17.9304H20.4692C20.2418 16.8744 18.999 15.9403 17.2445 15.3717H17.2526ZM6.69307 20.6271C7.44849 22.8771 9.3086 24.6316 11.6317 25.2408C10.7626 24.4529 10.0803 23.3807 9.61726 22.1298C8.43134 21.7724 7.416 21.2526 6.69307 20.6271ZM13.4025 22.6578C12.444 22.6578 11.518 22.5603 10.657 22.3897C11.2662 23.7544 12.1922 24.8184 13.305 25.3627C14.4259 24.8266 15.3519 23.7787 15.953 22.4222C15.157 22.5766 14.2878 22.6578 13.3943 22.6578H13.4025ZM9.31672 21.1145C9.12177 20.3672 8.99993 19.5712 8.97556 18.7426H6.37629C6.64434 19.693 7.76528 20.554 9.31672 21.1145ZM10.2833 21.415C11.2337 21.6668 12.2978 21.8049 13.4025 21.8049C14.434 21.8049 15.425 21.6831 16.3266 21.4638C16.5947 20.6434 16.7572 19.7336 16.7978 18.767L9.82845 18.7508C9.86094 19.6849 10.0234 20.5865 10.2914 21.4069L10.2833 21.415ZM17.2851 21.1957C18.9178 20.6434 20.1118 19.7742 20.4286 18.7914H17.6425C17.61 19.628 17.4882 20.4403 17.2851 21.1957ZM14.897 25.3058C17.3664 24.7778 19.3646 22.9583 20.1525 20.5946C19.3889 21.2769 18.2842 21.8293 16.9765 22.1867C16.5053 23.462 15.7987 24.5423 14.9052 25.3058H14.897Z" fill="#FF0000"/>
</svg>
