<svg width="498" height="104" viewBox="0 0 498 104" fill="none" xmlns="http://www.w3.org/2000/svg">
<g filter="url(#filter0_d_160_417)">
<rect x="18.0078" width="461" height="61" rx="4.91124" fill="white"/>
</g>
<path d="M109.129 23.456C109.744 23.456 110.358 23.5427 110.973 23.716C111.587 23.8893 112.146 24.1887 112.651 24.6141C113.155 25.0395 113.557 25.6383 113.856 26.4103C114.155 27.1666 114.305 28.1277 114.305 29.2937C114.305 30.5857 114.155 31.6335 113.856 32.437C113.572 33.2249 113.178 33.8315 112.674 34.2569C112.17 34.6823 111.611 34.9738 110.996 35.1313C110.397 35.2889 109.775 35.3677 109.129 35.3677H106.6V40H103.977V23.456H109.129ZM106.6 32.8861H108.16C108.775 32.8861 109.302 32.8467 109.744 32.7679C110.185 32.6891 110.547 32.5316 110.831 32.2952C111.114 32.0431 111.319 31.6807 111.445 31.2081C111.587 30.7354 111.658 30.0973 111.658 29.2937C111.658 28.5531 111.587 27.9702 111.445 27.5448C111.319 27.1036 111.114 26.7806 110.831 26.5758C110.547 26.3552 110.185 26.2134 109.744 26.1503C109.302 26.0873 108.775 26.0558 108.16 26.0558H106.6V32.8861ZM118.69 36.4785C118.69 36.6833 118.722 36.8724 118.785 37.0457C118.848 37.2033 118.935 37.3451 119.045 37.4711C119.155 37.5972 119.297 37.6917 119.47 37.7547C119.644 37.8178 119.833 37.8493 120.038 37.8493C120.463 37.8493 120.944 37.7547 121.479 37.5657C122.031 37.3766 122.551 37.156 123.039 36.9039L123.984 39.1728C123.449 39.5194 122.819 39.7952 122.094 40C121.385 40.2048 120.676 40.3072 119.967 40.3072C119.415 40.3072 118.895 40.2363 118.407 40.0945C117.934 39.9527 117.517 39.74 117.154 39.4564C116.808 39.1728 116.532 38.8104 116.327 38.3692C116.138 37.9281 116.043 37.4081 116.043 36.8094V31.9644C116.043 31.0663 116.232 30.3178 116.611 29.7191C117.005 29.1204 117.532 28.6713 118.194 28.372C118.856 28.0726 119.596 27.9229 120.416 27.9229C121.251 27.9229 121.976 28.0726 122.59 28.372C123.22 28.6556 123.709 29.0967 124.055 29.6955C124.402 30.2784 124.575 31.0111 124.575 31.8935V35.5804L118.69 35.8876V36.4785ZM121.952 32.6025C121.952 32.2401 121.913 31.8935 121.834 31.5626C121.755 31.2159 121.605 30.9323 121.385 30.7117C121.164 30.4912 120.833 30.3966 120.392 30.4281C119.919 30.4439 119.557 30.5463 119.305 30.7354C119.069 30.9087 118.903 31.1529 118.809 31.468C118.73 31.7674 118.69 32.1377 118.69 32.5788V33.5006L121.952 33.2879V32.6025ZM133.45 30.31C133.45 30.31 133.348 30.2863 133.143 30.2391C132.954 30.176 132.646 30.1445 132.221 30.1445C131.969 30.1445 131.709 30.1603 131.441 30.1918C131.173 30.2075 130.905 30.2469 130.638 30.31C130.385 30.3572 130.133 30.4203 129.881 30.499C129.629 30.5778 129.385 30.6802 129.149 30.8063V40H126.525V28.1592H129.149V28.6319C129.542 28.3641 129.984 28.1592 130.472 28.0174C130.961 27.8756 131.457 27.8047 131.961 27.8047C132.323 27.8047 132.662 27.8441 132.977 27.9229C133.292 27.9859 133.576 28.0647 133.828 28.1592L133.45 30.31ZM148.379 31.9171C148.379 31.6807 148.331 31.468 148.237 31.279C148.142 31.0741 148.008 30.9087 147.835 30.7826C147.662 30.6408 147.465 30.5305 147.244 30.4518C147.024 30.373 146.787 30.3336 146.535 30.3336C146.393 30.3336 146.212 30.3572 145.991 30.4045C145.787 30.436 145.558 30.499 145.306 30.5936C145.07 30.6724 144.826 30.7748 144.573 30.9008C144.605 31.0426 144.621 31.1923 144.621 31.3499C144.636 31.5074 144.644 31.6729 144.644 31.8462V40H142.045V31.9171C142.045 31.6807 141.997 31.468 141.903 31.279C141.808 31.0741 141.682 30.9087 141.525 30.7826C141.367 30.6408 141.178 30.5305 140.957 30.4518C140.737 30.373 140.5 30.3336 140.248 30.3336C140.075 30.3336 139.886 30.3572 139.681 30.4045C139.476 30.436 139.264 30.499 139.043 30.5936C138.822 30.6724 138.594 30.7748 138.358 30.9008V40H135.734V28.1592H138.358V28.7265C138.484 28.6477 138.665 28.5531 138.901 28.4429C139.153 28.3168 139.429 28.2065 139.728 28.112C140.044 28.0174 140.367 27.9702 140.697 27.9702C141.076 27.9702 141.446 28.0096 141.808 28.0883C142.171 28.1514 142.517 28.2695 142.848 28.4429C143.195 28.6004 143.494 28.821 143.746 29.1046C144.03 28.9155 144.329 28.7343 144.644 28.561C144.975 28.3877 145.338 28.2459 145.732 28.1356C146.125 28.0253 146.551 27.9702 147.008 27.9702C147.48 27.9702 147.945 28.0332 148.402 28.1592C148.875 28.2695 149.3 28.4744 149.678 28.7737C150.072 29.0573 150.387 29.4513 150.624 29.9554C150.86 30.4596 150.978 31.0899 150.978 31.8462V40H148.379V31.9171ZM159.447 32.0825C159.447 31.6256 159.399 31.2475 159.305 30.9481C159.21 30.6487 159.061 30.4124 158.856 30.2391C158.651 30.0657 158.391 29.9397 158.076 29.8609C157.761 29.7821 157.375 29.7427 156.918 29.7427L157.13 27.9465C158.029 27.9465 158.785 28.0253 159.399 28.1829C160.03 28.3404 160.534 28.6083 160.912 28.9864C161.306 29.3488 161.589 29.8373 161.763 30.4518C161.952 31.0663 162.046 31.8304 162.046 32.7443V40C161.794 40.0315 161.534 40.063 161.266 40.0945C160.999 40.126 160.723 40.1497 160.439 40.1654C160.171 40.197 159.888 40.2127 159.588 40.2127C159.305 40.2285 159.013 40.2363 158.714 40.2363C158.415 40.2521 158.107 40.26 157.792 40.26C157.115 40.26 156.484 40.197 155.901 40.0709C155.318 39.9449 154.798 39.7321 154.342 39.4328C153.9 39.1177 153.554 38.708 153.302 38.2038C153.05 37.6996 152.924 37.0694 152.924 36.3131V34.0205C152.924 33.4218 153.01 32.9018 153.183 32.4607C153.357 32.0195 153.593 31.6571 153.893 31.3735C154.192 31.0899 154.531 30.8772 154.909 30.7354C155.303 30.5936 155.712 30.5227 156.138 30.5227C156.532 30.5227 156.941 30.5857 157.367 30.7117C157.792 30.822 158.186 30.9954 158.548 31.2317C158.927 31.4523 159.226 31.7359 159.447 32.0825ZM159.447 34.0205C159.368 33.9575 159.187 33.863 158.903 33.7369C158.635 33.6109 158.32 33.4927 157.958 33.3824C157.595 33.2564 157.233 33.1933 156.87 33.1933C156.697 33.1933 156.532 33.217 156.374 33.2642C156.217 33.2958 156.075 33.3588 155.949 33.4533C155.838 33.5321 155.744 33.6503 155.665 33.8078C155.602 33.9496 155.571 34.1308 155.571 34.3514V35.8876C155.571 36.187 155.594 36.4549 155.641 36.6912C155.704 36.9275 155.815 37.1324 155.972 37.3057C156.146 37.479 156.39 37.6129 156.705 37.7075C157.036 37.802 157.469 37.8493 158.005 37.8493C158.084 37.8493 158.178 37.8493 158.288 37.8493C158.415 37.8335 158.541 37.8256 158.667 37.8256C158.808 37.8099 158.934 37.802 159.045 37.802C159.171 37.7863 159.265 37.7784 159.328 37.7784C159.407 37.7626 159.447 37.7547 159.447 37.7547V34.0205ZM170.245 31.8935C170.245 31.6729 170.206 31.468 170.127 31.279C170.048 31.0741 169.93 30.9008 169.773 30.759C169.631 30.6172 169.458 30.5069 169.253 30.4281C169.048 30.3494 168.819 30.31 168.567 30.31C168.394 30.31 168.205 30.3257 168 30.3572C167.811 30.3887 167.606 30.4518 167.386 30.5463C167.165 30.6251 166.929 30.7354 166.677 30.8772V40.0236H164.077V28.1592H166.677V28.7028C166.818 28.6241 167.007 28.5295 167.244 28.4192C167.496 28.2932 167.772 28.1829 168.071 28.0883C168.386 27.9938 168.709 27.9465 169.04 27.9465C169.418 27.9465 169.788 27.9859 170.151 28.0647C170.513 28.1435 170.852 28.2695 171.167 28.4429C171.498 28.6162 171.782 28.8525 172.018 29.1519C172.27 29.4355 172.467 29.7979 172.609 30.2391C172.751 30.6802 172.822 31.2081 172.822 31.8226V40.0236H170.245V31.8935ZM177.453 36.4785C177.453 36.6833 177.484 36.8724 177.547 37.0457C177.61 37.2033 177.697 37.3451 177.807 37.4711C177.918 37.5972 178.06 37.6917 178.233 37.7547C178.406 37.8178 178.595 37.8493 178.8 37.8493C179.225 37.8493 179.706 37.7547 180.242 37.5657C180.793 37.3766 181.313 37.156 181.802 36.9039L182.747 39.1728C182.211 39.5194 181.581 39.7952 180.856 40C180.147 40.2048 179.438 40.3072 178.729 40.3072C178.178 40.3072 177.658 40.2363 177.169 40.0945C176.697 39.9527 176.279 39.74 175.917 39.4564C175.57 39.1728 175.294 38.8104 175.089 38.3692C174.9 37.9281 174.806 37.4081 174.806 36.8094V31.9644C174.806 31.0663 174.995 30.3178 175.373 29.7191C175.767 29.1204 176.295 28.6713 176.957 28.372C177.618 28.0726 178.359 27.9229 179.178 27.9229C180.013 27.9229 180.738 28.0726 181.353 28.372C181.983 28.6556 182.471 29.0967 182.818 29.6955C183.165 30.2784 183.338 31.0111 183.338 31.8935V35.5804L177.453 35.8876V36.4785ZM180.714 32.6025C180.714 32.2401 180.675 31.8935 180.596 31.5626C180.517 31.2159 180.368 30.9323 180.147 30.7117C179.927 30.4912 179.596 30.3966 179.155 30.4281C178.682 30.4439 178.319 30.5463 178.067 30.7354C177.831 30.9087 177.666 31.1529 177.571 31.468C177.492 31.7674 177.453 32.1377 177.453 32.5788V33.5006L180.714 33.2879V32.6025ZM191.456 31.8935C191.456 31.6729 191.417 31.468 191.338 31.279C191.259 31.0741 191.141 30.9008 190.984 30.759C190.842 30.6172 190.668 30.5069 190.464 30.4281C190.259 30.3494 190.03 30.31 189.778 30.31C189.605 30.31 189.416 30.3257 189.211 30.3572C189.022 30.3887 188.817 30.4518 188.596 30.5463C188.376 30.6251 188.14 30.7354 187.887 30.8772V40.0236H185.288V28.1592H187.887V28.7028C188.029 28.6241 188.218 28.5295 188.455 28.4192C188.707 28.2932 188.982 28.1829 189.282 28.0883C189.597 27.9938 189.92 27.9465 190.251 27.9465C190.629 27.9465 190.999 27.9859 191.362 28.0647C191.724 28.1435 192.063 28.2695 192.378 28.4429C192.709 28.6162 192.992 28.8525 193.229 29.1519C193.481 29.4355 193.678 29.7979 193.82 30.2391C193.961 30.6802 194.032 31.2081 194.032 31.8226V40.0236H191.456V31.8935ZM198.714 36.8803C198.714 37.2269 198.785 37.5026 198.926 37.7075C199.068 37.8966 199.265 38.0305 199.517 38.1093C199.785 38.188 200.1 38.2274 200.463 38.2274L199.683 40.3072C198.485 40.2757 197.579 39.9764 196.965 39.4091C196.366 38.8262 196.067 37.9832 196.067 36.8803V23.456H198.714V28.1829H200.983L200.439 30.5699H198.714V36.8803ZM214.421 23.456C215.036 23.456 215.65 23.5427 216.265 23.716C216.879 23.8893 217.439 24.1887 217.943 24.6141C218.447 25.0395 218.849 25.6383 219.148 26.4103C219.448 27.1666 219.597 28.1277 219.597 29.2937C219.597 30.2233 219.511 31.0269 219.337 31.7044C219.18 32.3819 218.951 32.9491 218.652 33.406C218.368 33.863 218.038 34.2254 217.659 34.4932L219.692 40H216.903L215.272 35.3441C215.178 35.3598 215.083 35.3677 214.989 35.3677C214.894 35.3677 214.8 35.3677 214.705 35.3677C214.611 35.3677 214.516 35.3677 214.421 35.3677H211.893V40H209.269V23.456H214.421ZM213.452 32.8861C214.067 32.8861 214.595 32.8467 215.036 32.7679C215.477 32.6891 215.84 32.5316 216.123 32.2952C216.407 32.0431 216.612 31.6807 216.738 31.2081C216.879 30.7354 216.95 30.0973 216.95 29.2937C216.95 28.5531 216.879 27.9702 216.738 27.5448C216.612 27.1036 216.407 26.7806 216.123 26.5758C215.84 26.3552 215.477 26.2134 215.036 26.1503C214.595 26.0873 214.067 26.0558 213.452 26.0558H211.893V32.8861H213.452ZM223.96 36.4785C223.96 36.6833 223.991 36.8724 224.054 37.0457C224.117 37.2033 224.204 37.3451 224.314 37.4711C224.425 37.5972 224.566 37.6917 224.74 37.7547C224.913 37.8178 225.102 37.8493 225.307 37.8493C225.732 37.8493 226.213 37.7547 226.749 37.5657C227.3 37.3766 227.82 37.156 228.308 36.9039L229.254 39.1728C228.718 39.5194 228.088 39.7952 227.363 40C226.654 40.2048 225.945 40.3072 225.236 40.3072C224.685 40.3072 224.165 40.2363 223.676 40.0945C223.203 39.9527 222.786 39.74 222.424 39.4564C222.077 39.1728 221.801 38.8104 221.596 38.3692C221.407 37.9281 221.313 37.4081 221.313 36.8094V31.9644C221.313 31.0663 221.502 30.3178 221.88 29.7191C222.274 29.1204 222.802 28.6713 223.463 28.372C224.125 28.0726 224.866 27.9229 225.685 27.9229C226.52 27.9229 227.245 28.0726 227.859 28.372C228.49 28.6556 228.978 29.0967 229.325 29.6955C229.671 30.2784 229.845 31.0111 229.845 31.8935V35.5804L223.96 35.8876V36.4785ZM227.221 32.6025C227.221 32.2401 227.182 31.8935 227.103 31.5626C227.024 31.2159 226.875 30.9323 226.654 30.7117C226.433 30.4912 226.103 30.3966 225.661 30.4281C225.189 30.4439 224.826 30.5463 224.574 30.7354C224.338 30.9087 224.172 31.1529 224.078 31.468C223.999 31.7674 223.96 32.1377 223.96 32.5788V33.5006L227.221 33.2879V32.6025ZM237.925 30.8772C237.752 30.7826 237.555 30.7039 237.334 30.6408C237.114 30.5621 236.877 30.5069 236.625 30.4754C236.389 30.4281 236.137 30.4045 235.869 30.4045C235.727 30.4045 235.57 30.4124 235.396 30.4281C235.239 30.4439 235.081 30.4833 234.924 30.5463C234.766 30.5936 234.632 30.6724 234.522 30.7826C234.427 30.8772 234.38 31.0111 234.38 31.1844C234.38 31.4208 234.475 31.6256 234.664 31.7989C234.868 31.9722 235.136 32.1298 235.467 32.2716C235.798 32.4134 236.16 32.5631 236.554 32.7207C236.948 32.8625 237.334 33.0358 237.712 33.2406C238.106 33.4454 238.469 33.6897 238.8 33.9733C239.131 34.2569 239.39 34.6114 239.58 35.0368C239.784 35.4465 239.887 35.9428 239.887 36.5258C239.887 37.156 239.769 37.7075 239.532 38.1802C239.296 38.6528 238.973 39.0546 238.563 39.3855C238.169 39.7006 237.712 39.937 237.193 40.0945C236.688 40.2679 236.16 40.3545 235.609 40.3545C234.742 40.3545 233.915 40.1733 233.127 39.8109C232.34 39.4485 231.67 38.9601 231.119 38.3456L232.655 36.7385C232.907 36.9591 233.175 37.1639 233.458 37.353C233.758 37.5263 234.065 37.6681 234.38 37.7784C234.695 37.8729 235.01 37.9202 235.325 37.9202C235.53 37.9202 235.735 37.8966 235.94 37.8493C236.16 37.802 236.357 37.7232 236.531 37.6129C236.704 37.5026 236.846 37.3608 236.956 37.1875C237.066 37.0142 237.122 36.8094 237.122 36.573C237.122 36.2579 237.019 35.9979 236.814 35.7931C236.625 35.5883 236.365 35.4071 236.034 35.2495C235.719 35.0762 235.365 34.9108 234.971 34.7532C234.593 34.5956 234.207 34.4302 233.813 34.2569C233.435 34.0678 233.08 33.8393 232.749 33.5715C232.434 33.3036 232.174 32.9806 231.969 32.6025C231.78 32.2243 231.686 31.7674 231.686 31.2317C231.686 30.6487 231.796 30.1445 232.017 29.7191C232.237 29.2937 232.537 28.9471 232.915 28.6792C233.309 28.3956 233.742 28.1908 234.215 28.0647C234.687 27.9229 235.168 27.852 235.656 27.852C236.003 27.852 236.357 27.8835 236.72 27.9465C237.098 28.0096 237.46 28.1041 237.807 28.2301C238.154 28.3562 238.461 28.5138 238.729 28.7028L237.925 30.8772ZM241.814 40V28.1592H244.438V40H241.814ZM243.138 23.2197C243.532 23.2197 243.862 23.3457 244.13 23.5978C244.414 23.8499 244.556 24.1808 244.556 24.5905C244.556 24.9844 244.414 25.3231 244.13 25.6067C243.862 25.8746 243.532 26.0085 243.138 26.0085C242.744 26.0085 242.405 25.8746 242.121 25.6067C241.853 25.3231 241.72 24.9844 241.72 24.5905C241.72 24.1808 241.853 23.8499 242.121 23.5978C242.405 23.3457 242.744 23.2197 243.138 23.2197ZM255.546 40C255.294 40.0315 255.034 40.063 254.766 40.0945C254.514 40.126 254.246 40.1497 253.962 40.1654C253.694 40.197 253.419 40.2127 253.135 40.2127C252.851 40.2285 252.56 40.2363 252.261 40.2363C251.977 40.2521 251.678 40.26 251.363 40.26C250.701 40.26 250.071 40.1812 249.472 40.0236C248.873 39.8818 248.345 39.6534 247.888 39.3382C247.431 39.0231 247.069 38.6213 246.801 38.1329C246.549 37.6287 246.423 37.0221 246.423 36.3131V31.4917C246.423 30.8772 246.525 30.3494 246.73 29.9082C246.935 29.467 247.203 29.1046 247.534 28.821C247.88 28.5216 248.266 28.3011 248.692 28.1592C249.117 28.0174 249.543 27.9465 249.968 27.9465C250.52 27.9465 251.024 27.9938 251.481 28.0883C251.953 28.1829 252.442 28.3404 252.946 28.561V23.456H255.546V40ZM252.946 31.2317C252.804 31.1529 252.536 31.0426 252.142 30.9008C251.749 30.7433 251.276 30.6645 250.724 30.6645C250.535 30.6645 250.346 30.6881 250.157 30.7354C249.968 30.7669 249.787 30.8299 249.614 30.9245C249.456 31.0032 249.322 31.1214 249.212 31.279C249.117 31.4208 249.07 31.602 249.07 31.8226V35.864C249.07 36.1634 249.102 36.4391 249.165 36.6912C249.228 36.9275 249.338 37.1324 249.495 37.3057C249.669 37.4633 249.913 37.5893 250.228 37.6838C250.559 37.7784 250.992 37.8256 251.528 37.8256C251.607 37.8256 251.701 37.8256 251.812 37.8256C251.938 37.8099 252.064 37.802 252.19 37.802C252.332 37.7863 252.458 37.7784 252.568 37.7784C252.678 37.7784 252.765 37.7784 252.828 37.7784C252.907 37.7626 252.946 37.7547 252.946 37.7547V31.2317ZM260.219 36.4785C260.219 36.6833 260.25 36.8724 260.313 37.0457C260.376 37.2033 260.463 37.3451 260.573 37.4711C260.684 37.5972 260.826 37.6917 260.999 37.7547C261.172 37.8178 261.361 37.8493 261.566 37.8493C261.991 37.8493 262.472 37.7547 263.008 37.5657C263.559 37.3766 264.079 37.156 264.568 36.9039L265.513 39.1728C264.977 39.5194 264.347 39.7952 263.622 40C262.913 40.2048 262.204 40.3072 261.495 40.3072C260.944 40.3072 260.424 40.2363 259.935 40.0945C259.463 39.9527 259.045 39.74 258.683 39.4564C258.336 39.1728 258.06 38.8104 257.855 38.3692C257.666 37.9281 257.572 37.4081 257.572 36.8094V31.9644C257.572 31.0663 257.761 30.3178 258.139 29.7191C258.533 29.1204 259.061 28.6713 259.723 28.372C260.384 28.0726 261.125 27.9229 261.944 27.9229C262.779 27.9229 263.504 28.0726 264.119 28.372C264.749 28.6556 265.237 29.0967 265.584 29.6955C265.931 30.2784 266.104 31.0111 266.104 31.8935V35.5804L260.219 35.8876V36.4785ZM263.48 32.6025C263.48 32.2401 263.441 31.8935 263.362 31.5626C263.283 31.2159 263.134 30.9323 262.913 30.7117C262.693 30.4912 262.362 30.3966 261.921 30.4281C261.448 30.4439 261.086 30.5463 260.833 30.7354C260.597 30.9087 260.432 31.1529 260.337 31.468C260.258 31.7674 260.219 32.1377 260.219 32.5788V33.5006L263.48 33.2879V32.6025ZM274.222 31.8935C274.222 31.6729 274.183 31.468 274.104 31.279C274.025 31.0741 273.907 30.9008 273.75 30.759C273.608 30.6172 273.434 30.5069 273.23 30.4281C273.025 30.3494 272.796 30.31 272.544 30.31C272.371 30.31 272.182 30.3257 271.977 30.3572C271.788 30.3887 271.583 30.4518 271.362 30.5463C271.142 30.6251 270.906 30.7354 270.653 30.8772V40.0236H268.054V28.1592H270.653V28.7028C270.795 28.6241 270.984 28.5295 271.221 28.4192C271.473 28.2932 271.748 28.1829 272.048 28.0883C272.363 27.9938 272.686 27.9465 273.017 27.9465C273.395 27.9465 273.765 27.9859 274.128 28.0647C274.49 28.1435 274.829 28.2695 275.144 28.4429C275.475 28.6162 275.758 28.8525 275.995 29.1519C276.247 29.4355 276.444 29.7979 276.586 30.2391C276.727 30.6802 276.798 31.2081 276.798 31.8226V40.0236H274.222V31.8935ZM285.754 30.7117C285.471 30.5699 285.155 30.4518 284.809 30.3572C284.478 30.2469 284.139 30.1839 283.793 30.1682C283.336 30.1366 282.918 30.1918 282.54 30.3336C282.178 30.4596 281.886 30.6724 281.666 30.9717C281.461 31.2711 281.358 31.665 281.358 32.1534V35.864C281.358 36.2264 281.413 36.5494 281.524 36.833C281.65 37.1009 281.823 37.3215 282.044 37.4948C282.264 37.6681 282.524 37.802 282.824 37.8966C283.123 37.9753 283.454 38.0147 283.816 38.0147C284.068 38.0147 284.32 38.0068 284.573 37.9911C284.825 37.9596 285.053 37.9281 285.258 37.8966C285.463 37.8493 285.62 37.8178 285.731 37.802C285.857 37.7705 285.92 37.7547 285.92 37.7547L286.392 39.8818C285.904 40.0079 285.4 40.1103 284.88 40.1891C284.36 40.2679 283.832 40.2994 283.296 40.2836C282.398 40.2521 281.602 40.0867 280.909 39.7873C280.232 39.4722 279.704 38.9995 279.326 38.3692C278.948 37.7232 278.758 36.896 278.758 35.8876V32.437C278.758 31.5389 278.932 30.7511 279.278 30.0736C279.625 29.3803 280.129 28.8368 280.791 28.4429C281.469 28.049 282.296 27.8678 283.273 27.8993C283.793 27.915 284.313 27.9938 284.832 28.1356C285.352 28.2774 285.857 28.4586 286.345 28.6792L285.754 30.7117ZM298.15 29.7427C297.693 29.8373 297.386 30.0421 297.228 30.3572C297.086 30.6566 297.016 31.0111 297.016 31.4208V41.3944C297.016 42.1507 296.874 42.7967 296.59 43.3324C296.322 43.8839 295.921 44.3093 295.385 44.6087C294.849 44.908 294.203 45.0577 293.447 45.0577L292.761 42.9543C292.998 42.9543 293.218 42.8991 293.423 42.7888C293.628 42.6943 293.801 42.5604 293.943 42.3871C294.101 42.2137 294.219 42.0168 294.298 41.7962C294.376 41.5914 294.416 41.3708 294.416 41.1344V39.3382C294.321 39.4485 294.148 39.5667 293.896 39.6928C293.644 39.8188 293.352 39.9212 293.021 40C292.706 40.0945 292.383 40.1418 292.052 40.1418C291.58 40.1418 291.115 40.0788 290.658 39.9527C290.217 39.8267 289.807 39.6219 289.429 39.3382C289.067 39.0389 288.775 38.6371 288.555 38.1329C288.35 37.6287 288.247 36.9985 288.247 36.2422V28.112H290.894V36.1713C290.894 36.3918 290.934 36.6045 291.012 36.8094C291.091 36.9985 291.202 37.1639 291.343 37.3057C291.485 37.4475 291.658 37.5578 291.863 37.6366C292.068 37.7154 292.289 37.7547 292.525 37.7547C292.793 37.7547 293.037 37.7075 293.258 37.6129C293.494 37.5026 293.699 37.3608 293.872 37.1875C294.046 37.0142 294.179 36.8094 294.274 36.573C294.369 36.3367 294.416 36.0846 294.416 35.8167V30.7117C294.416 30.2706 294.51 29.8373 294.699 29.4119C294.888 28.9707 295.196 28.6083 295.621 28.3247C296.047 28.0411 296.614 27.8993 297.323 27.8993L298.15 29.7427Z" fill="black"/>
<path d="M432.557 31.5303C432.85 31.2374 432.85 30.7626 432.557 30.4697L427.784 25.6967C427.491 25.4038 427.016 25.4038 426.723 25.6967C426.431 25.9896 426.431 26.4645 426.723 26.7574L430.966 31L426.723 35.2426C426.431 35.5355 426.431 36.0104 426.723 36.3033C427.016 36.5962 427.491 36.5962 427.784 36.3033L432.557 31.5303ZM431.008 31V31.75H432.027V31V30.25H431.008V31Z" fill="black"/>
<path d="M71.6156 31.77L70.2319 31.5886C70.2108 31.5844 70.1939 31.5802 70.1728 31.5802L69.4219 31.4831L71.3119 30.6478C71.6747 30.4917 71.8772 30.0994 71.797 29.7112C71.6198 28.9055 71.5987 27.9731 71.5692 26.7877L71.565 25.8005V25.7962C71.5692 25.7583 71.5692 25.7245 71.5692 25.6866C71.5692 25.6528 71.5692 25.6191 71.565 25.5853V25.5727L71.5566 24.3492C71.5566 23.0034 71.0334 21.7462 70.0884 20.8055C69.1434 19.8562 67.8862 19.3373 66.5447 19.3373C63.7814 19.3373 61.5328 21.5859 61.5328 24.3492V28.7831C60.398 28.2811 59.1872 28.2178 58.0819 28.6059C57.217 28.9139 56.4788 29.4792 55.9472 30.2555L55.1077 29.6395C54.8208 29.4159 54.6605 29.0827 54.6605 28.7198V27.5344C55.7869 26.9606 56.348 25.9608 56.3353 24.5517H56.8247C57.4153 24.5517 57.8962 24.0708 57.8962 23.4802C57.8962 23.0034 57.5798 22.5984 57.1453 22.4592C57.4111 21.1134 57.2423 19.9237 56.6686 19.1728C56.1117 18.4388 55.1709 18 54.1458 18H51.758C51.4205 18 51.1041 18.1266 50.8594 18.3586L50.6611 18.5484C50.0873 18.4852 49.5136 18.6623 49.0706 19.042C48.5981 19.447 48.3323 20.0292 48.3323 20.6452V22.3284C47.9358 22.5141 47.6616 22.9191 47.6616 23.3831C47.6616 24.0244 48.1889 24.5517 48.8302 24.5517H49.1466C49.2605 25.4419 49.5178 26.1591 49.9186 26.7075C50.1675 27.0492 50.4755 27.3234 50.8383 27.5344V28.6312C50.8383 28.9561 50.6189 29.2472 50.3109 29.34L47.2523 30.247C46.5098 30.4706 46.0078 31.1414 46.0078 31.9134V34.0102C46.0078 34.3561 46.2103 34.6556 46.5056 34.7864V41.0555C46.5056 41.1736 46.5984 41.2664 46.7123 41.2664H48.8428C48.847 41.2664 48.847 41.2664 48.8512 41.2664H54.5086C54.42 41.7853 54.4284 42.3928 54.5423 43.0973C54.5887 43.3758 54.8334 43.5825 55.1203 43.5825H64.1105C64.3931 43.5825 64.642 43.3716 64.6884 43.0973C64.8023 42.3886 64.8108 41.7853 64.7222 41.2622H72.413C72.5311 41.2622 72.6239 41.1694 72.6239 41.0555V35.9887C72.8644 35.7103 73.0078 35.3433 73.0078 34.9509V33.3605C73.0078 32.5631 72.4088 31.8797 71.6156 31.77ZM62.6888 24.847H63.1528C63.562 24.847 63.9122 24.5559 63.9839 24.1509L64.005 24.0244C64.0767 23.632 64.4522 23.3662 64.8445 23.4295L68.5697 24.0497C68.7595 24.0792 68.9325 24.1889 69.038 24.3534L69.1308 24.4927C69.3206 24.7795 69.6286 24.9567 69.9703 24.9862L70.5483 25.0327C70.8436 25.058 71.0841 25.2816 71.1389 25.5642C71.1389 25.5684 71.1431 25.5727 71.1389 25.5811L71.1431 25.7878C71.0925 26.1042 70.8225 26.3447 70.4934 26.3447H70.1812C69.945 26.3447 69.7467 26.5345 69.7341 26.775C69.6539 28.0237 69.1266 28.8759 68.1141 29.3737C68.1014 29.378 68.093 29.3864 68.0803 29.3906C67.148 29.8336 66.0258 29.8294 65.0681 29.3737C63.9502 28.8422 63.4017 27.9141 63.3891 26.5345C63.3891 26.4206 63.2962 26.3278 63.1823 26.3278H62.6888C62.2795 26.3278 61.9462 25.9945 61.9462 25.5853C61.9462 25.1803 62.2795 24.847 62.6888 24.847ZM62.6888 26.7412H62.9798C63.0473 28.1672 63.6886 29.1755 64.8909 29.7492C65.4309 30.0066 66.0173 30.1331 66.5995 30.1331C67.072 30.1331 67.5445 30.0487 67.9875 29.88V30.5719C67.9875 31.0528 68.2533 31.4831 68.6583 31.7025C68.6794 31.7194 68.7005 31.7278 68.7216 31.7362C68.8439 31.7995 68.9789 31.8417 69.1181 31.8586L69.8986 31.9641C69.27 33.7781 67.3673 34.6978 64.237 34.6767C64.3256 31.6814 63.9375 30.0783 61.9462 28.9941V26.4712C62.1445 26.64 62.4061 26.7412 62.6888 26.7412ZM58.5586 37.8492V37.6762C58.837 37.7648 59.1323 37.807 59.4319 37.807C59.8369 37.807 60.2587 37.7311 60.6722 37.575L60.668 37.8492C60.668 38.4019 60.9633 38.9208 61.44 39.2034C61.5117 39.2456 61.5919 39.2752 61.6678 39.3089C61.132 39.7434 60.4022 39.9923 59.6133 39.9712C58.837 39.9628 58.1114 39.7097 57.6052 39.2836C57.6642 39.2583 57.7275 39.2372 57.7823 39.2034C58.2633 38.9208 58.5586 38.4019 58.5586 37.8492ZM60.8198 37.0603C60.8156 37.0603 60.8114 37.0645 60.8072 37.0687C60.803 37.0687 60.803 37.0687 60.803 37.073C59.9887 37.4569 59.1323 37.4991 58.432 37.1869C58.3983 37.1742 58.3645 37.1616 58.335 37.1447C57.4406 36.7017 56.9344 35.8411 56.7741 34.5122C56.7656 34.4109 56.6728 34.3308 56.5716 34.3308H55.9978C55.8333 34.3308 55.6772 34.2675 55.5591 34.1536C55.4409 34.0355 55.3777 33.8794 55.3777 33.7148C55.3777 33.3731 55.6561 33.0947 55.9978 33.0947H57.0398C57.39 33.0947 57.6727 32.812 57.6727 32.4619V31.7278C57.6727 31.6561 57.7064 31.5928 57.7655 31.5506C57.8203 31.5127 57.892 31.5 57.9595 31.5211L60.9338 32.5252C61.2923 32.6475 61.6214 32.8627 61.883 33.1411C62.2669 33.5545 62.482 34.0692 62.4905 34.5839C62.4989 35.2167 62.3302 35.7525 61.9716 36.1997C61.9631 36.2081 61.9505 36.2208 61.942 36.2334C61.672 36.5583 61.2966 36.8325 60.8198 37.0603ZM49.5389 24.3197C49.5262 24.2142 49.4377 24.1341 49.3322 24.1341H48.8302C48.4167 24.1341 48.0792 23.7966 48.0792 23.3831C48.0792 23.0541 48.2902 22.7756 48.5812 22.6744C48.5939 22.6659 48.6066 22.6617 48.6192 22.6617C48.6867 22.6406 48.7584 22.628 48.8302 22.628H49.4503C49.9397 22.628 50.3405 22.2272 50.3405 21.7378V21.6408C50.3405 21.4805 50.408 21.3328 50.5303 21.2316C50.6527 21.1303 50.813 21.0881 50.9691 21.1134L54.9684 21.8433C55.1625 21.8812 55.3228 22.0078 55.403 22.1892L55.4198 22.2272C55.5802 22.5942 55.943 22.8305 56.3438 22.8305H56.8247C57.1875 22.8305 57.4786 23.1216 57.4786 23.4802C57.4786 23.843 57.1875 24.1341 56.8247 24.1341H56.1202C56.0653 24.1341 56.0105 24.1594 55.9725 24.2016C55.9303 24.2395 55.9092 24.2986 55.9134 24.3534C55.9852 25.7498 55.4789 26.6864 54.3778 27.2137C54.3609 27.218 54.3483 27.2264 54.3356 27.2306C54.1711 27.3108 53.9939 27.3741 53.8041 27.4331C53.0742 27.6525 52.3444 27.6609 51.6863 27.4584C51.5006 27.3994 51.3277 27.3277 51.1673 27.2391C51.1547 27.2306 51.1336 27.2222 51.1167 27.2137H51.1125C50.2055 26.7075 49.6866 25.7583 49.5389 24.3197ZM50.4291 29.7366C50.9142 29.5973 51.2517 29.1417 51.2517 28.6312V27.7411C51.353 27.7833 51.4542 27.8212 51.5639 27.855C51.9183 27.9647 52.2938 28.0195 52.6734 28.0195C53.0827 28.0195 53.5045 27.9562 53.9222 27.8297C54.0319 27.7959 54.1416 27.758 54.2428 27.72V28.7198C54.2428 29.1712 54.4327 29.5931 54.7702 29.8969L53.3442 30.9558C52.9941 31.2131 52.5427 31.2342 52.1756 31.0022L50.2561 29.7872H50.2603L50.4291 29.7366ZM49.0537 40.8487V32.4956C49.0537 32.3775 48.9609 32.2847 48.8428 32.2847C48.7289 32.2847 48.6361 32.3775 48.6361 32.4956V34.4531H46.8684C46.8431 34.4531 46.8178 34.4489 46.7925 34.4447C46.7756 34.4362 46.7588 34.432 46.7419 34.432C46.552 34.3814 46.4255 34.2084 46.4255 34.0102V31.9134C46.4255 31.3228 46.8052 30.8123 47.3747 30.6436L49.7245 29.9433L51.9563 31.3566C52.1967 31.5084 52.4625 31.5802 52.7283 31.5802C53.032 31.5802 53.3316 31.4831 53.5931 31.2891L55.1161 30.1584L55.7278 30.6056C55.2806 31.3945 55.0612 32.2973 55.0866 33.2339C55.0064 33.3773 54.9642 33.5419 54.9642 33.7148C54.9642 33.9891 55.0739 34.2506 55.268 34.4447C55.4663 34.6387 55.7236 34.7484 56.002 34.7484H56.3902C56.5927 36.1027 57.1833 37.0308 58.1494 37.5117V37.8492C58.1494 38.2584 57.93 38.6381 57.5798 38.8448C57.4491 38.925 57.2887 38.9756 57.1073 38.9967C56.1497 39.1191 55.4409 39.4819 55.0022 40.0683C54.8334 40.2961 54.7069 40.5577 54.6141 40.8445H49.0537V40.8487ZM64.2792 43.0298C64.2666 43.11 64.1948 43.1691 64.1105 43.1691H55.1203C55.0359 43.1691 54.9642 43.11 54.9516 43.0298C54.7575 41.8275 54.8841 40.9162 55.327 40.3214C55.6983 39.8278 56.31 39.5241 57.1453 39.4144C57.7233 40.0134 58.6345 40.3762 59.6133 40.3847C59.6302 40.3847 59.6428 40.3847 59.6597 40.3847C60.6469 40.3847 61.5455 40.0345 62.1572 39.427C62.9545 39.5452 63.5452 39.8405 63.9037 40.3214C64.3467 40.9162 64.4733 41.8275 64.2792 43.0298ZM64.2328 40.0725C63.7941 39.4819 63.0853 39.1233 62.1277 39.0009C61.9462 38.9798 61.7859 38.925 61.6552 38.8491C61.305 38.6423 61.0856 38.2584 61.0856 37.8534L61.0898 37.3936C61.0898 37.3936 61.0898 37.3936 61.0941 37.3936C61.5539 37.1616 61.9252 36.8831 62.2078 36.5583H62.9545C63.2119 36.5583 63.4608 36.4823 63.6802 36.3305C63.9966 36.1027 64.1864 35.7525 64.2075 35.3644C64.2117 35.2758 64.2159 35.1872 64.2202 35.1028C64.2202 35.1028 64.2202 35.1028 64.2202 35.0986C64.2455 35.0986 64.2666 35.0986 64.2919 35.0986C67.6373 35.0986 69.6623 34.0608 70.3162 32.0189H70.3205L71.5566 32.1834C72.143 32.2636 72.5902 32.7698 72.5902 33.3605V34.9509C72.5902 35.2589 72.472 35.5373 72.278 35.7483C72.2653 35.7652 72.2527 35.7778 72.24 35.7905C72.24 35.7905 72.24 35.7947 72.2358 35.7947C72.0206 36.0056 71.7295 36.1406 71.4005 36.1406H70.5862V34.8877C70.5862 34.7737 70.4934 34.6767 70.3795 34.6767C70.2656 34.6767 70.1728 34.7737 70.1728 34.8877V40.8445H64.6209C64.5281 40.5577 64.4016 40.2961 64.2328 40.0725Z" fill="#FF0000"/>
<path d="M53.9138 36.3557C53.5889 36.1363 53.1713 36.1532 52.7789 36.3979C52.3866 36.1532 51.9689 36.1363 51.6441 36.3557C51.3066 36.5835 51.1589 37.0223 51.2771 37.4568C51.4627 38.0221 51.9183 38.5157 52.6735 38.9671C52.703 38.9882 52.741 38.9966 52.7789 38.9966C52.8169 38.9966 52.8549 38.9882 52.8844 38.9671C53.6396 38.5157 54.0952 38.0221 54.2808 37.4568C54.2808 37.4526 54.2808 37.4526 54.2808 37.4483C54.3989 37.0223 54.2513 36.5835 53.9138 36.3557ZM68.2871 36.2966C67.9453 36.0688 67.5108 36.0857 67.0974 36.3473C66.6839 36.0899 66.2494 36.0688 65.9077 36.2966C65.5575 36.5371 65.4014 36.9927 65.5238 37.4357C65.5238 37.4399 65.528 37.4441 65.528 37.4441C65.7178 38.0348 66.1988 38.5537 66.9919 39.0304C67.0214 39.0515 67.0594 39.0599 67.0974 39.0599C67.1353 39.0599 67.1691 39.0515 67.2028 39.0304C67.996 38.5537 68.4769 38.0348 68.671 37.4357C68.7933 36.9927 68.6372 36.5371 68.2871 36.2966ZM60.3558 41.241C60.1575 41.106 59.9086 41.106 59.6724 41.2326C59.4403 41.106 59.1914 41.106 58.9932 41.241C58.7738 41.3887 58.6768 41.6713 58.7527 41.9455V41.9582C58.8624 42.2915 59.1282 42.5826 59.5669 42.8441C59.6007 42.8652 59.6386 42.8737 59.6724 42.8737C59.7103 42.8737 59.7483 42.8652 59.7821 42.8441C60.2208 42.5826 60.4866 42.2915 60.5963 41.9455C60.6722 41.6713 60.5752 41.3887 60.3558 41.241ZM52.5722 26.3108C52.9055 26.3108 53.2303 26.1379 53.5425 25.7962C53.6185 25.7118 53.6143 25.581 53.5299 25.5008C53.4455 25.4249 53.3147 25.4291 53.2346 25.5135C52.7747 26.0198 52.3655 26.0198 51.9057 25.5135C51.8297 25.4291 51.6947 25.4207 51.6103 25.5008C51.526 25.5768 51.5175 25.7076 51.5977 25.7962C51.9141 26.1379 52.2389 26.3108 52.5722 26.3108ZM66.5489 28.7704C66.8822 28.7704 67.2071 28.5974 67.5193 28.2557C67.5952 28.1713 67.591 28.0405 67.5066 27.9604C67.4222 27.8844 67.2914 27.8887 67.2113 27.973C66.7514 28.4793 66.3422 28.4793 65.8824 27.973C65.8064 27.8887 65.6714 27.8802 65.5871 27.9604C65.5027 28.0363 65.4943 28.1671 65.5744 28.2557C65.8908 28.5974 66.2157 28.7704 66.5489 28.7704ZM60.2503 35.5457C59.7905 36.0519 59.3813 36.0519 58.9214 35.5457C58.8455 35.4613 58.7105 35.4529 58.6261 35.533C58.5418 35.609 58.5333 35.7398 58.6135 35.8283C58.9257 36.1701 59.2505 36.343 59.5838 36.343C59.9171 36.343 60.2419 36.1701 60.5541 35.8283C60.63 35.744 60.6258 35.6132 60.5414 35.533C60.4613 35.4529 60.3263 35.4613 60.2503 35.5457ZM59.183 27.3782C59.2168 27.3993 59.2505 27.4077 59.2885 27.4077C59.3264 27.4077 59.3644 27.3993 59.3939 27.3782C60.0057 27.0154 60.3727 26.6146 60.5203 26.1548C60.5203 26.1548 60.5203 26.1505 60.5246 26.1463C60.6216 25.7919 60.495 25.4249 60.2124 25.2351C59.9466 25.0537 59.6091 25.0621 59.2885 25.2519C58.9678 25.0621 58.6303 25.0537 58.3646 25.2351C58.0819 25.4249 57.9553 25.7919 58.0566 26.1548C58.2043 26.6146 58.5755 27.0154 59.183 27.3782Z" fill="#FF0000"/>
<defs>
<filter id="filter0_d_160_417" x="-7.53403e-05" y="0" width="497.016" height="103.564" filterUnits="userSpaceOnUse" color-interpolation-filters="sRGB">
<feFlood flood-opacity="0" result="BackgroundImageFix"/>
<feColorMatrix in="SourceAlpha" type="matrix" values="0 0 0 0 0 0 0 0 0 0 0 0 0 0 0 0 0 0 127 0" result="hardAlpha"/>
<feMorphology radius="14.7337" operator="erode" in="SourceAlpha" result="effect1_dropShadow_160_417"/>
<feOffset dy="24.5562"/>
<feGaussianBlur stdDeviation="16.3708"/>
<feColorMatrix type="matrix" values="0 0 0 0 0.583333 0 0 0 0 0.583333 0 0 0 0 0.583333 0 0 0 0.25 0"/>
<feBlend mode="normal" in2="BackgroundImageFix" result="effect1_dropShadow_160_417"/>
<feBlend mode="normal" in="SourceGraphic" in2="effect1_dropShadow_160_417" result="shape"/>
</filter>
</defs>
</svg>
