<svg width="498" height="104" viewBox="0 0 498 104" fill="none" xmlns="http://www.w3.org/2000/svg">
<g filter="url(#filter0_d_160_425)">
<rect x="18.0078" width="461" height="61" rx="4.91124" fill="white"/>
</g>
<path d="M111.587 30.2154V23.456H114.187V40H111.587V32.697H106.6V40H103.977V23.456H106.6V30.2154H111.587ZM122.375 39.3855C122.281 39.48 122.107 39.5903 121.855 39.7164C121.619 39.8424 121.335 39.9449 121.004 40.0236C120.689 40.1182 120.366 40.1654 120.035 40.1654C119.673 40.1654 119.311 40.126 118.948 40.0473C118.586 39.9685 118.239 39.8424 117.908 39.6691C117.577 39.4958 117.286 39.2595 117.034 38.9601C116.782 38.6607 116.585 38.2905 116.443 37.8493C116.301 37.4081 116.23 36.8803 116.23 36.2658V28.1592H118.877V36.2185C118.877 36.5809 118.932 36.8803 119.043 37.1166C119.153 37.3372 119.311 37.5026 119.515 37.6129C119.736 37.7075 120.004 37.7547 120.319 37.7547C120.587 37.7547 120.847 37.7075 121.099 37.6129C121.351 37.5184 121.572 37.3845 121.761 37.2112C121.95 37.0378 122.099 36.8409 122.21 36.6203C122.32 36.384 122.375 36.124 122.375 35.8404V28.1592H124.975V40H122.375V39.3855ZM139.677 31.9171C139.677 31.6807 139.63 31.468 139.535 31.279C139.441 31.0741 139.307 30.9087 139.134 30.7826C138.96 30.6408 138.763 30.5305 138.543 30.4518C138.322 30.373 138.086 30.3336 137.834 30.3336C137.692 30.3336 137.511 30.3572 137.29 30.4045C137.085 30.436 136.857 30.499 136.605 30.5936C136.368 30.6724 136.124 30.7748 135.872 30.9008C135.904 31.0426 135.919 31.1923 135.919 31.3499C135.935 31.5074 135.943 31.6729 135.943 31.8462V40H133.343V31.9171C133.343 31.6807 133.296 31.468 133.201 31.279C133.107 31.0741 132.981 30.9087 132.823 30.7826C132.666 30.6408 132.477 30.5305 132.256 30.4518C132.036 30.373 131.799 30.3336 131.547 30.3336C131.374 30.3336 131.185 30.3572 130.98 30.4045C130.775 30.436 130.562 30.499 130.342 30.5936C130.121 30.6724 129.893 30.7748 129.656 30.9008V40H127.033V28.1592H129.656V28.7265C129.782 28.6477 129.964 28.5531 130.2 28.4429C130.452 28.3168 130.728 28.2065 131.027 28.112C131.342 28.0174 131.665 27.9702 131.996 27.9702C132.374 27.9702 132.745 28.0096 133.107 28.0883C133.469 28.1514 133.816 28.2695 134.147 28.4429C134.493 28.6004 134.793 28.821 135.045 29.1046C135.329 28.9155 135.628 28.7343 135.943 28.561C136.274 28.3877 136.636 28.2459 137.03 28.1356C137.424 28.0253 137.85 27.9702 138.306 27.9702C138.779 27.9702 139.244 28.0332 139.701 28.1592C140.174 28.2695 140.599 28.4744 140.977 28.7737C141.371 29.0573 141.686 29.4513 141.923 29.9554C142.159 30.4596 142.277 31.0899 142.277 31.8462V40H139.677V31.9171ZM150.745 32.0825C150.745 31.6256 150.698 31.2475 150.603 30.9481C150.509 30.6487 150.359 30.4124 150.154 30.2391C149.95 30.0657 149.69 29.9397 149.375 29.8609C149.059 29.7821 148.673 29.7427 148.216 29.7427L148.429 27.9465C149.327 27.9465 150.084 28.0253 150.698 28.1829C151.328 28.3404 151.832 28.6083 152.211 28.9864C152.605 29.3488 152.888 29.8373 153.061 30.4518C153.251 31.0663 153.345 31.8304 153.345 32.7443V40C153.093 40.0315 152.833 40.063 152.565 40.0945C152.297 40.126 152.022 40.1497 151.738 40.1654C151.47 40.197 151.186 40.2127 150.887 40.2127C150.603 40.2285 150.312 40.2363 150.013 40.2363C149.713 40.2521 149.406 40.26 149.091 40.26C148.413 40.26 147.783 40.197 147.2 40.0709C146.617 39.9449 146.097 39.7321 145.64 39.4328C145.199 39.1177 144.852 38.708 144.6 38.2038C144.348 37.6996 144.222 37.0694 144.222 36.3131V34.0205C144.222 33.4218 144.309 32.9018 144.482 32.4607C144.656 32.0195 144.892 31.6571 145.191 31.3735C145.491 31.0899 145.829 30.8772 146.208 30.7354C146.601 30.5936 147.011 30.5227 147.436 30.5227C147.83 30.5227 148.24 30.5857 148.665 30.7117C149.091 30.822 149.485 30.9954 149.847 31.2317C150.225 31.4523 150.525 31.7359 150.745 32.0825ZM150.745 34.0205C150.667 33.9575 150.485 33.863 150.202 33.7369C149.934 33.6109 149.619 33.4927 149.256 33.3824C148.894 33.2564 148.532 33.1933 148.169 33.1933C147.996 33.1933 147.83 33.217 147.673 33.2642C147.515 33.2958 147.373 33.3588 147.247 33.4533C147.137 33.5321 147.043 33.6503 146.964 33.8078C146.901 33.9496 146.869 34.1308 146.869 34.3514V35.8876C146.869 36.187 146.893 36.4549 146.94 36.6912C147.003 36.9275 147.113 37.1324 147.271 37.3057C147.444 37.479 147.689 37.6129 148.004 37.7075C148.335 37.802 148.768 37.8493 149.304 37.8493C149.382 37.8493 149.477 37.8493 149.587 37.8493C149.713 37.8335 149.839 37.8256 149.965 37.8256C150.107 37.8099 150.233 37.802 150.344 37.802C150.47 37.7863 150.564 37.7784 150.627 37.7784C150.706 37.7626 150.745 37.7547 150.745 37.7547V34.0205ZM161.544 31.8935C161.544 31.6729 161.505 31.468 161.426 31.279C161.347 31.0741 161.229 30.9008 161.071 30.759C160.93 30.6172 160.756 30.5069 160.551 30.4281C160.347 30.3494 160.118 30.31 159.866 30.31C159.693 30.31 159.504 30.3257 159.299 30.3572C159.11 30.3887 158.905 30.4518 158.684 30.5463C158.464 30.6251 158.227 30.7354 157.975 30.8772V40.0236H155.376V28.1592H157.975V28.7028C158.117 28.6241 158.306 28.5295 158.543 28.4192C158.795 28.2932 159.07 28.1829 159.37 28.0883C159.685 27.9938 160.008 27.9465 160.339 27.9465C160.717 27.9465 161.087 27.9859 161.45 28.0647C161.812 28.1435 162.151 28.2695 162.466 28.4429C162.797 28.6162 163.08 28.8525 163.317 29.1519C163.569 29.4355 163.766 29.7979 163.908 30.2391C164.049 30.6802 164.12 31.2081 164.12 31.8226V40.0236H161.544V31.8935ZM166.157 40V28.1592H168.78V40H166.157ZM167.48 23.2197C167.874 23.2197 168.205 23.3457 168.473 23.5978C168.757 23.8499 168.898 24.1808 168.898 24.5905C168.898 24.9844 168.757 25.3231 168.473 25.6067C168.205 25.8746 167.874 26.0085 167.48 26.0085C167.086 26.0085 166.748 25.8746 166.464 25.6067C166.196 25.3231 166.062 24.9844 166.062 24.5905C166.062 24.1808 166.196 23.8499 166.464 23.5978C166.748 23.3457 167.086 23.2197 167.48 23.2197ZM173.602 36.8803C173.602 37.2269 173.673 37.5026 173.815 37.7075C173.957 37.8966 174.154 38.0305 174.406 38.1093C174.674 38.188 174.989 38.2274 175.351 38.2274L174.571 40.3072C173.374 40.2757 172.468 39.9764 171.853 39.4091C171.255 38.8262 170.955 37.9832 170.955 36.8803V23.456H173.602V28.1829H175.871L175.328 30.5699H173.602V36.8803ZM182.365 32.0825C182.365 31.6256 182.318 31.2475 182.224 30.9481C182.129 30.6487 181.979 30.4124 181.774 30.2391C181.57 30.0657 181.31 29.9397 180.995 29.8609C180.679 29.7821 180.293 29.7427 179.836 29.7427L180.049 27.9465C180.947 27.9465 181.704 28.0253 182.318 28.1829C182.948 28.3404 183.452 28.6083 183.831 28.9864C184.225 29.3488 184.508 29.8373 184.681 30.4518C184.871 31.0663 184.965 31.8304 184.965 32.7443V40C184.713 40.0315 184.453 40.063 184.185 40.0945C183.917 40.126 183.642 40.1497 183.358 40.1654C183.09 40.197 182.806 40.2127 182.507 40.2127C182.224 40.2285 181.932 40.2363 181.633 40.2363C181.333 40.2521 181.026 40.26 180.711 40.26C180.033 40.26 179.403 40.197 178.82 40.0709C178.237 39.9449 177.717 39.7321 177.26 39.4328C176.819 39.1177 176.473 38.708 176.22 38.2038C175.968 37.6996 175.842 37.0694 175.842 36.3131V34.0205C175.842 33.4218 175.929 32.9018 176.102 32.4607C176.276 32.0195 176.512 31.6571 176.811 31.3735C177.111 31.0899 177.449 30.8772 177.828 30.7354C178.221 30.5936 178.631 30.5227 179.057 30.5227C179.45 30.5227 179.86 30.5857 180.286 30.7117C180.711 30.822 181.105 30.9954 181.467 31.2317C181.845 31.4523 182.145 31.7359 182.365 32.0825ZM182.365 34.0205C182.287 33.9575 182.105 33.863 181.822 33.7369C181.554 33.6109 181.239 33.4927 180.876 33.3824C180.514 33.2564 180.152 33.1933 179.789 33.1933C179.616 33.1933 179.45 33.217 179.293 33.2642C179.135 33.2958 178.994 33.3588 178.867 33.4533C178.757 33.5321 178.663 33.6503 178.584 33.8078C178.521 33.9496 178.489 34.1308 178.489 34.3514V35.8876C178.489 36.187 178.513 36.4549 178.56 36.6912C178.623 36.9275 178.734 37.1324 178.891 37.3057C179.064 37.479 179.309 37.6129 179.624 37.7075C179.955 37.802 180.388 37.8493 180.924 37.8493C181.002 37.8493 181.097 37.8493 181.207 37.8493C181.333 37.8335 181.459 37.8256 181.585 37.8256C181.727 37.8099 181.853 37.802 181.964 37.802C182.09 37.7863 182.184 37.7784 182.247 37.7784C182.326 37.7626 182.365 37.7547 182.365 37.7547V34.0205ZM193.92 30.31C193.92 30.31 193.818 30.2863 193.613 30.2391C193.424 30.176 193.117 30.1445 192.691 30.1445C192.439 30.1445 192.179 30.1603 191.912 30.1918C191.644 30.2075 191.376 30.2469 191.108 30.31C190.856 30.3572 190.604 30.4203 190.352 30.499C190.1 30.5778 189.855 30.6802 189.619 30.8063V40H186.996V28.1592H189.619V28.6319C190.013 28.3641 190.454 28.1592 190.943 28.0174C191.431 27.8756 191.927 27.8047 192.431 27.8047C192.794 27.8047 193.133 27.8441 193.448 27.9229C193.763 27.9859 194.046 28.0647 194.299 28.1592L193.92 30.31ZM196.207 40V28.1592H198.831V40H196.207ZM197.531 23.2197C197.925 23.2197 198.256 23.3457 198.524 23.5978C198.807 23.8499 198.949 24.1808 198.949 24.5905C198.949 24.9844 198.807 25.3231 198.524 25.6067C198.256 25.8746 197.925 26.0085 197.531 26.0085C197.137 26.0085 196.798 25.8746 196.515 25.6067C196.247 25.3231 196.113 24.9844 196.113 24.5905C196.113 24.1808 196.247 23.8499 196.515 23.5978C196.798 23.3457 197.137 23.2197 197.531 23.2197ZM207.338 32.0825C207.338 31.6256 207.291 31.2475 207.196 30.9481C207.102 30.6487 206.952 30.4124 206.747 30.2391C206.543 30.0657 206.283 29.9397 205.967 29.8609C205.652 29.7821 205.266 29.7427 204.809 29.7427L205.022 27.9465C205.92 27.9465 206.676 28.0253 207.291 28.1829C207.921 28.3404 208.425 28.6083 208.804 28.9864C209.197 29.3488 209.481 29.8373 209.654 30.4518C209.843 31.0663 209.938 31.8304 209.938 32.7443V40C209.686 40.0315 209.426 40.063 209.158 40.0945C208.89 40.126 208.614 40.1497 208.331 40.1654C208.063 40.197 207.779 40.2127 207.48 40.2127C207.196 40.2285 206.905 40.2363 206.606 40.2363C206.306 40.2521 205.999 40.26 205.684 40.26C205.006 40.26 204.376 40.197 203.793 40.0709C203.21 39.9449 202.69 39.7321 202.233 39.4328C201.792 39.1177 201.445 38.708 201.193 38.2038C200.941 37.6996 200.815 37.0694 200.815 36.3131V34.0205C200.815 33.4218 200.902 32.9018 201.075 32.4607C201.248 32.0195 201.485 31.6571 201.784 31.3735C202.084 31.0899 202.422 30.8772 202.8 30.7354C203.194 30.5936 203.604 30.5227 204.029 30.5227C204.423 30.5227 204.833 30.5857 205.258 30.7117C205.684 30.822 206.078 30.9954 206.44 31.2317C206.818 31.4523 207.118 31.7359 207.338 32.0825ZM207.338 34.0205C207.259 33.9575 207.078 33.863 206.795 33.7369C206.527 33.6109 206.212 33.4927 205.849 33.3824C205.487 33.2564 205.124 33.1933 204.762 33.1933C204.589 33.1933 204.423 33.217 204.266 33.2642C204.108 33.2958 203.966 33.3588 203.84 33.4533C203.73 33.5321 203.636 33.6503 203.557 33.8078C203.494 33.9496 203.462 34.1308 203.462 34.3514V35.8876C203.462 36.187 203.486 36.4549 203.533 36.6912C203.596 36.9275 203.706 37.1324 203.864 37.3057C204.037 37.479 204.282 37.6129 204.597 37.7075C204.928 37.802 205.361 37.8493 205.897 37.8493C205.975 37.8493 206.07 37.8493 206.18 37.8493C206.306 37.8335 206.432 37.8256 206.558 37.8256C206.7 37.8099 206.826 37.802 206.936 37.802C207.062 37.7863 207.157 37.7784 207.22 37.7784C207.299 37.7626 207.338 37.7547 207.338 37.7547V34.0205ZM218.137 31.8935C218.137 31.6729 218.098 31.468 218.019 31.279C217.94 31.0741 217.822 30.9008 217.664 30.759C217.523 30.6172 217.349 30.5069 217.144 30.4281C216.94 30.3494 216.711 30.31 216.459 30.31C216.286 30.31 216.097 30.3257 215.892 30.3572C215.703 30.3887 215.498 30.4518 215.277 30.5463C215.057 30.6251 214.82 30.7354 214.568 30.8772V40.0236H211.968V28.1592H214.568V28.7028C214.71 28.6241 214.899 28.5295 215.135 28.4192C215.388 28.2932 215.663 28.1829 215.963 28.0883C216.278 27.9938 216.601 27.9465 216.932 27.9465C217.31 27.9465 217.68 27.9859 218.042 28.0647C218.405 28.1435 218.744 28.2695 219.059 28.4429C219.39 28.6162 219.673 28.8525 219.91 29.1519C220.162 29.4355 220.359 29.7979 220.5 30.2391C220.642 30.6802 220.713 31.2081 220.713 31.8226V40.0236H218.137V31.8935ZM237.294 26.0558H234.269C233.812 26.0558 233.41 26.1582 233.064 26.363C232.717 26.5521 232.544 26.8751 232.544 27.332C232.544 27.6787 232.607 28.0017 232.733 28.301C232.859 28.5847 233.032 28.8525 233.253 29.1046C233.473 29.3567 233.71 29.5931 233.962 29.8136C234.229 30.0342 234.505 30.2469 234.789 30.4518H235.072V27.9938H237.672V30.4518H240.036L239.492 32.7443H237.672V36.7621C237.672 37.2978 237.846 37.6602 238.192 37.8493C238.539 38.0226 238.98 38.1093 239.516 38.1093L238.712 40.1891C237.987 40.1733 237.373 40.0551 236.869 39.8346C236.38 39.614 235.978 39.291 235.663 38.8656C235.411 39.1019 235.12 39.3146 234.789 39.5037C234.458 39.677 234.119 39.8109 233.773 39.9055C233.442 40 233.111 40.0473 232.78 40.0473C232.418 40.0473 232.055 40.0079 231.693 39.9291C231.33 39.8503 230.984 39.7243 230.653 39.5509C230.322 39.3776 230.03 39.1413 229.778 38.8419C229.526 38.5426 229.321 38.1723 229.164 37.7311C229.022 37.2899 228.951 36.77 228.951 36.1713V33.926C228.951 33.3115 229.022 32.7916 229.164 32.3661C229.306 31.925 229.503 31.5626 229.755 31.279C230.023 30.9954 230.338 30.7905 230.7 30.6645C231.063 30.5227 231.464 30.4518 231.905 30.4518H232.236C231.795 30.1997 231.401 29.9003 231.055 29.5537C230.708 29.1913 230.432 28.7895 230.227 28.3483C230.038 27.8914 229.944 27.3951 229.944 26.8594C229.944 26.1818 230.117 25.5831 230.464 25.0632C230.81 24.5432 231.275 24.1414 231.858 23.8578C232.457 23.5584 233.111 23.4088 233.82 23.4088H237.79L237.294 26.0558ZM235.072 32.6498H232.993C232.804 32.6498 232.622 32.6734 232.449 32.7207C232.276 32.7522 232.118 32.8152 231.976 32.9097C231.85 33.0043 231.748 33.1303 231.669 33.2879C231.59 33.4454 231.551 33.6424 231.551 33.8787V36.1004C231.551 36.3997 231.614 36.6676 231.74 36.9039C231.882 37.1403 232.071 37.3293 232.307 37.4711C232.559 37.5972 232.851 37.6602 233.182 37.6602C233.497 37.6602 233.796 37.5972 234.08 37.4711C234.363 37.3293 234.6 37.1403 234.789 36.9039C234.978 36.6518 235.072 36.3603 235.072 36.0294V32.6498ZM255.505 26.1976C255.205 26.0716 254.851 25.977 254.441 25.914C254.032 25.8352 253.646 25.7958 253.283 25.7958C252.763 25.7958 252.322 25.8667 251.96 26.0085C251.613 26.1503 251.345 26.3709 251.156 26.6703C250.967 26.9697 250.872 27.3636 250.872 27.852V35.604C250.872 36.0925 250.959 36.4864 251.132 36.7857C251.306 37.0694 251.55 37.2821 251.865 37.4239C252.196 37.5499 252.598 37.6129 253.07 37.6129C253.559 37.6129 254.039 37.5657 254.512 37.4711C254.985 37.3766 255.395 37.2742 255.741 37.1639C256.104 37.0536 256.324 36.9906 256.403 36.9748L256.781 39.4564C256.104 39.7085 255.442 39.9055 254.796 40.0473C254.15 40.2048 253.527 40.2836 252.929 40.2836C251.952 40.2836 251.109 40.1103 250.4 39.7637C249.707 39.4013 249.171 38.8734 248.793 38.1802C248.43 37.4869 248.249 36.6439 248.249 35.6513V27.9229C248.249 26.883 248.446 26.0085 248.84 25.2995C249.25 24.5905 249.793 24.0626 250.471 23.716C251.164 23.3536 251.944 23.1724 252.81 23.1724C253.378 23.1724 253.945 23.2433 254.512 23.3851C255.079 23.5112 255.647 23.716 256.214 23.9996L255.505 26.1976ZM266.962 35.6277C266.962 37.0142 266.607 38.1329 265.898 38.9837C265.189 39.8188 264.11 40.2363 262.66 40.2363C261.62 40.2363 260.77 40.0236 260.108 39.5982C259.462 39.157 258.981 38.5898 258.666 37.8966C258.367 37.1875 258.217 36.4312 258.217 35.6277V32.5079C258.217 31.4996 258.382 30.6566 258.713 29.9791C259.06 29.3016 259.564 28.7895 260.226 28.4429C260.888 28.0805 261.699 27.8993 262.66 27.8993C264.031 27.8993 265.087 28.3089 265.827 29.1282C266.584 29.9318 266.962 31.0584 266.962 32.5079V35.6277ZM264.291 32.3661C264.291 31.988 264.228 31.665 264.102 31.3971C263.976 31.1135 263.787 30.9008 263.535 30.759C263.298 30.6014 262.999 30.5227 262.637 30.5227C262.258 30.5227 261.935 30.5936 261.668 30.7354C261.416 30.8772 261.219 31.082 261.077 31.3499C260.935 31.6177 260.864 31.9565 260.864 32.3661V35.8167C260.864 36.1319 260.919 36.4312 261.029 36.7148C261.156 36.9985 261.352 37.2269 261.62 37.4002C261.888 37.5736 262.227 37.6602 262.637 37.6602C263.031 37.6602 263.346 37.5814 263.582 37.4239C263.834 37.2663 264.015 37.0457 264.126 36.7621C264.236 36.4785 264.291 36.1634 264.291 35.8167V32.3661ZM281.552 31.9171C281.552 31.6807 281.505 31.468 281.41 31.279C281.316 31.0741 281.182 30.9087 281.008 30.7826C280.835 30.6408 280.638 30.5305 280.418 30.4518C280.197 30.373 279.961 30.3336 279.708 30.3336C279.567 30.3336 279.385 30.3572 279.165 30.4045C278.96 30.436 278.732 30.499 278.48 30.5936C278.243 30.6724 277.999 30.7748 277.747 30.9008C277.778 31.0426 277.794 31.1923 277.794 31.3499C277.81 31.5074 277.818 31.6729 277.818 31.8462V40H275.218V31.9171C275.218 31.6807 275.171 31.468 275.076 31.279C274.982 31.0741 274.856 30.9087 274.698 30.7826C274.54 30.6408 274.351 30.5305 274.131 30.4518C273.91 30.373 273.674 30.3336 273.422 30.3336C273.248 30.3336 273.059 30.3572 272.855 30.4045C272.65 30.436 272.437 30.499 272.216 30.5936C271.996 30.6724 271.767 30.7748 271.531 30.9008V40H268.908V28.1592H271.531V28.7265C271.657 28.6477 271.838 28.5531 272.075 28.4429C272.327 28.3168 272.602 28.2065 272.902 28.112C273.217 28.0174 273.54 27.9702 273.871 27.9702C274.249 27.9702 274.619 28.0096 274.982 28.0883C275.344 28.1514 275.691 28.2695 276.022 28.4429C276.368 28.6004 276.668 28.821 276.92 29.1046C277.203 28.9155 277.503 28.7343 277.818 28.561C278.149 28.3877 278.511 28.2459 278.905 28.1356C279.299 28.0253 279.724 27.9702 280.181 27.9702C280.654 27.9702 281.119 28.0332 281.576 28.1592C282.048 28.2695 282.474 28.4744 282.852 28.7737C283.246 29.0573 283.561 29.4513 283.797 29.9554C284.034 30.4596 284.152 31.0899 284.152 31.8462V40H281.552V31.9171ZM294.917 35.8167C294.917 37.2663 294.578 38.3771 293.901 39.1492C293.223 39.9055 292.23 40.2836 290.923 40.2836C290.671 40.2836 290.411 40.26 290.143 40.2127C289.891 40.1654 289.646 40.0945 289.41 40C289.19 39.9212 288.985 39.8267 288.796 39.7164V45.0577L286.172 44.5378V28.1592H288.796V28.6792C288.89 28.5847 289.071 28.4822 289.339 28.372C289.607 28.2459 289.906 28.1435 290.237 28.0647C290.584 27.9702 290.907 27.9229 291.206 27.9229C292.01 27.9229 292.687 28.0805 293.239 28.3956C293.79 28.7107 294.208 29.1598 294.492 29.7427C294.775 30.3257 294.917 31.019 294.917 31.8226V35.8167ZM292.317 32.0116C292.317 31.6807 292.27 31.405 292.175 31.1844C292.081 30.9481 291.947 30.7669 291.774 30.6408C291.616 30.5148 291.435 30.4281 291.23 30.3809C291.025 30.3178 290.812 30.2863 290.592 30.2863C290.34 30.2863 290.08 30.3336 289.812 30.4281C289.56 30.5069 289.339 30.5936 289.15 30.6881C288.977 30.7669 288.859 30.822 288.796 30.8535V36.6912C288.796 36.9118 288.859 37.1009 288.985 37.2584C289.127 37.416 289.3 37.542 289.505 37.6366C289.725 37.7311 289.946 37.802 290.166 37.8493C290.403 37.8966 290.615 37.9202 290.805 37.9202C291.135 37.9202 291.411 37.8493 291.632 37.7075C291.852 37.5657 292.018 37.3687 292.128 37.1166C292.254 36.8488 292.317 36.5494 292.317 36.2185V32.0116ZM303.375 32.0825C303.375 31.6256 303.328 31.2475 303.234 30.9481C303.139 30.6487 302.989 30.4124 302.785 30.2391C302.58 30.0657 302.32 29.9397 302.005 29.8609C301.689 29.7821 301.303 29.7427 300.847 29.7427L301.059 27.9465C301.957 27.9465 302.714 28.0253 303.328 28.1829C303.958 28.3404 304.463 28.6083 304.841 28.9864C305.235 29.3488 305.518 29.8373 305.692 30.4518C305.881 31.0663 305.975 31.8304 305.975 32.7443V40C305.723 40.0315 305.463 40.063 305.195 40.0945C304.927 40.126 304.652 40.1497 304.368 40.1654C304.1 40.197 303.817 40.2127 303.517 40.2127C303.234 40.2285 302.942 40.2363 302.643 40.2363C302.343 40.2521 302.036 40.26 301.721 40.26C301.043 40.26 300.413 40.197 299.83 40.0709C299.247 39.9449 298.727 39.7321 298.27 39.4328C297.829 39.1177 297.483 38.708 297.231 38.2038C296.978 37.6996 296.852 37.0694 296.852 36.3131V34.0205C296.852 33.4218 296.939 32.9018 297.112 32.4607C297.286 32.0195 297.522 31.6571 297.821 31.3735C298.121 31.0899 298.459 30.8772 298.838 30.7354C299.232 30.5936 299.641 30.5227 300.067 30.5227C300.461 30.5227 300.87 30.5857 301.296 30.7117C301.721 30.822 302.115 30.9954 302.477 31.2317C302.855 31.4523 303.155 31.7359 303.375 32.0825ZM303.375 34.0205C303.297 33.9575 303.115 33.863 302.832 33.7369C302.564 33.6109 302.249 33.4927 301.886 33.3824C301.524 33.2564 301.162 33.1933 300.799 33.1933C300.626 33.1933 300.461 33.217 300.303 33.2642C300.145 33.2958 300.004 33.3588 299.878 33.4533C299.767 33.5321 299.673 33.6503 299.594 33.8078C299.531 33.9496 299.499 34.1308 299.499 34.3514V35.8876C299.499 36.187 299.523 36.4549 299.57 36.6912C299.633 36.9275 299.744 37.1324 299.901 37.3057C300.074 37.479 300.319 37.6129 300.634 37.7075C300.965 37.802 301.398 37.8493 301.934 37.8493C302.012 37.8493 302.107 37.8493 302.217 37.8493C302.343 37.8335 302.469 37.8256 302.595 37.8256C302.737 37.8099 302.863 37.802 302.974 37.802C303.1 37.7863 303.194 37.7784 303.257 37.7784C303.336 37.7626 303.375 37.7547 303.375 37.7547V34.0205ZM314.713 30.8772C314.54 30.7826 314.343 30.7039 314.123 30.6408C313.902 30.5621 313.666 30.5069 313.413 30.4754C313.177 30.4281 312.925 30.4045 312.657 30.4045C312.515 30.4045 312.358 30.4124 312.185 30.4281C312.027 30.4439 311.869 30.4833 311.712 30.5463C311.554 30.5936 311.42 30.6724 311.31 30.7826C311.216 30.8772 311.168 31.0111 311.168 31.1844C311.168 31.4208 311.263 31.6256 311.452 31.7989C311.657 31.9722 311.925 32.1298 312.255 32.2716C312.586 32.4134 312.949 32.5631 313.343 32.7207C313.736 32.8625 314.123 33.0358 314.501 33.2406C314.895 33.4454 315.257 33.6897 315.588 33.9733C315.919 34.2569 316.179 34.6114 316.368 35.0368C316.573 35.4465 316.675 35.9428 316.675 36.5258C316.675 37.156 316.557 37.7075 316.32 38.1802C316.084 38.6528 315.761 39.0546 315.351 39.3855C314.958 39.7006 314.501 39.937 313.981 40.0945C313.477 40.2679 312.949 40.3545 312.397 40.3545C311.531 40.3545 310.703 40.1733 309.916 39.8109C309.128 39.4485 308.458 38.9601 307.907 38.3456L309.443 36.7385C309.695 36.9591 309.963 37.1639 310.246 37.353C310.546 37.5263 310.853 37.6681 311.168 37.7784C311.483 37.8729 311.798 37.9202 312.114 37.9202C312.318 37.9202 312.523 37.8966 312.728 37.8493C312.949 37.802 313.146 37.7232 313.319 37.6129C313.492 37.5026 313.634 37.3608 313.744 37.1875C313.855 37.0142 313.91 36.8094 313.91 36.573C313.91 36.2579 313.807 35.9979 313.603 35.7931C313.413 35.5883 313.154 35.4071 312.823 35.2495C312.508 35.0762 312.153 34.9108 311.759 34.7532C311.381 34.5956 310.995 34.4302 310.601 34.2569C310.223 34.0678 309.868 33.8393 309.537 33.5715C309.222 33.3036 308.962 32.9806 308.758 32.6025C308.568 32.2243 308.474 31.7674 308.474 31.2317C308.474 30.6487 308.584 30.1445 308.805 29.7191C309.025 29.2937 309.325 28.9471 309.703 28.6792C310.097 28.3956 310.53 28.1908 311.003 28.0647C311.475 27.9229 311.956 27.852 312.444 27.852C312.791 27.852 313.146 27.8835 313.508 27.9465C313.886 28.0096 314.249 28.1041 314.595 28.2301C314.942 28.3562 315.249 28.5138 315.517 28.7028L314.713 30.8772ZM325.1 30.8772C324.926 30.7826 324.729 30.7039 324.509 30.6408C324.288 30.5621 324.052 30.5069 323.8 30.4754C323.563 30.4281 323.311 30.4045 323.043 30.4045C322.902 30.4045 322.744 30.4124 322.571 30.4281C322.413 30.4439 322.256 30.4833 322.098 30.5463C321.94 30.5936 321.806 30.6724 321.696 30.7826C321.602 30.8772 321.554 31.0111 321.554 31.1844C321.554 31.4208 321.649 31.6256 321.838 31.7989C322.043 31.9722 322.311 32.1298 322.642 32.2716C322.972 32.4134 323.335 32.5631 323.729 32.7207C324.123 32.8625 324.509 33.0358 324.887 33.2406C325.281 33.4454 325.643 33.6897 325.974 33.9733C326.305 34.2569 326.565 34.6114 326.754 35.0368C326.959 35.4465 327.061 35.9428 327.061 36.5258C327.061 37.156 326.943 37.7075 326.707 38.1802C326.47 38.6528 326.147 39.0546 325.738 39.3855C325.344 39.7006 324.887 39.937 324.367 40.0945C323.863 40.2679 323.335 40.3545 322.783 40.3545C321.917 40.3545 321.09 40.1733 320.302 39.8109C319.514 39.4485 318.844 38.9601 318.293 38.3456L319.829 36.7385C320.081 36.9591 320.349 37.1639 320.633 37.353C320.932 37.5263 321.239 37.6681 321.554 37.7784C321.869 37.8729 322.185 37.9202 322.5 37.9202C322.705 37.9202 322.909 37.8966 323.114 37.8493C323.335 37.802 323.532 37.7232 323.705 37.6129C323.878 37.5026 324.02 37.3608 324.131 37.1875C324.241 37.0142 324.296 36.8094 324.296 36.573C324.296 36.2579 324.194 35.9979 323.989 35.7931C323.8 35.5883 323.54 35.4071 323.209 35.2495C322.894 35.0762 322.539 34.9108 322.145 34.7532C321.767 34.5956 321.381 34.4302 320.987 34.2569C320.609 34.0678 320.254 33.8393 319.924 33.5715C319.608 33.3036 319.349 32.9806 319.144 32.6025C318.955 32.2243 318.86 31.7674 318.86 31.2317C318.86 30.6487 318.97 30.1445 319.191 29.7191C319.412 29.2937 319.711 28.9471 320.089 28.6792C320.483 28.3956 320.916 28.1908 321.389 28.0647C321.862 27.9229 322.342 27.852 322.831 27.852C323.177 27.852 323.532 27.8835 323.894 27.9465C324.272 28.0096 324.635 28.1041 324.981 28.2301C325.328 28.3562 325.635 28.5138 325.903 28.7028L325.1 30.8772ZM328.988 40V28.1592H331.612V40H328.988ZM330.312 23.2197C330.706 23.2197 331.037 23.3457 331.305 23.5978C331.588 23.8499 331.73 24.1808 331.73 24.5905C331.73 24.9844 331.588 25.3231 331.305 25.6067C331.037 25.8746 330.706 26.0085 330.312 26.0085C329.918 26.0085 329.579 25.8746 329.296 25.6067C329.028 25.3231 328.894 24.9844 328.894 24.5905C328.894 24.1808 329.028 23.8499 329.296 23.5978C329.579 23.3457 329.918 23.2197 330.312 23.2197ZM342.365 35.6277C342.365 37.0142 342.011 38.1329 341.302 38.9837C340.593 39.8188 339.513 40.2363 338.064 40.2363C337.024 40.2363 336.173 40.0236 335.511 39.5982C334.865 39.157 334.385 38.5898 334.069 37.8966C333.77 37.1875 333.62 36.4312 333.62 35.6277V32.5079C333.62 31.4996 333.786 30.6566 334.117 29.9791C334.463 29.3016 334.968 28.7895 335.629 28.4429C336.291 28.0805 337.103 27.8993 338.064 27.8993C339.434 27.8993 340.49 28.3089 341.231 29.1282C341.987 29.9318 342.365 31.0584 342.365 32.5079V35.6277ZM339.694 32.3661C339.694 31.988 339.631 31.665 339.505 31.3971C339.379 31.1135 339.19 30.9008 338.938 30.759C338.702 30.6014 338.402 30.5227 338.04 30.5227C337.662 30.5227 337.339 30.5936 337.071 30.7354C336.819 30.8772 336.622 31.082 336.48 31.3499C336.338 31.6177 336.267 31.9565 336.267 32.3661V35.8167C336.267 36.1319 336.323 36.4312 336.433 36.7148C336.559 36.9985 336.756 37.2269 337.024 37.4002C337.292 37.5736 337.63 37.6602 338.04 37.6602C338.434 37.6602 338.749 37.5814 338.985 37.4239C339.237 37.2663 339.419 37.0457 339.529 36.7621C339.639 36.4785 339.694 36.1634 339.694 35.8167V32.3661ZM350.48 31.8935C350.48 31.6729 350.44 31.468 350.361 31.279C350.283 31.0741 350.164 30.9008 350.007 30.759C349.865 30.6172 349.692 30.5069 349.487 30.4281C349.282 30.3494 349.054 30.31 348.802 30.31C348.628 30.31 348.439 30.3257 348.234 30.3572C348.045 30.3887 347.84 30.4518 347.62 30.5463C347.399 30.6251 347.163 30.7354 346.911 30.8772V40.0236H344.311V28.1592H346.911V28.7028C347.053 28.6241 347.242 28.5295 347.478 28.4192C347.73 28.2932 348.006 28.1829 348.305 28.0883C348.62 27.9938 348.943 27.9465 349.274 27.9465C349.652 27.9465 350.023 27.9859 350.385 28.0647C350.747 28.1435 351.086 28.2695 351.401 28.4429C351.732 28.6162 352.016 28.8525 352.252 29.1519C352.504 29.4355 352.701 29.7979 352.843 30.2391C352.985 30.6802 353.056 31.2081 353.056 31.8226V40.0236H350.48V31.8935ZM361.538 32.0825C361.538 31.6256 361.491 31.2475 361.396 30.9481C361.301 30.6487 361.152 30.4124 360.947 30.2391C360.742 30.0657 360.482 29.9397 360.167 29.8609C359.852 29.7821 359.466 29.7427 359.009 29.7427L359.222 27.9465C360.12 27.9465 360.876 28.0253 361.491 28.1829C362.121 28.3404 362.625 28.6083 363.003 28.9864C363.397 29.3488 363.681 29.8373 363.854 30.4518C364.043 31.0663 364.138 31.8304 364.138 32.7443V40C363.885 40.0315 363.625 40.063 363.358 40.0945C363.09 40.126 362.814 40.1497 362.53 40.1654C362.263 40.197 361.979 40.2127 361.68 40.2127C361.396 40.2285 361.104 40.2363 360.805 40.2363C360.506 40.2521 360.199 40.26 359.883 40.26C359.206 40.26 358.576 40.197 357.993 40.0709C357.41 39.9449 356.89 39.7321 356.433 39.4328C355.992 39.1177 355.645 38.708 355.393 38.2038C355.141 37.6996 355.015 37.0694 355.015 36.3131V34.0205C355.015 33.4218 355.101 32.9018 355.275 32.4607C355.448 32.0195 355.684 31.6571 355.984 31.3735C356.283 31.0899 356.622 30.8772 357 30.7354C357.394 30.5936 357.804 30.5227 358.229 30.5227C358.623 30.5227 359.033 30.5857 359.458 30.7117C359.883 30.822 360.277 30.9954 360.64 31.2317C361.018 31.4523 361.317 31.7359 361.538 32.0825ZM361.538 34.0205C361.459 33.9575 361.278 33.863 360.994 33.7369C360.726 33.6109 360.411 33.4927 360.049 33.3824C359.686 33.2564 359.324 33.1933 358.962 33.1933C358.788 33.1933 358.623 33.217 358.465 33.2642C358.308 33.2958 358.166 33.3588 358.04 33.4533C357.93 33.5321 357.835 33.6503 357.756 33.8078C357.693 33.9496 357.662 34.1308 357.662 34.3514V35.8876C357.662 36.187 357.685 36.4549 357.733 36.6912C357.796 36.9275 357.906 37.1324 358.064 37.3057C358.237 37.479 358.481 37.6129 358.796 37.7075C359.127 37.802 359.56 37.8493 360.096 37.8493C360.175 37.8493 360.269 37.8493 360.38 37.8493C360.506 37.8335 360.632 37.8256 360.758 37.8256C360.9 37.8099 361.026 37.802 361.136 37.802C361.262 37.7863 361.357 37.7784 361.42 37.7784C361.498 37.7626 361.538 37.7547 361.538 37.7547V34.0205ZM368.816 36.8803C368.816 37.2269 368.887 37.5026 369.028 37.7075C369.17 37.8966 369.367 38.0305 369.619 38.1093C369.887 38.188 370.202 38.2274 370.565 38.2274L369.785 40.3072C368.587 40.2757 367.681 39.9764 367.067 39.4091C366.468 38.8262 366.169 37.9832 366.169 36.8803V23.456H368.816V28.1829H371.085L370.541 30.5699H368.816V36.8803ZM374.974 36.4785C374.974 36.6833 375.006 36.8724 375.069 37.0457C375.132 37.2033 375.218 37.3451 375.329 37.4711C375.439 37.5972 375.581 37.6917 375.754 37.7547C375.927 37.8178 376.117 37.8493 376.321 37.8493C376.747 37.8493 377.227 37.7547 377.763 37.5657C378.315 37.3766 378.834 37.156 379.323 36.9039L380.268 39.1728C379.733 39.5194 379.102 39.7952 378.378 40C377.669 40.2048 376.96 40.3072 376.25 40.3072C375.699 40.3072 375.179 40.2363 374.691 40.0945C374.218 39.9527 373.8 39.74 373.438 39.4564C373.091 39.1728 372.816 38.8104 372.611 38.3692C372.422 37.9281 372.327 37.4081 372.327 36.8094V31.9644C372.327 31.0663 372.516 30.3178 372.894 29.7191C373.288 29.1204 373.816 28.6713 374.478 28.372C375.14 28.0726 375.88 27.9229 376.7 27.9229C377.535 27.9229 378.259 28.0726 378.874 28.372C379.504 28.6556 379.993 29.0967 380.339 29.6955C380.686 30.2784 380.859 31.0111 380.859 31.8935V35.5804L374.974 35.8876V36.4785ZM378.236 32.6025C378.236 32.2401 378.196 31.8935 378.118 31.5626C378.039 31.2159 377.889 30.9323 377.669 30.7117C377.448 30.4912 377.117 30.3966 376.676 30.4281C376.203 30.4439 375.841 30.5463 375.589 30.7354C375.352 30.9087 375.187 31.1529 375.092 31.468C375.014 31.7674 374.974 32.1377 374.974 32.5788V33.5006L378.236 33.2879V32.6025Z" fill="black"/>
<path d="M432.557 31.5303C432.85 31.2374 432.85 30.7626 432.557 30.4697L427.784 25.6967C427.491 25.4038 427.016 25.4038 426.723 25.6967C426.431 25.9896 426.431 26.4645 426.723 26.7574L430.966 31L426.723 35.2426C426.431 35.5355 426.431 36.0104 426.723 36.3033C427.016 36.5962 427.491 36.5962 427.784 36.3033L432.557 31.5303ZM431.008 31V31.75H432.027V31V30.25H431.008V31Z" fill="black"/>
<defs>
<filter id="filter0_d_160_425" x="-7.53403e-05" y="0" width="497.016" height="103.564" filterUnits="userSpaceOnUse" color-interpolation-filters="sRGB">
<feFlood flood-opacity="0" result="BackgroundImageFix"/>
<feColorMatrix in="SourceAlpha" type="matrix" values="0 0 0 0 0 0 0 0 0 0 0 0 0 0 0 0 0 0 127 0" result="hardAlpha"/>
<feMorphology radius="14.7337" operator="erode" in="SourceAlpha" result="effect1_dropShadow_160_425"/>
<feOffset dy="24.5562"/>
<feGaussianBlur stdDeviation="16.3708"/>
<feColorMatrix type="matrix" values="0 0 0 0 0.583333 0 0 0 0 0.583333 0 0 0 0 0.583333 0 0 0 0.25 0"/>
<feBlend mode="normal" in2="BackgroundImageFix" result="effect1_dropShadow_160_425"/>
<feBlend mode="normal" in="SourceGraphic" in2="effect1_dropShadow_160_425" result="shape"/>
</filter>
</defs>
</svg>
