<svg width="498" height="104" viewBox="0 0 498 104" fill="none" xmlns="http://www.w3.org/2000/svg">
<g filter="url(#filter0_d_160_434)">
<rect x="18.0078" width="461" height="61" rx="4.91124" fill="white"/>
</g>
<path d="M109.129 23.456C109.744 23.456 110.358 23.5427 110.973 23.716C111.587 23.8893 112.146 24.1887 112.651 24.6141C113.155 25.0395 113.557 25.6383 113.856 26.4103C114.155 27.1666 114.305 28.1277 114.305 29.2937C114.305 30.2233 114.218 31.0269 114.045 31.7044C113.887 32.3819 113.659 32.9491 113.36 33.406C113.076 33.863 112.745 34.2254 112.367 34.4932L114.4 40H111.611L109.98 35.3441C109.885 35.3598 109.791 35.3677 109.696 35.3677C109.602 35.3677 109.507 35.3677 109.413 35.3677C109.318 35.3677 109.224 35.3677 109.129 35.3677H106.6V40H103.977V23.456H109.129ZM108.16 32.8861C108.775 32.8861 109.302 32.8467 109.744 32.7679C110.185 32.6891 110.547 32.5316 110.831 32.2952C111.114 32.0431 111.319 31.6807 111.445 31.2081C111.587 30.7354 111.658 30.0973 111.658 29.2937C111.658 28.5531 111.587 27.9702 111.445 27.5448C111.319 27.1036 111.114 26.7806 110.831 26.5758C110.547 26.3552 110.185 26.2134 109.744 26.1503C109.302 26.0873 108.775 26.0558 108.16 26.0558H106.6V32.8861H108.16ZM118.667 36.4785C118.667 36.6833 118.699 36.8724 118.762 37.0457C118.825 37.2033 118.912 37.3451 119.022 37.4711C119.132 37.5972 119.274 37.6917 119.447 37.7547C119.621 37.8178 119.81 37.8493 120.014 37.8493C120.44 37.8493 120.92 37.7547 121.456 37.5657C122.008 37.3766 122.528 37.156 123.016 36.9039L123.961 39.1728C123.426 39.5194 122.795 39.7952 122.071 40C121.362 40.2048 120.653 40.3072 119.944 40.3072C119.392 40.3072 118.872 40.2363 118.384 40.0945C117.911 39.9527 117.494 39.74 117.131 39.4564C116.784 39.1728 116.509 38.8104 116.304 38.3692C116.115 37.9281 116.02 37.4081 116.02 36.8094V31.9644C116.02 31.0663 116.209 30.3178 116.588 29.7191C116.981 29.1204 117.509 28.6713 118.171 28.372C118.833 28.0726 119.573 27.9229 120.393 27.9229C121.228 27.9229 121.953 28.0726 122.567 28.372C123.197 28.6556 123.686 29.0967 124.032 29.6955C124.379 30.2784 124.552 31.0111 124.552 31.8935V35.5804L118.667 35.8876V36.4785ZM121.929 32.6025C121.929 32.2401 121.889 31.8935 121.811 31.5626C121.732 31.2159 121.582 30.9323 121.362 30.7117C121.141 30.4912 120.81 30.3966 120.369 30.4281C119.896 30.4439 119.534 30.5463 119.282 30.7354C119.045 30.9087 118.88 31.1529 118.786 31.468C118.707 31.7674 118.667 32.1377 118.667 32.5788V33.5006L121.929 33.2879V32.6025ZM131.017 25.6304C130.907 25.5831 130.765 25.5516 130.592 25.5358C130.419 25.5201 130.253 25.5122 130.096 25.5122C129.938 25.5122 129.804 25.5437 129.694 25.6067C129.584 25.654 129.489 25.7328 129.41 25.8431C129.331 25.9376 129.268 26.0479 129.221 26.174C129.19 26.3 129.174 26.4418 129.174 26.5994V28.1592H131.23L130.663 30.6172H129.174V40H126.48V27.0012C126.48 26.3394 126.566 25.7722 126.74 25.2995C126.929 24.8111 127.189 24.4093 127.519 24.0942C127.85 23.7633 128.221 23.5269 128.63 23.3851C129.056 23.2276 129.505 23.1488 129.977 23.1488C130.119 23.1488 130.277 23.1567 130.45 23.1724C130.623 23.1882 130.797 23.2118 130.97 23.2433C131.143 23.2591 131.301 23.2827 131.443 23.3142L131.017 25.6304ZM139.339 39.3855C139.245 39.48 139.071 39.5903 138.819 39.7164C138.583 39.8424 138.299 39.9449 137.968 40.0236C137.653 40.1182 137.33 40.1654 136.999 40.1654C136.637 40.1654 136.275 40.126 135.912 40.0473C135.55 39.9685 135.203 39.8424 134.872 39.6691C134.541 39.4958 134.25 39.2595 133.998 38.9601C133.746 38.6607 133.549 38.2905 133.407 37.8493C133.265 37.4081 133.194 36.8803 133.194 36.2658V28.1592H135.841V36.2185C135.841 36.5809 135.896 36.8803 136.007 37.1166C136.117 37.3372 136.275 37.5026 136.479 37.6129C136.7 37.7075 136.968 37.7547 137.283 37.7547C137.551 37.7547 137.811 37.7075 138.063 37.6129C138.315 37.5184 138.536 37.3845 138.725 37.2112C138.914 37.0378 139.063 36.8409 139.174 36.6203C139.284 36.384 139.339 36.124 139.339 35.8404V28.1592H141.939V40H139.339V39.3855ZM150.705 30.8772C150.531 30.7826 150.334 30.7039 150.114 30.6408C149.893 30.5621 149.657 30.5069 149.405 30.4754C149.168 30.4281 148.916 30.4045 148.648 30.4045C148.507 30.4045 148.349 30.4124 148.176 30.4281C148.018 30.4439 147.861 30.4833 147.703 30.5463C147.546 30.5936 147.412 30.6724 147.301 30.7826C147.207 30.8772 147.16 31.0111 147.16 31.1844C147.16 31.4208 147.254 31.6256 147.443 31.7989C147.648 31.9722 147.916 32.1298 148.247 32.2716C148.578 32.4134 148.94 32.5631 149.334 32.7207C149.728 32.8625 150.114 33.0358 150.492 33.2406C150.886 33.4454 151.248 33.6897 151.579 33.9733C151.91 34.2569 152.17 34.6114 152.359 35.0368C152.564 35.4465 152.666 35.9428 152.666 36.5258C152.666 37.156 152.548 37.7075 152.312 38.1802C152.075 38.6528 151.752 39.0546 151.343 39.3855C150.949 39.7006 150.492 39.937 149.972 40.0945C149.468 40.2679 148.94 40.3545 148.389 40.3545C147.522 40.3545 146.695 40.1733 145.907 39.8109C145.119 39.4485 144.449 38.9601 143.898 38.3456L145.434 36.7385C145.686 36.9591 145.954 37.1639 146.238 37.353C146.537 37.5263 146.844 37.6681 147.16 37.7784C147.475 37.8729 147.79 37.9202 148.105 37.9202C148.31 37.9202 148.515 37.8966 148.719 37.8493C148.94 37.802 149.137 37.7232 149.31 37.6129C149.484 37.5026 149.625 37.3608 149.736 37.1875C149.846 37.0142 149.901 36.8094 149.901 36.573C149.901 36.2579 149.799 35.9979 149.594 35.7931C149.405 35.5883 149.145 35.4071 148.814 35.2495C148.499 35.0762 148.144 34.9108 147.75 34.7532C147.372 34.5956 146.986 34.4302 146.592 34.2569C146.214 34.0678 145.86 33.8393 145.529 33.5715C145.214 33.3036 144.954 32.9806 144.749 32.6025C144.56 32.2243 144.465 31.7674 144.465 31.2317C144.465 30.6487 144.576 30.1445 144.796 29.7191C145.017 29.2937 145.316 28.9471 145.694 28.6792C146.088 28.3956 146.521 28.1908 146.994 28.0647C147.467 27.9229 147.947 27.852 148.436 27.852C148.782 27.852 149.137 27.8835 149.499 27.9465C149.877 28.0096 150.24 28.1041 150.586 28.2301C150.933 28.3562 151.24 28.5138 151.508 28.7028L150.705 30.8772ZM157.188 36.4785C157.188 36.6833 157.22 36.8724 157.283 37.0457C157.346 37.2033 157.433 37.3451 157.543 37.4711C157.653 37.5972 157.795 37.6917 157.968 37.7547C158.142 37.8178 158.331 37.8493 158.536 37.8493C158.961 37.8493 159.442 37.7547 159.977 37.5657C160.529 37.3766 161.049 37.156 161.537 36.9039L162.482 39.1728C161.947 39.5194 161.317 39.7952 160.592 40C159.883 40.2048 159.174 40.3072 158.465 40.3072C157.913 40.3072 157.393 40.2363 156.905 40.0945C156.432 39.9527 156.015 39.74 155.652 39.4564C155.306 39.1728 155.03 38.8104 154.825 38.3692C154.636 37.9281 154.541 37.4081 154.541 36.8094V31.9644C154.541 31.0663 154.73 30.3178 155.109 29.7191C155.502 29.1204 156.03 28.6713 156.692 28.372C157.354 28.0726 158.094 27.9229 158.914 27.9229C159.749 27.9229 160.474 28.0726 161.088 28.372C161.718 28.6556 162.207 29.0967 162.553 29.6955C162.9 30.2784 163.073 31.0111 163.073 31.8935V35.5804L157.188 35.8876V36.4785ZM160.45 32.6025C160.45 32.2401 160.411 31.8935 160.332 31.5626C160.253 31.2159 160.103 30.9323 159.883 30.7117C159.662 30.4912 159.331 30.3966 158.89 30.4281C158.417 30.4439 158.055 30.5463 157.803 30.7354C157.567 30.9087 157.401 31.1529 157.307 31.468C157.228 31.7674 157.188 32.1377 157.188 32.5788V33.5006L160.45 33.2879V32.6025ZM174.072 40C173.82 40.0315 173.56 40.063 173.292 40.0945C173.04 40.126 172.772 40.1497 172.489 40.1654C172.221 40.197 171.945 40.2127 171.662 40.2127C171.378 40.2285 171.086 40.2363 170.787 40.2363C170.504 40.2521 170.204 40.26 169.889 40.26C169.227 40.26 168.597 40.1812 167.998 40.0236C167.4 39.8818 166.872 39.6534 166.415 39.3382C165.958 39.0231 165.595 38.6213 165.328 38.1329C165.076 37.6287 164.949 37.0221 164.949 36.3131V31.4917C164.949 30.8772 165.052 30.3494 165.257 29.9082C165.462 29.467 165.729 29.1046 166.06 28.821C166.407 28.5216 166.793 28.3011 167.218 28.1592C167.644 28.0174 168.069 27.9465 168.495 27.9465C169.046 27.9465 169.55 27.9938 170.007 28.0883C170.48 28.1829 170.968 28.3404 171.473 28.561V23.456H174.072V40ZM171.473 31.2317C171.331 31.1529 171.063 31.0426 170.669 30.9008C170.275 30.7433 169.802 30.6645 169.251 30.6645C169.062 30.6645 168.873 30.6881 168.684 30.7354C168.495 30.7669 168.313 30.8299 168.14 30.9245C167.983 31.0032 167.849 31.1214 167.738 31.279C167.644 31.4208 167.597 31.602 167.597 31.8226V35.864C167.597 36.1634 167.628 36.4391 167.691 36.6912C167.754 36.9275 167.864 37.1324 168.022 37.3057C168.195 37.4633 168.439 37.5893 168.755 37.6838C169.085 37.7784 169.519 37.8256 170.054 37.8256C170.133 37.8256 170.228 37.8256 170.338 37.8256C170.464 37.8099 170.59 37.802 170.716 37.802C170.858 37.7863 170.984 37.7784 171.094 37.7784C171.205 37.7784 171.291 37.7784 171.354 37.7784C171.433 37.7626 171.473 37.7547 171.473 37.7547V31.2317ZM194.072 40H190.952L190.007 35.6513H186.202L185.256 40H182.302L186.32 23.456H189.983L194.072 40ZM186.84 32.8861H189.416L188.116 26.8357L186.84 32.8861ZM204.742 35.8167C204.742 37.2663 204.403 38.3771 203.726 39.1492C203.048 39.9055 202.056 40.2836 200.748 40.2836C200.496 40.2836 200.236 40.26 199.968 40.2127C199.716 40.1654 199.472 40.0945 199.235 40C199.015 39.9212 198.81 39.8267 198.621 39.7164V45.0577L195.997 44.5378V28.1592H198.621V28.6792C198.715 28.5847 198.897 28.4822 199.164 28.372C199.432 28.2459 199.732 28.1435 200.063 28.0647C200.409 27.9702 200.732 27.9229 201.032 27.9229C201.835 27.9229 202.513 28.0805 203.064 28.3956C203.616 28.7107 204.033 29.1598 204.317 29.7427C204.6 30.3257 204.742 31.019 204.742 31.8226V35.8167ZM202.142 32.0116C202.142 31.6807 202.095 31.405 202.001 31.1844C201.906 30.9481 201.772 30.7669 201.599 30.6408C201.441 30.5148 201.26 30.4281 201.055 30.3809C200.85 30.3178 200.638 30.2863 200.417 30.2863C200.165 30.2863 199.905 30.3336 199.637 30.4281C199.385 30.5069 199.164 30.5936 198.975 30.6881C198.802 30.7669 198.684 30.822 198.621 30.8535V36.6912C198.621 36.9118 198.684 37.1009 198.81 37.2584C198.952 37.416 199.125 37.542 199.33 37.6366C199.55 37.7311 199.771 37.802 199.992 37.8493C200.228 37.8966 200.441 37.9202 200.63 37.9202C200.961 37.9202 201.236 37.8493 201.457 37.7075C201.678 37.5657 201.843 37.3687 201.953 37.1166C202.079 36.8488 202.142 36.5494 202.142 36.2185V32.0116ZM215.498 35.8167C215.498 37.2663 215.159 38.3771 214.481 39.1492C213.804 39.9055 212.811 40.2836 211.503 40.2836C211.251 40.2836 210.991 40.26 210.723 40.2127C210.471 40.1654 210.227 40.0945 209.991 40C209.77 39.9212 209.565 39.8267 209.376 39.7164V45.0577L206.753 44.5378V28.1592H209.376V28.6792C209.471 28.5847 209.652 28.4822 209.92 28.372C210.188 28.2459 210.487 28.1435 210.818 28.0647C211.165 27.9702 211.488 27.9229 211.787 27.9229C212.591 27.9229 213.268 28.0805 213.82 28.3956C214.371 28.7107 214.789 29.1598 215.072 29.7427C215.356 30.3257 215.498 31.019 215.498 31.8226V35.8167ZM212.898 32.0116C212.898 31.6807 212.851 31.405 212.756 31.1844C212.661 30.9481 212.528 30.7669 212.354 30.6408C212.197 30.5148 212.015 30.4281 211.811 30.3809C211.606 30.3178 211.393 30.2863 211.172 30.2863C210.92 30.2863 210.66 30.3336 210.393 30.4281C210.14 30.5069 209.92 30.5936 209.731 30.6881C209.557 30.7669 209.439 30.822 209.376 30.8535V36.6912C209.376 36.9118 209.439 37.1009 209.565 37.2584C209.707 37.416 209.88 37.542 210.085 37.6366C210.306 37.7311 210.526 37.802 210.747 37.8493C210.983 37.8966 211.196 37.9202 211.385 37.9202C211.716 37.9202 211.992 37.8493 212.212 37.7075C212.433 37.5657 212.598 37.3687 212.709 37.1166C212.835 36.8488 212.898 36.5494 212.898 36.2185V32.0116ZM217.486 40V23.456H220.109V40H217.486ZM222.265 40V28.1592H224.888V40H222.265ZM223.589 23.2197C223.983 23.2197 224.313 23.3457 224.581 23.5978C224.865 23.8499 225.007 24.1808 225.007 24.5905C225.007 24.9844 224.865 25.3231 224.581 25.6067C224.313 25.8746 223.983 26.0085 223.589 26.0085C223.195 26.0085 222.856 25.8746 222.572 25.6067C222.304 25.3231 222.171 24.9844 222.171 24.5905C222.171 24.1808 222.304 23.8499 222.572 23.5978C222.856 23.3457 223.195 23.2197 223.589 23.2197ZM233.87 30.7117C233.586 30.5699 233.271 30.4518 232.924 30.3572C232.593 30.2469 232.255 30.1839 231.908 30.1682C231.451 30.1366 231.034 30.1918 230.655 30.3336C230.293 30.4596 230.002 30.6724 229.781 30.9717C229.576 31.2711 229.474 31.665 229.474 32.1534V35.864C229.474 36.2264 229.529 36.5494 229.639 36.833C229.765 37.1009 229.939 37.3215 230.159 37.4948C230.38 37.6681 230.64 37.802 230.939 37.8966C231.238 37.9753 231.569 38.0147 231.932 38.0147C232.184 38.0147 232.436 38.0068 232.688 37.9911C232.94 37.9596 233.169 37.9281 233.373 37.8966C233.578 37.8493 233.736 37.8178 233.846 37.802C233.972 37.7705 234.035 37.7547 234.035 37.7547L234.508 39.8818C234.019 40.0079 233.515 40.1103 232.995 40.1891C232.475 40.2679 231.947 40.2994 231.412 40.2836C230.514 40.2521 229.718 40.0867 229.025 39.7873C228.347 39.4722 227.819 38.9995 227.441 38.3692C227.063 37.7232 226.874 36.896 226.874 35.8876V32.437C226.874 31.5389 227.047 30.7511 227.394 30.0736C227.741 29.3803 228.245 28.8368 228.906 28.4429C229.584 28.049 230.411 27.8678 231.388 27.8993C231.908 27.915 232.428 27.9938 232.948 28.1356C233.468 28.2774 233.972 28.4586 234.461 28.6792L233.87 30.7117ZM242.259 32.0825C242.259 31.6256 242.211 31.2475 242.117 30.9481C242.022 30.6487 241.873 30.4124 241.668 30.2391C241.463 30.0657 241.203 29.9397 240.888 29.8609C240.573 29.7821 240.187 29.7427 239.73 29.7427L239.943 27.9465C240.841 27.9465 241.597 28.0253 242.211 28.1829C242.842 28.3404 243.346 28.6083 243.724 28.9864C244.118 29.3488 244.402 29.8373 244.575 30.4518C244.764 31.0663 244.859 31.8304 244.859 32.7443V40C244.606 40.0315 244.346 40.063 244.079 40.0945C243.811 40.126 243.535 40.1497 243.251 40.1654C242.984 40.197 242.7 40.2127 242.401 40.2127C242.117 40.2285 241.825 40.2363 241.526 40.2363C241.227 40.2521 240.919 40.26 240.604 40.26C239.927 40.26 239.297 40.197 238.714 40.0709C238.131 39.9449 237.611 39.7321 237.154 39.4328C236.713 39.1177 236.366 38.708 236.114 38.2038C235.862 37.6996 235.736 37.0694 235.736 36.3131V34.0205C235.736 33.4218 235.822 32.9018 235.996 32.4607C236.169 32.0195 236.405 31.6571 236.705 31.3735C237.004 31.0899 237.343 30.8772 237.721 30.7354C238.115 30.5936 238.525 30.5227 238.95 30.5227C239.344 30.5227 239.754 30.5857 240.179 30.7117C240.604 30.822 240.998 30.9954 241.361 31.2317C241.739 31.4523 242.038 31.7359 242.259 32.0825ZM242.259 34.0205C242.18 33.9575 241.999 33.863 241.715 33.7369C241.447 33.6109 241.132 33.4927 240.77 33.3824C240.407 33.2564 240.045 33.1933 239.683 33.1933C239.509 33.1933 239.344 33.217 239.186 33.2642C239.029 33.2958 238.887 33.3588 238.761 33.4533C238.651 33.5321 238.556 33.6503 238.477 33.8078C238.414 33.9496 238.383 34.1308 238.383 34.3514V35.8876C238.383 36.187 238.406 36.4549 238.454 36.6912C238.517 36.9275 238.627 37.1324 238.785 37.3057C238.958 37.479 239.202 37.6129 239.517 37.7075C239.848 37.802 240.281 37.8493 240.817 37.8493C240.896 37.8493 240.99 37.8493 241.101 37.8493C241.227 37.8335 241.353 37.8256 241.479 37.8256C241.621 37.8099 241.747 37.802 241.857 37.802C241.983 37.7863 242.078 37.7784 242.141 37.7784C242.219 37.7626 242.259 37.7547 242.259 37.7547V34.0205ZM249.537 36.8803C249.537 37.2269 249.608 37.5026 249.749 37.7075C249.891 37.8966 250.088 38.0305 250.34 38.1093C250.608 38.188 250.923 38.2274 251.286 38.2274L250.506 40.3072C249.308 40.2757 248.402 39.9764 247.788 39.4091C247.189 38.8262 246.89 37.9832 246.89 36.8803V23.456H249.537V28.1829H251.805L251.262 30.5699H249.537V36.8803ZM253.724 40V28.1592H256.347V40H253.724ZM255.047 23.2197C255.441 23.2197 255.772 23.3457 256.04 23.5978C256.323 23.8499 256.465 24.1808 256.465 24.5905C256.465 24.9844 256.323 25.3231 256.04 25.6067C255.772 25.8746 255.441 26.0085 255.047 26.0085C254.653 26.0085 254.314 25.8746 254.031 25.6067C253.763 25.3231 253.629 24.9844 253.629 24.5905C253.629 24.1808 253.763 23.8499 254.031 23.5978C254.314 23.3457 254.653 23.2197 255.047 23.2197ZM267.1 35.6277C267.1 37.0142 266.746 38.1329 266.037 38.9837C265.328 39.8188 264.248 40.2363 262.799 40.2363C261.759 40.2363 260.908 40.0236 260.246 39.5982C259.6 39.157 259.12 38.5898 258.805 37.8966C258.505 37.1875 258.355 36.4312 258.355 35.6277V32.5079C258.355 31.4996 258.521 30.6566 258.852 29.9791C259.198 29.3016 259.703 28.7895 260.364 28.4429C261.026 28.0805 261.838 27.8993 262.799 27.8993C264.17 27.8993 265.225 28.3089 265.966 29.1282C266.722 29.9318 267.1 31.0584 267.1 32.5079V35.6277ZM264.429 32.3661C264.429 31.988 264.366 31.665 264.24 31.3971C264.114 31.1135 263.925 30.9008 263.673 30.759C263.437 30.6014 263.137 30.5227 262.775 30.5227C262.397 30.5227 262.074 30.5936 261.806 30.7354C261.554 30.8772 261.357 31.082 261.215 31.3499C261.073 31.6177 261.003 31.9565 261.003 32.3661V35.8167C261.003 36.1319 261.058 36.4312 261.168 36.7148C261.294 36.9985 261.491 37.2269 261.759 37.4002C262.027 37.5736 262.365 37.6602 262.775 37.6602C263.169 37.6602 263.484 37.5814 263.72 37.4239C263.973 37.2663 264.154 37.0457 264.264 36.7621C264.374 36.4785 264.429 36.1634 264.429 35.8167V32.3661ZM275.215 31.8935C275.215 31.6729 275.175 31.468 275.096 31.279C275.018 31.0741 274.9 30.9008 274.742 30.759C274.6 30.6172 274.427 30.5069 274.222 30.4281C274.017 30.3494 273.789 30.31 273.537 30.31C273.363 30.31 273.174 30.3257 272.969 30.3572C272.78 30.3887 272.575 30.4518 272.355 30.5463C272.134 30.6251 271.898 30.7354 271.646 30.8772V40.0236H269.046V28.1592H271.646V28.7028C271.788 28.6241 271.977 28.5295 272.213 28.4192C272.465 28.2932 272.741 28.1829 273.04 28.0883C273.355 27.9938 273.678 27.9465 274.009 27.9465C274.387 27.9465 274.758 27.9859 275.12 28.0647C275.483 28.1435 275.821 28.2695 276.136 28.4429C276.467 28.6162 276.751 28.8525 276.987 29.1519C277.239 29.4355 277.436 29.7979 277.578 30.2391C277.72 30.6802 277.791 31.2081 277.791 31.8226V40.0236H275.215V31.8935ZM286.532 30.8772C286.359 30.7826 286.162 30.7039 285.941 30.6408C285.721 30.5621 285.485 30.5069 285.232 30.4754C284.996 30.4281 284.744 30.4045 284.476 30.4045C284.334 30.4045 284.177 30.4124 284.003 30.4281C283.846 30.4439 283.688 30.4833 283.531 30.5463C283.373 30.5936 283.239 30.6724 283.129 30.7826C283.034 30.8772 282.987 31.0111 282.987 31.1844C282.987 31.4208 283.082 31.6256 283.271 31.7989C283.476 31.9722 283.743 32.1298 284.074 32.2716C284.405 32.4134 284.768 32.5631 285.162 32.7207C285.555 32.8625 285.941 33.0358 286.32 33.2406C286.714 33.4454 287.076 33.6897 287.407 33.9733C287.738 34.2569 287.998 34.6114 288.187 35.0368C288.392 35.4465 288.494 35.9428 288.494 36.5258C288.494 37.156 288.376 37.7075 288.139 38.1802C287.903 38.6528 287.58 39.0546 287.17 39.3855C286.777 39.7006 286.32 39.937 285.8 40.0945C285.295 40.2679 284.768 40.3545 284.216 40.3545C283.35 40.3545 282.522 40.1733 281.735 39.8109C280.947 39.4485 280.277 38.9601 279.726 38.3456L281.262 36.7385C281.514 36.9591 281.782 37.1639 282.065 37.353C282.365 37.5263 282.672 37.6681 282.987 37.7784C283.302 37.8729 283.617 37.9202 283.933 37.9202C284.137 37.9202 284.342 37.8966 284.547 37.8493C284.768 37.802 284.965 37.7232 285.138 37.6129C285.311 37.5026 285.453 37.3608 285.563 37.1875C285.674 37.0142 285.729 36.8094 285.729 36.573C285.729 36.2579 285.626 35.9979 285.422 35.7931C285.232 35.5883 284.972 35.4071 284.642 35.2495C284.326 35.0762 283.972 34.9108 283.578 34.7532C283.2 34.5956 282.814 34.4302 282.42 34.2569C282.042 34.0678 281.687 33.8393 281.356 33.5715C281.041 33.3036 280.781 32.9806 280.576 32.6025C280.387 32.2243 280.293 31.7674 280.293 31.2317C280.293 30.6487 280.403 30.1445 280.624 29.7191C280.844 29.2937 281.144 28.9471 281.522 28.6792C281.916 28.3956 282.349 28.1908 282.822 28.0647C283.294 27.9229 283.775 27.852 284.263 27.852C284.61 27.852 284.965 27.8835 285.327 27.9465C285.705 28.0096 286.068 28.1041 286.414 28.2301C286.761 28.3562 287.068 28.5138 287.336 28.7028L286.532 30.8772Z" fill="black"/>
<path d="M432.557 31.5303C432.85 31.2374 432.85 30.7626 432.557 30.4697L427.784 25.6967C427.491 25.4038 427.016 25.4038 426.723 25.6967C426.431 25.9896 426.431 26.4645 426.723 26.7574L430.966 31L426.723 35.2426C426.431 35.5355 426.431 36.0104 426.723 36.3033C427.016 36.5962 427.491 36.5962 427.784 36.3033L432.557 31.5303ZM431.008 31V31.75H432.027V31V30.25H431.008V31Z" fill="black"/>
<defs>
<filter id="filter0_d_160_434" x="-7.53403e-05" y="0" width="497.016" height="103.564" filterUnits="userSpaceOnUse" color-interpolation-filters="sRGB">
<feFlood flood-opacity="0" result="BackgroundImageFix"/>
<feColorMatrix in="SourceAlpha" type="matrix" values="0 0 0 0 0 0 0 0 0 0 0 0 0 0 0 0 0 0 127 0" result="hardAlpha"/>
<feMorphology radius="14.7337" operator="erode" in="SourceAlpha" result="effect1_dropShadow_160_434"/>
<feOffset dy="24.5562"/>
<feGaussianBlur stdDeviation="16.3708"/>
<feColorMatrix type="matrix" values="0 0 0 0 0.583333 0 0 0 0 0.583333 0 0 0 0 0.583333 0 0 0 0.25 0"/>
<feBlend mode="normal" in2="BackgroundImageFix" result="effect1_dropShadow_160_434"/>
<feBlend mode="normal" in="SourceGraphic" in2="effect1_dropShadow_160_434" result="shape"/>
</filter>
</defs>
</svg>
