<svg width="35" height="42" viewBox="0 0 35 42" fill="none" xmlns="http://www.w3.org/2000/svg">
<path d="M9.23682 5.14368C10.6221 5.14368 11.6419 6.47129 11.3481 7.86047L11.0776 9.13879C10.8645 10.1561 9.97964 10.9005 8.96631 10.9005C7.93962 10.9003 7.07417 10.1717 6.85596 9.13977L6.58545 7.86047V7.8595C6.29433 6.47066 7.31108 5.14368 8.69873 5.14368H9.23682ZM8.69873 5.85657C7.76875 5.85657 7.06609 6.75166 7.26709 7.71008L7.5376 8.9884C7.68761 9.69864 8.27707 10.1874 8.96631 10.1876C9.645 10.1876 10.2497 9.68691 10.396 8.98938L10.6665 7.70911C10.869 6.75087 10.1645 5.85657 9.23682 5.85657H8.69873Z" fill="#FF0000" stroke="#FF0000" stroke-width="0.3"/>
<mask id="path-2-outside-1_160_438" maskUnits="userSpaceOnUse" x="1.94873" y="2.05139" width="25" height="37" fill="black">
<rect fill="white" x="1.94873" y="2.05139" width="25" height="37"/>
<path d="M8.96522 15.5556C12.2921 15.5556 14.9846 12.7421 14.9846 9.30347C14.9846 5.85619 12.2843 3.05139 8.96522 3.05139C5.64777 3.05139 2.94873 5.85611 2.94873 9.30347C2.94873 12.6993 5.58772 15.5556 8.96522 15.5556ZM8.96522 15.1429C7.20811 15.1429 5.51241 14.2807 4.43101 12.7472L4.57339 12.3234C4.83662 11.539 5.55133 11.0121 6.35171 11.0121H7.23672C7.36727 11.0121 7.49263 11.0818 7.56458 11.1951L8.30721 12.3454C8.61966 12.8309 9.31002 12.8318 9.62308 12.346L10.3694 11.1939C10.4419 11.08 10.5642 11.0122 10.6966 11.0122H11.5845C12.3842 11.0122 13.0975 11.5391 13.3601 12.3239L13.5026 12.746C12.407 14.2998 10.6979 15.1429 8.96522 15.1429ZM8.96522 3.46404C12.0652 3.46404 14.5873 6.08364 14.5873 9.30347C14.5873 10.4054 14.2917 11.4368 13.7788 12.3172L13.7351 12.1878C13.4173 11.2378 12.5532 10.5995 11.5845 10.5995H10.6966C10.4303 10.5995 10.1841 10.7367 10.0388 10.965L9.29308 12.1161C9.13689 12.3584 8.79339 12.3584 8.63736 12.1159L7.89534 10.9666C7.7493 10.7367 7.50308 10.5995 7.23672 10.5995H6.35171C5.38255 10.5995 4.51715 11.2376 4.19822 12.1877L4.1545 12.318C3.64169 11.4373 3.34602 10.4057 3.34602 9.30347C3.34602 6.08364 5.86675 3.46404 8.96522 3.46404ZM3.07623 18.1961C3.07623 18.8032 3.55173 19.297 4.13619 19.297H25.0103C25.5947 19.297 26.0702 18.8031 26.0702 18.1961C26.0702 17.589 25.5947 17.0951 25.0103 17.0951H4.13619C3.55165 17.0951 3.07623 17.589 3.07623 18.1961ZM25.673 18.1961C25.673 18.5757 25.3758 18.8843 25.0103 18.8843H4.13619C3.77071 18.8843 3.47352 18.5757 3.47352 18.1961C3.47352 17.8165 3.77071 17.5078 4.13619 17.5078H25.0103C25.3758 17.5078 25.673 17.8165 25.673 18.1961ZM25.0103 20.834H4.13619C3.55165 20.834 3.07623 21.328 3.07623 21.9351C3.07623 22.5423 3.55173 23.0361 4.13619 23.0361H25.0103C25.5947 23.0361 26.0702 22.5422 26.0702 21.9351C26.0702 21.3281 25.5948 20.834 25.0103 20.834ZM25.0103 22.6234H4.13619C3.77071 22.6234 3.47352 22.3147 3.47352 21.9351C3.47352 21.5555 3.77071 21.2466 4.13619 21.2466H25.0103C25.3758 21.2466 25.673 21.5555 25.673 21.9351C25.673 22.3147 25.3758 22.6234 25.0103 22.6234ZM19.9207 25.6741C19.9207 25.0669 19.4452 24.5731 18.8607 24.5731H4.13619C3.55165 24.5731 3.07623 25.067 3.07623 25.6741C3.07623 26.2811 3.55173 26.775 4.13619 26.775H18.8608C19.4453 26.775 19.9207 26.2811 19.9207 25.6741ZM18.8607 26.3623H4.13619C3.77071 26.3623 3.47352 26.0537 3.47352 25.6741C3.47352 25.2945 3.77071 24.9858 4.13619 24.9858H18.8608C19.2263 24.9858 19.5235 25.2945 19.5235 25.6741C19.5235 26.0537 19.2262 26.3623 18.8607 26.3623ZM15.9134 28.3121H4.13619C3.55165 28.3121 3.07623 28.806 3.07623 29.4131C3.07623 30.0201 3.55173 30.514 4.13619 30.514H15.9134C16.4979 30.514 16.9734 30.0201 16.9734 29.4131C16.9734 28.806 16.4979 28.3121 15.9134 28.3121ZM15.9134 30.1014H4.13619C3.77071 30.1014 3.47352 29.7927 3.47352 29.4131C3.47352 29.0335 3.77071 28.7248 4.13619 28.7248H15.9134C16.2789 28.7248 16.5761 29.0335 16.5761 29.4131C16.5761 29.7927 16.2789 30.1014 15.9134 30.1014ZM15.9134 32.0512H4.13619C3.55165 32.0512 3.07623 32.5451 3.07623 33.1521C3.07623 33.7592 3.55173 34.2531 4.13619 34.2531H15.9134C16.4979 34.2531 16.9734 33.7592 16.9734 33.1521C16.9734 32.5451 16.4979 32.0512 15.9134 32.0512ZM15.9134 33.8405H4.13619C3.77071 33.8405 3.47352 33.5318 3.47352 33.1522C3.47352 32.7726 3.77071 32.4639 4.13619 32.4639H15.9134C16.2789 32.4639 16.5761 32.7726 16.5761 33.1522C16.5761 33.5318 16.2789 33.8405 15.9134 33.8405ZM15.913 35.7903H4.13619C3.55165 35.7903 3.07623 36.2842 3.07623 36.8912C3.07623 37.4983 3.55173 37.9921 4.13619 37.9921H15.913C16.4976 37.9921 16.973 37.4983 16.973 36.8912C16.973 36.2842 16.4976 35.7903 15.913 35.7903ZM15.913 37.5796H4.13619C3.77071 37.5796 3.47352 37.2709 3.47352 36.8913C3.47352 36.5117 3.77071 36.203 4.13619 36.203H15.913C16.2785 36.203 16.5757 36.5117 16.5757 36.8913C16.5757 37.2709 16.2785 37.5796 15.913 37.5796Z"/>
</mask>
<path d="M8.96522 15.5556C12.2921 15.5556 14.9846 12.7421 14.9846 9.30347C14.9846 5.85619 12.2843 3.05139 8.96522 3.05139C5.64777 3.05139 2.94873 5.85611 2.94873 9.30347C2.94873 12.6993 5.58772 15.5556 8.96522 15.5556ZM8.96522 15.1429C7.20811 15.1429 5.51241 14.2807 4.43101 12.7472L4.57339 12.3234C4.83662 11.539 5.55133 11.0121 6.35171 11.0121H7.23672C7.36727 11.0121 7.49263 11.0818 7.56458 11.1951L8.30721 12.3454C8.61966 12.8309 9.31002 12.8318 9.62308 12.346L10.3694 11.1939C10.4419 11.08 10.5642 11.0122 10.6966 11.0122H11.5845C12.3842 11.0122 13.0975 11.5391 13.3601 12.3239L13.5026 12.746C12.407 14.2998 10.6979 15.1429 8.96522 15.1429ZM8.96522 3.46404C12.0652 3.46404 14.5873 6.08364 14.5873 9.30347C14.5873 10.4054 14.2917 11.4368 13.7788 12.3172L13.7351 12.1878C13.4173 11.2378 12.5532 10.5995 11.5845 10.5995H10.6966C10.4303 10.5995 10.1841 10.7367 10.0388 10.965L9.29308 12.1161C9.13689 12.3584 8.79339 12.3584 8.63736 12.1159L7.89534 10.9666C7.7493 10.7367 7.50308 10.5995 7.23672 10.5995H6.35171C5.38255 10.5995 4.51715 11.2376 4.19822 12.1877L4.1545 12.318C3.64169 11.4373 3.34602 10.4057 3.34602 9.30347C3.34602 6.08364 5.86675 3.46404 8.96522 3.46404ZM3.07623 18.1961C3.07623 18.8032 3.55173 19.297 4.13619 19.297H25.0103C25.5947 19.297 26.0702 18.8031 26.0702 18.1961C26.0702 17.589 25.5947 17.0951 25.0103 17.0951H4.13619C3.55165 17.0951 3.07623 17.589 3.07623 18.1961ZM25.673 18.1961C25.673 18.5757 25.3758 18.8843 25.0103 18.8843H4.13619C3.77071 18.8843 3.47352 18.5757 3.47352 18.1961C3.47352 17.8165 3.77071 17.5078 4.13619 17.5078H25.0103C25.3758 17.5078 25.673 17.8165 25.673 18.1961ZM25.0103 20.834H4.13619C3.55165 20.834 3.07623 21.328 3.07623 21.9351C3.07623 22.5423 3.55173 23.0361 4.13619 23.0361H25.0103C25.5947 23.0361 26.0702 22.5422 26.0702 21.9351C26.0702 21.3281 25.5948 20.834 25.0103 20.834ZM25.0103 22.6234H4.13619C3.77071 22.6234 3.47352 22.3147 3.47352 21.9351C3.47352 21.5555 3.77071 21.2466 4.13619 21.2466H25.0103C25.3758 21.2466 25.673 21.5555 25.673 21.9351C25.673 22.3147 25.3758 22.6234 25.0103 22.6234ZM19.9207 25.6741C19.9207 25.0669 19.4452 24.5731 18.8607 24.5731H4.13619C3.55165 24.5731 3.07623 25.067 3.07623 25.6741C3.07623 26.2811 3.55173 26.775 4.13619 26.775H18.8608C19.4453 26.775 19.9207 26.2811 19.9207 25.6741ZM18.8607 26.3623H4.13619C3.77071 26.3623 3.47352 26.0537 3.47352 25.6741C3.47352 25.2945 3.77071 24.9858 4.13619 24.9858H18.8608C19.2263 24.9858 19.5235 25.2945 19.5235 25.6741C19.5235 26.0537 19.2262 26.3623 18.8607 26.3623ZM15.9134 28.3121H4.13619C3.55165 28.3121 3.07623 28.806 3.07623 29.4131C3.07623 30.0201 3.55173 30.514 4.13619 30.514H15.9134C16.4979 30.514 16.9734 30.0201 16.9734 29.4131C16.9734 28.806 16.4979 28.3121 15.9134 28.3121ZM15.9134 30.1014H4.13619C3.77071 30.1014 3.47352 29.7927 3.47352 29.4131C3.47352 29.0335 3.77071 28.7248 4.13619 28.7248H15.9134C16.2789 28.7248 16.5761 29.0335 16.5761 29.4131C16.5761 29.7927 16.2789 30.1014 15.9134 30.1014ZM15.9134 32.0512H4.13619C3.55165 32.0512 3.07623 32.5451 3.07623 33.1521C3.07623 33.7592 3.55173 34.2531 4.13619 34.2531H15.9134C16.4979 34.2531 16.9734 33.7592 16.9734 33.1521C16.9734 32.5451 16.4979 32.0512 15.9134 32.0512ZM15.9134 33.8405H4.13619C3.77071 33.8405 3.47352 33.5318 3.47352 33.1522C3.47352 32.7726 3.77071 32.4639 4.13619 32.4639H15.9134C16.2789 32.4639 16.5761 32.7726 16.5761 33.1522C16.5761 33.5318 16.2789 33.8405 15.9134 33.8405ZM15.913 35.7903H4.13619C3.55165 35.7903 3.07623 36.2842 3.07623 36.8912C3.07623 37.4983 3.55173 37.9921 4.13619 37.9921H15.913C16.4976 37.9921 16.973 37.4983 16.973 36.8912C16.973 36.2842 16.4976 35.7903 15.913 35.7903ZM15.913 37.5796H4.13619C3.77071 37.5796 3.47352 37.2709 3.47352 36.8913C3.47352 36.5117 3.77071 36.203 4.13619 36.203H15.913C16.2785 36.203 16.5757 36.5117 16.5757 36.8913C16.5757 37.2709 16.2785 37.5796 15.913 37.5796Z" fill="#FF0000"/>
<path d="M8.96522 15.5556C12.2921 15.5556 14.9846 12.7421 14.9846 9.30347C14.9846 5.85619 12.2843 3.05139 8.96522 3.05139C5.64777 3.05139 2.94873 5.85611 2.94873 9.30347C2.94873 12.6993 5.58772 15.5556 8.96522 15.5556ZM8.96522 15.1429C7.20811 15.1429 5.51241 14.2807 4.43101 12.7472L4.57339 12.3234C4.83662 11.539 5.55133 11.0121 6.35171 11.0121H7.23672C7.36727 11.0121 7.49263 11.0818 7.56458 11.1951L8.30721 12.3454C8.61966 12.8309 9.31002 12.8318 9.62308 12.346L10.3694 11.1939C10.4419 11.08 10.5642 11.0122 10.6966 11.0122H11.5845C12.3842 11.0122 13.0975 11.5391 13.3601 12.3239L13.5026 12.746C12.407 14.2998 10.6979 15.1429 8.96522 15.1429ZM8.96522 3.46404C12.0652 3.46404 14.5873 6.08364 14.5873 9.30347C14.5873 10.4054 14.2917 11.4368 13.7788 12.3172L13.7351 12.1878C13.4173 11.2378 12.5532 10.5995 11.5845 10.5995H10.6966C10.4303 10.5995 10.1841 10.7367 10.0388 10.965L9.29308 12.1161C9.13689 12.3584 8.79339 12.3584 8.63736 12.1159L7.89534 10.9666C7.7493 10.7367 7.50308 10.5995 7.23672 10.5995H6.35171C5.38255 10.5995 4.51715 11.2376 4.19822 12.1877L4.1545 12.318C3.64169 11.4373 3.34602 10.4057 3.34602 9.30347C3.34602 6.08364 5.86675 3.46404 8.96522 3.46404ZM3.07623 18.1961C3.07623 18.8032 3.55173 19.297 4.13619 19.297H25.0103C25.5947 19.297 26.0702 18.8031 26.0702 18.1961C26.0702 17.589 25.5947 17.0951 25.0103 17.0951H4.13619C3.55165 17.0951 3.07623 17.589 3.07623 18.1961ZM25.673 18.1961C25.673 18.5757 25.3758 18.8843 25.0103 18.8843H4.13619C3.77071 18.8843 3.47352 18.5757 3.47352 18.1961C3.47352 17.8165 3.77071 17.5078 4.13619 17.5078H25.0103C25.3758 17.5078 25.673 17.8165 25.673 18.1961ZM25.0103 20.834H4.13619C3.55165 20.834 3.07623 21.328 3.07623 21.9351C3.07623 22.5423 3.55173 23.0361 4.13619 23.0361H25.0103C25.5947 23.0361 26.0702 22.5422 26.0702 21.9351C26.0702 21.3281 25.5948 20.834 25.0103 20.834ZM25.0103 22.6234H4.13619C3.77071 22.6234 3.47352 22.3147 3.47352 21.9351C3.47352 21.5555 3.77071 21.2466 4.13619 21.2466H25.0103C25.3758 21.2466 25.673 21.5555 25.673 21.9351C25.673 22.3147 25.3758 22.6234 25.0103 22.6234ZM19.9207 25.6741C19.9207 25.0669 19.4452 24.5731 18.8607 24.5731H4.13619C3.55165 24.5731 3.07623 25.067 3.07623 25.6741C3.07623 26.2811 3.55173 26.775 4.13619 26.775H18.8608C19.4453 26.775 19.9207 26.2811 19.9207 25.6741ZM18.8607 26.3623H4.13619C3.77071 26.3623 3.47352 26.0537 3.47352 25.6741C3.47352 25.2945 3.77071 24.9858 4.13619 24.9858H18.8608C19.2263 24.9858 19.5235 25.2945 19.5235 25.6741C19.5235 26.0537 19.2262 26.3623 18.8607 26.3623ZM15.9134 28.3121H4.13619C3.55165 28.3121 3.07623 28.806 3.07623 29.4131C3.07623 30.0201 3.55173 30.514 4.13619 30.514H15.9134C16.4979 30.514 16.9734 30.0201 16.9734 29.4131C16.9734 28.806 16.4979 28.3121 15.9134 28.3121ZM15.9134 30.1014H4.13619C3.77071 30.1014 3.47352 29.7927 3.47352 29.4131C3.47352 29.0335 3.77071 28.7248 4.13619 28.7248H15.9134C16.2789 28.7248 16.5761 29.0335 16.5761 29.4131C16.5761 29.7927 16.2789 30.1014 15.9134 30.1014ZM15.9134 32.0512H4.13619C3.55165 32.0512 3.07623 32.5451 3.07623 33.1521C3.07623 33.7592 3.55173 34.2531 4.13619 34.2531H15.9134C16.4979 34.2531 16.9734 33.7592 16.9734 33.1521C16.9734 32.5451 16.4979 32.0512 15.9134 32.0512ZM15.9134 33.8405H4.13619C3.77071 33.8405 3.47352 33.5318 3.47352 33.1522C3.47352 32.7726 3.77071 32.4639 4.13619 32.4639H15.9134C16.2789 32.4639 16.5761 32.7726 16.5761 33.1522C16.5761 33.5318 16.2789 33.8405 15.9134 33.8405ZM15.913 35.7903H4.13619C3.55165 35.7903 3.07623 36.2842 3.07623 36.8912C3.07623 37.4983 3.55173 37.9921 4.13619 37.9921H15.913C16.4976 37.9921 16.973 37.4983 16.973 36.8912C16.973 36.2842 16.4976 35.7903 15.913 35.7903ZM15.913 37.5796H4.13619C3.77071 37.5796 3.47352 37.2709 3.47352 36.8913C3.47352 36.5117 3.77071 36.203 4.13619 36.203H15.913C16.2785 36.203 16.5757 36.5117 16.5757 36.8913C16.5757 37.2709 16.2785 37.5796 15.913 37.5796Z" stroke="#FF0000" stroke-width="0.6" mask="url(#path-2-outside-1_160_438)"/>
<path d="M21.1182 0.149597C21.1641 0.149633 21.2113 0.162729 21.248 0.177917C21.2852 0.193297 21.3302 0.218725 21.3662 0.256042L28.8936 8.06952L28.8994 8.07635L28.9053 8.08417C28.9396 8.1301 28.993 8.20998 28.9932 8.31952V25.2043C32.1515 26.2135 34.4501 29.2665 34.4502 32.8654C34.4502 36.9814 31.4037 40.7528 26.7256 40.8898C25.4069 40.9285 22.8525 40.9345 18.792 40.9279L1.82129 40.8898C0.894217 40.8897 0.149414 40.1082 0.149414 39.1594V1.883C0.149414 0.933106 0.894045 0.149692 1.82129 0.149597H21.1182ZM1.82129 0.862488C1.28976 0.862583 0.84668 1.31521 0.84668 1.883V39.1594C0.84668 39.7259 1.2895 40.1778 1.82129 40.1779H23.5508C20.865 38.9175 18.9932 36.114 18.9932 32.8654C18.9933 28.4497 22.4563 24.848 26.7246 24.8478C27.2634 24.8478 27.7885 24.91 28.2959 25.0197V8.67694H22.4414C21.5139 8.67694 20.7686 7.89475 20.7686 6.9455V0.862488H1.82129ZM26.7246 25.5607C22.8514 25.5609 19.6905 28.8326 19.6904 32.8654C19.6904 36.8431 22.7874 40.1779 26.7402 40.1779C30.6026 40.1693 33.7529 36.8974 33.7529 32.8654C33.7528 28.8323 30.594 25.5607 26.7246 25.5607ZM21.4658 6.94647C21.4661 7.51321 21.9093 7.96405 22.4414 7.96405H27.8125L21.4658 1.37616V6.94647Z" fill="#FF0000" stroke="#FF0000" stroke-width="0.3"/>
<path d="M22.8765 28.8854C23.4921 28.2405 24.4954 28.2396 25.1128 28.8854L26.7202 30.5554L28.3296 28.8815L28.3306 28.8806C28.949 28.243 29.9536 28.2462 30.5688 28.8854C31.1835 29.5239 31.1815 30.5537 30.5688 31.1901L28.9526 32.8688L30.5688 34.5485C31.1815 35.1849 31.1815 36.2178 30.5688 36.8542C29.9516 37.4948 28.9462 37.4946 28.3296 36.8542L26.7212 35.1833L25.1128 36.8542C24.486 37.5046 23.4778 37.4868 22.8765 36.8522C22.2612 36.2181 22.2581 35.1859 22.8774 34.5475L24.4937 32.8688L22.8774 31.1901C22.2629 30.5519 22.2642 29.522 22.8765 28.8854ZM24.6147 29.3845C24.2699 29.0232 23.7177 29.0253 23.3755 29.3835L23.3745 29.3845C23.0492 29.7222 23.0286 30.2587 23.313 30.6208L23.3745 30.6901L25.231 32.6198C25.3645 32.7585 25.3645 32.9811 25.231 33.1198L23.3745 35.0485H23.3735C23.0443 35.3874 23.0261 35.9219 23.312 36.2829L23.3735 36.3532L23.3745 36.3542C23.7184 36.7176 24.277 36.7057 24.6157 36.3542L26.4722 34.4255C26.6088 34.2836 26.8326 34.2836 26.9692 34.4255L28.8267 36.3542C29.1704 36.7111 29.7281 36.711 30.0718 36.3542C30.4177 35.9949 30.4177 35.4078 30.0718 35.0485L28.2153 33.1198C28.0818 32.9811 28.0818 32.7585 28.2153 32.6198L30.0718 30.6911V30.6901C30.4184 30.3304 30.4182 29.7449 30.0718 29.3854C29.7284 29.0288 29.1704 29.0262 28.8257 29.3806L26.9702 31.3132C26.9215 31.364 26.8586 31.3986 26.7905 31.4128L26.7212 31.4206C26.6266 31.4206 26.537 31.3815 26.4722 31.3141L24.6157 29.3854L24.6147 29.3845Z" fill="#FF0000" stroke="#FF0000" stroke-width="0.3"/>
</svg>
