<svg width="12" height="12" viewBox="0 0 12 12" fill="none" xmlns="http://www.w3.org/2000/svg">
<path d="M5.66667 0C4.54591 0 3.45032 0.332344 2.51844 0.955005C1.58656 1.57767 0.860248 2.46268 0.431352 3.49813C0.00245528 4.53358 -0.109764 5.67295 0.108886 6.77218C0.327536 7.8714 0.867234 8.88111 1.65973 9.6736C2.45223 10.4661 3.46193 11.0058 4.56116 11.2245C5.66038 11.4431 6.79976 11.3309 7.83521 10.902C8.87066 10.4731 9.75567 9.74678 10.3783 8.8149C11.001 7.88302 11.3333 6.78743 11.3333 5.66667C11.3317 4.16428 10.7341 2.7239 9.67179 1.66155C8.60944 0.599202 7.16906 0.0016499 5.66667 0ZM8.65754 2.26667C8.36155 2.52822 8.03183 2.74892 7.6772 2.92287C7.58067 2.40664 7.43181 1.90159 7.23294 1.41553C7.7562 1.60902 8.23919 1.89758 8.65754 2.26667ZM5.66667 1.13333C5.8667 1.13333 6.3257 1.87 6.5943 3.2912C5.98251 3.41926 5.35083 3.41926 4.73904 3.2912C5.00764 1.87 5.46664 1.13333 5.66667 1.13333ZM1.13334 5.66667C1.13323 4.7565 1.4084 3.86759 1.9227 3.11667C2.3854 3.52189 2.91221 3.84743 3.4816 4.08C3.3728 5.13365 3.3728 6.19571 3.4816 7.24937C2.91214 7.4832 2.38551 7.81009 1.92327 8.21667C1.40854 7.46592 1.13315 6.57693 1.13334 5.66667ZM2.6758 9.06667C2.97179 8.80511 3.30151 8.58441 3.65614 8.41047C3.75267 8.92669 3.90153 9.43174 4.1004 9.9178C3.57714 9.72432 3.09415 9.43575 2.6758 9.06667ZM3.65557 2.92797C3.30079 2.7525 2.97124 2.53007 2.6758 2.26667C3.09425 1.89798 3.57722 1.60981 4.1004 1.41667C3.90144 1.90333 3.7524 2.40893 3.65557 2.9257V2.92797ZM5.66667 10.2C5.46664 10.2 5.00764 9.46333 4.73904 8.04213C5.35083 7.91407 5.98251 7.91407 6.5943 8.04213C6.3257 9.46333 5.8667 10.2 5.66667 10.2ZM6.74334 6.9088C6.03058 6.77167 5.29822 6.77167 4.58547 6.9088C4.55204 6.52573 4.5288 6.11547 4.5288 5.66667C4.5288 5.21787 4.54977 4.80817 4.58547 4.42567C5.2976 4.56922 6.03121 4.56922 6.74334 4.42567C6.77677 4.80817 6.8 5.219 6.8 5.66667C6.8 6.11433 6.77904 6.52573 6.74334 6.9088ZM7.23067 9.91553C7.42956 9.42924 7.5786 8.92402 7.6755 8.40763C8.03095 8.58223 8.36126 8.8039 8.65754 9.06667C8.23909 9.43535 7.75612 9.72352 7.23294 9.91667L7.23067 9.91553ZM9.41064 8.21667C8.94794 7.81144 8.42113 7.4859 7.85174 7.25333C7.96054 6.19968 7.96054 5.13762 7.85174 4.08397C8.4212 3.85014 8.94783 3.52324 9.41007 3.11667C9.92444 3.86842 10.1997 4.75805 10.1997 5.66893C10.1997 6.57982 9.92444 7.46945 9.41007 8.2212L9.41064 8.21667Z" fill="#FF0000"/>
</svg>
