<svg width="178" height="24" viewBox="0 0 178 24" fill="none" xmlns="http://www.w3.org/2000/svg">
<path d="M3 5.5C3 14.0604 9.93959 21 18.5 21C18.8862 21 19.2691 20.9859 19.6483 20.9581C20.0834 20.9262 20.3009 20.9103 20.499 20.7963C20.663 20.7019 20.8185 20.5345 20.9007 20.364C21 20.1582 21 19.9181 21 19.438V16.6207C21 16.2169 21 16.015 20.9335 15.842C20.8749 15.6891 20.7795 15.553 20.6559 15.4456C20.516 15.324 20.3262 15.255 19.9468 15.117L16.74 13.9509C16.2985 13.7904 16.0777 13.7101 15.8683 13.7237C15.6836 13.7357 15.5059 13.7988 15.3549 13.9058C15.1837 14.0271 15.0629 14.2285 14.8212 14.6314L14 16C11.3501 14.7999 9.2019 12.6489 8 10L9.36863 9.17882C9.77145 8.93713 9.97286 8.81628 10.0942 8.64506C10.2012 8.49408 10.2643 8.31637 10.2763 8.1317C10.2899 7.92227 10.2096 7.70153 10.0491 7.26005L8.88299 4.05321C8.745 3.67376 8.67601 3.48403 8.55442 3.3441C8.44701 3.22049 8.31089 3.12515 8.15802 3.06645C7.98496 3 7.78308 3 7.37932 3H4.56201C4.08188 3 3.84181 3 3.63598 3.09925C3.4655 3.18146 3.29814 3.33701 3.2037 3.50103C3.08968 3.69907 3.07375 3.91662 3.04189 4.35173C3.01413 4.73086 3 5.11378 3 5.5Z" stroke="white" stroke-width="2" stroke-linecap="round" stroke-linejoin="round"/>
<path d="M36.0925 15.4165V7.67026H38.2484V15.4165H36.0925ZM33.2946 12.624V10.4628H41.0409V12.624H33.2946ZM48.216 6.04397V17H45.5733V8.5155H45.5091L43.059 10.0134V7.72375L45.7606 6.04397H48.216ZM54.4149 11.522C54.4149 10.1988 54.5932 8.9827 54.9499 7.87354C55.3065 6.76082 55.8629 5.72834 56.619 4.77611H59.1547C58.8694 5.12918 58.6037 5.55894 58.3576 6.06537C58.1115 6.5718 57.8975 7.12638 57.7156 7.7291C57.5373 8.33183 57.3964 8.95595 57.293 9.60147C57.1932 10.247 57.1432 10.8872 57.1432 11.522C57.1432 12.3637 57.2306 13.2142 57.4054 14.0738C57.5801 14.9297 57.8191 15.725 58.1222 16.4597C58.4254 17.1908 58.7695 17.7917 59.1547 18.2625H56.619C55.8629 17.3103 55.3065 16.2796 54.9499 15.1704C54.5932 14.0577 54.4149 12.8416 54.4149 11.522ZM64.3987 5.89418C64.9978 5.89418 65.5702 5.99226 66.1159 6.18841C66.6616 6.381 67.1484 6.68949 67.5763 7.11389C68.0043 7.53473 68.3413 8.08931 68.5874 8.77763C68.8335 9.46595 68.9565 10.3058 68.9565 11.2973C68.9601 12.2103 68.8531 13.0288 68.6356 13.7528C68.418 14.4732 68.106 15.0866 67.6994 15.593C67.2964 16.0995 66.8113 16.4864 66.2443 16.7539C65.6772 17.0178 65.0442 17.1498 64.3452 17.1498C63.5748 17.1498 62.8954 17.0018 62.307 16.7058C61.7221 16.4062 61.2531 16.0032 60.9 15.4968C60.5505 14.9903 60.3419 14.4233 60.2741 13.7956H62.8794C62.9614 14.1593 63.1344 14.434 63.3983 14.6194C63.6622 14.8013 63.9778 14.8922 64.3452 14.8922C65.0157 14.8922 65.5167 14.6016 65.8484 14.0203C66.1801 13.4389 66.3459 12.649 66.3459 11.6504H66.2817C66.1284 11.9785 65.9108 12.2602 65.6291 12.4956C65.3509 12.731 65.0281 12.9111 64.6608 13.0359C64.2935 13.1608 63.9065 13.2232 63.4999 13.2232C62.8437 13.2232 62.2642 13.0734 61.7613 12.7738C61.262 12.4742 60.8697 12.0623 60.5844 11.538C60.3026 11.0138 60.16 10.4146 60.1564 9.74056C60.1528 8.98448 60.3294 8.31756 60.686 7.7398C61.0427 7.15847 61.5402 6.70554 62.1786 6.381C62.817 6.05289 63.557 5.89061 64.3987 5.89418ZM64.4147 7.92704C64.0866 7.92704 63.7942 8.00371 63.5374 8.15707C63.2842 8.31043 63.0844 8.51728 62.9382 8.77763C62.792 9.03798 62.7207 9.33042 62.7242 9.65497C62.7278 9.97951 62.8009 10.272 62.9436 10.5323C63.0898 10.7927 63.2877 10.9995 63.5374 11.1529C63.7906 11.3062 64.0795 11.3829 64.404 11.3829C64.6465 11.3829 64.8712 11.3383 65.0781 11.2492C65.2849 11.16 65.465 11.037 65.6184 10.88C65.7717 10.7195 65.8912 10.5341 65.9768 10.3237C66.066 10.1133 66.1088 9.88857 66.1052 9.64962C66.1016 9.33221 66.0267 9.04333 65.8805 8.78298C65.7343 8.52263 65.5328 8.31578 65.276 8.16242C65.0228 8.0055 64.7357 7.92704 64.4147 7.92704ZM74.9414 17.2675C73.9856 17.2675 73.1618 17.041 72.4699 16.5881C71.778 16.1316 71.2448 15.4771 70.8704 14.6248C70.4959 13.7688 70.3104 12.7399 70.314 11.538C70.3176 10.3362 70.5048 9.31616 70.8757 8.47805C71.2502 7.63637 71.7816 6.9962 72.4699 6.55753C73.1618 6.1153 73.9856 5.89418 74.9414 5.89418C75.8972 5.89418 76.7211 6.1153 77.413 6.55753C78.1084 6.9962 78.6434 7.63637 79.0178 8.47805C79.3923 9.31972 79.5778 10.3397 79.5742 11.538C79.5742 12.7435 79.387 13.7742 79.0125 14.6301C78.638 15.4861 78.1048 16.1405 77.413 16.5934C76.7246 17.0428 75.9008 17.2675 74.9414 17.2675ZM74.9414 15.1009C75.5121 15.1009 75.9739 14.8102 76.327 14.2289C76.6801 13.644 76.8548 12.747 76.8512 11.538C76.8512 10.7463 76.771 10.0936 76.6105 9.58007C76.45 9.06294 76.2271 8.67777 75.9418 8.42455C75.6565 8.17134 75.323 8.04473 74.9414 8.04473C74.3744 8.04473 73.9161 8.33183 73.5666 8.90602C73.2171 9.47665 73.0405 10.354 73.037 11.538C73.0334 12.3405 73.1101 13.0056 73.267 13.5334C73.4275 14.0613 73.6522 14.4554 73.9411 14.7157C74.2299 14.9725 74.5634 15.1009 74.9414 15.1009ZM85.2849 17.1498C84.4861 17.1498 83.7763 17.0053 83.1558 16.7165C82.5352 16.4276 82.0448 16.0299 81.6846 15.5235C81.328 15.0171 81.1425 14.4357 81.1283 13.7795H83.6961C83.7175 14.1825 83.8815 14.5071 84.1883 14.7532C84.495 14.9957 84.8605 15.1169 85.2849 15.1169C85.6166 15.1169 85.9108 15.0438 86.1676 14.8976C86.4244 14.7514 86.6259 14.5463 86.7721 14.2824C86.9184 14.0149 86.9897 13.7082 86.9861 13.3623C86.9897 13.0092 86.9166 12.7007 86.7668 12.4368C86.6206 12.1729 86.4173 11.9678 86.1569 11.8216C85.9001 11.6718 85.6041 11.5969 85.2689 11.5969C84.9515 11.5933 84.6501 11.6629 84.3648 11.8055C84.0831 11.9482 83.8691 12.1425 83.7228 12.3886L81.3851 11.95L81.8612 6.04397H88.8906V8.17847H84.0385L83.787 10.7623H83.8512C84.0331 10.4592 84.3256 10.2095 84.7286 10.0134C85.1351 9.81367 85.597 9.71381 86.1141 9.71381C86.7703 9.71381 87.3552 9.86717 87.8688 10.1739C88.3859 10.477 88.7925 10.8979 89.0885 11.4364C89.3881 11.9749 89.5379 12.5919 89.5379 13.2874C89.5379 14.0399 89.3596 14.7068 89.0029 15.2881C88.6498 15.8694 88.1541 16.3259 87.5157 16.6576C86.8809 16.9857 86.1373 17.1498 85.2849 17.1498ZM95.2339 11.522C95.2339 12.8416 95.0556 14.0577 94.6989 15.1704C94.3423 16.2796 93.7859 17.3103 93.0298 18.2625H90.4941C90.783 17.9094 91.0487 17.4797 91.2912 16.9733C91.5373 16.4668 91.7495 15.9122 91.9278 15.3095C92.1097 14.7068 92.2506 14.0827 92.3504 13.4372C92.4539 12.7916 92.5056 12.1532 92.5056 11.522C92.5056 10.6767 92.4182 9.82615 92.2435 8.97021C92.0687 8.11071 91.8298 7.3154 91.5266 6.58428C91.2235 5.8496 90.8793 5.24688 90.4941 4.77611H93.0298C93.7859 5.72834 94.3423 6.76082 94.6989 7.87354C95.0556 8.9827 95.2339 10.1988 95.2339 11.522ZM104.907 17.1498C104.055 17.1498 103.294 17.0143 102.623 16.7432C101.956 16.4686 101.432 16.0977 101.05 15.6305C100.672 15.1597 100.483 14.6283 100.483 14.0363C100.483 13.5834 100.592 13.1679 100.81 12.7898C101.027 12.4118 101.321 12.098 101.692 11.8483C102.067 11.5951 102.484 11.4328 102.944 11.3615V11.2759C102.341 11.1653 101.847 10.8854 101.462 10.436C101.081 9.98664 100.89 9.4606 100.89 8.85787C100.89 8.28725 101.063 7.77903 101.409 7.33323C101.758 6.88743 102.234 6.53613 102.837 6.27935C103.443 6.02257 104.133 5.89418 104.907 5.89418C105.681 5.89418 106.37 6.02257 106.972 6.27935C107.579 6.53613 108.055 6.88743 108.401 7.33323C108.75 7.77903 108.925 8.28725 108.925 8.85787C108.925 9.46416 108.731 9.99199 108.342 10.4414C107.957 10.8872 107.466 11.1653 106.871 11.2759V11.3615C107.327 11.4328 107.741 11.5951 108.112 11.8483C108.486 12.098 108.782 12.4118 109 12.7898C109.221 13.1679 109.331 13.5834 109.331 14.0363C109.331 14.6283 109.141 15.1597 108.759 15.6305C108.377 16.0977 107.853 16.4686 107.186 16.7432C106.523 17.0143 105.763 17.1498 104.907 17.1498ZM104.907 15.2721C105.232 15.2721 105.517 15.2114 105.763 15.0902C106.009 14.9654 106.202 14.7924 106.341 14.5713C106.484 14.3502 106.555 14.1005 106.555 13.8223C106.555 13.537 106.484 13.2838 106.341 13.0627C106.198 12.8416 106.002 12.6686 105.753 12.5438C105.507 12.4154 105.225 12.3512 104.907 12.3512C104.594 12.3512 104.312 12.4154 104.062 12.5438C103.812 12.6686 103.616 12.8416 103.474 13.0627C103.331 13.2838 103.26 13.537 103.26 13.8223C103.26 14.1005 103.329 14.3502 103.468 14.5713C103.611 14.7888 103.805 14.96 104.051 15.0848C104.301 15.2097 104.586 15.2721 104.907 15.2721ZM104.907 10.4842C105.186 10.4842 105.432 10.4271 105.646 10.313C105.863 10.1988 106.033 10.0401 106.154 9.83685C106.279 9.63357 106.341 9.40353 106.341 9.14675C106.341 8.88997 106.279 8.6635 106.154 8.46735C106.033 8.2712 105.865 8.11784 105.651 8.00728C105.437 7.89316 105.189 7.83609 104.907 7.83609C104.629 7.83609 104.381 7.89316 104.164 8.00728C103.946 8.11784 103.777 8.2712 103.656 8.46735C103.534 8.6635 103.474 8.88997 103.474 9.14675C103.474 9.40353 103.534 9.63357 103.656 9.83685C103.78 10.0366 103.952 10.1953 104.169 10.313C104.387 10.4271 104.633 10.4842 104.907 10.4842ZM115.002 17.1498C114.203 17.1498 113.494 17.0053 112.873 16.7165C112.252 16.4276 111.762 16.0299 111.402 15.5235C111.045 15.0171 110.86 14.4357 110.845 13.7795H113.413C113.435 14.1825 113.599 14.5071 113.905 14.7532C114.212 14.9957 114.578 15.1169 115.002 15.1169C115.334 15.1169 115.628 15.0438 115.885 14.8976C116.142 14.7514 116.343 14.5463 116.489 14.2824C116.636 14.0149 116.707 13.7082 116.703 13.3623C116.707 13.0092 116.634 12.7007 116.484 12.4368C116.338 12.1729 116.134 11.9678 115.874 11.8216C115.617 11.6718 115.321 11.5969 114.986 11.5969C114.669 11.5933 114.367 11.6629 114.082 11.8055C113.8 11.9482 113.586 12.1425 113.44 12.3886L111.102 11.95L111.578 6.04397H118.608V8.17847H113.756L113.504 10.7623H113.568C113.75 10.4592 114.043 10.2095 114.446 10.0134C114.852 9.81367 115.314 9.71381 115.831 9.71381C116.488 9.71381 117.072 9.86717 117.586 10.1739C118.103 10.477 118.51 10.8979 118.806 11.4364C119.105 11.9749 119.255 12.5919 119.255 13.2874C119.255 14.0399 119.077 14.7068 118.72 15.2881C118.367 15.8694 117.871 16.3259 117.233 16.6576C116.598 16.9857 115.854 17.1498 115.002 17.1498ZM124.989 17.1498C124.136 17.1498 123.375 17.0143 122.704 16.7432C122.037 16.4686 121.513 16.0977 121.131 15.6305C120.753 15.1597 120.564 14.6283 120.564 14.0363C120.564 13.5834 120.673 13.1679 120.891 12.7898C121.108 12.4118 121.402 12.098 121.773 11.8483C122.148 11.5951 122.565 11.4328 123.025 11.3615V11.2759C122.422 11.1653 121.929 10.8854 121.543 10.436C121.162 9.98664 120.971 9.4606 120.971 8.85787C120.971 8.28725 121.144 7.77903 121.49 7.33323C121.839 6.88743 122.315 6.53613 122.918 6.27935C123.524 6.02257 124.215 5.89418 124.989 5.89418C125.762 5.89418 126.451 6.02257 127.053 6.27935C127.66 6.53613 128.136 6.88743 128.482 7.33323C128.831 7.77903 129.006 8.28725 129.006 8.85787C129.006 9.46416 128.812 9.99199 128.423 10.4414C128.038 10.8872 127.547 11.1653 126.952 11.2759V11.3615C127.408 11.4328 127.822 11.5951 128.193 11.8483C128.567 12.098 128.863 12.4118 129.081 12.7898C129.302 13.1679 129.413 13.5834 129.413 14.0363C129.413 14.6283 129.222 15.1597 128.84 15.6305C128.459 16.0977 127.934 16.4686 127.267 16.7432C126.604 17.0143 125.844 17.1498 124.989 17.1498ZM124.989 15.2721C125.313 15.2721 125.598 15.2114 125.844 15.0902C126.091 14.9654 126.283 14.7924 126.422 14.5713C126.565 14.3502 126.636 14.1005 126.636 13.8223C126.636 13.537 126.565 13.2838 126.422 13.0627C126.28 12.8416 126.083 12.6686 125.834 12.5438C125.588 12.4154 125.306 12.3512 124.989 12.3512C124.675 12.3512 124.393 12.4154 124.143 12.5438C123.894 12.6686 123.697 12.8416 123.555 13.0627C123.412 13.2838 123.341 13.537 123.341 13.8223C123.341 14.1005 123.41 14.3502 123.549 14.5713C123.692 14.7888 123.886 14.96 124.133 15.0848C124.382 15.2097 124.668 15.2721 124.989 15.2721ZM124.989 10.4842C125.267 10.4842 125.513 10.4271 125.727 10.313C125.944 10.1988 126.114 10.0401 126.235 9.83685C126.36 9.63357 126.422 9.40353 126.422 9.14675C126.422 8.88997 126.36 8.6635 126.235 8.46735C126.114 8.2712 125.946 8.11784 125.732 8.00728C125.518 7.89316 125.27 7.83609 124.989 7.83609C124.71 7.83609 124.462 7.89316 124.245 8.00728C124.027 8.11784 123.858 8.2712 123.737 8.46735C123.615 8.6635 123.555 8.88997 123.555 9.14675C123.555 9.40353 123.615 9.63357 123.737 9.83685C123.862 10.0366 124.033 10.1953 124.25 10.313C124.468 10.4271 124.714 10.4842 124.989 10.4842ZM136.169 10.5163V12.5277H131.098V10.5163H136.169ZM142.189 17.1498C141.39 17.1498 140.68 17.0053 140.06 16.7165C139.439 16.4276 138.949 16.0299 138.589 15.5235C138.232 15.0171 138.046 14.4357 138.032 13.7795H140.6C140.621 14.1825 140.786 14.5071 141.092 14.7532C141.399 14.9957 141.764 15.1169 142.189 15.1169C142.521 15.1169 142.815 15.0438 143.072 14.8976C143.328 14.7514 143.53 14.5463 143.676 14.2824C143.822 14.0149 143.894 13.7082 143.89 13.3623C143.894 13.0092 143.821 12.7007 143.671 12.4368C143.525 12.1729 143.321 11.9678 143.061 11.8216C142.804 11.6718 142.508 11.5969 142.173 11.5969C141.855 11.5933 141.554 11.6629 141.269 11.8055C140.987 11.9482 140.773 12.1425 140.627 12.3886L138.289 11.95L138.765 6.04397H145.795V8.17847H140.942L140.691 10.7623H140.755C140.937 10.4592 141.23 10.2095 141.633 10.0134C142.039 9.81367 142.501 9.71381 143.018 9.71381C143.674 9.71381 144.259 9.86717 144.773 10.1739C145.29 10.477 145.696 10.8979 145.992 11.4364C146.292 11.9749 146.442 12.5919 146.442 13.2874C146.442 14.0399 146.264 14.7068 145.907 15.2881C145.554 15.8694 145.058 16.3259 144.42 16.6576C143.785 16.9857 143.041 17.1498 142.189 17.1498ZM152.09 17.1498C151.291 17.1498 150.581 17.0053 149.961 16.7165C149.34 16.4276 148.85 16.0299 148.489 15.5235C148.133 15.0171 147.947 14.4357 147.933 13.7795H150.501C150.522 14.1825 150.686 14.5071 150.993 14.7532C151.3 14.9957 151.665 15.1169 152.09 15.1169C152.421 15.1169 152.716 15.0438 152.972 14.8976C153.229 14.7514 153.431 14.5463 153.577 14.2824C153.723 14.0149 153.794 13.7082 153.791 13.3623C153.794 13.0092 153.721 12.7007 153.572 12.4368C153.425 12.1729 153.222 11.9678 152.962 11.8216C152.705 11.6718 152.409 11.5969 152.074 11.5969C151.756 11.5933 151.455 11.6629 151.17 11.8055C150.888 11.9482 150.674 12.1425 150.528 12.3886L148.19 11.95L148.666 6.04397H155.695V8.17847H150.843L150.592 10.7623H150.656C150.838 10.4592 151.13 10.2095 151.533 10.0134C151.94 9.81367 152.402 9.71381 152.919 9.71381C153.575 9.71381 154.16 9.86717 154.674 10.1739C155.191 10.477 155.597 10.8979 155.893 11.4364C156.193 11.9749 156.343 12.5919 156.343 13.2874C156.343 14.0399 156.164 14.7068 155.808 15.2881C155.455 15.8694 154.959 16.3259 154.32 16.6576C153.686 16.9857 152.942 17.1498 152.09 17.1498ZM162.076 17.1498C161.224 17.1498 160.462 17.0143 159.792 16.7432C159.125 16.4686 158.601 16.0977 158.219 15.6305C157.841 15.1597 157.652 14.6283 157.652 14.0363C157.652 13.5834 157.761 13.1679 157.978 12.7898C158.196 12.4118 158.49 12.098 158.861 11.8483C159.235 11.5951 159.653 11.4328 160.113 11.3615V11.2759C159.51 11.1653 159.016 10.8854 158.631 10.436C158.249 9.98664 158.059 9.4606 158.059 8.85787C158.059 8.28725 158.232 7.77903 158.577 7.33323C158.927 6.88743 159.403 6.53613 160.006 6.27935C160.612 6.02257 161.302 5.89418 162.076 5.89418C162.85 5.89418 163.538 6.02257 164.141 6.27935C164.747 6.53613 165.223 6.88743 165.569 7.33323C165.919 7.77903 166.094 8.28725 166.094 8.85787C166.094 9.46416 165.899 9.99199 165.511 10.4414C165.125 10.8872 164.635 11.1653 164.039 11.2759V11.3615C164.496 11.4328 164.91 11.5951 165.281 11.8483C165.655 12.098 165.951 12.4118 166.169 12.7898C166.39 13.1679 166.5 13.5834 166.5 14.0363C166.5 14.6283 166.309 15.1597 165.928 15.6305C165.546 16.0977 165.022 16.4686 164.355 16.7432C163.692 17.0143 162.932 17.1498 162.076 17.1498ZM162.076 15.2721C162.401 15.2721 162.686 15.2114 162.932 15.0902C163.178 14.9654 163.371 14.7924 163.51 14.5713C163.652 14.3502 163.724 14.1005 163.724 13.8223C163.724 13.537 163.652 13.2838 163.51 13.0627C163.367 12.8416 163.171 12.6686 162.921 12.5438C162.675 12.4154 162.394 12.3512 162.076 12.3512C161.762 12.3512 161.481 12.4154 161.231 12.5438C160.981 12.6686 160.785 12.8416 160.642 13.0627C160.5 13.2838 160.428 13.537 160.428 13.8223C160.428 14.1005 160.498 14.3502 160.637 14.5713C160.78 14.7888 160.974 14.96 161.22 15.0848C161.47 15.2097 161.755 15.2721 162.076 15.2721ZM162.076 10.4842C162.354 10.4842 162.6 10.4271 162.814 10.313C163.032 10.1988 163.201 10.0401 163.323 9.83685C163.447 9.63357 163.51 9.40353 163.51 9.14675C163.51 8.88997 163.447 8.6635 163.323 8.46735C163.201 8.2712 163.034 8.11784 162.82 8.00728C162.606 7.89316 162.358 7.83609 162.076 7.83609C161.798 7.83609 161.55 7.89316 161.333 8.00728C161.115 8.11784 160.946 8.2712 160.824 8.46735C160.703 8.6635 160.642 8.88997 160.642 9.14675C160.642 9.40353 160.703 9.63357 160.824 9.83685C160.949 10.0366 161.12 10.1953 161.338 10.313C161.555 10.4271 161.801 10.4842 162.076 10.4842ZM172.101 5.89418C172.7 5.89418 173.273 5.99226 173.819 6.18841C174.364 6.381 174.851 6.68949 175.279 7.11389C175.707 7.53473 176.044 8.08931 176.29 8.77763C176.536 9.46595 176.659 10.3058 176.659 11.2973C176.663 12.2103 176.556 13.0288 176.338 13.7528C176.121 14.4732 175.809 15.0866 175.402 15.593C174.999 16.0995 174.514 16.4864 173.947 16.7539C173.38 17.0178 172.747 17.1498 172.048 17.1498C171.277 17.1498 170.598 17.0018 170.01 16.7058C169.425 16.4062 168.956 16.0032 168.603 15.4968C168.253 14.9903 168.045 14.4233 167.977 13.7956H170.582C170.664 14.1593 170.837 14.434 171.101 14.6194C171.365 14.8013 171.68 14.8922 172.048 14.8922C172.718 14.8922 173.219 14.6016 173.551 14.0203C173.883 13.4389 174.049 12.649 174.049 11.6504H173.984C173.831 11.9785 173.613 12.2602 173.332 12.4956C173.054 12.731 172.731 12.9111 172.363 13.0359C171.996 13.1608 171.609 13.2232 171.203 13.2232C170.546 13.2232 169.967 13.0734 169.464 12.7738C168.965 12.4742 168.572 12.0623 168.287 11.538C168.005 11.0138 167.863 10.4146 167.859 9.74056C167.855 8.98448 168.032 8.31756 168.389 7.7398C168.745 7.15847 169.243 6.70554 169.881 6.381C170.52 6.05289 171.26 5.89061 172.101 5.89418ZM172.117 7.92704C171.789 7.92704 171.497 8.00371 171.24 8.15707C170.987 8.31043 170.787 8.51728 170.641 8.77763C170.495 9.03798 170.423 9.33042 170.427 9.65497C170.43 9.97951 170.504 10.272 170.646 10.5323C170.792 10.7927 170.99 10.9995 171.24 11.1529C171.493 11.3062 171.782 11.3829 172.107 11.3829C172.349 11.3829 172.574 11.3383 172.781 11.2492C172.988 11.16 173.168 11.037 173.321 10.88C173.474 10.7195 173.594 10.5341 173.679 10.3237C173.769 10.1133 173.811 9.88857 173.808 9.64962C173.804 9.33221 173.729 9.04333 173.583 8.78298C173.437 8.52263 173.235 8.31578 172.979 8.16242C172.725 8.0055 172.438 7.92704 172.117 7.92704Z" fill="white"/>
</svg>
