<svg width="778" height="83" viewBox="0 0 778 83" fill="none" xmlns="http://www.w3.org/2000/svg">
<path d="M27.3104 46V11.0909H33.6342V25.8693H49.8104V11.0909H56.1513V46H49.8104V31.1705H33.6342V46H27.3104ZM79.4439 34.9886V19.8182H85.6143V46H79.6314V41.3466H79.3587C78.7678 42.8125 77.7962 44.0114 76.4439 44.9432C75.103 45.875 73.4496 46.3409 71.4837 46.3409C69.7678 46.3409 68.2507 45.9602 66.9325 45.1989C65.6257 44.4261 64.603 43.3068 63.8643 41.8409C63.1257 40.3636 62.7564 38.5795 62.7564 36.4886V19.8182H68.9268V35.5341C68.9268 37.1932 69.3814 38.5114 70.2905 39.4886C71.1996 40.4659 72.3928 40.9545 73.87 40.9545C74.7791 40.9545 75.6598 40.733 76.5121 40.2898C77.3643 39.8466 78.0632 39.1875 78.6087 38.3125C79.1655 37.4261 79.4439 36.3182 79.4439 34.9886ZM91.9595 46V19.8182H97.8572V24.267H98.1641C98.7095 22.767 99.6129 21.5966 100.874 20.7557C102.136 19.9034 103.641 19.4773 105.391 19.4773C107.164 19.4773 108.658 19.9091 109.874 20.7727C111.102 21.625 111.965 22.7898 112.465 24.267H112.738C113.317 22.8125 114.295 21.6534 115.67 20.7898C117.056 19.9148 118.698 19.4773 120.596 19.4773C123.005 19.4773 124.971 20.2386 126.494 21.7614C128.016 23.2841 128.778 25.5057 128.778 28.4261V46H122.59V29.3807C122.59 27.7557 122.158 26.5682 121.295 25.8182C120.431 25.0568 119.374 24.6761 118.124 24.6761C116.636 24.6761 115.471 25.142 114.63 26.0739C113.8 26.9943 113.386 28.1932 113.386 29.6705V46H107.335V29.125C107.335 27.7727 106.925 26.6932 106.107 25.8864C105.3 25.0795 104.244 24.6761 102.937 24.6761C102.05 24.6761 101.244 24.9034 100.516 25.358C99.7891 25.8011 99.2095 26.4318 98.7777 27.25C98.3459 28.0568 98.13 29 98.13 30.0795V46H91.9595ZM142.572 46.5284C140.913 46.5284 139.418 46.233 138.089 45.642C136.771 45.0398 135.725 44.1534 134.952 42.983C134.191 41.8125 133.81 40.3693 133.81 38.6534C133.81 37.1761 134.083 35.9545 134.629 34.9886C135.174 34.0227 135.918 33.25 136.862 32.6705C137.805 32.0909 138.867 31.6534 140.049 31.358C141.242 31.0511 142.475 30.8295 143.748 30.6932C145.282 30.5341 146.526 30.392 147.481 30.267C148.435 30.1307 149.129 29.9261 149.56 29.6534C150.004 29.3693 150.225 28.9318 150.225 28.3409V28.2386C150.225 26.9545 149.844 25.9602 149.083 25.2557C148.322 24.5511 147.225 24.1989 145.793 24.1989C144.282 24.1989 143.083 24.5284 142.197 25.1875C141.322 25.8466 140.731 26.625 140.424 27.5227L134.663 26.7045C135.117 25.1136 135.867 23.7841 136.913 22.7159C137.958 21.6364 139.237 20.8295 140.748 20.2955C142.259 19.75 143.93 19.4773 145.759 19.4773C147.021 19.4773 148.276 19.625 149.526 19.9205C150.776 20.2159 151.918 20.7045 152.952 21.3864C153.987 22.0568 154.816 22.9716 155.441 24.1307C156.077 25.2898 156.396 26.7386 156.396 28.4773V46H150.464V42.4034H150.259C149.884 43.1307 149.356 43.8125 148.674 44.4489C148.004 45.0739 147.157 45.5795 146.134 45.9659C145.123 46.3409 143.935 46.5284 142.572 46.5284ZM144.174 41.9943C145.413 41.9943 146.487 41.75 147.396 41.2614C148.305 40.7614 149.004 40.1023 149.492 39.2841C149.992 38.4659 150.242 37.5739 150.242 36.608V33.5227C150.049 33.6818 149.719 33.8295 149.254 33.9659C148.799 34.1023 148.288 34.2216 147.719 34.3239C147.151 34.4261 146.589 34.517 146.032 34.5966C145.475 34.6761 144.992 34.7443 144.583 34.8011C143.663 34.9261 142.839 35.1307 142.112 35.4148C141.384 35.6989 140.81 36.0966 140.39 36.608C139.969 37.108 139.759 37.7557 139.759 38.5511C139.759 39.6875 140.174 40.5455 141.004 41.125C141.833 41.7045 142.89 41.9943 144.174 41.9943ZM168.771 30.6591V46H162.6V19.8182H168.498V24.267H168.805C169.407 22.8011 170.367 21.6364 171.685 20.7727C173.015 19.9091 174.657 19.4773 176.612 19.4773C178.418 19.4773 179.992 19.8636 181.333 20.6364C182.685 21.4091 183.731 22.5284 184.469 23.9943C185.219 25.4602 185.589 27.2386 185.577 29.3295V46H179.407V30.2841C179.407 28.5341 178.952 27.1648 178.043 26.1761C177.146 25.1875 175.901 24.6932 174.31 24.6932C173.231 24.6932 172.271 24.9318 171.43 25.4091C170.6 25.875 169.947 26.5511 169.469 27.4375C169.004 28.3239 168.771 29.3977 168.771 30.6591ZM191.85 46V19.8182H198.021V46H191.85ZM194.952 16.1023C193.975 16.1023 193.134 15.7784 192.43 15.1307C191.725 14.4716 191.373 13.6818 191.373 12.7614C191.373 11.8295 191.725 11.0398 192.43 10.392C193.134 9.73295 193.975 9.40341 194.952 9.40341C195.941 9.40341 196.782 9.73295 197.475 10.392C198.18 11.0398 198.532 11.8295 198.532 12.7614C198.532 13.6818 198.18 14.4716 197.475 15.1307C196.782 15.7784 195.941 16.1023 194.952 16.1023ZM217.44 19.8182V24.5909H202.388V19.8182H217.44ZM206.104 13.5455H212.275V38.125C212.275 38.9545 212.4 39.5909 212.65 40.0341C212.911 40.4659 213.252 40.7614 213.673 40.9205C214.093 41.0795 214.559 41.1591 215.07 41.1591C215.457 41.1591 215.809 41.1307 216.127 41.0739C216.457 41.017 216.707 40.9659 216.877 40.9205L217.917 45.7443C217.587 45.858 217.116 45.983 216.502 46.1193C215.9 46.2557 215.161 46.3352 214.286 46.358C212.741 46.4034 211.349 46.1705 210.11 45.6591C208.871 45.1364 207.888 44.3295 207.161 43.2386C206.445 42.1477 206.093 40.7841 206.104 39.1477V13.5455ZM230.134 46.5284C228.475 46.5284 226.981 46.233 225.651 45.642C224.333 45.0398 223.288 44.1534 222.515 42.983C221.754 41.8125 221.373 40.3693 221.373 38.6534C221.373 37.1761 221.646 35.9545 222.191 34.9886C222.737 34.0227 223.481 33.25 224.424 32.6705C225.367 32.0909 226.43 31.6534 227.612 31.358C228.805 31.0511 230.038 30.8295 231.31 30.6932C232.844 30.5341 234.089 30.392 235.043 30.267C235.998 30.1307 236.691 29.9261 237.123 29.6534C237.566 29.3693 237.788 28.9318 237.788 28.3409V28.2386C237.788 26.9545 237.407 25.9602 236.646 25.2557C235.884 24.5511 234.788 24.1989 233.356 24.1989C231.844 24.1989 230.646 24.5284 229.759 25.1875C228.884 25.8466 228.293 26.625 227.987 27.5227L222.225 26.7045C222.68 25.1136 223.43 23.7841 224.475 22.7159C225.521 21.6364 226.799 20.8295 228.31 20.2955C229.822 19.75 231.492 19.4773 233.322 19.4773C234.583 19.4773 235.839 19.625 237.089 19.9205C238.339 20.2159 239.481 20.7045 240.515 21.3864C241.549 22.0568 242.379 22.9716 243.004 24.1307C243.64 25.2898 243.958 26.7386 243.958 28.4773V46H238.026V42.4034H237.822C237.447 43.1307 236.918 43.8125 236.237 44.4489C235.566 45.0739 234.719 45.5795 233.697 45.9659C232.685 46.3409 231.498 46.5284 230.134 46.5284ZM231.737 41.9943C232.975 41.9943 234.049 41.75 234.958 41.2614C235.867 40.7614 236.566 40.1023 237.055 39.2841C237.555 38.4659 237.805 37.5739 237.805 36.608V33.5227C237.612 33.6818 237.282 33.8295 236.816 33.9659C236.362 34.1023 235.85 34.2216 235.282 34.3239C234.714 34.4261 234.151 34.517 233.594 34.5966C233.038 34.6761 232.555 34.7443 232.146 34.8011C231.225 34.9261 230.401 35.1307 229.674 35.4148C228.947 35.6989 228.373 36.0966 227.952 36.608C227.532 37.108 227.322 37.7557 227.322 38.5511C227.322 39.6875 227.737 40.5455 228.566 41.125C229.396 41.7045 230.452 41.9943 231.737 41.9943ZM250.163 46V19.8182H256.146V24.1818H256.418C256.896 22.6705 257.714 21.5057 258.873 20.6875C260.043 19.858 261.379 19.4432 262.879 19.4432C263.219 19.4432 263.6 19.4602 264.021 19.4943C264.452 19.517 264.81 19.5568 265.094 19.6136V25.2898C264.833 25.1989 264.418 25.1193 263.85 25.0511C263.293 24.9716 262.754 24.9318 262.231 24.9318C261.106 24.9318 260.094 25.1761 259.197 25.6648C258.31 26.142 257.612 26.8068 257.1 27.6591C256.589 28.5114 256.333 29.4943 256.333 30.608V46H250.163ZM269.194 46V19.8182H275.364V46H269.194ZM272.296 16.1023C271.319 16.1023 270.478 15.7784 269.773 15.1307C269.069 14.4716 268.717 13.6818 268.717 12.7614C268.717 11.8295 269.069 11.0398 269.773 10.392C270.478 9.73295 271.319 9.40341 272.296 9.40341C273.285 9.40341 274.126 9.73295 274.819 10.392C275.523 11.0398 275.876 11.8295 275.876 12.7614C275.876 13.6818 275.523 14.4716 274.819 15.1307C274.126 15.7784 273.285 16.1023 272.296 16.1023ZM289.244 46.5284C287.585 46.5284 286.09 46.233 284.761 45.642C283.442 45.0398 282.397 44.1534 281.624 42.983C280.863 41.8125 280.482 40.3693 280.482 38.6534C280.482 37.1761 280.755 35.9545 281.3 34.9886C281.846 34.0227 282.59 33.25 283.533 32.6705C284.477 32.0909 285.539 31.6534 286.721 31.358C287.914 31.0511 289.147 30.8295 290.42 30.6932C291.954 30.5341 293.198 30.392 294.153 30.267C295.107 30.1307 295.8 29.9261 296.232 29.6534C296.675 29.3693 296.897 28.9318 296.897 28.3409V28.2386C296.897 26.9545 296.516 25.9602 295.755 25.2557C294.994 24.5511 293.897 24.1989 292.465 24.1989C290.954 24.1989 289.755 24.5284 288.869 25.1875C287.994 25.8466 287.403 26.625 287.096 27.5227L281.335 26.7045C281.789 25.1136 282.539 23.7841 283.585 22.7159C284.63 21.6364 285.908 20.8295 287.42 20.2955C288.931 19.75 290.602 19.4773 292.431 19.4773C293.692 19.4773 294.948 19.625 296.198 19.9205C297.448 20.2159 298.59 20.7045 299.624 21.3864C300.658 22.0568 301.488 22.9716 302.113 24.1307C302.749 25.2898 303.067 26.7386 303.067 28.4773V46H297.136V42.4034H296.931C296.556 43.1307 296.028 43.8125 295.346 44.4489C294.675 45.0739 293.829 45.5795 292.806 45.9659C291.795 46.3409 290.607 46.5284 289.244 46.5284ZM290.846 41.9943C292.085 41.9943 293.158 41.75 294.067 41.2614C294.977 40.7614 295.675 40.1023 296.164 39.2841C296.664 38.4659 296.914 37.5739 296.914 36.608V33.5227C296.721 33.6818 296.391 33.8295 295.925 33.9659C295.471 34.1023 294.96 34.2216 294.391 34.3239C293.823 34.4261 293.261 34.517 292.704 34.5966C292.147 34.6761 291.664 34.7443 291.255 34.8011C290.335 34.9261 289.511 35.1307 288.783 35.4148C288.056 35.6989 287.482 36.0966 287.062 36.608C286.641 37.108 286.431 37.7557 286.431 38.5511C286.431 39.6875 286.846 40.5455 287.675 41.125C288.505 41.7045 289.562 41.9943 290.846 41.9943ZM315.442 30.6591V46H309.272V19.8182H315.17V24.267H315.477C316.079 22.8011 317.039 21.6364 318.357 20.7727C319.687 19.9091 321.329 19.4773 323.283 19.4773C325.09 19.4773 326.664 19.8636 328.005 20.6364C329.357 21.4091 330.403 22.5284 331.141 23.9943C331.891 25.4602 332.261 27.2386 332.249 29.3295V46H326.079V30.2841C326.079 28.5341 325.624 27.1648 324.715 26.1761C323.817 25.1875 322.573 24.6932 320.982 24.6932C319.903 24.6932 318.942 24.9318 318.102 25.4091C317.272 25.875 316.619 26.5511 316.141 27.4375C315.675 28.3239 315.442 29.3977 315.442 30.6591ZM360.86 46.5114C358.474 46.5114 356.423 46.0795 354.707 45.2159C352.991 44.3523 351.667 43.1875 350.735 41.7216C349.815 40.2443 349.354 38.5795 349.354 36.7273C349.354 35.3295 349.638 34.0909 350.207 33.0114C350.786 31.9318 351.582 30.9318 352.593 30.0114C353.616 29.0909 354.798 28.1761 356.138 27.267L362.326 23.0568C363.235 22.4659 363.923 21.8409 364.388 21.1818C364.866 20.5227 365.104 19.75 365.104 18.8636C365.104 18.1136 364.786 17.4034 364.15 16.733C363.525 16.0625 362.661 15.7273 361.559 15.7273C360.82 15.7273 360.167 15.9034 359.599 16.2557C359.042 16.5966 358.604 17.0455 358.286 17.6023C357.979 18.1591 357.826 18.75 357.826 19.375C357.826 20.1364 358.036 20.9091 358.457 21.6932C358.888 22.4773 359.445 23.2898 360.127 24.1307C360.82 24.9716 361.559 25.8636 362.343 26.8068L378.724 46H372.042L358.44 30.4205C357.428 29.2386 356.451 28.0739 355.508 26.9261C354.576 25.7784 353.809 24.5852 353.207 23.3466C352.616 22.0966 352.32 20.7443 352.32 19.2898C352.32 17.642 352.701 16.1705 353.462 14.875C354.224 13.5682 355.286 12.5398 356.65 11.7898C358.025 11.0398 359.633 10.6648 361.474 10.6648C363.315 10.6648 364.894 11.0284 366.212 11.7557C367.531 12.483 368.548 13.4489 369.263 14.6534C369.979 15.858 370.337 17.1705 370.337 18.5909C370.337 20.2386 369.928 21.7159 369.11 23.0227C368.292 24.3182 367.156 25.4943 365.701 26.5511L358.644 31.7159C357.485 32.5568 356.656 33.4091 356.156 34.2727C355.656 35.125 355.406 35.8523 355.406 36.4545C355.406 37.375 355.638 38.2102 356.104 38.9602C356.57 39.7102 357.224 40.3125 358.065 40.767C358.917 41.2102 359.911 41.4318 361.048 41.4318C362.298 41.4318 363.531 41.1534 364.746 40.5966C365.962 40.0284 367.07 39.2216 368.07 38.1761C369.07 37.1307 369.866 35.8807 370.457 34.4261C371.048 32.9602 371.343 31.3352 371.343 29.5511H376.644C376.644 31.7557 376.4 33.6761 375.911 35.3125C375.423 36.9375 374.792 38.3125 374.019 39.4375C373.246 40.5511 372.428 41.4432 371.565 42.1136C371.292 42.3068 371.031 42.5 370.781 42.6932C370.531 42.8864 370.269 43.0795 369.996 43.2727C368.769 44.3864 367.332 45.2045 365.684 45.7273C364.048 46.25 362.44 46.5114 360.86 46.5114ZM424.316 22.8693H417.941C417.759 21.8239 417.424 20.8977 416.935 20.0909C416.447 19.2727 415.839 18.5795 415.112 18.0114C414.384 17.4432 413.555 17.017 412.623 16.733C411.702 16.4375 410.708 16.2898 409.64 16.2898C407.742 16.2898 406.06 16.767 404.594 17.7216C403.129 18.6648 401.981 20.0511 401.151 21.8807C400.322 23.6989 399.907 25.9205 399.907 28.5455C399.907 31.2159 400.322 33.4659 401.151 35.2955C401.992 37.1136 403.14 38.4886 404.594 39.4205C406.06 40.3409 407.737 40.8011 409.623 40.8011C410.668 40.8011 411.646 40.6648 412.555 40.392C413.475 40.108 414.299 39.6932 415.026 39.1477C415.765 38.6023 416.384 37.9318 416.884 37.1364C417.396 36.3409 417.748 35.4318 417.941 34.4091L424.316 34.4432C424.077 36.1023 423.56 37.6591 422.765 39.1136C421.981 40.5682 420.952 41.8523 419.68 42.9659C418.407 44.0682 416.918 44.9318 415.214 45.5568C413.509 46.1705 411.617 46.4773 409.538 46.4773C406.469 46.4773 403.731 45.767 401.322 44.3466C398.913 42.9261 397.015 40.875 395.629 38.1932C394.242 35.5114 393.549 32.2955 393.549 28.5455C393.549 24.7841 394.248 21.5682 395.646 18.8977C397.043 16.2159 398.947 14.1648 401.356 12.7443C403.765 11.3239 406.492 10.6136 409.538 10.6136C411.481 10.6136 413.288 10.8864 414.958 11.4318C416.629 11.9773 418.117 12.7784 419.424 13.8352C420.731 14.8807 421.805 16.1648 422.646 17.6875C423.498 19.1989 424.055 20.9261 424.316 22.8693ZM441.255 46.5114C438.698 46.5114 436.482 45.9489 434.607 44.8239C432.732 43.6989 431.278 42.125 430.244 40.1023C429.221 38.0795 428.71 35.7159 428.71 33.0114C428.71 30.3068 429.221 27.9375 430.244 25.9034C431.278 23.8693 432.732 22.2898 434.607 21.1648C436.482 20.0398 438.698 19.4773 441.255 19.4773C443.812 19.4773 446.028 20.0398 447.903 21.1648C449.778 22.2898 451.227 23.8693 452.249 25.9034C453.283 27.9375 453.8 30.3068 453.8 33.0114C453.8 35.7159 453.283 38.0795 452.249 40.1023C451.227 42.125 449.778 43.6989 447.903 44.8239C446.028 45.9489 443.812 46.5114 441.255 46.5114ZM441.289 41.5682C442.675 41.5682 443.835 41.1875 444.766 40.4261C445.698 39.6534 446.391 38.6193 446.846 37.3239C447.312 36.0284 447.545 34.5852 447.545 32.9943C447.545 31.392 447.312 29.9432 446.846 28.6477C446.391 27.3409 445.698 26.3011 444.766 25.5284C443.835 24.7557 442.675 24.3693 441.289 24.3693C439.869 24.3693 438.687 24.7557 437.744 25.5284C436.812 26.3011 436.113 27.3409 435.647 28.6477C435.192 29.9432 434.965 31.392 434.965 32.9943C434.965 34.5852 435.192 36.0284 435.647 37.3239C436.113 38.6193 436.812 39.6534 437.744 40.4261C438.687 41.1875 439.869 41.5682 441.289 41.5682ZM459.038 46V19.8182H464.935V24.267H465.242C465.788 22.767 466.691 21.5966 467.952 20.7557C469.214 19.9034 470.719 19.4773 472.469 19.4773C474.242 19.4773 475.737 19.9091 476.952 20.7727C478.18 21.625 479.043 22.7898 479.543 24.267H479.816C480.396 22.8125 481.373 21.6534 482.748 20.7898C484.134 19.9148 485.776 19.4773 487.674 19.4773C490.083 19.4773 492.049 20.2386 493.572 21.7614C495.094 23.2841 495.856 25.5057 495.856 28.4261V46H489.668V29.3807C489.668 27.7557 489.237 26.5682 488.373 25.8182C487.509 25.0568 486.452 24.6761 485.202 24.6761C483.714 24.6761 482.549 25.142 481.708 26.0739C480.879 26.9943 480.464 28.1932 480.464 29.6705V46H474.413V29.125C474.413 27.7727 474.004 26.6932 473.185 25.8864C472.379 25.0795 471.322 24.6761 470.015 24.6761C469.129 24.6761 468.322 24.9034 467.594 25.358C466.867 25.8011 466.288 26.4318 465.856 27.25C465.424 28.0568 465.208 29 465.208 30.0795V46H459.038ZM502.116 55.8182V19.8182H508.184V24.1477H508.542C508.86 23.5114 509.309 22.8352 509.888 22.1193C510.468 21.392 511.252 20.7727 512.241 20.2614C513.229 19.7386 514.491 19.4773 516.025 19.4773C518.048 19.4773 519.871 19.9943 521.496 21.0284C523.133 22.0511 524.428 23.5682 525.383 25.5795C526.349 27.5795 526.832 30.0341 526.832 32.9432C526.832 35.8182 526.36 38.2614 525.417 40.2727C524.474 42.2841 523.19 43.8182 521.565 44.875C519.94 45.9318 518.099 46.4602 516.042 46.4602C514.542 46.4602 513.298 46.2102 512.309 45.7102C511.32 45.2102 510.525 44.608 509.923 43.9034C509.332 43.1875 508.871 42.5114 508.542 41.875H508.286V55.8182H502.116ZM508.167 32.9091C508.167 34.6023 508.406 36.0852 508.883 37.358C509.371 38.6307 510.07 39.625 510.979 40.3409C511.9 41.0455 513.013 41.3977 514.32 41.3977C515.684 41.3977 516.826 41.0341 517.746 40.3068C518.667 39.5682 519.36 38.5625 519.826 37.2898C520.303 36.0057 520.542 34.5455 520.542 32.9091C520.542 31.2841 520.309 29.8409 519.843 28.5795C519.377 27.3182 518.684 26.3295 517.763 25.6136C516.843 24.8977 515.695 24.5398 514.32 24.5398C513.002 24.5398 511.883 24.8864 510.962 25.5795C510.042 26.2727 509.343 27.2443 508.866 28.4943C508.4 29.7443 508.167 31.2159 508.167 32.9091ZM539.65 46.5284C537.991 46.5284 536.496 46.233 535.167 45.642C533.849 45.0398 532.803 44.1534 532.031 42.983C531.269 41.8125 530.888 40.3693 530.888 38.6534C530.888 37.1761 531.161 35.9545 531.707 34.9886C532.252 34.0227 532.996 33.25 533.94 32.6705C534.883 32.0909 535.945 31.6534 537.127 31.358C538.32 31.0511 539.553 30.8295 540.826 30.6932C542.36 30.5341 543.604 30.392 544.559 30.267C545.513 30.1307 546.207 29.9261 546.638 29.6534C547.082 29.3693 547.303 28.9318 547.303 28.3409V28.2386C547.303 26.9545 546.923 25.9602 546.161 25.2557C545.4 24.5511 544.303 24.1989 542.871 24.1989C541.36 24.1989 540.161 24.5284 539.275 25.1875C538.4 25.8466 537.809 26.625 537.502 27.5227L531.741 26.7045C532.195 25.1136 532.945 23.7841 533.991 22.7159C535.036 21.6364 536.315 20.8295 537.826 20.2955C539.337 19.75 541.008 19.4773 542.837 19.4773C544.099 19.4773 545.354 19.625 546.604 19.9205C547.854 20.2159 548.996 20.7045 550.031 21.3864C551.065 22.0568 551.894 22.9716 552.519 24.1307C553.156 25.2898 553.474 26.7386 553.474 28.4773V46H547.542V42.4034H547.337C546.962 43.1307 546.434 43.8125 545.752 44.4489C545.082 45.0739 544.235 45.5795 543.212 45.9659C542.201 46.3409 541.013 46.5284 539.65 46.5284ZM541.252 41.9943C542.491 41.9943 543.565 41.75 544.474 41.2614C545.383 40.7614 546.082 40.1023 546.57 39.2841C547.07 38.4659 547.32 37.5739 547.32 36.608V33.5227C547.127 33.6818 546.798 33.8295 546.332 33.9659C545.877 34.1023 545.366 34.2216 544.798 34.3239C544.229 34.4261 543.667 34.517 543.11 34.5966C542.553 34.6761 542.07 34.7443 541.661 34.8011C540.741 34.9261 539.917 35.1307 539.19 35.4148C538.462 35.6989 537.888 36.0966 537.468 36.608C537.048 37.108 536.837 37.7557 536.837 38.5511C536.837 39.6875 537.252 40.5455 538.082 41.125C538.911 41.7045 539.968 41.9943 541.252 41.9943ZM580.371 26.7386L574.746 27.3523C574.587 26.7841 574.309 26.25 573.911 25.75C573.525 25.25 573.002 24.8466 572.343 24.5398C571.684 24.233 570.877 24.0795 569.923 24.0795C568.638 24.0795 567.559 24.358 566.684 24.9148C565.82 25.4716 565.394 26.1932 565.406 27.0795C565.394 27.8409 565.673 28.4602 566.241 28.9375C566.82 29.4148 567.775 29.8068 569.104 30.1136L573.57 31.0682C576.048 31.6023 577.888 32.4489 579.093 33.608C580.309 34.767 580.923 36.2841 580.934 38.1591C580.923 39.8068 580.44 41.2614 579.485 42.5227C578.542 43.7727 577.229 44.75 575.548 45.4545C573.866 46.1591 571.934 46.5114 569.752 46.5114C566.548 46.5114 563.968 45.8409 562.013 44.5C560.059 43.1477 558.894 41.267 558.519 38.858L564.536 38.2784C564.809 39.4602 565.388 40.3523 566.275 40.9545C567.161 41.5568 568.315 41.858 569.735 41.858C571.201 41.858 572.377 41.5568 573.263 40.9545C574.161 40.3523 574.61 39.608 574.61 38.7216C574.61 37.9716 574.32 37.3523 573.741 36.8636C573.173 36.375 572.286 36 571.082 35.7386L566.616 34.8011C564.104 34.2784 562.246 33.3977 561.042 32.1591C559.837 30.9091 559.241 29.3295 559.252 27.4205C559.241 25.8068 559.678 24.4091 560.565 23.2273C561.462 22.0341 562.707 21.1136 564.298 20.4659C565.9 19.8068 567.746 19.4773 569.837 19.4773C572.906 19.4773 575.32 20.1307 577.082 21.4375C578.854 22.7443 579.951 24.5114 580.371 26.7386ZM606.715 26.7386L601.09 27.3523C600.931 26.7841 600.653 26.25 600.255 25.75C599.869 25.25 599.346 24.8466 598.687 24.5398C598.028 24.233 597.221 24.0795 596.266 24.0795C594.982 24.0795 593.903 24.358 593.028 24.9148C592.164 25.4716 591.738 26.1932 591.749 27.0795C591.738 27.8409 592.016 28.4602 592.585 28.9375C593.164 29.4148 594.119 29.8068 595.448 30.1136L599.914 31.0682C602.391 31.6023 604.232 32.4489 605.437 33.608C606.653 34.767 607.266 36.2841 607.278 38.1591C607.266 39.8068 606.783 41.2614 605.829 42.5227C604.886 43.7727 603.573 44.75 601.891 45.4545C600.21 46.1591 598.278 46.5114 596.096 46.5114C592.891 46.5114 590.312 45.8409 588.357 44.5C586.403 43.1477 585.238 41.267 584.863 38.858L590.88 38.2784C591.153 39.4602 591.732 40.3523 592.619 40.9545C593.505 41.5568 594.658 41.858 596.079 41.858C597.545 41.858 598.721 41.5568 599.607 40.9545C600.505 40.3523 600.954 39.608 600.954 38.7216C600.954 37.9716 600.664 37.3523 600.085 36.8636C599.516 36.375 598.63 36 597.425 35.7386L592.96 34.8011C590.448 34.2784 588.59 33.3977 587.386 32.1591C586.181 30.9091 585.585 29.3295 585.596 27.4205C585.585 25.8068 586.022 24.4091 586.908 23.2273C587.806 22.0341 589.05 21.1136 590.641 20.4659C592.244 19.8068 594.09 19.4773 596.181 19.4773C599.249 19.4773 601.664 20.1307 603.425 21.4375C605.198 22.7443 606.295 24.5114 606.715 26.7386ZM612.366 46V19.8182H618.536V46H612.366ZM615.468 16.1023C614.491 16.1023 613.65 15.7784 612.945 15.1307C612.241 14.4716 611.888 13.6818 611.888 12.7614C611.888 11.8295 612.241 11.0398 612.945 10.392C613.65 9.73295 614.491 9.40341 615.468 9.40341C616.457 9.40341 617.298 9.73295 617.991 10.392C618.695 11.0398 619.048 11.8295 619.048 12.7614C619.048 13.6818 618.695 14.4716 617.991 15.1307C617.298 15.7784 616.457 16.1023 615.468 16.1023ZM636.302 46.5114C633.745 46.5114 631.529 45.9489 629.654 44.8239C627.779 43.6989 626.325 42.125 625.29 40.1023C624.268 38.0795 623.756 35.7159 623.756 33.0114C623.756 30.3068 624.268 27.9375 625.29 25.9034C626.325 23.8693 627.779 22.2898 629.654 21.1648C631.529 20.0398 633.745 19.4773 636.302 19.4773C638.859 19.4773 641.075 20.0398 642.95 21.1648C644.825 22.2898 646.273 23.8693 647.296 25.9034C648.33 27.9375 648.847 30.3068 648.847 33.0114C648.847 35.7159 648.33 38.0795 647.296 40.1023C646.273 42.125 644.825 43.6989 642.95 44.8239C641.075 45.9489 638.859 46.5114 636.302 46.5114ZM636.336 41.5682C637.722 41.5682 638.881 41.1875 639.813 40.4261C640.745 39.6534 641.438 38.6193 641.893 37.3239C642.359 36.0284 642.592 34.5852 642.592 32.9943C642.592 31.392 642.359 29.9432 641.893 28.6477C641.438 27.3409 640.745 26.3011 639.813 25.5284C638.881 24.7557 637.722 24.3693 636.336 24.3693C634.915 24.3693 633.734 24.7557 632.79 25.5284C631.859 26.3011 631.16 27.3409 630.694 28.6477C630.239 29.9432 630.012 31.392 630.012 32.9943C630.012 34.5852 630.239 36.0284 630.694 37.3239C631.16 38.6193 631.859 39.6534 632.79 40.4261C633.734 41.1875 634.915 41.5682 636.336 41.5682ZM660.255 30.6591V46H654.085V19.8182H659.982V24.267H660.289C660.891 22.8011 661.852 21.6364 663.17 20.7727C664.499 19.9091 666.141 19.4773 668.096 19.4773C669.903 19.4773 671.477 19.8636 672.817 20.6364C674.17 21.4091 675.215 22.5284 675.954 23.9943C676.704 25.4602 677.073 27.2386 677.062 29.3295V46H670.891V30.2841C670.891 28.5341 670.437 27.1648 669.528 26.1761C668.63 25.1875 667.386 24.6932 665.795 24.6932C664.715 24.6932 663.755 24.9318 662.914 25.4091C662.085 25.875 661.431 26.5511 660.954 27.4375C660.488 28.3239 660.255 29.3977 660.255 30.6591ZM690.869 46.5284C689.21 46.5284 687.715 46.233 686.386 45.642C685.067 45.0398 684.022 44.1534 683.249 42.983C682.488 41.8125 682.107 40.3693 682.107 38.6534C682.107 37.1761 682.38 35.9545 682.925 34.9886C683.471 34.0227 684.215 33.25 685.158 32.6705C686.102 32.0909 687.164 31.6534 688.346 31.358C689.539 31.0511 690.772 30.8295 692.045 30.6932C693.579 30.5341 694.823 30.392 695.778 30.267C696.732 30.1307 697.425 29.9261 697.857 29.6534C698.3 29.3693 698.522 28.9318 698.522 28.3409V28.2386C698.522 26.9545 698.141 25.9602 697.38 25.2557C696.619 24.5511 695.522 24.1989 694.09 24.1989C692.579 24.1989 691.38 24.5284 690.494 25.1875C689.619 25.8466 689.028 26.625 688.721 27.5227L682.96 26.7045C683.414 25.1136 684.164 23.7841 685.21 22.7159C686.255 21.6364 687.533 20.8295 689.045 20.2955C690.556 19.75 692.227 19.4773 694.056 19.4773C695.317 19.4773 696.573 19.625 697.823 19.9205C699.073 20.2159 700.215 20.7045 701.249 21.3864C702.283 22.0568 703.113 22.9716 703.738 24.1307C704.374 25.2898 704.692 26.7386 704.692 28.4773V46H698.761V42.4034H698.556C698.181 43.1307 697.653 43.8125 696.971 44.4489C696.3 45.0739 695.454 45.5795 694.431 45.9659C693.42 46.3409 692.232 46.5284 690.869 46.5284ZM692.471 41.9943C693.71 41.9943 694.783 41.75 695.692 41.2614C696.602 40.7614 697.3 40.1023 697.789 39.2841C698.289 38.4659 698.539 37.5739 698.539 36.608V33.5227C698.346 33.6818 698.016 33.8295 697.55 33.9659C697.096 34.1023 696.585 34.2216 696.016 34.3239C695.448 34.4261 694.886 34.517 694.329 34.5966C693.772 34.6761 693.289 34.7443 692.88 34.8011C691.96 34.9261 691.136 35.1307 690.408 35.4148C689.681 35.6989 689.107 36.0966 688.687 36.608C688.266 37.108 688.056 37.7557 688.056 38.5511C688.056 39.6875 688.471 40.5455 689.3 41.125C690.13 41.7045 691.187 41.9943 692.471 41.9943ZM723.971 19.8182V24.5909H708.92V19.8182H723.971ZM712.636 13.5455H718.806V38.125C718.806 38.9545 718.931 39.5909 719.181 40.0341C719.442 40.4659 719.783 40.7614 720.204 40.9205C720.624 41.0795 721.09 41.1591 721.602 41.1591C721.988 41.1591 722.34 41.1307 722.658 41.0739C722.988 41.017 723.238 40.9659 723.408 40.9205L724.448 45.7443C724.119 45.858 723.647 45.983 723.033 46.1193C722.431 46.2557 721.692 46.3352 720.817 46.358C719.272 46.4034 717.88 46.1705 716.641 45.6591C715.403 45.1364 714.42 44.3295 713.692 43.2386C712.977 42.1477 712.624 40.7841 712.636 39.1477V13.5455ZM740.441 46.5114C737.816 46.5114 735.549 45.9659 733.64 44.875C731.742 43.7727 730.282 42.2159 729.259 40.2045C728.237 38.1818 727.725 35.8011 727.725 33.0625C727.725 30.3693 728.237 28.0057 729.259 25.9716C730.293 23.9261 731.737 22.3352 733.589 21.1989C735.441 20.0511 737.617 19.4773 740.117 19.4773C741.731 19.4773 743.254 19.7386 744.685 20.2614C746.129 20.7727 747.401 21.5682 748.504 22.6477C749.617 23.7273 750.492 25.1023 751.129 26.7727C751.765 28.4318 752.083 30.4091 752.083 32.7045V34.5966H730.623V30.4375H746.168C746.157 29.2557 745.901 28.2045 745.401 27.2841C744.901 26.3523 744.202 25.6193 743.305 25.0852C742.418 24.5511 741.384 24.2841 740.202 24.2841C738.941 24.2841 737.833 24.5909 736.879 25.2045C735.924 25.8068 735.18 26.6023 734.646 27.5909C734.123 28.5682 733.856 29.642 733.844 30.8125V34.4432C733.844 35.9659 734.123 37.2727 734.68 38.3636C735.237 39.4432 736.015 40.2727 737.015 40.8523C738.015 41.4205 739.185 41.7045 740.526 41.7045C741.424 41.7045 742.237 41.5795 742.964 41.3295C743.691 41.0682 744.322 40.6875 744.856 40.1875C745.39 39.6875 745.793 39.0682 746.066 38.3295L751.827 38.9773C751.464 40.5 750.771 41.8295 749.748 42.9659C748.737 44.0909 747.441 44.9659 745.862 45.5909C744.282 46.2045 742.475 46.5114 740.441 46.5114ZM216.079 79V65.8681H218.458V71.4273H224.543V65.8681H226.928V79H224.543V73.4215H218.458V79H216.079ZM233.709 79.1924C232.747 79.1924 231.914 78.9808 231.208 78.5576C230.503 78.1344 229.956 77.5423 229.567 76.7814C229.182 76.0205 228.99 75.1314 228.99 74.114C228.99 73.0966 229.182 72.2053 229.567 71.4402C229.956 70.675 230.503 70.0808 231.208 69.6576C231.914 69.2344 232.747 69.0228 233.709 69.0228C234.671 69.0228 235.504 69.2344 236.21 69.6576C236.915 70.0808 237.46 70.675 237.845 71.4402C238.234 72.2053 238.428 73.0966 238.428 74.114C238.428 75.1314 238.234 76.0205 237.845 76.7814C237.46 77.5423 236.915 78.1344 236.21 78.5576C235.504 78.9808 234.671 79.1924 233.709 79.1924ZM233.722 77.3329C234.243 77.3329 234.679 77.1897 235.03 76.9033C235.38 76.6126 235.641 76.2236 235.812 75.7363C235.988 75.2489 236.075 74.706 236.075 74.1076C236.075 73.5048 235.988 72.9598 235.812 72.4725C235.641 71.9809 235.38 71.5898 235.03 71.2991C234.679 71.0084 234.243 70.8631 233.722 70.8631C233.188 70.8631 232.743 71.0084 232.388 71.2991C232.038 71.5898 231.775 71.9809 231.6 72.4725C231.429 72.9598 231.343 73.5048 231.343 74.1076C231.343 74.706 231.429 75.2489 231.6 75.7363C231.775 76.2236 232.038 76.6126 232.388 76.9033C232.743 77.1897 233.188 77.3329 233.722 77.3329ZM240.398 79V69.151H242.617V70.8246H242.732C242.938 70.2603 243.278 69.82 243.752 69.5037C244.226 69.1831 244.793 69.0228 245.451 69.0228C246.118 69.0228 246.68 69.1852 247.138 69.5101C247.599 69.8307 247.924 70.2689 248.112 70.8246H248.215C248.433 70.2774 248.8 69.8414 249.318 69.5165C249.839 69.1874 250.457 69.0228 251.171 69.0228C252.077 69.0228 252.817 69.3092 253.389 69.882C253.962 70.4548 254.249 71.2905 254.249 72.3891V79H251.921V72.7482C251.921 72.1369 251.759 71.6902 251.434 71.4081C251.109 71.1217 250.711 70.9785 250.241 70.9785C249.681 70.9785 249.243 71.1538 248.927 71.5043C248.614 71.8505 248.458 72.3015 248.458 72.8572V79H246.182V72.652C246.182 72.1434 246.028 71.7373 245.721 71.4337C245.417 71.1302 245.019 70.9785 244.528 70.9785C244.194 70.9785 243.891 71.064 243.617 71.235C243.344 71.4017 243.126 71.6389 242.963 71.9467C242.801 72.2502 242.72 72.605 242.72 73.0111V79H240.398ZM260.964 79.1924C259.976 79.1924 259.123 78.9872 258.405 78.5768C257.691 78.1622 257.142 77.5765 256.757 76.8199C256.373 76.059 256.18 75.1634 256.18 74.1332C256.18 73.1201 256.373 72.231 256.757 71.4658C257.146 70.6964 257.689 70.0979 258.386 69.6704C259.083 69.2387 259.901 69.0228 260.842 69.0228C261.449 69.0228 262.022 69.1211 262.56 69.3178C263.103 69.5101 263.582 69.8094 263.997 70.2155C264.415 70.6216 264.745 71.1388 264.984 71.7672C265.223 72.3913 265.343 73.1351 265.343 73.9986V74.7103H257.27V73.1458H263.118C263.114 72.7012 263.018 72.3058 262.83 71.9595C262.641 71.609 262.379 71.3333 262.041 71.1324C261.707 70.9315 261.318 70.831 260.874 70.831C260.399 70.831 259.983 70.9464 259.624 71.1773C259.264 71.4038 258.984 71.7031 258.784 72.075C258.587 72.4426 258.486 72.8465 258.482 73.2868V74.6526C258.482 75.2254 258.587 75.717 258.796 76.1274C259.006 76.5335 259.299 76.8455 259.675 77.0636C260.051 77.2773 260.491 77.3842 260.996 77.3842C261.333 77.3842 261.639 77.3371 261.913 77.2431C262.186 77.1448 262.423 77.0016 262.624 76.8135C262.825 76.6254 262.977 76.3924 263.08 76.1146L265.247 76.3582C265.11 76.931 264.849 77.4312 264.465 77.8587C264.084 78.2818 263.597 78.611 263.003 78.8461C262.408 79.0769 261.729 79.1924 260.964 79.1924ZM289.804 79V65.8681H292.182V71.4273H298.267V65.8681H300.653V79H298.267V73.4215H292.182V79H289.804ZM309.415 74.8578V69.151H311.736V79H309.485V77.2495H309.383C309.161 77.8009 308.795 78.2519 308.286 78.6025C307.782 78.953 307.16 79.1282 306.42 79.1282C305.775 79.1282 305.204 78.985 304.708 78.6986C304.217 78.408 303.832 77.9869 303.554 77.4355C303.276 76.8797 303.137 76.2086 303.137 75.4221V69.151H305.459V75.063C305.459 75.6871 305.63 76.183 305.972 76.5506C306.314 76.9182 306.762 77.102 307.318 77.102C307.66 77.102 307.991 77.0187 308.312 76.852C308.633 76.6852 308.896 76.4373 309.101 76.1082C309.31 75.7747 309.415 75.3579 309.415 74.8578ZM314.123 79V69.151H316.342V70.8246H316.457C316.662 70.2603 317.002 69.82 317.476 69.5037C317.951 69.1831 318.517 69.0228 319.176 69.0228C319.843 69.0228 320.405 69.1852 320.862 69.5101C321.324 69.8307 321.649 70.2689 321.837 70.8246H321.939C322.157 70.2774 322.525 69.8414 323.042 69.5165C323.564 69.1874 324.181 69.0228 324.895 69.0228C325.801 69.0228 326.541 69.3092 327.114 69.882C327.687 70.4548 327.973 71.2905 327.973 72.3891V79H325.645V72.7482C325.645 72.1369 325.483 71.6902 325.158 71.4081C324.833 71.1217 324.436 70.9785 323.965 70.9785C323.405 70.9785 322.967 71.1538 322.651 71.5043C322.339 71.8505 322.183 72.3015 322.183 72.8572V79H319.907V72.652C319.907 72.1434 319.753 71.7373 319.445 71.4337C319.141 71.1302 318.744 70.9785 318.252 70.9785C317.919 70.9785 317.615 71.064 317.342 71.235C317.068 71.4017 316.85 71.6389 316.688 71.9467C316.525 72.2502 316.444 72.605 316.444 73.0111V79H314.123ZM333.162 79.1988C332.538 79.1988 331.976 79.0876 331.476 78.8653C330.98 78.6388 330.587 78.3054 330.296 77.8651C330.009 77.4248 329.866 76.8819 329.866 76.2364C329.866 75.6807 329.969 75.2211 330.174 74.8578C330.379 74.4944 330.659 74.2038 331.014 73.9858C331.369 73.7677 331.768 73.6032 332.213 73.492C332.662 73.3766 333.126 73.2932 333.604 73.242C334.182 73.1821 334.65 73.1287 335.009 73.0817C335.368 73.0304 335.629 72.9534 335.791 72.8508C335.958 72.7439 336.041 72.5794 336.041 72.3571V72.3186C336.041 71.8356 335.898 71.4615 335.611 71.1965C335.325 70.9315 334.913 70.799 334.374 70.799C333.805 70.799 333.354 70.9229 333.021 71.1709C332.692 71.4188 332.47 71.7116 332.354 72.0493L330.187 71.7415C330.358 71.1431 330.64 70.6429 331.033 70.2411C331.427 69.835 331.907 69.5315 332.476 69.3306C333.044 69.1254 333.673 69.0228 334.361 69.0228C334.836 69.0228 335.308 69.0784 335.778 69.1895C336.248 69.3007 336.678 69.4845 337.067 69.741C337.456 69.9932 337.768 70.3373 338.003 70.7733C338.243 71.2093 338.362 71.7544 338.362 72.4084V79H336.131V77.6471H336.054C335.913 77.9206 335.714 78.1771 335.458 78.4165C335.205 78.6516 334.887 78.8418 334.502 78.9872C334.122 79.1282 333.675 79.1988 333.162 79.1988ZM333.765 77.4932C334.231 77.4932 334.635 77.4013 334.977 77.2174C335.319 77.0294 335.582 76.7814 335.765 76.4736C335.953 76.1659 336.047 75.8303 336.047 75.4669V74.3064C335.975 74.3662 335.851 74.4218 335.676 74.4731C335.505 74.5244 335.312 74.5693 335.098 74.6077C334.885 74.6462 334.673 74.6804 334.464 74.7103C334.254 74.7402 334.073 74.7659 333.919 74.7873C333.572 74.8343 333.262 74.9112 332.989 75.0181C332.715 75.125 332.499 75.2746 332.341 75.4669C332.183 75.655 332.104 75.8987 332.104 76.1979C332.104 76.6254 332.26 76.9481 332.572 77.1661C332.884 77.3842 333.282 77.4932 333.765 77.4932ZM343.017 73.2291V79H340.696V69.151H342.915V70.8246H343.03C343.257 70.2732 343.618 69.835 344.114 69.5101C344.614 69.1852 345.232 69.0228 345.967 69.0228C346.647 69.0228 347.239 69.1681 347.743 69.4588C348.252 69.7495 348.645 70.1706 348.923 70.722C349.205 71.2734 349.344 71.9424 349.34 72.729V79H347.019V73.0881C347.019 72.4298 346.848 71.9147 346.506 71.5428C346.168 71.1709 345.7 70.9849 345.101 70.9849C344.695 70.9849 344.334 71.0747 344.018 71.2542C343.706 71.4295 343.46 71.6838 343.28 72.0172C343.105 72.3507 343.017 72.7546 343.017 73.2291ZM351.699 79V69.151H354.021V79H351.699ZM352.866 67.7532C352.499 67.7532 352.182 67.6314 351.917 67.3877C351.652 67.1398 351.52 66.8427 351.52 66.4964C351.52 66.1459 351.652 65.8488 351.917 65.6052C352.182 65.3572 352.499 65.2333 352.866 65.2333C353.238 65.2333 353.555 65.3572 353.815 65.6052C354.08 65.8488 354.213 66.1459 354.213 66.4964C354.213 66.8427 354.08 67.1398 353.815 67.3877C353.555 67.6314 353.238 67.7532 352.866 67.7532ZM361.325 69.151V70.9464H355.664V69.151H361.325ZM357.061 66.7914H359.383V76.0376C359.383 76.3497 359.43 76.5891 359.524 76.7558C359.622 76.9182 359.75 77.0294 359.908 77.0892C360.067 77.149 360.242 77.179 360.434 77.179C360.58 77.179 360.712 77.1683 360.832 77.1469C360.956 77.1255 361.05 77.1063 361.114 77.0892L361.505 78.9038C361.381 78.9466 361.204 78.9936 360.973 79.0449C360.746 79.0962 360.468 79.1261 360.139 79.1347C359.558 79.1518 359.034 79.0641 358.568 78.8718C358.102 78.6751 357.733 78.3716 357.459 77.9612C357.19 77.5509 357.057 77.0379 357.061 76.4223V66.7914ZM366.101 79.1988C365.477 79.1988 364.915 79.0876 364.415 78.8653C363.919 78.6388 363.525 78.3054 363.235 77.8651C362.948 77.4248 362.805 76.8819 362.805 76.2364C362.805 75.6807 362.908 75.2211 363.113 74.8578C363.318 74.4944 363.598 74.2038 363.953 73.9858C364.308 73.7677 364.707 73.6032 365.152 73.492C365.601 73.3766 366.065 73.2932 366.543 73.242C367.12 73.1821 367.588 73.1287 367.948 73.0817C368.307 73.0304 368.567 72.9534 368.73 72.8508C368.897 72.7439 368.98 72.5794 368.98 72.3571V72.3186C368.98 71.8356 368.837 71.4615 368.55 71.1965C368.264 70.9315 367.851 70.799 367.313 70.799C366.744 70.799 366.293 70.9229 365.96 71.1709C365.631 71.4188 365.408 71.7116 365.293 72.0493L363.126 71.7415C363.297 71.1431 363.579 70.6429 363.972 70.2411C364.365 69.835 364.846 69.5315 365.415 69.3306C365.983 69.1254 366.612 69.0228 367.3 69.0228C367.774 69.0228 368.247 69.0784 368.717 69.1895C369.187 69.3007 369.617 69.4845 370.006 69.741C370.395 69.9932 370.707 70.3373 370.942 70.7733C371.181 71.2093 371.301 71.7544 371.301 72.4084V79H369.07V77.6471H368.993C368.852 77.9206 368.653 78.1771 368.396 78.4165C368.144 78.6516 367.826 78.8418 367.441 78.9872C367.061 79.1282 366.614 79.1988 366.101 79.1988ZM366.704 77.4932C367.17 77.4932 367.574 77.4013 367.916 77.2174C368.257 77.0294 368.52 76.7814 368.704 76.4736C368.892 76.1659 368.986 75.8303 368.986 75.4669V74.3064C368.914 74.3662 368.79 74.4218 368.614 74.4731C368.443 74.5244 368.251 74.5693 368.037 74.6077C367.824 74.6462 367.612 74.6804 367.403 74.7103C367.193 74.7402 367.011 74.7659 366.858 74.7873C366.511 74.8343 366.201 74.9112 365.928 75.0181C365.654 75.125 365.438 75.2746 365.28 75.4669C365.122 75.655 365.043 75.8987 365.043 76.1979C365.043 76.6254 365.199 76.9481 365.511 77.1661C365.823 77.3842 366.221 77.4932 366.704 77.4932ZM373.635 79V69.151H375.886V70.7925H375.988C376.168 70.224 376.476 69.7858 376.912 69.4781C377.352 69.166 377.854 69.01 378.418 69.01C378.547 69.01 378.69 69.0164 378.848 69.0292C379.011 69.0378 379.145 69.0527 379.252 69.0741V71.2093C379.154 71.1751 378.998 71.1452 378.784 71.1196C378.574 71.0896 378.371 71.0747 378.175 71.0747C377.752 71.0747 377.371 71.1666 377.033 71.3504C376.7 71.5299 376.437 71.78 376.245 72.1006C376.052 72.4212 375.956 72.791 375.956 73.2099V79H373.635ZM380.794 79V69.151H383.115V79H380.794ZM381.961 67.7532C381.594 67.7532 381.277 67.6314 381.012 67.3877C380.747 67.1398 380.615 66.8427 380.615 66.4964C380.615 66.1459 380.747 65.8488 381.012 65.6052C381.277 65.3572 381.594 65.2333 381.961 65.2333C382.333 65.2333 382.649 65.3572 382.91 65.6052C383.175 65.8488 383.308 66.1459 383.308 66.4964C383.308 66.8427 383.175 67.1398 382.91 67.3877C382.649 67.6314 382.333 67.7532 381.961 67.7532ZM388.336 79.1988C387.712 79.1988 387.15 79.0876 386.65 78.8653C386.154 78.6388 385.761 78.3054 385.47 77.8651C385.184 77.4248 385.041 76.8819 385.041 76.2364C385.041 75.6807 385.143 75.2211 385.348 74.8578C385.554 74.4944 385.834 74.2038 386.188 73.9858C386.543 73.7677 386.943 73.6032 387.387 73.492C387.836 73.3766 388.3 73.2932 388.779 73.242C389.356 73.1821 389.824 73.1287 390.183 73.0817C390.542 73.0304 390.803 72.9534 390.965 72.8508C391.132 72.7439 391.215 72.5794 391.215 72.3571V72.3186C391.215 71.8356 391.072 71.4615 390.786 71.1965C390.499 70.9315 390.087 70.799 389.548 70.799C388.98 70.799 388.529 70.9229 388.195 71.1709C387.866 71.4188 387.644 71.7116 387.528 72.0493L385.361 71.7415C385.532 71.1431 385.814 70.6429 386.208 70.2411C386.601 69.835 387.082 69.5315 387.65 69.3306C388.219 69.1254 388.847 69.0228 389.535 69.0228C390.01 69.0228 390.482 69.0784 390.952 69.1895C391.423 69.3007 391.852 69.4845 392.241 69.741C392.63 69.9932 392.942 70.3373 393.177 70.7733C393.417 71.2093 393.537 71.7544 393.537 72.4084V79H391.305V77.6471H391.228C391.087 77.9206 390.888 78.1771 390.632 78.4165C390.38 78.6516 390.061 78.8418 389.676 78.9872C389.296 79.1282 388.849 79.1988 388.336 79.1988ZM388.939 77.4932C389.405 77.4932 389.809 77.4013 390.151 77.2174C390.493 77.0294 390.756 76.7814 390.94 76.4736C391.128 76.1659 391.222 75.8303 391.222 75.4669V74.3064C391.149 74.3662 391.025 74.4218 390.85 74.4731C390.679 74.5244 390.487 74.5693 390.273 74.6077C390.059 74.6462 389.847 74.6804 389.638 74.7103C389.429 74.7402 389.247 74.7659 389.093 74.7873C388.747 74.8343 388.437 74.9112 388.163 75.0181C387.89 75.125 387.674 75.2746 387.516 75.4669C387.357 75.655 387.278 75.8987 387.278 76.1979C387.278 76.6254 387.434 76.9481 387.746 77.1661C388.058 77.3842 388.456 77.4932 388.939 77.4932ZM398.192 73.2291V79H395.871V69.151H398.089V70.8246H398.205C398.431 70.2732 398.792 69.835 399.288 69.5101C399.788 69.1852 400.406 69.0228 401.141 69.0228C401.821 69.0228 402.413 69.1681 402.917 69.4588C403.426 69.7495 403.819 70.1706 404.097 70.722C404.379 71.2734 404.518 71.9424 404.514 72.729V79H402.193V73.0881C402.193 72.4298 402.022 71.9147 401.68 71.5428C401.342 71.1709 400.874 70.9849 400.276 70.9849C399.87 70.9849 399.508 71.0747 399.192 71.2542C398.88 71.4295 398.634 71.6838 398.455 72.0172C398.279 72.3507 398.192 72.7546 398.192 73.2291ZM415.277 79.1924C414.379 79.1924 413.607 79.0299 412.962 78.705C412.316 78.3802 411.818 77.942 411.468 77.3906C411.122 76.8349 410.949 76.2086 410.949 75.5118C410.949 74.986 411.055 74.5201 411.269 74.114C411.487 73.7079 411.786 73.3317 412.167 72.9855C412.552 72.6392 412.996 72.2951 413.501 71.9531L415.828 70.3693C416.17 70.1471 416.429 69.9119 416.604 69.664C416.784 69.4161 416.873 69.1254 416.873 68.792C416.873 68.5098 416.754 68.2427 416.514 67.9905C416.279 67.7383 415.954 67.6121 415.54 67.6121C415.262 67.6121 415.016 67.6784 414.802 67.8109C414.593 67.9392 414.428 68.108 414.308 68.3175C414.193 68.5269 414.135 68.7492 414.135 68.9843C414.135 69.2707 414.214 69.5614 414.373 69.8564C414.535 70.1513 414.744 70.457 415.001 70.7733C415.262 71.0896 415.54 71.4252 415.835 71.78L421.997 79H419.483L414.366 73.1394C413.986 72.6948 413.618 72.2566 413.263 71.8249C412.913 71.3931 412.624 70.9443 412.398 70.4783C412.175 70.0081 412.064 69.4994 412.064 68.9523C412.064 68.3324 412.207 67.7789 412.494 67.2915C412.78 66.8 413.18 66.4131 413.693 66.131C414.21 65.8488 414.815 65.7078 415.508 65.7078C416.2 65.7078 416.794 65.8446 417.29 66.1181C417.786 66.3917 418.169 66.7551 418.438 67.2082C418.707 67.6613 418.842 68.155 418.842 68.6894C418.842 69.3092 418.688 69.8649 418.38 70.3565C418.072 70.8438 417.645 71.2863 417.098 71.6838L414.443 73.6267C414.007 73.943 413.695 74.2636 413.507 74.5885C413.319 74.9091 413.225 75.1827 413.225 75.4092C413.225 75.7555 413.312 76.0697 413.488 76.3518C413.663 76.6339 413.909 76.8605 414.225 77.0315C414.546 77.1982 414.92 77.2816 415.347 77.2816C415.817 77.2816 416.281 77.1768 416.739 76.9674C417.196 76.7536 417.613 76.4501 417.989 76.0569C418.365 75.6636 418.664 75.1934 418.887 74.6462C419.109 74.0948 419.22 73.4835 419.22 72.8123H421.214C421.214 73.6416 421.122 74.3641 420.939 74.9796C420.755 75.5909 420.517 76.1082 420.227 76.5313C419.936 76.9503 419.628 77.2858 419.303 77.538C419.201 77.6107 419.103 77.6834 419.009 77.7561C418.914 77.8287 418.816 77.9014 418.714 77.9741C418.252 78.393 417.711 78.7008 417.091 78.8974C416.476 79.094 415.871 79.1924 415.277 79.1924ZM439.147 70.2988H436.749C436.681 69.9055 436.555 69.5571 436.371 69.2536C436.187 68.9459 435.958 68.6851 435.685 68.4714C435.411 68.2576 435.099 68.0973 434.749 67.9905C434.402 67.8793 434.028 67.8237 433.626 67.8237C432.913 67.8237 432.28 68.0033 431.728 68.3624C431.177 68.7172 430.745 69.2387 430.433 69.9269C430.121 70.6109 429.965 71.4466 429.965 72.434C429.965 73.4386 430.121 74.285 430.433 74.9732C430.75 75.6572 431.181 76.1744 431.728 76.5249C432.28 76.8712 432.91 77.0443 433.62 77.0443C434.013 77.0443 434.381 76.993 434.723 76.8904C435.069 76.7836 435.379 76.6275 435.653 76.4223C435.931 76.2172 436.163 75.9649 436.352 75.6657C436.544 75.3665 436.676 75.0245 436.749 74.6398L439.147 74.6526C439.057 75.2767 438.863 75.8624 438.564 76.4095C438.269 76.9567 437.882 77.4397 437.403 77.8587C436.924 78.2733 436.364 78.5982 435.723 78.8333C435.082 79.0641 434.37 79.1795 433.588 79.1795C432.434 79.1795 431.404 78.9124 430.497 78.378C429.591 77.8437 428.877 77.0721 428.356 76.0633C427.834 75.0544 427.573 73.8447 427.573 72.434C427.573 71.0191 427.836 69.8094 428.362 68.8048C428.888 67.796 429.604 67.0244 430.51 66.49C431.416 65.9557 432.442 65.6885 433.588 65.6885C434.319 65.6885 434.999 65.7911 435.627 65.9963C436.255 66.2015 436.815 66.5029 437.307 66.9004C437.799 67.2937 438.203 67.7767 438.519 68.3495C438.839 68.9181 439.049 69.5678 439.147 70.2988ZM445.519 79.1924C444.557 79.1924 443.724 78.9808 443.019 78.5576C442.313 78.1344 441.766 77.5423 441.377 76.7814C440.992 76.0205 440.8 75.1314 440.8 74.114C440.8 73.0966 440.992 72.2053 441.377 71.4402C441.766 70.675 442.313 70.0808 443.019 69.6576C443.724 69.2344 444.557 69.0228 445.519 69.0228C446.481 69.0228 447.315 69.2344 448.02 69.6576C448.725 70.0808 449.27 70.675 449.655 71.4402C450.044 72.2053 450.239 73.0966 450.239 74.114C450.239 75.1314 450.044 76.0205 449.655 76.7814C449.27 77.5423 448.725 78.1344 448.02 78.5576C447.315 78.9808 446.481 79.1924 445.519 79.1924ZM445.532 77.3329C446.054 77.3329 446.49 77.1897 446.84 76.9033C447.191 76.6126 447.451 76.2236 447.622 75.7363C447.798 75.2489 447.885 74.706 447.885 74.1076C447.885 73.5048 447.798 72.9598 447.622 72.4725C447.451 71.9809 447.191 71.5898 446.84 71.2991C446.49 71.0084 446.054 70.8631 445.532 70.8631C444.998 70.8631 444.553 71.0084 444.198 71.2991C443.848 71.5898 443.585 71.9809 443.41 72.4725C443.239 72.9598 443.153 73.5048 443.153 74.1076C443.153 74.706 443.239 75.2489 443.41 75.7363C443.585 76.2236 443.848 76.6126 444.198 76.9033C444.553 77.1897 444.998 77.3329 445.532 77.3329ZM452.209 79V69.151H454.427V70.8246H454.543C454.748 70.2603 455.088 69.82 455.562 69.5037C456.037 69.1831 456.603 69.0228 457.261 69.0228C457.928 69.0228 458.49 69.1852 458.948 69.5101C459.409 69.8307 459.734 70.2689 459.922 70.8246H460.025C460.243 70.2774 460.611 69.8414 461.128 69.5165C461.649 69.1874 462.267 69.0228 462.981 69.0228C463.887 69.0228 464.627 69.3092 465.2 69.882C465.772 70.4548 466.059 71.2905 466.059 72.3891V79H463.731V72.7482C463.731 72.1369 463.569 71.6902 463.244 71.4081C462.919 71.1217 462.521 70.9785 462.051 70.9785C461.491 70.9785 461.053 71.1538 460.737 71.5043C460.425 71.8505 460.269 72.3015 460.269 72.8572V79H457.992V72.652C457.992 72.1434 457.838 71.7373 457.531 71.4337C457.227 71.1302 456.83 70.9785 456.338 70.9785C456.005 70.9785 455.701 71.064 455.428 71.235C455.154 71.4017 454.936 71.6389 454.773 71.9467C454.611 72.2502 454.53 72.605 454.53 73.0111V79H452.209ZM468.414 82.6934V69.151H470.696V70.7797H470.831C470.951 70.5403 471.119 70.286 471.338 70.0167C471.556 69.7431 471.85 69.5101 472.222 69.3178C472.594 69.1211 473.069 69.0228 473.646 69.0228C474.407 69.0228 475.093 69.2173 475.704 69.6063C476.32 69.991 476.807 70.5617 477.166 71.3183C477.529 72.0707 477.711 72.994 477.711 74.0883C477.711 75.1699 477.534 76.0889 477.179 76.8455C476.824 77.6022 476.341 78.1793 475.73 78.5768C475.118 78.9744 474.426 79.1731 473.652 79.1731C473.088 79.1731 472.62 79.0791 472.248 78.891C471.876 78.7029 471.577 78.4763 471.35 78.2113C471.128 77.942 470.955 77.6877 470.831 77.4483H470.735V82.6934H468.414ZM470.69 74.0755C470.69 74.7125 470.78 75.2703 470.959 75.7491C471.143 76.2278 471.406 76.6019 471.748 76.8712C472.094 77.1362 472.513 77.2687 473.005 77.2687C473.518 77.2687 473.947 77.1319 474.293 76.8584C474.64 76.5805 474.9 76.2022 475.076 75.7234C475.255 75.2404 475.345 74.6911 475.345 74.0755C475.345 73.4642 475.257 72.9213 475.082 72.4469C474.907 71.9724 474.646 71.6005 474.3 71.3312C473.954 71.0618 473.522 70.9272 473.005 70.9272C472.509 70.9272 472.088 71.0576 471.741 71.3183C471.395 71.5791 471.132 71.9446 470.953 72.4148C470.778 72.885 470.69 73.4386 470.69 74.0755ZM482.533 79.1988C481.909 79.1988 481.347 79.0876 480.847 78.8653C480.351 78.6388 479.957 78.3054 479.667 77.8651C479.38 77.4248 479.237 76.8819 479.237 76.2364C479.237 75.6807 479.34 75.2211 479.545 74.8578C479.75 74.4944 480.03 74.2038 480.385 73.9858C480.74 73.7677 481.139 73.6032 481.584 73.492C482.033 73.3766 482.497 73.2932 482.975 73.242C483.553 73.1821 484.021 73.1287 484.38 73.0817C484.739 73.0304 485 72.9534 485.162 72.8508C485.329 72.7439 485.412 72.5794 485.412 72.3571V72.3186C485.412 71.8356 485.269 71.4615 484.982 71.1965C484.696 70.9315 484.284 70.799 483.745 70.799C483.176 70.799 482.725 70.9229 482.392 71.1709C482.063 71.4188 481.841 71.7116 481.725 72.0493L479.558 71.7415C479.729 71.1431 480.011 70.6429 480.404 70.2411C480.797 69.835 481.278 69.5315 481.847 69.3306C482.415 69.1254 483.044 69.0228 483.732 69.0228C484.207 69.0228 484.679 69.0784 485.149 69.1895C485.619 69.3007 486.049 69.4845 486.438 69.741C486.827 69.9932 487.139 70.3373 487.374 70.7733C487.614 71.2093 487.733 71.7544 487.733 72.4084V79H485.502V77.6471H485.425C485.284 77.9206 485.085 78.1771 484.829 78.4165C484.576 78.6516 484.258 78.8418 483.873 78.9872C483.493 79.1282 483.046 79.1988 482.533 79.1988ZM483.136 77.4932C483.602 77.4932 484.006 77.4013 484.348 77.2174C484.69 77.0294 484.953 76.7814 485.136 76.4736C485.324 76.1659 485.418 75.8303 485.418 75.4669V74.3064C485.346 74.3662 485.222 74.4218 485.047 74.4731C484.876 74.5244 484.683 74.5693 484.469 74.6077C484.256 74.6462 484.044 74.6804 483.835 74.7103C483.625 74.7402 483.444 74.7659 483.29 74.7873C482.943 74.8343 482.633 74.9112 482.36 75.0181C482.086 75.125 481.87 75.2746 481.712 75.4669C481.554 75.655 481.475 75.8987 481.475 76.1979C481.475 76.6254 481.631 76.9481 481.943 77.1661C482.255 77.3842 482.653 77.4932 483.136 77.4932ZM497.851 71.7544L495.735 71.9852C495.676 71.7714 495.571 71.5705 495.421 71.3825C495.276 71.1944 495.079 71.0426 494.831 70.9272C494.583 70.8118 494.28 70.7541 493.921 70.7541C493.438 70.7541 493.032 70.8588 492.703 71.0683C492.378 71.2777 492.217 71.5492 492.222 71.8826C492.217 72.169 492.322 72.402 492.536 72.5815C492.754 72.761 493.113 72.9085 493.613 73.0239L495.293 73.383C496.225 73.5839 496.917 73.9024 497.371 74.3384C497.828 74.7744 498.059 75.3451 498.063 76.0504C498.059 76.6703 497.877 77.2174 497.518 77.6919C497.163 78.1622 496.669 78.5298 496.037 78.7948C495.404 79.0598 494.677 79.1924 493.857 79.1924C492.651 79.1924 491.681 78.9402 490.946 78.4357C490.21 77.927 489.772 77.2196 489.631 76.3133L491.895 76.0953C491.997 76.5399 492.215 76.8755 492.549 77.102C492.882 77.3286 493.316 77.4419 493.85 77.4419C494.402 77.4419 494.844 77.3286 495.178 77.102C495.515 76.8755 495.684 76.5955 495.684 76.262C495.684 75.9799 495.575 75.7469 495.357 75.5631C495.143 75.3793 494.81 75.2382 494.357 75.1399L492.677 74.7873C491.732 74.5906 491.033 74.2593 490.58 73.7934C490.127 73.3232 489.903 72.729 489.907 72.0108C489.903 71.4038 490.067 70.878 490.401 70.4335C490.738 69.9846 491.206 69.6384 491.805 69.3947C492.408 69.1468 493.102 69.0228 493.889 69.0228C495.043 69.0228 495.951 69.2686 496.614 69.7602C497.281 70.2518 497.693 70.9165 497.851 71.7544ZM507.761 71.7544L505.645 71.9852C505.586 71.7714 505.481 71.5705 505.331 71.3825C505.186 71.1944 504.989 71.0426 504.741 70.9272C504.493 70.8118 504.19 70.7541 503.831 70.7541C503.348 70.7541 502.942 70.8588 502.612 71.0683C502.288 71.2777 502.127 71.5492 502.132 71.8826C502.127 72.169 502.232 72.402 502.446 72.5815C502.664 72.761 503.023 72.9085 503.523 73.0239L505.203 73.383C506.135 73.5839 506.827 73.9024 507.28 74.3384C507.738 74.7744 507.969 75.3451 507.973 76.0504C507.969 76.6703 507.787 77.2174 507.428 77.6919C507.073 78.1622 506.579 78.5298 505.947 78.7948C505.314 79.0598 504.587 79.1924 503.767 79.1924C502.561 79.1924 501.591 78.9402 500.856 78.4357C500.12 77.927 499.682 77.2196 499.541 76.3133L501.805 76.0953C501.907 76.5399 502.125 76.8755 502.459 77.102C502.792 77.3286 503.226 77.4419 503.76 77.4419C504.312 77.4419 504.754 77.3286 505.087 77.102C505.425 76.8755 505.594 76.5955 505.594 76.262C505.594 75.9799 505.485 75.7469 505.267 75.5631C505.053 75.3793 504.72 75.2382 504.267 75.1399L502.587 74.7873C501.642 74.5906 500.943 74.2593 500.49 73.7934C500.037 73.3232 499.812 72.729 499.817 72.0108C499.812 71.4038 499.977 70.878 500.31 70.4335C500.648 69.9846 501.116 69.6384 501.715 69.3947C502.317 69.1468 503.012 69.0228 503.799 69.0228C504.953 69.0228 505.861 69.2686 506.524 69.7602C507.191 70.2518 507.603 70.9165 507.761 71.7544ZM509.887 79V69.151H512.208V79H509.887ZM511.054 67.7532C510.686 67.7532 510.37 67.6314 510.105 67.3877C509.84 67.1398 509.707 66.8427 509.707 66.4964C509.707 66.1459 509.84 65.8488 510.105 65.6052C510.37 65.3572 510.686 65.2333 511.054 65.2333C511.426 65.2333 511.742 65.3572 512.003 65.6052C512.268 65.8488 512.4 66.1459 512.4 66.4964C512.4 66.8427 512.268 67.1398 512.003 67.3877C511.742 67.6314 511.426 67.7532 511.054 67.7532ZM518.891 79.1924C517.929 79.1924 517.096 78.9808 516.39 78.5576C515.685 78.1344 515.138 77.5423 514.749 76.7814C514.364 76.0205 514.172 75.1314 514.172 74.114C514.172 73.0966 514.364 72.2053 514.749 71.4402C515.138 70.675 515.685 70.0808 516.39 69.6576C517.096 69.2344 517.929 69.0228 518.891 69.0228C519.853 69.0228 520.686 69.2344 521.392 69.6576C522.097 70.0808 522.642 70.675 523.027 71.4402C523.416 72.2053 523.61 73.0966 523.61 74.114C523.61 75.1314 523.416 76.0205 523.027 76.7814C522.642 77.5423 522.097 78.1344 521.392 78.5576C520.686 78.9808 519.853 79.1924 518.891 79.1924ZM518.904 77.3329C519.425 77.3329 519.861 77.1897 520.212 76.9033C520.562 76.6126 520.823 76.2236 520.994 75.7363C521.17 75.2489 521.257 74.706 521.257 74.1076C521.257 73.5048 521.17 72.9598 520.994 72.4725C520.823 71.9809 520.562 71.5898 520.212 71.2991C519.861 71.0084 519.425 70.8631 518.904 70.8631C518.37 70.8631 517.925 71.0084 517.57 71.2991C517.22 71.5898 516.957 71.9809 516.782 72.4725C516.611 72.9598 516.525 73.5048 516.525 74.1076C516.525 74.706 516.611 75.2489 516.782 75.7363C516.957 76.2236 517.22 76.6126 517.57 76.9033C517.925 77.1897 518.37 77.3329 518.904 77.3329ZM527.902 73.2291V79H525.58V69.151H527.799V70.8246H527.914C528.141 70.2732 528.502 69.835 528.998 69.5101C529.498 69.1852 530.116 69.0228 530.851 69.0228C531.531 69.0228 532.123 69.1681 532.627 69.4588C533.136 69.7495 533.529 70.1706 533.807 70.722C534.089 71.2734 534.228 71.9424 534.224 72.729V79H531.903V73.0881C531.903 72.4298 531.732 71.9147 531.39 71.5428C531.052 71.1709 530.584 70.9849 529.986 70.9849C529.579 70.9849 529.218 71.0747 528.902 71.2542C528.59 71.4295 528.344 71.6838 528.165 72.0172C527.989 72.3507 527.902 72.7546 527.902 73.2291ZM539.418 79.1988C538.794 79.1988 538.232 79.0876 537.731 78.8653C537.236 78.6388 536.842 78.3054 536.552 77.8651C536.265 77.4248 536.122 76.8819 536.122 76.2364C536.122 75.6807 536.225 75.2211 536.43 74.8578C536.635 74.4944 536.915 74.2038 537.27 73.9858C537.625 73.7677 538.024 73.6032 538.469 73.492C538.918 73.3766 539.381 73.2932 539.86 73.242C540.437 73.1821 540.905 73.1287 541.264 73.0817C541.624 73.0304 541.884 72.9534 542.047 72.8508C542.213 72.7439 542.297 72.5794 542.297 72.3571V72.3186C542.297 71.8356 542.154 71.4615 541.867 71.1965C541.581 70.9315 541.168 70.799 540.63 70.799C540.061 70.799 539.61 70.9229 539.277 71.1709C538.948 71.4188 538.725 71.7116 538.61 72.0493L536.443 71.7415C536.614 71.1431 536.896 70.6429 537.289 70.2411C537.682 69.835 538.163 69.5315 538.732 69.3306C539.3 69.1254 539.929 69.0228 540.617 69.0228C541.091 69.0228 541.564 69.0784 542.034 69.1895C542.504 69.3007 542.934 69.4845 543.323 69.741C543.712 69.9932 544.024 70.3373 544.259 70.7733C544.498 71.2093 544.618 71.7544 544.618 72.4084V79H542.387V77.6471H542.31C542.169 77.9206 541.97 78.1771 541.713 78.4165C541.461 78.6516 541.143 78.8418 540.758 78.9872C540.377 79.1282 539.931 79.1988 539.418 79.1988ZM540.021 77.4932C540.486 77.4932 540.89 77.4013 541.232 77.2174C541.574 77.0294 541.837 76.7814 542.021 76.4736C542.209 76.1659 542.303 75.8303 542.303 75.4669V74.3064C542.231 74.3662 542.107 74.4218 541.931 74.4731C541.76 74.5244 541.568 74.5693 541.354 74.6077C541.14 74.6462 540.929 74.6804 540.719 74.7103C540.51 74.7402 540.328 74.7659 540.174 74.7873C539.828 74.8343 539.518 74.9112 539.245 75.0181C538.971 75.125 538.755 75.2746 538.597 75.4669C538.439 75.655 538.36 75.8987 538.36 76.1979C538.36 76.6254 538.516 76.9481 538.828 77.1661C539.14 77.3842 539.537 77.4932 540.021 77.4932ZM551.87 69.151V70.9464H546.208V69.151H551.87ZM547.606 66.7914H549.927V76.0376C549.927 76.3497 549.974 76.5891 550.068 76.7558C550.167 76.9182 550.295 77.0294 550.453 77.0892C550.611 77.149 550.786 77.179 550.979 77.179C551.124 77.179 551.257 77.1683 551.376 77.1469C551.5 77.1255 551.594 77.1063 551.658 77.0892L552.05 78.9038C551.926 78.9466 551.748 78.9936 551.517 79.0449C551.291 79.0962 551.013 79.1261 550.684 79.1347C550.102 79.1518 549.579 79.0641 549.113 78.8718C548.647 78.6751 548.277 78.3716 548.004 77.9612C547.734 77.5509 547.602 77.0379 547.606 76.4223V66.7914ZM558.066 79.1924C557.078 79.1924 556.225 78.9872 555.507 78.5768C554.793 78.1622 554.244 77.5765 553.859 76.8199C553.475 76.059 553.282 75.1634 553.282 74.1332C553.282 73.1201 553.475 72.231 553.859 71.4658C554.248 70.6964 554.791 70.0979 555.488 69.6704C556.185 69.2387 557.003 69.0228 557.944 69.0228C558.551 69.0228 559.124 69.1211 559.662 69.3178C560.205 69.5101 560.684 69.8094 561.099 70.2155C561.518 70.6216 561.847 71.1388 562.086 71.7672C562.325 72.3913 562.445 73.1351 562.445 73.9986V74.7103H554.372V73.1458H560.22C560.216 72.7012 560.12 72.3058 559.932 71.9595C559.744 71.609 559.481 71.3333 559.143 71.1324C558.809 70.9315 558.42 70.831 557.976 70.831C557.501 70.831 557.085 70.9464 556.726 71.1773C556.366 71.4038 556.086 71.7031 555.886 72.075C555.689 72.4426 555.588 72.8465 555.584 73.2868V74.6526C555.584 75.2254 555.689 75.717 555.898 76.1274C556.108 76.5335 556.401 76.8455 556.777 77.0636C557.153 77.2773 557.593 77.3842 558.098 77.3842C558.435 77.3842 558.741 77.3371 559.015 77.2431C559.288 77.1448 559.525 77.0016 559.726 76.8135C559.927 76.6254 560.079 76.3924 560.182 76.1146L562.349 76.3582C562.212 76.931 561.951 77.4312 561.567 77.8587C561.186 78.2818 560.699 78.611 560.105 78.8461C559.511 79.0769 558.831 79.1924 558.066 79.1924Z" fill="white"/>
<path d="M281.549 73.5303C281.842 73.2374 281.842 72.7626 281.549 72.4697L276.776 67.6967C276.483 67.4038 276.009 67.4038 275.716 67.6967C275.423 67.9896 275.423 68.4645 275.716 68.7574L279.958 73L275.716 77.2426C275.423 77.5355 275.423 78.0104 275.716 78.3033C276.009 78.5962 276.483 78.5962 276.776 78.3033L281.549 73.5303ZM280 73V73.75H281.019V73V72.25H280V73Z" fill="white"/>
</svg>
