<svg width="487" height="117" viewBox="0 0 487 117" fill="none" xmlns="http://www.w3.org/2000/svg">
<g filter="url(#filter0_d_160_334)">
<rect x="14.7485" width="457" height="81.8996" rx="4.02229" fill="white"/>
</g>
<path opacity="0.88" d="M75.3924 47.7598L72.3665 37.0384H74.4553L76.3871 44.9171H76.4865L78.5492 37.0384H80.4495L82.5173 44.9224H82.6116L84.5433 37.0384H86.6321L83.6062 47.7598H81.6902L79.5438 40.237H79.4601L77.3084 47.7598H75.3924ZM89.7901 43.0482V47.7598H87.895V37.0384H89.7483V41.0851H89.8425C90.0309 40.6314 90.3224 40.2736 90.7167 40.0119C91.1146 39.7466 91.6207 39.614 92.2349 39.614C92.7933 39.614 93.2802 39.7309 93.6955 39.9648C94.1108 40.1986 94.4319 40.5406 94.6587 40.9908C94.8891 41.441 95.0043 41.9907 95.0043 42.6399V47.7598H93.1092V42.933C93.1092 42.3921 92.9696 41.9715 92.6904 41.6714C92.4146 41.3678 92.0273 41.2159 91.5282 41.2159C91.1931 41.2159 90.893 41.2892 90.6277 41.4358C90.366 41.5789 90.1601 41.7866 90.01 42.0588C89.8634 42.331 89.7901 42.6608 89.7901 43.0482ZM99.2499 47.9221C98.7403 47.9221 98.2814 47.8313 97.8731 47.6498C97.4682 47.4649 97.1471 47.1926 96.9098 46.8332C96.676 46.4737 96.5591 46.0305 96.5591 45.5035C96.5591 45.0497 96.6428 44.6746 96.8104 44.3779C96.9779 44.0813 97.2065 43.8439 97.4961 43.6659C97.7858 43.488 98.1121 43.3536 98.4751 43.2628C98.8416 43.1686 99.2202 43.1006 99.6111 43.0587C100.082 43.0098 100.464 42.9662 100.758 42.9278C101.051 42.8859 101.264 42.8231 101.396 42.7393C101.532 42.6521 101.6 42.5177 101.6 42.3362V42.3048C101.6 41.9105 101.484 41.6051 101.25 41.3887C101.016 41.1723 100.679 41.0641 100.239 41.0641C99.7751 41.0641 99.4069 41.1653 99.1347 41.3678C98.866 41.5702 98.6845 41.8092 98.5903 42.085L96.8208 41.8337C96.9604 41.3451 97.1908 40.9367 97.5119 40.6087C97.8329 40.2771 98.2256 40.0293 98.6897 39.8653C99.1539 39.6978 99.667 39.614 100.229 39.614C100.616 39.614 101.002 39.6594 101.386 39.7501C101.77 39.8409 102.12 39.9909 102.438 40.2003C102.756 40.4062 103.01 40.6872 103.202 41.0432C103.398 41.3992 103.496 41.8441 103.496 42.3781V47.7598H101.674V46.6552H101.611C101.496 46.8785 101.333 47.0879 101.124 47.2834C100.918 47.4753 100.658 47.6306 100.344 47.7493C100.033 47.8645 99.6687 47.9221 99.2499 47.9221ZM99.742 46.5295C100.122 46.5295 100.452 46.4545 100.731 46.3044C101.011 46.1509 101.225 45.9484 101.375 45.6972C101.529 45.4459 101.606 45.1719 101.606 44.8752V43.9277C101.546 43.9766 101.445 44.0219 101.302 44.0638C101.162 44.1057 101.005 44.1423 100.831 44.1737C100.656 44.2052 100.484 44.2331 100.313 44.2575C100.142 44.2819 99.9933 44.3029 99.8676 44.3203C99.5849 44.3587 99.3319 44.4215 99.1085 44.5088C98.8852 44.596 98.7089 44.7182 98.5798 44.8752C98.4507 45.0288 98.3861 45.2277 98.3861 45.472C98.3861 45.821 98.5135 46.0845 98.7683 46.2625C99.023 46.4405 99.3476 46.5295 99.742 46.5295ZM109.416 39.7187V41.1845H104.794V39.7187H109.416ZM105.935 37.7922H107.83V45.3412C107.83 45.5959 107.869 45.7914 107.945 45.9275C108.026 46.0601 108.13 46.1509 108.259 46.1997C108.389 46.2486 108.532 46.273 108.689 46.273C108.807 46.273 108.916 46.2643 109.013 46.2468C109.114 46.2294 109.191 46.2137 109.244 46.1997L109.563 47.6812C109.462 47.7161 109.317 47.7545 109.128 47.7964C108.943 47.8383 108.717 47.8627 108.448 47.8697C107.973 47.8837 107.546 47.8121 107.165 47.6551C106.785 47.4945 106.483 47.2467 106.26 46.9117C106.04 46.5766 105.932 46.1578 105.935 45.6553V37.7922ZM114.658 47.7598V39.7187H116.553V47.7598H114.658ZM115.611 38.5775C115.311 38.5775 115.052 38.478 114.836 38.2791C114.62 38.0766 114.511 37.8341 114.511 37.5514C114.511 37.2652 114.62 37.0227 114.836 36.8237C115.052 36.6213 115.311 36.5201 115.611 36.5201C115.914 36.5201 116.173 36.6213 116.386 36.8237C116.602 37.0227 116.71 37.2652 116.71 37.5514C116.71 37.8341 116.602 38.0766 116.386 38.2791C116.173 38.478 115.914 38.5775 115.611 38.5775ZM118.502 47.7598V39.7187H120.313V41.0851H120.407C120.575 40.6244 120.852 40.2649 121.24 40.0066C121.627 39.7449 122.09 39.614 122.627 39.614C123.172 39.614 123.63 39.7466 124.004 40.0119C124.381 40.2736 124.646 40.6314 124.8 41.0851H124.883C125.061 40.6383 125.362 40.2824 125.784 40.0171C126.21 39.7484 126.714 39.614 127.297 39.614C128.037 39.614 128.64 39.8478 129.108 40.3155C129.576 40.7832 129.81 41.4655 129.81 42.3624V47.7598H127.909V42.6556C127.909 42.1565 127.777 41.7918 127.511 41.5615C127.246 41.3276 126.922 41.2107 126.538 41.2107C126.08 41.2107 125.723 41.3538 125.464 41.64C125.21 41.9227 125.082 42.2909 125.082 42.7446V47.7598H123.224V42.5771C123.224 42.1617 123.098 41.8302 122.847 41.5824C122.599 41.3346 122.275 41.2107 121.873 41.2107C121.601 41.2107 121.353 41.2805 121.13 41.4201C120.906 41.5562 120.728 41.7499 120.596 42.0012C120.463 42.249 120.397 42.5387 120.397 42.8702V47.7598H118.502ZM131.732 47.7598V39.7187H133.543V41.0851H133.638C133.805 40.6244 134.083 40.2649 134.47 40.0066C134.857 39.7449 135.32 39.614 135.857 39.614C136.402 39.614 136.861 39.7466 137.234 40.0119C137.611 40.2736 137.876 40.6314 138.03 41.0851H138.114C138.292 40.6383 138.592 40.2824 139.014 40.0171C139.44 39.7484 139.944 39.614 140.527 39.614C141.267 39.614 141.871 39.8478 142.338 40.3155C142.806 40.7832 143.04 41.4655 143.04 42.3624V47.7598H141.14V42.6556C141.14 42.1565 141.007 41.7918 140.742 41.5615C140.476 41.3276 140.152 41.2107 139.768 41.2107C139.311 41.2107 138.953 41.3538 138.695 41.64C138.44 41.9227 138.313 42.2909 138.313 42.7446V47.7598H136.454V42.5771C136.454 42.1617 136.329 41.8302 136.077 41.5824C135.829 41.3346 135.505 41.2107 135.104 41.2107C134.831 41.2107 134.584 41.2805 134.36 41.4201C134.137 41.5562 133.959 41.7499 133.826 42.0012C133.694 42.249 133.627 42.5387 133.627 42.8702V47.7598H131.732ZM144.962 47.7598V39.7187H146.858V47.7598H144.962ZM145.915 38.5775C145.615 38.5775 145.357 38.478 145.14 38.2791C144.924 38.0766 144.816 37.8341 144.816 37.5514C144.816 37.2652 144.924 37.0227 145.14 36.8237C145.357 36.6213 145.615 36.5201 145.915 36.5201C146.219 36.5201 146.477 36.6213 146.69 36.8237C146.906 37.0227 147.015 37.2652 147.015 37.5514C147.015 37.8341 146.906 38.0766 146.69 38.2791C146.477 38.478 146.219 38.5775 145.915 38.5775ZM152.303 50.9427C151.623 50.9427 151.038 50.8502 150.55 50.6652C150.061 50.4837 149.668 50.2394 149.372 49.9323C149.075 49.6252 148.869 49.2849 148.754 48.9115L150.461 48.4979C150.537 48.655 150.649 48.8103 150.796 48.9638C150.942 49.1209 151.139 49.25 151.387 49.3512C151.638 49.4559 151.954 49.5083 152.335 49.5083C152.872 49.5083 153.317 49.3774 153.67 49.1156C154.022 48.8574 154.198 48.4316 154.198 47.8383V46.3149H154.104C154.006 46.5103 153.863 46.711 153.675 46.9169C153.49 47.1228 153.244 47.2956 152.937 47.4352C152.633 47.5748 152.251 47.6446 151.79 47.6446C151.173 47.6446 150.612 47.4998 150.11 47.2101C149.611 46.9169 149.213 46.4807 148.916 45.9013C148.623 45.3185 148.476 44.5891 148.476 43.7131C148.476 42.8301 148.623 42.085 148.916 41.4777C149.213 40.8669 149.613 40.4045 150.115 40.0904C150.618 39.7728 151.178 39.614 151.796 39.614C152.267 39.614 152.654 39.6943 152.958 39.8548C153.265 40.0119 153.509 40.2021 153.691 40.4254C153.872 40.6453 154.01 40.853 154.104 41.0484H154.209V39.7187H156.078V47.8906C156.078 48.5782 155.914 49.1471 155.586 49.5973C155.258 50.0475 154.809 50.3843 154.24 50.6076C153.671 50.831 153.026 50.9427 152.303 50.9427ZM152.319 46.1578C152.72 46.1578 153.062 46.0601 153.345 45.8647C153.628 45.6692 153.842 45.3883 153.989 45.0218C154.136 44.6554 154.209 44.2156 154.209 43.7026C154.209 43.1965 154.136 42.7533 153.989 42.3729C153.846 41.9925 153.633 41.6976 153.35 41.4882C153.071 41.2753 152.727 41.1688 152.319 41.1688C151.897 41.1688 151.544 41.2788 151.262 41.4986C150.979 41.7185 150.766 42.0204 150.623 42.4043C150.48 42.7847 150.408 43.2175 150.408 43.7026C150.408 44.1947 150.48 44.6257 150.623 44.9957C150.769 45.3621 150.984 45.6483 151.267 45.8542C151.553 46.0566 151.904 46.1578 152.319 46.1578ZM158.02 47.7598V39.7187H159.858V41.0589H159.941C160.088 40.5947 160.339 40.237 160.695 39.9857C161.055 39.7309 161.465 39.6035 161.925 39.6035C162.03 39.6035 162.147 39.6088 162.276 39.6192C162.409 39.6262 162.519 39.6384 162.606 39.6559V41.3992C162.526 41.3712 162.398 41.3468 162.224 41.3259C162.053 41.3014 161.887 41.2892 161.726 41.2892C161.381 41.2892 161.07 41.3643 160.795 41.5143C160.522 41.6609 160.308 41.8651 160.151 42.1268C159.994 42.3886 159.915 42.6905 159.915 43.0325V47.7598H158.02ZM166.035 47.9221C165.525 47.9221 165.066 47.8313 164.658 47.6498C164.253 47.4649 163.932 47.1926 163.695 46.8332C163.461 46.4737 163.344 46.0305 163.344 45.5035C163.344 45.0497 163.428 44.6746 163.595 44.3779C163.763 44.0813 163.991 43.8439 164.281 43.6659C164.571 43.488 164.897 43.3536 165.26 43.2628C165.627 43.1686 166.005 43.1006 166.396 43.0587C166.867 43.0098 167.249 42.9662 167.543 42.9278C167.836 42.8859 168.049 42.8231 168.181 42.7393C168.317 42.6521 168.385 42.5177 168.385 42.3362V42.3048C168.385 41.9105 168.269 41.6051 168.035 41.3887C167.801 41.1723 167.464 41.0641 167.024 41.0641C166.56 41.0641 166.192 41.1653 165.92 41.3678C165.651 41.5702 165.47 41.8092 165.375 42.085L163.606 41.8337C163.745 41.3451 163.976 40.9367 164.297 40.6087C164.618 40.2771 165.011 40.0293 165.475 39.8653C165.939 39.6978 166.452 39.614 167.014 39.614C167.401 39.614 167.787 39.6594 168.171 39.7501C168.555 39.8409 168.905 39.9909 169.223 40.2003C169.541 40.4062 169.795 40.6872 169.987 41.0432C170.183 41.3992 170.281 41.8441 170.281 42.3781V47.7598H168.459V46.6552H168.396C168.281 46.8785 168.118 47.0879 167.909 47.2834C167.703 47.4753 167.443 47.6306 167.129 47.7493C166.818 47.8645 166.454 47.9221 166.035 47.9221ZM166.527 46.5295C166.907 46.5295 167.237 46.4545 167.516 46.3044C167.796 46.1509 168.01 45.9484 168.16 45.6972C168.314 45.4459 168.391 45.1719 168.391 44.8752V43.9277C168.331 43.9766 168.23 44.0219 168.087 44.0638C167.947 44.1057 167.79 44.1423 167.616 44.1737C167.441 44.2052 167.269 44.2331 167.098 44.2575C166.927 44.2819 166.778 44.3029 166.653 44.3203C166.37 44.3587 166.117 44.4215 165.894 44.5088C165.67 44.596 165.494 44.7182 165.365 44.8752C165.236 45.0288 165.171 45.2277 165.171 45.472C165.171 45.821 165.298 46.0845 165.553 46.2625C165.808 46.4405 166.133 46.5295 166.527 46.5295ZM176.201 39.7187V41.1845H171.579V39.7187H176.201ZM172.72 37.7922H174.615V45.3412C174.615 45.5959 174.654 45.7914 174.73 45.9275C174.811 46.0601 174.915 46.1509 175.044 46.1997C175.174 46.2486 175.317 46.273 175.474 46.273C175.592 46.273 175.701 46.2643 175.798 46.2468C175.899 46.2294 175.976 46.2137 176.029 46.1997L176.348 47.6812C176.247 47.7161 176.102 47.7545 175.913 47.7964C175.728 47.8383 175.502 47.8627 175.233 47.8697C174.758 47.8837 174.331 47.8121 173.95 47.6551C173.57 47.4945 173.268 47.2467 173.045 46.9117C172.825 46.5766 172.717 46.1578 172.72 45.6553V37.7922ZM177.786 47.7598V39.7187H179.681V47.7598H177.786ZM178.739 38.5775C178.439 38.5775 178.181 38.478 177.964 38.2791C177.748 38.0766 177.64 37.8341 177.64 37.5514C177.64 37.2652 177.748 37.0227 177.964 36.8237C178.181 36.6213 178.439 36.5201 178.739 36.5201C179.043 36.5201 179.301 36.6213 179.514 36.8237C179.73 37.0227 179.838 37.2652 179.838 37.5514C179.838 37.8341 179.73 38.0766 179.514 38.2791C179.301 38.478 179.043 38.5775 178.739 38.5775ZM185.138 47.9168C184.352 47.9168 183.672 47.7441 183.096 47.3985C182.52 47.053 182.073 46.5697 181.756 45.9484C181.442 45.3272 181.285 44.6013 181.285 43.7706C181.285 42.94 181.442 42.2123 181.756 41.5876C182.073 40.9629 182.52 40.4778 183.096 40.1323C183.672 39.7868 184.352 39.614 185.138 39.614C185.923 39.614 186.603 39.7868 187.179 40.1323C187.755 40.4778 188.2 40.9629 188.514 41.5876C188.832 42.2123 188.991 42.94 188.991 43.7706C188.991 44.6013 188.832 45.3272 188.514 45.9484C188.2 46.5697 187.755 47.053 187.179 47.3985C186.603 47.7441 185.923 47.9168 185.138 47.9168ZM185.148 46.3986C185.574 46.3986 185.93 46.2817 186.216 46.0479C186.502 45.8106 186.715 45.493 186.855 45.0951C186.998 44.6973 187.069 44.254 187.069 43.7654C187.069 43.2733 186.998 42.8283 186.855 42.4305C186.715 42.0291 186.502 41.7098 186.216 41.4725C185.93 41.2351 185.574 41.1165 185.148 41.1165C184.712 41.1165 184.349 41.2351 184.059 41.4725C183.773 41.7098 183.558 42.0291 183.415 42.4305C183.276 42.8283 183.206 43.2733 183.206 43.7654C183.206 44.254 183.276 44.6973 183.415 45.0951C183.558 45.493 183.773 45.8106 184.059 46.0479C184.349 46.2817 184.712 46.3986 185.148 46.3986ZM192.494 43.0482V47.7598H190.599V39.7187H192.41V41.0851H192.505C192.69 40.6348 192.985 40.2771 193.389 40.0119C193.798 39.7466 194.302 39.614 194.902 39.614C195.457 39.614 195.941 39.7327 196.352 39.97C196.768 40.2073 197.089 40.5511 197.316 41.0013C197.546 41.4515 197.659 41.9977 197.656 42.6399V47.7598H195.761V42.933C195.761 42.3956 195.621 41.975 195.342 41.6714C195.066 41.3678 194.684 41.2159 194.196 41.2159C193.864 41.2159 193.569 41.2892 193.311 41.4358C193.056 41.5789 192.855 41.7866 192.709 42.0588C192.566 42.331 192.494 42.6608 192.494 43.0482ZM209.595 41.8441L207.867 42.0326C207.818 41.8581 207.733 41.6941 207.61 41.5405C207.492 41.387 207.331 41.2631 207.129 41.1688C206.926 41.0746 206.679 41.0275 206.385 41.0275C205.991 41.0275 205.66 41.113 205.391 41.284C205.126 41.455 204.995 41.6766 204.998 41.9488C204.995 42.1827 205.08 42.3729 205.255 42.5195C205.433 42.6661 205.726 42.7865 206.134 42.8807L207.506 43.1739C208.267 43.3379 208.832 43.5979 209.202 43.9539C209.575 44.3099 209.764 44.7758 209.767 45.3516C209.764 45.8577 209.615 46.3044 209.322 46.6918C209.033 47.0757 208.63 47.3759 208.113 47.5922C207.596 47.8086 207.003 47.9168 206.333 47.9168C205.349 47.9168 204.557 47.7109 203.956 47.2991C203.356 46.8838 202.998 46.3062 202.883 45.5663L204.731 45.3883C204.815 45.7512 204.993 46.0252 205.265 46.2102C205.537 46.3952 205.892 46.4876 206.328 46.4876C206.778 46.4876 207.139 46.3952 207.412 46.2102C207.687 46.0252 207.825 45.7966 207.825 45.5244C207.825 45.2941 207.736 45.1038 207.558 44.9538C207.384 44.8037 207.111 44.6885 206.741 44.6083L205.37 44.3203C204.599 44.1598 204.028 43.8893 203.658 43.5089C203.288 43.125 203.105 42.6399 203.108 42.0535C203.105 41.558 203.239 41.1287 203.511 40.7657C203.787 40.3993 204.169 40.1166 204.658 39.9176C205.15 39.7152 205.717 39.614 206.359 39.614C207.302 39.614 208.043 39.8147 208.584 40.216C209.129 40.6174 209.465 41.1601 209.595 41.8441ZM214.89 47.9168C214.084 47.9168 213.387 47.7493 212.801 47.4143C212.218 47.0757 211.77 46.5976 211.456 45.9798C211.141 45.3586 210.984 44.6275 210.984 43.7864C210.984 42.9592 211.141 42.2333 211.456 41.6086C211.773 40.9804 212.216 40.4918 212.785 40.1427C213.354 39.7903 214.023 39.614 214.79 39.614C215.286 39.614 215.754 39.6943 216.193 39.8548C216.637 40.0119 217.027 40.2562 217.366 40.5877C217.708 40.9193 217.977 41.3416 218.172 41.8546C218.368 42.3642 218.465 42.9714 218.465 43.6764V44.2575H211.874V42.9802H216.649C216.645 42.6172 216.567 42.2944 216.413 42.0117C216.26 41.7255 216.045 41.5004 215.769 41.3363C215.497 41.1723 215.179 41.0903 214.817 41.0903C214.429 41.0903 214.089 41.1845 213.796 41.373C213.503 41.558 213.274 41.8023 213.11 42.1059C212.949 42.406 212.867 42.7359 212.864 43.0953V44.2104C212.864 44.6781 212.949 45.0794 213.12 45.4145C213.291 45.746 213.53 46.0008 213.838 46.1788C214.145 46.3533 214.504 46.4405 214.916 46.4405C215.192 46.4405 215.441 46.4021 215.665 46.3254C215.888 46.2451 216.082 46.1282 216.246 45.9746C216.41 45.821 216.534 45.6308 216.617 45.404L218.387 45.6029C218.275 46.0706 218.062 46.4789 217.748 46.8279C217.438 47.1734 217.04 47.4422 216.555 47.6341C216.069 47.8226 215.515 47.9168 214.89 47.9168ZM220.069 47.7598V39.7187H221.906V41.0589H221.99C222.136 40.5947 222.388 40.237 222.744 39.9857C223.103 39.7309 223.513 39.6035 223.974 39.6035C224.079 39.6035 224.196 39.6088 224.325 39.6192C224.457 39.6262 224.567 39.6384 224.654 39.6559V41.3992C224.574 41.3712 224.447 41.3468 224.272 41.3259C224.101 41.3014 223.936 41.2892 223.775 41.2892C223.429 41.2892 223.119 41.3643 222.843 41.5143C222.571 41.6609 222.356 41.8651 222.199 42.1268C222.042 42.3886 221.964 42.6905 221.964 43.0325V47.7598H220.069ZM233.341 39.7187L230.477 47.7598H228.383L225.52 39.7187H227.54L229.388 45.6919H229.472L231.325 39.7187H233.341ZM234.652 47.7598V39.7187H236.547V47.7598H234.652ZM235.605 38.5775C235.305 38.5775 235.047 38.478 234.83 38.2791C234.614 38.0766 234.506 37.8341 234.506 37.5514C234.506 37.2652 234.614 37.0227 234.83 36.8237C235.047 36.6213 235.305 36.5201 235.605 36.5201C235.909 36.5201 236.167 36.6213 236.38 36.8237C236.596 37.0227 236.704 37.2652 236.704 37.5514C236.704 37.8341 236.596 38.0766 236.38 38.2791C236.167 38.478 235.909 38.5775 235.605 38.5775ZM242.003 47.9168C241.201 47.9168 240.511 47.7406 239.936 47.3881C239.363 47.0356 238.922 46.5487 238.611 45.9275C238.304 45.3028 238.15 44.5838 238.15 43.7706C238.15 42.954 238.308 42.2333 238.622 41.6086C238.936 40.9804 239.379 40.4918 239.951 40.1427C240.527 39.7903 241.208 39.614 241.993 39.614C242.646 39.614 243.223 39.7344 243.726 39.9752C244.232 40.2126 244.635 40.5493 244.935 40.9856C245.235 41.4184 245.406 41.9244 245.448 42.5038H243.637C243.564 42.1164 243.389 41.7935 243.113 41.5353C242.841 41.2735 242.476 41.1426 242.019 41.1426C241.632 41.1426 241.292 41.2473 240.998 41.4568C240.705 41.6627 240.477 41.9593 240.313 42.3467C240.152 42.7341 240.072 43.1983 240.072 43.7392C240.072 44.2872 240.152 44.7583 240.313 45.1527C240.473 45.5436 240.698 45.8455 240.988 46.0584C241.281 46.2678 241.625 46.3725 242.019 46.3725C242.298 46.3725 242.548 46.3201 242.768 46.2154C242.991 46.1072 243.178 45.9519 243.328 45.7495C243.478 45.5471 243.581 45.301 243.637 45.0114H245.448C245.403 45.5802 245.235 46.0845 244.946 46.5243C244.656 46.9605 244.262 47.3026 243.762 47.5504C243.263 47.7947 242.677 47.9168 242.003 47.9168ZM250.564 47.9168C249.758 47.9168 249.062 47.7493 248.475 47.4143C247.893 47.0757 247.444 46.5976 247.13 45.9798C246.816 45.3586 246.659 44.6275 246.659 43.7864C246.659 42.9592 246.816 42.2333 247.13 41.6086C247.448 40.9804 247.891 40.4918 248.46 40.1427C249.029 39.7903 249.697 39.614 250.465 39.614C250.96 39.614 251.428 39.6943 251.868 39.8548C252.311 40.0119 252.702 40.2562 253.04 40.5877C253.382 40.9193 253.651 41.3416 253.847 41.8546C254.042 42.3642 254.14 42.9714 254.14 43.6764V44.2575H247.549V42.9802H252.323C252.32 42.6172 252.241 42.2944 252.088 42.0117C251.934 41.7255 251.719 41.5004 251.444 41.3363C251.171 41.1723 250.854 41.0903 250.491 41.0903C250.103 41.0903 249.763 41.1845 249.47 41.373C249.177 41.558 248.948 41.8023 248.784 42.1059C248.624 42.406 248.542 42.7359 248.538 43.0953V44.2104C248.538 44.6781 248.624 45.0794 248.795 45.4145C248.966 45.746 249.205 46.0008 249.512 46.1788C249.819 46.3533 250.178 46.4405 250.59 46.4405C250.866 46.4405 251.116 46.4021 251.339 46.3254C251.562 46.2451 251.756 46.1282 251.92 45.9746C252.084 45.821 252.208 45.6308 252.292 45.404L254.061 45.6029C253.949 46.0706 253.737 46.4789 253.422 46.8279C253.112 47.1734 252.714 47.4422 252.229 47.6341C251.744 47.8226 251.189 47.9168 250.564 47.9168ZM262.098 41.8441L260.371 42.0326C260.322 41.8581 260.236 41.6941 260.114 41.5405C259.996 41.387 259.835 41.2631 259.633 41.1688C259.43 41.0746 259.182 41.0275 258.889 41.0275C258.495 41.0275 258.163 41.113 257.895 41.284C257.629 41.455 257.498 41.6766 257.502 41.9488C257.498 42.1827 257.584 42.3729 257.758 42.5195C257.936 42.6661 258.23 42.7865 258.638 42.8807L260.009 43.1739C260.77 43.3379 261.336 43.5979 261.706 43.9539C262.079 44.3099 262.268 44.7758 262.271 45.3516C262.268 45.8577 262.119 46.3044 261.826 46.6918C261.536 47.0757 261.133 47.3759 260.617 47.5922C260.1 47.8086 259.507 47.9168 258.837 47.9168C257.853 47.9168 257.06 47.7109 256.46 47.2991C255.86 46.8838 255.502 46.3062 255.387 45.5663L257.235 45.3883C257.319 45.7512 257.497 46.0252 257.769 46.2102C258.041 46.3952 258.395 46.4876 258.832 46.4876C259.282 46.4876 259.643 46.3952 259.915 46.2102C260.191 46.0252 260.329 45.7966 260.329 45.5244C260.329 45.2941 260.24 45.1038 260.062 44.9538C259.887 44.8037 259.615 44.6885 259.245 44.6083L257.874 44.3203C257.102 44.1598 256.532 43.8893 256.162 43.5089C255.792 43.125 255.609 42.6399 255.612 42.0535C255.609 41.558 255.743 41.1287 256.015 40.7657C256.291 40.3993 256.673 40.1166 257.162 39.9176C257.654 39.7152 258.221 39.614 258.863 39.614C259.805 39.614 260.547 39.8147 261.088 40.216C261.632 40.6174 261.969 41.1601 262.098 41.8441ZM270.474 47.9011C269.843 47.9011 269.277 47.7388 268.778 47.4143C268.279 47.0897 267.885 46.6185 267.595 46.0008C267.305 45.383 267.161 44.6327 267.161 43.7497C267.161 42.8563 267.307 42.1024 267.6 41.4882C267.897 40.8704 268.297 40.4045 268.799 40.0904C269.302 39.7728 269.862 39.614 270.48 39.614C270.951 39.614 271.338 39.6943 271.642 39.8548C271.945 40.0119 272.186 40.2021 272.364 40.4254C272.542 40.6453 272.68 40.853 272.778 41.0484H272.856V37.0384H274.757V47.7598H272.893V46.4929H272.778C272.68 46.6883 272.539 46.896 272.354 47.1159C272.169 47.3322 271.924 47.5172 271.621 47.6708C271.317 47.8243 270.935 47.9011 270.474 47.9011ZM271.003 46.3463C271.404 46.3463 271.747 46.2381 272.029 46.0217C272.312 45.8019 272.527 45.4965 272.673 45.1056C272.82 44.7147 272.893 44.2593 272.893 43.7392C272.893 43.2192 272.82 42.7673 272.673 42.3834C272.53 41.9995 272.317 41.7011 272.034 41.4882C271.755 41.2753 271.411 41.1688 271.003 41.1688C270.581 41.1688 270.228 41.2788 269.946 41.4986C269.663 41.7185 269.45 42.0221 269.307 42.4095C269.164 42.7969 269.092 43.2402 269.092 43.7392C269.092 44.2418 269.164 44.6903 269.307 45.0846C269.454 45.4755 269.668 45.7844 269.951 46.0113C270.237 46.2346 270.588 46.3463 271.003 46.3463ZM280.284 47.9168C279.498 47.9168 278.818 47.7441 278.242 47.3985C277.666 47.053 277.219 46.5697 276.902 45.9484C276.588 45.3272 276.431 44.6013 276.431 43.7706C276.431 42.94 276.588 42.2123 276.902 41.5876C277.219 40.9629 277.666 40.4778 278.242 40.1323C278.818 39.7868 279.498 39.614 280.284 39.614C281.069 39.614 281.749 39.7868 282.325 40.1323C282.901 40.4778 283.346 40.9629 283.66 41.5876C283.978 42.2123 284.137 42.94 284.137 43.7706C284.137 44.6013 283.978 45.3272 283.66 45.9484C283.346 46.5697 282.901 47.053 282.325 47.3985C281.749 47.7441 281.069 47.9168 280.284 47.9168ZM280.294 46.3986C280.72 46.3986 281.076 46.2817 281.362 46.0479C281.648 45.8106 281.861 45.493 282.001 45.0951C282.144 44.6973 282.215 44.254 282.215 43.7654C282.215 43.2733 282.144 42.8283 282.001 42.4305C281.861 42.0291 281.648 41.7098 281.362 41.4725C281.076 41.2351 280.72 41.1165 280.294 41.1165C279.858 41.1165 279.495 41.2351 279.205 41.4725C278.919 41.7098 278.704 42.0291 278.561 42.4305C278.422 42.8283 278.352 43.2733 278.352 43.7654C278.352 44.254 278.422 44.6973 278.561 45.0951C278.704 45.493 278.919 45.8106 279.205 46.0479C279.495 46.2817 279.858 46.3986 280.294 46.3986ZM289.305 47.9168C288.499 47.9168 287.802 47.7493 287.216 47.4143C286.633 47.0757 286.185 46.5976 285.871 45.9798C285.557 45.3586 285.4 44.6275 285.4 43.7864C285.4 42.9592 285.557 42.2333 285.871 41.6086C286.188 40.9804 286.632 40.4918 287.2 40.1427C287.769 39.7903 288.438 39.614 289.205 39.614C289.701 39.614 290.169 39.6943 290.608 39.8548C291.052 40.0119 291.443 40.2562 291.781 40.5877C292.123 40.9193 292.392 41.3416 292.587 41.8546C292.783 42.3642 292.88 42.9714 292.88 43.6764V44.2575H286.289V42.9802H291.064C291.06 42.6172 290.982 42.2944 290.828 42.0117C290.675 41.7255 290.46 41.5004 290.184 41.3363C289.912 41.1723 289.595 41.0903 289.232 41.0903C288.844 41.0903 288.504 41.1845 288.211 41.373C287.918 41.558 287.689 41.8023 287.525 42.1059C287.364 42.406 287.282 42.7359 287.279 43.0953V44.2104C287.279 44.6781 287.364 45.0794 287.535 45.4145C287.706 45.746 287.946 46.0008 288.253 46.1788C288.56 46.3533 288.919 46.4405 289.331 46.4405C289.607 46.4405 289.856 46.4021 290.08 46.3254C290.303 46.2451 290.497 46.1282 290.661 45.9746C290.825 45.821 290.949 45.6308 291.032 45.404L292.802 45.6029C292.69 46.0706 292.477 46.4789 292.163 46.8279C291.853 47.1734 291.455 47.4422 290.97 47.6341C290.485 47.8226 289.93 47.9168 289.305 47.9168ZM300.839 41.8441L299.111 42.0326C299.063 41.8581 298.977 41.6941 298.855 41.5405C298.736 41.387 298.576 41.2631 298.373 41.1688C298.171 41.0746 297.923 41.0275 297.63 41.0275C297.236 41.0275 296.904 41.113 296.635 41.284C296.37 41.455 296.239 41.6766 296.243 41.9488C296.239 42.1827 296.325 42.3729 296.499 42.5195C296.677 42.6661 296.97 42.7865 297.379 42.8807L298.75 43.1739C299.511 43.3379 300.076 43.5979 300.446 43.9539C300.82 44.3099 301.008 44.7758 301.012 45.3516C301.008 45.8577 300.86 46.3044 300.567 46.6918C300.277 47.0757 299.874 47.3759 299.358 47.5922C298.841 47.8086 298.248 47.9168 297.578 47.9168C296.593 47.9168 295.801 47.7109 295.201 47.2991C294.601 46.8838 294.243 46.3062 294.128 45.5663L295.976 45.3883C296.059 45.7512 296.237 46.0252 296.51 46.2102C296.782 46.3952 297.136 46.4876 297.572 46.4876C298.023 46.4876 298.384 46.3952 298.656 46.2102C298.932 46.0252 299.07 45.7966 299.07 45.5244C299.07 45.2941 298.981 45.1038 298.803 44.9538C298.628 44.8037 298.356 44.6885 297.986 44.6083L296.614 44.3203C295.843 44.1598 295.272 43.8893 294.902 43.5089C294.533 43.125 294.349 42.6399 294.353 42.0535C294.349 41.558 294.484 41.1287 294.756 40.7657C295.032 40.3993 295.414 40.1166 295.902 39.9176C296.394 39.7152 296.962 39.614 297.604 39.614C298.546 39.614 299.288 39.8147 299.829 40.216C300.373 40.6174 300.71 41.1601 300.839 41.8441ZM306.116 47.7598V46.5505L311.613 38.6665H306.085V37.0384H314.021V38.2477L308.529 46.1317H314.052V47.7598H306.116ZM315.932 47.7598V37.0384H322.8V38.6665H317.874V41.5772H322.329V43.2053H317.874V47.7598H315.932ZM337.403 40.6558H335.445C335.39 40.3347 335.287 40.0503 335.137 39.8025C334.986 39.5512 334.8 39.3383 334.576 39.1638C334.353 38.9893 334.098 38.8584 333.812 38.7712C333.529 38.6804 333.224 38.6351 332.896 38.6351C332.313 38.6351 331.797 38.7816 331.346 39.0748C330.896 39.3645 330.544 39.7903 330.289 40.3522C330.034 40.9106 329.907 41.5929 329.907 42.3991C329.907 43.2192 330.034 43.9102 330.289 44.4721C330.547 45.0306 330.9 45.4528 331.346 45.739C331.797 46.0217 332.311 46.1631 332.891 46.1631C333.212 46.1631 333.512 46.1212 333.791 46.0374C334.074 45.9502 334.327 45.8228 334.55 45.6553C334.777 45.4877 334.967 45.2818 335.121 45.0375C335.278 44.7932 335.386 44.514 335.445 44.1999L337.403 44.2104C337.33 44.7199 337.171 45.1981 336.927 45.6448C336.686 46.0915 336.37 46.4859 335.979 46.8279C335.589 47.1665 335.131 47.4317 334.608 47.6237C334.084 47.8121 333.503 47.9063 332.865 47.9063C331.922 47.9063 331.081 47.6882 330.341 47.252C329.601 46.8157 329.019 46.1858 328.593 45.3621C328.167 44.5385 327.954 43.5508 327.954 42.3991C327.954 41.2439 328.169 40.2562 328.598 39.436C329.027 38.6124 329.612 37.9824 330.352 37.5462C331.092 37.1099 331.929 36.8918 332.865 36.8918C333.461 36.8918 334.016 36.9755 334.529 37.1431C335.042 37.3106 335.5 37.5566 335.901 37.8812C336.302 38.2023 336.632 38.5967 336.89 39.0643C337.152 39.5285 337.323 40.059 337.403 40.6558ZM341.412 47.9221C340.903 47.9221 340.444 47.8313 340.035 47.6498C339.63 47.4649 339.309 47.1926 339.072 46.8332C338.838 46.4737 338.721 46.0305 338.721 45.5035C338.721 45.0497 338.805 44.6746 338.973 44.3779C339.14 44.0813 339.369 43.8439 339.658 43.6659C339.948 43.488 340.274 43.3536 340.637 43.2628C341.004 43.1686 341.382 43.1006 341.773 43.0587C342.244 43.0098 342.627 42.9662 342.92 42.9278C343.213 42.8859 343.426 42.8231 343.558 42.7393C343.695 42.6521 343.763 42.5177 343.763 42.3362V42.3048C343.763 41.9105 343.646 41.6051 343.412 41.3887C343.178 41.1723 342.841 41.0641 342.402 41.0641C341.937 41.0641 341.569 41.1653 341.297 41.3678C341.028 41.5702 340.847 41.8092 340.752 42.085L338.983 41.8337C339.123 41.3451 339.353 40.9367 339.674 40.6087C339.995 40.2771 340.388 40.0293 340.852 39.8653C341.316 39.6978 341.829 39.614 342.391 39.614C342.778 39.614 343.164 39.6594 343.548 39.7501C343.932 39.8409 344.283 39.9909 344.6 40.2003C344.918 40.4062 345.173 40.6872 345.365 41.0432C345.56 41.3992 345.658 41.8441 345.658 42.3781V47.7598H343.836V46.6552H343.773C343.658 46.8785 343.496 47.0879 343.286 47.2834C343.08 47.4753 342.82 47.6306 342.506 47.7493C342.196 47.8645 341.831 47.9221 341.412 47.9221ZM341.904 46.5295C342.285 46.5295 342.614 46.4545 342.894 46.3044C343.173 46.1509 343.387 45.9484 343.538 45.6972C343.691 45.4459 343.768 45.1719 343.768 44.8752V43.9277C343.709 43.9766 343.607 44.0219 343.464 44.0638C343.325 44.1057 343.168 44.1423 342.993 44.1737C342.819 44.2052 342.646 44.2331 342.475 44.2575C342.304 44.2819 342.155 44.3029 342.03 44.3203C341.747 44.3587 341.494 44.4215 341.271 44.5088C341.047 44.596 340.871 44.7182 340.742 44.8752C340.613 45.0288 340.548 45.2277 340.548 45.472C340.548 45.821 340.676 46.0845 340.93 46.2625C341.185 46.4405 341.51 46.5295 341.904 46.5295ZM349.458 43.0482V47.7598H347.563V39.7187H349.375V41.0851H349.469C349.654 40.6348 349.949 40.2771 350.354 40.0119C350.762 39.7466 351.266 39.614 351.867 39.614C352.421 39.614 352.905 39.7327 353.317 39.97C353.732 40.2073 354.053 40.5511 354.28 41.0013C354.51 41.4515 354.624 41.9977 354.62 42.6399V47.7598H352.725V42.933C352.725 42.3956 352.585 41.975 352.306 41.6714C352.031 41.3678 351.648 41.2159 351.16 41.2159C350.828 41.2159 350.533 41.2892 350.275 41.4358C350.02 41.5789 349.82 41.7866 349.673 42.0588C349.53 42.331 349.458 42.6608 349.458 43.0482ZM358.861 47.9221C358.351 47.9221 357.892 47.8313 357.484 47.6498C357.079 47.4649 356.758 47.1926 356.52 46.8332C356.287 46.4737 356.17 46.0305 356.17 45.5035C356.17 45.0497 356.253 44.6746 356.421 44.3779C356.589 44.0813 356.817 43.8439 357.107 43.6659C357.396 43.488 357.723 43.3536 358.086 43.2628C358.452 43.1686 358.831 43.1006 359.222 43.0587C359.693 43.0098 360.075 42.9662 360.368 42.9278C360.661 42.8859 360.874 42.8231 361.007 42.7393C361.143 42.6521 361.211 42.5177 361.211 42.3362V42.3048C361.211 41.9105 361.094 41.6051 360.86 41.3887C360.627 41.1723 360.29 41.0641 359.85 41.0641C359.386 41.0641 359.018 41.1653 358.745 41.3678C358.477 41.5702 358.295 41.8092 358.201 42.085L356.431 41.8337C356.571 41.3451 356.801 40.9367 357.123 40.6087C357.444 40.2771 357.836 40.0293 358.3 39.8653C358.765 39.6978 359.278 39.614 359.84 39.614C360.227 39.614 360.613 39.6594 360.996 39.7501C361.38 39.8409 361.731 39.9909 362.049 40.2003C362.366 40.4062 362.621 40.6872 362.813 41.0432C363.008 41.3992 363.106 41.8441 363.106 42.3781V47.7598H361.284V46.6552H361.222C361.106 46.8785 360.944 47.0879 360.735 47.2834C360.529 47.4753 360.269 47.6306 359.955 47.7493C359.644 47.8645 359.279 47.9221 358.861 47.9221ZM359.353 46.5295C359.733 46.5295 360.063 46.4545 360.342 46.3044C360.621 46.1509 360.836 45.9484 360.986 45.6972C361.14 45.4459 361.216 45.1719 361.216 44.8752V43.9277C361.157 43.9766 361.056 44.0219 360.913 44.0638C360.773 44.1057 360.616 44.1423 360.442 44.1737C360.267 44.2052 360.094 44.2331 359.923 44.2575C359.752 44.2819 359.604 44.3029 359.478 44.3203C359.196 44.3587 358.943 44.4215 358.719 44.5088C358.496 44.596 358.32 44.7182 358.19 44.8752C358.061 45.0288 357.997 45.2277 357.997 45.472C357.997 45.821 358.124 46.0845 358.379 46.2625C358.634 46.4405 358.958 46.5295 359.353 46.5295ZM367.996 47.9011C367.364 47.9011 366.799 47.7388 366.3 47.4143C365.8 47.0897 365.406 46.6185 365.116 46.0008C364.827 45.383 364.682 44.6327 364.682 43.7497C364.682 42.8563 364.829 42.1024 365.122 41.4882C365.418 40.8704 365.818 40.4045 366.321 40.0904C366.823 39.7728 367.383 39.614 368.001 39.614C368.472 39.614 368.86 39.6943 369.163 39.8548C369.467 40.0119 369.708 40.2021 369.886 40.4254C370.064 40.6453 370.201 40.853 370.299 41.0484H370.378V37.0384H372.278V47.7598H370.414V46.4929H370.299C370.201 46.6883 370.06 46.896 369.875 47.1159C369.69 47.3322 369.446 47.5172 369.142 47.6708C368.839 47.8243 368.456 47.9011 367.996 47.9011ZM368.524 46.3463C368.926 46.3463 369.268 46.2381 369.551 46.0217C369.833 45.8019 370.048 45.4965 370.194 45.1056C370.341 44.7147 370.414 44.2593 370.414 43.7392C370.414 43.2192 370.341 42.7673 370.194 42.3834C370.051 41.9995 369.838 41.7011 369.556 41.4882C369.277 41.2753 368.933 41.1688 368.524 41.1688C368.102 41.1688 367.75 41.2788 367.467 41.4986C367.184 41.7185 366.971 42.0221 366.828 42.4095C366.685 42.7969 366.614 43.2402 366.614 43.7392C366.614 44.2418 366.685 44.6903 366.828 45.0846C366.975 45.4755 367.19 45.7844 367.472 46.0113C367.758 46.2346 368.109 46.3463 368.524 46.3463ZM376.611 47.9221C376.102 47.9221 375.643 47.8313 375.235 47.6498C374.83 47.4649 374.509 47.1926 374.271 46.8332C374.037 46.4737 373.921 46.0305 373.921 45.5035C373.921 45.0497 374.004 44.6746 374.172 44.3779C374.339 44.0813 374.568 43.8439 374.858 43.6659C375.147 43.488 375.474 43.3536 375.837 43.2628C376.203 43.1686 376.582 43.1006 376.973 43.0587C377.444 43.0098 377.826 42.9662 378.119 42.9278C378.412 42.8859 378.625 42.8231 378.758 42.7393C378.894 42.6521 378.962 42.5177 378.962 42.3362V42.3048C378.962 41.9105 378.845 41.6051 378.611 41.3887C378.377 41.1723 378.041 41.0641 377.601 41.0641C377.137 41.0641 376.768 41.1653 376.496 41.3678C376.227 41.5702 376.046 41.8092 375.952 42.085L374.182 41.8337C374.322 41.3451 374.552 40.9367 374.873 40.6087C375.194 40.2771 375.587 40.0293 376.051 39.8653C376.515 39.6978 377.028 39.614 377.59 39.614C377.978 39.614 378.363 39.6594 378.747 39.7501C379.131 39.8409 379.482 39.9909 379.8 40.2003C380.117 40.4062 380.372 40.6872 380.564 41.0432C380.759 41.3992 380.857 41.8441 380.857 42.3781V47.7598H379.035V46.6552H378.972C378.857 46.8785 378.695 47.0879 378.486 47.2834C378.28 47.4753 378.02 47.6306 377.705 47.7493C377.395 47.8645 377.03 47.9221 376.611 47.9221ZM377.103 46.5295C377.484 46.5295 377.814 46.4545 378.093 46.3044C378.372 46.1509 378.587 45.9484 378.737 45.6972C378.89 45.4459 378.967 45.1719 378.967 44.8752V43.9277C378.908 43.9766 378.807 44.0219 378.663 44.0638C378.524 44.1057 378.367 44.1423 378.192 44.1737C378.018 44.2052 377.845 44.2331 377.674 44.2575C377.503 44.2819 377.355 44.3029 377.229 44.3203C376.946 44.3587 376.693 44.4215 376.47 44.5088C376.247 44.596 376.07 44.7182 375.941 44.8752C375.812 45.0288 375.748 45.2277 375.748 45.472C375.748 45.821 375.875 46.0845 376.13 46.2625C376.384 46.4405 376.709 46.5295 377.103 46.5295ZM389.927 47.9168C389.141 47.9168 388.461 47.7441 387.885 47.3985C387.309 47.053 386.862 46.5697 386.545 45.9484C386.231 45.3272 386.074 44.6013 386.074 43.7706C386.074 42.94 386.231 42.2123 386.545 41.5876C386.862 40.9629 387.309 40.4778 387.885 40.1323C388.461 39.7868 389.141 39.614 389.927 39.614C390.712 39.614 391.393 39.7868 391.968 40.1323C392.544 40.4778 392.989 40.9629 393.303 41.5876C393.621 42.2123 393.78 42.94 393.78 43.7706C393.78 44.6013 393.621 45.3272 393.303 45.9484C392.989 46.5697 392.544 47.053 391.968 47.3985C391.393 47.7441 390.712 47.9168 389.927 47.9168ZM389.937 46.3986C390.363 46.3986 390.719 46.2817 391.005 46.0479C391.291 45.8106 391.504 45.493 391.644 45.0951C391.787 44.6973 391.858 44.254 391.858 43.7654C391.858 43.2733 391.787 42.8283 391.644 42.4305C391.504 42.0291 391.291 41.7098 391.005 41.4725C390.719 41.2351 390.363 41.1165 389.937 41.1165C389.501 41.1165 389.138 41.2351 388.848 41.4725C388.562 41.7098 388.347 42.0291 388.204 42.4305C388.065 42.8283 387.995 43.2733 387.995 43.7654C387.995 44.254 388.065 44.6973 388.204 45.0951C388.347 45.493 388.562 45.8106 388.848 46.0479C389.138 46.2817 389.501 46.3986 389.937 46.3986ZM399.461 39.7187V41.1845H394.708V39.7187H399.461ZM395.896 47.7598V38.9596C395.896 38.4187 396.008 37.9685 396.231 37.609C396.458 37.2495 396.762 36.9808 397.142 36.8028C397.522 36.6248 397.945 36.5358 398.409 36.5358C398.737 36.5358 399.028 36.562 399.283 36.6143C399.538 36.6667 399.726 36.7138 399.848 36.7557L399.472 38.2215C399.391 38.1971 399.29 38.1726 399.168 38.1482C399.046 38.1203 398.91 38.1063 398.76 38.1063C398.407 38.1063 398.158 38.1918 398.011 38.3628C397.868 38.5304 397.796 38.7712 397.796 39.0853V47.7598H395.896ZM405.018 39.7187V41.1845H400.265V39.7187H405.018ZM401.453 47.7598V38.9596C401.453 38.4187 401.565 37.9685 401.788 37.609C402.015 37.2495 402.319 36.9808 402.699 36.8028C403.079 36.6248 403.502 36.5358 403.966 36.5358C404.294 36.5358 404.585 36.562 404.84 36.6143C405.095 36.6667 405.283 36.7138 405.405 36.7557L405.029 38.2215C404.948 38.1971 404.847 38.1726 404.725 38.1482C404.603 38.1203 404.467 38.1063 404.317 38.1063C403.964 38.1063 403.715 38.1918 403.568 38.3628C403.425 38.5304 403.353 38.7712 403.353 39.0853V47.7598H401.453ZM409.76 47.9168C408.954 47.9168 408.257 47.7493 407.671 47.4143C407.088 47.0757 406.64 46.5976 406.326 45.9798C406.011 45.3586 405.854 44.6275 405.854 43.7864C405.854 42.9592 406.011 42.2333 406.326 41.6086C406.643 40.9804 407.086 40.4918 407.655 40.1427C408.224 39.7903 408.892 39.614 409.66 39.614C410.156 39.614 410.624 39.6943 411.063 39.8548C411.507 40.0119 411.897 40.2562 412.236 40.5877C412.578 40.9193 412.847 41.3416 413.042 41.8546C413.238 42.3642 413.335 42.9714 413.335 43.6764V44.2575H406.744V42.9802H411.519C411.515 42.6172 411.437 42.2944 411.283 42.0117C411.13 41.7255 410.915 41.5004 410.639 41.3363C410.367 41.1723 410.049 41.0903 409.686 41.0903C409.299 41.0903 408.959 41.1845 408.666 41.373C408.372 41.558 408.144 41.8023 407.98 42.1059C407.819 42.406 407.737 42.7359 407.734 43.0953V44.2104C407.734 44.6781 407.819 45.0794 407.99 45.4145C408.161 45.746 408.4 46.0008 408.708 46.1788C409.015 46.3533 409.374 46.4405 409.786 46.4405C410.062 46.4405 410.311 46.4021 410.535 46.3254C410.758 46.2451 410.952 46.1282 411.116 45.9746C411.28 45.821 411.404 45.6308 411.487 45.404L413.257 45.6029C413.145 46.0706 412.932 46.4789 412.618 46.8279C412.307 47.1734 411.91 47.4422 411.425 47.6341C410.939 47.8226 410.384 47.9168 409.76 47.9168ZM414.939 47.7598V39.7187H416.776V41.0589H416.86C417.006 40.5947 417.258 40.237 417.614 39.9857C417.973 39.7309 418.383 39.6035 418.844 39.6035C418.949 39.6035 419.066 39.6088 419.195 39.6192C419.327 39.6262 419.437 39.6384 419.524 39.6559V41.3992C419.444 41.3712 419.317 41.3468 419.142 41.3259C418.971 41.3014 418.806 41.2892 418.645 41.2892C418.299 41.2892 417.989 41.3643 417.713 41.5143C417.441 41.6609 417.226 41.8651 417.069 42.1268C416.912 42.3886 416.834 42.6905 416.834 43.0325V47.7598H414.939ZM422.595 44.6083V44.4721C422.598 43.8404 422.658 43.3379 422.773 42.9644C422.891 42.591 423.059 42.2909 423.275 42.064C423.492 41.8337 423.755 41.6225 424.066 41.4306C424.279 41.298 424.469 41.1531 424.636 40.9961C424.807 40.8355 424.942 40.6575 425.04 40.4621C425.137 40.2632 425.186 40.0415 425.186 39.7972C425.186 39.5215 425.122 39.2825 424.992 39.08C424.863 38.8776 424.689 38.7206 424.469 38.6089C424.253 38.4972 424.01 38.4414 423.741 38.4414C423.493 38.4414 423.258 38.4955 423.035 38.6036C422.815 38.7083 422.631 38.8689 422.485 39.0853C422.342 39.2982 422.262 39.5686 422.244 39.8967H420.38C420.398 39.2336 420.558 38.6787 420.862 38.232C421.169 37.7852 421.574 37.4502 422.077 37.2268C422.583 37.0035 423.141 36.8918 423.752 36.8918C424.418 36.8918 425.005 37.0087 425.511 37.2425C426.02 37.4764 426.416 37.8097 426.699 38.2424C426.985 38.6717 427.128 39.1812 427.128 39.7711C427.128 40.1689 427.064 40.5249 426.935 40.839C426.809 41.1531 426.629 41.4323 426.395 41.6766C426.162 41.9209 425.884 42.1391 425.563 42.331C425.28 42.5055 425.048 42.687 424.867 42.8755C424.689 43.0639 424.556 43.2855 424.469 43.5403C424.385 43.7916 424.342 44.1022 424.338 44.4721V44.6083H422.595ZM423.506 47.8749C423.192 47.8749 422.921 47.7633 422.694 47.5399C422.467 47.3165 422.354 47.0443 422.354 46.7232C422.354 46.4091 422.467 46.1404 422.694 45.917C422.921 45.6937 423.192 45.582 423.506 45.582C423.816 45.582 424.085 45.6937 424.312 45.917C424.542 46.1404 424.657 46.4091 424.657 46.7232C424.657 46.9361 424.603 47.1298 424.495 47.3043C424.39 47.4788 424.251 47.6184 424.076 47.7231C423.905 47.8243 423.715 47.8749 423.506 47.8749Z" fill="#1B1139"/>
<rect opacity="0.8" x="45.8701" y="38.9023" width="14.7419" height="2.45699" rx="1.22849" fill="#1B1139"/>
<rect opacity="0.8" x="54.4702" y="32.7598" width="14.7419" height="2.45699" rx="1.22849" transform="rotate(90 54.4702 32.7598)" fill="#1B1139"/>
<defs>
<filter id="filter0_d_160_334" x="0.000139236" y="0" width="486.497" height="116.76" filterUnits="userSpaceOnUse" color-interpolation-filters="sRGB">
<feFlood flood-opacity="0" result="BackgroundImageFix"/>
<feColorMatrix in="SourceAlpha" type="matrix" values="0 0 0 0 0 0 0 0 0 0 0 0 0 0 0 0 0 0 127 0" result="hardAlpha"/>
<feMorphology radius="12.0669" operator="erode" in="SourceAlpha" result="effect1_dropShadow_160_334"/>
<feOffset dy="20.1114"/>
<feGaussianBlur stdDeviation="13.4076"/>
<feColorMatrix type="matrix" values="0 0 0 0 0.583333 0 0 0 0 0.583333 0 0 0 0 0.583333 0 0 0 0.25 0"/>
<feBlend mode="normal" in2="BackgroundImageFix" result="effect1_dropShadow_160_334"/>
<feBlend mode="normal" in="SourceGraphic" in2="effect1_dropShadow_160_334" result="shape"/>
</filter>
</defs>
</svg>
