<svg width="385" height="19" viewBox="0 0 385 19" fill="none" xmlns="http://www.w3.org/2000/svg">
<path opacity="0.88" d="M29.5223 15L26.4964 4.27859H28.5852L30.517 12.1574H30.6164L32.679 4.27859H34.5794L36.6472 12.1626H36.7414L38.6732 4.27859H40.762L37.7361 15H35.8201L33.6737 7.47722H33.5899L31.4383 15H29.5223ZM43.92 10.2884V15H42.0249V4.27859H43.8781V8.3253H43.9724C44.1608 7.87159 44.4523 7.51386 44.8466 7.25211C45.2445 6.98687 45.7505 6.85424 46.3648 6.85424C46.9232 6.85424 47.4101 6.97116 47.8254 7.20499C48.2407 7.43882 48.5618 7.78085 48.7886 8.23106C49.019 8.68128 49.1341 9.23096 49.1341 9.88011V15H47.239V10.1733C47.239 9.63232 47.0994 9.21177 46.8202 8.91162C46.5445 8.60799 46.1571 8.45617 45.6581 8.45617C45.323 8.45617 45.0229 8.52946 44.7576 8.67604C44.4959 8.81914 44.29 9.02679 44.1399 9.29902C43.9933 9.57124 43.92 9.90105 43.92 10.2884ZM53.3798 15.1623C52.8702 15.1623 52.4113 15.0715 52.003 14.8901C51.5981 14.7051 51.277 14.4329 51.0397 14.0734C50.8059 13.7139 50.689 13.2707 50.689 12.7437C50.689 12.29 50.7727 11.9148 50.9402 11.6181C51.1078 11.3215 51.3364 11.0842 51.626 10.9062C51.9157 10.7282 52.242 10.5938 52.605 10.5031C52.9714 10.4089 53.3501 10.3408 53.741 10.2989C54.2122 10.2501 54.5943 10.2064 54.8875 10.168C55.1806 10.1262 55.3935 10.0633 55.5262 9.97958C55.6623 9.89232 55.7303 9.75796 55.7303 9.57648V9.54507C55.7303 9.15069 55.6134 8.84531 55.3796 8.62893C55.1457 8.41255 54.8089 8.30436 54.3692 8.30436C53.905 8.30436 53.5368 8.40557 53.2646 8.60799C52.9959 8.81041 52.8144 9.04948 52.7202 9.32519L50.9507 9.07391C51.0903 8.5853 51.3207 8.17697 51.6417 7.8489C51.9628 7.51735 52.3554 7.26956 52.8196 7.10553C53.2838 6.938 53.7968 6.85424 54.3587 6.85424C54.7461 6.85424 55.1318 6.89961 55.5157 6.99035C55.8996 7.0811 56.2503 7.23117 56.5679 7.44057C56.8855 7.64648 57.1403 7.92743 57.3322 8.28342C57.5277 8.6394 57.6254 9.08438 57.6254 9.61836V15H55.8036V13.8954H55.7408C55.6256 14.1188 55.4633 14.3282 55.2539 14.5236C55.048 14.7156 54.788 14.8709 54.4739 14.9895C54.1633 15.1047 53.7986 15.1623 53.3798 15.1623ZM53.8719 13.7698C54.2523 13.7698 54.5821 13.6947 54.8613 13.5447C55.1405 13.3911 55.3551 13.1887 55.5052 12.9374C55.6588 12.6861 55.7356 12.4121 55.7356 12.1155V11.1679C55.6762 11.2168 55.575 11.2622 55.4319 11.304C55.2923 11.3459 55.1353 11.3826 54.9608 11.414C54.7863 11.4454 54.6135 11.4733 54.4425 11.4977C54.2715 11.5222 54.1232 11.5431 53.9975 11.5606C53.7148 11.599 53.4618 11.6618 53.2384 11.749C53.0151 11.8363 52.8388 11.9584 52.7097 12.1155C52.5806 12.269 52.516 12.468 52.516 12.7123C52.516 13.0613 52.6434 13.3248 52.8982 13.5028C53.1529 13.6808 53.4775 13.7698 53.8719 13.7698ZM63.5463 6.95894V8.42476H58.9237V6.95894H63.5463ZM60.0649 5.03244H61.96V12.5814C61.96 12.8362 61.9984 13.0316 62.0752 13.1677C62.1555 13.3003 62.2602 13.3911 62.3893 13.44C62.5184 13.4888 62.6615 13.5132 62.8186 13.5132C62.9373 13.5132 63.0454 13.5045 63.1432 13.4871C63.2444 13.4696 63.3212 13.4539 63.3735 13.44L63.6928 14.9215C63.5916 14.9564 63.4468 14.9948 63.2583 15.0366C63.0734 15.0785 62.8465 15.103 62.5778 15.1099C62.1031 15.1239 61.6756 15.0524 61.2952 14.8953C60.9148 14.7348 60.6129 14.487 60.3895 14.1519C60.1697 13.8169 60.0615 13.3981 60.0649 12.8955V5.03244ZM68.7879 15V6.95894H70.683V15H68.7879ZM69.7407 5.8177C69.4405 5.8177 69.1822 5.71823 68.9659 5.5193C68.7495 5.31688 68.6413 5.07432 68.6413 4.79163C68.6413 4.50545 68.7495 4.26289 68.9659 4.06395C69.1822 3.86153 69.4405 3.76032 69.7407 3.76032C70.0443 3.76032 70.3026 3.86153 70.5154 4.06395C70.7318 4.26289 70.84 4.50545 70.84 4.79163C70.84 5.07432 70.7318 5.31688 70.5154 5.5193C70.3026 5.71823 70.0443 5.8177 69.7407 5.8177ZM72.6317 15V6.95894H74.4431V8.3253H74.5373C74.7048 7.86461 74.9823 7.50514 75.3697 7.24687C75.7571 6.98512 76.2195 6.85424 76.7569 6.85424C77.3014 6.85424 77.7603 6.98687 78.1338 7.25211C78.5107 7.51386 78.7759 7.87159 78.9295 8.3253H79.0133C79.1913 7.87857 79.4914 7.52259 79.9137 7.25734C80.3395 6.98861 80.8438 6.85424 81.4266 6.85424C82.1665 6.85424 82.7703 7.08808 83.238 7.55574C83.7056 8.02341 83.9395 8.70571 83.9395 9.60265V15H82.0391V9.89581C82.0391 9.39674 81.9065 9.03203 81.6413 8.80169C81.376 8.56785 81.0514 8.45094 80.6675 8.45094C80.2103 8.45094 79.8526 8.59403 79.5944 8.88021C79.3396 9.16291 79.2122 9.5311 79.2122 9.98481V15H77.3537V9.81729C77.3537 9.40197 77.2281 9.07042 76.9768 8.82263C76.729 8.57483 76.4045 8.45094 76.0031 8.45094C75.7309 8.45094 75.4831 8.52074 75.2597 8.66034C75.0364 8.79645 74.8584 8.99015 74.7257 9.24143C74.5931 9.48922 74.5268 9.7789 74.5268 10.1105V15H72.6317ZM85.862 15V6.95894H87.6734V8.3253H87.7676C87.9351 7.86461 88.2126 7.50514 88.6 7.24687C88.9874 6.98512 89.4498 6.85424 89.9873 6.85424C90.5317 6.85424 90.9906 6.98687 91.3641 7.25211C91.741 7.51386 92.0062 7.87159 92.1598 8.3253H92.2436C92.4216 7.87857 92.7217 7.52259 93.144 7.25734C93.5698 6.98861 94.0741 6.85424 94.6569 6.85424C95.3968 6.85424 96.0006 7.08808 96.4683 7.55574C96.9359 8.02341 97.1698 8.70571 97.1698 9.60265V15H95.2694V9.89581C95.2694 9.39674 95.1368 9.03203 94.8716 8.80169C94.6063 8.56785 94.2818 8.45094 93.8978 8.45094C93.4407 8.45094 93.0829 8.59403 92.8247 8.88021C92.5699 9.16291 92.4425 9.5311 92.4425 9.98481V15H90.5841V9.81729C90.5841 9.40197 90.4584 9.07042 90.2071 8.82263C89.9593 8.57483 89.6348 8.45094 89.2334 8.45094C88.9612 8.45094 88.7134 8.52074 88.49 8.66034C88.2667 8.79645 88.0887 8.99015 87.9561 9.24143C87.8234 9.48922 87.7571 9.7789 87.7571 10.1105V15H85.862ZM99.0923 15V6.95894H100.987V15H99.0923ZM100.045 5.8177C99.745 5.8177 99.4867 5.71823 99.2703 5.5193C99.0539 5.31688 98.9458 5.07432 98.9458 4.79163C98.9458 4.50545 99.0539 4.26289 99.2703 4.06395C99.4867 3.86153 99.745 3.76032 100.045 3.76032C100.349 3.76032 100.607 3.86153 100.82 4.06395C101.036 4.26289 101.144 4.50545 101.144 4.79163C101.144 5.07432 101.036 5.31688 100.82 5.5193C100.607 5.71823 100.349 5.8177 100.045 5.8177ZM106.433 18.1829C105.753 18.1829 105.168 18.0904 104.679 17.9055C104.191 17.724 103.798 17.4797 103.502 17.1726C103.205 16.8654 102.999 16.5251 102.884 16.1517L104.59 15.7381C104.667 15.8952 104.779 16.0505 104.926 16.2041C105.072 16.3611 105.269 16.4902 105.517 16.5915C105.768 16.6962 106.084 16.7485 106.465 16.7485C107.002 16.7485 107.447 16.6176 107.8 16.3559C108.152 16.0976 108.328 15.6718 108.328 15.0785V13.5551H108.234C108.136 13.7506 107.993 13.9512 107.805 14.1572C107.62 14.3631 107.374 14.5358 107.067 14.6754C106.763 14.815 106.381 14.8848 105.92 14.8848C105.302 14.8848 104.742 14.74 104.24 14.4503C103.741 14.1572 103.343 13.7209 103.046 13.1416C102.753 12.5587 102.606 11.8293 102.606 10.9533C102.606 10.0703 102.753 9.32519 103.046 8.71793C103.343 8.10717 103.742 7.64474 104.245 7.33063C104.748 7.01304 105.308 6.85424 105.925 6.85424C106.397 6.85424 106.784 6.93451 107.088 7.09506C107.395 7.25211 107.639 7.44232 107.82 7.66568C108.002 7.88555 108.14 8.09321 108.234 8.28865H108.339V6.95894H110.208V15.1309C110.208 15.8184 110.044 16.3873 109.716 16.8375C109.388 17.2877 108.939 17.6245 108.37 17.8479C107.801 18.0712 107.156 18.1829 106.433 18.1829ZM106.449 13.3981C106.85 13.3981 107.192 13.3003 107.475 13.1049C107.758 12.9095 107.972 12.6285 108.119 12.2621C108.265 11.8956 108.339 11.4559 108.339 10.9428C108.339 10.4368 108.265 9.99354 108.119 9.61312C107.976 9.23271 107.763 8.9378 107.48 8.7284C107.201 8.5155 106.857 8.40906 106.449 8.40906C106.027 8.40906 105.674 8.51899 105.391 8.73887C105.109 8.95874 104.896 9.26063 104.753 9.64453C104.61 10.0249 104.538 10.4577 104.538 10.9428C104.538 11.4349 104.61 11.8659 104.753 12.2359C104.899 12.6023 105.114 12.8885 105.397 13.0944C105.683 13.2969 106.034 13.3981 106.449 13.3981ZM112.15 15V6.95894H113.987V8.29912H114.071C114.218 7.83495 114.469 7.47722 114.825 7.22593C115.184 6.97116 115.595 6.84377 116.055 6.84377C116.16 6.84377 116.277 6.84901 116.406 6.85948C116.539 6.86646 116.649 6.87867 116.736 6.89612V8.6394C116.656 8.61148 116.528 8.58705 116.354 8.56611C116.183 8.54168 116.017 8.52946 115.856 8.52946C115.511 8.52946 115.2 8.6045 114.924 8.75457C114.652 8.90115 114.438 9.10532 114.281 9.36707C114.124 9.62883 114.045 9.93071 114.045 10.2727V15H112.15ZM120.165 15.1623C119.655 15.1623 119.196 15.0715 118.788 14.8901C118.383 14.7051 118.062 14.4329 117.825 14.0734C117.591 13.7139 117.474 13.2707 117.474 12.7437C117.474 12.29 117.558 11.9148 117.725 11.6181C117.893 11.3215 118.121 11.0842 118.411 10.9062C118.701 10.7282 119.027 10.5938 119.39 10.5031C119.756 10.4089 120.135 10.3408 120.526 10.2989C120.997 10.2501 121.379 10.2064 121.672 10.168C121.966 10.1262 122.179 10.0633 122.311 9.97958C122.447 9.89232 122.515 9.75796 122.515 9.57648V9.54507C122.515 9.15069 122.398 8.84531 122.165 8.62893C121.931 8.41255 121.594 8.30436 121.154 8.30436C120.69 8.30436 120.322 8.40557 120.05 8.60799C119.781 8.81041 119.599 9.04948 119.505 9.32519L117.736 9.07391C117.875 8.5853 118.106 8.17697 118.427 7.8489C118.748 7.51735 119.14 7.26956 119.605 7.10553C120.069 6.938 120.582 6.85424 121.144 6.85424C121.531 6.85424 121.917 6.89961 122.301 6.99035C122.685 7.0811 123.035 7.23117 123.353 7.44057C123.671 7.64648 123.925 7.92743 124.117 8.28342C124.313 8.6394 124.41 9.08438 124.41 9.61836V15H122.589V13.8954H122.526C122.411 14.1188 122.248 14.3282 122.039 14.5236C121.833 14.7156 121.573 14.8709 121.259 14.9895C120.948 15.1047 120.584 15.1623 120.165 15.1623ZM120.657 13.7698C121.037 13.7698 121.367 13.6947 121.646 13.5447C121.925 13.3911 122.14 13.1887 122.29 12.9374C122.444 12.6861 122.521 12.4121 122.521 12.1155V11.1679C122.461 11.2168 122.36 11.2622 122.217 11.304C122.077 11.3459 121.92 11.3826 121.746 11.414C121.571 11.4454 121.399 11.4733 121.227 11.4977C121.056 11.5222 120.908 11.5431 120.783 11.5606C120.5 11.599 120.247 11.6618 120.023 11.749C119.8 11.8363 119.624 11.9584 119.495 12.1155C119.366 12.269 119.301 12.468 119.301 12.7123C119.301 13.0613 119.428 13.3248 119.683 13.5028C119.938 13.6808 120.262 13.7698 120.657 13.7698ZM130.331 6.95894V8.42476H125.709V6.95894H130.331ZM126.85 5.03244H128.745V12.5814C128.745 12.8362 128.783 13.0316 128.86 13.1677C128.94 13.3003 129.045 13.3911 129.174 13.44C129.303 13.4888 129.447 13.5132 129.604 13.5132C129.722 13.5132 129.83 13.5045 129.928 13.4871C130.029 13.4696 130.106 13.4539 130.159 13.44L130.478 14.9215C130.377 14.9564 130.232 14.9948 130.043 15.0366C129.858 15.0785 129.632 15.103 129.363 15.1099C128.888 15.1239 128.461 15.0524 128.08 14.8953C127.7 14.7348 127.398 14.487 127.175 14.1519C126.955 13.8169 126.846 13.3981 126.85 12.8955V5.03244ZM131.916 15V6.95894H133.811V15H131.916ZM132.869 5.8177C132.569 5.8177 132.311 5.71823 132.094 5.5193C131.878 5.31688 131.77 5.07432 131.77 4.79163C131.77 4.50545 131.878 4.26289 132.094 4.06395C132.311 3.86153 132.569 3.76032 132.869 3.76032C133.173 3.76032 133.431 3.86153 133.644 4.06395C133.86 4.26289 133.968 4.50545 133.968 4.79163C133.968 5.07432 133.86 5.31688 133.644 5.5193C133.431 5.71823 133.173 5.8177 132.869 5.8177ZM139.268 15.1571C138.482 15.1571 137.802 14.9843 137.226 14.6388C136.65 14.2933 136.203 13.8099 135.886 13.1887C135.572 12.5674 135.415 11.8415 135.415 11.0109C135.415 10.1803 135.572 9.45258 135.886 8.82786C136.203 8.20314 136.65 7.71803 137.226 7.37251C137.802 7.027 138.482 6.85424 139.268 6.85424C140.053 6.85424 140.733 7.027 141.309 7.37251C141.885 7.71803 142.33 8.20314 142.644 8.82786C142.962 9.45258 143.121 10.1803 143.121 11.0109C143.121 11.8415 142.962 12.5674 142.644 13.1887C142.33 13.8099 141.885 14.2933 141.309 14.6388C140.733 14.9843 140.053 15.1571 139.268 15.1571ZM139.278 13.6389C139.704 13.6389 140.06 13.522 140.346 13.2881C140.632 13.0508 140.845 12.7332 140.985 12.3354C141.128 11.9375 141.199 11.4943 141.199 11.0056C141.199 10.5136 141.128 10.0686 140.985 9.67071C140.845 9.26935 140.632 8.95001 140.346 8.71269C140.06 8.47537 139.704 8.35671 139.278 8.35671C138.842 8.35671 138.479 8.47537 138.189 8.71269C137.903 8.95001 137.688 9.26935 137.545 9.67071C137.406 10.0686 137.336 10.5136 137.336 11.0056C137.336 11.4943 137.406 11.9375 137.545 12.3354C137.688 12.7332 137.903 13.0508 138.189 13.2881C138.479 13.522 138.842 13.6389 139.278 13.6389ZM146.624 10.2884V15H144.729V6.95894H146.54V8.3253H146.635C146.82 7.87508 147.114 7.51735 147.519 7.25211C147.928 6.98687 148.432 6.85424 149.032 6.85424C149.587 6.85424 150.071 6.9729 150.482 7.21023C150.898 7.44755 151.219 7.79132 151.446 8.24153C151.676 8.69175 151.789 9.23794 151.786 9.88011V15H149.891V10.1733C149.891 9.63581 149.751 9.21526 149.472 8.91162C149.196 8.60799 148.814 8.45617 148.325 8.45617C147.994 8.45617 147.699 8.52946 147.441 8.67604C147.186 8.81914 146.985 9.02679 146.839 9.29902C146.696 9.57124 146.624 9.90105 146.624 10.2884ZM163.724 9.08438L161.997 9.27284C161.948 9.09834 161.862 8.93431 161.74 8.78075C161.622 8.62718 161.461 8.50329 161.259 8.40906C161.056 8.31483 160.808 8.26771 160.515 8.26771C160.121 8.26771 159.789 8.35322 159.521 8.52423C159.255 8.69524 159.125 8.91686 159.128 9.18908C159.125 9.42291 159.21 9.61312 159.385 9.7597C159.563 9.90628 159.856 10.0267 160.264 10.1209L161.636 10.4141C162.396 10.5781 162.962 10.8381 163.332 11.1941C163.705 11.5501 163.894 12.016 163.897 12.5919C163.894 13.0979 163.745 13.5447 163.452 13.932C163.163 14.316 162.759 14.6161 162.243 14.8325C161.726 15.0489 161.133 15.1571 160.463 15.1571C159.479 15.1571 158.687 14.9511 158.086 14.5393C157.486 14.124 157.128 13.5464 157.013 12.8065L158.861 12.6285C158.945 12.9915 159.123 13.2654 159.395 13.4504C159.667 13.6354 160.021 13.7279 160.458 13.7279C160.908 13.7279 161.269 13.6354 161.541 13.4504C161.817 13.2654 161.955 13.0369 161.955 12.7646C161.955 12.5343 161.866 12.3441 161.688 12.194C161.513 12.0439 161.241 11.9288 160.871 11.8485L159.5 11.5606C158.728 11.4 158.158 11.1295 157.788 10.7491C157.418 10.3652 157.235 9.88011 157.238 9.29378C157.235 8.7982 157.369 8.36892 157.641 8.00596C157.917 7.6395 158.299 7.35681 158.788 7.15788C159.28 6.95545 159.847 6.85424 160.489 6.85424C161.431 6.85424 162.173 7.05492 162.714 7.45628C163.258 7.85763 163.595 8.40033 163.724 9.08438ZM169.02 15.1571C168.213 15.1571 167.517 14.9895 166.931 14.6545C166.348 14.316 165.9 13.8378 165.585 13.2201C165.271 12.5989 165.114 11.8677 165.114 11.0266C165.114 10.1994 165.271 9.47352 165.585 8.8488C165.903 8.22059 166.346 7.73199 166.915 7.38298C167.484 7.03049 168.152 6.85424 168.92 6.85424C169.416 6.85424 169.883 6.93451 170.323 7.09506C170.766 7.25211 171.157 7.49641 171.496 7.82796C171.838 8.15952 172.107 8.58181 172.302 9.09485C172.498 9.6044 172.595 10.2117 172.595 10.9167V11.4977H166.004V10.2204H170.779C170.775 9.85742 170.697 9.53459 170.543 9.2519C170.39 8.96572 170.175 8.74061 169.899 8.57658C169.627 8.41255 169.309 8.33053 168.946 8.33053C168.559 8.33053 168.219 8.42476 167.926 8.61322C167.632 8.7982 167.404 9.0425 167.24 9.34613C167.079 9.64628 166.997 9.97609 166.994 10.3356V11.4506C166.994 11.9183 167.079 12.3196 167.25 12.6547C167.421 12.9862 167.66 13.241 167.967 13.419C168.275 13.5935 168.634 13.6808 169.046 13.6808C169.322 13.6808 169.571 13.6424 169.794 13.5656C170.018 13.4853 170.212 13.3684 170.376 13.2148C170.54 13.0613 170.663 12.8711 170.747 12.6442L172.517 12.8432C172.405 13.3108 172.192 13.7192 171.878 14.0682C171.567 14.4137 171.17 14.6824 170.684 14.8744C170.199 15.0628 169.644 15.1571 169.02 15.1571ZM174.198 15V6.95894H176.036V8.29912H176.12C176.266 7.83495 176.518 7.47722 176.874 7.22593C177.233 6.97116 177.643 6.84377 178.104 6.84377C178.209 6.84377 178.325 6.84901 178.455 6.85948C178.587 6.86646 178.697 6.87867 178.784 6.89612V8.6394C178.704 8.61148 178.577 8.58705 178.402 8.56611C178.231 8.54168 178.065 8.52946 177.905 8.52946C177.559 8.52946 177.249 8.6045 176.973 8.75457C176.701 8.90115 176.486 9.10532 176.329 9.36707C176.172 9.62883 176.094 9.93071 176.094 10.2727V15H174.198ZM187.471 6.95894L184.607 15H182.513L179.649 6.95894H181.67L183.518 12.9322H183.602L185.455 6.95894H187.471ZM188.782 15V6.95894H190.677V15H188.782ZM189.735 5.8177C189.435 5.8177 189.176 5.71823 188.96 5.5193C188.744 5.31688 188.635 5.07432 188.635 4.79163C188.635 4.50545 188.744 4.26289 188.96 4.06395C189.176 3.86153 189.435 3.76032 189.735 3.76032C190.038 3.76032 190.297 3.86153 190.51 4.06395C190.726 4.26289 190.834 4.50545 190.834 4.79163C190.834 5.07432 190.726 5.31688 190.51 5.5193C190.297 5.71823 190.038 5.8177 189.735 5.8177ZM196.133 15.1571C195.331 15.1571 194.641 14.9808 194.066 14.6283C193.493 14.2758 193.052 13.789 192.741 13.1677C192.434 12.543 192.28 11.8241 192.28 11.0109C192.28 10.1942 192.437 9.47352 192.752 8.8488C193.066 8.22059 193.509 7.73199 194.081 7.38298C194.657 7.03049 195.338 6.85424 196.123 6.85424C196.776 6.85424 197.353 6.97465 197.856 7.21546C198.362 7.45279 198.765 7.78957 199.065 8.22583C199.365 8.65859 199.536 9.16465 199.578 9.744H197.767C197.693 9.3566 197.519 9.03377 197.243 8.77551C196.971 8.51376 196.606 8.38288 196.149 8.38288C195.762 8.38288 195.421 8.48758 195.128 8.69698C194.835 8.9029 194.606 9.19955 194.442 9.58695C194.282 9.97434 194.202 10.4385 194.202 10.9795C194.202 11.5274 194.282 11.9986 194.442 12.3929C194.603 12.7838 194.828 13.0857 195.118 13.2986C195.411 13.508 195.755 13.6127 196.149 13.6127C196.428 13.6127 196.678 13.5604 196.898 13.4557C197.121 13.3475 197.308 13.1922 197.458 12.9897C197.608 12.7873 197.711 12.5413 197.767 12.2516H199.578C199.533 12.8205 199.365 13.3248 199.075 13.7645C198.786 14.2008 198.391 14.5428 197.892 14.7906C197.393 15.0349 196.807 15.1571 196.133 15.1571ZM204.694 15.1571C203.888 15.1571 203.192 14.9895 202.605 14.6545C202.022 14.316 201.574 13.8378 201.26 13.2201C200.946 12.5989 200.789 11.8677 200.789 11.0266C200.789 10.1994 200.946 9.47352 201.26 8.8488C201.577 8.22059 202.021 7.73199 202.59 7.38298C203.158 7.03049 203.827 6.85424 204.595 6.85424C205.09 6.85424 205.558 6.93451 205.998 7.09506C206.441 7.25211 206.832 7.49641 207.17 7.82796C207.512 8.15952 207.781 8.58181 207.976 9.09485C208.172 9.6044 208.27 10.2117 208.27 10.9167V11.4977H201.679V10.2204H206.453C206.45 9.85742 206.371 9.53459 206.217 9.2519C206.064 8.96572 205.849 8.74061 205.574 8.57658C205.301 8.41255 204.984 8.33053 204.621 8.33053C204.233 8.33053 203.893 8.42476 203.6 8.61322C203.307 8.7982 203.078 9.0425 202.914 9.34613C202.754 9.64628 202.672 9.97609 202.668 10.3356V11.4506C202.668 11.9183 202.754 12.3196 202.925 12.6547C203.096 12.9862 203.335 13.241 203.642 13.419C203.949 13.5935 204.308 13.6808 204.72 13.6808C204.996 13.6808 205.245 13.6424 205.469 13.5656C205.692 13.4853 205.886 13.3684 206.05 13.2148C206.214 13.0613 206.338 12.8711 206.422 12.6442L208.191 12.8432C208.079 13.3108 207.866 13.7192 207.552 14.0682C207.242 14.4137 206.844 14.6824 206.359 14.8744C205.874 15.0628 205.319 15.1571 204.694 15.1571ZM216.228 9.08438L214.501 9.27284C214.452 9.09834 214.366 8.93431 214.244 8.78075C214.125 8.62718 213.965 8.50329 213.762 8.40906C213.56 8.31483 213.312 8.26771 213.019 8.26771C212.625 8.26771 212.293 8.35322 212.024 8.52423C211.759 8.69524 211.628 8.91686 211.632 9.18908C211.628 9.42291 211.714 9.61312 211.888 9.7597C212.066 9.90628 212.359 10.0267 212.768 10.1209L214.139 10.4141C214.9 10.5781 215.466 10.8381 215.836 11.1941C216.209 11.5501 216.397 12.016 216.401 12.5919C216.397 13.0979 216.249 13.5447 215.956 13.932C215.666 14.316 215.263 14.6161 214.747 14.8325C214.23 15.0489 213.637 15.1571 212.967 15.1571C211.983 15.1571 211.19 14.9511 210.59 14.5393C209.99 14.124 209.632 13.5464 209.517 12.8065L211.365 12.6285C211.449 12.9915 211.627 13.2654 211.899 13.4504C212.171 13.6354 212.525 13.7279 212.961 13.7279C213.412 13.7279 213.773 13.6354 214.045 13.4504C214.321 13.2654 214.459 13.0369 214.459 12.7646C214.459 12.5343 214.37 12.3441 214.192 12.194C214.017 12.0439 213.745 11.9288 213.375 11.8485L212.003 11.5606C211.232 11.4 210.662 11.1295 210.292 10.7491C209.922 10.3652 209.738 9.88011 209.742 9.29378C209.738 8.7982 209.873 8.36892 210.145 8.00596C210.421 7.6395 210.803 7.35681 211.292 7.15788C211.784 6.95545 212.351 6.85424 212.993 6.85424C213.935 6.85424 214.677 7.05492 215.218 7.45628C215.762 7.85763 216.099 8.40033 216.228 9.08438ZM224.604 15.1413C223.973 15.1413 223.407 14.9791 222.908 14.6545C222.409 14.3299 222.015 13.8588 221.725 13.241C221.435 12.6233 221.29 11.8729 221.29 10.9899C221.29 10.0965 221.437 9.34264 221.73 8.7284C222.027 8.11066 222.426 7.64474 222.929 7.33063C223.432 7.01304 223.992 6.85424 224.61 6.85424C225.081 6.85424 225.468 6.93451 225.772 7.09506C226.075 7.25211 226.316 7.44232 226.494 7.66568C226.672 7.88555 226.81 8.09321 226.908 8.28865H226.986V4.27859H228.887V15H227.023V13.7331H226.908C226.81 13.9286 226.669 14.1362 226.484 14.3561C226.299 14.5725 226.054 14.7574 225.751 14.911C225.447 15.0646 225.065 15.1413 224.604 15.1413ZM225.133 13.5865C225.534 13.5865 225.876 13.4783 226.159 13.262C226.442 13.0421 226.656 12.7367 226.803 12.3458C226.95 11.9549 227.023 11.4995 227.023 10.9795C227.023 10.4595 226.95 10.0075 226.803 9.62359C226.66 9.23969 226.447 8.94129 226.164 8.7284C225.885 8.5155 225.541 8.40906 225.133 8.40906C224.711 8.40906 224.358 8.51899 224.076 8.73887C223.793 8.95874 223.58 9.26237 223.437 9.64977C223.294 10.0372 223.222 10.4804 223.222 10.9795C223.222 11.482 223.294 11.9305 223.437 12.3249C223.583 12.7158 223.798 13.0246 224.081 13.2515C224.367 13.4749 224.718 13.5865 225.133 13.5865ZM234.413 15.1571C233.628 15.1571 232.948 14.9843 232.372 14.6388C231.796 14.2933 231.349 13.8099 231.032 13.1887C230.718 12.5674 230.56 11.8415 230.56 11.0109C230.56 10.1803 230.718 9.45258 231.032 8.82786C231.349 8.20314 231.796 7.71803 232.372 7.37251C232.948 7.027 233.628 6.85424 234.413 6.85424C235.199 6.85424 235.879 7.027 236.455 7.37251C237.031 7.71803 237.476 8.20314 237.79 8.82786C238.108 9.45258 238.266 10.1803 238.266 11.0109C238.266 11.8415 238.108 12.5674 237.79 13.1887C237.476 13.8099 237.031 14.2933 236.455 14.6388C235.879 14.9843 235.199 15.1571 234.413 15.1571ZM234.424 13.6389C234.85 13.6389 235.206 13.522 235.492 13.2881C235.778 13.0508 235.991 12.7332 236.131 12.3354C236.274 11.9375 236.345 11.4943 236.345 11.0056C236.345 10.5136 236.274 10.0686 236.131 9.67071C235.991 9.26935 235.778 8.95001 235.492 8.71269C235.206 8.47537 234.85 8.35671 234.424 8.35671C233.988 8.35671 233.625 8.47537 233.335 8.71269C233.049 8.95001 232.834 9.26935 232.691 9.67071C232.552 10.0686 232.482 10.5136 232.482 11.0056C232.482 11.4943 232.552 11.9375 232.691 12.3354C232.834 12.7332 233.049 13.0508 233.335 13.2881C233.625 13.522 233.988 13.6389 234.424 13.6389ZM243.435 15.1571C242.629 15.1571 241.932 14.9895 241.346 14.6545C240.763 14.316 240.315 13.8378 240.001 13.2201C239.686 12.5989 239.529 11.8677 239.529 11.0266C239.529 10.1994 239.686 9.47352 240.001 8.8488C240.318 8.22059 240.761 7.73199 241.33 7.38298C241.899 7.03049 242.568 6.85424 243.335 6.85424C243.831 6.85424 244.299 6.93451 244.738 7.09506C245.182 7.25211 245.572 7.49641 245.911 7.82796C246.253 8.15952 246.522 8.58181 246.717 9.09485C246.913 9.6044 247.01 10.2117 247.01 10.9167V11.4977H240.419V10.2204H245.194C245.19 9.85742 245.112 9.53459 244.958 9.2519C244.805 8.96572 244.59 8.74061 244.314 8.57658C244.042 8.41255 243.724 8.33053 243.361 8.33053C242.974 8.33053 242.634 8.42476 242.341 8.61322C242.047 8.7982 241.819 9.0425 241.655 9.34613C241.494 9.64628 241.412 9.97609 241.409 10.3356V11.4506C241.409 11.9183 241.494 12.3196 241.665 12.6547C241.836 12.9862 242.075 13.241 242.383 13.419C242.69 13.5935 243.049 13.6808 243.461 13.6808C243.737 13.6808 243.986 13.6424 244.21 13.5656C244.433 13.4853 244.627 13.3684 244.791 13.2148C244.955 13.0613 245.079 12.8711 245.162 12.6442L246.932 12.8432C246.82 13.3108 246.607 13.7192 246.293 14.0682C245.983 14.4137 245.585 14.6824 245.1 14.8744C244.614 15.0628 244.059 15.1571 243.435 15.1571ZM254.969 9.08438L253.241 9.27284C253.193 9.09834 253.107 8.93431 252.985 8.78075C252.866 8.62718 252.706 8.50329 252.503 8.40906C252.301 8.31483 252.053 8.26771 251.76 8.26771C251.365 8.26771 251.034 8.35322 250.765 8.52423C250.5 8.69524 250.369 8.91686 250.373 9.18908C250.369 9.42291 250.455 9.61312 250.629 9.7597C250.807 9.90628 251.1 10.0267 251.509 10.1209L252.88 10.4141C253.641 10.5781 254.206 10.8381 254.576 11.1941C254.95 11.5501 255.138 12.016 255.142 12.5919C255.138 13.0979 254.99 13.5447 254.697 13.932C254.407 14.316 254.004 14.6161 253.487 14.8325C252.971 15.0489 252.378 15.1571 251.707 15.1571C250.723 15.1571 249.931 14.9511 249.331 14.5393C248.73 14.124 248.373 13.5464 248.258 12.8065L250.106 12.6285C250.189 12.9915 250.367 13.2654 250.64 13.4504C250.912 13.6354 251.266 13.7279 251.702 13.7279C252.152 13.7279 252.514 13.6354 252.786 13.4504C253.062 13.2654 253.199 13.0369 253.199 12.7646C253.199 12.5343 253.11 12.3441 252.932 12.194C252.758 12.0439 252.486 11.9288 252.116 11.8485L250.744 11.5606C249.973 11.4 249.402 11.1295 249.032 10.7491C248.662 10.3652 248.479 9.88011 248.483 9.29378C248.479 8.7982 248.614 8.36892 248.886 8.00596C249.162 7.6395 249.544 7.35681 250.032 7.15788C250.524 6.95545 251.091 6.85424 251.734 6.85424C252.676 6.85424 253.418 7.05492 253.959 7.45628C254.503 7.85763 254.84 8.40033 254.969 9.08438ZM260.246 15V13.7907L265.743 5.9067H260.214V4.27859H268.151V5.48789L262.659 13.3719H268.182V15H260.246ZM270.062 15V4.27859H276.93V5.9067H272.004V8.81739H276.459V10.4455H272.004V15H270.062ZM291.533 7.89602H289.575C289.519 7.57494 289.417 7.2905 289.266 7.04271C289.116 6.79142 288.93 6.57853 288.706 6.40403C288.483 6.22953 288.228 6.09865 287.942 6.0114C287.659 5.92066 287.354 5.87529 287.026 5.87529C286.443 5.87529 285.926 6.02187 285.476 6.31503C285.026 6.6047 284.674 7.03049 284.419 7.59239C284.164 8.15079 284.037 8.8331 284.037 9.6393C284.037 10.4595 284.164 11.1505 284.419 11.7124C284.677 12.2708 285.03 12.6931 285.476 12.9793C285.926 13.262 286.441 13.4033 287.021 13.4033C287.342 13.4033 287.642 13.3614 287.921 13.2777C288.204 13.1904 288.457 13.063 288.68 12.8955C288.907 12.728 289.097 12.5221 289.251 12.2778C289.408 12.0335 289.516 11.7543 289.575 11.4402L291.533 11.4506C291.46 11.9602 291.301 12.4383 291.057 12.885C290.816 13.3318 290.5 13.7261 290.109 14.0682C289.718 14.4067 289.261 14.6719 288.738 14.8639C288.214 15.0524 287.633 15.1466 286.994 15.1466C286.052 15.1466 285.211 14.9285 284.471 14.4922C283.731 14.0559 283.148 13.426 282.723 12.6023C282.297 11.7787 282.084 10.791 282.084 9.6393C282.084 8.48409 282.299 7.49641 282.728 6.67625C283.157 5.8526 283.742 5.22265 284.482 4.78639C285.221 4.35014 286.059 4.13201 286.994 4.13201C287.591 4.13201 288.146 4.21577 288.659 4.38329C289.172 4.55082 289.629 4.79686 290.031 5.12144C290.432 5.44252 290.762 5.8369 291.02 6.30456C291.282 6.76874 291.453 7.29922 291.533 7.89602ZM295.542 15.1623C295.032 15.1623 294.573 15.0715 294.165 14.8901C293.76 14.7051 293.439 14.4329 293.202 14.0734C292.968 13.7139 292.851 13.2707 292.851 12.7437C292.851 12.29 292.935 11.9148 293.102 11.6181C293.27 11.3215 293.499 11.0842 293.788 10.9062C294.078 10.7282 294.404 10.5938 294.767 10.5031C295.134 10.4089 295.512 10.3408 295.903 10.2989C296.374 10.2501 296.757 10.2064 297.05 10.168C297.343 10.1262 297.556 10.0633 297.688 9.97958C297.824 9.89232 297.893 9.75796 297.893 9.57648V9.54507C297.893 9.15069 297.776 8.84531 297.542 8.62893C297.308 8.41255 296.971 8.30436 296.531 8.30436C296.067 8.30436 295.699 8.40557 295.427 8.60799C295.158 8.81041 294.977 9.04948 294.882 9.32519L293.113 9.07391C293.253 8.5853 293.483 8.17697 293.804 7.8489C294.125 7.51735 294.518 7.26956 294.982 7.10553C295.446 6.938 295.959 6.85424 296.521 6.85424C296.908 6.85424 297.294 6.89961 297.678 6.99035C298.062 7.0811 298.413 7.23117 298.73 7.44057C299.048 7.64648 299.303 7.92743 299.494 8.28342C299.69 8.6394 299.788 9.08438 299.788 9.61836V15H297.966V13.8954H297.903C297.788 14.1188 297.626 14.3282 297.416 14.5236C297.21 14.7156 296.95 14.8709 296.636 14.9895C296.325 15.1047 295.961 15.1623 295.542 15.1623ZM296.034 13.7698C296.414 13.7698 296.744 13.6947 297.024 13.5447C297.303 13.3911 297.517 13.1887 297.667 12.9374C297.821 12.6861 297.898 12.4121 297.898 12.1155V11.1679C297.838 11.2168 297.737 11.2622 297.594 11.304C297.455 11.3459 297.297 11.3826 297.123 11.414C296.948 11.4454 296.776 11.4733 296.605 11.4977C296.434 11.5222 296.285 11.5431 296.16 11.5606C295.877 11.599 295.624 11.6618 295.401 11.749C295.177 11.8363 295.001 11.9584 294.872 12.1155C294.743 12.269 294.678 12.468 294.678 12.7123C294.678 13.0613 294.806 13.3248 295.06 13.5028C295.315 13.6808 295.64 13.7698 296.034 13.7698ZM303.588 10.2884V15H301.693V6.95894H303.505V8.3253H303.599C303.784 7.87508 304.079 7.51735 304.483 7.25211C304.892 6.98687 305.396 6.85424 305.996 6.85424C306.551 6.85424 307.035 6.9729 307.447 7.21023C307.862 7.44755 308.183 7.79132 308.41 8.24153C308.64 8.69175 308.754 9.23794 308.75 9.88011V15H306.855V10.1733C306.855 9.63581 306.715 9.21526 306.436 8.91162C306.16 8.60799 305.778 8.45617 305.29 8.45617C304.958 8.45617 304.663 8.52946 304.405 8.67604C304.15 8.81914 303.949 9.02679 303.803 9.29902C303.66 9.57124 303.588 9.90105 303.588 10.2884ZM312.99 15.1623C312.481 15.1623 312.022 15.0715 311.614 14.8901C311.209 14.7051 310.888 14.4329 310.65 14.0734C310.417 13.7139 310.3 13.2707 310.3 12.7437C310.3 12.29 310.383 11.9148 310.551 11.6181C310.718 11.3215 310.947 11.0842 311.237 10.9062C311.526 10.7282 311.853 10.5938 312.216 10.5031C312.582 10.4089 312.961 10.3408 313.352 10.2989C313.823 10.2501 314.205 10.2064 314.498 10.168C314.791 10.1262 315.004 10.0633 315.137 9.97958C315.273 9.89232 315.341 9.75796 315.341 9.57648V9.54507C315.341 9.15069 315.224 8.84531 314.99 8.62893C314.756 8.41255 314.42 8.30436 313.98 8.30436C313.516 8.30436 313.147 8.40557 312.875 8.60799C312.607 8.81041 312.425 9.04948 312.331 9.32519L310.561 9.07391C310.701 8.5853 310.931 8.17697 311.252 7.8489C311.573 7.51735 311.966 7.26956 312.43 7.10553C312.894 6.938 313.407 6.85424 313.969 6.85424C314.357 6.85424 314.742 6.89961 315.126 6.99035C315.51 7.0811 315.861 7.23117 316.179 7.44057C316.496 7.64648 316.751 7.92743 316.943 8.28342C317.138 8.6394 317.236 9.08438 317.236 9.61836V15H315.414V13.8954H315.351C315.236 14.1188 315.074 14.3282 314.865 14.5236C314.659 14.7156 314.399 14.8709 314.085 14.9895C313.774 15.1047 313.409 15.1623 312.99 15.1623ZM313.483 13.7698C313.863 13.7698 314.193 13.6947 314.472 13.5447C314.751 13.3911 314.966 13.1887 315.116 12.9374C315.269 12.6861 315.346 12.4121 315.346 12.1155V11.1679C315.287 11.2168 315.186 11.2622 315.043 11.304C314.903 11.3459 314.746 11.3826 314.571 11.414C314.397 11.4454 314.224 11.4733 314.053 11.4977C313.882 11.5222 313.734 11.5431 313.608 11.5606C313.325 11.599 313.072 11.6618 312.849 11.749C312.626 11.8363 312.449 11.9584 312.32 12.1155C312.191 12.269 312.127 12.468 312.127 12.7123C312.127 13.0613 312.254 13.3248 312.509 13.5028C312.764 13.6808 313.088 13.7698 313.483 13.7698ZM322.126 15.1413C321.494 15.1413 320.929 14.9791 320.429 14.6545C319.93 14.3299 319.536 13.8588 319.246 13.241C318.957 12.6233 318.812 11.8729 318.812 10.9899C318.812 10.0965 318.958 9.34264 319.252 8.7284C319.548 8.11066 319.948 7.64474 320.45 7.33063C320.953 7.01304 321.513 6.85424 322.131 6.85424C322.602 6.85424 322.989 6.93451 323.293 7.09506C323.597 7.25211 323.837 7.44232 324.015 7.66568C324.193 7.88555 324.331 8.09321 324.429 8.28865H324.508V4.27859H326.408V15H324.544V13.7331H324.429C324.331 13.9286 324.19 14.1362 324.005 14.3561C323.82 14.5725 323.576 14.7574 323.272 14.911C322.968 15.0646 322.586 15.1413 322.126 15.1413ZM322.654 13.5865C323.056 13.5865 323.398 13.4783 323.68 13.262C323.963 13.0421 324.178 12.7367 324.324 12.3458C324.471 11.9549 324.544 11.4995 324.544 10.9795C324.544 10.4595 324.471 10.0075 324.324 9.62359C324.181 9.23969 323.968 8.94129 323.686 8.7284C323.406 8.5155 323.063 8.40906 322.654 8.40906C322.232 8.40906 321.88 8.51899 321.597 8.73887C321.314 8.95874 321.101 9.26237 320.958 9.64977C320.815 10.0372 320.744 10.4804 320.744 10.9795C320.744 11.482 320.815 11.9305 320.958 12.3249C321.105 12.7158 321.319 13.0246 321.602 13.2515C321.888 13.4749 322.239 13.5865 322.654 13.5865ZM330.741 15.1623C330.232 15.1623 329.773 15.0715 329.364 14.8901C328.96 14.7051 328.638 14.4329 328.401 14.0734C328.167 13.7139 328.05 13.2707 328.05 12.7437C328.05 12.29 328.134 11.9148 328.302 11.6181C328.469 11.3215 328.698 11.0842 328.987 10.9062C329.277 10.7282 329.603 10.5938 329.966 10.5031C330.333 10.4089 330.712 10.3408 331.102 10.2989C331.574 10.2501 331.956 10.2064 332.249 10.168C332.542 10.1262 332.755 10.0633 332.888 9.97958C333.024 9.89232 333.092 9.75796 333.092 9.57648V9.54507C333.092 9.15069 332.975 8.84531 332.741 8.62893C332.507 8.41255 332.17 8.30436 331.731 8.30436C331.266 8.30436 330.898 8.40557 330.626 8.60799C330.357 8.81041 330.176 9.04948 330.082 9.32519L328.312 9.07391C328.452 8.5853 328.682 8.17697 329.003 7.8489C329.324 7.51735 329.717 7.26956 330.181 7.10553C330.645 6.938 331.158 6.85424 331.72 6.85424C332.108 6.85424 332.493 6.89961 332.877 6.99035C333.261 7.0811 333.612 7.23117 333.929 7.44057C334.247 7.64648 334.502 7.92743 334.694 8.28342C334.889 8.6394 334.987 9.08438 334.987 9.61836V15H333.165V13.8954H333.102C332.987 14.1188 332.825 14.3282 332.615 14.5236C332.409 14.7156 332.149 14.8709 331.835 14.9895C331.525 15.1047 331.16 15.1623 330.741 15.1623ZM331.233 13.7698C331.614 13.7698 331.944 13.6947 332.223 13.5447C332.502 13.3911 332.717 13.1887 332.867 12.9374C333.02 12.6861 333.097 12.4121 333.097 12.1155V11.1679C333.038 11.2168 332.936 11.2622 332.793 11.304C332.654 11.3459 332.497 11.3826 332.322 11.414C332.148 11.4454 331.975 11.4733 331.804 11.4977C331.633 11.5222 331.485 11.5431 331.359 11.5606C331.076 11.599 330.823 11.6618 330.6 11.749C330.377 11.8363 330.2 11.9584 330.071 12.1155C329.942 12.269 329.877 12.468 329.877 12.7123C329.877 13.0613 330.005 13.3248 330.26 13.5028C330.514 13.6808 330.839 13.7698 331.233 13.7698ZM344.057 15.1571C343.271 15.1571 342.591 14.9843 342.015 14.6388C341.439 14.2933 340.992 13.8099 340.675 13.1887C340.361 12.5674 340.204 11.8415 340.204 11.0109C340.204 10.1803 340.361 9.45258 340.675 8.82786C340.992 8.20314 341.439 7.71803 342.015 7.37251C342.591 7.027 343.271 6.85424 344.057 6.85424C344.842 6.85424 345.522 7.027 346.098 7.37251C346.674 7.71803 347.119 8.20314 347.433 8.82786C347.751 9.45258 347.91 10.1803 347.91 11.0109C347.91 11.8415 347.751 12.5674 347.433 13.1887C347.119 13.8099 346.674 14.2933 346.098 14.6388C345.522 14.9843 344.842 15.1571 344.057 15.1571ZM344.067 13.6389C344.493 13.6389 344.849 13.522 345.135 13.2881C345.421 13.0508 345.634 12.7332 345.774 12.3354C345.917 11.9375 345.988 11.4943 345.988 11.0056C345.988 10.5136 345.917 10.0686 345.774 9.67071C345.634 9.26935 345.421 8.95001 345.135 8.71269C344.849 8.47537 344.493 8.35671 344.067 8.35671C343.631 8.35671 343.268 8.47537 342.978 8.71269C342.692 8.95001 342.477 9.26935 342.334 9.67071C342.195 10.0686 342.125 10.5136 342.125 11.0056C342.125 11.4943 342.195 11.9375 342.334 12.3354C342.477 12.7332 342.692 13.0508 342.978 13.2881C343.268 13.522 343.631 13.6389 344.067 13.6389ZM353.591 6.95894V8.42476H348.838V6.95894H353.591ZM350.026 15V6.19986C350.026 5.6589 350.138 5.20869 350.361 4.84921C350.588 4.48974 350.891 4.22101 351.272 4.04301C351.652 3.86502 352.075 3.77603 352.539 3.77603C352.867 3.77603 353.158 3.8022 353.413 3.85455C353.668 3.9069 353.856 3.95402 353.978 3.9959L353.601 5.46172C353.521 5.43729 353.42 5.41286 353.298 5.38843C353.176 5.36051 353.04 5.34655 352.889 5.34655C352.537 5.34655 352.287 5.43205 352.141 5.60306C351.998 5.77059 351.926 6.0114 351.926 6.3255V15H350.026ZM359.148 6.95894V8.42476H354.395V6.95894H359.148ZM355.583 15V6.19986C355.583 5.6589 355.695 5.20869 355.918 4.84921C356.145 4.48974 356.448 4.22101 356.829 4.04301C357.209 3.86502 357.632 3.77603 358.096 3.77603C358.424 3.77603 358.715 3.8022 358.97 3.85455C359.225 3.9069 359.413 3.95402 359.535 3.9959L359.158 5.46172C359.078 5.43729 358.977 5.41286 358.855 5.38843C358.733 5.36051 358.597 5.34655 358.446 5.34655C358.094 5.34655 357.844 5.43205 357.698 5.60306C357.555 5.77059 357.483 6.0114 357.483 6.3255V15H355.583ZM363.89 15.1571C363.083 15.1571 362.387 14.9895 361.801 14.6545C361.218 14.316 360.77 13.8378 360.455 13.2201C360.141 12.5989 359.984 11.8677 359.984 11.0266C359.984 10.1994 360.141 9.47352 360.455 8.8488C360.773 8.22059 361.216 7.73199 361.785 7.38298C362.354 7.03049 363.022 6.85424 363.79 6.85424C364.286 6.85424 364.753 6.93451 365.193 7.09506C365.636 7.25211 366.027 7.49641 366.366 7.82796C366.708 8.15952 366.977 8.58181 367.172 9.09485C367.367 9.6044 367.465 10.2117 367.465 10.9167V11.4977H360.874V10.2204H365.649C365.645 9.85742 365.567 9.53459 365.413 9.2519C365.259 8.96572 365.045 8.74061 364.769 8.57658C364.497 8.41255 364.179 8.33053 363.816 8.33053C363.429 8.33053 363.089 8.42476 362.796 8.61322C362.502 8.7982 362.274 9.0425 362.11 9.34613C361.949 9.64628 361.867 9.97609 361.864 10.3356V11.4506C361.864 11.9183 361.949 12.3196 362.12 12.6547C362.291 12.9862 362.53 13.241 362.837 13.419C363.145 13.5935 363.504 13.6808 363.916 13.6808C364.192 13.6808 364.441 13.6424 364.664 13.5656C364.888 13.4853 365.081 13.3684 365.246 13.2148C365.41 13.0613 365.533 12.8711 365.617 12.6442L367.387 12.8432C367.275 13.3108 367.062 13.7192 366.748 14.0682C366.437 14.4137 366.04 14.6824 365.554 14.8744C365.069 15.0628 364.514 15.1571 363.89 15.1571ZM369.068 15V6.95894H370.906V8.29912H370.99C371.136 7.83495 371.388 7.47722 371.744 7.22593C372.103 6.97116 372.513 6.84377 372.974 6.84377C373.078 6.84377 373.195 6.84901 373.325 6.85948C373.457 6.86646 373.567 6.87867 373.654 6.89612V8.6394C373.574 8.61148 373.447 8.58705 373.272 8.56611C373.101 8.54168 372.935 8.52946 372.775 8.52946C372.429 8.52946 372.119 8.6045 371.843 8.75457C371.571 8.90115 371.356 9.10532 371.199 9.36707C371.042 9.62883 370.964 9.93071 370.964 10.2727V15H369.068ZM376.725 11.8485V11.7124C376.728 11.0807 376.788 10.5781 376.903 10.2047C377.021 9.83125 377.189 9.53111 377.405 9.30425C377.622 9.07391 377.885 8.86276 378.196 8.67081C378.409 8.53819 378.599 8.39335 378.766 8.2363C378.937 8.07576 379.072 7.89777 379.169 7.70232C379.267 7.50339 379.316 7.28177 379.316 7.03747C379.316 6.76176 379.251 6.52269 379.122 6.32027C378.993 6.11784 378.819 5.96079 378.599 5.84911C378.382 5.73743 378.14 5.68159 377.871 5.68159C377.623 5.68159 377.388 5.73568 377.164 5.84388C376.945 5.94858 376.761 6.10912 376.615 6.3255C376.472 6.53839 376.391 6.80887 376.374 7.13694H374.51C374.528 6.47383 374.688 5.91891 374.992 5.47219C375.299 5.02546 375.704 4.69042 376.206 4.46705C376.712 4.24369 377.271 4.13201 377.882 4.13201C378.548 4.13201 379.135 4.24893 379.641 4.48276C380.15 4.71659 380.546 5.04989 380.829 5.48266C381.115 5.91193 381.258 6.42148 381.258 7.01129C381.258 7.40916 381.194 7.76514 381.065 8.07925C380.939 8.39335 380.759 8.67255 380.525 8.91686C380.292 9.16116 380.014 9.37929 379.693 9.57124C379.41 9.74574 379.178 9.92722 378.997 10.1157C378.819 10.3041 378.686 10.5258 378.599 10.7805C378.515 11.0318 378.471 11.3424 378.468 11.7124V11.8485H376.725ZM377.636 15.1152C377.321 15.1152 377.051 15.0035 376.824 14.7801C376.597 14.5568 376.484 14.2845 376.484 13.9635C376.484 13.6494 376.597 13.3806 376.824 13.1573C377.051 12.9339 377.321 12.8222 377.636 12.8222C377.946 12.8222 378.215 12.9339 378.442 13.1573C378.672 13.3806 378.787 13.6494 378.787 13.9635C378.787 14.1764 378.733 14.37 378.625 14.5445C378.52 14.7191 378.381 14.8587 378.206 14.9634C378.035 15.0646 377.845 15.1152 377.636 15.1152Z" fill="#1B1139"/>
<rect opacity="0.8" y="6.14258" width="14.7419" height="2.45699" rx="1.22849" fill="#1B1139"/>
<rect opacity="0.8" x="8.6001" width="14.7419" height="2.45699" rx="1.22849" transform="rotate(90 8.6001 0)" fill="#1B1139"/>
</svg>
