<svg width="487" height="117" viewBox="0 0 487 117" fill="none" xmlns="http://www.w3.org/2000/svg">
<g filter="url(#filter0_d_160_341)">
<rect x="14.7485" width="457" height="81.8996" rx="4.02229" fill="white"/>
</g>
<path opacity="0.88" d="M82.3132 40.656H80.3552C80.2994 40.3349 80.1965 40.0505 80.0464 39.8027C79.8963 39.5514 79.7096 39.3385 79.4862 39.164C79.2629 38.9895 79.0081 38.8587 78.7219 38.7714C78.4392 38.6807 78.1338 38.6353 77.8058 38.6353C77.2229 38.6353 76.7064 38.7819 76.2562 39.075C75.806 39.3647 75.4535 39.7905 75.1987 40.3524C74.9439 40.9108 74.8166 41.5931 74.8166 42.3993C74.8166 43.2195 74.9439 43.9105 75.1987 44.4724C75.457 45.0308 75.8095 45.4531 76.2562 45.7393C76.7064 46.022 77.2212 46.1633 77.8005 46.1633C78.1216 46.1633 78.4218 46.1214 78.701 46.0377C78.9837 45.9504 79.2367 45.823 79.4601 45.6555C79.6869 45.488 79.8771 45.2821 80.0307 45.0378C80.1877 44.7935 80.2959 44.5143 80.3552 44.2002L82.3132 44.2106C82.2399 44.7202 82.0811 45.1983 81.8368 45.645C81.596 46.0918 81.2801 46.4861 80.8892 46.8282C80.4983 47.1667 80.0411 47.4319 79.5176 47.6239C78.9941 47.8124 78.413 47.9066 77.7744 47.9066C76.832 47.9066 75.9909 47.6885 75.2511 47.2522C74.5112 46.816 73.9283 46.186 73.5026 45.3624C73.0768 44.5387 72.8639 43.551 72.8639 42.3993C72.8639 41.2441 73.0785 40.2564 73.5078 39.4363C73.9371 38.6126 74.5216 37.9827 75.2615 37.5464C76.0014 37.1101 76.839 36.892 77.7744 36.892C78.3712 36.892 78.9261 36.9758 79.4391 37.1433C79.9521 37.3108 80.4093 37.5569 80.8107 37.8814C81.2121 38.2025 81.5419 38.5969 81.8001 39.0646C82.0619 39.5287 82.2329 40.0592 82.3132 40.656ZM86.3219 47.9223C85.8124 47.9223 85.3534 47.8316 84.9451 47.6501C84.5402 47.4651 84.2192 47.1929 83.9818 46.8334C83.748 46.4739 83.6311 46.0307 83.6311 45.5037C83.6311 45.05 83.7148 44.6748 83.8824 44.3782C84.0499 44.0815 84.2785 43.8442 84.5682 43.6662C84.8578 43.4882 85.1842 43.3538 85.5471 43.2631C85.9136 43.1689 86.2922 43.1008 86.6831 43.0589C87.1543 43.0101 87.5364 42.9664 87.8296 42.928C88.1228 42.8862 88.3357 42.8233 88.4683 42.7396C88.6044 42.6523 88.6725 42.518 88.6725 42.3365V42.3051C88.6725 41.9107 88.5555 41.6053 88.3217 41.3889C88.0879 41.1726 87.7511 41.0644 87.3113 41.0644C86.8472 41.0644 86.479 41.1656 86.2067 41.368C85.938 41.5704 85.7565 41.8095 85.6623 42.0852L83.8928 41.8339C84.0324 41.3453 84.2628 40.937 84.5839 40.6089C84.905 40.2774 85.2976 40.0296 85.7618 39.8655C86.2259 39.698 86.739 39.6143 87.3009 39.6143C87.6883 39.6143 88.0739 39.6596 88.4578 39.7504C88.8417 39.8411 89.1925 39.9912 89.5101 40.2006C89.8277 40.4065 90.0824 40.6874 90.2744 41.0434C90.4698 41.3994 90.5675 41.8444 90.5675 42.3784V47.76H88.7457V46.6554H88.6829C88.5678 46.8788 88.4055 47.0882 88.1961 47.2836C87.9901 47.4756 87.7301 47.6309 87.416 47.7495C87.1054 47.8647 86.7407 47.9223 86.3219 47.9223ZM86.814 46.5298C87.1944 46.5298 87.5242 46.4547 87.8034 46.3047C88.0826 46.1511 88.2973 45.9487 88.4473 45.6974C88.6009 45.4461 88.6777 45.1721 88.6777 44.8755V43.9279C88.6184 43.9768 88.5171 44.0222 88.3741 44.0641C88.2345 44.1059 88.0774 44.1426 87.9029 44.174C87.7284 44.2054 87.5556 44.2333 87.3846 44.2578C87.2136 44.2822 87.0653 44.3031 86.9396 44.3206C86.657 44.359 86.4039 44.4218 86.1806 44.509C85.9572 44.5963 85.781 44.7184 85.6518 44.8755C85.5227 45.0291 85.4581 45.228 85.4581 45.4723C85.4581 45.8213 85.5855 46.0848 85.8403 46.2628C86.0951 46.4408 86.4196 46.5298 86.814 46.5298ZM94.3682 43.0485V47.76H92.4731V39.719H94.2844V41.0853H94.3787C94.5636 40.6351 94.8586 40.2774 95.2634 40.0121C95.6717 39.7469 96.176 39.6143 96.7763 39.6143C97.3312 39.6143 97.8146 39.7329 98.2264 39.9702C98.6418 40.2076 98.9628 40.5513 99.1897 41.0015C99.42 41.4518 99.5335 41.998 99.53 42.6401V47.76H97.6349V42.9333C97.6349 42.3958 97.4953 41.9753 97.2161 41.6716C96.9404 41.368 96.5582 41.2162 96.0696 41.2162C95.738 41.2162 95.4431 41.2895 95.1849 41.4361C94.9301 41.5791 94.7294 41.7868 94.5828 42.059C94.4397 42.3313 94.3682 42.6611 94.3682 43.0485ZM104.998 47.76V46.5507L110.495 38.6667H104.967V37.0386H112.903V38.2479L107.411 46.1319H112.934V47.76H104.998ZM114.814 47.76V37.0386H121.682V38.6667H116.756V41.5774H121.211V43.2055H116.756V47.76H114.814ZM136.285 40.656H134.327C134.272 40.3349 134.169 40.0505 134.019 39.8027C133.868 39.5514 133.682 39.3385 133.458 39.164C133.235 38.9895 132.98 38.8587 132.694 38.7714C132.411 38.6807 132.106 38.6353 131.778 38.6353C131.195 38.6353 130.679 38.7819 130.228 39.075C129.778 39.3647 129.426 39.7905 129.171 40.3524C128.916 40.9108 128.789 41.5931 128.789 42.3993C128.789 43.2195 128.916 43.9105 129.171 44.4724C129.429 45.0308 129.782 45.4531 130.228 45.7393C130.679 46.022 131.193 46.1633 131.773 46.1633C132.094 46.1633 132.394 46.1214 132.673 46.0377C132.956 45.9504 133.209 45.823 133.432 45.6555C133.659 45.488 133.849 45.2821 134.003 45.0378C134.16 44.7935 134.268 44.5143 134.327 44.2002L136.285 44.2106C136.212 44.7202 136.053 45.1983 135.809 45.645C135.568 46.0918 135.252 46.4861 134.861 46.8282C134.471 47.1667 134.013 47.4319 133.49 47.6239C132.966 47.8124 132.385 47.9066 131.747 47.9066C130.804 47.9066 129.963 47.6885 129.223 47.2522C128.483 46.816 127.901 46.186 127.475 45.3624C127.049 44.5387 126.836 43.551 126.836 42.3993C126.836 41.2441 127.051 40.2564 127.48 39.4363C127.909 38.6126 128.494 37.9827 129.234 37.5464C129.974 37.1101 130.811 36.892 131.747 36.892C132.343 36.892 132.898 36.9758 133.411 37.1433C133.924 37.3108 134.382 37.5569 134.783 37.8814C135.184 38.2025 135.514 38.5969 135.772 39.0646C136.034 39.5287 136.205 40.0592 136.285 40.656ZM140.294 47.9223C139.785 47.9223 139.326 47.8316 138.917 47.6501C138.512 47.4651 138.191 47.1929 137.954 46.8334C137.72 46.4739 137.603 46.0307 137.603 45.5037C137.603 45.05 137.687 44.6748 137.855 44.3782C138.022 44.0815 138.251 43.8442 138.54 43.6662C138.83 43.4882 139.156 43.3538 139.519 43.2631C139.886 43.1689 140.264 43.1008 140.655 43.0589C141.126 43.0101 141.509 42.9664 141.802 42.928C142.095 42.8862 142.308 42.8233 142.44 42.7396C142.577 42.6523 142.645 42.518 142.645 42.3365V42.3051C142.645 41.9107 142.528 41.6053 142.294 41.3889C142.06 41.1726 141.723 41.0644 141.284 41.0644C140.819 41.0644 140.451 41.1656 140.179 41.368C139.91 41.5704 139.729 41.8095 139.634 42.0852L137.865 41.8339C138.005 41.3453 138.235 40.937 138.556 40.6089C138.877 40.2774 139.27 40.0296 139.734 39.8655C140.198 39.698 140.711 39.6143 141.273 39.6143C141.66 39.6143 142.046 39.6596 142.43 39.7504C142.814 39.8411 143.165 39.9912 143.482 40.2006C143.8 40.4065 144.055 40.6874 144.247 41.0434C144.442 41.3994 144.54 41.8444 144.54 42.3784V47.76H142.718V46.6554H142.655C142.54 46.8788 142.378 47.0882 142.168 47.2836C141.962 47.4756 141.702 47.6309 141.388 47.7495C141.078 47.8647 140.713 47.9223 140.294 47.9223ZM140.786 46.5298C141.167 46.5298 141.496 46.4547 141.776 46.3047C142.055 46.1511 142.269 45.9487 142.42 45.6974C142.573 45.4461 142.65 45.1721 142.65 44.8755V43.9279C142.591 43.9768 142.489 44.0222 142.346 44.0641C142.207 44.1059 142.05 44.1426 141.875 44.174C141.701 44.2054 141.528 44.2333 141.357 44.2578C141.186 44.2822 141.037 44.3031 140.912 44.3206C140.629 44.359 140.376 44.4218 140.153 44.509C139.929 44.5963 139.753 44.7184 139.624 44.8755C139.495 45.0291 139.43 45.228 139.43 45.4723C139.43 45.8213 139.558 46.0848 139.812 46.2628C140.067 46.4408 140.392 46.5298 140.786 46.5298ZM148.34 43.0485V47.76H146.445V39.719H148.257V41.0853H148.351C148.536 40.6351 148.831 40.2774 149.236 40.0121C149.644 39.7469 150.148 39.6143 150.749 39.6143C151.303 39.6143 151.787 39.7329 152.199 39.9702C152.614 40.2076 152.935 40.5513 153.162 41.0015C153.392 41.4518 153.506 41.998 153.502 42.6401V47.76H151.607V42.9333C151.607 42.3958 151.467 41.9753 151.188 41.6716C150.913 41.368 150.53 41.2162 150.042 41.2162C149.71 41.2162 149.415 41.2895 149.157 41.4361C148.902 41.5791 148.702 41.7868 148.555 42.059C148.412 42.3313 148.34 42.6611 148.34 43.0485ZM157.743 47.9223C157.233 47.9223 156.774 47.8316 156.366 47.6501C155.961 47.4651 155.64 47.1929 155.402 46.8334C155.169 46.4739 155.052 46.0307 155.052 45.5037C155.052 45.05 155.135 44.6748 155.303 44.3782C155.471 44.0815 155.699 43.8442 155.989 43.6662C156.278 43.4882 156.605 43.3538 156.968 43.2631C157.334 43.1689 157.713 43.1008 158.104 43.0589C158.575 43.0101 158.957 42.9664 159.25 42.928C159.543 42.8862 159.756 42.8233 159.889 42.7396C160.025 42.6523 160.093 42.518 160.093 42.3365V42.3051C160.093 41.9107 159.976 41.6053 159.742 41.3889C159.509 41.1726 159.172 41.0644 158.732 41.0644C158.268 41.0644 157.9 41.1656 157.627 41.368C157.359 41.5704 157.177 41.8095 157.083 42.0852L155.313 41.8339C155.453 41.3453 155.683 40.937 156.005 40.6089C156.326 40.2774 156.718 40.0296 157.182 39.8655C157.647 39.698 158.16 39.6143 158.722 39.6143C159.109 39.6143 159.495 39.6596 159.878 39.7504C160.262 39.8411 160.613 39.9912 160.931 40.2006C161.248 40.4065 161.503 40.6874 161.695 41.0434C161.89 41.3994 161.988 41.8444 161.988 42.3784V47.76H160.166V46.6554H160.104C159.988 46.8788 159.826 47.0882 159.617 47.2836C159.411 47.4756 159.151 47.6309 158.837 47.7495C158.526 47.8647 158.161 47.9223 157.743 47.9223ZM158.235 46.5298C158.615 46.5298 158.945 46.4547 159.224 46.3047C159.503 46.1511 159.718 45.9487 159.868 45.6974C160.022 45.4461 160.098 45.1721 160.098 44.8755V43.9279C160.039 43.9768 159.938 44.0222 159.795 44.0641C159.655 44.1059 159.498 44.1426 159.324 44.174C159.149 44.2054 158.976 44.2333 158.805 44.2578C158.634 44.2822 158.486 44.3031 158.36 44.3206C158.078 44.359 157.825 44.4218 157.601 44.509C157.378 44.5963 157.202 44.7184 157.072 44.8755C156.943 45.0291 156.879 45.228 156.879 45.4723C156.879 45.8213 157.006 46.0848 157.261 46.2628C157.516 46.4408 157.84 46.5298 158.235 46.5298ZM166.878 47.9014C166.246 47.9014 165.681 47.7391 165.182 47.4145C164.682 47.0899 164.288 46.6188 163.998 46.001C163.709 45.3833 163.564 44.6329 163.564 43.75C163.564 42.8565 163.711 42.1027 164.004 41.4884C164.3 40.8707 164.7 40.4047 165.203 40.0906C165.705 39.7731 166.265 39.6143 166.883 39.6143C167.354 39.6143 167.742 39.6945 168.045 39.8551C168.349 40.0121 168.59 40.2023 168.768 40.4257C168.946 40.6456 169.083 40.8532 169.181 41.0487H169.26V37.0386H171.16V47.76H169.296V46.4931H169.181C169.083 46.6886 168.942 46.8962 168.757 47.1161C168.572 47.3325 168.328 47.5175 168.024 47.671C167.721 47.8246 167.338 47.9014 166.878 47.9014ZM167.406 46.3465C167.808 46.3465 168.15 46.2384 168.433 46.022C168.715 45.8021 168.93 45.4967 169.076 45.1058C169.223 44.7149 169.296 44.2595 169.296 43.7395C169.296 43.2195 169.223 42.7675 169.076 42.3836C168.933 41.9997 168.72 41.7013 168.438 41.4884C168.159 41.2755 167.815 41.1691 167.406 41.1691C166.984 41.1691 166.632 41.279 166.349 41.4989C166.066 41.7187 165.853 42.0224 165.71 42.4098C165.567 42.7972 165.496 43.2404 165.496 43.7395C165.496 44.242 165.567 44.6905 165.71 45.0849C165.857 45.4758 166.072 45.7846 166.354 46.0115C166.64 46.2349 166.991 46.3465 167.406 46.3465ZM175.493 47.9223C174.984 47.9223 174.525 47.8316 174.117 47.6501C173.712 47.4651 173.391 47.1929 173.153 46.8334C172.919 46.4739 172.803 46.0307 172.803 45.5037C172.803 45.05 172.886 44.6748 173.054 44.3782C173.221 44.0815 173.45 43.8442 173.74 43.6662C174.029 43.4882 174.356 43.3538 174.719 43.2631C175.085 43.1689 175.464 43.1008 175.855 43.0589C176.326 43.0101 176.708 42.9664 177.001 42.928C177.294 42.8862 177.507 42.8233 177.64 42.7396C177.776 42.6523 177.844 42.518 177.844 42.3365V42.3051C177.844 41.9107 177.727 41.6053 177.493 41.3889C177.259 41.1726 176.923 41.0644 176.483 41.0644C176.019 41.0644 175.65 41.1656 175.378 41.368C175.109 41.5704 174.928 41.8095 174.834 42.0852L173.064 41.8339C173.204 41.3453 173.434 40.937 173.755 40.6089C174.076 40.2774 174.469 40.0296 174.933 39.8655C175.397 39.698 175.91 39.6143 176.472 39.6143C176.86 39.6143 177.245 39.6596 177.629 39.7504C178.013 39.8411 178.364 39.9912 178.681 40.2006C178.999 40.4065 179.254 40.6874 179.446 41.0434C179.641 41.3994 179.739 41.8444 179.739 42.3784V47.76H177.917V46.6554H177.854C177.739 46.8788 177.577 47.0882 177.367 47.2836C177.162 47.4756 176.902 47.6309 176.587 47.7495C176.277 47.8647 175.912 47.9223 175.493 47.9223ZM175.985 46.5298C176.366 46.5298 176.696 46.4547 176.975 46.3047C177.254 46.1511 177.469 45.9487 177.619 45.6974C177.772 45.4461 177.849 45.1721 177.849 44.8755V43.9279C177.79 43.9768 177.689 44.0222 177.545 44.0641C177.406 44.1059 177.249 44.1426 177.074 44.174C176.9 44.2054 176.727 44.2333 176.556 44.2578C176.385 44.2822 176.237 44.3031 176.111 44.3206C175.828 44.359 175.575 44.4218 175.352 44.509C175.129 44.5963 174.952 44.7184 174.823 44.8755C174.694 45.0291 174.63 45.228 174.63 45.4723C174.63 45.8213 174.757 46.0848 175.012 46.2628C175.266 46.4408 175.591 46.5298 175.985 46.5298ZM187.196 43.0485V47.76H185.301V37.0386H187.154V41.0853H187.249C187.437 40.6316 187.729 40.2739 188.123 40.0121C188.521 39.7469 189.027 39.6143 189.641 39.6143C190.2 39.6143 190.686 39.7312 191.102 39.965C191.517 40.1988 191.838 40.5409 192.065 40.9911C192.295 41.4413 192.41 41.991 192.41 42.6401V47.76H190.515V42.9333C190.515 42.3923 190.376 41.9718 190.097 41.6716C189.821 41.368 189.433 41.2162 188.934 41.2162C188.599 41.2162 188.299 41.2895 188.034 41.4361C187.772 41.5791 187.566 41.7868 187.416 42.059C187.27 42.3313 187.196 42.6611 187.196 43.0485ZM197.902 47.9171C197.096 47.9171 196.4 47.7495 195.813 47.4145C195.23 47.076 194.782 46.5978 194.468 45.9801C194.154 45.3589 193.997 44.6277 193.997 43.7866C193.997 42.9595 194.154 42.2335 194.468 41.6088C194.785 40.9806 195.229 40.492 195.798 40.143C196.366 39.7905 197.035 39.6143 197.803 39.6143C198.298 39.6143 198.766 39.6945 199.206 39.8551C199.649 40.0121 200.04 40.2564 200.378 40.588C200.72 40.9195 200.989 41.3418 201.184 41.8549C201.38 42.3644 201.478 42.9717 201.478 43.6767V44.2578H194.887V42.9804H199.661C199.658 42.6174 199.579 42.2946 199.425 42.0119C199.272 41.7257 199.057 41.5006 198.782 41.3366C198.509 41.1726 198.192 41.0905 197.829 41.0905C197.441 41.0905 197.101 41.1848 196.808 41.3732C196.515 41.5582 196.286 41.8025 196.122 42.1061C195.962 42.4063 195.88 42.7361 195.876 43.0956V44.2106C195.876 44.6783 195.962 45.0797 196.133 45.4147C196.304 45.7463 196.543 46.001 196.85 46.179C197.157 46.3535 197.516 46.4408 197.928 46.4408C198.204 46.4408 198.453 46.4024 198.677 46.3256C198.9 46.2453 199.094 46.1284 199.258 45.9749C199.422 45.8213 199.546 45.6311 199.63 45.4042L201.399 45.6032C201.287 46.0708 201.074 46.4792 200.76 46.8282C200.45 47.1737 200.052 47.4424 199.567 47.6344C199.082 47.8228 198.527 47.9171 197.902 47.9171ZM204.976 37.0386V47.76H203.081V37.0386H204.976ZM206.925 50.7754V39.719H208.788V41.0487H208.898C208.996 40.8532 209.134 40.6456 209.312 40.4257C209.49 40.2023 209.731 40.0121 210.034 39.8551C210.338 39.6945 210.725 39.6143 211.196 39.6143C211.818 39.6143 212.378 39.7731 212.877 40.0906C213.379 40.4047 213.777 40.8707 214.071 41.4884C214.367 42.1027 214.515 42.8565 214.515 43.75C214.515 44.6329 214.371 45.3833 214.081 46.001C213.791 46.6188 213.397 47.0899 212.898 47.4145C212.399 47.7391 211.833 47.9014 211.202 47.9014C210.741 47.9014 210.359 47.8246 210.055 47.671C209.752 47.5175 209.507 47.3325 209.322 47.1161C209.141 46.8962 208.999 46.6886 208.898 46.4931H208.82V50.7754H206.925ZM208.783 43.7395C208.783 44.2595 208.856 44.7149 209.003 45.1058C209.153 45.4967 209.368 45.8021 209.647 46.022C209.93 46.2384 210.272 46.3465 210.673 46.3465C211.092 46.3465 211.443 46.2349 211.725 46.0115C212.008 45.7846 212.221 45.4758 212.364 45.0849C212.51 44.6905 212.584 44.242 212.584 43.7395C212.584 43.2404 212.512 42.7972 212.369 42.4098C212.226 42.0224 212.013 41.7187 211.73 41.4989C211.448 41.279 211.095 41.1691 210.673 41.1691C210.268 41.1691 209.924 41.2755 209.642 41.4884C209.359 41.7013 209.144 41.9997 208.998 42.3836C208.855 42.7675 208.783 43.2195 208.783 43.7395ZM221.455 47.76L219.183 39.719H221.114L222.528 45.3728H222.601L224.046 39.719H225.957L227.402 45.3414H227.48L228.873 39.719H230.81L228.532 47.76H226.559L225.051 42.326H224.941L223.433 47.76H221.455ZM232.133 47.76V39.719H234.028V47.76H232.133ZM233.086 38.5777C232.785 38.5777 232.527 38.4782 232.311 38.2793C232.094 38.0769 231.986 37.8343 231.986 37.5516C231.986 37.2655 232.094 37.0229 232.311 36.824C232.527 36.6215 232.785 36.5203 233.086 36.5203C233.389 36.5203 233.647 36.6215 233.86 36.824C234.077 37.0229 234.185 37.2655 234.185 37.5516C234.185 37.8343 234.077 38.0769 233.86 38.2793C233.647 38.4782 233.389 38.5777 233.086 38.5777ZM239.992 39.719V41.1848H235.369V39.719H239.992ZM236.511 37.7925H238.406V45.3414C238.406 45.5962 238.444 45.7916 238.521 45.9277C238.601 46.0604 238.706 46.1511 238.835 46.2C238.964 46.2488 239.107 46.2733 239.264 46.2733C239.383 46.2733 239.491 46.2645 239.589 46.2471C239.69 46.2296 239.767 46.2139 239.819 46.2L240.138 47.6815C240.037 47.7164 239.892 47.7548 239.704 47.7967C239.519 47.8385 239.292 47.863 239.023 47.8699C238.549 47.8839 238.121 47.8124 237.741 47.6553C237.36 47.4948 237.059 47.247 236.835 46.9119C236.615 46.5769 236.507 46.1581 236.511 45.6555V37.7925ZM243.645 43.0485V47.76H241.75V37.0386H243.603V41.0853H243.697C243.886 40.6316 244.177 40.2739 244.571 40.0121C244.969 39.7469 245.475 39.6143 246.089 39.6143C246.648 39.6143 247.135 39.7312 247.55 39.965C247.965 40.1988 248.286 40.5409 248.513 40.9911C248.744 41.4413 248.859 41.991 248.859 42.6401V47.76H246.964V42.9333C246.964 42.3923 246.824 41.9718 246.545 41.6716C246.269 41.368 245.882 41.2162 245.383 41.2162C245.048 41.2162 244.748 41.2895 244.482 41.4361C244.221 41.5791 244.015 41.7868 243.865 42.059C243.718 42.3313 243.645 42.6611 243.645 43.0485ZM261.63 39.719L258.766 47.76H256.672L253.809 39.719H255.829L257.677 45.6922H257.761L259.614 39.719H261.63ZM262.941 47.76V39.719H264.836V47.76H262.941ZM263.894 38.5777C263.594 38.5777 263.336 38.4782 263.119 38.2793C262.903 38.0769 262.795 37.8343 262.795 37.5516C262.795 37.2655 262.903 37.0229 263.119 36.824C263.336 36.6215 263.594 36.5203 263.894 36.5203C264.198 36.5203 264.456 36.6215 264.669 36.824C264.885 37.0229 264.993 37.2655 264.993 37.5516C264.993 37.8343 264.885 38.0769 264.669 38.2793C264.456 38.4782 264.198 38.5777 263.894 38.5777ZM273.14 41.8444L271.413 42.0329C271.364 41.8583 271.278 41.6943 271.156 41.5408C271.038 41.3872 270.877 41.2633 270.675 41.1691C270.472 41.0748 270.224 41.0277 269.931 41.0277C269.537 41.0277 269.205 41.1132 268.937 41.2842C268.671 41.4552 268.54 41.6769 268.544 41.9491C268.54 42.1829 268.626 42.3731 268.8 42.5197C268.978 42.6663 269.272 42.7867 269.68 42.8809L271.052 43.1741C271.812 43.3381 272.378 43.5981 272.748 43.9541C273.121 44.3101 273.31 44.776 273.313 45.3519C273.31 45.8579 273.161 46.3047 272.868 46.6921C272.578 47.076 272.175 47.3761 271.659 47.5925C271.142 47.8089 270.549 47.9171 269.879 47.9171C268.895 47.9171 268.102 47.7111 267.502 47.2993C266.902 46.884 266.544 46.3064 266.429 45.5665L268.277 45.3885C268.361 45.7515 268.539 46.0255 268.811 46.2104C269.083 46.3954 269.437 46.4879 269.874 46.4879C270.324 46.4879 270.685 46.3954 270.957 46.2104C271.233 46.0255 271.371 45.7969 271.371 45.5246C271.371 45.2943 271.282 45.1041 271.104 44.954C270.929 44.8039 270.657 44.6888 270.287 44.6085L268.916 44.3206C268.144 44.16 267.574 43.8896 267.204 43.5091C266.834 43.1252 266.651 42.6401 266.654 42.0538C266.651 41.5582 266.785 41.1289 267.057 40.766C267.333 40.3995 267.715 40.1168 268.204 39.9179C268.696 39.7155 269.263 39.6143 269.905 39.6143C270.847 39.6143 271.589 39.8149 272.13 40.2163C272.674 40.6176 273.011 41.1603 273.14 41.8444ZM277.19 47.9223C276.68 47.9223 276.221 47.8316 275.813 47.6501C275.408 47.4651 275.087 47.1929 274.85 46.8334C274.616 46.4739 274.499 46.0307 274.499 45.5037C274.499 45.05 274.583 44.6748 274.75 44.3782C274.918 44.0815 275.146 43.8442 275.436 43.6662C275.726 43.4882 276.052 43.3538 276.415 43.2631C276.781 43.1689 277.16 43.1008 277.551 43.0589C278.022 43.0101 278.404 42.9664 278.697 42.928C278.991 42.8862 279.203 42.8233 279.336 42.7396C279.472 42.6523 279.54 42.518 279.54 42.3365V42.3051C279.54 41.9107 279.423 41.6053 279.189 41.3889C278.956 41.1726 278.619 41.0644 278.179 41.0644C277.715 41.0644 277.347 41.1656 277.074 41.368C276.806 41.5704 276.624 41.8095 276.53 42.0852L274.761 41.8339C274.9 41.3453 275.131 40.937 275.452 40.6089C275.773 40.2774 276.165 40.0296 276.63 39.8655C277.094 39.698 277.607 39.6143 278.169 39.6143C278.556 39.6143 278.942 39.6596 279.326 39.7504C279.709 39.8411 280.06 39.9912 280.378 40.2006C280.695 40.4065 280.95 40.6874 281.142 41.0434C281.338 41.3994 281.435 41.8444 281.435 42.3784V47.76H279.613V46.6554H279.551C279.435 46.8788 279.273 47.0882 279.064 47.2836C278.858 47.4756 278.598 47.6309 278.284 47.7495C277.973 47.8647 277.608 47.9223 277.19 47.9223ZM277.682 46.5298C278.062 46.5298 278.392 46.4547 278.671 46.3047C278.95 46.1511 279.165 45.9487 279.315 45.6974C279.469 45.4461 279.545 45.1721 279.545 44.8755V43.9279C279.486 43.9768 279.385 44.0222 279.242 44.0641C279.102 44.1059 278.945 44.1426 278.771 44.174C278.596 44.2054 278.423 44.2333 278.252 44.2578C278.081 44.2822 277.933 44.3031 277.807 44.3206C277.525 44.359 277.272 44.4218 277.048 44.509C276.825 44.5963 276.649 44.7184 276.52 44.8755C276.39 45.0291 276.326 45.228 276.326 45.4723C276.326 45.8213 276.453 46.0848 276.708 46.2628C276.963 46.4408 277.287 46.5298 277.682 46.5298ZM286.998 47.76V39.719H288.835V41.0591H288.919C289.065 40.595 289.317 40.2372 289.673 39.9859C290.032 39.7312 290.442 39.6038 290.903 39.6038C291.008 39.6038 291.125 39.609 291.254 39.6195C291.386 39.6265 291.496 39.6387 291.583 39.6561V41.3994C291.503 41.3715 291.376 41.3471 291.201 41.3261C291.03 41.3017 290.865 41.2895 290.704 41.2895C290.358 41.2895 290.048 41.3645 289.772 41.5146C289.5 41.6612 289.285 41.8653 289.128 42.1271C288.971 42.3888 288.893 42.6907 288.893 43.0327V47.76H286.998ZM296.071 47.9171C295.265 47.9171 294.569 47.7495 293.982 47.4145C293.4 47.076 292.951 46.5978 292.637 45.9801C292.323 45.3589 292.166 44.6277 292.166 43.7866C292.166 42.9595 292.323 42.2335 292.637 41.6088C292.955 40.9806 293.398 40.492 293.967 40.143C294.536 39.7905 295.204 39.6143 295.972 39.6143C296.467 39.6143 296.935 39.6945 297.375 39.8551C297.818 40.0121 298.209 40.2564 298.547 40.588C298.889 40.9195 299.158 41.3418 299.354 41.8549C299.549 42.3644 299.647 42.9717 299.647 43.6767V44.2578H293.056V42.9804H297.83C297.827 42.6174 297.748 42.2946 297.595 42.0119C297.441 41.7257 297.226 41.5006 296.951 41.3366C296.678 41.1726 296.361 41.0905 295.998 41.0905C295.611 41.0905 295.27 41.1848 294.977 41.3732C294.684 41.5582 294.455 41.8025 294.291 42.1061C294.131 42.4063 294.049 42.7361 294.045 43.0956V44.2106C294.045 44.6783 294.131 45.0797 294.302 45.4147C294.473 45.7463 294.712 46.001 295.019 46.179C295.326 46.3535 295.686 46.4408 296.097 46.4408C296.373 46.4408 296.623 46.4024 296.846 46.3256C297.069 46.2453 297.263 46.1284 297.427 45.9749C297.591 45.8213 297.715 45.6311 297.799 45.4042L299.568 45.6032C299.457 46.0708 299.244 46.4792 298.93 46.8282C298.619 47.1737 298.221 47.4424 297.736 47.6344C297.251 47.8228 296.696 47.9171 296.071 47.9171ZM305.323 39.719V41.1848H300.569V39.719H305.323ZM301.758 47.76V38.9599C301.758 38.4189 301.869 37.9687 302.093 37.6092C302.32 37.2497 302.623 36.981 303.004 36.803C303.384 36.625 303.806 36.536 304.271 36.536C304.599 36.536 304.89 36.5622 305.145 36.6146C305.4 36.6669 305.588 36.714 305.71 36.7559L305.333 38.2217C305.253 38.1973 305.152 38.1729 305.03 38.1484C304.908 38.1205 304.771 38.1066 304.621 38.1066C304.269 38.1066 304.019 38.1921 303.873 38.3631C303.73 38.5306 303.658 38.7714 303.658 39.0855V47.76H301.758ZM311.932 44.3782V39.719H313.827V47.76H311.99V46.3308H311.906C311.724 46.7811 311.426 47.1493 311.011 47.4354C310.599 47.7216 310.091 47.8647 309.487 47.8647C308.96 47.8647 308.494 47.7478 308.09 47.514C307.688 47.2766 307.374 46.9329 307.147 46.4827C306.92 46.0289 306.807 45.481 306.807 44.8388V39.719H308.702V44.5457C308.702 45.0552 308.842 45.4601 309.121 45.7602C309.4 46.0604 309.767 46.2104 310.22 46.2104C310.499 46.2104 310.77 46.1424 311.032 46.0063C311.293 45.8702 311.508 45.6677 311.676 45.399C311.847 45.1268 311.932 44.7865 311.932 44.3782ZM322.131 41.8444L320.404 42.0329C320.355 41.8583 320.269 41.6943 320.147 41.5408C320.029 41.3872 319.868 41.2633 319.666 41.1691C319.463 41.0748 319.215 41.0277 318.922 41.0277C318.528 41.0277 318.196 41.1132 317.928 41.2842C317.662 41.4552 317.531 41.6769 317.535 41.9491C317.531 42.1829 317.617 42.3731 317.791 42.5197C317.969 42.6663 318.263 42.7867 318.671 42.8809L320.043 43.1741C320.803 43.3381 321.369 43.5981 321.739 43.9541C322.112 44.3101 322.301 44.776 322.304 45.3519C322.301 45.8579 322.152 46.3047 321.859 46.6921C321.569 47.076 321.166 47.3761 320.65 47.5925C320.133 47.8089 319.54 47.9171 318.87 47.9171C317.886 47.9171 317.093 47.7111 316.493 47.2993C315.893 46.884 315.535 46.3064 315.42 45.5665L317.268 45.3885C317.352 45.7515 317.53 46.0255 317.802 46.2104C318.074 46.3954 318.428 46.4879 318.865 46.4879C319.315 46.4879 319.676 46.3954 319.948 46.2104C320.224 46.0255 320.362 45.7969 320.362 45.5246C320.362 45.2943 320.273 45.1041 320.095 44.954C319.92 44.8039 319.648 44.6888 319.278 44.6085L317.907 44.3206C317.135 44.16 316.565 43.8896 316.195 43.5091C315.825 43.1252 315.642 42.6401 315.645 42.0538C315.642 41.5582 315.776 41.1289 316.048 40.766C316.324 40.3995 316.706 40.1168 317.195 39.9179C317.687 39.7155 318.254 39.6143 318.896 39.6143C319.838 39.6143 320.58 39.8149 321.121 40.2163C321.665 40.6176 322.002 41.1603 322.131 41.8444ZM326.181 47.9223C325.671 47.9223 325.212 47.8316 324.804 47.6501C324.399 47.4651 324.078 47.1929 323.841 46.8334C323.607 46.4739 323.49 46.0307 323.49 45.5037C323.49 45.05 323.574 44.6748 323.741 44.3782C323.909 44.0815 324.137 43.8442 324.427 43.6662C324.717 43.4882 325.043 43.3538 325.406 43.2631C325.772 43.1689 326.151 43.1008 326.542 43.0589C327.013 43.0101 327.395 42.9664 327.688 42.928C327.982 42.8862 328.194 42.8233 328.327 42.7396C328.463 42.6523 328.531 42.518 328.531 42.3365V42.3051C328.531 41.9107 328.414 41.6053 328.18 41.3889C327.947 41.1726 327.61 41.0644 327.17 41.0644C326.706 41.0644 326.338 41.1656 326.065 41.368C325.797 41.5704 325.615 41.8095 325.521 42.0852L323.752 41.8339C323.891 41.3453 324.122 40.937 324.443 40.6089C324.764 40.2774 325.156 40.0296 325.621 39.8655C326.085 39.698 326.598 39.6143 327.16 39.6143C327.547 39.6143 327.933 39.6596 328.317 39.7504C328.7 39.8411 329.051 39.9912 329.369 40.2006C329.686 40.4065 329.941 40.6874 330.133 41.0434C330.329 41.3994 330.426 41.8444 330.426 42.3784V47.76H328.605V46.6554H328.542C328.427 46.8788 328.264 47.0882 328.055 47.2836C327.849 47.4756 327.589 47.6309 327.275 47.7495C326.964 47.8647 326.599 47.9223 326.181 47.9223ZM326.673 46.5298C327.053 46.5298 327.383 46.4547 327.662 46.3047C327.941 46.1511 328.156 45.9487 328.306 45.6974C328.46 45.4461 328.536 45.1721 328.536 44.8755V43.9279C328.477 43.9768 328.376 44.0222 328.233 44.0641C328.093 44.1059 327.936 44.1426 327.762 44.174C327.587 44.2054 327.414 44.2333 327.243 44.2578C327.072 44.2822 326.924 44.3031 326.798 44.3206C326.516 44.359 326.263 44.4218 326.039 44.509C325.816 44.5963 325.64 44.7184 325.511 44.8755C325.381 45.0291 325.317 45.228 325.317 45.4723C325.317 45.8213 325.444 46.0848 325.699 46.2628C325.954 46.4408 326.278 46.5298 326.673 46.5298ZM334.227 37.0386V47.76H332.332V37.0386H334.227ZM342.531 41.8444L340.804 42.0329C340.755 41.8583 340.669 41.6943 340.547 41.5408C340.428 41.3872 340.268 41.2633 340.065 41.1691C339.863 41.0748 339.615 41.0277 339.322 41.0277C338.928 41.0277 338.596 41.1132 338.327 41.2842C338.062 41.4552 337.931 41.6769 337.935 41.9491C337.931 42.1829 338.017 42.3731 338.191 42.5197C338.369 42.6663 338.662 42.7867 339.071 42.8809L340.442 43.1741C341.203 43.3381 341.769 43.5981 342.138 43.9541C342.512 44.3101 342.7 44.776 342.704 45.3519C342.7 45.8579 342.552 46.3047 342.259 46.6921C341.969 47.076 341.566 47.3761 341.05 47.5925C340.533 47.8089 339.94 47.9171 339.27 47.9171C338.285 47.9171 337.493 47.7111 336.893 47.2993C336.293 46.884 335.935 46.3064 335.82 45.5665L337.668 45.3885C337.751 45.7515 337.929 46.0255 338.202 46.2104C338.474 46.3954 338.828 46.4879 339.264 46.4879C339.715 46.4879 340.076 46.3954 340.348 46.2104C340.624 46.0255 340.762 45.7969 340.762 45.5246C340.762 45.2943 340.673 45.1041 340.495 44.954C340.32 44.8039 340.048 44.6888 339.678 44.6085L338.306 44.3206C337.535 44.16 336.964 43.8896 336.595 43.5091C336.225 43.1252 336.041 42.6401 336.045 42.0538C336.041 41.5582 336.176 41.1289 336.448 40.766C336.724 40.3995 337.106 40.1168 337.594 39.9179C338.087 39.7155 338.654 39.6143 339.296 39.6143C340.238 39.6143 340.98 39.8149 341.521 40.2163C342.065 40.6176 342.402 41.1603 342.531 41.8444ZM346.078 44.6085V44.4724C346.081 43.8407 346.141 43.3381 346.256 42.9647C346.374 42.5913 346.542 42.2911 346.758 42.0643C346.975 41.8339 347.238 41.6228 347.549 41.4308C347.762 41.2982 347.952 41.1534 348.12 40.9963C348.291 40.8358 348.425 40.6578 348.523 40.4623C348.62 40.2634 348.669 40.0418 348.669 39.7975C348.669 39.5218 348.605 39.2827 348.475 39.0803C348.346 38.8779 348.172 38.7208 347.952 38.6091C347.736 38.4974 347.493 38.4416 347.224 38.4416C346.977 38.4416 346.741 38.4957 346.518 38.6039C346.298 38.7086 346.114 38.8691 345.968 39.0855C345.825 39.2984 345.745 39.5689 345.727 39.8969H343.863C343.881 39.2338 344.041 38.6789 344.345 38.2322C344.652 37.7855 345.057 37.4504 345.56 37.2271C346.066 37.0037 346.624 36.892 347.235 36.892C347.901 36.892 348.488 37.0089 348.994 37.2428C349.503 37.4766 349.899 37.8099 350.182 38.2427C350.468 38.6719 350.611 39.1815 350.611 39.7713C350.611 40.1692 350.547 40.5252 350.418 40.8393C350.292 41.1534 350.112 41.4326 349.878 41.6769C349.645 41.9212 349.367 42.1393 349.046 42.3313C348.763 42.5058 348.531 42.6872 348.35 42.8757C348.172 43.0642 348.039 43.2858 347.952 43.5405C347.868 43.7918 347.825 44.1024 347.821 44.4724V44.6085H346.078ZM346.989 47.8752C346.675 47.8752 346.404 47.7635 346.177 47.5401C345.95 47.3168 345.837 47.0446 345.837 46.7235C345.837 46.4094 345.95 46.1406 346.177 45.9173C346.404 45.6939 346.675 45.5822 346.989 45.5822C347.299 45.5822 347.568 45.6939 347.795 45.9173C348.025 46.1406 348.14 46.4094 348.14 46.7235C348.14 46.9364 348.086 47.1301 347.978 47.3046C347.873 47.4791 347.734 47.6187 347.559 47.7234C347.388 47.8246 347.198 47.8752 346.989 47.8752Z" fill="#1B1139"/>
<rect opacity="0.8" x="45.8701" y="38.9023" width="14.7419" height="2.45699" rx="1.22849" fill="#1B1139"/>
<rect opacity="0.8" x="54.4702" y="32.76" width="14.7419" height="2.45699" rx="1.22849" transform="rotate(90 54.4702 32.76)" fill="#1B1139"/>
<defs>
<filter id="filter0_d_160_341" x="0.000139236" y="0" width="486.497" height="116.76" filterUnits="userSpaceOnUse" color-interpolation-filters="sRGB">
<feFlood flood-opacity="0" result="BackgroundImageFix"/>
<feColorMatrix in="SourceAlpha" type="matrix" values="0 0 0 0 0 0 0 0 0 0 0 0 0 0 0 0 0 0 127 0" result="hardAlpha"/>
<feMorphology radius="12.0669" operator="erode" in="SourceAlpha" result="effect1_dropShadow_160_341"/>
<feOffset dy="20.1114"/>
<feGaussianBlur stdDeviation="13.4076"/>
<feColorMatrix type="matrix" values="0 0 0 0 0.583333 0 0 0 0 0.583333 0 0 0 0 0.583333 0 0 0 0.25 0"/>
<feBlend mode="normal" in2="BackgroundImageFix" result="effect1_dropShadow_160_341"/>
<feBlend mode="normal" in="SourceGraphic" in2="effect1_dropShadow_160_341" result="shape"/>
</filter>
</defs>
</svg>
