<svg width="385" height="19" viewBox="0 0 385 19" fill="none" xmlns="http://www.w3.org/2000/svg">
<path opacity="0.88" d="M36.443 7.89602H34.4851C34.4293 7.57494 34.3263 7.2905 34.1763 7.04271C34.0262 6.79142 33.8395 6.57853 33.6161 6.40403C33.3927 6.22953 33.138 6.09865 32.8518 6.0114C32.5691 5.92066 32.2637 5.87529 31.9357 5.87529C31.3528 5.87529 30.8363 6.02187 30.3861 6.31503C29.9359 6.6047 29.5834 7.03049 29.3286 7.59239C29.0738 8.15079 28.9464 8.8331 28.9464 9.6393C28.9464 10.4595 29.0738 11.1505 29.3286 11.7124C29.5869 12.2708 29.9394 12.6931 30.3861 12.9793C30.8363 13.262 31.3511 13.4033 31.9304 13.4033C32.2515 13.4033 32.5516 13.3614 32.8308 13.2777C33.1135 13.1904 33.3666 13.063 33.5899 12.8955C33.8168 12.728 34.007 12.5221 34.1606 12.2778C34.3176 12.0335 34.4258 11.7543 34.4851 11.4402L36.443 11.4506C36.3698 11.9602 36.211 12.4383 35.9667 12.885C35.7258 13.3318 35.41 13.7261 35.0191 14.0682C34.6282 14.4067 34.171 14.6719 33.6475 14.8639C33.124 15.0524 32.5429 15.1466 31.9042 15.1466C30.9619 15.1466 30.1208 14.9285 29.3809 14.4922C28.6411 14.0559 28.0582 13.426 27.6324 12.6023C27.2066 11.7787 26.9938 10.791 26.9938 9.6393C26.9938 8.48409 27.2084 7.49641 27.6377 6.67625C28.0669 5.8526 28.6515 5.22265 29.3914 4.78639C30.1313 4.35014 30.9689 4.13201 31.9042 4.13201C32.501 4.13201 33.056 4.21577 33.569 4.38329C34.082 4.55082 34.5392 4.79686 34.9406 5.12144C35.3419 5.44252 35.6717 5.8369 35.93 6.30456C36.1918 6.76874 36.3628 7.29922 36.443 7.89602ZM40.4518 15.1623C39.9422 15.1623 39.4833 15.0715 39.075 14.8901C38.6701 14.7051 38.349 14.4329 38.1117 14.0734C37.8779 13.7139 37.761 13.2707 37.761 12.7437C37.761 12.29 37.8447 11.9148 38.0123 11.6181C38.1798 11.3215 38.4084 11.0842 38.698 10.9062C38.9877 10.7282 39.314 10.5938 39.677 10.5031C40.0435 10.4089 40.4221 10.3408 40.813 10.2989C41.2842 10.2501 41.6663 10.2064 41.9595 10.168C42.2527 10.1262 42.4655 10.0633 42.5982 9.97958C42.7343 9.89232 42.8023 9.75796 42.8023 9.57648V9.54507C42.8023 9.15069 42.6854 8.84531 42.4516 8.62893C42.2178 8.41255 41.881 8.30436 41.4412 8.30436C40.977 8.30436 40.6088 8.40557 40.3366 8.60799C40.0679 8.81041 39.8864 9.04948 39.7922 9.32519L38.0227 9.07391C38.1623 8.5853 38.3927 8.17697 38.7138 7.8489C39.0348 7.51735 39.4275 7.26956 39.8916 7.10553C40.3558 6.938 40.8689 6.85424 41.4307 6.85424C41.8181 6.85424 42.2038 6.89961 42.5877 6.99035C42.9716 7.0811 43.3224 7.23117 43.6399 7.44057C43.9575 7.64648 44.2123 7.92743 44.4043 8.28342C44.5997 8.6394 44.6974 9.08438 44.6974 9.61836V15H42.8756V13.8954H42.8128C42.6976 14.1188 42.5353 14.3282 42.3259 14.5236C42.12 14.7156 41.86 14.8709 41.5459 14.9895C41.2353 15.1047 40.8706 15.1623 40.4518 15.1623ZM40.9439 13.7698C41.3243 13.7698 41.6541 13.6947 41.9333 13.5447C42.2125 13.3911 42.4272 13.1887 42.5772 12.9374C42.7308 12.6861 42.8076 12.4121 42.8076 12.1155V11.1679C42.7482 11.2168 42.647 11.2622 42.5039 11.304C42.3643 11.3459 42.2073 11.3826 42.0328 11.414C41.8583 11.4454 41.6855 11.4733 41.5145 11.4977C41.3435 11.5222 41.1952 11.5431 41.0695 11.5606C40.7868 11.599 40.5338 11.6618 40.3104 11.749C40.0871 11.8363 39.9108 11.9584 39.7817 12.1155C39.6526 12.269 39.588 12.468 39.588 12.7123C39.588 13.0613 39.7154 13.3248 39.9702 13.5028C40.2249 13.6808 40.5495 13.7698 40.9439 13.7698ZM48.4981 10.2884V15H46.603V6.95894H48.4143V8.3253H48.5086C48.6935 7.87508 48.9884 7.51735 49.3933 7.25211C49.8016 6.98687 50.3059 6.85424 50.9062 6.85424C51.4611 6.85424 51.9445 6.9729 52.3563 7.21023C52.7716 7.44755 53.0927 7.79132 53.3196 8.24153C53.5499 8.69175 53.6633 9.23794 53.6599 9.88011V15H51.7648V10.1733C51.7648 9.63581 51.6252 9.21526 51.346 8.91162C51.0702 8.60799 50.6881 8.45617 50.1995 8.45617C49.8679 8.45617 49.573 8.52946 49.3148 8.67604C49.06 8.81914 48.8593 9.02679 48.7127 9.29902C48.5696 9.57124 48.4981 9.90105 48.4981 10.2884ZM59.1279 15V13.7907L64.6247 5.9067H59.0965V4.27859H67.0328V5.48789L61.5412 13.3719H67.0642V15H59.1279ZM68.9436 15V4.27859H75.812V5.9067H70.8858V8.81739H75.3409V10.4455H70.8858V15H68.9436ZM90.4152 7.89602H88.4573C88.4015 7.57494 88.2985 7.2905 88.1484 7.04271C87.9984 6.79142 87.8117 6.57853 87.5883 6.40403C87.3649 6.22953 87.1102 6.09865 86.824 6.0114C86.5413 5.92066 86.2359 5.87529 85.9078 5.87529C85.325 5.87529 84.8085 6.02187 84.3583 6.31503C83.908 6.6047 83.5555 7.03049 83.3008 7.59239C83.046 8.15079 82.9186 8.8331 82.9186 9.6393C82.9186 10.4595 83.046 11.1505 83.3008 11.7124C83.559 12.2708 83.9115 12.6931 84.3583 12.9793C84.8085 13.262 85.3233 13.4033 85.9026 13.4033C86.2237 13.4033 86.5238 13.3614 86.803 13.2777C87.0857 13.1904 87.3388 13.063 87.5621 12.8955C87.789 12.728 87.9792 12.5221 88.1327 12.2778C88.2898 12.0335 88.398 11.7543 88.4573 11.4402L90.4152 11.4506C90.3419 11.9602 90.1831 12.4383 89.9388 12.885C89.698 13.3318 89.3822 13.7261 88.9913 14.0682C88.6004 14.4067 88.1432 14.6719 87.6197 14.8639C87.0962 15.0524 86.5151 15.1466 85.8764 15.1466C84.9341 15.1466 84.093 14.9285 83.3531 14.4922C82.6132 14.0559 82.0304 13.426 81.6046 12.6023C81.1788 11.7787 80.9659 10.791 80.9659 9.6393C80.9659 8.48409 81.1806 7.49641 81.6099 6.67625C82.0391 5.8526 82.6237 5.22265 83.3636 4.78639C84.1035 4.35014 84.9411 4.13201 85.8764 4.13201C86.4732 4.13201 87.0281 4.21577 87.5412 4.38329C88.0542 4.55082 88.5114 4.79686 88.9128 5.12144C89.3141 5.44252 89.6439 5.8369 89.9022 6.30456C90.1639 6.76874 90.335 7.29922 90.4152 7.89602ZM94.424 15.1623C93.9144 15.1623 93.4555 15.0715 93.0472 14.8901C92.6423 14.7051 92.3212 14.4329 92.0839 14.0734C91.8501 13.7139 91.7331 13.2707 91.7331 12.7437C91.7331 12.29 91.8169 11.9148 91.9844 11.6181C92.152 11.3215 92.3806 11.0842 92.6702 10.9062C92.9599 10.7282 93.2862 10.5938 93.6492 10.5031C94.0156 10.4089 94.3943 10.3408 94.7852 10.2989C95.2563 10.2501 95.6385 10.2064 95.9317 10.168C96.2248 10.1262 96.4377 10.0633 96.5703 9.97958C96.7065 9.89232 96.7745 9.75796 96.7745 9.57648V9.54507C96.7745 9.15069 96.6576 8.84531 96.4238 8.62893C96.1899 8.41255 95.8531 8.30436 95.4134 8.30436C94.9492 8.30436 94.581 8.40557 94.3088 8.60799C94.0401 8.81041 93.8586 9.04948 93.7644 9.32519L91.9949 9.07391C92.1345 8.5853 92.3648 8.17697 92.6859 7.8489C93.007 7.51735 93.3996 7.26956 93.8638 7.10553C94.328 6.938 94.841 6.85424 95.4029 6.85424C95.7903 6.85424 96.176 6.89961 96.5599 6.99035C96.9438 7.0811 97.2945 7.23117 97.6121 7.44057C97.9297 7.64648 98.1845 7.92743 98.3764 8.28342C98.5719 8.6394 98.6696 9.08438 98.6696 9.61836V15H96.8478V13.8954H96.785C96.6698 14.1188 96.5075 14.3282 96.2981 14.5236C96.0922 14.7156 95.8322 14.8709 95.5181 14.9895C95.2075 15.1047 94.8428 15.1623 94.424 15.1623ZM94.9161 13.7698C95.2965 13.7698 95.6263 13.6947 95.9055 13.5447C96.1847 13.3911 96.3993 13.1887 96.5494 12.9374C96.703 12.6861 96.7797 12.4121 96.7797 12.1155V11.1679C96.7204 11.2168 96.6192 11.2622 96.4761 11.304C96.3365 11.3459 96.1795 11.3826 96.005 11.414C95.8305 11.4454 95.6577 11.4733 95.4867 11.4977C95.3157 11.5222 95.1674 11.5431 95.0417 11.5606C94.759 11.599 94.506 11.6618 94.2826 11.749C94.0593 11.8363 93.883 11.9584 93.7539 12.1155C93.6248 12.269 93.5602 12.468 93.5602 12.7123C93.5602 13.0613 93.6876 13.3248 93.9423 13.5028C94.1971 13.6808 94.5217 13.7698 94.9161 13.7698ZM102.47 10.2884V15H100.575V6.95894H102.387V8.3253H102.481C102.666 7.87508 102.961 7.51735 103.365 7.25211C103.774 6.98687 104.278 6.85424 104.878 6.85424C105.433 6.85424 105.917 6.9729 106.329 7.21023C106.744 7.44755 107.065 7.79132 107.292 8.24153C107.522 8.69175 107.636 9.23794 107.632 9.88011V15H105.737V10.1733C105.737 9.63581 105.597 9.21526 105.318 8.91162C105.042 8.60799 104.66 8.45617 104.172 8.45617C103.84 8.45617 103.545 8.52946 103.287 8.67604C103.032 8.81914 102.831 9.02679 102.685 9.29902C102.542 9.57124 102.47 9.90105 102.47 10.2884ZM111.872 15.1623C111.363 15.1623 110.904 15.0715 110.496 14.8901C110.091 14.7051 109.77 14.4329 109.532 14.0734C109.299 13.7139 109.182 13.2707 109.182 12.7437C109.182 12.29 109.265 11.9148 109.433 11.6181C109.6 11.3215 109.829 11.0842 110.119 10.9062C110.408 10.7282 110.735 10.5938 111.098 10.5031C111.464 10.4089 111.843 10.3408 112.234 10.2989C112.705 10.2501 113.087 10.2064 113.38 10.168C113.673 10.1262 113.886 10.0633 114.019 9.97958C114.155 9.89232 114.223 9.75796 114.223 9.57648V9.54507C114.223 9.15069 114.106 8.84531 113.872 8.62893C113.638 8.41255 113.302 8.30436 112.862 8.30436C112.398 8.30436 112.029 8.40557 111.757 8.60799C111.489 8.81041 111.307 9.04948 111.213 9.32519L109.443 9.07391C109.583 8.5853 109.813 8.17697 110.134 7.8489C110.455 7.51735 110.848 7.26956 111.312 7.10553C111.776 6.938 112.289 6.85424 112.851 6.85424C113.239 6.85424 113.624 6.89961 114.008 6.99035C114.392 7.0811 114.743 7.23117 115.061 7.44057C115.378 7.64648 115.633 7.92743 115.825 8.28342C116.02 8.6394 116.118 9.08438 116.118 9.61836V15H114.296V13.8954H114.233C114.118 14.1188 113.956 14.3282 113.747 14.5236C113.541 14.7156 113.281 14.8709 112.967 14.9895C112.656 15.1047 112.291 15.1623 111.872 15.1623ZM112.365 13.7698C112.745 13.7698 113.075 13.6947 113.354 13.5447C113.633 13.3911 113.848 13.1887 113.998 12.9374C114.151 12.6861 114.228 12.4121 114.228 12.1155V11.1679C114.169 11.2168 114.068 11.2622 113.925 11.304C113.785 11.3459 113.628 11.3826 113.453 11.414C113.279 11.4454 113.106 11.4733 112.935 11.4977C112.764 11.5222 112.616 11.5431 112.49 11.5606C112.207 11.599 111.954 11.6618 111.731 11.749C111.508 11.8363 111.331 11.9584 111.202 12.1155C111.073 12.269 111.009 12.468 111.009 12.7123C111.009 13.0613 111.136 13.3248 111.391 13.5028C111.646 13.6808 111.97 13.7698 112.365 13.7698ZM121.008 15.1413C120.376 15.1413 119.811 14.9791 119.311 14.6545C118.812 14.3299 118.418 13.8588 118.128 13.241C117.839 12.6233 117.694 11.8729 117.694 10.9899C117.694 10.0965 117.84 9.34264 118.134 8.7284C118.43 8.11066 118.83 7.64474 119.332 7.33063C119.835 7.01304 120.395 6.85424 121.013 6.85424C121.484 6.85424 121.871 6.93451 122.175 7.09506C122.479 7.25211 122.719 7.44232 122.897 7.66568C123.075 7.88555 123.213 8.09321 123.311 8.28865H123.39V4.27859H125.29V15H123.426V13.7331H123.311C123.213 13.9286 123.072 14.1362 122.887 14.3561C122.702 14.5725 122.458 14.7574 122.154 14.911C121.85 15.0646 121.468 15.1413 121.008 15.1413ZM121.536 13.5865C121.938 13.5865 122.28 13.4783 122.562 13.262C122.845 13.0421 123.06 12.7367 123.206 12.3458C123.353 11.9549 123.426 11.4995 123.426 10.9795C123.426 10.4595 123.353 10.0075 123.206 9.62359C123.063 9.23969 122.85 8.94129 122.568 8.7284C122.288 8.5155 121.945 8.40906 121.536 8.40906C121.114 8.40906 120.762 8.51899 120.479 8.73887C120.196 8.95874 119.983 9.26237 119.84 9.64977C119.697 10.0372 119.626 10.4804 119.626 10.9795C119.626 11.482 119.697 11.9305 119.84 12.3249C119.987 12.7158 120.201 13.0246 120.484 13.2515C120.77 13.4749 121.121 13.5865 121.536 13.5865ZM129.623 15.1623C129.114 15.1623 128.655 15.0715 128.246 14.8901C127.842 14.7051 127.52 14.4329 127.283 14.0734C127.049 13.7139 126.932 13.2707 126.932 12.7437C126.932 12.29 127.016 11.9148 127.184 11.6181C127.351 11.3215 127.58 11.0842 127.869 10.9062C128.159 10.7282 128.485 10.5938 128.848 10.5031C129.215 10.4089 129.594 10.3408 129.984 10.2989C130.456 10.2501 130.838 10.2064 131.131 10.168C131.424 10.1262 131.637 10.0633 131.77 9.97958C131.906 9.89232 131.974 9.75796 131.974 9.57648V9.54507C131.974 9.15069 131.857 8.84531 131.623 8.62893C131.389 8.41255 131.052 8.30436 130.613 8.30436C130.148 8.30436 129.78 8.40557 129.508 8.60799C129.239 8.81041 129.058 9.04948 128.964 9.32519L127.194 9.07391C127.334 8.5853 127.564 8.17697 127.885 7.8489C128.206 7.51735 128.599 7.26956 129.063 7.10553C129.527 6.938 130.04 6.85424 130.602 6.85424C130.99 6.85424 131.375 6.89961 131.759 6.99035C132.143 7.0811 132.494 7.23117 132.811 7.44057C133.129 7.64648 133.384 7.92743 133.576 8.28342C133.771 8.6394 133.869 9.08438 133.869 9.61836V15H132.047V13.8954H131.984C131.869 14.1188 131.707 14.3282 131.497 14.5236C131.291 14.7156 131.031 14.8709 130.717 14.9895C130.407 15.1047 130.042 15.1623 129.623 15.1623ZM130.115 13.7698C130.496 13.7698 130.826 13.6947 131.105 13.5447C131.384 13.3911 131.599 13.1887 131.749 12.9374C131.902 12.6861 131.979 12.4121 131.979 12.1155V11.1679C131.92 11.2168 131.818 11.2622 131.675 11.304C131.536 11.3459 131.379 11.3826 131.204 11.414C131.03 11.4454 130.857 11.4733 130.686 11.4977C130.515 11.5222 130.367 11.5431 130.241 11.5606C129.958 11.599 129.705 11.6618 129.482 11.749C129.259 11.8363 129.082 11.9584 128.953 12.1155C128.824 12.269 128.759 12.468 128.759 12.7123C128.759 13.0613 128.887 13.3248 129.142 13.5028C129.396 13.6808 129.721 13.7698 130.115 13.7698ZM141.326 10.2884V15H139.431V4.27859H141.284V8.3253H141.379C141.567 7.87159 141.858 7.51386 142.253 7.25211C142.651 6.98687 143.157 6.85424 143.771 6.85424C144.329 6.85424 144.816 6.97116 145.232 7.20499C145.647 7.43882 145.968 7.78085 146.195 8.23106C146.425 8.68128 146.54 9.23096 146.54 9.88011V15H144.645V10.1733C144.645 9.63232 144.506 9.21177 144.226 8.91162C143.951 8.60799 143.563 8.45617 143.064 8.45617C142.729 8.45617 142.429 8.52946 142.164 8.67604C141.902 8.81914 141.696 9.02679 141.546 9.29902C141.399 9.57124 141.326 9.90105 141.326 10.2884ZM152.032 15.1571C151.226 15.1571 150.529 14.9895 149.943 14.6545C149.36 14.316 148.912 13.8378 148.598 13.2201C148.284 12.5989 148.127 11.8677 148.127 11.0266C148.127 10.1994 148.284 9.47352 148.598 8.8488C148.915 8.22059 149.359 7.73199 149.927 7.38298C150.496 7.03049 151.165 6.85424 151.932 6.85424C152.428 6.85424 152.896 6.93451 153.335 7.09506C153.779 7.25211 154.17 7.49641 154.508 7.82796C154.85 8.15952 155.119 8.58181 155.314 9.09485C155.51 9.6044 155.607 10.2117 155.607 10.9167V11.4977H149.017V10.2204H153.791C153.787 9.85742 153.709 9.53459 153.555 9.2519C153.402 8.96572 153.187 8.74061 152.911 8.57658C152.639 8.41255 152.322 8.33053 151.959 8.33053C151.571 8.33053 151.231 8.42476 150.938 8.61322C150.645 8.7982 150.416 9.0425 150.252 9.34613C150.091 9.64628 150.009 9.97609 150.006 10.3356V11.4506C150.006 11.9183 150.091 12.3196 150.262 12.6547C150.433 12.9862 150.673 13.241 150.98 13.419C151.287 13.5935 151.646 13.6808 152.058 13.6808C152.334 13.6808 152.583 13.6424 152.807 13.5656C153.03 13.4853 153.224 13.3684 153.388 13.2148C153.552 13.0613 153.676 12.8711 153.759 12.6442L155.529 12.8432C155.417 13.3108 155.204 13.7192 154.89 14.0682C154.58 14.4137 154.182 14.6824 153.697 14.8744C153.212 15.0628 152.657 15.1571 152.032 15.1571ZM159.106 4.27859V15H157.211V4.27859H159.106ZM161.055 18.0154V6.95894H162.918V8.28865H163.028C163.126 8.09321 163.264 7.88555 163.442 7.66568C163.62 7.44232 163.861 7.25211 164.164 7.09506C164.468 6.93451 164.855 6.85424 165.326 6.85424C165.948 6.85424 166.508 7.01304 167.007 7.33063C167.509 7.64474 167.907 8.11066 168.2 8.7284C168.497 9.34264 168.645 10.0965 168.645 10.9899C168.645 11.8729 168.501 12.6233 168.211 13.241C167.921 13.8588 167.527 14.3299 167.028 14.6545C166.529 14.9791 165.963 15.1413 165.332 15.1413C164.871 15.1413 164.489 15.0646 164.185 14.911C163.881 14.7574 163.637 14.5725 163.452 14.3561C163.271 14.1362 163.129 13.9286 163.028 13.7331H162.95V18.0154H161.055ZM162.913 10.9795C162.913 11.4995 162.986 11.9549 163.133 12.3458C163.283 12.7367 163.498 13.0421 163.777 13.262C164.059 13.4783 164.401 13.5865 164.803 13.5865C165.222 13.5865 165.572 13.4749 165.855 13.2515C166.138 13.0246 166.351 12.7158 166.494 12.3249C166.64 11.9305 166.714 11.482 166.714 10.9795C166.714 10.4804 166.642 10.0372 166.499 9.64977C166.356 9.26237 166.143 8.95874 165.86 8.73887C165.578 8.51899 165.225 8.40906 164.803 8.40906C164.398 8.40906 164.054 8.5155 163.772 8.7284C163.489 8.94129 163.274 9.23969 163.128 9.62359C162.985 10.0075 162.913 10.4595 162.913 10.9795ZM175.584 15L173.312 6.95894H175.244L176.658 12.6128H176.731L178.176 6.95894H180.087L181.531 12.5814H181.61L183.003 6.95894H184.94L182.662 15H180.689L179.181 9.56601H179.071L177.563 15H175.584ZM186.263 15V6.95894H188.158V15H186.263ZM187.215 5.8177C186.915 5.8177 186.657 5.71823 186.441 5.5193C186.224 5.31688 186.116 5.07432 186.116 4.79163C186.116 4.50545 186.224 4.26289 186.441 4.06395C186.657 3.86153 186.915 3.76032 187.215 3.76032C187.519 3.76032 187.777 3.86153 187.99 4.06395C188.207 4.26289 188.315 4.50545 188.315 4.79163C188.315 5.07432 188.207 5.31688 187.99 5.5193C187.777 5.71823 187.519 5.8177 187.215 5.8177ZM194.122 6.95894V8.42476H189.499V6.95894H194.122ZM190.64 5.03244H192.536V12.5814C192.536 12.8362 192.574 13.0316 192.651 13.1677C192.731 13.3003 192.836 13.3911 192.965 13.44C193.094 13.4888 193.237 13.5132 193.394 13.5132C193.513 13.5132 193.621 13.5045 193.719 13.4871C193.82 13.4696 193.897 13.4539 193.949 13.44L194.268 14.9215C194.167 14.9564 194.022 14.9948 193.834 15.0366C193.649 15.0785 193.422 15.103 193.153 15.1099C192.679 15.1239 192.251 15.0524 191.871 14.8953C191.49 14.7348 191.188 14.487 190.965 14.1519C190.745 13.8169 190.637 13.3981 190.64 12.8955V5.03244ZM197.775 10.2884V15H195.879V4.27859H197.733V8.3253H197.827C198.015 7.87159 198.307 7.51386 198.701 7.25211C199.099 6.98687 199.605 6.85424 200.219 6.85424C200.778 6.85424 201.265 6.97116 201.68 7.20499C202.095 7.43882 202.416 7.78085 202.643 8.23106C202.874 8.68128 202.989 9.23096 202.989 9.88011V15H201.094V10.1733C201.094 9.63232 200.954 9.21177 200.675 8.91162C200.399 8.60799 200.012 8.45617 199.513 8.45617C199.178 8.45617 198.877 8.52946 198.612 8.67604C198.35 8.81914 198.145 9.02679 197.994 9.29902C197.848 9.57124 197.775 9.90105 197.775 10.2884ZM215.76 6.95894L212.896 15H210.802L207.938 6.95894H209.959L211.807 12.9322H211.891L213.744 6.95894H215.76ZM217.071 15V6.95894H218.966V15H217.071ZM218.024 5.8177C217.724 5.8177 217.465 5.71823 217.249 5.5193C217.033 5.31688 216.924 5.07432 216.924 4.79163C216.924 4.50545 217.033 4.26289 217.249 4.06395C217.465 3.86153 217.724 3.76032 218.024 3.76032C218.327 3.76032 218.586 3.86153 218.799 4.06395C219.015 4.26289 219.123 4.50545 219.123 4.79163C219.123 5.07432 219.015 5.31688 218.799 5.5193C218.586 5.71823 218.327 5.8177 218.024 5.8177ZM227.27 9.08438L225.543 9.27284C225.494 9.09834 225.408 8.93431 225.286 8.78075C225.167 8.62718 225.007 8.50329 224.805 8.40906C224.602 8.31483 224.354 8.26771 224.061 8.26771C223.667 8.26771 223.335 8.35322 223.066 8.52423C222.801 8.69524 222.67 8.91686 222.674 9.18908C222.67 9.42291 222.756 9.61312 222.93 9.7597C223.108 9.90628 223.402 10.0267 223.81 10.1209L225.181 10.4141C225.942 10.5781 226.508 10.8381 226.878 11.1941C227.251 11.5501 227.439 12.016 227.443 12.5919C227.439 13.0979 227.291 13.5447 226.998 13.932C226.708 14.316 226.305 14.6161 225.789 14.8325C225.272 15.0489 224.679 15.1571 224.009 15.1571C223.025 15.1571 222.232 14.9511 221.632 14.5393C221.032 14.124 220.674 13.5464 220.559 12.8065L222.407 12.6285C222.491 12.9915 222.669 13.2654 222.941 13.4504C223.213 13.6354 223.567 13.7279 224.004 13.7279C224.454 13.7279 224.815 13.6354 225.087 13.4504C225.363 13.2654 225.501 13.0369 225.501 12.7646C225.501 12.5343 225.412 12.3441 225.234 12.194C225.059 12.0439 224.787 11.9288 224.417 11.8485L223.046 11.5606C222.274 11.4 221.704 11.1295 221.334 10.7491C220.964 10.3652 220.78 9.88011 220.784 9.29378C220.78 8.7982 220.915 8.36892 221.187 8.00596C221.463 7.6395 221.845 7.35681 222.334 7.15788C222.826 6.95545 223.393 6.85424 224.035 6.85424C224.977 6.85424 225.719 7.05492 226.26 7.45628C226.804 7.85763 227.141 8.40033 227.27 9.08438ZM231.32 15.1623C230.81 15.1623 230.351 15.0715 229.943 14.8901C229.538 14.7051 229.217 14.4329 228.979 14.0734C228.746 13.7139 228.629 13.2707 228.629 12.7437C228.629 12.29 228.712 11.9148 228.88 11.6181C229.048 11.3215 229.276 11.0842 229.566 10.9062C229.855 10.7282 230.182 10.5938 230.545 10.5031C230.911 10.4089 231.29 10.3408 231.681 10.2989C232.152 10.2501 232.534 10.2064 232.827 10.168C233.12 10.1262 233.333 10.0633 233.466 9.97958C233.602 9.89232 233.67 9.75796 233.67 9.57648V9.54507C233.67 9.15069 233.553 8.84531 233.319 8.62893C233.086 8.41255 232.749 8.30436 232.309 8.30436C231.845 8.30436 231.477 8.40557 231.204 8.60799C230.936 8.81041 230.754 9.04948 230.66 9.32519L228.89 9.07391C229.03 8.5853 229.26 8.17697 229.581 7.8489C229.903 7.51735 230.295 7.26956 230.759 7.10553C231.224 6.938 231.737 6.85424 232.298 6.85424C232.686 6.85424 233.072 6.89961 233.455 6.99035C233.839 7.0811 234.19 7.23117 234.508 7.44057C234.825 7.64648 235.08 7.92743 235.272 8.28342C235.467 8.6394 235.565 9.08438 235.565 9.61836V15H233.743V13.8954H233.681C233.565 14.1188 233.403 14.3282 233.194 14.5236C232.988 14.7156 232.728 14.8709 232.414 14.9895C232.103 15.1047 231.738 15.1623 231.32 15.1623ZM231.812 13.7698C232.192 13.7698 232.522 13.6947 232.801 13.5447C233.08 13.3911 233.295 13.1887 233.445 12.9374C233.599 12.6861 233.675 12.4121 233.675 12.1155V11.1679C233.616 11.2168 233.515 11.2622 233.372 11.304C233.232 11.3459 233.075 11.3826 232.901 11.414C232.726 11.4454 232.553 11.4733 232.382 11.4977C232.211 11.5222 232.063 11.5431 231.937 11.5606C231.655 11.599 231.402 11.6618 231.178 11.749C230.955 11.8363 230.779 11.9584 230.649 12.1155C230.52 12.269 230.456 12.468 230.456 12.7123C230.456 13.0613 230.583 13.3248 230.838 13.5028C231.093 13.6808 231.417 13.7698 231.812 13.7698ZM241.127 15V6.95894H242.965V8.29912H243.049C243.195 7.83495 243.447 7.47722 243.803 7.22593C244.162 6.97116 244.572 6.84377 245.033 6.84377C245.137 6.84377 245.254 6.84901 245.384 6.85948C245.516 6.86646 245.626 6.87867 245.713 6.89612V8.6394C245.633 8.61148 245.506 8.58705 245.331 8.56611C245.16 8.54168 244.994 8.52946 244.834 8.52946C244.488 8.52946 244.178 8.6045 243.902 8.75457C243.63 8.90115 243.415 9.10532 243.258 9.36707C243.101 9.62883 243.023 9.93071 243.023 10.2727V15H241.127ZM250.201 15.1571C249.395 15.1571 248.699 14.9895 248.112 14.6545C247.529 14.316 247.081 13.8378 246.767 13.2201C246.453 12.5989 246.296 11.8677 246.296 11.0266C246.296 10.1994 246.453 9.47352 246.767 8.8488C247.084 8.22059 247.528 7.73199 248.097 7.38298C248.665 7.03049 249.334 6.85424 250.102 6.85424C250.597 6.85424 251.065 6.93451 251.505 7.09506C251.948 7.25211 252.339 7.49641 252.677 7.82796C253.019 8.15952 253.288 8.58181 253.483 9.09485C253.679 9.6044 253.777 10.2117 253.777 10.9167V11.4977H247.186V10.2204H251.96C251.957 9.85742 251.878 9.53459 251.724 9.2519C251.571 8.96572 251.356 8.74061 251.081 8.57658C250.808 8.41255 250.491 8.33053 250.128 8.33053C249.74 8.33053 249.4 8.42476 249.107 8.61322C248.814 8.7982 248.585 9.0425 248.421 9.34613C248.261 9.64628 248.179 9.97609 248.175 10.3356V11.4506C248.175 11.9183 248.261 12.3196 248.432 12.6547C248.603 12.9862 248.842 13.241 249.149 13.419C249.456 13.5935 249.815 13.6808 250.227 13.6808C250.503 13.6808 250.753 13.6424 250.976 13.5656C251.199 13.4853 251.393 13.3684 251.557 13.2148C251.721 13.0613 251.845 12.8711 251.929 12.6442L253.698 12.8432C253.586 13.3108 253.374 13.7192 253.059 14.0682C252.749 14.4137 252.351 14.6824 251.866 14.8744C251.381 15.0628 250.826 15.1571 250.201 15.1571ZM259.453 6.95894V8.42476H254.699V6.95894H259.453ZM255.888 15V6.19986C255.888 5.6589 255.999 5.20869 256.223 4.84921C256.45 4.48974 256.753 4.22101 257.134 4.04301C257.514 3.86502 257.936 3.77603 258.401 3.77603C258.729 3.77603 259.02 3.8022 259.275 3.85455C259.53 3.9069 259.718 3.95402 259.84 3.9959L259.463 5.46172C259.383 5.43729 259.282 5.41286 259.16 5.38843C259.037 5.36051 258.901 5.34655 258.751 5.34655C258.399 5.34655 258.149 5.43205 258.003 5.60306C257.86 5.77059 257.788 6.0114 257.788 6.3255V15H255.888ZM266.062 11.6181V6.95894H267.957V15H266.12V13.5708H266.036C265.854 14.021 265.556 14.3892 265.141 14.6754C264.729 14.9616 264.221 15.1047 263.617 15.1047C263.09 15.1047 262.624 14.9878 262.219 14.754C261.818 14.5166 261.504 14.1729 261.277 13.7226C261.05 13.2689 260.937 12.721 260.937 12.0788V6.95894H262.832V11.7857C262.832 12.2952 262.972 12.7001 263.251 13.0002C263.53 13.3003 263.896 13.4504 264.35 13.4504C264.629 13.4504 264.9 13.3824 265.162 13.2463C265.423 13.1101 265.638 12.9077 265.806 12.639C265.977 12.3668 266.062 12.0265 266.062 11.6181ZM276.261 9.08438L274.534 9.27284C274.485 9.09834 274.399 8.93431 274.277 8.78075C274.158 8.62718 273.998 8.50329 273.796 8.40906C273.593 8.31483 273.345 8.26771 273.052 8.26771C272.658 8.26771 272.326 8.35322 272.057 8.52423C271.792 8.69524 271.661 8.91686 271.665 9.18908C271.661 9.42291 271.747 9.61312 271.921 9.7597C272.099 9.90628 272.393 10.0267 272.801 10.1209L274.172 10.4141C274.933 10.5781 275.499 10.8381 275.869 11.1941C276.242 11.5501 276.43 12.016 276.434 12.5919C276.43 13.0979 276.282 13.5447 275.989 13.932C275.699 14.316 275.296 14.6161 274.78 14.8325C274.263 15.0489 273.67 15.1571 273 15.1571C272.016 15.1571 271.223 14.9511 270.623 14.5393C270.023 14.124 269.665 13.5464 269.55 12.8065L271.398 12.6285C271.482 12.9915 271.66 13.2654 271.932 13.4504C272.204 13.6354 272.558 13.7279 272.995 13.7279C273.445 13.7279 273.806 13.6354 274.078 13.4504C274.354 13.2654 274.492 13.0369 274.492 12.7646C274.492 12.5343 274.403 12.3441 274.225 12.194C274.05 12.0439 273.778 11.9288 273.408 11.8485L272.037 11.5606C271.265 11.4 270.695 11.1295 270.325 10.7491C269.955 10.3652 269.771 9.88011 269.775 9.29378C269.771 8.7982 269.906 8.36892 270.178 8.00596C270.454 7.6395 270.836 7.35681 271.325 7.15788C271.817 6.95545 272.384 6.85424 273.026 6.85424C273.968 6.85424 274.71 7.05492 275.251 7.45628C275.795 7.85763 276.132 8.40033 276.261 9.08438ZM280.311 15.1623C279.801 15.1623 279.342 15.0715 278.934 14.8901C278.529 14.7051 278.208 14.4329 277.97 14.0734C277.737 13.7139 277.62 13.2707 277.62 12.7437C277.62 12.29 277.703 11.9148 277.871 11.6181C278.039 11.3215 278.267 11.0842 278.557 10.9062C278.846 10.7282 279.173 10.5938 279.536 10.5031C279.902 10.4089 280.281 10.3408 280.672 10.2989C281.143 10.2501 281.525 10.2064 281.818 10.168C282.111 10.1262 282.324 10.0633 282.457 9.97958C282.593 9.89232 282.661 9.75796 282.661 9.57648V9.54507C282.661 9.15069 282.544 8.84531 282.31 8.62893C282.077 8.41255 281.74 8.30436 281.3 8.30436C280.836 8.30436 280.468 8.40557 280.195 8.60799C279.927 8.81041 279.745 9.04948 279.651 9.32519L277.881 9.07391C278.021 8.5853 278.251 8.17697 278.573 7.8489C278.894 7.51735 279.286 7.26956 279.75 7.10553C280.215 6.938 280.728 6.85424 281.29 6.85424C281.677 6.85424 282.063 6.89961 282.446 6.99035C282.83 7.0811 283.181 7.23117 283.499 7.44057C283.816 7.64648 284.071 7.92743 284.263 8.28342C284.458 8.6394 284.556 9.08438 284.556 9.61836V15H282.734V13.8954H282.672C282.556 14.1188 282.394 14.3282 282.185 14.5236C281.979 14.7156 281.719 14.8709 281.405 14.9895C281.094 15.1047 280.729 15.1623 280.311 15.1623ZM280.803 13.7698C281.183 13.7698 281.513 13.6947 281.792 13.5447C282.071 13.3911 282.286 13.1887 282.436 12.9374C282.59 12.6861 282.666 12.4121 282.666 12.1155V11.1679C282.607 11.2168 282.506 11.2622 282.363 11.304C282.223 11.3459 282.066 11.3826 281.892 11.414C281.717 11.4454 281.544 11.4733 281.373 11.4977C281.202 11.5222 281.054 11.5431 280.928 11.5606C280.646 11.599 280.393 11.6618 280.169 11.749C279.946 11.8363 279.77 11.9584 279.64 12.1155C279.511 12.269 279.447 12.468 279.447 12.7123C279.447 13.0613 279.574 13.3248 279.829 13.5028C280.084 13.6808 280.408 13.7698 280.803 13.7698ZM288.357 4.27859V15H286.462V4.27859H288.357ZM296.661 9.08438L294.933 9.27284C294.885 9.09834 294.799 8.93431 294.677 8.78075C294.558 8.62718 294.398 8.50329 294.195 8.40906C293.993 8.31483 293.745 8.26771 293.452 8.26771C293.057 8.26771 292.726 8.35322 292.457 8.52423C292.192 8.69524 292.061 8.91686 292.065 9.18908C292.061 9.42291 292.147 9.61312 292.321 9.7597C292.499 9.90628 292.792 10.0267 293.201 10.1209L294.572 10.4141C295.333 10.5781 295.898 10.8381 296.268 11.1941C296.642 11.5501 296.83 12.016 296.834 12.5919C296.83 13.0979 296.682 13.5447 296.389 13.932C296.099 14.316 295.696 14.6161 295.179 14.8325C294.663 15.0489 294.07 15.1571 293.4 15.1571C292.415 15.1571 291.623 14.9511 291.023 14.5393C290.423 14.124 290.065 13.5464 289.95 12.8065L291.798 12.6285C291.881 12.9915 292.059 13.2654 292.332 13.4504C292.604 13.6354 292.958 13.7279 293.394 13.7279C293.845 13.7279 294.206 13.6354 294.478 13.4504C294.754 13.2654 294.892 13.0369 294.892 12.7646C294.892 12.5343 294.803 12.3441 294.625 12.194C294.45 12.0439 294.178 11.9288 293.808 11.8485L292.436 11.5606C291.665 11.4 291.094 11.1295 290.724 10.7491C290.354 10.3652 290.171 9.88011 290.175 9.29378C290.171 8.7982 290.306 8.36892 290.578 8.00596C290.854 7.6395 291.236 7.35681 291.724 7.15788C292.216 6.95545 292.784 6.85424 293.426 6.85424C294.368 6.85424 295.11 7.05492 295.651 7.45628C296.195 7.85763 296.532 8.40033 296.661 9.08438ZM300.208 11.8485V11.7124C300.211 11.0807 300.271 10.5781 300.386 10.2047C300.504 9.83125 300.672 9.53111 300.888 9.30425C301.105 9.07391 301.368 8.86276 301.679 8.67081C301.892 8.53819 302.082 8.39335 302.249 8.2363C302.42 8.07576 302.555 7.89777 302.652 7.70232C302.75 7.50339 302.799 7.28177 302.799 7.03747C302.799 6.76176 302.735 6.52269 302.605 6.32027C302.476 6.11784 302.302 5.96079 302.082 5.84911C301.865 5.73743 301.623 5.68159 301.354 5.68159C301.106 5.68159 300.871 5.73568 300.647 5.84388C300.428 5.94858 300.244 6.10912 300.098 6.3255C299.955 6.53839 299.874 6.80887 299.857 7.13694H297.993C298.011 6.47383 298.171 5.91891 298.475 5.47219C298.782 5.02546 299.187 4.69042 299.689 4.46705C300.196 4.24369 300.754 4.13201 301.365 4.13201C302.031 4.13201 302.618 4.24893 303.124 4.48276C303.633 4.71659 304.029 5.04989 304.312 5.48266C304.598 5.91193 304.741 6.42148 304.741 7.01129C304.741 7.40916 304.677 7.76514 304.548 8.07925C304.422 8.39335 304.242 8.67255 304.008 8.91686C303.775 9.16116 303.497 9.37929 303.176 9.57124C302.893 9.74574 302.661 9.92722 302.48 10.1157C302.302 10.3041 302.169 10.5258 302.082 10.7805C301.998 11.0318 301.954 11.3424 301.951 11.7124V11.8485H300.208ZM301.119 15.1152C300.805 15.1152 300.534 15.0035 300.307 14.7801C300.08 14.5568 299.967 14.2845 299.967 13.9635C299.967 13.6494 300.08 13.3806 300.307 13.1573C300.534 12.9339 300.805 12.8222 301.119 12.8222C301.429 12.8222 301.698 12.9339 301.925 13.1573C302.155 13.3806 302.27 13.6494 302.27 13.9635C302.27 14.1764 302.216 14.37 302.108 14.5445C302.003 14.7191 301.864 14.8587 301.689 14.9634C301.518 15.0646 301.328 15.1152 301.119 15.1152Z" fill="#1B1139"/>
<rect opacity="0.8" y="6.14233" width="14.7419" height="2.45699" rx="1.22849" fill="#1B1139"/>
<rect opacity="0.8" x="8.6001" width="14.7419" height="2.45699" rx="1.22849" transform="rotate(90 8.6001 0)" fill="#1B1139"/>
</svg>
