<svg width="487" height="117" viewBox="0 0 487 117" fill="none" xmlns="http://www.w3.org/2000/svg">
<g filter="url(#filter0_d_160_348)">
<rect x="14.7485" width="457" height="81.8996" rx="4.02229" fill="white"/>
</g>
<path opacity="0.88" d="M76.7692 46.9409H73.1361V36.2195H76.8425C77.907 36.2195 78.8214 36.4341 79.5857 36.8634C80.3535 37.2892 80.9433 37.9017 81.3551 38.7009C81.767 39.5001 81.9729 40.4564 81.9729 41.5697C81.9729 42.6866 81.7652 43.6463 81.3499 44.449C80.9381 45.2517 80.343 45.8677 79.5648 46.297C78.79 46.7263 77.8581 46.9409 76.7692 46.9409ZM75.0783 45.2605H76.675C77.4219 45.2605 78.0448 45.1244 78.5439 44.8521C79.043 44.5764 79.4182 44.1663 79.6695 43.6219C79.9207 43.074 80.0464 42.3899 80.0464 41.5697C80.0464 40.7496 79.9207 40.069 79.6695 39.5281C79.4182 38.9836 79.0465 38.577 78.5544 38.3083C78.0658 38.0361 77.4585 37.9 76.7326 37.9H75.0783V45.2605ZM87.242 47.098C86.4567 47.098 85.7762 46.9252 85.2003 46.5797C84.6244 46.2342 84.1777 45.7508 83.8601 45.1296C83.546 44.5084 83.389 43.7824 83.389 42.9518C83.389 42.1212 83.546 41.3935 83.8601 40.7688C84.1777 40.1441 84.6244 39.6589 85.2003 39.3134C85.7762 38.9679 86.4567 38.7952 87.242 38.7952C88.0272 38.7952 88.7078 38.9679 89.2836 39.3134C89.8595 39.6589 90.3045 40.1441 90.6186 40.7688C90.9362 41.3935 91.095 42.1212 91.095 42.9518C91.095 43.7824 90.9362 44.5084 90.6186 45.1296C90.3045 45.7508 89.8595 46.2342 89.2836 46.5797C88.7078 46.9252 88.0272 47.098 87.242 47.098ZM87.2524 45.5798C87.6782 45.5798 88.0342 45.4629 88.3204 45.2291C88.6066 44.9917 88.8195 44.6741 88.9591 44.2763C89.1022 43.8784 89.1737 43.4352 89.1737 42.9466C89.1737 42.4545 89.1022 42.0095 88.9591 41.6116C88.8195 41.2103 88.6066 40.8909 88.3204 40.6536C88.0342 40.4163 87.6782 40.2976 87.2524 40.2976C86.8162 40.2976 86.4532 40.4163 86.1635 40.6536C85.8774 40.8909 85.6627 41.2103 85.5196 41.6116C85.38 42.0095 85.3102 42.4545 85.3102 42.9466C85.3102 43.4352 85.38 43.8784 85.5196 44.2763C85.6627 44.6741 85.8774 44.9917 86.1635 45.2291C86.4532 45.4629 86.8162 45.5798 87.2524 45.5798ZM98.3861 36.2195V46.9409H96.4439V36.2195H98.3861ZM105.957 42.2294V46.9409H104.062V38.8999H105.874V40.2662H105.968C106.153 39.816 106.448 39.4583 106.853 39.193C107.261 38.9278 107.765 38.7952 108.365 38.7952C108.92 38.7952 109.404 38.9138 109.816 39.1511C110.231 39.3885 110.552 39.7322 110.779 40.1825C111.009 40.6327 111.123 41.1789 111.119 41.821V46.9409H109.224V42.1142C109.224 41.5767 109.084 41.1562 108.805 40.8525C108.529 40.5489 108.147 40.3971 107.659 40.3971C107.327 40.3971 107.032 40.4704 106.774 40.617C106.519 40.7601 106.319 40.9677 106.172 41.2399C106.029 41.5122 105.957 41.842 105.957 42.2294ZM116.605 47.098C115.799 47.098 115.103 46.9304 114.517 46.5954C113.934 46.2569 113.485 45.7787 113.171 45.161C112.857 44.5398 112.7 43.8086 112.7 42.9675C112.7 42.1404 112.857 41.4144 113.171 40.7897C113.489 40.1615 113.932 39.6729 114.501 39.3239C115.07 38.9714 115.738 38.7952 116.506 38.7952C117.002 38.7952 117.469 38.8754 117.909 39.036C118.352 39.193 118.743 39.4373 119.082 39.7689C119.424 40.1004 119.692 40.5227 119.888 41.0358C120.083 41.5453 120.181 42.1526 120.181 42.8576V43.4387H113.59V42.1613H118.364C118.361 41.7983 118.282 41.4755 118.129 41.1928C117.975 40.9066 117.761 40.6815 117.485 40.5175C117.213 40.3535 116.895 40.2714 116.532 40.2714C116.145 40.2714 115.804 40.3657 115.511 40.5541C115.218 40.7391 114.99 40.9834 114.826 41.2871C114.665 41.5872 114.583 41.917 114.579 42.2765V43.3915C114.579 43.8592 114.665 44.2606 114.836 44.5956C115.007 44.9272 115.246 45.1819 115.553 45.3599C115.86 45.5344 116.22 45.6217 116.632 45.6217C116.907 45.6217 117.157 45.5833 117.38 45.5065C117.604 45.4262 117.797 45.3093 117.961 45.1558C118.125 45.0022 118.249 44.812 118.333 44.5851L120.102 44.7841C119.991 45.2517 119.778 45.6601 119.464 46.0091C119.153 46.3546 118.755 46.6233 118.27 46.8153C117.785 47.0037 117.23 47.098 116.605 47.098ZM125.344 47.098C124.538 47.098 123.842 46.9304 123.255 46.5954C122.672 46.2569 122.224 45.7787 121.91 45.161C121.596 44.5398 121.439 43.8086 121.439 42.9675C121.439 42.1404 121.596 41.4144 121.91 40.7897C122.227 40.1615 122.671 39.6729 123.24 39.3239C123.808 38.9714 124.477 38.7952 125.245 38.7952C125.74 38.7952 126.208 38.8754 126.648 39.036C127.091 39.193 127.482 39.4373 127.82 39.7689C128.162 40.1004 128.431 40.5227 128.626 41.0358C128.822 41.5453 128.92 42.1526 128.92 42.8576V43.4387H122.329V42.1613H127.103C127.1 41.7983 127.021 41.4755 126.867 41.1928C126.714 40.9066 126.499 40.6815 126.224 40.5175C125.951 40.3535 125.634 40.2714 125.271 40.2714C124.883 40.2714 124.543 40.3657 124.25 40.5541C123.957 40.7391 123.728 40.9834 123.564 41.2871C123.404 41.5872 123.322 41.917 123.318 42.2765V43.3915C123.318 43.8592 123.404 44.2606 123.575 44.5956C123.746 44.9272 123.985 45.1819 124.292 45.3599C124.599 45.5344 124.958 45.6217 125.37 45.6217C125.646 45.6217 125.895 45.5833 126.119 45.5065C126.342 45.4262 126.536 45.3093 126.7 45.1558C126.864 45.0022 126.988 44.812 127.072 44.5851L128.841 44.7841C128.729 45.2517 128.517 45.6601 128.202 46.0091C127.892 46.3546 127.494 46.6233 127.009 46.8153C126.524 47.0037 125.969 47.098 125.344 47.098ZM133.507 47.0823C132.875 47.0823 132.31 46.92 131.811 46.5954C131.312 46.2708 130.917 45.7997 130.628 45.1819C130.338 44.5642 130.193 43.8138 130.193 42.9309C130.193 42.0374 130.34 41.2836 130.633 40.6693C130.929 40.0516 131.329 39.5857 131.832 39.2716C132.334 38.954 132.894 38.7952 133.512 38.7952C133.983 38.7952 134.371 38.8754 134.674 39.036C134.978 39.193 135.219 39.3832 135.397 39.6066C135.575 39.8265 135.713 40.0341 135.81 40.2296H135.889V36.2195H137.789V46.9409H135.925V45.674H135.81C135.713 45.8695 135.571 46.0771 135.386 46.297C135.201 46.5134 134.957 46.6984 134.653 46.8519C134.35 47.0055 133.968 47.0823 133.507 47.0823ZM134.036 45.5275C134.437 45.5275 134.779 45.4193 135.062 45.2029C135.344 44.983 135.559 44.6776 135.706 44.2867C135.852 43.8959 135.925 43.4404 135.925 42.9204C135.925 42.4004 135.852 41.9484 135.706 41.5645C135.562 41.1806 135.35 40.8822 135.067 40.6693C134.788 40.4564 134.444 40.35 134.036 40.35C133.613 40.35 133.261 40.4599 132.978 40.6798C132.695 40.8997 132.483 41.2033 132.339 41.5907C132.196 41.9781 132.125 42.4213 132.125 42.9204C132.125 43.423 132.196 43.8714 132.339 44.2658C132.486 44.6567 132.701 44.9656 132.983 45.1924C133.27 45.4158 133.62 45.5275 134.036 45.5275ZM145.779 47.1032C145.27 47.1032 144.811 47.0125 144.402 46.831C143.997 46.646 143.676 46.3738 143.439 46.0143C143.205 45.6548 143.088 45.2116 143.088 44.6846C143.088 44.2309 143.172 43.8557 143.34 43.5591C143.507 43.2624 143.736 43.0251 144.025 42.8471C144.315 42.6691 144.641 42.5347 145.004 42.444C145.371 42.3498 145.749 42.2817 146.14 42.2398C146.612 42.191 146.994 42.1473 147.287 42.109C147.58 42.0671 147.793 42.0043 147.926 41.9205C148.062 41.8332 148.13 41.6989 148.13 41.5174V41.486C148.13 41.0916 148.013 40.7862 147.779 40.5698C147.545 40.3535 147.208 40.2453 146.769 40.2453C146.304 40.2453 145.936 40.3465 145.664 40.5489C145.395 40.7513 145.214 40.9904 145.12 41.2661L143.35 41.0148C143.49 40.5262 143.72 40.1179 144.041 39.7898C144.362 39.4583 144.755 39.2105 145.219 39.0464C145.683 38.8789 146.196 38.7952 146.758 38.7952C147.145 38.7952 147.531 38.8405 147.915 38.9313C148.299 39.022 148.65 39.1721 148.967 39.3815C149.285 39.5874 149.54 39.8683 149.732 40.2243C149.927 40.5803 150.025 41.0253 150.025 41.5593V46.9409H148.203V45.8363H148.14C148.025 46.0597 147.863 46.2691 147.653 46.4645C147.447 46.6565 147.187 46.8118 146.873 46.9304C146.563 47.0456 146.198 47.1032 145.779 47.1032ZM146.271 45.7107C146.652 45.7107 146.981 45.6356 147.261 45.4856C147.54 45.332 147.754 45.1296 147.905 44.8783C148.058 44.627 148.135 44.3531 148.135 44.0564V43.1089C148.076 43.1577 147.974 43.2031 147.831 43.245C147.692 43.2868 147.535 43.3235 147.36 43.3549C147.186 43.3863 147.013 43.4142 146.842 43.4387C146.671 43.4631 146.523 43.484 146.397 43.5015C146.114 43.5399 145.861 43.6027 145.638 43.6899C145.414 43.7772 145.238 43.8993 145.109 44.0564C144.98 44.21 144.915 44.4089 144.915 44.6532C144.915 45.0022 145.043 45.2657 145.298 45.4437C145.552 45.6217 145.877 45.7107 146.271 45.7107ZM155.587 38.8999H157.482V47.4016C157.482 47.981 157.372 48.4591 157.152 48.836C156.932 49.2129 156.615 49.4939 156.2 49.6789C155.784 49.8638 155.28 49.9563 154.687 49.9563C154.617 49.9563 154.552 49.9546 154.493 49.9511C154.434 49.9511 154.369 49.9493 154.299 49.9458V48.4015C154.352 48.405 154.399 48.4067 154.441 48.4067C154.482 48.4102 154.526 48.412 154.571 48.412C154.934 48.412 155.194 48.323 155.351 48.145C155.508 47.9705 155.587 47.714 155.587 47.3754V38.8999ZM156.529 37.7586C156.226 37.7586 155.966 37.6592 155.749 37.4602C155.536 37.2578 155.43 37.0152 155.43 36.7325C155.43 36.4464 155.536 36.2038 155.749 36.0049C155.966 35.8025 156.226 35.7012 156.529 35.7012C156.829 35.7012 157.086 35.8025 157.299 36.0049C157.515 36.2038 157.623 36.4464 157.623 36.7325C157.623 37.0152 157.515 37.2578 157.299 37.4602C157.086 37.6592 156.829 37.7586 156.529 37.7586ZM162.938 47.098C162.153 47.098 161.473 46.9252 160.897 46.5797C160.321 46.2342 159.874 45.7508 159.557 45.1296C159.242 44.5084 159.085 43.7824 159.085 42.9518C159.085 42.1212 159.242 41.3935 159.557 40.7688C159.874 40.1441 160.321 39.6589 160.897 39.3134C161.473 38.9679 162.153 38.7952 162.938 38.7952C163.724 38.7952 164.404 38.9679 164.98 39.3134C165.556 39.6589 166.001 40.1441 166.315 40.7688C166.633 41.3935 166.791 42.1212 166.791 42.9518C166.791 43.7824 166.633 44.5084 166.315 45.1296C166.001 45.7508 165.556 46.2342 164.98 46.5797C164.404 46.9252 163.724 47.098 162.938 47.098ZM162.949 45.5798C163.375 45.5798 163.731 45.4629 164.017 45.2291C164.303 44.9917 164.516 44.6741 164.655 44.2763C164.799 43.8784 164.87 43.4352 164.87 42.9466C164.87 42.4545 164.799 42.0095 164.655 41.6116C164.516 41.2103 164.303 40.8909 164.017 40.6536C163.731 40.4163 163.375 40.2976 162.949 40.2976C162.513 40.2976 162.15 40.4163 161.86 40.6536C161.574 40.8909 161.359 41.2103 161.216 41.6116C161.076 42.0095 161.007 42.4545 161.007 42.9466C161.007 43.4352 161.076 43.8784 161.216 44.2763C161.359 44.6741 161.574 44.9917 161.86 45.2291C162.15 45.4629 162.513 45.5798 162.949 45.5798ZM168.484 46.9409V36.2195H170.379V40.2296H170.457C170.555 40.0341 170.693 39.8265 170.871 39.6066C171.049 39.3832 171.29 39.193 171.593 39.036C171.897 38.8754 172.284 38.7952 172.755 38.7952C173.377 38.7952 173.937 38.954 174.436 39.2716C174.938 39.5857 175.336 40.0516 175.629 40.6693C175.926 41.2836 176.074 42.0374 176.074 42.9309C176.074 43.8138 175.93 44.5642 175.64 45.1819C175.35 45.7997 174.956 46.2708 174.457 46.5954C173.958 46.92 173.392 47.0823 172.761 47.0823C172.3 47.0823 171.918 47.0055 171.614 46.8519C171.311 46.6984 171.066 46.5134 170.881 46.297C170.7 46.0771 170.558 45.8695 170.457 45.674H170.347V46.9409H168.484ZM170.342 42.9204C170.342 43.4404 170.415 43.8959 170.562 44.2867C170.712 44.6776 170.927 44.983 171.206 45.2029C171.489 45.4193 171.831 45.5275 172.232 45.5275C172.651 45.5275 173.001 45.4158 173.284 45.1924C173.567 44.9656 173.78 44.6567 173.923 44.2658C174.069 43.8714 174.143 43.423 174.143 42.9204C174.143 42.4213 174.071 41.9781 173.928 41.5907C173.785 41.2033 173.572 40.8997 173.289 40.6798C173.007 40.4599 172.654 40.35 172.232 40.35C171.827 40.35 171.483 40.4564 171.201 40.6693C170.918 40.8822 170.703 41.1806 170.557 41.5645C170.414 41.9484 170.342 42.4004 170.342 42.9204ZM184.85 47.098C184.064 47.098 183.384 46.9252 182.808 46.5797C182.232 46.2342 181.785 45.7508 181.468 45.1296C181.154 44.5084 180.997 43.7824 180.997 42.9518C180.997 42.1212 181.154 41.3935 181.468 40.7688C181.785 40.1441 182.232 39.6589 182.808 39.3134C183.384 38.9679 184.064 38.7952 184.85 38.7952C185.635 38.7952 186.316 38.9679 186.891 39.3134C187.467 39.6589 187.912 40.1441 188.226 40.7688C188.544 41.3935 188.703 42.1212 188.703 42.9518C188.703 43.7824 188.544 44.5084 188.226 45.1296C187.912 45.7508 187.467 46.2342 186.891 46.5797C186.316 46.9252 185.635 47.098 184.85 47.098ZM184.86 45.5798C185.286 45.5798 185.642 45.4629 185.928 45.2291C186.214 44.9917 186.427 44.6741 186.567 44.2763C186.71 43.8784 186.781 43.4352 186.781 42.9466C186.781 42.4545 186.71 42.0095 186.567 41.6116C186.427 41.2103 186.214 40.8909 185.928 40.6536C185.642 40.4163 185.286 40.2976 184.86 40.2976C184.424 40.2976 184.061 40.4163 183.771 40.6536C183.485 40.8909 183.27 41.2103 183.127 41.6116C182.988 42.0095 182.918 42.4545 182.918 42.9466C182.918 43.4352 182.988 43.8784 183.127 44.2763C183.27 44.6741 183.485 44.9917 183.771 45.2291C184.061 45.4629 184.424 45.5798 184.86 45.5798ZM194.384 38.8999V40.3657H189.631V38.8999H194.384ZM190.819 46.9409V38.1408C190.819 37.5998 190.931 37.1496 191.154 36.7901C191.381 36.4307 191.685 36.1619 192.065 35.9839C192.445 35.8059 192.868 35.7169 193.332 35.7169C193.66 35.7169 193.951 35.7431 194.206 35.7955C194.461 35.8478 194.649 35.8949 194.771 35.9368L194.395 37.4026C194.314 37.3782 194.213 37.3538 194.091 37.3293C193.969 37.3014 193.833 37.2875 193.683 37.2875C193.33 37.2875 193.081 37.373 192.934 37.544C192.791 37.7115 192.719 37.9523 192.719 38.2664V46.9409H190.819ZM199.941 38.8999V40.3657H195.188V38.8999H199.941ZM196.376 46.9409V38.1408C196.376 37.5998 196.488 37.1496 196.711 36.7901C196.938 36.4307 197.242 36.1619 197.622 35.9839C198.002 35.8059 198.425 35.7169 198.889 35.7169C199.217 35.7169 199.508 35.7431 199.763 35.7955C200.018 35.8478 200.206 35.8949 200.328 35.9368L199.952 37.4026C199.871 37.3782 199.77 37.3538 199.648 37.3293C199.526 37.3014 199.39 37.2875 199.24 37.2875C198.887 37.2875 198.638 37.373 198.491 37.544C198.348 37.7115 198.276 37.9523 198.276 38.2664V46.9409H196.376ZM204.683 47.098C203.877 47.098 203.18 46.9304 202.594 46.5954C202.011 46.2569 201.563 45.7787 201.249 45.161C200.934 44.5398 200.777 43.8086 200.777 42.9675C200.777 42.1404 200.934 41.4144 201.249 40.7897C201.566 40.1615 202.009 39.6729 202.578 39.3239C203.147 38.9714 203.815 38.7952 204.583 38.7952C205.079 38.7952 205.547 38.8754 205.986 39.036C206.429 39.193 206.82 39.4373 207.159 39.7689C207.501 40.1004 207.77 40.5227 207.965 41.0358C208.161 41.5453 208.258 42.1526 208.258 42.8576V43.4387H201.667V42.1613H206.442C206.438 41.7983 206.36 41.4755 206.206 41.1928C206.053 40.9066 205.838 40.6815 205.562 40.5175C205.29 40.3535 204.972 40.2714 204.609 40.2714C204.222 40.2714 203.882 40.3657 203.589 40.5541C203.295 40.7391 203.067 40.9834 202.903 41.2871C202.742 41.5872 202.66 41.917 202.657 42.2765V43.3915C202.657 43.8592 202.742 44.2606 202.913 44.5956C203.084 44.9272 203.323 45.1819 203.63 45.3599C203.938 45.5344 204.297 45.6217 204.709 45.6217C204.985 45.6217 205.234 45.5833 205.458 45.5065C205.681 45.4262 205.875 45.3093 206.039 45.1558C206.203 45.0022 206.327 44.812 206.41 44.5851L208.18 44.7841C208.068 45.2517 207.855 45.6601 207.541 46.0091C207.23 46.3546 206.833 46.6233 206.347 46.8153C205.862 47.0037 205.307 47.098 204.683 47.098ZM209.862 46.9409V38.8999H211.699V40.24H211.783C211.929 39.7759 212.181 39.4181 212.537 39.1669C212.896 38.9121 213.306 38.7847 213.767 38.7847C213.872 38.7847 213.988 38.7899 214.118 38.8004C214.25 38.8074 214.36 38.8196 214.447 38.837V40.5803C214.367 40.5524 214.24 40.528 214.065 40.507C213.894 40.4826 213.728 40.4704 213.568 40.4704C213.222 40.4704 212.912 40.5454 212.636 40.6955C212.364 40.8421 212.149 41.0462 211.992 41.308C211.835 41.5697 211.757 41.8716 211.757 42.2137V46.9409H209.862ZM223.436 38.8999V40.3657H218.683V38.8999H223.436ZM219.871 46.9409V38.1408C219.871 37.5998 219.983 37.1496 220.206 36.7901C220.433 36.4307 220.736 36.1619 221.117 35.9839C221.497 35.8059 221.92 35.7169 222.384 35.7169C222.712 35.7169 223.003 35.7431 223.258 35.7955C223.513 35.8478 223.701 35.8949 223.823 35.9368L223.447 37.4026C223.366 37.3782 223.265 37.3538 223.143 37.3293C223.021 37.3014 222.885 37.2875 222.735 37.2875C222.382 37.2875 222.133 37.373 221.986 37.544C221.843 37.7115 221.771 37.9523 221.771 38.2664V46.9409H219.871ZM228.125 47.098C227.34 47.098 226.66 46.9252 226.084 46.5797C225.508 46.2342 225.061 45.7508 224.743 45.1296C224.429 44.5084 224.272 43.7824 224.272 42.9518C224.272 42.1212 224.429 41.3935 224.743 40.7688C225.061 40.1441 225.508 39.6589 226.084 39.3134C226.66 38.9679 227.34 38.7952 228.125 38.7952C228.911 38.7952 229.591 38.9679 230.167 39.3134C230.743 39.6589 231.188 40.1441 231.502 40.7688C231.82 41.3935 231.978 42.1212 231.978 42.9518C231.978 43.7824 231.82 44.5084 231.502 45.1296C231.188 45.7508 230.743 46.2342 230.167 46.5797C229.591 46.9252 228.911 47.098 228.125 47.098ZM228.136 45.5798C228.562 45.5798 228.918 45.4629 229.204 45.2291C229.49 44.9917 229.703 44.6741 229.842 44.2763C229.986 43.8784 230.057 43.4352 230.057 42.9466C230.057 42.4545 229.986 42.0095 229.842 41.6116C229.703 41.2103 229.49 40.8909 229.204 40.6536C228.918 40.4163 228.562 40.2976 228.136 40.2976C227.7 40.2976 227.337 40.4163 227.047 40.6536C226.761 40.8909 226.546 41.2103 226.403 41.6116C226.263 42.0095 226.194 42.4545 226.194 42.9466C226.194 43.4352 226.263 43.8784 226.403 44.2763C226.546 44.6741 226.761 44.9917 227.047 45.2291C227.337 45.4629 227.7 45.5798 228.136 45.5798ZM233.587 46.9409V38.8999H235.424V40.24H235.508C235.655 39.7759 235.906 39.4181 236.262 39.1669C236.621 38.9121 237.031 38.7847 237.492 38.7847C237.597 38.7847 237.714 38.7899 237.843 38.8004C237.976 38.8074 238.085 38.8196 238.173 38.837V40.5803C238.092 40.5524 237.965 40.528 237.791 40.507C237.62 40.4826 237.454 40.4704 237.293 40.4704C236.948 40.4704 236.637 40.5454 236.361 40.6955C236.089 40.8421 235.875 41.0462 235.717 41.308C235.56 41.5697 235.482 41.8716 235.482 42.2137V46.9409H233.587ZM243.088 46.9409V38.8999H244.984V46.9409H243.088ZM244.041 37.7586C243.741 37.7586 243.483 37.6592 243.266 37.4602C243.05 37.2578 242.942 37.0152 242.942 36.7325C242.942 36.4464 243.05 36.2038 243.266 36.0049C243.483 35.8025 243.741 35.7012 244.041 35.7012C244.345 35.7012 244.603 35.8025 244.816 36.0049C245.032 36.2038 245.141 36.4464 245.141 36.7325C245.141 37.0152 245.032 37.2578 244.816 37.4602C244.603 37.6592 244.345 37.7586 244.041 37.7586ZM246.932 46.9409V38.8999H248.744V40.2662H248.838C249.005 39.8055 249.283 39.4461 249.67 39.1878C250.058 38.926 250.52 38.7952 251.058 38.7952C251.602 38.7952 252.061 38.9278 252.434 39.193C252.811 39.4548 253.077 39.8125 253.23 40.2662H253.314C253.492 39.8195 253.792 39.4635 254.214 39.1983C254.64 38.9295 255.144 38.7952 255.727 38.7952C256.467 38.7952 257.071 39.029 257.539 39.4967C258.006 39.9643 258.24 40.6466 258.24 41.5436V46.9409H256.34V41.8367C256.34 41.3377 256.207 40.9729 255.942 40.7426C255.677 40.5088 255.352 40.3919 254.968 40.3919C254.511 40.3919 254.153 40.5349 253.895 40.8211C253.64 41.1038 253.513 41.472 253.513 41.9257V46.9409H251.654V41.7582C251.654 41.3429 251.529 41.0113 251.277 40.7635C251.03 40.5158 250.705 40.3919 250.304 40.3919C250.031 40.3919 249.784 40.4617 249.56 40.6013C249.337 40.7374 249.159 40.9311 249.026 41.1823C248.894 41.4301 248.827 41.7198 248.827 42.0514V46.9409H246.932ZM260.163 46.9409V38.8999H261.974V40.2662H262.068C262.236 39.8055 262.513 39.4461 262.901 39.1878C263.288 38.926 263.75 38.7952 264.288 38.7952C264.832 38.7952 265.291 38.9278 265.665 39.193C266.042 39.4548 266.307 39.8125 266.46 40.2662H266.544C266.722 39.8195 267.022 39.4635 267.445 39.1983C267.87 38.9295 268.375 38.7952 268.958 38.7952C269.697 38.7952 270.301 39.029 270.769 39.4967C271.237 39.9643 271.47 40.6466 271.47 41.5436V46.9409H269.57V41.8367C269.57 41.3377 269.437 40.9729 269.172 40.7426C268.907 40.5088 268.582 40.3919 268.198 40.3919C267.741 40.3919 267.384 40.5349 267.125 40.8211C266.87 41.1038 266.743 41.472 266.743 41.9257V46.9409H264.885V41.7582C264.885 41.3429 264.759 41.0113 264.508 40.7635C264.26 40.5158 263.935 40.3919 263.534 40.3919C263.262 40.3919 263.014 40.4617 262.791 40.6013C262.567 40.7374 262.389 40.9311 262.257 41.1823C262.124 41.4301 262.058 41.7198 262.058 42.0514V46.9409H260.163ZM273.393 46.9409V38.8999H275.288V46.9409H273.393ZM274.346 37.7586C274.046 37.7586 273.787 37.6592 273.571 37.4602C273.355 37.2578 273.246 37.0152 273.246 36.7325C273.246 36.4464 273.355 36.2038 273.571 36.0049C273.787 35.8025 274.046 35.7012 274.346 35.7012C274.649 35.7012 274.908 35.8025 275.12 36.0049C275.337 36.2038 275.445 36.4464 275.445 36.7325C275.445 37.0152 275.337 37.2578 275.12 37.4602C274.908 37.6592 274.649 37.7586 274.346 37.7586ZM280.734 50.1238C280.053 50.1238 279.469 50.0313 278.98 49.8464C278.491 49.6649 278.099 49.4206 277.802 49.1135C277.506 48.8063 277.3 48.4661 277.184 48.0926L278.891 47.6791C278.968 47.8361 279.08 47.9914 279.226 48.145C279.373 48.302 279.57 48.4312 279.818 48.5324C280.069 48.6371 280.385 48.6894 280.765 48.6894C281.303 48.6894 281.748 48.5586 282.1 48.2968C282.453 48.0385 282.629 47.6128 282.629 47.0194V45.496H282.535C282.437 45.6915 282.294 45.8922 282.105 46.0981C281.92 46.304 281.674 46.4767 281.367 46.6163C281.064 46.7559 280.681 46.8257 280.221 46.8257C279.603 46.8257 279.043 46.6809 278.54 46.3912C278.041 46.0981 277.643 45.6618 277.347 45.0825C277.054 44.4996 276.907 43.7702 276.907 42.8942C276.907 42.0112 277.054 41.2661 277.347 40.6588C277.643 40.0481 278.043 39.5857 278.546 39.2716C279.048 38.954 279.608 38.7952 280.226 38.7952C280.697 38.7952 281.085 38.8754 281.388 39.036C281.695 39.193 281.94 39.3832 282.121 39.6066C282.303 39.8265 282.44 40.0341 282.535 40.2296H282.639V38.8999H284.508V47.0718C284.508 47.7593 284.344 48.3282 284.016 48.7784C283.688 49.2286 283.24 49.5654 282.671 49.7888C282.102 50.0122 281.456 50.1238 280.734 50.1238ZM280.749 45.339C281.151 45.339 281.493 45.2413 281.776 45.0458C282.058 44.8504 282.273 44.5694 282.419 44.203C282.566 43.8365 282.639 43.3968 282.639 42.8837C282.639 42.3777 282.566 41.9345 282.419 41.554C282.276 41.1736 282.063 40.8787 281.781 40.6693C281.502 40.4564 281.158 40.35 280.749 40.35C280.327 40.35 279.975 40.4599 279.692 40.6798C279.409 40.8997 279.196 41.2015 279.053 41.5854C278.91 41.9659 278.839 42.3986 278.839 42.8837C278.839 43.3758 278.91 43.8069 279.053 44.1768C279.2 44.5433 279.415 44.8294 279.697 45.0354C279.983 45.2378 280.334 45.339 280.749 45.339ZM286.45 46.9409V38.8999H288.288V40.24H288.372C288.518 39.7759 288.77 39.4181 289.126 39.1669C289.485 38.9121 289.895 38.7847 290.356 38.7847C290.461 38.7847 290.577 38.7899 290.707 38.8004C290.839 38.8074 290.949 38.8196 291.036 38.837V40.5803C290.956 40.5524 290.829 40.528 290.654 40.507C290.483 40.4826 290.317 40.4704 290.157 40.4704C289.811 40.4704 289.501 40.5454 289.225 40.6955C288.953 40.8421 288.738 41.0462 288.581 41.308C288.424 41.5697 288.346 41.8716 288.346 42.2137V46.9409H286.45ZM294.465 47.1032C293.956 47.1032 293.497 47.0125 293.089 46.831C292.684 46.646 292.363 46.3738 292.125 46.0143C291.891 45.6548 291.775 45.2116 291.775 44.6846C291.775 44.2309 291.858 43.8557 292.026 43.5591C292.193 43.2624 292.422 43.0251 292.712 42.8471C293.001 42.6691 293.328 42.5347 293.691 42.444C294.057 42.3498 294.436 42.2817 294.827 42.2398C295.298 42.191 295.68 42.1473 295.973 42.109C296.266 42.0671 296.479 42.0043 296.612 41.9205C296.748 41.8332 296.816 41.6989 296.816 41.5174V41.486C296.816 41.0916 296.699 40.7862 296.465 40.5698C296.231 40.3535 295.895 40.2453 295.455 40.2453C294.991 40.2453 294.622 40.3465 294.35 40.5489C294.081 40.7513 293.9 40.9904 293.806 41.2661L292.036 41.0148C292.176 40.5262 292.406 40.1179 292.727 39.7898C293.048 39.4583 293.441 39.2105 293.905 39.0464C294.369 38.8789 294.882 38.7952 295.444 38.7952C295.832 38.7952 296.217 38.8405 296.601 38.9313C296.985 39.022 297.336 39.1721 297.654 39.3815C297.971 39.5874 298.226 39.8683 298.418 40.2243C298.613 40.5803 298.711 41.0253 298.711 41.5593V46.9409H296.889V45.8363H296.826C296.711 46.0597 296.549 46.2691 296.34 46.4645C296.134 46.6565 295.874 46.8118 295.559 46.9304C295.249 47.0456 294.884 47.1032 294.465 47.1032ZM294.957 45.7107C295.338 45.7107 295.668 45.6356 295.947 45.4856C296.226 45.332 296.441 45.1296 296.591 44.8783C296.744 44.627 296.821 44.3531 296.821 44.0564V43.1089C296.762 43.1577 296.661 43.2031 296.517 43.245C296.378 43.2868 296.221 43.3235 296.046 43.3549C295.872 43.3863 295.699 43.4142 295.528 43.4387C295.357 43.4631 295.209 43.484 295.083 43.5015C294.8 43.5399 294.547 43.6027 294.324 43.6899C294.101 43.7772 293.924 43.8993 293.795 44.0564C293.666 44.21 293.602 44.4089 293.602 44.6532C293.602 45.0022 293.729 45.2657 293.984 45.4437C294.239 45.6217 294.563 45.7107 294.957 45.7107ZM304.632 38.8999V40.3657H300.009V38.8999H304.632ZM301.151 36.9734H303.046V44.5223C303.046 44.7771 303.084 44.9725 303.161 45.1086C303.241 45.2413 303.346 45.332 303.475 45.3809C303.604 45.4297 303.747 45.4542 303.904 45.4542C304.023 45.4542 304.131 45.4454 304.229 45.428C304.33 45.4105 304.407 45.3948 304.459 45.3809L304.778 46.8624C304.677 46.8973 304.532 46.9357 304.344 46.9776C304.159 47.0194 303.932 47.0439 303.663 47.0509C303.189 47.0648 302.761 46.9933 302.381 46.8362C302 46.6757 301.698 46.4279 301.475 46.0928C301.255 45.7578 301.147 45.339 301.151 44.8364V36.9734ZM306.217 46.9409V38.8999H308.112V46.9409H306.217ZM307.17 37.7586C306.869 37.7586 306.611 37.6592 306.395 37.4602C306.178 37.2578 306.07 37.0152 306.07 36.7325C306.07 36.4464 306.178 36.2038 306.395 36.0049C306.611 35.8025 306.869 35.7012 307.17 35.7012C307.473 35.7012 307.731 35.8025 307.944 36.0049C308.161 36.2038 308.269 36.4464 308.269 36.7325C308.269 37.0152 308.161 37.2578 307.944 37.4602C307.731 37.6592 307.473 37.7586 307.17 37.7586ZM313.568 47.098C312.783 47.098 312.102 46.9252 311.526 46.5797C310.951 46.2342 310.504 45.7508 310.186 45.1296C309.872 44.5084 309.715 43.7824 309.715 42.9518C309.715 42.1212 309.872 41.3935 310.186 40.7688C310.504 40.1441 310.951 39.6589 311.526 39.3134C312.102 38.9679 312.783 38.7952 313.568 38.7952C314.353 38.7952 315.034 38.9679 315.61 39.3134C316.186 39.6589 316.631 40.1441 316.945 40.7688C317.262 41.3935 317.421 42.1212 317.421 42.9518C317.421 43.7824 317.262 44.5084 316.945 45.1296C316.631 45.7508 316.186 46.2342 315.61 46.5797C315.034 46.9252 314.353 47.098 313.568 47.098ZM313.579 45.5798C314.004 45.5798 314.36 45.4629 314.647 45.2291C314.933 44.9917 315.146 44.6741 315.285 44.2763C315.428 43.8784 315.5 43.4352 315.5 42.9466C315.5 42.4545 315.428 42.0095 315.285 41.6116C315.146 41.2103 314.933 40.8909 314.647 40.6536C314.36 40.4163 314.004 40.2976 313.579 40.2976C313.142 40.2976 312.779 40.4163 312.49 40.6536C312.203 40.8909 311.989 41.2103 311.846 41.6116C311.706 42.0095 311.636 42.4545 311.636 42.9466C311.636 43.4352 311.706 43.8784 311.846 44.2763C311.989 44.6741 312.203 44.9917 312.49 45.2291C312.779 45.4629 313.142 45.5798 313.579 45.5798ZM320.925 42.2294V46.9409H319.03V38.8999H320.841V40.2662H320.935C321.12 39.816 321.415 39.4583 321.82 39.193C322.228 38.9278 322.733 38.7952 323.333 38.7952C323.888 38.7952 324.371 38.9138 324.783 39.1511C325.198 39.3885 325.519 39.7322 325.746 40.1825C325.977 40.6327 326.09 41.1789 326.086 41.821V46.9409H324.191V42.1142C324.191 41.5767 324.052 41.1562 323.773 40.8525C323.497 40.5489 323.115 40.3971 322.626 40.3971C322.295 40.3971 322 40.4704 321.741 40.617C321.487 40.7601 321.286 40.9677 321.139 41.2399C320.996 41.5122 320.925 41.842 320.925 42.2294ZM329.824 43.7894V43.6533C329.828 43.0216 329.887 42.519 330.002 42.1456C330.121 41.7722 330.288 41.472 330.505 41.2452C330.721 41.0148 330.985 40.8037 331.295 40.6117C331.508 40.4791 331.698 40.3343 331.866 40.1772C332.037 40.0167 332.171 39.8387 332.269 39.6432C332.367 39.4443 332.416 39.2227 332.416 38.9784C332.416 38.7027 332.351 38.4636 332.222 38.2612C332.093 38.0588 331.918 37.9017 331.698 37.79C331.482 37.6783 331.239 37.6225 330.971 37.6225C330.723 37.6225 330.487 37.6766 330.264 37.7848C330.044 37.8895 329.861 38.05 329.714 38.2664C329.571 38.4793 329.491 38.7498 329.474 39.0779H327.61C327.627 38.4147 327.788 37.8598 328.091 37.4131C328.399 36.9664 328.803 36.6313 329.306 36.408C329.812 36.1846 330.37 36.0729 330.981 36.0729C331.648 36.0729 332.234 36.1898 332.74 36.4237C333.25 36.6575 333.646 36.9908 333.929 37.4236C334.215 37.8528 334.358 38.3624 334.358 38.9522C334.358 39.3501 334.293 39.7061 334.164 40.0202C334.039 40.3343 333.859 40.6135 333.625 40.8578C333.391 41.1021 333.114 41.3202 332.793 41.5122C332.51 41.6867 332.278 41.8681 332.096 42.0566C331.918 42.2451 331.786 42.4667 331.698 42.7215C331.615 42.9727 331.571 43.2834 331.568 43.6533V43.7894H329.824ZM330.735 47.0561C330.421 47.0561 330.151 46.9444 329.924 46.721C329.697 46.4977 329.583 46.2255 329.583 45.9044C329.583 45.5903 329.697 45.3215 329.924 45.0982C330.151 44.8748 330.421 44.7631 330.735 44.7631C331.046 44.7631 331.315 44.8748 331.541 45.0982C331.772 45.3215 331.887 45.5903 331.887 45.9044C331.887 46.1173 331.833 46.311 331.725 46.4855C331.62 46.66 331.48 46.7996 331.306 46.9043C331.135 47.0055 330.945 47.0561 330.735 47.0561Z" fill="#1B1139"/>
<rect opacity="0.8" x="45.8701" y="38.9023" width="14.7419" height="2.45699" rx="1.22849" fill="#1B1139"/>
<rect opacity="0.8" x="54.4702" y="32.76" width="14.7419" height="2.45699" rx="1.22849" transform="rotate(90 54.4702 32.76)" fill="#1B1139"/>
<defs>
<filter id="filter0_d_160_348" x="0.000139236" y="0" width="486.497" height="116.76" filterUnits="userSpaceOnUse" color-interpolation-filters="sRGB">
<feFlood flood-opacity="0" result="BackgroundImageFix"/>
<feColorMatrix in="SourceAlpha" type="matrix" values="0 0 0 0 0 0 0 0 0 0 0 0 0 0 0 0 0 0 127 0" result="hardAlpha"/>
<feMorphology radius="12.0669" operator="erode" in="SourceAlpha" result="effect1_dropShadow_160_348"/>
<feOffset dy="20.1114"/>
<feGaussianBlur stdDeviation="13.4076"/>
<feColorMatrix type="matrix" values="0 0 0 0 0.583333 0 0 0 0 0.583333 0 0 0 0 0.583333 0 0 0 0.25 0"/>
<feBlend mode="normal" in2="BackgroundImageFix" result="effect1_dropShadow_160_348"/>
<feBlend mode="normal" in="SourceGraphic" in2="effect1_dropShadow_160_348" result="shape"/>
</filter>
</defs>
</svg>
