<svg width="385" height="19" viewBox="0 0 385 19" fill="none" xmlns="http://www.w3.org/2000/svg">
<path opacity="0.88" d="M30.8991 15H27.266V4.27859H30.9724C32.0369 4.27859 32.9513 4.49323 33.7156 4.92251C34.4834 5.34829 35.0732 5.96079 35.485 6.76001C35.8969 7.55923 36.1028 8.5155 36.1028 9.62883C36.1028 10.7456 35.8951 11.7054 35.4798 12.5081C35.068 13.3108 34.4729 13.9268 33.6946 14.3561C32.9198 14.7854 31.988 15 30.8991 15ZM29.2082 13.3195H30.8049C31.5517 13.3195 32.1747 13.1834 32.6738 12.9112C33.1729 12.6355 33.5481 12.2254 33.7993 11.681C34.0506 11.133 34.1763 10.449 34.1763 9.62883C34.1763 8.80867 34.0506 8.12811 33.7993 7.58715C33.5481 7.04271 33.1764 6.63612 32.6843 6.36738C32.1957 6.09516 31.5884 5.95905 30.8625 5.95905H29.2082V13.3195ZM41.3719 15.1571C40.5866 15.1571 39.906 14.9843 39.3302 14.6388C38.7543 14.2933 38.3076 13.8099 37.99 13.1887C37.6759 12.5674 37.5188 11.8415 37.5188 11.0109C37.5188 10.1803 37.6759 9.45258 37.99 8.82786C38.3076 8.20314 38.7543 7.71803 39.3302 7.37251C39.906 7.027 40.5866 6.85424 41.3719 6.85424C42.1571 6.85424 42.8377 7.027 43.4135 7.37251C43.9894 7.71803 44.4344 8.20314 44.7485 8.82786C45.0661 9.45258 45.2249 10.1803 45.2249 11.0109C45.2249 11.8415 45.0661 12.5674 44.7485 13.1887C44.4344 13.8099 43.9894 14.2933 43.4135 14.6388C42.8377 14.9843 42.1571 15.1571 41.3719 15.1571ZM41.3823 13.6389C41.8081 13.6389 42.1641 13.522 42.4503 13.2881C42.7365 13.0508 42.9494 12.7332 43.089 12.3354C43.232 11.9375 43.3036 11.4943 43.3036 11.0056C43.3036 10.5136 43.232 10.0686 43.089 9.67071C42.9494 9.26935 42.7365 8.95001 42.4503 8.71269C42.1641 8.47537 41.8081 8.35671 41.3823 8.35671C40.9461 8.35671 40.5831 8.47537 40.2934 8.71269C40.0072 8.95001 39.7926 9.26935 39.6495 9.67071C39.5099 10.0686 39.4401 10.5136 39.4401 11.0056C39.4401 11.4943 39.5099 11.9375 39.6495 12.3354C39.7926 12.7332 40.0072 13.0508 40.2934 13.2881C40.5831 13.522 40.9461 13.6389 41.3823 13.6389ZM52.516 4.27859V15H50.5738V4.27859H52.516ZM60.0872 10.2884V15H58.1921V6.95894H60.0034V8.3253H60.0977C60.2826 7.87508 60.5776 7.51735 60.9824 7.25211C61.3907 6.98687 61.895 6.85424 62.4953 6.85424C63.0502 6.85424 63.5336 6.9729 63.9454 7.21023C64.3608 7.44755 64.6818 7.79132 64.9087 8.24153C65.139 8.69175 65.2525 9.23794 65.249 9.88011V15H63.3539V10.1733C63.3539 9.63581 63.2143 9.21526 62.9351 8.91162C62.6594 8.60799 62.2772 8.45617 61.7886 8.45617C61.457 8.45617 61.1621 8.52946 60.9039 8.67604C60.6491 8.81914 60.4484 9.02679 60.3018 9.29902C60.1587 9.57124 60.0872 9.90105 60.0872 10.2884ZM70.7353 15.1571C69.9291 15.1571 69.2329 14.9895 68.6465 14.6545C68.0637 14.316 67.6152 13.8378 67.3011 13.2201C66.987 12.5989 66.83 11.8677 66.83 11.0266C66.83 10.1994 66.987 9.47352 67.3011 8.8488C67.6187 8.22059 68.0619 7.73199 68.6308 7.38298C69.1997 7.03049 69.868 6.85424 70.6358 6.85424C71.1314 6.85424 71.5991 6.93451 72.0388 7.09506C72.4821 7.25211 72.873 7.49641 73.2115 7.82796C73.5535 8.15952 73.8223 8.58181 74.0177 9.09485C74.2131 9.6044 74.3109 10.2117 74.3109 10.9167V11.4977H67.7199V10.2204H72.4943C72.4908 9.85742 72.4123 9.53459 72.2587 9.2519C72.1052 8.96572 71.8905 8.74061 71.6148 8.57658C71.3426 8.41255 71.025 8.33053 70.662 8.33053C70.2746 8.33053 69.9344 8.42476 69.6412 8.61322C69.348 8.7982 69.1194 9.0425 68.9554 9.34613C68.7949 9.64628 68.7128 9.97609 68.7093 10.3356V11.4506C68.7093 11.9183 68.7949 12.3196 68.9659 12.6547C69.1369 12.9862 69.3759 13.241 69.6831 13.419C69.9902 13.5935 70.3497 13.6808 70.7615 13.6808C71.0372 13.6808 71.2867 13.6424 71.5101 13.5656C71.7335 13.4853 71.9272 13.3684 72.0912 13.2148C72.2552 13.0613 72.3791 12.8711 72.4629 12.6442L74.2323 12.8432C74.1207 13.3108 73.9078 13.7192 73.5937 14.0682C73.283 14.4137 72.8852 14.6824 72.4001 14.8744C71.9149 15.0628 71.36 15.1571 70.7353 15.1571ZM79.4739 15.1571C78.6677 15.1571 77.9715 14.9895 77.3852 14.6545C76.8023 14.316 76.3538 13.8378 76.0397 13.2201C75.7256 12.5989 75.5686 11.8677 75.5686 11.0266C75.5686 10.1994 75.7256 9.47352 76.0397 8.8488C76.3573 8.22059 76.8006 7.73199 77.3694 7.38298C77.9383 7.03049 78.6067 6.85424 79.3745 6.85424C79.8701 6.85424 80.3377 6.93451 80.7775 7.09506C81.2207 7.25211 81.6116 7.49641 81.9501 7.82796C82.2922 8.15952 82.5609 8.58181 82.7563 9.09485C82.9518 9.6044 83.0495 10.2117 83.0495 10.9167V11.4977H76.4585V10.2204H81.2329C81.2294 9.85742 81.1509 9.53459 80.9973 9.2519C80.8438 8.96572 80.6291 8.74061 80.3534 8.57658C80.0812 8.41255 79.7636 8.33053 79.4007 8.33053C79.0133 8.33053 78.673 8.42476 78.3798 8.61322C78.0867 8.7982 77.8581 9.0425 77.694 9.34613C77.5335 9.64628 77.4515 9.97609 77.448 10.3356V11.4506C77.448 11.9183 77.5335 12.3196 77.7045 12.6547C77.8755 12.9862 78.1146 13.241 78.4217 13.419C78.7288 13.5935 79.0883 13.6808 79.5001 13.6808C79.7758 13.6808 80.0254 13.6424 80.2487 13.5656C80.4721 13.4853 80.6658 13.3684 80.8298 13.2148C80.9939 13.0613 81.1178 12.8711 81.2015 12.6442L82.971 12.8432C82.8593 13.3108 82.6464 13.7192 82.3323 14.0682C82.0217 14.4137 81.6238 14.6824 81.1387 14.8744C80.6536 15.0628 80.0987 15.1571 79.4739 15.1571ZM87.6367 15.1413C87.005 15.1413 86.4396 14.9791 85.9406 14.6545C85.4415 14.3299 85.0471 13.8588 84.7574 13.241C84.4678 12.6233 84.3229 11.8729 84.3229 10.9899C84.3229 10.0965 84.4695 9.34264 84.7627 8.7284C85.0593 8.11066 85.4589 7.64474 85.9615 7.33063C86.4641 7.01304 87.0242 6.85424 87.642 6.85424C88.1131 6.85424 88.5005 6.93451 88.8041 7.09506C89.1078 7.25211 89.3486 7.44232 89.5266 7.66568C89.7046 7.88555 89.8424 8.09321 89.9401 8.28865H90.0187V4.27859H91.919V15H90.0553V13.7331H89.9401C89.8424 13.9286 89.7011 14.1362 89.5161 14.3561C89.3311 14.5725 89.0868 14.7574 88.7832 14.911C88.4796 15.0646 88.0974 15.1413 87.6367 15.1413ZM88.1655 13.5865C88.5668 13.5865 88.9088 13.4783 89.1915 13.262C89.4742 13.0421 89.6889 12.7367 89.8354 12.3458C89.982 11.9549 90.0553 11.4995 90.0553 10.9795C90.0553 10.4595 89.982 10.0075 89.8354 9.62359C89.6924 9.23969 89.4795 8.94129 89.1968 8.7284C88.9176 8.5155 88.5738 8.40906 88.1655 8.40906C87.7432 8.40906 87.3907 8.51899 87.108 8.73887C86.8253 8.95874 86.6124 9.26237 86.4693 9.64977C86.3262 10.0372 86.2547 10.4804 86.2547 10.9795C86.2547 11.482 86.3262 11.9305 86.4693 12.3249C86.6159 12.7158 86.8305 13.0246 87.1132 13.2515C87.3994 13.4749 87.7501 13.5865 88.1655 13.5865ZM99.909 15.1623C99.3995 15.1623 98.9405 15.0715 98.5322 14.8901C98.1273 14.7051 97.8063 14.4329 97.5689 14.0734C97.3351 13.7139 97.2182 13.2707 97.2182 12.7437C97.2182 12.29 97.3019 11.9148 97.4695 11.6181C97.637 11.3215 97.8656 11.0842 98.1553 10.9062C98.4449 10.7282 98.7713 10.5938 99.1342 10.5031C99.5007 10.4089 99.8793 10.3408 100.27 10.2989C100.741 10.2501 101.124 10.2064 101.417 10.168C101.71 10.1262 101.923 10.0633 102.055 9.97958C102.191 9.89232 102.26 9.75796 102.26 9.57648V9.54507C102.26 9.15069 102.143 8.84531 101.909 8.62893C101.675 8.41255 101.338 8.30436 100.898 8.30436C100.434 8.30436 100.066 8.40557 99.7938 8.60799C99.5251 8.81041 99.3436 9.04948 99.2494 9.32519L97.4799 9.07391C97.6195 8.5853 97.8499 8.17697 98.171 7.8489C98.4921 7.51735 98.8847 7.26956 99.3489 7.10553C99.813 6.938 100.326 6.85424 100.888 6.85424C101.275 6.85424 101.661 6.89961 102.045 6.99035C102.429 7.0811 102.78 7.23117 103.097 7.44057C103.415 7.64648 103.67 7.92743 103.861 8.28342C104.057 8.6394 104.155 9.08438 104.155 9.61836V15H102.333V13.8954H102.27C102.155 14.1188 101.993 14.3282 101.783 14.5236C101.577 14.7156 101.317 14.8709 101.003 14.9895C100.693 15.1047 100.328 15.1623 99.909 15.1623ZM100.401 13.7698C100.782 13.7698 101.111 13.6947 101.391 13.5447C101.67 13.3911 101.884 13.1887 102.034 12.9374C102.188 12.6861 102.265 12.4121 102.265 12.1155V11.1679C102.205 11.2168 102.104 11.2622 101.961 11.304C101.822 11.3459 101.665 11.3826 101.49 11.414C101.315 11.4454 101.143 11.4733 100.972 11.4977C100.801 11.5222 100.652 11.5431 100.527 11.5606C100.244 11.599 99.991 11.6618 99.7677 11.749C99.5443 11.8363 99.3681 11.9584 99.2389 12.1155C99.1098 12.269 99.0452 12.468 99.0452 12.7123C99.0452 13.0613 99.1726 13.3248 99.4274 13.5028C99.6822 13.6808 100.007 13.7698 100.401 13.7698ZM109.717 6.95894H111.612V15.4607C111.612 16.04 111.502 16.5182 111.282 16.8951C111.062 17.272 110.745 17.553 110.329 17.7379C109.914 17.9229 109.41 18.0154 108.816 18.0154C108.747 18.0154 108.682 18.0137 108.623 18.0102C108.563 18.0102 108.499 18.0084 108.429 18.0049V16.4606C108.481 16.4641 108.529 16.4658 108.57 16.4658C108.612 16.4693 108.656 16.4711 108.701 16.4711C109.064 16.4711 109.324 16.3821 109.481 16.2041C109.638 16.0296 109.717 15.773 109.717 15.4345V6.95894ZM110.659 5.8177C110.356 5.8177 110.096 5.71823 109.879 5.5193C109.666 5.31688 109.56 5.07432 109.56 4.79163C109.56 4.50545 109.666 4.26289 109.879 4.06395C110.096 3.86153 110.356 3.76032 110.659 3.76032C110.959 3.76032 111.216 3.86153 111.429 4.06395C111.645 4.26289 111.753 4.50545 111.753 4.79163C111.753 5.07432 111.645 5.31688 111.429 5.5193C111.216 5.71823 110.959 5.8177 110.659 5.8177ZM117.068 15.1571C116.283 15.1571 115.602 14.9843 115.027 14.6388C114.451 14.2933 114.004 13.8099 113.686 13.1887C113.372 12.5674 113.215 11.8415 113.215 11.0109C113.215 10.1803 113.372 9.45258 113.686 8.82786C114.004 8.20314 114.451 7.71803 115.027 7.37251C115.602 7.027 116.283 6.85424 117.068 6.85424C117.853 6.85424 118.534 7.027 119.11 7.37251C119.686 7.71803 120.131 8.20314 120.445 8.82786C120.762 9.45258 120.921 10.1803 120.921 11.0109C120.921 11.8415 120.762 12.5674 120.445 13.1887C120.131 13.8099 119.686 14.2933 119.11 14.6388C118.534 14.9843 117.853 15.1571 117.068 15.1571ZM117.079 13.6389C117.504 13.6389 117.86 13.522 118.147 13.2881C118.433 13.0508 118.646 12.7332 118.785 12.3354C118.928 11.9375 119 11.4943 119 11.0056C119 10.5136 118.928 10.0686 118.785 9.67071C118.646 9.26935 118.433 8.95001 118.147 8.71269C117.86 8.47537 117.504 8.35671 117.079 8.35671C116.642 8.35671 116.279 8.47537 115.99 8.71269C115.704 8.95001 115.489 9.26935 115.346 9.67071C115.206 10.0686 115.136 10.5136 115.136 11.0056C115.136 11.4943 115.206 11.9375 115.346 12.3354C115.489 12.7332 115.704 13.0508 115.99 13.2881C116.279 13.522 116.642 13.6389 117.079 13.6389ZM122.613 15V4.27859H124.509V8.28865H124.587C124.685 8.09321 124.823 7.88555 125.001 7.66568C125.179 7.44232 125.419 7.25211 125.723 7.09506C126.027 6.93451 126.414 6.85424 126.885 6.85424C127.507 6.85424 128.067 7.01304 128.566 7.33063C129.068 7.64474 129.466 8.11066 129.759 8.7284C130.056 9.34264 130.204 10.0965 130.204 10.9899C130.204 11.8729 130.059 12.6233 129.77 13.241C129.48 13.8588 129.086 14.3299 128.587 14.6545C128.088 14.9791 127.522 15.1413 126.891 15.1413C126.43 15.1413 126.048 15.0646 125.744 14.911C125.44 14.7574 125.196 14.5725 125.011 14.3561C124.83 14.1362 124.688 13.9286 124.587 13.7331H124.477V15H122.613ZM124.472 10.9795C124.472 11.4995 124.545 11.9549 124.692 12.3458C124.842 12.7367 125.057 13.0421 125.336 13.262C125.618 13.4783 125.96 13.5865 126.362 13.5865C126.781 13.5865 127.131 13.4749 127.414 13.2515C127.697 13.0246 127.91 12.7158 128.053 12.3249C128.199 11.9305 128.273 11.482 128.273 10.9795C128.273 10.4804 128.201 10.0372 128.058 9.64977C127.915 9.26237 127.702 8.95874 127.419 8.73887C127.137 8.51899 126.784 8.40906 126.362 8.40906C125.957 8.40906 125.613 8.5155 125.33 8.7284C125.048 8.94129 124.833 9.23969 124.687 9.62359C124.543 10.0075 124.472 10.4595 124.472 10.9795ZM138.98 15.1571C138.194 15.1571 137.514 14.9843 136.938 14.6388C136.362 14.2933 135.915 13.8099 135.598 13.1887C135.284 12.5674 135.127 11.8415 135.127 11.0109C135.127 10.1803 135.284 9.45258 135.598 8.82786C135.915 8.20314 136.362 7.71803 136.938 7.37251C137.514 7.027 138.194 6.85424 138.98 6.85424C139.765 6.85424 140.445 7.027 141.021 7.37251C141.597 7.71803 142.042 8.20314 142.356 8.82786C142.674 9.45258 142.833 10.1803 142.833 11.0109C142.833 11.8415 142.674 12.5674 142.356 13.1887C142.042 13.8099 141.597 14.2933 141.021 14.6388C140.445 14.9843 139.765 15.1571 138.98 15.1571ZM138.99 13.6389C139.416 13.6389 139.772 13.522 140.058 13.2881C140.344 13.0508 140.557 12.7332 140.697 12.3354C140.84 11.9375 140.911 11.4943 140.911 11.0056C140.911 10.5136 140.84 10.0686 140.697 9.67071C140.557 9.26935 140.344 8.95001 140.058 8.71269C139.772 8.47537 139.416 8.35671 138.99 8.35671C138.554 8.35671 138.191 8.47537 137.901 8.71269C137.615 8.95001 137.4 9.26935 137.257 9.67071C137.118 10.0686 137.048 10.5136 137.048 11.0056C137.048 11.4943 137.118 11.9375 137.257 12.3354C137.4 12.7332 137.615 13.0508 137.901 13.2881C138.191 13.522 138.554 13.6389 138.99 13.6389ZM148.514 6.95894V8.42476H143.761V6.95894H148.514ZM144.949 15V6.19986C144.949 5.6589 145.061 5.20869 145.284 4.84921C145.511 4.48974 145.814 4.22101 146.195 4.04301C146.575 3.86502 146.998 3.77603 147.462 3.77603C147.79 3.77603 148.081 3.8022 148.336 3.85455C148.591 3.9069 148.779 3.95402 148.901 3.9959L148.524 5.46172C148.444 5.43729 148.343 5.41286 148.221 5.38843C148.099 5.36051 147.963 5.34655 147.812 5.34655C147.46 5.34655 147.21 5.43205 147.064 5.60306C146.921 5.77059 146.849 6.0114 146.849 6.3255V15H144.949ZM154.071 6.95894V8.42476H149.318V6.95894H154.071ZM150.506 15V6.19986C150.506 5.6589 150.618 5.20869 150.841 4.84921C151.068 4.48974 151.371 4.22101 151.752 4.04301C152.132 3.86502 152.555 3.77603 153.019 3.77603C153.347 3.77603 153.638 3.8022 153.893 3.85455C154.148 3.9069 154.336 3.95402 154.458 3.9959L154.081 5.46172C154.001 5.43729 153.9 5.41286 153.778 5.38843C153.656 5.36051 153.52 5.34655 153.369 5.34655C153.017 5.34655 152.767 5.43205 152.621 5.60306C152.478 5.77059 152.406 6.0114 152.406 6.3255V15H150.506ZM158.813 15.1571C158.006 15.1571 157.31 14.9895 156.724 14.6545C156.141 14.316 155.693 13.8378 155.378 13.2201C155.064 12.5989 154.907 11.8677 154.907 11.0266C154.907 10.1994 155.064 9.47352 155.378 8.8488C155.696 8.22059 156.139 7.73199 156.708 7.38298C157.277 7.03049 157.945 6.85424 158.713 6.85424C159.209 6.85424 159.676 6.93451 160.116 7.09506C160.559 7.25211 160.95 7.49641 161.289 7.82796C161.631 8.15952 161.9 8.58181 162.095 9.09485C162.29 9.6044 162.388 10.2117 162.388 10.9167V11.4977H155.797V10.2204H160.572C160.568 9.85742 160.49 9.53459 160.336 9.2519C160.182 8.96572 159.968 8.74061 159.692 8.57658C159.42 8.41255 159.102 8.33053 158.739 8.33053C158.352 8.33053 158.012 8.42476 157.718 8.61322C157.425 8.7982 157.197 9.0425 157.033 9.34613C156.872 9.64628 156.79 9.97609 156.787 10.3356V11.4506C156.787 11.9183 156.872 12.3196 157.043 12.6547C157.214 12.9862 157.453 13.241 157.76 13.419C158.067 13.5935 158.427 13.6808 158.839 13.6808C159.115 13.6808 159.364 13.6424 159.587 13.5656C159.811 13.4853 160.004 13.3684 160.168 13.2148C160.333 13.0613 160.456 12.8711 160.54 12.6442L162.31 12.8432C162.198 13.3108 161.985 13.7192 161.671 14.0682C161.36 14.4137 160.962 14.6824 160.477 14.8744C159.992 15.0628 159.437 15.1571 158.813 15.1571ZM163.991 15V6.95894H165.829V8.29912H165.913C166.059 7.83495 166.311 7.47722 166.667 7.22593C167.026 6.97116 167.436 6.84377 167.897 6.84377C168.001 6.84377 168.118 6.84901 168.248 6.85948C168.38 6.86646 168.49 6.87867 168.577 6.89612V8.6394C168.497 8.61148 168.37 8.58705 168.195 8.56611C168.024 8.54168 167.858 8.52946 167.698 8.52946C167.352 8.52946 167.042 8.6045 166.766 8.75457C166.494 8.90115 166.279 9.10532 166.122 9.36707C165.965 9.62883 165.886 9.93071 165.886 10.2727V15H163.991ZM177.566 6.95894V8.42476H172.812V6.95894H177.566ZM174.001 15V6.19986C174.001 5.6589 174.113 5.20869 174.336 4.84921C174.563 4.48974 174.866 4.22101 175.247 4.04301C175.627 3.86502 176.049 3.77603 176.514 3.77603C176.842 3.77603 177.133 3.8022 177.388 3.85455C177.643 3.9069 177.831 3.95402 177.953 3.9959L177.576 5.46172C177.496 5.43729 177.395 5.41286 177.273 5.38843C177.151 5.36051 177.014 5.34655 176.864 5.34655C176.512 5.34655 176.262 5.43205 176.116 5.60306C175.973 5.77059 175.901 6.0114 175.901 6.3255V15H174.001ZM182.255 15.1571C181.47 15.1571 180.789 14.9843 180.214 14.6388C179.638 14.2933 179.191 13.8099 178.873 13.1887C178.559 12.5674 178.402 11.8415 178.402 11.0109C178.402 10.1803 178.559 9.45258 178.873 8.82786C179.191 8.20314 179.638 7.71803 180.214 7.37251C180.789 7.027 181.47 6.85424 182.255 6.85424C183.04 6.85424 183.721 7.027 184.297 7.37251C184.873 7.71803 185.318 8.20314 185.632 8.82786C185.949 9.45258 186.108 10.1803 186.108 11.0109C186.108 11.8415 185.949 12.5674 185.632 13.1887C185.318 13.8099 184.873 14.2933 184.297 14.6388C183.721 14.9843 183.04 15.1571 182.255 15.1571ZM182.266 13.6389C182.691 13.6389 183.047 13.522 183.334 13.2881C183.62 13.0508 183.833 12.7332 183.972 12.3354C184.115 11.9375 184.187 11.4943 184.187 11.0056C184.187 10.5136 184.115 10.0686 183.972 9.67071C183.833 9.26935 183.62 8.95001 183.334 8.71269C183.047 8.47537 182.691 8.35671 182.266 8.35671C181.829 8.35671 181.466 8.47537 181.177 8.71269C180.891 8.95001 180.676 9.26935 180.533 9.67071C180.393 10.0686 180.323 10.5136 180.323 11.0056C180.323 11.4943 180.393 11.9375 180.533 12.3354C180.676 12.7332 180.891 13.0508 181.177 13.2881C181.466 13.522 181.829 13.6389 182.266 13.6389ZM187.717 15V6.95894H189.554V8.29912H189.638C189.785 7.83495 190.036 7.47722 190.392 7.22593C190.751 6.97116 191.161 6.84377 191.622 6.84377C191.727 6.84377 191.844 6.84901 191.973 6.85948C192.105 6.86646 192.215 6.87867 192.303 6.89612V8.6394C192.222 8.61148 192.095 8.58705 191.92 8.56611C191.749 8.54168 191.584 8.52946 191.423 8.52946C191.078 8.52946 190.767 8.6045 190.491 8.75457C190.219 8.90115 190.004 9.10532 189.847 9.36707C189.69 9.62883 189.612 9.93071 189.612 10.2727V15H187.717ZM197.218 15V6.95894H199.113V15H197.218ZM198.171 5.8177C197.871 5.8177 197.613 5.71823 197.396 5.5193C197.18 5.31688 197.072 5.07432 197.072 4.79163C197.072 4.50545 197.18 4.26289 197.396 4.06395C197.613 3.86153 197.871 3.76032 198.171 3.76032C198.475 3.76032 198.733 3.86153 198.946 4.06395C199.162 4.26289 199.27 4.50545 199.27 4.79163C199.27 5.07432 199.162 5.31688 198.946 5.5193C198.733 5.71823 198.475 5.8177 198.171 5.8177ZM201.062 15V6.95894H202.874V8.3253H202.968C203.135 7.86461 203.413 7.50514 203.8 7.24687C204.188 6.98512 204.65 6.85424 205.187 6.85424C205.732 6.85424 206.191 6.98687 206.564 7.25211C206.941 7.51386 207.206 7.87159 207.36 8.3253H207.444C207.622 7.87857 207.922 7.52259 208.344 7.25734C208.77 6.98861 209.274 6.85424 209.857 6.85424C210.597 6.85424 211.201 7.08808 211.668 7.55574C212.136 8.02341 212.37 8.70571 212.37 9.60265V15H210.47V9.89581C210.47 9.39674 210.337 9.03203 210.072 8.80169C209.806 8.56785 209.482 8.45094 209.098 8.45094C208.641 8.45094 208.283 8.59403 208.025 8.88021C207.77 9.16291 207.643 9.5311 207.643 9.98481V15H205.784V9.81729C205.784 9.40197 205.659 9.07042 205.407 8.82263C205.16 8.57483 204.835 8.45094 204.434 8.45094C204.161 8.45094 203.914 8.52074 203.69 8.66034C203.467 8.79645 203.289 8.99015 203.156 9.24143C203.024 9.48922 202.957 9.7789 202.957 10.1105V15H201.062ZM214.292 15V6.95894H216.104V8.3253H216.198C216.366 7.86461 216.643 7.50514 217.03 7.24687C217.418 6.98512 217.88 6.85424 218.418 6.85424C218.962 6.85424 219.421 6.98687 219.795 7.25211C220.171 7.51386 220.437 7.87159 220.59 8.3253H220.674C220.852 7.87857 221.152 7.52259 221.574 7.25734C222 6.98861 222.505 6.85424 223.087 6.85424C223.827 6.85424 224.431 7.08808 224.899 7.55574C225.366 8.02341 225.6 8.70571 225.6 9.60265V15H223.7V9.89581C223.7 9.39674 223.567 9.03203 223.302 8.80169C223.037 8.56785 222.712 8.45094 222.328 8.45094C221.871 8.45094 221.513 8.59403 221.255 8.88021C221 9.16291 220.873 9.5311 220.873 9.98481V15H219.015V9.81729C219.015 9.40197 218.889 9.07042 218.638 8.82263C218.39 8.57483 218.065 8.45094 217.664 8.45094C217.392 8.45094 217.144 8.52074 216.92 8.66034C216.697 8.79645 216.519 8.99015 216.387 9.24143C216.254 9.48922 216.188 9.7789 216.188 10.1105V15H214.292ZM227.523 15V6.95894H229.418V15H227.523ZM228.476 5.8177C228.175 5.8177 227.917 5.71823 227.701 5.5193C227.484 5.31688 227.376 5.07432 227.376 4.79163C227.376 4.50545 227.484 4.26289 227.701 4.06395C227.917 3.86153 228.175 3.76032 228.476 3.76032C228.779 3.76032 229.037 3.86153 229.25 4.06395C229.467 4.26289 229.575 4.50545 229.575 4.79163C229.575 5.07432 229.467 5.31688 229.25 5.5193C229.037 5.71823 228.779 5.8177 228.476 5.8177ZM234.864 18.1829C234.183 18.1829 233.599 18.0904 233.11 17.9055C232.621 17.724 232.229 17.4797 231.932 17.1726C231.635 16.8654 231.429 16.5251 231.314 16.1517L233.021 15.7381C233.098 15.8952 233.209 16.0505 233.356 16.2041C233.503 16.3611 233.7 16.4902 233.948 16.5915C234.199 16.6962 234.515 16.7485 234.895 16.7485C235.433 16.7485 235.878 16.6176 236.23 16.3559C236.583 16.0976 236.759 15.6718 236.759 15.0785V13.5551H236.665C236.567 13.7506 236.424 13.9512 236.235 14.1572C236.05 14.3631 235.804 14.5358 235.497 14.6754C235.193 14.815 234.811 14.8848 234.351 14.8848C233.733 14.8848 233.173 14.74 232.67 14.4503C232.171 14.1572 231.773 13.7209 231.477 13.1416C231.183 12.5587 231.037 11.8293 231.037 10.9533C231.037 10.0703 231.183 9.32519 231.477 8.71793C231.773 8.10717 232.173 7.64474 232.675 7.33063C233.178 7.01304 233.738 6.85424 234.356 6.85424C234.827 6.85424 235.214 6.93451 235.518 7.09506C235.825 7.25211 236.069 7.44232 236.251 7.66568C236.432 7.88555 236.57 8.09321 236.665 8.28865H236.769V6.95894H238.638V15.1309C238.638 15.8184 238.474 16.3873 238.146 16.8375C237.818 17.2877 237.37 17.6245 236.801 17.8479C236.232 18.0712 235.586 18.1829 234.864 18.1829ZM234.879 13.3981C235.281 13.3981 235.623 13.3003 235.905 13.1049C236.188 12.9095 236.403 12.6285 236.549 12.2621C236.696 11.8956 236.769 11.4559 236.769 10.9428C236.769 10.4368 236.696 9.99354 236.549 9.61312C236.406 9.23271 236.193 8.9378 235.911 8.7284C235.631 8.5155 235.288 8.40906 234.879 8.40906C234.457 8.40906 234.105 8.51899 233.822 8.73887C233.539 8.95874 233.326 9.26063 233.183 9.64453C233.04 10.0249 232.969 10.4577 232.969 10.9428C232.969 11.4349 233.04 11.8659 233.183 12.2359C233.33 12.6023 233.544 12.8885 233.827 13.0944C234.113 13.2969 234.464 13.3981 234.879 13.3981ZM240.58 15V6.95894H242.418V8.29912H242.502C242.648 7.83495 242.899 7.47722 243.255 7.22593C243.615 6.97116 244.025 6.84377 244.486 6.84377C244.59 6.84377 244.707 6.84901 244.836 6.85948C244.969 6.86646 245.079 6.87867 245.166 6.89612V8.6394C245.086 8.61148 244.959 8.58705 244.784 8.56611C244.613 8.54168 244.447 8.52946 244.287 8.52946C243.941 8.52946 243.631 8.6045 243.355 8.75457C243.083 8.90115 242.868 9.10532 242.711 9.36707C242.554 9.62883 242.475 9.93071 242.475 10.2727V15H240.58ZM248.595 15.1623C248.086 15.1623 247.627 15.0715 247.218 14.8901C246.814 14.7051 246.492 14.4329 246.255 14.0734C246.021 13.7139 245.904 13.2707 245.904 12.7437C245.904 12.29 245.988 11.9148 246.156 11.6181C246.323 11.3215 246.552 11.0842 246.841 10.9062C247.131 10.7282 247.457 10.5938 247.82 10.5031C248.187 10.4089 248.566 10.3408 248.956 10.2989C249.428 10.2501 249.81 10.2064 250.103 10.168C250.396 10.1262 250.609 10.0633 250.742 9.97958C250.878 9.89232 250.946 9.75796 250.946 9.57648V9.54507C250.946 9.15069 250.829 8.84531 250.595 8.62893C250.361 8.41255 250.024 8.30436 249.585 8.30436C249.12 8.30436 248.752 8.40557 248.48 8.60799C248.211 8.81041 248.03 9.04948 247.936 9.32519L246.166 9.07391C246.306 8.5853 246.536 8.17697 246.857 7.8489C247.178 7.51735 247.571 7.26956 248.035 7.10553C248.499 6.938 249.012 6.85424 249.574 6.85424C249.962 6.85424 250.347 6.89961 250.731 6.99035C251.115 7.0811 251.466 7.23117 251.783 7.44057C252.101 7.64648 252.356 7.92743 252.548 8.28342C252.743 8.6394 252.841 9.08438 252.841 9.61836V15H251.019V13.8954H250.956C250.841 14.1188 250.679 14.3282 250.469 14.5236C250.263 14.7156 250.003 14.8709 249.689 14.9895C249.379 15.1047 249.014 15.1623 248.595 15.1623ZM249.087 13.7698C249.468 13.7698 249.798 13.6947 250.077 13.5447C250.356 13.3911 250.571 13.1887 250.721 12.9374C250.874 12.6861 250.951 12.4121 250.951 12.1155V11.1679C250.892 11.2168 250.79 11.2622 250.647 11.304C250.508 11.3459 250.351 11.3826 250.176 11.414C250.002 11.4454 249.829 11.4733 249.658 11.4977C249.487 11.5222 249.339 11.5431 249.213 11.5606C248.93 11.599 248.677 11.6618 248.454 11.749C248.231 11.8363 248.054 11.9584 247.925 12.1155C247.796 12.269 247.731 12.468 247.731 12.7123C247.731 13.0613 247.859 13.3248 248.114 13.5028C248.368 13.6808 248.693 13.7698 249.087 13.7698ZM258.762 6.95894V8.42476H254.139V6.95894H258.762ZM255.28 5.03244H257.176V12.5814C257.176 12.8362 257.214 13.0316 257.291 13.1677C257.371 13.3003 257.476 13.3911 257.605 13.44C257.734 13.4888 257.877 13.5132 258.034 13.5132C258.153 13.5132 258.261 13.5045 258.359 13.4871C258.46 13.4696 258.537 13.4539 258.589 13.44L258.908 14.9215C258.807 14.9564 258.662 14.9948 258.474 15.0366C258.289 15.0785 258.062 15.103 257.793 15.1099C257.319 15.1239 256.891 15.0524 256.511 14.8953C256.13 14.7348 255.828 14.487 255.605 14.1519C255.385 13.8169 255.277 13.3981 255.28 12.8955V5.03244ZM260.347 15V6.95894H262.242V15H260.347ZM261.299 5.8177C260.999 5.8177 260.741 5.71823 260.525 5.5193C260.308 5.31688 260.2 5.07432 260.2 4.79163C260.2 4.50545 260.308 4.26289 260.525 4.06395C260.741 3.86153 260.999 3.76032 261.299 3.76032C261.603 3.76032 261.861 3.86153 262.074 4.06395C262.291 4.26289 262.399 4.50545 262.399 4.79163C262.399 5.07432 262.291 5.31688 262.074 5.5193C261.861 5.71823 261.603 5.8177 261.299 5.8177ZM267.698 15.1571C266.913 15.1571 266.232 14.9843 265.656 14.6388C265.08 14.2933 264.634 13.8099 264.316 13.1887C264.002 12.5674 263.845 11.8415 263.845 11.0109C263.845 10.1803 264.002 9.45258 264.316 8.82786C264.634 8.20314 265.08 7.71803 265.656 7.37251C266.232 7.027 266.913 6.85424 267.698 6.85424C268.483 6.85424 269.164 7.027 269.74 7.37251C270.316 7.71803 270.76 8.20314 271.075 8.82786C271.392 9.45258 271.551 10.1803 271.551 11.0109C271.551 11.8415 271.392 12.5674 271.075 13.1887C270.76 13.8099 270.316 14.2933 269.74 14.6388C269.164 14.9843 268.483 15.1571 267.698 15.1571ZM267.708 13.6389C268.134 13.6389 268.49 13.522 268.776 13.2881C269.063 13.0508 269.275 12.7332 269.415 12.3354C269.558 11.9375 269.63 11.4943 269.63 11.0056C269.63 10.5136 269.558 10.0686 269.415 9.67071C269.275 9.26935 269.063 8.95001 268.776 8.71269C268.49 8.47537 268.134 8.35671 267.708 8.35671C267.272 8.35671 266.909 8.47537 266.62 8.71269C266.333 8.95001 266.119 9.26935 265.976 9.67071C265.836 10.0686 265.766 10.5136 265.766 11.0056C265.766 11.4943 265.836 11.9375 265.976 12.3354C266.119 12.7332 266.333 13.0508 266.62 13.2881C266.909 13.522 267.272 13.6389 267.708 13.6389ZM275.055 10.2884V15H273.159V6.95894H274.971V8.3253H275.065C275.25 7.87508 275.545 7.51735 275.95 7.25211C276.358 6.98687 276.862 6.85424 277.463 6.85424C278.018 6.85424 278.501 6.9729 278.913 7.21023C279.328 7.44755 279.649 7.79132 279.876 8.24153C280.106 8.69175 280.22 9.23794 280.216 9.88011V15H278.321V10.1733C278.321 9.63581 278.182 9.21526 277.902 8.91162C277.627 8.60799 277.245 8.45617 276.756 8.45617C276.424 8.45617 276.129 8.52946 275.871 8.67604C275.616 8.81914 275.416 9.02679 275.269 9.29902C275.126 9.57124 275.055 9.90105 275.055 10.2884ZM283.954 11.8485V11.7124C283.958 11.0807 284.017 10.5781 284.132 10.2047C284.251 9.83125 284.418 9.53111 284.635 9.30425C284.851 9.07391 285.115 8.86276 285.425 8.67081C285.638 8.53819 285.828 8.39335 285.996 8.2363C286.167 8.07576 286.301 7.89777 286.399 7.70232C286.497 7.50339 286.546 7.28177 286.546 7.03747C286.546 6.76176 286.481 6.52269 286.352 6.32027C286.223 6.11784 286.048 5.96079 285.828 5.84911C285.612 5.73743 285.369 5.68159 285.101 5.68159C284.853 5.68159 284.617 5.73568 284.394 5.84388C284.174 5.94858 283.991 6.10912 283.844 6.3255C283.701 6.53839 283.621 6.80887 283.603 7.13694H281.74C281.757 6.47383 281.918 5.91891 282.221 5.47219C282.528 5.02546 282.933 4.69042 283.436 4.46705C283.942 4.24369 284.5 4.13201 285.111 4.13201C285.778 4.13201 286.364 4.24893 286.87 4.48276C287.38 4.71659 287.776 5.04989 288.058 5.48266C288.345 5.91193 288.488 6.42148 288.488 7.01129C288.488 7.40916 288.423 7.76514 288.294 8.07925C288.168 8.39335 287.989 8.67255 287.755 8.91686C287.521 9.16116 287.244 9.37929 286.922 9.57124C286.64 9.74574 286.408 9.92722 286.226 10.1157C286.048 10.3041 285.916 10.5258 285.828 10.7805C285.745 11.0318 285.701 11.3424 285.697 11.7124V11.8485H283.954ZM284.865 15.1152C284.551 15.1152 284.28 15.0035 284.054 14.7801C283.827 14.5568 283.713 14.2845 283.713 13.9635C283.713 13.6494 283.827 13.3806 284.054 13.1573C284.28 12.9339 284.551 12.8222 284.865 12.8222C285.176 12.8222 285.444 12.9339 285.671 13.1573C285.902 13.3806 286.017 13.6494 286.017 13.9635C286.017 14.1764 285.963 14.37 285.854 14.5445C285.75 14.7191 285.61 14.8587 285.436 14.9634C285.265 15.0646 285.074 15.1152 284.865 15.1152Z" fill="#1B1139"/>
<rect opacity="0.8" y="6.96143" width="14.7419" height="2.45699" rx="1.22849" fill="#1B1139"/>
<rect opacity="0.8" x="8.6001" y="0.819092" width="14.7419" height="2.45699" rx="1.22849" transform="rotate(90 8.6001 0.819092)" fill="#1B1139"/>
</svg>
