<svg width="487" height="117" viewBox="0 0 487 117" fill="none" xmlns="http://www.w3.org/2000/svg">
<g filter="url(#filter0_d_160_355)">
<rect x="14.7485" width="457" height="81.8996" rx="4.02229" fill="white"/>
</g>
<path opacity="0.88" d="M73.1361 45.303V34.5816H75.0783V39.1204H80.0464V34.5816H81.9938V45.303H80.0464V40.7485H75.0783V45.303H73.1361ZM87.5299 45.46C86.7446 45.46 86.0641 45.2873 85.4882 44.9418C84.9124 44.5962 84.4656 44.1129 84.148 43.4916C83.8339 42.8704 83.6769 42.1445 83.6769 41.3139C83.6769 40.4832 83.8339 39.7556 84.148 39.1308C84.4656 38.5061 84.9124 38.021 85.4882 37.6755C86.0641 37.33 86.7446 37.1572 87.5299 37.1572C88.3152 37.1572 88.9957 37.33 89.5716 37.6755C90.1474 38.021 90.5924 38.5061 90.9065 39.1308C91.2241 39.7556 91.3829 40.4832 91.3829 41.3139C91.3829 42.1445 91.2241 42.8704 90.9065 43.4916C90.5924 44.1129 90.1474 44.5962 89.5716 44.9418C88.9957 45.2873 88.3152 45.46 87.5299 45.46ZM87.5404 43.9419C87.9662 43.9419 88.3221 43.8249 88.6083 43.5911C88.8945 43.3538 89.1074 43.0362 89.247 42.6383C89.3901 42.2405 89.4616 41.7972 89.4616 41.3086C89.4616 40.8165 89.3901 40.3715 89.247 39.9737C89.1074 39.5723 88.8945 39.253 88.6083 39.0157C88.3221 38.7783 87.9662 38.6597 87.5404 38.6597C87.1041 38.6597 86.7412 38.7783 86.4515 39.0157C86.1653 39.253 85.9507 39.5723 85.8076 39.9737C85.668 40.3715 85.5982 40.8165 85.5982 41.3086C85.5982 41.7972 85.668 42.2405 85.8076 42.6383C85.9507 43.0362 86.1653 43.3538 86.4515 43.5911C86.7412 43.8249 87.1041 43.9419 87.5404 43.9419ZM94.4205 45.303L92.1485 37.2619H94.0803L95.4937 42.9158H95.567L97.0119 37.2619H98.9227L100.368 42.8844H100.446L101.839 37.2619H103.776L101.498 45.303H99.5247L98.017 39.869H97.9071L96.3994 45.303H94.4205ZM111.739 45.4443C111.108 45.4443 110.542 45.282 110.043 44.9575C109.544 44.6329 109.15 44.1617 108.86 43.544C108.57 42.9263 108.426 42.1759 108.426 41.2929C108.426 40.3995 108.572 39.6456 108.865 39.0314C109.162 38.4136 109.562 37.9477 110.064 37.6336C110.567 37.316 111.127 37.1572 111.745 37.1572C112.216 37.1572 112.603 37.2375 112.907 37.398C113.21 37.5551 113.451 37.7453 113.629 37.9687C113.807 38.1885 113.945 38.3962 114.043 38.5916H114.121V34.5816H116.022V45.303H114.158V44.0361H114.043C113.945 44.2315 113.804 44.4392 113.619 44.6591C113.434 44.8754 113.19 45.0604 112.886 45.214C112.582 45.3675 112.2 45.4443 111.739 45.4443ZM112.268 43.8895C112.67 43.8895 113.012 43.7813 113.294 43.5649C113.577 43.3451 113.792 43.0397 113.938 42.6488C114.085 42.2579 114.158 41.8025 114.158 41.2825C114.158 40.7624 114.085 40.3105 113.938 39.9266C113.795 39.5427 113.582 39.2443 113.299 39.0314C113.02 38.8185 112.677 38.712 112.268 38.712C111.846 38.712 111.493 38.822 111.211 39.0418C110.928 39.2617 110.715 39.5654 110.572 39.9527C110.429 40.3401 110.357 40.7834 110.357 41.2825C110.357 41.785 110.429 42.2335 110.572 42.6279C110.719 43.0187 110.933 43.3276 111.216 43.5545C111.502 43.7778 111.853 43.8895 112.268 43.8895ZM121.549 45.46C120.763 45.46 120.083 45.2873 119.507 44.9418C118.931 44.5962 118.484 44.1129 118.167 43.4916C117.853 42.8704 117.696 42.1445 117.696 41.3139C117.696 40.4832 117.853 39.7556 118.167 39.1308C118.484 38.5061 118.931 38.021 119.507 37.6755C120.083 37.33 120.763 37.1572 121.549 37.1572C122.334 37.1572 123.014 37.33 123.59 37.6755C124.166 38.021 124.611 38.5061 124.925 39.1308C125.243 39.7556 125.402 40.4832 125.402 41.3139C125.402 42.1445 125.243 42.8704 124.925 43.4916C124.611 44.1129 124.166 44.5962 123.59 44.9418C123.014 45.2873 122.334 45.46 121.549 45.46ZM121.559 43.9419C121.985 43.9419 122.341 43.8249 122.627 43.5911C122.913 43.3538 123.126 43.0362 123.266 42.6383C123.409 42.2405 123.48 41.7972 123.48 41.3086C123.48 40.8165 123.409 40.3715 123.266 39.9737C123.126 39.5723 122.913 39.253 122.627 39.0157C122.341 38.7783 121.985 38.6597 121.559 38.6597C121.123 38.6597 120.76 38.7783 120.47 39.0157C120.184 39.253 119.969 39.5723 119.826 39.9737C119.687 40.3715 119.617 40.8165 119.617 41.3086C119.617 41.7972 119.687 42.2405 119.826 42.6383C119.969 43.0362 120.184 43.3538 120.47 43.5911C120.76 43.8249 121.123 43.9419 121.559 43.9419ZM132.693 34.5816V45.303H130.751V34.5816H132.693ZM140.096 42.7797L140.091 40.492H140.395L143.285 37.2619H145.499L141.944 41.2196H141.552L140.096 42.7797ZM138.369 45.303V34.5816H140.264V45.303H138.369ZM143.415 45.303L140.798 41.6437L142.075 40.3087L145.682 45.303H143.415ZM148.657 40.5914V45.303H146.762V37.2619H148.573V38.6283H148.668C148.853 38.1781 149.147 37.8203 149.552 37.5551C149.961 37.2898 150.465 37.1572 151.065 37.1572C151.62 37.1572 152.104 37.2759 152.515 37.5132C152.931 37.7505 153.252 38.0943 153.479 38.5445C153.709 38.9947 153.822 39.5409 153.819 40.1831V45.303H151.924V40.4763C151.924 39.9388 151.784 39.5182 151.505 39.2146C151.229 38.911 150.847 38.7592 150.358 38.7592C150.027 38.7592 149.732 38.8324 149.474 38.979C149.219 39.1221 149.018 39.3298 148.872 39.602C148.729 39.8742 148.657 40.204 148.657 40.5914ZM159.253 45.46C158.468 45.46 157.787 45.2873 157.211 44.9418C156.635 44.5962 156.189 44.1129 155.871 43.4916C155.557 42.8704 155.4 42.1445 155.4 41.3139C155.4 40.4832 155.557 39.7556 155.871 39.1308C156.189 38.5061 156.635 38.021 157.211 37.6755C157.787 37.33 158.468 37.1572 159.253 37.1572C160.038 37.1572 160.719 37.33 161.295 37.6755C161.87 38.021 162.315 38.5061 162.629 39.1308C162.947 39.7556 163.106 40.4832 163.106 41.3139C163.106 42.1445 162.947 42.8704 162.629 43.4916C162.315 44.1129 161.87 44.5962 161.295 44.9418C160.719 45.2873 160.038 45.46 159.253 45.46ZM159.263 43.9419C159.689 43.9419 160.045 43.8249 160.331 43.5911C160.617 43.3538 160.83 43.0362 160.97 42.6383C161.113 42.2405 161.185 41.7972 161.185 41.3086C161.185 40.8165 161.113 40.3715 160.97 39.9737C160.83 39.5723 160.617 39.253 160.331 39.0157C160.045 38.7783 159.689 38.6597 159.263 38.6597C158.827 38.6597 158.464 38.7783 158.174 39.0157C157.888 39.253 157.674 39.5723 157.531 39.9737C157.391 40.3715 157.321 40.8165 157.321 41.3086C157.321 41.7972 157.391 42.2405 157.531 42.6383C157.674 43.0362 157.888 43.3538 158.174 43.5911C158.464 43.8249 158.827 43.9419 159.263 43.9419ZM166.144 45.303L163.872 37.2619H165.803L167.217 42.9158H167.29L168.735 37.2619H170.646L172.091 42.8844H172.169L173.562 37.2619H175.499L173.221 45.303H171.248L169.74 39.869H169.63L168.122 45.303H166.144ZM180.478 45.303V37.2619H182.374V45.303H180.478ZM181.431 36.1207C181.131 36.1207 180.873 36.0212 180.656 35.8223C180.44 35.6199 180.332 35.3773 180.332 35.0946C180.332 34.8084 180.44 34.5659 180.656 34.3669C180.873 34.1645 181.131 34.0633 181.431 34.0633C181.735 34.0633 181.993 34.1645 182.206 34.3669C182.422 34.5659 182.531 34.8084 182.531 35.0946C182.531 35.3773 182.422 35.6199 182.206 35.8223C181.993 36.0212 181.735 36.1207 181.431 36.1207ZM188.395 37.2619V38.7277H183.642V37.2619H188.395ZM184.83 45.303V36.5028C184.83 35.9619 184.942 35.5117 185.165 35.1522C185.392 34.7927 185.696 34.524 186.076 34.346C186.456 34.168 186.879 34.079 187.343 34.079C187.671 34.079 187.962 34.1052 188.217 34.1575C188.472 34.2099 188.66 34.257 188.783 34.2989L188.406 35.7647C188.325 35.7403 188.224 35.7158 188.102 35.6914C187.98 35.6635 187.844 35.6495 187.694 35.6495C187.341 35.6495 187.092 35.735 186.945 35.906C186.802 36.0736 186.73 36.3144 186.73 36.6285V45.303H184.83ZM195.562 34.5816V45.303H193.62V34.5816H195.562ZM206.604 48.3184V44.0361H206.525C206.428 44.2315 206.286 44.4392 206.101 44.6591C205.916 44.8754 205.672 45.0604 205.369 45.214C205.065 45.3675 204.683 45.4443 204.222 45.4443C203.59 45.4443 203.025 45.282 202.526 44.9575C202.027 44.6329 201.632 44.1617 201.343 43.544C201.053 42.9263 200.908 42.1759 200.908 41.2929C200.908 40.3995 201.055 39.6456 201.348 39.0314C201.645 38.4136 202.044 37.9477 202.547 37.6336C203.049 37.316 203.61 37.1572 204.227 37.1572C204.698 37.1572 205.086 37.2375 205.389 37.398C205.693 37.5551 205.934 37.7453 206.112 37.9687C206.29 38.1885 206.428 38.3962 206.525 38.5916H206.641V37.2619H208.504V48.3184H206.604ZM204.751 43.8895C205.152 43.8895 205.494 43.7813 205.777 43.5649C206.06 43.3451 206.274 43.0397 206.421 42.6488C206.567 42.2579 206.641 41.8025 206.641 41.2825C206.641 40.7624 206.567 40.3105 206.421 39.9266C206.278 39.5427 206.065 39.2443 205.782 39.0314C205.503 38.8185 205.159 38.712 204.751 38.712C204.328 38.712 203.976 38.822 203.693 39.0418C203.411 39.2617 203.198 39.5654 203.055 39.9527C202.912 40.3401 202.84 40.7834 202.84 41.2825C202.84 41.785 202.912 42.2335 203.055 42.6279C203.201 43.0187 203.416 43.3276 203.699 43.5545C203.985 43.7778 204.335 43.8895 204.751 43.8895ZM215.577 41.9211V37.2619H217.472V45.303H215.634V43.8738H215.551C215.369 44.324 215.071 44.6922 214.656 44.9784C214.244 45.2646 213.736 45.4077 213.132 45.4077C212.605 45.4077 212.139 45.2908 211.734 45.0569C211.333 44.8196 211.019 44.4758 210.792 44.0256C210.565 43.5719 210.452 43.024 210.452 42.3818V37.2619H212.347V42.0887C212.347 42.5982 212.486 43.003 212.766 43.3032C213.045 43.6033 213.411 43.7534 213.865 43.7534C214.144 43.7534 214.415 43.6853 214.676 43.5492C214.938 43.4131 215.153 43.2107 215.32 42.942C215.491 42.6697 215.577 42.3295 215.577 41.9211ZM221.735 45.4653C221.225 45.4653 220.766 45.3745 220.358 45.193C219.953 45.0081 219.632 44.7358 219.395 44.3764C219.161 44.0169 219.044 43.5737 219.044 43.0467C219.044 42.593 219.128 42.2178 219.295 41.9211C219.463 41.6245 219.691 41.3872 219.981 41.2092C220.271 41.0312 220.597 40.8968 220.96 40.8061C221.326 40.7118 221.705 40.6438 222.096 40.6019C222.567 40.553 222.949 40.5094 223.242 40.471C223.536 40.4291 223.748 40.3663 223.881 40.2826C224.017 40.1953 224.085 40.0609 224.085 39.8795V39.848C224.085 39.4537 223.968 39.1483 223.734 38.9319C223.501 38.7155 223.164 38.6073 222.724 38.6073C222.26 38.6073 221.892 38.7085 221.619 38.911C221.351 39.1134 221.169 39.3525 221.075 39.6282L219.306 39.3769C219.445 38.8883 219.676 38.4799 219.997 38.1519C220.318 37.8203 220.71 37.5725 221.174 37.4085C221.639 37.241 222.152 37.1572 222.714 37.1572C223.101 37.1572 223.487 37.2026 223.871 37.2933C224.254 37.3841 224.605 37.5341 224.923 37.7435C225.24 37.9495 225.495 38.2304 225.687 38.5864C225.883 38.9424 225.98 39.3874 225.98 39.9213V45.303H224.158V44.1984H224.096C223.98 44.4217 223.818 44.6311 223.609 44.8266C223.403 45.0185 223.143 45.1738 222.829 45.2925C222.518 45.4077 222.153 45.4653 221.735 45.4653ZM222.227 44.0727C222.607 44.0727 222.937 43.9977 223.216 43.8476C223.495 43.6941 223.71 43.4916 223.86 43.2404C224.014 42.9891 224.09 42.7151 224.09 42.4185V41.4709C224.031 41.5198 223.93 41.5651 223.787 41.607C223.647 41.6489 223.49 41.6856 223.316 41.717C223.141 41.7484 222.968 41.7763 222.797 41.8007C222.626 41.8252 222.478 41.8461 222.352 41.8635C222.07 41.9019 221.817 41.9648 221.593 42.052C221.37 42.1393 221.194 42.2614 221.065 42.4185C220.935 42.572 220.871 42.771 220.871 43.0153C220.871 43.3643 220.998 43.6278 221.253 43.8058C221.508 43.9837 221.832 44.0727 222.227 44.0727ZM229.781 34.5816V45.303H227.886V34.5816H229.781ZM231.73 45.303V37.2619H233.625V45.303H231.73ZM232.682 36.1207C232.382 36.1207 232.124 36.0212 231.908 35.8223C231.691 35.6199 231.583 35.3773 231.583 35.0946C231.583 34.8084 231.691 34.5659 231.908 34.3669C232.124 34.1645 232.382 34.0633 232.682 34.0633C232.986 34.0633 233.244 34.1645 233.457 34.3669C233.674 34.5659 233.782 34.8084 233.782 35.0946C233.782 35.3773 233.674 35.6199 233.457 35.8223C233.244 36.0212 232.986 36.1207 232.682 36.1207ZM239.646 37.2619V38.7277H234.893V37.2619H239.646ZM236.081 45.303V36.5028C236.081 35.9619 236.193 35.5117 236.416 35.1522C236.643 34.7927 236.947 34.524 237.327 34.346C237.708 34.168 238.13 34.079 238.594 34.079C238.922 34.079 239.214 34.1052 239.468 34.1575C239.723 34.2099 239.912 34.257 240.034 34.2989L239.657 35.7647C239.577 35.7403 239.475 35.7158 239.353 35.6914C239.231 35.6635 239.095 35.6495 238.945 35.6495C238.592 35.6495 238.343 35.735 238.196 35.906C238.053 36.0736 237.982 36.3144 237.982 36.6285V45.303H236.081ZM242.308 48.3184C242.05 48.3184 241.811 48.2974 241.591 48.2556C241.375 48.2172 241.202 48.1718 241.073 48.1194L241.513 46.6432C241.788 46.7234 242.034 46.7618 242.251 46.7583C242.467 46.7548 242.657 46.6868 242.821 46.5542C242.989 46.425 243.13 46.2086 243.246 45.905L243.408 45.4705L240.492 37.2619H242.502L244.355 43.3346H244.439L246.298 37.2619H248.313L245.093 46.2767C244.943 46.7025 244.744 47.0672 244.497 47.3708C244.249 47.678 243.945 47.9118 243.586 48.0723C243.23 48.2364 242.804 48.3184 242.308 48.3184ZM257.354 37.2619V38.7277H252.601V37.2619H257.354ZM253.789 45.303V36.5028C253.789 35.9619 253.901 35.5117 254.124 35.1522C254.351 34.7927 254.654 34.524 255.035 34.346C255.415 34.168 255.838 34.079 256.302 34.079C256.63 34.079 256.921 34.1052 257.176 34.1575C257.431 34.2099 257.619 34.257 257.741 34.2989L257.364 35.7647C257.284 35.7403 257.183 35.7158 257.061 35.6914C256.939 35.6635 256.803 35.6495 256.653 35.6495C256.3 35.6495 256.05 35.735 255.904 35.906C255.761 36.0736 255.689 36.3144 255.689 36.6285V45.303H253.789ZM262.043 45.46C261.258 45.46 260.577 45.2873 260.002 44.9418C259.426 44.5962 258.979 44.1129 258.661 43.4916C258.347 42.8704 258.19 42.1445 258.19 41.3139C258.19 40.4832 258.347 39.7556 258.661 39.1308C258.979 38.5061 259.426 38.021 260.002 37.6755C260.577 37.33 261.258 37.1572 262.043 37.1572C262.829 37.1572 263.509 37.33 264.085 37.6755C264.661 38.021 265.106 38.5061 265.42 39.1308C265.738 39.7556 265.896 40.4832 265.896 41.3139C265.896 42.1445 265.738 42.8704 265.42 43.4916C265.106 44.1129 264.661 44.5962 264.085 44.9418C263.509 45.2873 262.829 45.46 262.043 45.46ZM262.054 43.9419C262.48 43.9419 262.836 43.8249 263.122 43.5911C263.408 43.3538 263.621 43.0362 263.76 42.6383C263.904 42.2405 263.975 41.7972 263.975 41.3086C263.975 40.8165 263.904 40.3715 263.76 39.9737C263.621 39.5723 263.408 39.253 263.122 39.0157C262.836 38.7783 262.48 38.6597 262.054 38.6597C261.618 38.6597 261.255 38.7783 260.965 39.0157C260.679 39.253 260.464 39.5723 260.321 39.9737C260.181 40.3715 260.112 40.8165 260.112 41.3086C260.112 41.7972 260.181 42.2405 260.321 42.6383C260.464 43.0362 260.679 43.3538 260.965 43.5911C261.255 43.8249 261.618 43.9419 262.054 43.9419ZM267.505 45.303V37.2619H269.342V38.6021H269.426C269.573 38.1379 269.824 37.7802 270.18 37.5289C270.539 37.2741 270.949 37.1468 271.41 37.1468C271.515 37.1468 271.632 37.152 271.761 37.1625C271.894 37.1694 272.003 37.1817 272.091 37.1991V38.9424C272.01 38.9145 271.883 38.89 271.709 38.8691C271.538 38.8447 271.372 38.8324 271.211 38.8324C270.866 38.8324 270.555 38.9075 270.279 39.0575C270.007 39.2041 269.793 39.4083 269.635 39.6701C269.478 39.9318 269.4 40.2337 269.4 40.5757V45.303H267.505ZM281.022 37.2619V38.7277H276.399V37.2619H281.022ZM277.54 35.3354H279.435V42.8844C279.435 43.1392 279.474 43.3346 279.551 43.4707C279.631 43.6033 279.736 43.6941 279.865 43.7429C279.994 43.7918 280.137 43.8162 280.294 43.8162C280.413 43.8162 280.521 43.8075 280.619 43.79C280.72 43.7726 280.797 43.7569 280.849 43.7429L281.168 45.2245C281.067 45.2594 280.922 45.2977 280.734 45.3396C280.549 45.3815 280.322 45.4059 280.053 45.4129C279.579 45.4269 279.151 45.3553 278.771 45.1983C278.39 45.0377 278.088 44.7899 277.865 44.4549C277.645 44.1199 277.537 43.701 277.54 43.1985V35.3354ZM284.674 40.5914V45.303H282.779V34.5816H284.633V38.6283H284.727C284.915 38.1746 285.207 37.8168 285.601 37.5551C285.999 37.2898 286.505 37.1572 287.119 37.1572C287.678 37.1572 288.165 37.2741 288.58 37.508C288.995 37.7418 289.316 38.0838 289.543 38.534C289.773 38.9843 289.889 39.5339 289.889 40.1831V45.303H287.994V40.4763C287.994 39.9353 287.854 39.5147 287.575 39.2146C287.299 38.911 286.912 38.7592 286.413 38.7592C286.077 38.7592 285.777 38.8324 285.512 38.979C285.25 39.1221 285.044 39.3298 284.894 39.602C284.748 39.8742 284.674 40.204 284.674 40.5914ZM295.38 45.46C294.574 45.46 293.878 45.2925 293.291 44.9575C292.709 44.6189 292.26 44.1408 291.946 43.5231C291.632 42.9018 291.475 42.1707 291.475 41.3296C291.475 40.5024 291.632 39.7765 291.946 39.1518C292.264 38.5236 292.707 38.035 293.276 37.686C293.845 37.3335 294.513 37.1572 295.281 37.1572C295.776 37.1572 296.244 37.2375 296.684 37.398C297.127 37.5551 297.518 37.7994 297.856 38.1309C298.198 38.4625 298.467 38.8848 298.663 39.3978C298.858 39.9074 298.956 40.5146 298.956 41.2196V41.8007H292.365V40.5234H297.139C297.136 40.1604 297.057 39.8376 296.904 39.5549C296.75 39.2687 296.535 39.0436 296.26 38.8796C295.987 38.7155 295.67 38.6335 295.307 38.6335C294.919 38.6335 294.579 38.7277 294.286 38.9162C293.993 39.1012 293.764 39.3455 293.6 39.6491C293.44 39.9493 293.358 40.2791 293.354 40.6385V41.7536C293.354 42.2213 293.44 42.6226 293.611 42.9577C293.782 43.2892 294.021 43.544 294.328 43.722C294.635 43.8965 294.995 43.9837 295.406 43.9837C295.682 43.9837 295.932 43.9454 296.155 43.8686C296.378 43.7883 296.572 43.6714 296.736 43.5178C296.9 43.3643 297.024 43.1741 297.108 42.9472L298.877 43.1461C298.766 43.6138 298.553 44.0221 298.239 44.3711C297.928 44.7167 297.53 44.9854 297.045 45.1773C296.56 45.3658 296.005 45.46 295.38 45.46ZM310.126 37.5289C310.077 37.0717 309.871 36.7157 309.508 36.461C309.149 36.2062 308.681 36.0788 308.105 36.0788C307.7 36.0788 307.353 36.1399 307.064 36.262C306.774 36.3842 306.552 36.55 306.399 36.7594C306.245 36.9688 306.167 37.2078 306.163 37.4766C306.163 37.6999 306.214 37.8936 306.315 38.0577C306.42 38.2217 306.561 38.3613 306.739 38.4765C306.917 38.5881 307.114 38.6824 307.331 38.7592C307.547 38.8359 307.765 38.9005 307.985 38.9528L308.99 39.2041C309.395 39.2984 309.784 39.4257 310.157 39.5863C310.534 39.7468 310.871 39.9493 311.168 40.1936C311.468 40.4379 311.705 40.7328 311.88 41.0783C312.054 41.4238 312.142 41.8286 312.142 42.2928C312.142 42.921 311.981 43.4742 311.66 43.9523C311.339 44.427 310.875 44.7987 310.267 45.0674C309.664 45.3326 308.932 45.4653 308.074 45.4653C307.24 45.4653 306.516 45.3361 305.901 45.0779C305.291 44.8196 304.812 44.4427 304.467 43.9471C304.125 43.4515 303.94 42.8477 303.912 42.1358H305.823C305.851 42.5092 305.966 42.8198 306.168 43.0676C306.371 43.3154 306.634 43.5004 306.959 43.6225C307.287 43.7447 307.653 43.8058 308.058 43.8058C308.48 43.8058 308.85 43.7429 309.168 43.6173C309.489 43.4882 309.74 43.3102 309.922 43.0833C310.103 42.853 310.196 42.5842 310.199 42.2771C310.196 41.9979 310.114 41.7676 309.953 41.5861C309.793 41.4011 309.568 41.2476 309.278 41.1254C308.992 40.9998 308.657 40.8881 308.273 40.7904L307.053 40.4763C306.17 40.2494 305.472 39.9056 304.959 39.4449C304.449 38.9808 304.195 38.3648 304.195 37.597C304.195 36.9653 304.366 36.4121 304.708 35.9375C305.053 35.4628 305.523 35.0946 306.116 34.8329C306.709 34.5676 307.381 34.435 308.131 34.435C308.892 34.435 309.559 34.5676 310.131 34.8329C310.707 35.0946 311.159 35.4593 311.487 35.927C311.815 36.3912 311.984 36.9251 311.995 37.5289H310.126ZM317.805 37.2619V38.7277H313.182V37.2619H317.805ZM314.323 35.3354H316.218V42.8844C316.218 43.1392 316.257 43.3346 316.334 43.4707C316.414 43.6033 316.519 43.6941 316.648 43.7429C316.777 43.7918 316.92 43.8162 317.077 43.8162C317.196 43.8162 317.304 43.8075 317.401 43.79C317.503 43.7726 317.579 43.7569 317.632 43.7429L317.951 45.2245C317.85 45.2594 317.705 45.2977 317.517 45.3396C317.332 45.3815 317.105 45.4059 316.836 45.4129C316.361 45.4269 315.934 45.3553 315.554 45.1983C315.173 45.0377 314.871 44.7899 314.648 44.4549C314.428 44.1199 314.32 43.701 314.323 43.1985V35.3354ZM321.703 45.4653C321.194 45.4653 320.735 45.3745 320.327 45.193C319.922 45.0081 319.601 44.7358 319.363 44.3764C319.129 44.0169 319.013 43.5737 319.013 43.0467C319.013 42.593 319.096 42.2178 319.264 41.9211C319.431 41.6245 319.66 41.3872 319.95 41.2092C320.239 41.0312 320.566 40.8968 320.929 40.8061C321.295 40.7118 321.674 40.6438 322.065 40.6019C322.536 40.553 322.918 40.5094 323.211 40.471C323.504 40.4291 323.717 40.3663 323.85 40.2826C323.986 40.1953 324.054 40.0609 324.054 39.8795V39.848C324.054 39.4537 323.937 39.1483 323.703 38.9319C323.469 38.7155 323.133 38.6073 322.693 38.6073C322.229 38.6073 321.86 38.7085 321.588 38.911C321.319 39.1134 321.138 39.3525 321.044 39.6282L319.274 39.3769C319.414 38.8883 319.644 38.4799 319.965 38.1519C320.286 37.8203 320.679 37.5725 321.143 37.4085C321.607 37.241 322.12 37.1572 322.682 37.1572C323.07 37.1572 323.455 37.2026 323.839 37.2933C324.223 37.3841 324.574 37.5341 324.892 37.7435C325.209 37.9495 325.464 38.2304 325.656 38.5864C325.851 38.9424 325.949 39.3874 325.949 39.9213V45.303H324.127V44.1984H324.064C323.949 44.4217 323.787 44.6311 323.578 44.8266C323.372 45.0185 323.112 45.1738 322.798 45.2925C322.487 45.4077 322.122 45.4653 321.703 45.4653ZM322.195 44.0727C322.576 44.0727 322.906 43.9977 323.185 43.8476C323.464 43.6941 323.679 43.4916 323.829 43.2404C323.982 42.9891 324.059 42.7151 324.059 42.4185V41.4709C324 41.5198 323.899 41.5651 323.756 41.607C323.616 41.6489 323.459 41.6856 323.284 41.717C323.11 41.7484 322.937 41.7763 322.766 41.8007C322.595 41.8252 322.447 41.8461 322.321 41.8635C322.038 41.9019 321.785 41.9648 321.562 42.052C321.339 42.1393 321.162 42.2614 321.033 42.4185C320.904 42.572 320.84 42.771 320.84 43.0153C320.84 43.3643 320.967 43.6278 321.222 43.8058C321.477 43.9837 321.801 44.0727 322.195 44.0727ZM327.855 45.303V37.2619H329.692V38.6021H329.776C329.922 38.1379 330.174 37.7802 330.53 37.5289C330.889 37.2741 331.299 37.1468 331.76 37.1468C331.865 37.1468 331.982 37.152 332.111 37.1625C332.243 37.1694 332.353 37.1817 332.44 37.1991V38.9424C332.36 38.9145 332.233 38.89 332.058 38.8691C331.887 38.8447 331.722 38.8324 331.561 38.8324C331.215 38.8324 330.905 38.9075 330.629 39.0575C330.357 39.2041 330.142 39.4083 329.985 39.6701C329.828 39.9318 329.75 40.2337 329.75 40.5757V45.303H327.855ZM338.147 37.2619V38.7277H333.524V37.2619H338.147ZM334.665 35.3354H336.561V42.8844C336.561 43.1392 336.599 43.3346 336.676 43.4707C336.756 43.6033 336.861 43.6941 336.99 43.7429C337.119 43.7918 337.262 43.8162 337.419 43.8162C337.538 43.8162 337.646 43.8075 337.744 43.79C337.845 43.7726 337.922 43.7569 337.974 43.7429L338.293 45.2245C338.192 45.2594 338.047 45.2977 337.859 45.3396C337.674 45.3815 337.447 45.4059 337.178 45.4129C336.704 45.4269 336.276 45.3553 335.896 45.1983C335.515 45.0377 335.213 44.7899 334.99 44.4549C334.77 44.1199 334.662 43.701 334.665 43.1985V35.3354ZM344.346 40.0574V41.6175H339.52V40.0574H344.346ZM353.182 34.5816H355.124V41.5861C355.124 42.3539 354.943 43.0292 354.58 43.6121C354.22 44.1949 353.714 44.6503 353.061 44.9784C352.409 45.303 351.646 45.4653 350.774 45.4653C349.898 45.4653 349.133 45.303 348.481 44.9784C347.828 44.6503 347.322 44.1949 346.963 43.6121C346.603 43.0292 346.423 42.3539 346.423 41.5861V34.5816H348.366V41.4238C348.366 41.8705 348.463 42.2684 348.659 42.6174C348.858 42.9664 349.137 43.2404 349.496 43.4393C349.856 43.6347 350.282 43.7325 350.774 43.7325C351.266 43.7325 351.692 43.6347 352.051 43.4393C352.414 43.2404 352.693 42.9664 352.889 42.6174C353.084 42.2684 353.182 41.8705 353.182 41.4238V34.5816ZM357.151 48.3184V37.2619H359.015V38.5916H359.125C359.223 38.3962 359.36 38.1885 359.538 37.9687C359.716 37.7453 359.957 37.5551 360.261 37.398C360.565 37.2375 360.952 37.1572 361.423 37.1572C362.044 37.1572 362.604 37.316 363.104 37.6336C363.606 37.9477 364.004 38.4136 364.297 39.0314C364.594 39.6456 364.742 40.3995 364.742 41.2929C364.742 42.1759 364.597 42.9263 364.308 43.544C364.018 44.1617 363.624 44.6329 363.125 44.9575C362.625 45.282 362.06 45.4443 361.428 45.4443C360.968 45.4443 360.586 45.3675 360.282 45.214C359.978 45.0604 359.734 44.8754 359.549 44.6591C359.367 44.4392 359.226 44.2315 359.125 44.0361H359.046V48.3184H357.151ZM359.01 41.2825C359.01 41.8025 359.083 42.2579 359.23 42.6488C359.38 43.0397 359.594 43.3451 359.874 43.5649C360.156 43.7813 360.498 43.8895 360.9 43.8895C361.318 43.8895 361.669 43.7778 361.952 43.5545C362.235 43.3276 362.447 43.0187 362.591 42.6279C362.737 42.2335 362.81 41.785 362.81 41.2825C362.81 40.7834 362.739 40.3401 362.596 39.9527C362.453 39.5654 362.24 39.2617 361.957 39.0418C361.674 38.822 361.322 38.712 360.9 38.712C360.495 38.712 360.151 38.8185 359.868 39.0314C359.586 39.2443 359.371 39.5427 359.224 39.9266C359.081 40.3105 359.01 40.7624 359.01 41.2825ZM371.54 34.5816L374.33 43.0205H374.44L377.225 34.5816H379.361L375.581 45.303H373.184L369.409 34.5816H371.54ZM380.689 45.303V37.2619H382.585V45.303H380.689ZM381.642 36.1207C381.342 36.1207 381.084 36.0212 380.867 35.8223C380.651 35.6199 380.543 35.3773 380.543 35.0946C380.543 34.8084 380.651 34.5659 380.867 34.3669C381.084 34.1645 381.342 34.0633 381.642 34.0633C381.946 34.0633 382.204 34.1645 382.417 34.3669C382.633 34.5659 382.742 34.8084 382.742 35.0946C382.742 35.3773 382.633 35.6199 382.417 35.8223C382.204 36.0212 381.946 36.1207 381.642 36.1207ZM390.889 39.3874L389.161 39.5758C389.112 39.4013 389.027 39.2373 388.905 39.0837C388.786 38.9302 388.625 38.8063 388.423 38.712C388.221 38.6178 387.973 38.5707 387.68 38.5707C387.285 38.5707 386.954 38.6562 386.685 38.8272C386.42 38.9982 386.289 39.2198 386.292 39.4921C386.289 39.7259 386.374 39.9161 386.549 40.0627C386.727 40.2093 387.02 40.3297 387.428 40.4239L388.8 40.7171C389.561 40.8811 390.126 41.1411 390.496 41.4971C390.869 41.8531 391.058 42.319 391.061 42.8948C391.058 43.4009 390.91 43.8476 390.616 44.235C390.327 44.6189 389.924 44.9191 389.407 45.1355C388.891 45.3518 388.297 45.46 387.627 45.46C386.643 45.46 385.851 45.2541 385.25 44.8423C384.65 44.427 384.292 43.8494 384.177 43.1095L386.025 42.9315C386.109 43.2945 386.287 43.5684 386.559 43.7534C386.831 43.9384 387.186 44.0309 387.622 44.0309C388.072 44.0309 388.433 43.9384 388.706 43.7534C388.981 43.5684 389.119 43.3398 389.119 43.0676C389.119 42.8373 389.03 42.6471 388.852 42.497C388.678 42.3469 388.405 42.2317 388.036 42.1515L386.664 41.8635C385.893 41.703 385.322 41.4325 384.952 41.0521C384.582 40.6682 384.399 40.1831 384.402 39.5968C384.399 39.1012 384.533 38.6719 384.806 38.3089C385.081 37.9425 385.463 37.6598 385.952 37.4609C386.444 37.2584 387.011 37.1572 387.653 37.1572C388.596 37.1572 389.337 37.3579 389.878 37.7593C390.423 38.1606 390.76 38.7033 390.889 39.3874ZM394.938 45.4653C394.428 45.4653 393.969 45.3745 393.561 45.193C393.156 45.0081 392.835 44.7358 392.598 44.3764C392.364 44.0169 392.247 43.5737 392.247 43.0467C392.247 42.593 392.331 42.2178 392.498 41.9211C392.666 41.6245 392.895 41.3872 393.184 41.2092C393.474 41.0312 393.8 40.8968 394.163 40.8061C394.53 40.7118 394.908 40.6438 395.299 40.6019C395.77 40.553 396.153 40.5094 396.446 40.471C396.739 40.4291 396.952 40.3663 397.084 40.2826C397.22 40.1953 397.289 40.0609 397.289 39.8795V39.848C397.289 39.4537 397.172 39.1483 396.938 38.9319C396.704 38.7155 396.367 38.6073 395.927 38.6073C395.463 38.6073 395.095 38.7085 394.823 38.911C394.554 39.1134 394.373 39.3525 394.278 39.6282L392.509 39.3769C392.649 38.8883 392.879 38.4799 393.2 38.1519C393.521 37.8203 393.914 37.5725 394.378 37.4085C394.842 37.241 395.355 37.1572 395.917 37.1572C396.304 37.1572 396.69 37.2026 397.074 37.2933C397.458 37.3841 397.809 37.5341 398.126 37.7435C398.444 37.9495 398.698 38.2304 398.89 38.5864C399.086 38.9424 399.184 39.3874 399.184 39.9213V45.303H397.362V44.1984H397.299C397.184 44.4217 397.022 44.6311 396.812 44.8266C396.606 45.0185 396.346 45.1738 396.032 45.2925C395.721 45.4077 395.357 45.4653 394.938 45.4653ZM395.43 44.0727C395.81 44.0727 396.14 43.9977 396.42 43.8476C396.699 43.6941 396.913 43.4916 397.063 43.2404C397.217 42.9891 397.294 42.7151 397.294 42.4185V41.4709C397.234 41.5198 397.133 41.5651 396.99 41.607C396.851 41.6489 396.693 41.6856 396.519 41.717C396.344 41.7484 396.172 41.7763 396.001 41.8007C395.83 41.8252 395.681 41.8461 395.556 41.8635C395.273 41.9019 395.02 41.9648 394.797 42.052C394.573 42.1393 394.397 42.2614 394.268 42.4185C394.139 42.572 394.074 42.771 394.074 43.0153C394.074 43.3643 394.202 43.6278 394.456 43.8058C394.711 43.9837 395.036 44.0727 395.43 44.0727ZM402.901 42.1515V42.0154C402.904 41.3837 402.963 40.8811 403.078 40.5077C403.197 40.1342 403.365 39.8341 403.581 39.6072C403.797 39.3769 404.061 39.1657 404.372 38.9738C404.584 38.8412 404.775 38.6963 404.942 38.5393C405.113 38.3787 405.248 38.2007 405.345 38.0053C405.443 37.8064 405.492 37.5848 405.492 37.3404C405.492 37.0647 405.427 36.8257 405.298 36.6232C405.169 36.4208 404.995 36.2638 404.775 36.1521C404.558 36.0404 404.316 35.9846 404.047 35.9846C403.799 35.9846 403.564 36.0387 403.34 36.1469C403.12 36.2516 402.937 36.4121 402.791 36.6285C402.647 36.8414 402.567 37.1119 402.55 37.4399H400.686C400.704 36.7768 400.864 36.2219 401.168 35.7752C401.475 35.3284 401.88 34.9934 402.382 34.77C402.888 34.5467 403.447 34.435 404.057 34.435C404.724 34.435 405.31 34.5519 405.816 34.7857C406.326 35.0196 406.722 35.3529 407.005 35.7856C407.291 36.2149 407.434 36.7245 407.434 37.3143C407.434 37.7121 407.369 38.0681 407.24 38.3822C407.115 38.6963 406.935 38.9755 406.701 39.2198C406.467 39.4641 406.19 39.6823 405.869 39.8742C405.586 40.0487 405.354 40.2302 405.173 40.4187C404.995 40.6071 404.862 40.8287 404.775 41.0835C404.691 41.3348 404.647 41.6454 404.644 42.0154V42.1515H402.901ZM403.811 45.4181C403.497 45.4181 403.227 45.3065 403 45.0831C402.773 44.8597 402.66 44.5875 402.66 44.2664C402.66 43.9523 402.773 43.6836 403 43.4602C403.227 43.2369 403.497 43.1252 403.811 43.1252C404.122 43.1252 404.391 43.2369 404.618 43.4602C404.848 43.6836 404.963 43.9523 404.963 44.2664C404.963 44.4793 404.909 44.673 404.801 44.8475C404.696 45.022 404.557 45.1616 404.382 45.2663C404.211 45.3675 404.021 45.4181 403.811 45.4181Z" fill="#1B1139"/>
<rect opacity="0.8" x="45.8701" y="38.9023" width="14.7419" height="2.45699" rx="1.22849" fill="#1B1139"/>
<rect opacity="0.8" x="54.4702" y="32.76" width="14.7419" height="2.45699" rx="1.22849" transform="rotate(90 54.4702 32.76)" fill="#1B1139"/>
<defs>
<filter id="filter0_d_160_355" x="0.000139236" y="0" width="486.497" height="116.76" filterUnits="userSpaceOnUse" color-interpolation-filters="sRGB">
<feFlood flood-opacity="0" result="BackgroundImageFix"/>
<feColorMatrix in="SourceAlpha" type="matrix" values="0 0 0 0 0 0 0 0 0 0 0 0 0 0 0 0 0 0 127 0" result="hardAlpha"/>
<feMorphology radius="12.0669" operator="erode" in="SourceAlpha" result="effect1_dropShadow_160_355"/>
<feOffset dy="20.1114"/>
<feGaussianBlur stdDeviation="13.4076"/>
<feColorMatrix type="matrix" values="0 0 0 0 0.583333 0 0 0 0 0.583333 0 0 0 0 0.583333 0 0 0 0.25 0"/>
<feBlend mode="normal" in2="BackgroundImageFix" result="effect1_dropShadow_160_355"/>
<feBlend mode="normal" in="SourceGraphic" in2="effect1_dropShadow_160_355" result="shape"/>
</filter>
</defs>
</svg>
