<svg width="385" height="19" viewBox="0 0 385 19" fill="none" xmlns="http://www.w3.org/2000/svg">
<path opacity="0.88" d="M27.266 15V4.27859H29.2082V8.81739H34.1763V4.27859H36.1237V15H34.1763V10.4455H29.2082V15H27.266ZM41.6598 15.1571C40.8745 15.1571 40.194 14.9843 39.6181 14.6388C39.0423 14.2933 38.5955 13.8099 38.2779 13.1887C37.9638 12.5674 37.8068 11.8415 37.8068 11.0109C37.8068 10.1803 37.9638 9.45258 38.2779 8.82786C38.5955 8.20314 39.0423 7.71803 39.6181 7.37251C40.194 7.027 40.8745 6.85424 41.6598 6.85424C42.445 6.85424 43.1256 7.027 43.7015 7.37251C44.2773 7.71803 44.7223 8.20314 45.0364 8.82786C45.354 9.45258 45.5128 10.1803 45.5128 11.0109C45.5128 11.8415 45.354 12.5674 45.0364 13.1887C44.7223 13.8099 44.2773 14.2933 43.7015 14.6388C43.1256 14.9843 42.445 15.1571 41.6598 15.1571ZM41.6703 13.6389C42.096 13.6389 42.452 13.522 42.7382 13.2881C43.0244 13.0508 43.2373 12.7332 43.3769 12.3354C43.52 11.9375 43.5915 11.4943 43.5915 11.0056C43.5915 10.5136 43.52 10.0686 43.3769 9.67071C43.2373 9.26935 43.0244 8.95001 42.7382 8.71269C42.452 8.47537 42.096 8.35671 41.6703 8.35671C41.234 8.35671 40.871 8.47537 40.5814 8.71269C40.2952 8.95001 40.0805 9.26935 39.9374 9.67071C39.7978 10.0686 39.728 10.5136 39.728 11.0056C39.728 11.4943 39.7978 11.9375 39.9374 12.3354C40.0805 12.7332 40.2952 13.0508 40.5814 13.2881C40.871 13.522 41.234 13.6389 41.6703 13.6389ZM48.5504 15L46.2784 6.95894H48.2102L49.6236 12.6128H49.6969L51.1418 6.95894H53.0526L54.4975 12.5814H54.576L55.9685 6.95894H57.9055L55.6282 15H53.6546L52.1469 9.56601H52.037L50.5293 15H48.5504ZM65.8693 15.1413C65.2376 15.1413 64.6722 14.9791 64.1732 14.6545C63.6741 14.3299 63.2797 13.8588 62.99 13.241C62.7004 12.6233 62.5555 11.8729 62.5555 10.9899C62.5555 10.0965 62.7021 9.34264 62.9953 8.7284C63.2919 8.11066 63.6915 7.64474 64.1941 7.33063C64.6967 7.01304 65.2568 6.85424 65.8746 6.85424C66.3457 6.85424 66.7331 6.93451 67.0367 7.09506C67.3404 7.25211 67.5812 7.44232 67.7592 7.66568C67.9372 7.88555 68.075 8.09321 68.1728 8.28865H68.2513V4.27859H70.1516V15H68.2879V13.7331H68.1728C68.075 13.9286 67.9337 14.1362 67.7487 14.3561C67.5637 14.5725 67.3194 14.7574 67.0158 14.911C66.7122 15.0646 66.33 15.1413 65.8693 15.1413ZM66.3981 13.5865C66.7994 13.5865 67.1414 13.4783 67.4241 13.262C67.7068 13.0421 67.9215 12.7367 68.0681 12.3458C68.2146 11.9549 68.2879 11.4995 68.2879 10.9795C68.2879 10.4595 68.2146 10.0075 68.0681 9.62359C67.925 9.23969 67.7121 8.94129 67.4294 8.7284C67.1502 8.5155 66.8064 8.40906 66.3981 8.40906C65.9758 8.40906 65.6233 8.51899 65.3406 8.73887C65.0579 8.95874 64.845 9.26237 64.7019 9.64977C64.5588 10.0372 64.4873 10.4804 64.4873 10.9795C64.4873 11.482 64.5588 11.9305 64.7019 12.3249C64.8485 12.7158 65.0631 13.0246 65.3458 13.2515C65.632 13.4749 65.9828 13.5865 66.3981 13.5865ZM75.6785 15.1571C74.8933 15.1571 74.2127 14.9843 73.6369 14.6388C73.061 14.2933 72.6143 13.8099 72.2967 13.1887C71.9826 12.5674 71.8255 11.8415 71.8255 11.0109C71.8255 10.1803 71.9826 9.45258 72.2967 8.82786C72.6143 8.20314 73.061 7.71803 73.6369 7.37251C74.2127 7.027 74.8933 6.85424 75.6785 6.85424C76.4638 6.85424 77.1443 7.027 77.7202 7.37251C78.2961 7.71803 78.741 8.20314 79.0551 8.82786C79.3727 9.45258 79.5315 10.1803 79.5315 11.0109C79.5315 11.8415 79.3727 12.5674 79.0551 13.1887C78.741 13.8099 78.2961 14.2933 77.7202 14.6388C77.1443 14.9843 76.4638 15.1571 75.6785 15.1571ZM75.689 13.6389C76.1148 13.6389 76.4708 13.522 76.7569 13.2881C77.0431 13.0508 77.256 12.7332 77.3956 12.3354C77.5387 11.9375 77.6103 11.4943 77.6103 11.0056C77.6103 10.5136 77.5387 10.0686 77.3956 9.67071C77.256 9.26935 77.0431 8.95001 76.7569 8.71269C76.4708 8.47537 76.1148 8.35671 75.689 8.35671C75.2527 8.35671 74.8898 8.47537 74.6001 8.71269C74.3139 8.95001 74.0993 9.26935 73.9562 9.67071C73.8166 10.0686 73.7468 10.5136 73.7468 11.0056C73.7468 11.4943 73.8166 11.9375 73.9562 12.3354C74.0993 12.7332 74.3139 13.0508 74.6001 13.2881C74.8898 13.522 75.2527 13.6389 75.689 13.6389ZM86.8227 4.27859V15H84.8805V4.27859H86.8227ZM94.2263 12.4767L94.2211 10.189H94.5247L97.4145 6.95894H99.6289L96.0743 10.9167H95.6817L94.2263 12.4767ZM92.4988 15V4.27859H94.3939V15H92.4988ZM97.5454 15L94.9278 11.3407L96.2052 10.0058L99.8122 15H97.5454ZM102.787 10.2884V15H100.892V6.95894H102.703V8.3253H102.797C102.982 7.87508 103.277 7.51735 103.682 7.25211C104.091 6.98687 104.595 6.85424 105.195 6.85424C105.75 6.85424 106.233 6.9729 106.645 7.21023C107.061 7.44755 107.382 7.79132 107.608 8.24153C107.839 8.69175 107.952 9.23794 107.949 9.88011V15H106.054V10.1733C106.054 9.63581 105.914 9.21526 105.635 8.91162C105.359 8.60799 104.977 8.45617 104.488 8.45617C104.157 8.45617 103.862 8.52946 103.604 8.67604C103.349 8.81914 103.148 9.02679 103.002 9.29902C102.859 9.57124 102.787 9.90105 102.787 10.2884ZM113.383 15.1571C112.597 15.1571 111.917 14.9843 111.341 14.6388C110.765 14.2933 110.318 13.8099 110.001 13.1887C109.687 12.5674 109.53 11.8415 109.53 11.0109C109.53 10.1803 109.687 9.45258 110.001 8.82786C110.318 8.20314 110.765 7.71803 111.341 7.37251C111.917 7.027 112.597 6.85424 113.383 6.85424C114.168 6.85424 114.849 7.027 115.424 7.37251C116 7.71803 116.445 8.20314 116.759 8.82786C117.077 9.45258 117.236 10.1803 117.236 11.0109C117.236 11.8415 117.077 12.5674 116.759 13.1887C116.445 13.8099 116 14.2933 115.424 14.6388C114.849 14.9843 114.168 15.1571 113.383 15.1571ZM113.393 13.6389C113.819 13.6389 114.175 13.522 114.461 13.2881C114.747 13.0508 114.96 12.7332 115.1 12.3354C115.243 11.9375 115.314 11.4943 115.314 11.0056C115.314 10.5136 115.243 10.0686 115.1 9.67071C114.96 9.26935 114.747 8.95001 114.461 8.71269C114.175 8.47537 113.819 8.35671 113.393 8.35671C112.957 8.35671 112.594 8.47537 112.304 8.71269C112.018 8.95001 111.804 9.26935 111.66 9.67071C111.521 10.0686 111.451 10.5136 111.451 11.0056C111.451 11.4943 111.521 11.9375 111.66 12.3354C111.804 12.7332 112.018 13.0508 112.304 13.2881C112.594 13.522 112.957 13.6389 113.393 13.6389ZM120.273 15L118.001 6.95894H119.933L121.347 12.6128H121.42L122.865 6.95894H124.776L126.22 12.5814H126.299L127.691 6.95894H129.628L127.351 15H125.378L123.87 9.56601H123.76L122.252 15H120.273ZM134.608 15V6.95894H136.503V15H134.608ZM135.561 5.8177C135.261 5.8177 135.003 5.71823 134.786 5.5193C134.57 5.31688 134.462 5.07432 134.462 4.79163C134.462 4.50545 134.57 4.26289 134.786 4.06395C135.003 3.86153 135.261 3.76032 135.561 3.76032C135.865 3.76032 136.123 3.86153 136.336 4.06395C136.552 4.26289 136.66 4.50545 136.66 4.79163C136.66 5.07432 136.552 5.31688 136.336 5.5193C136.123 5.71823 135.865 5.8177 135.561 5.8177ZM142.525 6.95894V8.42476H137.772V6.95894H142.525ZM138.96 15V6.19986C138.96 5.6589 139.072 5.20869 139.295 4.84921C139.522 4.48974 139.825 4.22101 140.206 4.04301C140.586 3.86502 141.009 3.77603 141.473 3.77603C141.801 3.77603 142.092 3.8022 142.347 3.85455C142.602 3.9069 142.79 3.95402 142.912 3.9959L142.536 5.46172C142.455 5.43729 142.354 5.41286 142.232 5.38843C142.11 5.36051 141.974 5.34655 141.824 5.34655C141.471 5.34655 141.222 5.43205 141.075 5.60306C140.932 5.77059 140.86 6.0114 140.86 6.3255V15H138.96ZM149.692 4.27859V15H147.75V4.27859H149.692ZM160.734 18.0154V13.7331H160.655C160.558 13.9286 160.416 14.1362 160.231 14.3561C160.046 14.5725 159.802 14.7574 159.498 14.911C159.195 15.0646 158.813 15.1413 158.352 15.1413C157.72 15.1413 157.155 14.9791 156.656 14.6545C156.157 14.3299 155.762 13.8588 155.473 13.241C155.183 12.6233 155.038 11.8729 155.038 10.9899C155.038 10.0965 155.185 9.34264 155.478 8.7284C155.775 8.11066 156.174 7.64474 156.677 7.33063C157.179 7.01304 157.739 6.85424 158.357 6.85424C158.828 6.85424 159.216 6.93451 159.519 7.09506C159.823 7.25211 160.064 7.44232 160.242 7.66568C160.42 7.88555 160.558 8.09321 160.655 8.28865H160.771V6.95894H162.634V18.0154H160.734ZM158.881 13.5865C159.282 13.5865 159.624 13.4783 159.907 13.262C160.189 13.0421 160.404 12.7367 160.551 12.3458C160.697 11.9549 160.771 11.4995 160.771 10.9795C160.771 10.4595 160.697 10.0075 160.551 9.62359C160.408 9.23969 160.195 8.94129 159.912 8.7284C159.633 8.5155 159.289 8.40906 158.881 8.40906C158.458 8.40906 158.106 8.51899 157.823 8.73887C157.54 8.95874 157.328 9.26237 157.185 9.64977C157.041 10.0372 156.97 10.4804 156.97 10.9795C156.97 11.482 157.041 11.9305 157.185 12.3249C157.331 12.7158 157.546 13.0246 157.828 13.2515C158.115 13.4749 158.465 13.5865 158.881 13.5865ZM169.707 11.6181V6.95894H171.602V15H169.764V13.5708H169.681C169.499 14.021 169.201 14.3892 168.785 14.6754C168.374 14.9616 167.866 15.1047 167.262 15.1047C166.735 15.1047 166.269 14.9878 165.864 14.754C165.463 14.5166 165.149 14.1729 164.922 13.7226C164.695 13.2689 164.582 12.721 164.582 12.0788V6.95894H166.477V11.7857C166.477 12.2952 166.616 12.7001 166.896 13.0002C167.175 13.3003 167.541 13.4504 167.995 13.4504C168.274 13.4504 168.545 13.3824 168.806 13.2463C169.068 13.1101 169.283 12.9077 169.45 12.639C169.621 12.3668 169.707 12.0265 169.707 11.6181ZM175.865 15.1623C175.355 15.1623 174.896 15.0715 174.488 14.8901C174.083 14.7051 173.762 14.4329 173.524 14.0734C173.291 13.7139 173.174 13.2707 173.174 12.7437C173.174 12.29 173.257 11.9148 173.425 11.6181C173.593 11.3215 173.821 11.0842 174.111 10.9062C174.4 10.7282 174.727 10.5938 175.09 10.5031C175.456 10.4089 175.835 10.3408 176.226 10.2989C176.697 10.2501 177.079 10.2064 177.372 10.168C177.665 10.1262 177.878 10.0633 178.011 9.97958C178.147 9.89232 178.215 9.75796 178.215 9.57648V9.54507C178.215 9.15069 178.098 8.84531 177.864 8.62893C177.63 8.41255 177.294 8.30436 176.854 8.30436C176.39 8.30436 176.022 8.40557 175.749 8.60799C175.481 8.81041 175.299 9.04948 175.205 9.32519L173.435 9.07391C173.575 8.5853 173.805 8.17697 174.126 7.8489C174.448 7.51735 174.84 7.26956 175.304 7.10553C175.769 6.938 176.282 6.85424 176.843 6.85424C177.231 6.85424 177.617 6.89961 178 6.99035C178.384 7.0811 178.735 7.23117 179.053 7.44057C179.37 7.64648 179.625 7.92743 179.817 8.28342C180.012 8.6394 180.11 9.08438 180.11 9.61836V15H178.288V13.8954H178.226C178.11 14.1188 177.948 14.3282 177.739 14.5236C177.533 14.7156 177.273 14.8709 176.959 14.9895C176.648 15.1047 176.283 15.1623 175.865 15.1623ZM176.357 13.7698C176.737 13.7698 177.067 13.6947 177.346 13.5447C177.625 13.3911 177.84 13.1887 177.99 12.9374C178.144 12.6861 178.22 12.4121 178.22 12.1155V11.1679C178.161 11.2168 178.06 11.2622 177.917 11.304C177.777 11.3459 177.62 11.3826 177.446 11.414C177.271 11.4454 177.098 11.4733 176.927 11.4977C176.756 11.5222 176.608 11.5431 176.482 11.5606C176.2 11.599 175.947 11.6618 175.723 11.749C175.5 11.8363 175.324 11.9584 175.194 12.1155C175.065 12.269 175.001 12.468 175.001 12.7123C175.001 13.0613 175.128 13.3248 175.383 13.5028C175.638 13.6808 175.962 13.7698 176.357 13.7698ZM183.911 4.27859V15H182.016V4.27859H183.911ZM185.86 15V6.95894H187.755V15H185.86ZM186.812 5.8177C186.512 5.8177 186.254 5.71823 186.038 5.5193C185.821 5.31688 185.713 5.07432 185.713 4.79163C185.713 4.50545 185.821 4.26289 186.038 4.06395C186.254 3.86153 186.512 3.76032 186.812 3.76032C187.116 3.76032 187.374 3.86153 187.587 4.06395C187.804 4.26289 187.912 4.50545 187.912 4.79163C187.912 5.07432 187.804 5.31688 187.587 5.5193C187.374 5.71823 187.116 5.8177 186.812 5.8177ZM193.776 6.95894V8.42476H189.023V6.95894H193.776ZM190.211 15V6.19986C190.211 5.6589 190.323 5.20869 190.546 4.84921C190.773 4.48974 191.077 4.22101 191.457 4.04301C191.838 3.86502 192.26 3.77603 192.724 3.77603C193.052 3.77603 193.344 3.8022 193.598 3.85455C193.853 3.9069 194.042 3.95402 194.164 3.9959L193.787 5.46172C193.706 5.43729 193.605 5.41286 193.483 5.38843C193.361 5.36051 193.225 5.34655 193.075 5.34655C192.722 5.34655 192.473 5.43205 192.326 5.60306C192.183 5.77059 192.112 6.0114 192.112 6.3255V15H190.211ZM196.438 18.0154C196.18 18.0154 195.941 17.9945 195.721 17.9526C195.505 17.9142 195.332 17.8688 195.203 17.8165L195.643 16.3402C195.918 16.4204 196.164 16.4588 196.381 16.4553C196.597 16.4519 196.787 16.3838 196.951 16.2512C197.119 16.122 197.26 15.9057 197.375 15.602L197.538 15.1675L194.622 6.95894H196.632L198.485 13.0316H198.569L200.427 6.95894H202.443L199.223 15.9737C199.073 16.3995 198.874 16.7642 198.627 17.0678C198.379 17.375 198.075 17.6088 197.716 17.7693C197.36 17.9334 196.934 18.0154 196.438 18.0154ZM211.484 6.95894V8.42476H206.73V6.95894H211.484ZM207.919 15V6.19986C207.919 5.6589 208.03 5.20869 208.254 4.84921C208.481 4.48974 208.784 4.22101 209.165 4.04301C209.545 3.86502 209.967 3.77603 210.432 3.77603C210.76 3.77603 211.051 3.8022 211.306 3.85455C211.561 3.9069 211.749 3.95402 211.871 3.9959L211.494 5.46172C211.414 5.43729 211.313 5.41286 211.191 5.38843C211.069 5.36051 210.932 5.34655 210.782 5.34655C210.43 5.34655 210.18 5.43205 210.034 5.60306C209.891 5.77059 209.819 6.0114 209.819 6.3255V15H207.919ZM216.173 15.1571C215.388 15.1571 214.707 14.9843 214.132 14.6388C213.556 14.2933 213.109 13.8099 212.791 13.1887C212.477 12.5674 212.32 11.8415 212.32 11.0109C212.32 10.1803 212.477 9.45258 212.791 8.82786C213.109 8.20314 213.556 7.71803 214.132 7.37251C214.707 7.027 215.388 6.85424 216.173 6.85424C216.958 6.85424 217.639 7.027 218.215 7.37251C218.791 7.71803 219.236 8.20314 219.55 8.82786C219.867 9.45258 220.026 10.1803 220.026 11.0109C220.026 11.8415 219.867 12.5674 219.55 13.1887C219.236 13.8099 218.791 14.2933 218.215 14.6388C217.639 14.9843 216.958 15.1571 216.173 15.1571ZM216.184 13.6389C216.609 13.6389 216.965 13.522 217.252 13.2881C217.538 13.0508 217.751 12.7332 217.89 12.3354C218.033 11.9375 218.105 11.4943 218.105 11.0056C218.105 10.5136 218.033 10.0686 217.89 9.67071C217.751 9.26935 217.538 8.95001 217.252 8.71269C216.965 8.47537 216.609 8.35671 216.184 8.35671C215.747 8.35671 215.384 8.47537 215.095 8.71269C214.809 8.95001 214.594 9.26935 214.451 9.67071C214.311 10.0686 214.241 10.5136 214.241 11.0056C214.241 11.4943 214.311 11.9375 214.451 12.3354C214.594 12.7332 214.809 13.0508 215.095 13.2881C215.384 13.522 215.747 13.6389 216.184 13.6389ZM221.635 15V6.95894H223.472V8.29912H223.556C223.703 7.83495 223.954 7.47722 224.31 7.22593C224.669 6.97116 225.079 6.84377 225.54 6.84377C225.645 6.84377 225.762 6.84901 225.891 6.85948C226.023 6.86646 226.133 6.87867 226.221 6.89612V8.6394C226.14 8.61148 226.013 8.58705 225.838 8.56611C225.667 8.54168 225.502 8.52946 225.341 8.52946C224.996 8.52946 224.685 8.6045 224.409 8.75457C224.137 8.90115 223.922 9.10532 223.765 9.36707C223.608 9.62883 223.53 9.93071 223.53 10.2727V15H221.635ZM235.152 6.95894V8.42476H230.529V6.95894H235.152ZM231.67 5.03244H233.565V12.5814C233.565 12.8362 233.604 13.0316 233.681 13.1677C233.761 13.3003 233.866 13.3911 233.995 13.44C234.124 13.4888 234.267 13.5132 234.424 13.5132C234.543 13.5132 234.651 13.5045 234.748 13.4871C234.85 13.4696 234.926 13.4539 234.979 13.44L235.298 14.9215C235.197 14.9564 235.052 14.9948 234.864 15.0366C234.679 15.0785 234.452 15.103 234.183 15.1099C233.708 15.1239 233.281 15.0524 232.901 14.8953C232.52 14.7348 232.218 14.487 231.995 14.1519C231.775 13.8169 231.667 13.3981 231.67 12.8955V5.03244ZM238.804 10.2884V15H236.909V4.27859H238.762V8.3253H238.857C239.045 7.87159 239.337 7.51386 239.731 7.25211C240.129 6.98687 240.635 6.85424 241.249 6.85424C241.808 6.85424 242.294 6.97116 242.71 7.20499C243.125 7.43882 243.446 7.78085 243.673 8.23106C243.903 8.68128 244.018 9.23096 244.018 9.88011V15H242.123V10.1733C242.123 9.63232 241.984 9.21177 241.705 8.91162C241.429 8.60799 241.041 8.45617 240.542 8.45617C240.207 8.45617 239.907 8.52946 239.642 8.67604C239.38 8.81914 239.174 9.02679 239.024 9.29902C238.878 9.57124 238.804 9.90105 238.804 10.2884ZM249.51 15.1571C248.704 15.1571 248.008 14.9895 247.421 14.6545C246.838 14.316 246.39 13.8378 246.076 13.2201C245.762 12.5989 245.605 11.8677 245.605 11.0266C245.605 10.1994 245.762 9.47352 246.076 8.8488C246.393 8.22059 246.837 7.73199 247.406 7.38298C247.974 7.03049 248.643 6.85424 249.411 6.85424C249.906 6.85424 250.374 6.93451 250.814 7.09506C251.257 7.25211 251.648 7.49641 251.986 7.82796C252.328 8.15952 252.597 8.58181 252.792 9.09485C252.988 9.6044 253.086 10.2117 253.086 10.9167V11.4977H246.495V10.2204H251.269C251.266 9.85742 251.187 9.53459 251.033 9.2519C250.88 8.96572 250.665 8.74061 250.39 8.57658C250.117 8.41255 249.8 8.33053 249.437 8.33053C249.049 8.33053 248.709 8.42476 248.416 8.61322C248.123 8.7982 247.894 9.0425 247.73 9.34613C247.57 9.64628 247.488 9.97609 247.484 10.3356V11.4506C247.484 11.9183 247.57 12.3196 247.741 12.6547C247.912 12.9862 248.151 13.241 248.458 13.419C248.765 13.5935 249.124 13.6808 249.536 13.6808C249.812 13.6808 250.061 13.6424 250.285 13.5656C250.508 13.4853 250.702 13.3684 250.866 13.2148C251.03 13.0613 251.154 12.8711 251.238 12.6442L253.007 12.8432C252.895 13.3108 252.683 13.7192 252.368 14.0682C252.058 14.4137 251.66 14.6824 251.175 14.8744C250.69 15.0628 250.135 15.1571 249.51 15.1571ZM264.256 7.22593C264.207 6.76874 264.001 6.41275 263.638 6.15798C263.279 5.90321 262.811 5.77582 262.235 5.77582C261.83 5.77582 261.483 5.8369 261.193 5.95905C260.904 6.0812 260.682 6.24698 260.529 6.45638C260.375 6.66578 260.296 6.90485 260.293 7.17358C260.293 7.39694 260.344 7.59064 260.445 7.75467C260.55 7.91871 260.691 8.05831 260.869 8.17348C261.047 8.28516 261.244 8.37939 261.46 8.45617C261.677 8.53295 261.895 8.59752 262.115 8.64987L263.12 8.90115C263.525 8.99538 263.914 9.12277 264.287 9.28331C264.664 9.44385 265.001 9.64628 265.298 9.89058C265.598 10.1349 265.835 10.4298 266.01 10.7753C266.184 11.1208 266.271 11.5257 266.271 11.9898C266.271 12.618 266.111 13.1712 265.79 13.6494C265.469 14.124 265.005 14.4957 264.397 14.7644C263.794 15.0297 263.062 15.1623 262.204 15.1623C261.37 15.1623 260.645 15.0332 260.031 14.7749C259.42 14.5166 258.942 14.1397 258.597 13.6441C258.255 13.1485 258.07 12.5448 258.042 11.8328H259.953C259.981 12.2062 260.096 12.5168 260.298 12.7646C260.501 13.0124 260.764 13.1974 261.089 13.3195C261.417 13.4417 261.783 13.5028 262.188 13.5028C262.61 13.5028 262.98 13.44 263.298 13.3143C263.619 13.1852 263.87 13.0072 264.052 12.7803C264.233 12.55 264.326 12.2813 264.329 11.9741C264.326 11.6949 264.244 11.4646 264.083 11.2831C263.923 11.0981 263.698 10.9446 263.408 10.8224C263.122 10.6968 262.787 10.5851 262.403 10.4874L261.183 10.1733C260.3 9.94642 259.602 9.60265 259.089 9.14197C258.579 8.67779 258.325 8.0618 258.325 7.29399C258.325 6.66229 258.496 6.10912 258.838 5.63447C259.183 5.15983 259.653 4.79163 260.246 4.52988C260.839 4.26463 261.511 4.13201 262.261 4.13201C263.022 4.13201 263.689 4.26463 264.261 4.52988C264.837 4.79163 265.289 5.15634 265.617 5.624C265.945 6.08818 266.114 6.62216 266.125 7.22593H264.256ZM271.934 6.95894V8.42476H267.312V6.95894H271.934ZM268.453 5.03244H270.348V12.5814C270.348 12.8362 270.387 13.0316 270.463 13.1677C270.544 13.3003 270.648 13.3911 270.778 13.44C270.907 13.4888 271.05 13.5132 271.207 13.5132C271.325 13.5132 271.434 13.5045 271.531 13.4871C271.633 13.4696 271.709 13.4539 271.762 13.44L272.081 14.9215C271.98 14.9564 271.835 14.9948 271.647 15.0366C271.462 15.0785 271.235 15.103 270.966 15.1099C270.491 15.1239 270.064 15.0524 269.683 14.8953C269.303 14.7348 269.001 14.487 268.778 14.1519C268.558 13.8169 268.45 13.3981 268.453 12.8955V5.03244ZM275.833 15.1623C275.324 15.1623 274.865 15.0715 274.456 14.8901C274.052 14.7051 273.731 14.4329 273.493 14.0734C273.259 13.7139 273.142 13.2707 273.142 12.7437C273.142 12.29 273.226 11.9148 273.394 11.6181C273.561 11.3215 273.79 11.0842 274.08 10.9062C274.369 10.7282 274.696 10.5938 275.058 10.5031C275.425 10.4089 275.804 10.3408 276.194 10.2989C276.666 10.2501 277.048 10.2064 277.341 10.168C277.634 10.1262 277.847 10.0633 277.98 9.97958C278.116 9.89232 278.184 9.75796 278.184 9.57648V9.54507C278.184 9.15069 278.067 8.84531 277.833 8.62893C277.599 8.41255 277.262 8.30436 276.823 8.30436C276.359 8.30436 275.99 8.40557 275.718 8.60799C275.449 8.81041 275.268 9.04948 275.174 9.32519L273.404 9.07391C273.544 8.5853 273.774 8.17697 274.095 7.8489C274.416 7.51735 274.809 7.26956 275.273 7.10553C275.737 6.938 276.25 6.85424 276.812 6.85424C277.2 6.85424 277.585 6.89961 277.969 6.99035C278.353 7.0811 278.704 7.23117 279.021 7.44057C279.339 7.64648 279.594 7.92743 279.786 8.28342C279.981 8.6394 280.079 9.08438 280.079 9.61836V15H278.257V13.8954H278.194C278.079 14.1188 277.917 14.3282 277.707 14.5236C277.502 14.7156 277.242 14.8709 276.927 14.9895C276.617 15.1047 276.252 15.1623 275.833 15.1623ZM276.325 13.7698C276.706 13.7698 277.036 13.6947 277.315 13.5447C277.594 13.3911 277.809 13.1887 277.959 12.9374C278.112 12.6861 278.189 12.4121 278.189 12.1155V11.1679C278.13 11.2168 278.029 11.2622 277.885 11.304C277.746 11.3459 277.589 11.3826 277.414 11.414C277.24 11.4454 277.067 11.4733 276.896 11.4977C276.725 11.5222 276.577 11.5431 276.451 11.5606C276.168 11.599 275.915 11.6618 275.692 11.749C275.469 11.8363 275.292 11.9584 275.163 12.1155C275.034 12.269 274.969 12.468 274.969 12.7123C274.969 13.0613 275.097 13.3248 275.352 13.5028C275.606 13.6808 275.931 13.7698 276.325 13.7698ZM281.984 15V6.95894H283.822V8.29912H283.906C284.052 7.83495 284.304 7.47722 284.66 7.22593C285.019 6.97116 285.429 6.84377 285.89 6.84377C285.995 6.84377 286.111 6.84901 286.241 6.85948C286.373 6.86646 286.483 6.87867 286.57 6.89612V8.6394C286.49 8.61148 286.363 8.58705 286.188 8.56611C286.017 8.54168 285.851 8.52946 285.691 8.52946C285.345 8.52946 285.035 8.6045 284.759 8.75457C284.487 8.90115 284.272 9.10532 284.115 9.36707C283.958 9.62883 283.88 9.93071 283.88 10.2727V15H281.984ZM292.277 6.95894V8.42476H287.654V6.95894H292.277ZM288.795 5.03244H290.69V12.5814C290.69 12.8362 290.729 13.0316 290.806 13.1677C290.886 13.3003 290.991 13.3911 291.12 13.44C291.249 13.4888 291.392 13.5132 291.549 13.5132C291.668 13.5132 291.776 13.5045 291.874 13.4871C291.975 13.4696 292.052 13.4539 292.104 13.44L292.423 14.9215C292.322 14.9564 292.177 14.9948 291.989 15.0366C291.804 15.0785 291.577 15.103 291.308 15.1099C290.833 15.1239 290.406 15.0524 290.026 14.8953C289.645 14.7348 289.343 14.487 289.12 14.1519C288.9 13.8169 288.792 13.3981 288.795 12.8955V5.03244ZM298.476 9.75447V11.3145H293.649V9.75447H298.476ZM307.312 4.27859H309.254V11.2831C309.254 12.0509 309.072 12.7262 308.709 13.3091C308.35 13.8919 307.844 14.3474 307.191 14.6754C306.539 15 305.776 15.1623 304.904 15.1623C304.028 15.1623 303.263 15 302.611 14.6754C301.958 14.3474 301.452 13.8919 301.092 13.3091C300.733 12.7262 300.553 12.0509 300.553 11.2831V4.27859H302.495V11.1208C302.495 11.5675 302.593 11.9654 302.789 12.3144C302.988 12.6634 303.267 12.9374 303.626 13.1363C303.986 13.3318 304.411 13.4295 304.904 13.4295C305.396 13.4295 305.821 13.3318 306.181 13.1363C306.544 12.9374 306.823 12.6634 307.019 12.3144C307.214 11.9654 307.312 11.5675 307.312 11.1208V4.27859ZM311.281 18.0154V6.95894H313.145V8.28865H313.255C313.353 8.09321 313.49 7.88555 313.668 7.66568C313.846 7.44232 314.087 7.25211 314.391 7.09506C314.694 6.93451 315.082 6.85424 315.553 6.85424C316.174 6.85424 316.734 7.01304 317.233 7.33063C317.736 7.64474 318.134 8.11066 318.427 8.7284C318.724 9.34264 318.872 10.0965 318.872 10.9899C318.872 11.8729 318.727 12.6233 318.438 13.241C318.148 13.8588 317.753 14.3299 317.254 14.6545C316.755 14.9791 316.19 15.1413 315.558 15.1413C315.098 15.1413 314.715 15.0646 314.412 14.911C314.108 14.7574 313.864 14.5725 313.679 14.3561C313.497 14.1362 313.356 13.9286 313.255 13.7331H313.176V18.0154H311.281ZM313.14 10.9795C313.14 11.4995 313.213 11.9549 313.36 12.3458C313.51 12.7367 313.724 13.0421 314.003 13.262C314.286 13.4783 314.628 13.5865 315.029 13.5865C315.448 13.5865 315.799 13.4749 316.082 13.2515C316.364 13.0246 316.577 12.7158 316.72 12.3249C316.867 11.9305 316.94 11.482 316.94 10.9795C316.94 10.4804 316.869 10.0372 316.726 9.64977C316.583 9.26237 316.37 8.95874 316.087 8.73887C315.804 8.51899 315.452 8.40906 315.029 8.40906C314.625 8.40906 314.281 8.5155 313.998 8.7284C313.715 8.94129 313.501 9.23969 313.354 9.62359C313.211 10.0075 313.14 10.4595 313.14 10.9795ZM325.67 4.27859L328.46 12.7175H328.57L331.355 4.27859H333.491L329.711 15H327.314L323.539 4.27859H325.67ZM334.819 15V6.95894H336.714V15H334.819ZM335.772 5.8177C335.472 5.8177 335.214 5.71823 334.997 5.5193C334.781 5.31688 334.673 5.07432 334.673 4.79163C334.673 4.50545 334.781 4.26289 334.997 4.06395C335.214 3.86153 335.472 3.76032 335.772 3.76032C336.076 3.76032 336.334 3.86153 336.547 4.06395C336.763 4.26289 336.871 4.50545 336.871 4.79163C336.871 5.07432 336.763 5.31688 336.547 5.5193C336.334 5.71823 336.076 5.8177 335.772 5.8177ZM345.019 9.08438L343.291 9.27284C343.242 9.09834 343.157 8.93431 343.034 8.78075C342.916 8.62718 342.755 8.50329 342.553 8.40906C342.35 8.31483 342.103 8.26771 341.809 8.26771C341.415 8.26771 341.084 8.35322 340.815 8.52423C340.55 8.69524 340.419 8.91686 340.422 9.18908C340.419 9.42291 340.504 9.61312 340.679 9.7597C340.857 9.90628 341.15 10.0267 341.558 10.1209L342.93 10.4141C343.691 10.5781 344.256 10.8381 344.626 11.1941C344.999 11.5501 345.188 12.016 345.191 12.5919C345.188 13.0979 345.039 13.5447 344.746 13.932C344.457 14.316 344.054 14.6161 343.537 14.8325C343.02 15.0489 342.427 15.1571 341.757 15.1571C340.773 15.1571 339.981 14.9511 339.38 14.5393C338.78 14.124 338.422 13.5464 338.307 12.8065L340.155 12.6285C340.239 12.9915 340.417 13.2654 340.689 13.4504C340.961 13.6354 341.316 13.7279 341.752 13.7279C342.202 13.7279 342.563 13.6354 342.836 13.4504C343.111 13.2654 343.249 13.0369 343.249 12.7646C343.249 12.5343 343.16 12.3441 342.982 12.194C342.808 12.0439 342.535 11.9288 342.165 11.8485L340.794 11.5606C340.023 11.4 339.452 11.1295 339.082 10.7491C338.712 10.3652 338.529 9.88011 338.532 9.29378C338.529 8.7982 338.663 8.36892 338.935 8.00596C339.211 7.6395 339.593 7.35681 340.082 7.15788C340.574 6.95545 341.141 6.85424 341.783 6.85424C342.726 6.85424 343.467 7.05492 344.008 7.45628C344.553 7.85763 344.889 8.40033 345.019 9.08438ZM349.068 15.1623C348.558 15.1623 348.099 15.0715 347.691 14.8901C347.286 14.7051 346.965 14.4329 346.728 14.0734C346.494 13.7139 346.377 13.2707 346.377 12.7437C346.377 12.29 346.461 11.9148 346.628 11.6181C346.796 11.3215 347.024 11.0842 347.314 10.9062C347.604 10.7282 347.93 10.5938 348.293 10.5031C348.66 10.4089 349.038 10.3408 349.429 10.2989C349.9 10.2501 350.282 10.2064 350.576 10.168C350.869 10.1262 351.082 10.0633 351.214 9.97958C351.35 9.89232 351.418 9.75796 351.418 9.57648V9.54507C351.418 9.15069 351.301 8.84531 351.068 8.62893C350.834 8.41255 350.497 8.30436 350.057 8.30436C349.593 8.30436 349.225 8.40557 348.953 8.60799C348.684 8.81041 348.502 9.04948 348.408 9.32519L346.639 9.07391C346.778 8.5853 347.009 8.17697 347.33 7.8489C347.651 7.51735 348.044 7.26956 348.508 7.10553C348.972 6.938 349.485 6.85424 350.047 6.85424C350.434 6.85424 350.82 6.89961 351.204 6.99035C351.588 7.0811 351.938 7.23117 352.256 7.44057C352.574 7.64648 352.828 7.92743 353.02 8.28342C353.216 8.6394 353.313 9.08438 353.313 9.61836V15H351.492V13.8954H351.429C351.314 14.1188 351.151 14.3282 350.942 14.5236C350.736 14.7156 350.476 14.8709 350.162 14.9895C349.851 15.1047 349.487 15.1623 349.068 15.1623ZM349.56 13.7698C349.94 13.7698 350.27 13.6947 350.549 13.5447C350.829 13.3911 351.043 13.1887 351.193 12.9374C351.347 12.6861 351.424 12.4121 351.424 12.1155V11.1679C351.364 11.2168 351.263 11.2622 351.12 11.304C350.98 11.3459 350.823 11.3826 350.649 11.414C350.474 11.4454 350.302 11.4733 350.131 11.4977C349.96 11.5222 349.811 11.5431 349.686 11.5606C349.403 11.599 349.15 11.6618 348.927 11.749C348.703 11.8363 348.527 11.9584 348.398 12.1155C348.269 12.269 348.204 12.468 348.204 12.7123C348.204 13.0613 348.331 13.3248 348.586 13.5028C348.841 13.6808 349.166 13.7698 349.56 13.7698ZM357.03 11.8485V11.7124C357.034 11.0807 357.093 10.5781 357.208 10.2047C357.327 9.83125 357.495 9.53111 357.711 9.30425C357.927 9.07391 358.191 8.86276 358.501 8.67081C358.714 8.53819 358.905 8.39335 359.072 8.2363C359.243 8.07576 359.377 7.89777 359.475 7.70232C359.573 7.50339 359.622 7.28177 359.622 7.03747C359.622 6.76176 359.557 6.52269 359.428 6.32027C359.299 6.11784 359.124 5.96079 358.905 5.84911C358.688 5.73743 358.446 5.68159 358.177 5.68159C357.929 5.68159 357.693 5.73568 357.47 5.84388C357.25 5.94858 357.067 6.10912 356.92 6.3255C356.777 6.53839 356.697 6.80887 356.68 7.13694H354.816C354.833 6.47383 354.994 5.91891 355.298 5.47219C355.605 5.02546 356.01 4.69042 356.512 4.46705C357.018 4.24369 357.577 4.13201 358.187 4.13201C358.854 4.13201 359.44 4.24893 359.946 4.48276C360.456 4.71659 360.852 5.04989 361.135 5.48266C361.421 5.91193 361.564 6.42148 361.564 7.01129C361.564 7.40916 361.499 7.76514 361.37 8.07925C361.245 8.39335 361.065 8.67255 360.831 8.91686C360.597 9.16116 360.32 9.37929 359.999 9.57124C359.716 9.74574 359.484 9.92722 359.302 10.1157C359.124 10.3041 358.992 10.5258 358.905 10.7805C358.821 11.0318 358.777 11.3424 358.774 11.7124V11.8485H357.03ZM357.941 15.1152C357.627 15.1152 357.357 15.0035 357.13 14.7801C356.903 14.5568 356.79 14.2845 356.79 13.9635C356.79 13.6494 356.903 13.3806 357.13 13.1573C357.357 12.9339 357.627 12.8222 357.941 12.8222C358.252 12.8222 358.521 12.9339 358.747 13.1573C358.978 13.3806 359.093 13.6494 359.093 13.9635C359.093 14.1764 359.039 14.37 358.931 14.5445C358.826 14.7191 358.686 14.8587 358.512 14.9634C358.341 15.0646 358.151 15.1152 357.941 15.1152Z" fill="#1B1139"/>
<rect opacity="0.8" y="8.59937" width="14.7419" height="2.45699" rx="1.22849" fill="#1B1139"/>
<rect opacity="0.8" x="8.6001" y="2.45703" width="14.7419" height="2.45699" rx="1.22849" transform="rotate(90 8.6001 2.45703)" fill="#1B1139"/>
</svg>
