<svg width="487" height="117" viewBox="0 0 487 117" fill="none" xmlns="http://www.w3.org/2000/svg">
<g filter="url(#filter0_d_160_362)">
<rect x="14.7485" width="457" height="81.8996" rx="4.02229" fill="white"/>
</g>
<path opacity="0.88" d="M75.3924 46.9407L72.3665 36.2193H74.4553L76.3871 44.098H76.4865L78.5492 36.2193H80.4495L82.5173 44.1033H82.6116L84.5433 36.2193H86.6321L83.6062 46.9407H81.6902L79.5438 39.4179H79.4601L77.3084 46.9407H75.3924ZM89.7901 42.2291V46.9407H87.895V36.2193H89.7483V40.266H89.8425C90.0309 39.8123 90.3224 39.4545 90.7167 39.1928C91.1146 38.9275 91.6207 38.7949 92.2349 38.7949C92.7933 38.7949 93.2802 38.9118 93.6955 39.1457C94.1108 39.3795 94.4319 39.7215 94.6587 40.1717C94.8891 40.622 95.0043 41.1716 95.0043 41.8208V46.9407H93.1092V42.1139C93.1092 41.573 92.9696 41.1524 92.6904 40.8523C92.4146 40.5487 92.0273 40.3968 91.5282 40.3968C91.1931 40.3968 90.893 40.4701 90.6277 40.6167C90.366 40.7598 90.1601 40.9675 90.01 41.2397C89.8634 41.5119 89.7901 41.8417 89.7901 42.2291ZM99.2499 47.103C98.7403 47.103 98.2814 47.0122 97.8731 46.8307C97.4682 46.6458 97.1471 46.3735 96.9098 46.0141C96.676 45.6546 96.5591 45.2114 96.5591 44.6844C96.5591 44.2307 96.6428 43.8555 96.8104 43.5588C96.9779 43.2622 97.2065 43.0248 97.4961 42.8469C97.7858 42.6689 98.1121 42.5345 98.4751 42.4438C98.8416 42.3495 99.2202 42.2815 99.6111 42.2396C100.082 42.1907 100.464 42.1471 100.758 42.1087C101.051 42.0668 101.264 42.004 101.396 41.9202C101.532 41.833 101.6 41.6986 101.6 41.5171V41.4857C101.6 41.0914 101.484 40.786 101.25 40.5696C101.016 40.3532 100.679 40.245 100.239 40.245C99.7751 40.245 99.4069 40.3462 99.1347 40.5487C98.866 40.7511 98.6845 40.9902 98.5903 41.2659L96.8208 41.0146C96.9604 40.526 97.1908 40.1176 97.5119 39.7896C97.8329 39.458 98.2256 39.2102 98.6897 39.0462C99.1539 38.8787 99.667 38.7949 100.229 38.7949C100.616 38.7949 101.002 38.8403 101.386 38.931C101.77 39.0218 102.12 39.1718 102.438 39.3812C102.756 39.5872 103.01 39.8681 103.202 40.2241C103.398 40.5801 103.496 41.0251 103.496 41.559V46.9407H101.674V45.8361H101.611C101.496 46.0594 101.333 46.2688 101.124 46.4643C100.918 46.6562 100.658 46.8115 100.344 46.9302C100.033 47.0454 99.6687 47.103 99.2499 47.103ZM99.742 45.7104C100.122 45.7104 100.452 45.6354 100.731 45.4853C101.011 45.3318 101.225 45.1293 101.375 44.8781C101.529 44.6268 101.606 44.3528 101.606 44.0562V43.1086C101.546 43.1575 101.445 43.2028 101.302 43.2447C101.162 43.2866 101.005 43.3232 100.831 43.3547C100.656 43.3861 100.484 43.414 100.313 43.4384C100.142 43.4628 99.9933 43.4838 99.8676 43.5012C99.5849 43.5396 99.3319 43.6024 99.1085 43.6897C98.8852 43.777 98.7089 43.8991 98.5798 44.0562C98.4507 44.2097 98.3861 44.4086 98.3861 44.653C98.3861 45.002 98.5135 45.2655 98.7683 45.4434C99.023 45.6214 99.3476 45.7104 99.742 45.7104ZM109.416 38.8996V40.3654H104.794V38.8996H109.416ZM105.935 36.9731H107.83V44.5221C107.83 44.7768 107.869 44.9723 107.945 45.1084C108.026 45.241 108.13 45.3318 108.259 45.3806C108.389 45.4295 108.532 45.4539 108.689 45.4539C108.807 45.4539 108.916 45.4452 109.013 45.4277C109.114 45.4103 109.191 45.3946 109.244 45.3806L109.563 46.8621C109.462 46.897 109.317 46.9354 109.128 46.9773C108.943 47.0192 108.717 47.0436 108.448 47.0506C107.973 47.0646 107.546 46.993 107.165 46.836C106.785 46.6754 106.483 46.4276 106.26 46.0926C106.04 45.7575 105.932 45.3387 105.935 44.8362V36.9731ZM114.658 46.9407V38.8996H116.553V46.9407H114.658ZM115.611 37.7584C115.311 37.7584 115.052 37.6589 114.836 37.46C114.62 37.2576 114.511 37.015 114.511 36.7323C114.511 36.4461 114.62 36.2036 114.836 36.0046C115.052 35.8022 115.311 35.701 115.611 35.701C115.914 35.701 116.173 35.8022 116.386 36.0046C116.602 36.2036 116.71 36.4461 116.71 36.7323C116.71 37.015 116.602 37.2576 116.386 37.46C116.173 37.6589 115.914 37.7584 115.611 37.7584ZM124.857 41.0251L123.13 41.2135C123.081 41.039 122.995 40.875 122.873 40.7214C122.754 40.5679 122.594 40.444 122.391 40.3497C122.189 40.2555 121.941 40.2084 121.648 40.2084C121.254 40.2084 120.922 40.2939 120.653 40.4649C120.388 40.6359 120.257 40.8575 120.261 41.1298C120.257 41.3636 120.343 41.5538 120.517 41.7004C120.695 41.847 120.988 41.9674 121.397 42.0616L122.768 42.3548C123.529 42.5188 124.095 42.7788 124.465 43.1348C124.838 43.4908 125.026 43.9567 125.03 44.5325C125.026 45.0386 124.878 45.4853 124.585 45.8727C124.295 46.2566 123.892 46.5568 123.376 46.7732C122.859 46.9895 122.266 47.0977 121.596 47.0977C120.612 47.0977 119.819 46.8918 119.219 46.48C118.619 46.0647 118.261 45.4871 118.146 44.7472L119.994 44.5692C120.078 44.9322 120.256 45.2061 120.528 45.3911C120.8 45.5761 121.154 45.6686 121.591 45.6686C122.041 45.6686 122.402 45.5761 122.674 45.3911C122.95 45.2061 123.088 44.9775 123.088 44.7053C123.088 44.475 122.999 44.2848 122.821 44.1347C122.646 43.9846 122.374 43.8694 122.004 43.7892L120.633 43.5012C119.861 43.3407 119.291 43.0702 118.921 42.6898C118.551 42.3059 118.367 41.8208 118.371 41.2345C118.367 40.7389 118.502 40.3096 118.774 39.9466C119.05 39.5802 119.432 39.2975 119.921 39.0986C120.413 38.8961 120.98 38.7949 121.622 38.7949C122.564 38.7949 123.306 38.9956 123.847 39.3969C124.391 39.7983 124.728 40.341 124.857 41.0251ZM130.333 46.9407V36.2193H132.275V45.3126H136.997V46.9407H130.333ZM138.683 36.2193H141.06L144.243 43.9881H144.368L147.551 36.2193H149.928V46.9407H148.064V39.5749H147.965L145.002 46.9093H143.609L140.646 39.5592H140.547V46.9407H138.683V36.2193ZM153.985 36.2193V46.9407H152.043V36.2193H153.985ZM157.465 46.9407H155.392L159.166 36.2193H161.564L165.344 46.9407H163.271L160.407 38.418H160.323L157.465 46.9407ZM157.533 42.7369H163.187V44.297H157.533V42.7369ZM172.643 47.103C172.133 47.103 171.674 47.0122 171.266 46.8307C170.861 46.6458 170.54 46.3735 170.303 46.0141C170.069 45.6546 169.952 45.2114 169.952 44.6844C169.952 44.2307 170.036 43.8555 170.203 43.5588C170.371 43.2622 170.599 43.0248 170.889 42.8469C171.179 42.6689 171.505 42.5345 171.868 42.4438C172.235 42.3495 172.613 42.2815 173.004 42.2396C173.475 42.1907 173.857 42.1471 174.151 42.1087C174.444 42.0668 174.657 42.004 174.789 41.9202C174.925 41.833 174.993 41.6986 174.993 41.5171V41.4857C174.993 41.0914 174.876 40.786 174.643 40.5696C174.409 40.3532 174.072 40.245 173.632 40.245C173.168 40.245 172.8 40.3462 172.528 40.5487C172.259 40.7511 172.077 40.9902 171.983 41.2659L170.214 41.0146C170.353 40.526 170.584 40.1176 170.905 39.7896C171.226 39.458 171.619 39.2102 172.083 39.0462C172.547 38.8787 173.06 38.7949 173.622 38.7949C174.009 38.7949 174.395 38.8403 174.779 38.931C175.163 39.0218 175.513 39.1718 175.831 39.3812C176.149 39.5872 176.403 39.8681 176.595 40.2241C176.791 40.5801 176.888 41.0251 176.888 41.559V46.9407H175.067V45.8361H175.004C174.889 46.0594 174.726 46.2688 174.517 46.4643C174.311 46.6562 174.051 46.8115 173.737 46.9302C173.426 47.0454 173.062 47.103 172.643 47.103ZM173.135 45.7104C173.515 45.7104 173.845 45.6354 174.124 45.4853C174.404 45.3318 174.618 45.1293 174.768 44.8781C174.922 44.6268 174.999 44.3528 174.999 44.0562V43.1086C174.939 43.1575 174.838 43.2028 174.695 43.2447C174.555 43.2866 174.398 43.3232 174.224 43.3547C174.049 43.3861 173.877 43.414 173.706 43.4384C173.535 43.4628 173.386 43.4838 173.261 43.5012C172.978 43.5396 172.725 43.6024 172.501 43.6897C172.278 43.777 172.102 43.8991 171.973 44.0562C171.844 44.2097 171.779 44.4086 171.779 44.653C171.779 45.002 171.906 45.2655 172.161 45.4434C172.416 45.6214 172.741 45.7104 173.135 45.7104ZM180.689 42.2291V46.9407H178.794V38.8996H180.605V40.266H180.7C180.885 39.8158 181.179 39.458 181.584 39.1928C181.993 38.9275 182.497 38.7949 183.097 38.7949C183.652 38.7949 184.136 38.9136 184.547 39.1509C184.963 39.3882 185.284 39.732 185.511 40.1822C185.741 40.6324 185.854 41.1786 185.851 41.8208V46.9407H183.956V42.1139C183.956 41.5765 183.816 41.1559 183.537 40.8523C183.261 40.5487 182.879 40.3968 182.391 40.3968C182.059 40.3968 181.764 40.4701 181.506 40.6167C181.251 40.7598 181.05 40.9675 180.904 41.2397C180.761 41.5119 180.689 41.8417 180.689 42.2291ZM190.761 47.082C190.13 47.082 189.564 46.9197 189.065 46.5952C188.566 46.2706 188.172 45.7994 187.882 45.1817C187.592 44.564 187.448 43.8136 187.448 42.9306C187.448 42.0372 187.594 41.2833 187.887 40.6691C188.184 40.0513 188.584 39.5854 189.086 39.2713C189.589 38.9537 190.149 38.7949 190.767 38.7949C191.238 38.7949 191.625 38.8752 191.929 39.0357C192.232 39.1928 192.473 39.383 192.651 39.6064C192.829 39.8262 192.967 40.0339 193.065 40.2293H193.143V36.2193H195.044V46.9407H193.18V45.6738H193.065C192.967 45.8692 192.826 46.0769 192.641 46.2968C192.456 46.5131 192.212 46.6981 191.908 46.8517C191.604 47.0052 191.222 47.082 190.761 47.082ZM191.29 45.5272C191.691 45.5272 192.034 45.419 192.316 45.2026C192.599 44.9828 192.814 44.6774 192.96 44.2865C193.107 43.8956 193.18 43.4402 193.18 42.9201C193.18 42.4001 193.107 41.9482 192.96 41.5643C192.817 41.1804 192.604 40.882 192.321 40.6691C192.042 40.4562 191.698 40.3497 191.29 40.3497C190.868 40.3497 190.515 40.4597 190.233 40.6795C189.95 40.8994 189.737 41.203 189.594 41.5904C189.451 41.9778 189.379 42.4211 189.379 42.9201C189.379 43.4227 189.451 43.8712 189.594 44.2656C189.741 44.6564 189.955 44.9653 190.238 45.1922C190.524 45.4155 190.875 45.5272 191.29 45.5272ZM202.379 46.9407L200.107 38.8996H202.039L203.452 44.5535H203.526L204.971 38.8996H206.881L208.326 44.5221H208.405L209.797 38.8996H211.734L209.457 46.9407H207.483L205.976 41.5067H205.866L204.358 46.9407H202.379ZM214.953 42.2291V46.9407H213.058V36.2193H214.911V40.266H215.005C215.193 39.8123 215.485 39.4545 215.879 39.1928C216.277 38.9275 216.783 38.7949 217.397 38.7949C217.956 38.7949 218.443 38.9118 218.858 39.1457C219.273 39.3795 219.594 39.7215 219.821 40.1717C220.052 40.622 220.167 41.1716 220.167 41.8208V46.9407H218.272V42.1139C218.272 41.573 218.132 41.1524 217.853 40.8523C217.577 40.5487 217.19 40.3968 216.691 40.3968C216.356 40.3968 216.055 40.4701 215.79 40.6167C215.528 40.7598 215.323 40.9675 215.172 41.2397C215.026 41.5119 214.953 41.8417 214.953 42.2291ZM222.988 49.9561C222.73 49.9561 222.491 49.9351 222.271 49.8932C222.055 49.8549 221.882 49.8095 221.753 49.7571L222.193 48.2808C222.468 48.3611 222.714 48.3995 222.931 48.396C223.147 48.3925 223.337 48.3245 223.501 48.1919C223.669 48.0627 223.81 47.8463 223.926 47.5427L224.088 47.1082L221.172 38.8996H223.182L225.035 44.9723H225.119L226.978 38.8996H228.993L225.773 47.9144C225.623 48.3402 225.424 48.7049 225.177 49.0085C224.929 49.3156 224.625 49.5495 224.266 49.71C223.91 49.8741 223.484 49.9561 222.988 49.9561ZM236.945 47.082C236.313 47.082 235.748 46.9197 235.249 46.5952C234.75 46.2706 234.356 45.7994 234.066 45.1817C233.776 44.564 233.631 43.8136 233.631 42.9306C233.631 42.0372 233.778 41.2833 234.071 40.6691C234.368 40.0513 234.767 39.5854 235.27 39.2713C235.772 38.9537 236.333 38.7949 236.95 38.7949C237.422 38.7949 237.809 38.8752 238.113 39.0357C238.416 39.1928 238.657 39.383 238.835 39.6064C239.013 39.8262 239.151 40.0339 239.249 40.2293H239.327V36.2193H241.227V46.9407H239.364V45.6738H239.249C239.151 45.8692 239.009 46.0769 238.825 46.2968C238.64 46.5131 238.395 46.6981 238.092 46.8517C237.788 47.0052 237.406 47.082 236.945 47.082ZM237.474 45.5272C237.875 45.5272 238.217 45.419 238.5 45.2026C238.783 44.9828 238.997 44.6774 239.144 44.2865C239.29 43.8956 239.364 43.4402 239.364 42.9201C239.364 42.4001 239.29 41.9482 239.144 41.5643C239.001 41.1804 238.788 40.882 238.505 40.6691C238.226 40.4562 237.882 40.3497 237.474 40.3497C237.052 40.3497 236.699 40.4597 236.416 40.6795C236.134 40.8994 235.921 41.203 235.778 41.5904C235.635 41.9778 235.563 42.4211 235.563 42.9201C235.563 43.4227 235.635 43.8712 235.778 44.2656C235.924 44.6564 236.139 44.9653 236.422 45.1922C236.708 45.4155 237.059 45.5272 237.474 45.5272ZM246.754 47.0977C245.969 47.0977 245.288 46.925 244.713 46.5795C244.137 46.2339 243.69 45.7506 243.372 45.1293C243.058 44.5081 242.901 43.7822 242.901 42.9516C242.901 42.1209 243.058 41.3933 243.372 40.7685C243.69 40.1438 244.137 39.6587 244.713 39.3132C245.288 38.9677 245.969 38.7949 246.754 38.7949C247.54 38.7949 248.22 38.9677 248.796 39.3132C249.372 39.6587 249.817 40.1438 250.131 40.7685C250.449 41.3933 250.607 42.1209 250.607 42.9516C250.607 43.7822 250.449 44.5081 250.131 45.1293C249.817 45.7506 249.372 46.2339 248.796 46.5795C248.22 46.925 247.54 47.0977 246.754 47.0977ZM246.765 45.5796C247.191 45.5796 247.547 45.4626 247.833 45.2288C248.119 44.9915 248.332 44.6739 248.471 44.276C248.615 43.8782 248.686 43.4349 248.686 42.9463C248.686 42.4542 248.615 42.0092 248.471 41.6114C248.332 41.21 248.119 40.8907 247.833 40.6534C247.547 40.416 247.191 40.2974 246.765 40.2974C246.329 40.2974 245.966 40.416 245.676 40.6534C245.39 40.8907 245.175 41.21 245.032 41.6114C244.892 42.0092 244.823 42.4542 244.823 42.9463C244.823 43.4349 244.892 43.8782 245.032 44.276C245.175 44.6739 245.39 44.9915 245.676 45.2288C245.966 45.4626 246.329 45.5796 246.765 45.5796ZM257.898 36.2193V46.9407H255.956V36.2193H257.898ZM265.47 42.2291V46.9407H263.575V38.8996H265.386V40.266H265.48C265.665 39.8158 265.96 39.458 266.365 39.1928C266.773 38.9275 267.278 38.7949 267.878 38.7949C268.433 38.7949 268.916 38.9136 269.328 39.1509C269.743 39.3882 270.064 39.732 270.291 40.1822C270.521 40.6324 270.635 41.1786 270.631 41.8208V46.9407H268.736V42.1139C268.736 41.5765 268.597 41.1559 268.318 40.8523C268.042 40.5487 267.66 40.3968 267.171 40.3968C266.84 40.3968 266.545 40.4701 266.286 40.6167C266.032 40.7598 265.831 40.9675 265.684 41.2397C265.541 41.5119 265.47 41.8417 265.47 42.2291ZM276.118 47.0977C275.312 47.0977 274.615 46.9302 274.029 46.5952C273.446 46.2566 272.998 45.7785 272.684 45.1608C272.369 44.5395 272.212 43.8084 272.212 42.9673C272.212 42.1401 272.369 41.4142 272.684 40.7895C273.001 40.1613 273.444 39.6727 274.013 39.3237C274.582 38.9712 275.251 38.7949 276.018 38.7949C276.514 38.7949 276.982 38.8752 277.421 39.0357C277.865 39.1928 278.255 39.4371 278.594 39.7686C278.936 40.1002 279.205 40.5225 279.4 41.0355C279.596 41.5451 279.693 42.1523 279.693 42.8573V43.4384H273.102V42.1611H277.877C277.873 41.7981 277.795 41.4753 277.641 41.1926C277.488 40.9064 277.273 40.6813 276.997 40.5173C276.725 40.3532 276.407 40.2712 276.044 40.2712C275.657 40.2712 275.317 40.3654 275.024 40.5539C274.73 40.7389 274.502 40.9832 274.338 41.2868C274.177 41.587 274.095 41.9168 274.092 42.2762V43.3913C274.092 43.859 274.177 44.2603 274.348 44.5954C274.519 44.9269 274.758 45.1817 275.066 45.3597C275.373 45.5342 275.732 45.6214 276.144 45.6214C276.42 45.6214 276.669 45.583 276.893 45.5063C277.116 45.426 277.31 45.3091 277.474 45.1555C277.638 45.002 277.762 44.8117 277.845 44.5849L279.615 44.7838C279.503 45.2515 279.29 45.6598 278.976 46.0088C278.666 46.3543 278.268 46.6231 277.783 46.815C277.297 47.0035 276.742 47.0977 276.118 47.0977ZM284.856 47.0977C284.05 47.0977 283.354 46.9302 282.768 46.5952C282.185 46.2566 281.736 45.7785 281.422 45.1608C281.108 44.5395 280.951 43.8084 280.951 42.9673C280.951 42.1401 281.108 41.4142 281.422 40.7895C281.74 40.1613 282.183 39.6727 282.752 39.3237C283.321 38.9712 283.989 38.7949 284.757 38.7949C285.253 38.7949 285.72 38.8752 286.16 39.0357C286.603 39.1928 286.994 39.4371 287.333 39.7686C287.675 40.1002 287.943 40.5225 288.139 41.0355C288.334 41.5451 288.432 42.1523 288.432 42.8573V43.4384H281.841V42.1611H286.615C286.612 41.7981 286.533 41.4753 286.38 41.1926C286.226 40.9064 286.012 40.6813 285.736 40.5173C285.464 40.3532 285.146 40.2712 284.783 40.2712C284.396 40.2712 284.055 40.3654 283.762 40.5539C283.469 40.7389 283.241 40.9832 283.076 41.2868C282.916 41.587 282.834 41.9168 282.83 42.2762V43.3913C282.83 43.859 282.916 44.2603 283.087 44.5954C283.258 44.9269 283.497 45.1817 283.804 45.3597C284.111 45.5342 284.471 45.6214 284.883 45.6214C285.158 45.6214 285.408 45.583 285.631 45.5063C285.855 45.426 286.048 45.3091 286.212 45.1555C286.376 45.002 286.5 44.8117 286.584 44.5849L288.353 44.7838C288.242 45.2515 288.029 45.6598 287.715 46.0088C287.404 46.3543 287.006 46.6231 286.521 46.815C286.036 47.0035 285.481 47.0977 284.856 47.0977ZM293.019 47.082C292.387 47.082 291.822 46.9197 291.323 46.5952C290.824 46.2706 290.43 45.7994 290.14 45.1817C289.85 44.564 289.705 43.8136 289.705 42.9306C289.705 42.0372 289.852 41.2833 290.145 40.6691C290.442 40.0513 290.841 39.5854 291.344 39.2713C291.847 38.9537 292.407 38.7949 293.024 38.7949C293.496 38.7949 293.883 38.8752 294.187 39.0357C294.49 39.1928 294.731 39.383 294.909 39.6064C295.087 39.8262 295.225 40.0339 295.323 40.2293H295.401V36.2193H297.301V46.9407H295.438V45.6738H295.323C295.225 45.8692 295.084 46.0769 294.899 46.2968C294.714 46.5131 294.469 46.6981 294.166 46.8517C293.862 47.0052 293.48 47.082 293.019 47.082ZM293.548 45.5272C293.949 45.5272 294.291 45.419 294.574 45.2026C294.857 44.9828 295.071 44.6774 295.218 44.2865C295.364 43.8956 295.438 43.4402 295.438 42.9201C295.438 42.4001 295.364 41.9482 295.218 41.5643C295.075 41.1804 294.862 40.882 294.579 40.6691C294.3 40.4562 293.956 40.3497 293.548 40.3497C293.126 40.3497 292.773 40.4597 292.49 40.6795C292.208 40.8994 291.995 41.203 291.852 41.5904C291.709 41.9778 291.637 42.4211 291.637 42.9201C291.637 43.4227 291.709 43.8712 291.852 44.2656C291.998 44.6564 292.213 44.9653 292.496 45.1922C292.782 45.4155 293.133 45.5272 293.548 45.5272ZM302.978 46.9407V38.8996H304.873V46.9407H302.978ZM303.93 37.7584C303.63 37.7584 303.372 37.6589 303.156 37.46C302.939 37.2576 302.831 37.015 302.831 36.7323C302.831 36.4461 302.939 36.2036 303.156 36.0046C303.372 35.8022 303.63 35.701 303.93 35.701C304.234 35.701 304.492 35.8022 304.705 36.0046C304.922 36.2036 305.03 36.4461 305.03 36.7323C305.03 37.015 304.922 37.2576 304.705 37.46C304.492 37.6589 304.234 37.7584 303.93 37.7584ZM310.837 38.8996V40.3654H306.214V38.8996H310.837ZM307.355 36.9731H309.25V44.5221C309.25 44.7768 309.289 44.9723 309.366 45.1084C309.446 45.241 309.551 45.3318 309.68 45.3806C309.809 45.4295 309.952 45.4539 310.109 45.4539C310.228 45.4539 310.336 45.4452 310.434 45.4277C310.535 45.4103 310.612 45.3946 310.664 45.3806L310.983 46.8621C310.882 46.897 310.737 46.9354 310.549 46.9773C310.364 47.0192 310.137 47.0436 309.868 47.0506C309.394 47.0646 308.966 46.993 308.586 46.836C308.205 46.6754 307.903 46.4276 307.68 46.0926C307.46 45.7575 307.352 45.3387 307.355 44.8362V36.9731ZM314.233 43.7892V43.6531C314.236 43.0214 314.296 42.5188 314.411 42.1454C314.53 41.7719 314.697 41.4718 314.914 41.2449C315.13 41.0146 315.393 40.8034 315.704 40.6115C315.917 40.4789 316.107 40.334 316.275 40.177C316.446 40.0164 316.58 39.8384 316.678 39.643C316.775 39.4441 316.824 39.2224 316.824 38.9781C316.824 38.7024 316.76 38.4634 316.631 38.2609C316.501 38.0585 316.327 37.9015 316.107 37.7898C315.891 37.6781 315.648 37.6223 315.379 37.6223C315.132 37.6223 314.896 37.6764 314.673 37.7846C314.453 37.8893 314.27 38.0498 314.123 38.2662C313.98 38.4791 313.9 38.7495 313.882 39.0776H312.019C312.036 38.4145 312.197 37.8596 312.5 37.4129C312.807 36.9661 313.212 36.6311 313.715 36.4077C314.221 36.1844 314.779 36.0727 315.39 36.0727C316.057 36.0727 316.643 36.1896 317.149 36.4234C317.658 36.6573 318.055 36.9906 318.337 37.4233C318.623 37.8526 318.767 38.3622 318.767 38.952C318.767 39.3498 318.702 39.7058 318.573 40.0199C318.447 40.334 318.267 40.6132 318.034 40.8575C317.8 41.1018 317.522 41.32 317.201 41.5119C316.919 41.6864 316.686 41.8679 316.505 42.0564C316.327 42.2448 316.194 42.4664 316.107 42.7212C316.023 42.9725 315.98 43.2831 315.976 43.6531V43.7892H314.233ZM315.144 47.0558C314.83 47.0558 314.559 46.9442 314.332 46.7208C314.106 46.4974 313.992 46.2252 313.992 45.9041C313.992 45.59 314.106 45.3213 314.332 45.0979C314.559 44.8746 314.83 44.7629 315.144 44.7629C315.454 44.7629 315.723 44.8746 315.95 45.0979C316.18 45.3213 316.296 45.59 316.296 45.9041C316.296 46.117 316.241 46.3107 316.133 46.4852C316.029 46.6597 315.889 46.7993 315.714 46.904C315.543 47.0052 315.353 47.0558 315.144 47.0558Z" fill="#1B1139"/>
<rect opacity="0.8" x="45.8701" y="38.9023" width="14.7419" height="2.45699" rx="1.22849" fill="#1B1139"/>
<rect opacity="0.8" x="54.4702" y="32.7598" width="14.7419" height="2.45699" rx="1.22849" transform="rotate(90 54.4702 32.7598)" fill="#1B1139"/>
<defs>
<filter id="filter0_d_160_362" x="0.000139236" y="0" width="486.497" height="116.76" filterUnits="userSpaceOnUse" color-interpolation-filters="sRGB">
<feFlood flood-opacity="0" result="BackgroundImageFix"/>
<feColorMatrix in="SourceAlpha" type="matrix" values="0 0 0 0 0 0 0 0 0 0 0 0 0 0 0 0 0 0 127 0" result="hardAlpha"/>
<feMorphology radius="12.0669" operator="erode" in="SourceAlpha" result="effect1_dropShadow_160_362"/>
<feOffset dy="20.1114"/>
<feGaussianBlur stdDeviation="13.4076"/>
<feColorMatrix type="matrix" values="0 0 0 0 0.583333 0 0 0 0 0.583333 0 0 0 0 0.583333 0 0 0 0.25 0"/>
<feBlend mode="normal" in2="BackgroundImageFix" result="effect1_dropShadow_160_362"/>
<feBlend mode="normal" in="SourceGraphic" in2="effect1_dropShadow_160_362" result="shape"/>
</filter>
</defs>
</svg>
