<svg width="277" height="19" viewBox="0 0 277 19" fill="none" xmlns="http://www.w3.org/2000/svg">
<path opacity="0.88" d="M29.5223 15L26.4964 4.27859H28.5852L30.517 12.1574H30.6164L32.679 4.27859H34.5794L36.6472 12.1626H36.7414L38.6732 4.27859H40.762L37.7361 15H35.8201L33.6737 7.47722H33.5899L31.4383 15H29.5223ZM43.92 10.2884V15H42.0249V4.27859H43.8781V8.3253H43.9724C44.1608 7.87159 44.4523 7.51386 44.8466 7.25211C45.2445 6.98687 45.7505 6.85424 46.3648 6.85424C46.9232 6.85424 47.4101 6.97116 47.8254 7.20499C48.2407 7.43882 48.5618 7.78085 48.7886 8.23106C49.019 8.68128 49.1341 9.23096 49.1341 9.88011V15H47.239V10.1733C47.239 9.63232 47.0994 9.21177 46.8202 8.91162C46.5445 8.60799 46.1571 8.45617 45.6581 8.45617C45.323 8.45617 45.0229 8.52946 44.7576 8.67604C44.4959 8.81914 44.29 9.02679 44.1399 9.29902C43.9933 9.57124 43.92 9.90105 43.92 10.2884ZM53.3798 15.1623C52.8702 15.1623 52.4113 15.0715 52.003 14.8901C51.5981 14.7051 51.277 14.4329 51.0397 14.0734C50.8059 13.7139 50.689 13.2707 50.689 12.7437C50.689 12.29 50.7727 11.9148 50.9402 11.6181C51.1078 11.3215 51.3364 11.0842 51.626 10.9062C51.9157 10.7282 52.242 10.5938 52.605 10.5031C52.9714 10.4089 53.3501 10.3408 53.741 10.2989C54.2122 10.2501 54.5943 10.2064 54.8875 10.168C55.1806 10.1262 55.3935 10.0633 55.5262 9.97958C55.6623 9.89232 55.7303 9.75796 55.7303 9.57648V9.54507C55.7303 9.15069 55.6134 8.84531 55.3796 8.62893C55.1457 8.41255 54.8089 8.30436 54.3692 8.30436C53.905 8.30436 53.5368 8.40557 53.2646 8.60799C52.9959 8.81041 52.8144 9.04948 52.7202 9.32519L50.9507 9.07391C51.0903 8.5853 51.3207 8.17697 51.6417 7.8489C51.9628 7.51735 52.3554 7.26956 52.8196 7.10553C53.2838 6.938 53.7968 6.85424 54.3587 6.85424C54.7461 6.85424 55.1318 6.89961 55.5157 6.99035C55.8996 7.0811 56.2503 7.23117 56.5679 7.44057C56.8855 7.64648 57.1403 7.92743 57.3322 8.28342C57.5277 8.6394 57.6254 9.08438 57.6254 9.61836V15H55.8036V13.8954H55.7408C55.6256 14.1188 55.4633 14.3282 55.2539 14.5236C55.048 14.7156 54.788 14.8709 54.4739 14.9895C54.1633 15.1047 53.7986 15.1623 53.3798 15.1623ZM53.8719 13.7698C54.2523 13.7698 54.5821 13.6947 54.8613 13.5447C55.1405 13.3911 55.3551 13.1887 55.5052 12.9374C55.6588 12.6861 55.7356 12.4121 55.7356 12.1155V11.1679C55.6762 11.2168 55.575 11.2622 55.4319 11.304C55.2923 11.3459 55.1353 11.3826 54.9608 11.414C54.7863 11.4454 54.6135 11.4733 54.4425 11.4977C54.2715 11.5222 54.1232 11.5431 53.9975 11.5606C53.7148 11.599 53.4618 11.6618 53.2384 11.749C53.0151 11.8363 52.8388 11.9584 52.7097 12.1155C52.5806 12.269 52.516 12.468 52.516 12.7123C52.516 13.0613 52.6434 13.3248 52.8982 13.5028C53.1529 13.6808 53.4775 13.7698 53.8719 13.7698ZM63.5463 6.95894V8.42476H58.9237V6.95894H63.5463ZM60.0649 5.03244H61.96V12.5814C61.96 12.8362 61.9984 13.0316 62.0752 13.1677C62.1555 13.3003 62.2602 13.3911 62.3893 13.44C62.5184 13.4888 62.6615 13.5132 62.8186 13.5132C62.9373 13.5132 63.0454 13.5045 63.1432 13.4871C63.2444 13.4696 63.3212 13.4539 63.3735 13.44L63.6928 14.9215C63.5916 14.9564 63.4468 14.9948 63.2583 15.0366C63.0734 15.0785 62.8465 15.103 62.5778 15.1099C62.1031 15.1239 61.6756 15.0524 61.2952 14.8953C60.9148 14.7348 60.6129 14.487 60.3895 14.1519C60.1697 13.8169 60.0615 13.3981 60.0649 12.8955V5.03244ZM68.7879 15V6.95894H70.683V15H68.7879ZM69.7407 5.8177C69.4405 5.8177 69.1822 5.71823 68.9659 5.5193C68.7495 5.31688 68.6413 5.07432 68.6413 4.79163C68.6413 4.50545 68.7495 4.26289 68.9659 4.06395C69.1822 3.86153 69.4405 3.76032 69.7407 3.76032C70.0443 3.76032 70.3026 3.86153 70.5154 4.06395C70.7318 4.26289 70.84 4.50545 70.84 4.79163C70.84 5.07432 70.7318 5.31688 70.5154 5.5193C70.3026 5.71823 70.0443 5.8177 69.7407 5.8177ZM78.9871 9.08438L77.2595 9.27284C77.2107 9.09834 77.1251 8.93431 77.003 8.78075C76.8843 8.62718 76.7238 8.50329 76.5214 8.40906C76.3189 8.31483 76.0712 8.26771 75.778 8.26771C75.3836 8.26771 75.0521 8.35322 74.7833 8.52423C74.5181 8.69524 74.3872 8.91686 74.3907 9.18908C74.3872 9.42291 74.4727 9.61312 74.6472 9.7597C74.8252 9.90628 75.1184 10.0267 75.5267 10.1209L76.8983 10.4141C77.6591 10.5781 78.2245 10.8381 78.5945 11.1941C78.9679 11.5501 79.1564 12.016 79.1598 12.5919C79.1564 13.0979 79.008 13.5447 78.7149 13.932C78.4252 14.316 78.0221 14.6161 77.5056 14.8325C76.989 15.0489 76.3957 15.1571 75.7256 15.1571C74.7414 15.1571 73.9492 14.9511 73.3489 14.5393C72.7486 14.124 72.3909 13.5464 72.2757 12.8065L74.1237 12.6285C74.2075 12.9915 74.3855 13.2654 74.6577 13.4504C74.9299 13.6354 75.2842 13.7279 75.7204 13.7279C76.1706 13.7279 76.5318 13.6354 76.8041 13.4504C77.0798 13.2654 77.2176 13.0369 77.2176 12.7646C77.2176 12.5343 77.1286 12.3441 76.9506 12.194C76.7761 12.0439 76.5039 11.9288 76.134 11.8485L74.7624 11.5606C73.9911 11.4 73.4205 11.1295 73.0505 10.7491C72.6806 10.3652 72.4974 9.88011 72.5008 9.29378C72.4974 8.7982 72.6317 8.36892 72.9039 8.00596C73.1797 7.6395 73.5618 7.35681 74.0504 7.15788C74.5425 6.95545 75.1096 6.85424 75.7518 6.85424C76.6941 6.85424 77.4358 7.05492 77.9767 7.45628C78.5212 7.85763 78.858 8.40033 78.9871 9.08438ZM84.463 15V4.27859H86.4052V13.3719H91.1272V15H84.463ZM92.8129 4.27859H95.1896L98.3725 12.0474H98.4982L101.681 4.27859H104.058V15H102.194V7.63427H102.095L99.1316 14.9686H97.7391L94.776 7.61856H94.6766V15H92.8129V4.27859ZM108.115 4.27859V15H106.173V4.27859H108.115ZM111.595 15H109.522L113.296 4.27859H115.694L119.474 15H117.401L114.537 6.47732H114.453L111.595 15ZM111.663 10.7962H117.317V12.3563H111.663V10.7962ZM126.773 15.1623C126.263 15.1623 125.804 15.0715 125.396 14.8901C124.991 14.7051 124.67 14.4329 124.433 14.0734C124.199 13.7139 124.082 13.2707 124.082 12.7437C124.082 12.29 124.166 11.9148 124.333 11.6181C124.501 11.3215 124.729 11.0842 125.019 10.9062C125.309 10.7282 125.635 10.5938 125.998 10.5031C126.364 10.4089 126.743 10.3408 127.134 10.2989C127.605 10.2501 127.987 10.2064 128.28 10.168C128.574 10.1262 128.786 10.0633 128.919 9.97958C129.055 9.89232 129.123 9.75796 129.123 9.57648V9.54507C129.123 9.15069 129.006 8.84531 128.773 8.62893C128.539 8.41255 128.202 8.30436 127.762 8.30436C127.298 8.30436 126.93 8.40557 126.658 8.60799C126.389 8.81041 126.207 9.04948 126.113 9.32519L124.344 9.07391C124.483 8.5853 124.714 8.17697 125.035 7.8489C125.356 7.51735 125.748 7.26956 126.213 7.10553C126.677 6.938 127.19 6.85424 127.752 6.85424C128.139 6.85424 128.525 6.89961 128.909 6.99035C129.293 7.0811 129.643 7.23117 129.961 7.44057C130.278 7.64648 130.533 7.92743 130.725 8.28342C130.921 8.6394 131.018 9.08438 131.018 9.61836V15H129.197V13.8954H129.134C129.019 14.1188 128.856 14.3282 128.647 14.5236C128.441 14.7156 128.181 14.8709 127.867 14.9895C127.556 15.1047 127.192 15.1623 126.773 15.1623ZM127.265 13.7698C127.645 13.7698 127.975 13.6947 128.254 13.5447C128.533 13.3911 128.748 13.1887 128.898 12.9374C129.052 12.6861 129.129 12.4121 129.129 12.1155V11.1679C129.069 11.2168 128.968 11.2622 128.825 11.304C128.685 11.3459 128.528 11.3826 128.354 11.414C128.179 11.4454 128.006 11.4733 127.835 11.4977C127.664 11.5222 127.516 11.5431 127.39 11.5606C127.108 11.599 126.855 11.6618 126.631 11.749C126.408 11.8363 126.232 11.9584 126.103 12.1155C125.974 12.269 125.909 12.468 125.909 12.7123C125.909 13.0613 126.036 13.3248 126.291 13.5028C126.546 13.6808 126.87 13.7698 127.265 13.7698ZM134.819 10.2884V15H132.924V6.95894H134.735V8.3253H134.829C135.014 7.87508 135.309 7.51735 135.714 7.25211C136.123 6.98687 136.627 6.85424 137.227 6.85424C137.782 6.85424 138.265 6.9729 138.677 7.21023C139.093 7.44755 139.414 7.79132 139.641 8.24153C139.871 8.69175 139.984 9.23794 139.981 9.88011V15H138.086V10.1733C138.086 9.63581 137.946 9.21526 137.667 8.91162C137.391 8.60799 137.009 8.45617 136.52 8.45617C136.189 8.45617 135.894 8.52946 135.636 8.67604C135.381 8.81914 135.18 9.02679 135.034 9.29902C134.891 9.57124 134.819 9.90105 134.819 10.2884ZM144.891 15.1413C144.26 15.1413 143.694 14.9791 143.195 14.6545C142.696 14.3299 142.302 13.8588 142.012 13.241C141.722 12.6233 141.577 11.8729 141.577 10.9899C141.577 10.0965 141.724 9.34264 142.017 8.7284C142.314 8.11066 142.713 7.64474 143.216 7.33063C143.719 7.01304 144.279 6.85424 144.897 6.85424C145.368 6.85424 145.755 6.93451 146.059 7.09506C146.362 7.25211 146.603 7.44232 146.781 7.66568C146.959 7.88555 147.097 8.09321 147.195 8.28865H147.273V4.27859H149.174V15H147.31V13.7331H147.195C147.097 13.9286 146.956 14.1362 146.771 14.3561C146.586 14.5725 146.341 14.7574 146.038 14.911C145.734 15.0646 145.352 15.1413 144.891 15.1413ZM145.42 13.5865C145.821 13.5865 146.163 13.4783 146.446 13.262C146.729 13.0421 146.943 12.7367 147.09 12.3458C147.237 11.9549 147.31 11.4995 147.31 10.9795C147.31 10.4595 147.237 10.0075 147.09 9.62359C146.947 9.23969 146.734 8.94129 146.451 8.7284C146.172 8.5155 145.828 8.40906 145.42 8.40906C144.998 8.40906 144.645 8.51899 144.363 8.73887C144.08 8.95874 143.867 9.26237 143.724 9.64977C143.581 10.0372 143.509 10.4804 143.509 10.9795C143.509 11.482 143.581 11.9305 143.724 12.3249C143.87 12.7158 144.085 13.0246 144.368 13.2515C144.654 13.4749 145.005 13.5865 145.42 13.5865ZM156.509 15L154.237 6.95894H156.169L157.582 12.6128H157.656L159.101 6.95894H161.011L162.456 12.5814H162.535L163.927 6.95894H165.864L163.587 15H161.613L160.106 9.56601H159.996L158.488 15H156.509ZM169.082 10.2884V15H167.187V4.27859H169.041V8.3253H169.135C169.323 7.87159 169.615 7.51386 170.009 7.25211C170.407 6.98687 170.913 6.85424 171.527 6.85424C172.086 6.85424 172.573 6.97116 172.988 7.20499C173.403 7.43882 173.724 7.78085 173.951 8.23106C174.181 8.68128 174.297 9.23096 174.297 9.88011V15H172.402V10.1733C172.402 9.63232 172.262 9.21177 171.983 8.91162C171.707 8.60799 171.32 8.45617 170.821 8.45617C170.485 8.45617 170.185 8.52946 169.92 8.67604C169.658 8.81914 169.452 9.02679 169.302 9.29902C169.156 9.57124 169.082 9.90105 169.082 10.2884ZM177.118 18.0154C176.86 18.0154 176.621 17.9945 176.401 17.9526C176.185 17.9142 176.012 17.8688 175.883 17.8165L176.323 16.3402C176.598 16.4204 176.844 16.4588 177.061 16.4553C177.277 16.4519 177.467 16.3838 177.631 16.2512C177.799 16.122 177.94 15.9057 178.055 15.602L178.218 15.1675L175.302 6.95894H177.312L179.165 13.0316H179.249L181.107 6.95894H183.123L179.903 15.9737C179.753 16.3995 179.554 16.7642 179.307 17.0678C179.059 17.375 178.755 17.6088 178.396 17.7693C178.04 17.9334 177.614 18.0154 177.118 18.0154ZM191.075 15.1413C190.443 15.1413 189.878 14.9791 189.379 14.6545C188.88 14.3299 188.485 13.8588 188.196 13.241C187.906 12.6233 187.761 11.8729 187.761 10.9899C187.761 10.0965 187.908 9.34264 188.201 8.7284C188.498 8.11066 188.897 7.64474 189.4 7.33063C189.902 7.01304 190.462 6.85424 191.08 6.85424C191.551 6.85424 191.939 6.93451 192.242 7.09506C192.546 7.25211 192.787 7.44232 192.965 7.66568C193.143 7.88555 193.281 8.09321 193.378 8.28865H193.457V4.27859H195.357V15H193.494V13.7331H193.378C193.281 13.9286 193.139 14.1362 192.954 14.3561C192.769 14.5725 192.525 14.7574 192.221 14.911C191.918 15.0646 191.536 15.1413 191.075 15.1413ZM191.604 13.5865C192.005 13.5865 192.347 13.4783 192.63 13.262C192.913 13.0421 193.127 12.7367 193.274 12.3458C193.42 11.9549 193.494 11.4995 193.494 10.9795C193.494 10.4595 193.42 10.0075 193.274 9.62359C193.131 9.23969 192.918 8.94129 192.635 8.7284C192.356 8.5155 192.012 8.40906 191.604 8.40906C191.181 8.40906 190.829 8.51899 190.546 8.73887C190.264 8.95874 190.051 9.26237 189.908 9.64977C189.764 10.0372 189.693 10.4804 189.693 10.9795C189.693 11.482 189.764 11.9305 189.908 12.3249C190.054 12.7158 190.269 13.0246 190.551 13.2515C190.838 13.4749 191.188 13.5865 191.604 13.5865ZM200.884 15.1571C200.099 15.1571 199.418 14.9843 198.843 14.6388C198.267 14.2933 197.82 13.8099 197.502 13.1887C197.188 12.5674 197.031 11.8415 197.031 11.0109C197.031 10.1803 197.188 9.45258 197.502 8.82786C197.82 8.20314 198.267 7.71803 198.843 7.37251C199.418 7.027 200.099 6.85424 200.884 6.85424C201.669 6.85424 202.35 7.027 202.926 7.37251C203.502 7.71803 203.947 8.20314 204.261 8.82786C204.578 9.45258 204.737 10.1803 204.737 11.0109C204.737 11.8415 204.578 12.5674 204.261 13.1887C203.947 13.8099 203.502 14.2933 202.926 14.6388C202.35 14.9843 201.669 15.1571 200.884 15.1571ZM200.895 13.6389C201.32 13.6389 201.676 13.522 201.963 13.2881C202.249 13.0508 202.462 12.7332 202.601 12.3354C202.744 11.9375 202.816 11.4943 202.816 11.0056C202.816 10.5136 202.744 10.0686 202.601 9.67071C202.462 9.26935 202.249 8.95001 201.963 8.71269C201.676 8.47537 201.32 8.35671 200.895 8.35671C200.458 8.35671 200.095 8.47537 199.806 8.71269C199.52 8.95001 199.305 9.26935 199.162 9.67071C199.022 10.0686 198.952 10.5136 198.952 11.0056C198.952 11.4943 199.022 11.9375 199.162 12.3354C199.305 12.7332 199.52 13.0508 199.806 13.2881C200.095 13.522 200.458 13.6389 200.895 13.6389ZM212.028 4.27859V15H210.086V4.27859H212.028ZM219.6 10.2884V15H217.704V6.95894H219.516V8.3253H219.61C219.795 7.87508 220.09 7.51735 220.495 7.25211C220.903 6.98687 221.407 6.85424 222.008 6.85424C222.563 6.85424 223.046 6.9729 223.458 7.21023C223.873 7.44755 224.194 7.79132 224.421 8.24153C224.651 8.69175 224.765 9.23794 224.761 9.88011V15H222.866V10.1733C222.866 9.63581 222.727 9.21526 222.447 8.91162C222.172 8.60799 221.79 8.45617 221.301 8.45617C220.969 8.45617 220.674 8.52946 220.416 8.67604C220.161 8.81914 219.961 9.02679 219.814 9.29902C219.671 9.57124 219.6 9.90105 219.6 10.2884ZM230.248 15.1571C229.441 15.1571 228.745 14.9895 228.159 14.6545C227.576 14.316 227.128 13.8378 226.813 13.2201C226.499 12.5989 226.342 11.8677 226.342 11.0266C226.342 10.1994 226.499 9.47352 226.813 8.8488C227.131 8.22059 227.574 7.73199 228.143 7.38298C228.712 7.03049 229.38 6.85424 230.148 6.85424C230.644 6.85424 231.111 6.93451 231.551 7.09506C231.994 7.25211 232.385 7.49641 232.724 7.82796C233.066 8.15952 233.335 8.58181 233.53 9.09485C233.725 9.6044 233.823 10.2117 233.823 10.9167V11.4977H227.232V10.2204H232.007C232.003 9.85742 231.925 9.53459 231.771 9.2519C231.618 8.96572 231.403 8.74061 231.127 8.57658C230.855 8.41255 230.537 8.33053 230.174 8.33053C229.787 8.33053 229.447 8.42476 229.154 8.61322C228.86 8.7982 228.632 9.0425 228.468 9.34613C228.307 9.64628 228.225 9.97609 228.222 10.3356V11.4506C228.222 11.9183 228.307 12.3196 228.478 12.6547C228.649 12.9862 228.888 13.241 229.195 13.419C229.503 13.5935 229.862 13.6808 230.274 13.6808C230.55 13.6808 230.799 13.6424 231.022 13.5656C231.246 13.4853 231.44 13.3684 231.604 13.2148C231.768 13.0613 231.891 12.8711 231.975 12.6442L233.745 12.8432C233.633 13.3108 233.42 13.7192 233.106 14.0682C232.795 14.4137 232.398 14.6824 231.912 14.8744C231.427 15.0628 230.872 15.1571 230.248 15.1571ZM238.986 15.1571C238.18 15.1571 237.484 14.9895 236.898 14.6545C236.315 14.316 235.866 13.8378 235.552 13.2201C235.238 12.5989 235.081 11.8677 235.081 11.0266C235.081 10.1994 235.238 9.47352 235.552 8.8488C235.87 8.22059 236.313 7.73199 236.882 7.38298C237.451 7.03049 238.119 6.85424 238.887 6.85424C239.382 6.85424 239.85 6.93451 240.29 7.09506C240.733 7.25211 241.124 7.49641 241.462 7.82796C241.805 8.15952 242.073 8.58181 242.269 9.09485C242.464 9.6044 242.562 10.2117 242.562 10.9167V11.4977H235.971V10.2204H240.745C240.742 9.85742 240.663 9.53459 240.51 9.2519C240.356 8.96572 240.141 8.74061 239.866 8.57658C239.594 8.41255 239.276 8.33053 238.913 8.33053C238.526 8.33053 238.185 8.42476 237.892 8.61322C237.599 8.7982 237.37 9.0425 237.206 9.34613C237.046 9.64628 236.964 9.97609 236.96 10.3356V11.4506C236.96 11.9183 237.046 12.3196 237.217 12.6547C237.388 12.9862 237.627 13.241 237.934 13.419C238.241 13.5935 238.601 13.6808 239.012 13.6808C239.288 13.6808 239.538 13.6424 239.761 13.5656C239.984 13.4853 240.178 13.3684 240.342 13.2148C240.506 13.0613 240.63 12.8711 240.714 12.6442L242.483 12.8432C242.372 13.3108 242.159 13.7192 241.845 14.0682C241.534 14.4137 241.136 14.6824 240.651 14.8744C240.166 15.0628 239.611 15.1571 238.986 15.1571ZM247.149 15.1413C246.517 15.1413 245.952 14.9791 245.453 14.6545C244.954 14.3299 244.559 13.8588 244.27 13.241C243.98 12.6233 243.835 11.8729 243.835 10.9899C243.835 10.0965 243.982 9.34264 244.275 8.7284C244.572 8.11066 244.971 7.64474 245.474 7.33063C245.976 7.01304 246.537 6.85424 247.154 6.85424C247.625 6.85424 248.013 6.93451 248.316 7.09506C248.62 7.25211 248.861 7.44232 249.039 7.66568C249.217 7.88555 249.355 8.09321 249.452 8.28865H249.531V4.27859H251.431V15H249.568V13.7331H249.452C249.355 13.9286 249.213 14.1362 249.028 14.3561C248.843 14.5725 248.599 14.7574 248.296 14.911C247.992 15.0646 247.61 15.1413 247.149 15.1413ZM247.678 13.5865C248.079 13.5865 248.421 13.4783 248.704 13.262C248.987 13.0421 249.201 12.7367 249.348 12.3458C249.494 11.9549 249.568 11.4995 249.568 10.9795C249.568 10.4595 249.494 10.0075 249.348 9.62359C249.205 9.23969 248.992 8.94129 248.709 8.7284C248.43 8.5155 248.086 8.40906 247.678 8.40906C247.255 8.40906 246.903 8.51899 246.62 8.73887C246.338 8.95874 246.125 9.26237 245.982 9.64977C245.839 10.0372 245.767 10.4804 245.767 10.9795C245.767 11.482 245.839 11.9305 245.982 12.3249C246.128 12.7158 246.343 13.0246 246.626 13.2515C246.912 13.4749 247.262 13.5865 247.678 13.5865ZM257.107 15V6.95894H259.003V15H257.107ZM258.06 5.8177C257.76 5.8177 257.502 5.71823 257.285 5.5193C257.069 5.31688 256.961 5.07432 256.961 4.79163C256.961 4.50545 257.069 4.26289 257.285 4.06395C257.502 3.86153 257.76 3.76032 258.06 3.76032C258.364 3.76032 258.622 3.86153 258.835 4.06395C259.051 4.26289 259.16 4.50545 259.16 4.79163C259.16 5.07432 259.051 5.31688 258.835 5.5193C258.622 5.71823 258.364 5.8177 258.06 5.8177ZM264.967 6.95894V8.42476H260.344V6.95894H264.967ZM261.485 5.03244H263.38V12.5814C263.38 12.8362 263.419 13.0316 263.496 13.1677C263.576 13.3003 263.681 13.3911 263.81 13.44C263.939 13.4888 264.082 13.5132 264.239 13.5132C264.358 13.5132 264.466 13.5045 264.563 13.4871C264.665 13.4696 264.741 13.4539 264.794 13.44L265.113 14.9215C265.012 14.9564 264.867 14.9948 264.679 15.0366C264.494 15.0785 264.267 15.103 263.998 15.1099C263.523 15.1239 263.096 15.0524 262.716 14.8953C262.335 14.7348 262.033 14.487 261.81 14.1519C261.59 13.8169 261.482 13.3981 261.485 12.8955V5.03244ZM268.363 11.8485V11.7124C268.366 11.0807 268.426 10.5781 268.541 10.2047C268.659 9.83125 268.827 9.53111 269.043 9.30425C269.26 9.07391 269.523 8.86276 269.834 8.67081C270.047 8.53819 270.237 8.39335 270.405 8.2363C270.576 8.07576 270.71 7.89777 270.808 7.70232C270.905 7.50339 270.954 7.28177 270.954 7.03747C270.954 6.76176 270.89 6.52269 270.761 6.32027C270.631 6.11784 270.457 5.96079 270.237 5.84911C270.021 5.73743 269.778 5.68159 269.509 5.68159C269.262 5.68159 269.026 5.73568 268.803 5.84388C268.583 5.94858 268.399 6.10912 268.253 6.3255C268.11 6.53839 268.03 6.80887 268.012 7.13694H266.148C266.166 6.47383 266.326 5.91891 266.63 5.47219C266.937 5.02546 267.342 4.69042 267.845 4.46705C268.351 4.24369 268.909 4.13201 269.52 4.13201C270.186 4.13201 270.773 4.24893 271.279 4.48276C271.788 4.71659 272.184 5.04989 272.467 5.48266C272.753 5.91193 272.896 6.42148 272.896 7.01129C272.896 7.40916 272.832 7.76514 272.703 8.07925C272.577 8.39335 272.397 8.67255 272.163 8.91686C271.93 9.16116 271.652 9.37929 271.331 9.57124C271.048 9.74574 270.816 9.92722 270.635 10.1157C270.457 10.3041 270.324 10.5258 270.237 10.7805C270.153 11.0318 270.11 11.3424 270.106 11.7124V11.8485H268.363ZM269.274 15.1152C268.96 15.1152 268.689 15.0035 268.462 14.7801C268.235 14.5568 268.122 14.2845 268.122 13.9635C268.122 13.6494 268.235 13.3806 268.462 13.1573C268.689 12.9339 268.96 12.8222 269.274 12.8222C269.584 12.8222 269.853 12.9339 270.08 13.1573C270.31 13.3806 270.425 13.6494 270.425 13.9635C270.425 14.1764 270.371 14.37 270.263 14.5445C270.158 14.7191 270.019 14.8587 269.844 14.9634C269.673 15.0646 269.483 15.1152 269.274 15.1152Z" fill="#1B1139"/>
<rect opacity="0.8" y="6.96167" width="14.7419" height="2.45699" rx="1.22849" fill="#1B1139"/>
<rect opacity="0.8" x="8.6001" y="0.819092" width="14.7419" height="2.45699" rx="1.22849" transform="rotate(90 8.6001 0.819092)" fill="#1B1139"/>
</svg>
