<svg width="498" height="104" viewBox="0 0 498 104" fill="none" xmlns="http://www.w3.org/2000/svg">
<g filter="url(#filter0_d_160_385)">
<rect x="18.0078" width="461" height="61" rx="4.91124" fill="white"/>
</g>
<path d="M112.911 26.2685C112.595 26.1267 112.265 26.0085 111.918 25.914C111.587 25.8195 111.248 25.7486 110.902 25.7013C110.555 25.654 110.201 25.6304 109.838 25.6304C109.586 25.6304 109.302 25.6619 108.987 25.7249C108.688 25.7722 108.396 25.8588 108.113 25.9849C107.829 26.1109 107.593 26.2843 107.404 26.5048C107.23 26.7254 107.144 27.0012 107.144 27.332C107.144 27.6629 107.254 27.9623 107.475 28.2301C107.711 28.4822 108.018 28.7186 108.396 28.9392C108.775 29.1598 109.2 29.3803 109.673 29.6009C110.161 29.8058 110.657 30.0342 111.162 30.2863C111.682 30.5227 112.178 30.7905 112.651 31.0899C113.139 31.3893 113.572 31.7359 113.95 32.1298C114.329 32.5237 114.628 32.9806 114.849 33.5006C115.085 34.0205 115.203 34.6193 115.203 35.2968C115.203 36.1791 115.046 36.9354 114.73 37.5657C114.415 38.1959 113.974 38.7159 113.407 39.1255C112.855 39.5194 112.225 39.8109 111.516 40C110.807 40.1891 110.059 40.2836 109.271 40.2836C108.593 40.2836 107.916 40.1891 107.238 40C106.577 39.8267 105.946 39.5667 105.348 39.2201C104.765 38.8734 104.245 38.4401 103.788 37.9202L105.229 36.1713C105.576 36.5336 105.97 36.8409 106.411 37.093C106.868 37.3293 107.341 37.5105 107.829 37.6366C108.333 37.7626 108.83 37.8256 109.318 37.8256C109.696 37.8256 110.067 37.7784 110.429 37.6838C110.791 37.5736 111.122 37.416 111.422 37.2112C111.721 37.0063 111.957 36.7464 112.131 36.4312C112.304 36.1161 112.391 35.7458 112.391 35.3204C112.391 34.895 112.28 34.5247 112.06 34.2096C111.839 33.8787 111.54 33.5872 111.162 33.3351C110.783 33.0673 110.358 32.8231 109.885 32.6025C109.413 32.3661 108.924 32.1377 108.42 31.9171C107.932 31.6807 107.451 31.4286 106.978 31.1608C106.506 30.8772 106.08 30.5621 105.702 30.2154C105.324 29.853 105.025 29.4434 104.804 28.9864C104.583 28.5138 104.473 27.9702 104.473 27.3557C104.473 26.5994 104.639 25.9613 104.969 25.4413C105.3 24.9056 105.734 24.4802 106.269 24.1651C106.821 23.8342 107.412 23.5978 108.042 23.456C108.672 23.2985 109.287 23.2197 109.885 23.2197C110.327 23.2197 110.76 23.2512 111.185 23.3142C111.611 23.3772 112.036 23.4718 112.462 23.5978C112.887 23.7239 113.289 23.8893 113.667 24.0942L112.911 26.2685ZM125.9 35.8167C125.9 37.2663 125.561 38.3771 124.884 39.1492C124.206 39.9055 123.213 40.2836 121.906 40.2836C121.654 40.2836 121.394 40.26 121.126 40.2127C120.874 40.1654 120.629 40.0945 120.393 40C120.172 39.9212 119.968 39.8267 119.779 39.7164V45.0577L117.155 44.5378V28.1592H119.779V28.6792C119.873 28.5847 120.054 28.4822 120.322 28.372C120.59 28.2459 120.889 28.1435 121.22 28.0647C121.567 27.9702 121.89 27.9229 122.189 27.9229C122.993 27.9229 123.67 28.0805 124.222 28.3956C124.773 28.7107 125.191 29.1598 125.474 29.7427C125.758 30.3257 125.9 31.019 125.9 31.8226V35.8167ZM123.3 32.0116C123.3 31.6807 123.253 31.405 123.158 31.1844C123.064 30.9481 122.93 30.7669 122.756 30.6408C122.599 30.5148 122.418 30.4281 122.213 30.3809C122.008 30.3178 121.795 30.2863 121.575 30.2863C121.323 30.2863 121.063 30.3336 120.795 30.4281C120.543 30.5069 120.322 30.5936 120.133 30.6881C119.96 30.7669 119.842 30.822 119.779 30.8535V36.6912C119.779 36.9118 119.842 37.1009 119.968 37.2584C120.109 37.416 120.283 37.542 120.488 37.6366C120.708 37.7311 120.929 37.802 121.149 37.8493C121.386 37.8966 121.598 37.9202 121.787 37.9202C122.118 37.9202 122.394 37.8493 122.615 37.7075C122.835 37.5657 123.001 37.3687 123.111 37.1166C123.237 36.8488 123.3 36.5494 123.3 36.2185V32.0116ZM136.604 35.6277C136.604 37.0142 136.25 38.1329 135.541 38.9837C134.832 39.8188 133.752 40.2363 132.303 40.2363C131.263 40.2363 130.412 40.0236 129.75 39.5982C129.104 39.157 128.624 38.5898 128.308 37.8966C128.009 37.1875 127.859 36.4312 127.859 35.6277V32.5079C127.859 31.4996 128.025 30.6566 128.356 29.9791C128.702 29.3016 129.207 28.7895 129.868 28.4429C130.53 28.0805 131.342 27.8993 132.303 27.8993C133.673 27.8993 134.729 28.3089 135.47 29.1282C136.226 29.9318 136.604 31.0584 136.604 32.5079V35.6277ZM133.933 32.3661C133.933 31.988 133.87 31.665 133.744 31.3971C133.618 31.1135 133.429 30.9008 133.177 30.759C132.941 30.6014 132.641 30.5227 132.279 30.5227C131.901 30.5227 131.578 30.5936 131.31 30.7354C131.058 30.8772 130.861 31.082 130.719 31.3499C130.577 31.6177 130.506 31.9565 130.506 32.3661V35.8167C130.506 36.1319 130.562 36.4312 130.672 36.7148C130.798 36.9985 130.995 37.2269 131.263 37.4002C131.531 37.5736 131.869 37.6602 132.279 37.6602C132.673 37.6602 132.988 37.5814 133.224 37.4239C133.476 37.2663 133.658 37.0457 133.768 36.7621C133.878 36.4785 133.933 36.1634 133.933 35.8167V32.3661ZM144.719 31.8935C144.719 31.6729 144.679 31.468 144.6 31.279C144.522 31.0741 144.403 30.9008 144.246 30.759C144.104 30.6172 143.931 30.5069 143.726 30.4281C143.521 30.3494 143.293 30.31 143.041 30.31C142.867 30.31 142.678 30.3257 142.473 30.3572C142.284 30.3887 142.079 30.4518 141.859 30.5463C141.638 30.6251 141.402 30.7354 141.15 30.8772V40.0236H138.55V28.1592H141.15V28.7028C141.292 28.6241 141.481 28.5295 141.717 28.4192C141.969 28.2932 142.245 28.1829 142.544 28.0883C142.859 27.9938 143.182 27.9465 143.513 27.9465C143.891 27.9465 144.262 27.9859 144.624 28.0647C144.986 28.1435 145.325 28.2695 145.64 28.4429C145.971 28.6162 146.255 28.8525 146.491 29.1519C146.743 29.4355 146.94 29.7979 147.082 30.2391C147.224 30.6802 147.295 31.2081 147.295 31.8226V40.0236H144.719V31.8935ZM156.036 30.8772C155.863 30.7826 155.666 30.7039 155.445 30.6408C155.225 30.5621 154.988 30.5069 154.736 30.4754C154.5 30.4281 154.248 30.4045 153.98 30.4045C153.838 30.4045 153.681 30.4124 153.507 30.4281C153.35 30.4439 153.192 30.4833 153.035 30.5463C152.877 30.5936 152.743 30.6724 152.633 30.7826C152.538 30.8772 152.491 31.0111 152.491 31.1844C152.491 31.4208 152.586 31.6256 152.775 31.7989C152.98 31.9722 153.247 32.1298 153.578 32.2716C153.909 32.4134 154.272 32.5631 154.665 32.7207C155.059 32.8625 155.445 33.0358 155.824 33.2406C156.217 33.4454 156.58 33.6897 156.911 33.9733C157.242 34.2569 157.502 34.6114 157.691 35.0368C157.895 35.4465 157.998 35.9428 157.998 36.5258C157.998 37.156 157.88 37.7075 157.643 38.1802C157.407 38.6528 157.084 39.0546 156.674 39.3855C156.28 39.7006 155.824 39.937 155.304 40.0945C154.799 40.2679 154.272 40.3545 153.72 40.3545C152.853 40.3545 152.026 40.1733 151.238 39.8109C150.451 39.4485 149.781 38.9601 149.23 38.3456L150.766 36.7385C151.018 36.9591 151.286 37.1639 151.569 37.353C151.869 37.5263 152.176 37.6681 152.491 37.7784C152.806 37.8729 153.121 37.9202 153.436 37.9202C153.641 37.9202 153.846 37.8966 154.051 37.8493C154.272 37.802 154.468 37.7232 154.642 37.6129C154.815 37.5026 154.957 37.3608 155.067 37.1875C155.178 37.0142 155.233 36.8094 155.233 36.573C155.233 36.2579 155.13 35.9979 154.925 35.7931C154.736 35.5883 154.476 35.4071 154.145 35.2495C153.83 35.0762 153.476 34.9108 153.082 34.7532C152.704 34.5956 152.318 34.4302 151.924 34.2569C151.546 34.0678 151.191 33.8393 150.86 33.5715C150.545 33.3036 150.285 32.9806 150.08 32.6025C149.891 32.2243 149.797 31.7674 149.797 31.2317C149.797 30.6487 149.907 30.1445 150.128 29.7191C150.348 29.2937 150.648 28.9471 151.026 28.6792C151.42 28.3956 151.853 28.1908 152.326 28.0647C152.798 27.9229 153.279 27.852 153.767 27.852C154.114 27.852 154.468 27.8835 154.831 27.9465C155.209 28.0096 155.571 28.1041 155.918 28.2301C156.265 28.3562 156.572 28.5138 156.84 28.7028L156.036 30.8772ZM168.593 35.6277C168.593 37.0142 168.239 38.1329 167.53 38.9837C166.821 39.8188 165.742 40.2363 164.292 40.2363C163.252 40.2363 162.401 40.0236 161.739 39.5982C161.093 39.157 160.613 38.5898 160.298 37.8966C159.998 37.1875 159.849 36.4312 159.849 35.6277V32.5079C159.849 31.4996 160.014 30.6566 160.345 29.9791C160.692 29.3016 161.196 28.7895 161.858 28.4429C162.519 28.0805 163.331 27.8993 164.292 27.8993C165.663 27.8993 166.718 28.3089 167.459 29.1282C168.215 29.9318 168.593 31.0584 168.593 32.5079V35.6277ZM165.923 32.3661C165.923 31.988 165.86 31.665 165.734 31.3971C165.608 31.1135 165.419 30.9008 165.166 30.759C164.93 30.6014 164.631 30.5227 164.268 30.5227C163.89 30.5227 163.567 30.5936 163.299 30.7354C163.047 30.8772 162.85 31.082 162.708 31.3499C162.567 31.6177 162.496 31.9565 162.496 32.3661V35.8167C162.496 36.1319 162.551 36.4312 162.661 36.7148C162.787 36.9985 162.984 37.2269 163.252 37.4002C163.52 37.5736 163.859 37.6602 164.268 37.6602C164.662 37.6602 164.977 37.5814 165.214 37.4239C165.466 37.2663 165.647 37.0457 165.757 36.7621C165.868 36.4785 165.923 36.1634 165.923 35.8167V32.3661ZM177.464 30.31C177.464 30.31 177.362 30.2863 177.157 30.2391C176.968 30.176 176.661 30.1445 176.235 30.1445C175.983 30.1445 175.723 30.1603 175.455 30.1918C175.187 30.2075 174.92 30.2469 174.652 30.31C174.4 30.3572 174.147 30.4203 173.895 30.499C173.643 30.5778 173.399 30.6802 173.163 30.8063V40H170.539V28.1592H173.163V28.6319C173.557 28.3641 173.998 28.1592 174.486 28.0174C174.975 27.8756 175.471 27.8047 175.975 27.8047C176.338 27.8047 176.676 27.8441 176.991 27.9229C177.307 27.9859 177.59 28.0647 177.842 28.1592L177.464 30.31ZM185.487 30.8772C185.313 30.7826 185.116 30.7039 184.896 30.6408C184.675 30.5621 184.439 30.5069 184.187 30.4754C183.95 30.4281 183.698 30.4045 183.431 30.4045C183.289 30.4045 183.131 30.4124 182.958 30.4281C182.8 30.4439 182.643 30.4833 182.485 30.5463C182.328 30.5936 182.194 30.6724 182.083 30.7826C181.989 30.8772 181.942 31.0111 181.942 31.1844C181.942 31.4208 182.036 31.6256 182.225 31.7989C182.43 31.9722 182.698 32.1298 183.029 32.2716C183.36 32.4134 183.722 32.5631 184.116 32.7207C184.51 32.8625 184.896 33.0358 185.274 33.2406C185.668 33.4454 186.03 33.6897 186.361 33.9733C186.692 34.2569 186.952 34.6114 187.141 35.0368C187.346 35.4465 187.448 35.9428 187.448 36.5258C187.448 37.156 187.33 37.7075 187.094 38.1802C186.857 38.6528 186.534 39.0546 186.125 39.3855C185.731 39.7006 185.274 39.937 184.754 40.0945C184.25 40.2679 183.722 40.3545 183.171 40.3545C182.304 40.3545 181.477 40.1733 180.689 39.8109C179.901 39.4485 179.232 38.9601 178.68 38.3456L180.216 36.7385C180.468 36.9591 180.736 37.1639 181.02 37.353C181.319 37.5263 181.626 37.6681 181.942 37.7784C182.257 37.8729 182.572 37.9202 182.887 37.9202C183.092 37.9202 183.297 37.8966 183.501 37.8493C183.722 37.802 183.919 37.7232 184.092 37.6129C184.266 37.5026 184.407 37.3608 184.518 37.1875C184.628 37.0142 184.683 36.8094 184.683 36.573C184.683 36.2579 184.581 35.9979 184.376 35.7931C184.187 35.5883 183.927 35.4071 183.596 35.2495C183.281 35.0762 182.926 34.9108 182.532 34.7532C182.154 34.5956 181.768 34.4302 181.374 34.2569C180.996 34.0678 180.642 33.8393 180.311 33.5715C179.996 33.3036 179.736 32.9806 179.531 32.6025C179.342 32.2243 179.247 31.7674 179.247 31.2317C179.247 30.6487 179.358 30.1445 179.578 29.7191C179.799 29.2937 180.098 28.9471 180.476 28.6792C180.87 28.3956 181.303 28.1908 181.776 28.0647C182.249 27.9229 182.729 27.852 183.218 27.852C183.564 27.852 183.919 27.8835 184.281 27.9465C184.66 28.0096 185.022 28.1041 185.369 28.2301C185.715 28.3562 186.022 28.5138 186.29 28.7028L185.487 30.8772ZM191.951 28.7028C192.092 28.6083 192.282 28.498 192.518 28.372C192.77 28.2459 193.046 28.1435 193.345 28.0647C193.66 27.9702 193.983 27.9229 194.314 27.9229C194.692 27.9229 195.063 27.9623 195.425 28.0411C195.787 28.1199 196.126 28.2459 196.441 28.4192C196.772 28.5925 197.064 28.8289 197.316 29.1282C197.568 29.4276 197.765 29.7979 197.906 30.2391C198.048 30.6802 198.119 31.2081 198.119 31.8226V40H195.543V31.8698C195.543 31.6492 195.504 31.4444 195.425 31.2553C195.346 31.0663 195.228 30.9008 195.07 30.759C194.929 30.6172 194.747 30.5069 194.527 30.4281C194.322 30.3494 194.094 30.31 193.841 30.31C193.668 30.31 193.479 30.3336 193.274 30.3809C193.085 30.4124 192.88 30.4675 192.66 30.5463C192.439 30.6251 192.203 30.7275 191.951 30.8535V40H189.351V23.456H191.951V28.7028ZM200.085 40V28.1592H202.708V40H200.085ZM201.408 23.2197C201.802 23.2197 202.133 23.3457 202.401 23.5978C202.685 23.8499 202.826 24.1808 202.826 24.5905C202.826 24.9844 202.685 25.3231 202.401 25.6067C202.133 25.8746 201.802 26.0085 201.408 26.0085C201.015 26.0085 200.676 25.8746 200.392 25.6067C200.124 25.3231 199.99 24.9844 199.99 24.5905C199.99 24.1808 200.124 23.8499 200.392 23.5978C200.676 23.3457 201.015 23.2197 201.408 23.2197ZM213.513 35.8167C213.513 37.2663 213.174 38.3771 212.496 39.1492C211.819 39.9055 210.826 40.2836 209.518 40.2836C209.266 40.2836 209.006 40.26 208.739 40.2127C208.486 40.1654 208.242 40.0945 208.006 40C207.785 39.9212 207.58 39.8267 207.391 39.7164V45.0577L204.768 44.5378V28.1592H207.391V28.6792C207.486 28.5847 207.667 28.4822 207.935 28.372C208.203 28.2459 208.502 28.1435 208.833 28.0647C209.18 27.9702 209.503 27.9229 209.802 27.9229C210.606 27.9229 211.283 28.0805 211.835 28.3956C212.386 28.7107 212.804 29.1598 213.087 29.7427C213.371 30.3257 213.513 31.019 213.513 31.8226V35.8167ZM210.913 32.0116C210.913 31.6807 210.866 31.405 210.771 31.1844C210.677 30.9481 210.543 30.7669 210.369 30.6408C210.212 30.5148 210.031 30.4281 209.826 30.3809C209.621 30.3178 209.408 30.2863 209.188 30.2863C208.935 30.2863 208.676 30.3336 208.408 30.4281C208.156 30.5069 207.935 30.5936 207.746 30.6881C207.573 30.7669 207.454 30.822 207.391 30.8535V36.6912C207.391 36.9118 207.454 37.1009 207.58 37.2584C207.722 37.416 207.896 37.542 208.1 37.6366C208.321 37.7311 208.542 37.802 208.762 37.8493C208.999 37.8966 209.211 37.9202 209.4 37.9202C209.731 37.9202 210.007 37.8493 210.228 37.7075C210.448 37.5657 210.614 37.3687 210.724 37.1166C210.85 36.8488 210.913 36.5494 210.913 36.2185V32.0116Z" fill="black"/>
<path d="M432.557 31.5303C432.85 31.2374 432.85 30.7626 432.557 30.4697L427.784 25.6967C427.491 25.4038 427.016 25.4038 426.723 25.6967C426.431 25.9896 426.431 26.4645 426.723 26.7574L430.966 31L426.723 35.2426C426.431 35.5355 426.431 36.0104 426.723 36.3033C427.016 36.5962 427.491 36.5962 427.784 36.3033L432.557 31.5303ZM431.008 31V31.75H432.027V31V30.25H431.008V31Z" fill="black"/>
<defs>
<filter id="filter0_d_160_385" x="-7.53403e-05" y="0" width="497.016" height="103.564" filterUnits="userSpaceOnUse" color-interpolation-filters="sRGB">
<feFlood flood-opacity="0" result="BackgroundImageFix"/>
<feColorMatrix in="SourceAlpha" type="matrix" values="0 0 0 0 0 0 0 0 0 0 0 0 0 0 0 0 0 0 127 0" result="hardAlpha"/>
<feMorphology radius="14.7337" operator="erode" in="SourceAlpha" result="effect1_dropShadow_160_385"/>
<feOffset dy="24.5562"/>
<feGaussianBlur stdDeviation="16.3708"/>
<feColorMatrix type="matrix" values="0 0 0 0 0.583333 0 0 0 0 0.583333 0 0 0 0 0.583333 0 0 0 0.25 0"/>
<feBlend mode="normal" in2="BackgroundImageFix" result="effect1_dropShadow_160_385"/>
<feBlend mode="normal" in="SourceGraphic" in2="effect1_dropShadow_160_385" result="shape"/>
</filter>
</defs>
</svg>
